<svg width="441" height="20" viewBox="0 0 441 20" fill="none" xmlns="http://www.w3.org/2000/svg">
<path d="M9.48 5.16H7.28V3.22C7.28 1.52 6.44 0.5 4.76 0.5C3.06 0.5 2.24 1.52 2.24 3.22V12.08C2.24 13.76 3.06 14.8 4.76 14.8C6.44 14.8 7.28 13.76 7.28 12.08V8.56H4.12V8.14H9.48V10.86C9.48 14.02 7.92 15.2 4.76 15.2C1.6 15.2 0.0200001 14.02 0.0200001 10.86V4.42C0.0200001 1.26 1.6 0.0999987 4.76 0.0999987C7.92 0.0999987 9.48 1.26 9.48 4.42V5.16ZM19.5263 9.48H13.3263V12.08C13.3263 13.76 14.0063 14.8 15.4062 14.8C16.8263 14.8 17.5063 13.76 17.5063 12.68V11.28H19.5263V11.88C19.5263 14.44 18.2663 15.2 15.4062 15.2C12.5463 15.2 11.3063 14.44 11.3063 11.28V8.04C11.3063 4.88 12.5463 4.12 15.4062 4.12C18.2663 4.12 19.5263 4.88 19.5263 7.44V9.48ZM13.3263 9.08H17.5063V6.64C17.5063 5.56 16.8263 4.52 15.4062 4.52C14.0063 4.52 13.3263 5.56 13.3263 7.24V9.08ZM23.65 1.1V4.32H27.17V4.72H23.65V12.08C23.65 13.76 24.05 14.8 24.63 14.8C25.07 14.8 25.57 14.28 25.57 13.08V12.08H27.57V12.68C27.57 14.44 26.59 15.2 24.61 15.2C22.63 15.2 21.63 14.44 21.63 11.28V4.72H20.63V4.32H21.63V1.1H23.65ZM45.3586 4.32V15.1C45.3586 18.26 44.0986 19.02 41.6386 19.02C38.7786 19.02 37.5386 18.86 37.5386 16.3V15.9H39.5586V17.12C39.5586 18.2 40.2386 18.62 41.6386 18.62C42.6586 18.62 43.3386 17.6 43.3386 15.9V13.74C42.9186 14.7 42.2786 15.2 40.9386 15.2C38.6986 15.2 37.5386 13.78 37.5386 11.68V4.32H39.5586V12.08C39.5586 13.76 40.2386 14.6 41.3986 14.6C42.5786 14.6 43.3386 13.76 43.3386 12.08V4.32H45.3586ZM47.3414 11.28V8.04C47.3414 4.88 48.5814 4.12 51.4414 4.12C54.3014 4.12 55.5614 4.88 55.5614 8.04V11.28C55.5614 14.44 54.3014 15.2 51.4414 15.2C48.5814 15.2 47.3414 14.44 47.3414 11.28ZM51.4414 14.8C52.8614 14.8 53.5414 13.76 53.5414 12.08V7.24C53.5414 5.56 52.8614 4.52 51.4414 4.52C50.0414 4.52 49.3614 5.56 49.3614 7.24V12.08C49.3614 13.76 50.0414 14.8 51.4414 14.8ZM65.6609 4.32V11.28C65.6609 14.44 64.4009 15.2 61.5409 15.2C58.6809 15.2 57.4409 14.44 57.4409 11.28V4.32H59.4609V12.08C59.4609 13.76 60.1409 14.8 61.5409 14.8C62.9609 14.8 63.6409 13.76 63.6409 12.08V4.32H65.6609ZM73.4167 4.12V6.54C72.7967 5.98 72.0567 5.72 71.3967 5.72C70.4767 5.72 69.7367 6.26 69.7367 7.24V15H67.7167V4.32H69.7367V6.18C70.2967 4.46 72.0567 3.92 73.4167 4.12ZM74.448 11.28H76.468V12.68C76.468 13.76 77.148 14.8 78.548 14.8C79.828 14.8 80.608 13.94 80.608 12.8C80.608 9.58 74.448 11.78 74.448 7.5C74.448 5.28 76.108 4.12 78.508 4.12C81.088 4.12 82.468 5.44 82.468 7.44V8.04H80.448V6.64C80.448 5.56 79.968 4.52 78.548 4.52C77.288 4.52 76.508 5.36 76.508 6.6C76.508 10 82.668 7.82 82.668 11.94C82.668 14.08 81.008 15.2 78.548 15.2C75.908 15.2 74.448 13.86 74.448 11.88V11.28ZM92.5145 9.48H86.3145V12.08C86.3145 13.76 86.9945 14.8 88.3945 14.8C89.8145 14.8 90.4945 13.76 90.4945 12.68V11.28H92.5145V11.88C92.5145 14.44 91.2545 15.2 88.3945 15.2C85.5345 15.2 84.2945 14.44 84.2945 11.28V8.04C84.2945 4.88 85.5345 4.12 88.3945 4.12C91.2545 4.12 92.5145 4.88 92.5145 7.44V9.48ZM86.3145 9.08H90.4945V6.64C90.4945 5.56 89.8145 4.52 88.3945 4.52C86.9945 4.52 86.3145 5.56 86.3145 7.24V9.08ZM96.475 15H94.455V0.3H96.475V15ZM100.995 15H98.9747V4.72H97.9747V4.32H98.9747V4.02C98.9747 0.86 99.9747 0.0999987 101.855 0.0999987C103.735 0.0999987 104.715 0.86 104.715 2.6V3.22H102.715V2.2C102.715 1.02 102.315 0.5 101.835 0.5C101.195 0.5 100.995 1.58 100.995 3.22V4.32H103.855V4.72H100.995V15ZM108.999 11.28H111.019V12.68C111.019 13.76 111.699 14.8 113.099 14.8C114.379 14.8 115.159 13.94 115.159 12.8C115.159 9.58 108.999 11.78 108.999 7.5C108.999 5.28 110.659 4.12 113.059 4.12C115.639 4.12 117.019 5.44 117.019 7.44V8.04H114.999V6.64C114.999 5.56 114.519 4.52 113.099 4.52C111.839 4.52 111.059 5.36 111.059 6.6C111.059 10 117.219 7.82 117.219 11.94C117.219 14.08 115.559 15.2 113.099 15.2C110.459 15.2 108.999 13.86 108.999 11.88V11.28ZM118.845 11.28V8.04C118.845 4.88 120.085 4.12 122.945 4.12C125.805 4.12 127.065 4.88 127.065 8.04V11.28C127.065 14.44 125.805 15.2 122.945 15.2C120.085 15.2 118.845 14.44 118.845 11.28ZM122.945 14.8C124.365 14.8 125.045 13.76 125.045 12.08V7.24C125.045 5.56 124.365 4.52 122.945 4.52C121.545 4.52 120.865 5.56 120.865 7.24V12.08C120.865 13.76 121.545 14.8 122.945 14.8ZM136.525 15H134.505V7.24C134.505 5.56 133.945 4.52 132.745 4.52C131.545 4.52 130.985 5.56 130.985 7.24V15H128.965V8.04C128.965 4.88 130.105 4.12 132.505 4.12C133.985 4.12 135.045 4.4 135.505 5.62C135.885 4.4 137.045 4.12 138.505 4.12C140.905 4.12 142.065 4.88 142.065 8.04V15H140.045V7.24C140.045 5.56 139.485 4.52 138.285 4.52C137.085 4.52 136.525 5.56 136.525 7.24V15ZM152.183 9.48H145.983V12.08C145.983 13.76 146.663 14.8 148.062 14.8C149.483 14.8 150.163 13.76 150.163 12.68V11.28H152.183V11.88C152.183 14.44 150.923 15.2 148.062 15.2C145.203 15.2 143.963 14.44 143.963 11.28V8.04C143.963 4.88 145.203 4.12 148.062 4.12C150.923 4.12 152.183 4.88 152.183 7.44V9.48ZM145.983 9.08H150.163V6.64C150.163 5.56 149.483 4.52 148.062 4.52C146.663 4.52 145.983 5.56 145.983 7.24V9.08ZM158.24 11.28V8.04C158.24 4.88 159.48 4.12 162.34 4.12C165.2 4.12 166.46 4.88 166.46 8.04V11.28C166.46 14.44 165.2 15.2 162.34 15.2C159.48 15.2 158.24 14.44 158.24 11.28ZM162.34 14.8C163.76 14.8 164.44 13.76 164.44 12.08V7.24C164.44 5.56 163.76 4.52 162.34 4.52C160.94 4.52 160.26 5.56 160.26 7.24V12.08C160.26 13.76 160.94 14.8 162.34 14.8ZM170.604 15H168.584V4.72H167.584V4.32H168.584V4.02C168.584 0.86 169.584 0.0999987 171.464 0.0999987C173.344 0.0999987 174.324 0.86 174.324 2.6V3.22H172.324V2.2C172.324 1.02 171.924 0.5 171.444 0.5C170.804 0.5 170.604 1.58 170.604 3.22V4.32H173.464V4.72H170.604V15ZM181.228 1.1V4.32H184.748V4.72H181.228V12.08C181.228 13.76 181.628 14.8 182.208 14.8C182.648 14.8 183.148 14.28 183.148 13.08V12.08H185.148V12.68C185.148 14.44 184.168 15.2 182.188 15.2C180.208 15.2 179.208 14.44 179.208 11.28V4.72H178.208V4.32H179.208V1.1H181.228ZM194.843 15H192.823V7.24C192.823 5.56 192.143 4.72 190.863 4.72C189.603 4.72 188.643 5.56 188.643 7.24V15H186.623V0.3H188.643V5.58C189.063 4.62 189.903 4.12 191.323 4.12C193.663 4.12 194.843 5.54 194.843 7.64V15ZM204.936 9.48H198.736V12.08C198.736 13.76 199.416 14.8 200.816 14.8C202.236 14.8 202.916 13.76 202.916 12.68V11.28H204.936V11.88C204.936 14.44 203.676 15.2 200.816 15.2C197.956 15.2 196.716 14.44 196.716 11.28V8.04C196.716 4.88 197.956 4.12 200.816 4.12C203.676 4.12 204.936 4.88 204.936 7.44V9.48ZM198.736 9.08H202.916V6.64C202.916 5.56 202.236 4.52 200.816 4.52C199.416 4.52 198.736 5.56 198.736 7.24V9.08ZM213.534 15H211.514V4.72H210.514V4.32H211.514V4.02C211.514 0.86 212.514 0.0999987 214.394 0.0999987C216.274 0.0999987 217.254 0.86 217.254 2.6V3.22H215.254V2.2C215.254 1.02 214.854 0.5 214.374 0.5C213.734 0.5 213.534 1.58 213.534 3.22V4.32H216.394V4.72H213.534V15ZM223.241 4.12V6.54C222.621 5.98 221.881 5.72 221.221 5.72C220.301 5.72 219.561 6.26 219.561 7.24V15H217.541V4.32H219.561V6.18C220.121 4.46 221.881 3.92 223.241 4.12ZM232.612 9.48H226.412V12.08C226.412 13.76 227.092 14.8 228.492 14.8C229.912 14.8 230.592 13.76 230.592 12.68V11.28H232.612V11.88C232.612 14.44 231.352 15.2 228.492 15.2C225.632 15.2 224.392 14.44 224.392 11.28V8.04C224.392 4.88 225.632 4.12 228.492 4.12C231.352 4.12 232.612 4.88 232.612 7.44V9.48ZM226.412 9.08H230.592V6.64C230.592 5.56 229.912 4.52 228.492 4.52C227.092 4.52 226.412 5.56 226.412 7.24V9.08ZM234.253 11.28H236.273V12.68C236.273 13.76 236.953 14.8 238.353 14.8C239.633 14.8 240.413 13.94 240.413 12.8C240.413 9.58 234.253 11.78 234.253 7.5C234.253 5.28 235.913 4.12 238.313 4.12C240.893 4.12 242.273 5.44 242.273 7.44V8.04H240.253V6.64C240.253 5.56 239.773 4.52 238.353 4.52C237.093 4.52 236.313 5.36 236.313 6.6C236.313 10 242.473 7.82 242.473 11.94C242.473 14.08 240.813 15.2 238.353 15.2C235.713 15.2 234.253 13.86 234.253 11.88V11.28ZM252.499 15H250.479V7.24C250.479 5.56 249.799 4.72 248.519 4.72C247.259 4.72 246.299 5.56 246.299 7.24V15H244.279V0.3H246.299V5.58C246.719 4.62 247.559 4.12 248.979 4.12C251.319 4.12 252.499 5.54 252.499 7.64V15ZM262.593 9.48H256.393V12.08C256.393 13.76 257.073 14.8 258.473 14.8C259.893 14.8 260.573 13.76 260.573 12.68V11.28H262.593V11.88C262.593 14.44 261.333 15.2 258.473 15.2C255.613 15.2 254.373 14.44 254.373 11.28V8.04C254.373 4.88 255.613 4.12 258.473 4.12C261.333 4.12 262.593 4.88 262.593 7.44V9.48ZM256.393 9.08H260.573V6.64C260.573 5.56 259.893 4.52 258.473 4.52C257.073 4.52 256.393 5.56 256.393 7.24V9.08ZM264.233 11.28H266.253V12.68C266.253 13.76 266.933 14.8 268.333 14.8C269.613 14.8 270.393 13.94 270.393 12.8C270.393 9.58 264.233 11.78 264.233 7.5C264.233 5.28 265.893 4.12 268.293 4.12C270.873 4.12 272.253 5.44 272.253 7.44V8.04H270.233V6.64C270.233 5.56 269.753 4.52 268.333 4.52C267.073 4.52 266.293 5.36 266.293 6.6C266.293 10 272.453 7.82 272.453 11.94C272.453 14.08 270.793 15.2 268.333 15.2C265.693 15.2 264.233 13.86 264.233 11.88V11.28ZM276.404 1.1V4.32H279.924V4.72H276.404V12.08C276.404 13.76 276.804 14.8 277.384 14.8C277.824 14.8 278.324 14.28 278.324 13.08V12.08H280.324V12.68C280.324 14.44 279.344 15.2 277.364 15.2C275.384 15.2 274.384 14.44 274.384 11.28V4.72H273.384V4.32H274.384V1.1H276.404ZM289.876 4.72C288.616 4.72 287.936 5.56 287.936 7.24V12.08C287.936 13.76 288.616 14.8 290.016 14.8C291.436 14.8 292.116 13.76 292.116 12.08V7.24C292.116 5.56 291.156 4.72 289.876 4.72ZM294.136 0.3V11.28C294.136 14.44 292.876 15.2 290.016 15.2C287.156 15.2 285.916 14.44 285.916 11.28V7.64C285.916 5.54 287.076 4.12 289.436 4.12C290.856 4.12 291.696 4.62 292.116 5.58V0.3H294.136ZM301.893 4.12V6.54C301.273 5.98 300.533 5.72 299.873 5.72C298.953 5.72 298.213 6.26 298.213 7.24V15H296.193V4.32H298.213V6.18C298.773 4.46 300.533 3.92 301.893 4.12ZM302.905 2.2C302.905 1.48 303.485 0.899999 304.205 0.899999C304.945 0.899999 305.525 1.48 305.525 2.2C305.525 2.94 304.945 3.52 304.205 3.52C303.485 3.52 302.905 2.94 302.905 2.2ZM303.205 15V4.32H305.225V15H303.205ZM311.349 14.6C312.629 14.6 313.309 13.76 313.309 12.08V7.24C313.309 5.56 312.629 4.52 311.209 4.52C309.809 4.52 309.129 5.56 309.129 7.24V12.08C309.129 13.76 310.089 14.6 311.349 14.6ZM307.109 19.02V8.04C307.109 4.88 308.349 4.12 311.209 4.12C314.069 4.12 315.329 4.88 315.329 8.04V11.68C315.329 13.78 314.149 15.2 311.809 15.2C310.389 15.2 309.549 14.7 309.129 13.74V19.02H307.109ZM321.423 11.28V8.04C321.423 4.88 322.663 4.12 325.523 4.12C328.383 4.12 329.643 4.88 329.643 8.04V11.28C329.643 14.44 328.383 15.2 325.523 15.2C322.663 15.2 321.423 14.44 321.423 11.28ZM325.523 14.8C326.943 14.8 327.623 13.76 327.623 12.08V7.24C327.623 5.56 326.943 4.52 325.523 4.52C324.123 4.52 323.443 5.56 323.443 7.24V12.08C323.443 13.76 324.123 14.8 325.523 14.8ZM339.743 15H337.723V7.24C337.723 5.56 337.043 4.52 335.623 4.52C334.223 4.52 333.543 5.56 333.543 7.24V15H331.523V8.04C331.523 4.88 332.763 4.12 335.623 4.12C338.483 4.12 339.743 4.88 339.743 8.04V15ZM348.416 1.1V4.32H351.936V4.72H348.416V12.08C348.416 13.76 348.816 14.8 349.396 14.8C349.836 14.8 350.336 14.28 350.336 13.08V12.08H352.336V12.68C352.336 14.44 351.356 15.2 349.376 15.2C347.396 15.2 346.396 14.44 346.396 11.28V4.72H345.396V4.32H346.396V1.1H348.416ZM362.03 15H360.01V7.24C360.01 5.56 359.33 4.72 358.05 4.72C356.79 4.72 355.83 5.56 355.83 7.24V15H353.81V0.3H355.83V5.58C356.25 4.62 357.09 4.12 358.51 4.12C360.85 4.12 362.03 5.54 362.03 7.64V15ZM372.124 9.48H365.924V12.08C365.924 13.76 366.604 14.8 368.004 14.8C369.424 14.8 370.104 13.76 370.104 12.68V11.28H372.124V11.88C372.124 14.44 370.864 15.2 368.004 15.2C365.144 15.2 363.904 14.44 363.904 11.28V8.04C363.904 4.88 365.144 4.12 368.004 4.12C370.864 4.12 372.124 4.88 372.124 7.44V9.48ZM365.924 9.08H370.104V6.64C370.104 5.56 369.424 4.52 368.004 4.52C366.604 4.52 365.924 5.56 365.924 7.24V9.08ZM385.841 15H383.821V7.24C383.821 5.56 383.261 4.52 382.061 4.52C380.861 4.52 380.301 5.56 380.301 7.24V15H378.281V8.04C378.281 4.88 379.421 4.12 381.821 4.12C383.301 4.12 384.361 4.4 384.821 5.62C385.201 4.4 386.361 4.12 387.821 4.12C390.221 4.12 391.381 4.88 391.381 8.04V15H389.361V7.24C389.361 5.56 388.801 4.52 387.601 4.52C386.401 4.52 385.841 5.56 385.841 7.24V15ZM401.499 15H399.479V13.74C399.059 14.7 398.219 15.2 396.799 15.2C394.439 15.2 393.279 13.78 393.279 11.68V8.04C393.279 4.88 394.519 4.12 397.379 4.12C400.239 4.12 401.499 4.88 401.499 8.04V15ZM397.239 14.6C398.519 14.6 399.479 13.76 399.479 12.08V7.24C399.479 5.56 398.799 4.52 397.379 4.52C395.979 4.52 395.299 5.56 395.299 7.24V12.08C395.299 13.76 395.979 14.6 397.239 14.6ZM409.276 4.12V6.54C408.656 5.98 407.916 5.72 407.256 5.72C406.336 5.72 405.596 6.26 405.596 7.24V15H403.576V4.32H405.596V6.18C406.156 4.46 407.916 3.92 409.276 4.12ZM416.407 6.94V4.32H418.427V6.88C418.427 8.84 417.707 8.98 416.227 9.38C417.627 9.84 418.427 10.22 418.427 12.42V15H416.407V12.28C416.407 9.82 415.747 9.56 413.787 9.56H412.627V15H410.607V0.3H412.627V9.16H413.787C415.747 9.16 416.407 9.1 416.407 6.94ZM428.511 9.48H422.311V12.08C422.311 13.76 422.991 14.8 424.391 14.8C425.811 14.8 426.491 13.76 426.491 12.68V11.28H428.511V11.88C428.511 14.44 427.251 15.2 424.391 15.2C421.531 15.2 420.291 14.44 420.291 11.28V8.04C420.291 4.88 421.531 4.12 424.391 4.12C427.251 4.12 428.511 4.88 428.511 7.44V9.48ZM422.311 9.08H426.491V6.64C426.491 5.56 425.811 4.52 424.391 4.52C422.991 4.52 422.311 5.56 422.311 7.24V9.08ZM432.634 1.1V4.32H436.154V4.72H432.634V12.08C432.634 13.76 433.034 14.8 433.614 14.8C434.054 14.8 434.554 14.28 434.554 13.08V12.08H436.554V12.68C436.554 14.44 435.574 15.2 433.594 15.2C431.614 15.2 430.614 14.44 430.614 11.28V4.72H429.614V4.32H430.614V1.1H432.634ZM438.949 11.12L438.049 0.3H440.269L439.369 11.12H438.949ZM437.849 13.68C437.849 12.96 438.429 12.38 439.149 12.38C439.889 12.38 440.469 12.96 440.469 13.68C440.469 14.42 439.889 15 439.149 15C438.429 15 437.849 14.42 437.849 13.68Z" fill="white"/>
</svg>
