<svg width="85" height="20" viewBox="0 0 85 20" fill="none" xmlns="http://www.w3.org/2000/svg">
<path d="M10.2111 8.57998C10.2111 8.68998 10.2511 8.78998 10.3211 8.87998C10.3911 8.96998 10.4911 9.00998 10.6011 9.00998C10.7111 9.00998 10.8011 8.96998 10.8811 8.87998C10.9611 8.78998 10.9911 8.68998 10.9911 8.57998V6.73998C10.9911 6.62998 10.9511 6.52998 10.8811 6.43998C10.8111 6.34998 10.7111 6.30998 10.6011 6.30998H10.5611C10.4611 6.30998 10.3811 6.34998 10.3111 6.42998C10.2411 6.50998 10.2111 6.59998 10.2111 6.71998V8.57998ZM10.2111 17.94H3.37109V4.29998L4.65109 2.97998H16.5411L17.8211 4.29998V17.93H10.9911V14.19C10.9911 14.08 10.9611 13.98 10.8911 13.9C10.8211 13.82 10.7411 13.78 10.6411 13.78H10.6011C10.4911 13.78 10.4011 13.82 10.3211 13.91C10.2411 14 10.2111 14.1 10.2111 14.21V17.93V17.94Z" fill="#003556" stroke="#003556" stroke-width="1.13" stroke-miterlimit="10"/>
<path d="M26.7402 8.57998C26.7402 8.68998 26.7802 8.78998 26.8502 8.87998C26.9202 8.96998 27.0202 9.00998 27.1302 9.00998C27.2402 9.00998 27.3302 8.96998 27.4102 8.87998C27.4902 8.78998 27.5202 8.68998 27.5202 8.57998V6.71998C27.5202 6.44998 27.3902 6.30998 27.1302 6.30998C26.8702 6.30998 26.7402 6.44998 26.7402 6.71998V8.57998ZM34.3602 9.12998L33.0802 10.45L34.3602 11.77V16.6L33.0802 17.92H19.9102V2.97998H33.0802L34.3602 4.29998V9.12998ZM27.5202 12.34C27.5202 12.23 27.4802 12.13 27.4102 12.04C27.3402 11.95 27.2402 11.91 27.1302 11.91C27.0202 11.91 26.9302 11.95 26.8502 12.04C26.7702 12.13 26.7402 12.23 26.7402 12.34V14.2C26.7402 14.47 26.8702 14.61 27.1302 14.61C27.3902 14.61 27.5202 14.47 27.5202 14.2V12.34Z" fill="#003556" stroke="#003556" stroke-width="1.13" stroke-miterlimit="10"/>
<path d="M43.2519 14.2C43.2519 14.31 43.2819 14.41 43.3519 14.49C43.4219 14.57 43.5019 14.61 43.6019 14.61H43.6419C43.7519 14.61 43.8419 14.57 43.9219 14.48C44.0019 14.39 44.0319 14.29 44.0319 14.18V6.73998C44.0319 6.62998 43.9919 6.52998 43.9219 6.43998C43.8519 6.34998 43.7519 6.30998 43.6419 6.30998H43.6019C43.5019 6.30998 43.4219 6.34998 43.3519 6.42998C43.2819 6.50998 43.2519 6.59998 43.2519 6.71998V14.2ZM37.7019 17.94L36.4219 16.62V4.29998L37.7019 2.97998H49.5919L50.8719 4.29998V16.61L49.5919 17.93H37.7019V17.94Z" fill="#003556" stroke="#003556" stroke-width="1.13" stroke-miterlimit="10"/>
<path d="M67.3797 2.97998V16.61L66.0997 17.93H54.2097L52.9297 16.61V2.97998H59.7597V10.46C59.7597 10.59 59.7997 10.69 59.8897 10.78C59.9797 10.87 60.0897 10.89 60.2097 10.87C60.3197 10.86 60.3997 10.81 60.4597 10.73C60.5097 10.65 60.5397 10.56 60.5397 10.44V2.97998H67.3697H67.3797Z" fill="#003556" stroke="#003556" stroke-width="1.13" stroke-miterlimit="10"/>
<path d="M80.2792 10.05C80.0192 10.05 79.8892 10.19 79.8892 10.46V17.94H73.4492V10.46C73.4492 10.19 73.3192 10.05 73.0592 10.05H69.4492V2.97998H83.8992V10.05H80.2892H80.2792Z" fill="#003556" stroke="#003556" stroke-width="1.13" stroke-miterlimit="10"/>
<path d="M10.1308 8.50992C10.1308 8.61992 10.1708 8.71992 10.2408 8.80992C10.3108 8.89992 10.4108 8.93992 10.5208 8.93992C10.6308 8.93992 10.7208 8.89992 10.8008 8.80992C10.8808 8.71992 10.9108 8.61992 10.9108 8.50992V6.66992C10.9108 6.55992 10.8708 6.45992 10.8008 6.36992C10.7308 6.27992 10.6308 6.23992 10.5208 6.23992H10.4808C10.3808 6.23992 10.3008 6.27992 10.2308 6.35992C10.1608 6.43992 10.1308 6.52992 10.1308 6.64992V8.50992ZM10.1308 17.8699H3.30078V4.23992L4.58078 2.91992H16.4708L17.7508 4.23992V17.8699H10.9208V14.1299C10.9208 14.0199 10.8908 13.9199 10.8208 13.8399C10.7508 13.7599 10.6708 13.7199 10.5708 13.7199H10.5308C10.4208 13.7199 10.3308 13.7599 10.2508 13.8499C10.1708 13.9399 10.1408 14.0399 10.1408 14.1499V17.8699H10.1308Z" fill="#003556" stroke="#003556" stroke-width="1.13" stroke-miterlimit="10"/>
<path d="M26.662 8.50991C26.662 8.61991 26.702 8.71991 26.772 8.80991C26.842 8.89991 26.942 8.93991 27.052 8.93991C27.162 8.93991 27.252 8.89991 27.332 8.80991C27.412 8.71991 27.442 8.61991 27.442 8.50991V6.64991C27.442 6.37991 27.312 6.23991 27.052 6.23991C26.792 6.23991 26.662 6.37991 26.662 6.64991V8.50991ZM34.282 9.06991L33.002 10.3899L34.282 11.7099V16.5399L33.002 17.8599H19.832V2.90991H33.002L34.282 4.22991V9.05991V9.06991ZM27.452 12.2699C27.452 12.1599 27.412 12.0599 27.342 11.9699C27.272 11.8799 27.172 11.8399 27.062 11.8399C26.952 11.8399 26.862 11.8799 26.782 11.9699C26.702 12.0599 26.672 12.1599 26.672 12.2699V14.1299C26.672 14.3999 26.802 14.5399 27.062 14.5399C27.322 14.5399 27.452 14.3999 27.452 14.1299V12.2699Z" fill="#003556" stroke="#003556" stroke-width="1.13" stroke-miterlimit="10"/>
<path d="M43.1798 14.1299C43.1798 14.2399 43.2098 14.3399 43.2798 14.4199C43.3498 14.4999 43.4298 14.5399 43.5298 14.5399H43.5698C43.6798 14.5399 43.7698 14.4999 43.8498 14.4099C43.9298 14.3199 43.9598 14.2199 43.9598 14.1099V6.66992C43.9598 6.55992 43.9198 6.45992 43.8498 6.36992C43.7798 6.27992 43.6798 6.23992 43.5698 6.23992H43.5298C43.4298 6.23992 43.3498 6.27992 43.2798 6.35992C43.2098 6.43992 43.1798 6.52992 43.1798 6.64992V14.1299ZM37.6198 17.8699L36.3398 16.5499V4.23992L37.6198 2.91992H49.5098L50.7898 4.23992V16.5499L49.5098 17.8699H37.6198Z" fill="#003556" stroke="#003556" stroke-width="1.13" stroke-miterlimit="10"/>
<path d="M67.3094 2.90991V16.5399L66.0294 17.8599H54.1394L52.8594 16.5399V2.90991H59.6894V10.3899C59.6894 10.5199 59.7294 10.6199 59.8194 10.7099C59.9094 10.7999 60.0194 10.8199 60.1394 10.7999C60.2494 10.7799 60.3294 10.7399 60.3894 10.6599C60.4394 10.5799 60.4694 10.4899 60.4694 10.3699V2.90991H67.2994H67.3094Z" fill="#003556" stroke="#003556" stroke-width="1.13" stroke-miterlimit="10"/>
<path d="M80.2089 9.98991C79.9489 9.98991 79.8189 10.1299 79.8189 10.3999V17.8799H73.3789V10.3999C73.3789 10.1299 73.2489 9.98991 72.9889 9.98991H69.3789V2.90991H83.8289V9.97991H80.2189L80.2089 9.98991Z" fill="#003556" stroke="#003556" stroke-width="1.13" stroke-miterlimit="10"/>
<path d="M10.0487 8.45011C10.0487 8.56011 10.0888 8.66011 10.1588 8.75011C10.2288 8.84011 10.3288 8.88011 10.4388 8.88011C10.5488 8.88011 10.6388 8.84011 10.7188 8.75011C10.7987 8.66011 10.8288 8.56011 10.8288 8.45011V6.61011C10.8288 6.50011 10.7888 6.40011 10.7188 6.31011C10.6487 6.22011 10.5488 6.18011 10.4388 6.18011H10.3988C10.2988 6.18011 10.2188 6.22011 10.1488 6.30011C10.0788 6.38011 10.0487 6.47011 10.0487 6.59011V8.45011ZM10.0487 17.8101H3.21875V4.18011L4.49875 2.86011H16.3888L17.6687 4.18011V17.8101H10.8387V14.0701C10.8387 13.9601 10.8088 13.8601 10.7388 13.7801C10.6688 13.7001 10.5888 13.6601 10.4888 13.6601H10.4488C10.3388 13.6601 10.2487 13.7001 10.1687 13.7901C10.0887 13.8801 10.0588 13.9801 10.0588 14.0901V17.8101H10.0487Z" fill="#003556" stroke="#003556" stroke-width="1.13" stroke-miterlimit="10"/>
<path d="M26.59 8.4501C26.59 8.5601 26.63 8.6601 26.7 8.7501C26.77 8.8401 26.87 8.8801 26.98 8.8801C27.09 8.8801 27.18 8.8401 27.26 8.7501C27.34 8.6601 27.37 8.5601 27.37 8.4501V6.5901C27.37 6.3201 27.24 6.1801 26.98 6.1801C26.72 6.1801 26.59 6.3201 26.59 6.5901V8.4501ZM34.2 9.0101L32.92 10.3301L34.2 11.6501V16.4801L32.92 17.8001H19.75V2.8501H32.92L34.2 4.1701V9.0001V9.0101ZM27.37 12.2101C27.37 12.1001 27.33 12.0001 27.26 11.9101C27.19 11.8201 27.09 11.7801 26.98 11.7801C26.87 11.7801 26.78 11.8201 26.7 11.9101C26.62 12.0001 26.59 12.1001 26.59 12.2101V14.0701C26.59 14.3401 26.72 14.4801 26.98 14.4801C27.24 14.4801 27.37 14.3401 27.37 14.0701V12.2101Z" fill="#003556" stroke="#003556" stroke-width="1.13" stroke-miterlimit="10"/>
<path d="M43.0995 14.0701C43.0995 14.1801 43.1295 14.2801 43.1995 14.3601C43.2695 14.4401 43.3495 14.4801 43.4495 14.4801H43.4895C43.5995 14.4801 43.6895 14.4401 43.7695 14.3501C43.8495 14.2601 43.8795 14.1601 43.8795 14.0501V6.61011C43.8795 6.50011 43.8395 6.40011 43.7695 6.31011C43.6995 6.22011 43.5995 6.18011 43.4895 6.18011H43.4495C43.3495 6.18011 43.2695 6.22011 43.1995 6.30011C43.1295 6.38011 43.0995 6.47011 43.0995 6.59011V14.0701ZM37.5495 17.8101L36.2695 16.4901V4.18011L37.5495 2.86011H49.4395L50.7195 4.18011V16.4901L49.4395 17.8101H37.5495Z" fill="#003556" stroke="#003556" stroke-width="1.13" stroke-miterlimit="10"/>
<path d="M67.2273 2.8501V16.4801L65.9473 17.8001H54.0573L52.7773 16.4801V2.8501H59.6073V10.3301C59.6073 10.4601 59.6473 10.5601 59.7373 10.6501C59.8273 10.7401 59.9373 10.7601 60.0573 10.7401C60.1673 10.7201 60.2473 10.6801 60.3073 10.6001C60.3573 10.5201 60.3873 10.4301 60.3873 10.3101V2.8501H67.2173H67.2273Z" fill="#003556" stroke="#003556" stroke-width="1.13" stroke-miterlimit="10"/>
<path d="M80.1269 9.9201C79.8669 9.9201 79.7369 10.0601 79.7369 10.3301V17.8101H73.2969V10.3301C73.2969 10.0601 73.1669 9.9201 72.9069 9.9201H69.2969V2.8501H83.7469V9.9201H80.1369H80.1269Z" fill="#003556" stroke="#003556" stroke-width="1.13" stroke-miterlimit="10"/>
<path d="M9.98063 8.39004C9.98063 8.50004 10.0206 8.60004 10.0906 8.69004C10.1606 8.78004 10.2606 8.82004 10.3706 8.82004C10.4806 8.82004 10.5706 8.78004 10.6506 8.69004C10.7306 8.60004 10.7606 8.50004 10.7606 8.39004V6.55004C10.7606 6.44004 10.7206 6.34004 10.6506 6.25004C10.5806 6.16004 10.4806 6.12004 10.3706 6.12004H10.3306C10.2306 6.12004 10.1506 6.16004 10.0806 6.24004C10.0106 6.32004 9.98063 6.41004 9.98063 6.53004V8.39004ZM9.98063 17.75H3.14062V4.11004L4.42062 2.79004H16.3106L17.5906 4.11004V17.74H10.7606V14C10.7606 13.89 10.7306 13.79 10.6606 13.71C10.5906 13.63 10.5106 13.59 10.4106 13.59H10.3706C10.2606 13.59 10.1706 13.63 10.0906 13.72C10.0106 13.81 9.98063 13.91 9.98063 14.02V17.74V17.75Z" fill="#003556" stroke="#003556" stroke-width="1.13" stroke-miterlimit="10"/>
<path d="M26.5097 8.39004C26.5097 8.50004 26.5497 8.60004 26.6197 8.69004C26.6897 8.78004 26.7897 8.82004 26.8997 8.82004C27.0097 8.82004 27.0997 8.78004 27.1797 8.69004C27.2597 8.60004 27.2897 8.50004 27.2897 8.39004V6.53004C27.2897 6.26004 27.1597 6.12004 26.8997 6.12004C26.6397 6.12004 26.5097 6.26004 26.5097 6.53004V8.39004ZM34.1297 8.94004L32.8497 10.26L34.1297 11.58V16.41L32.8497 17.73H19.6797V2.79004H32.8497L34.1297 4.11004V8.94004ZM27.2897 12.15C27.2897 12.04 27.2497 11.94 27.1797 11.85C27.1097 11.76 27.0097 11.72 26.8997 11.72C26.7897 11.72 26.6997 11.76 26.6197 11.85C26.5397 11.94 26.5097 12.04 26.5097 12.15V14.01C26.5097 14.28 26.6397 14.42 26.8997 14.42C27.1597 14.42 27.2897 14.28 27.2897 14.01V12.15Z" fill="#003556" stroke="#003556" stroke-width="1.13" stroke-miterlimit="10"/>
<path d="M43.0214 14.01C43.0214 14.12 43.0514 14.22 43.1214 14.3C43.1914 14.38 43.2714 14.42 43.3714 14.42H43.4114C43.5214 14.42 43.6114 14.38 43.6914 14.29C43.7714 14.2 43.8014 14.1 43.8014 13.99V6.55004C43.8014 6.44004 43.7614 6.34004 43.6914 6.25004C43.6214 6.16004 43.5214 6.12004 43.4114 6.12004H43.3714C43.2714 6.12004 43.1914 6.16004 43.1214 6.24004C43.0514 6.32004 43.0214 6.41004 43.0214 6.53004V14.01ZM37.4714 17.75L36.1914 16.43V4.11004L37.4714 2.79004H49.3614L50.6414 4.11004V16.42L49.3614 17.74H37.4714V17.75Z" fill="#003556" stroke="#003556" stroke-width="1.13" stroke-miterlimit="10"/>
<path d="M67.1492 2.79004V16.42L65.8692 17.74H53.9792L52.6992 16.42V2.79004H59.5292V10.27C59.5292 10.4 59.5692 10.5 59.6592 10.59C59.7492 10.68 59.8592 10.7 59.9792 10.68C60.0892 10.66 60.1692 10.62 60.2292 10.54C60.2792 10.46 60.3092 10.37 60.3092 10.25V2.79004H67.1392H67.1492Z" fill="#003556" stroke="#003556" stroke-width="1.13" stroke-miterlimit="10"/>
<path d="M80.0488 9.86004C79.7888 9.86004 79.6588 10 79.6588 10.27V17.75H73.2188V10.27C73.2188 10 73.0888 9.86004 72.8288 9.86004H69.2188V2.79004H83.6688V9.86004H80.0588H80.0488Z" fill="#003556" stroke="#003556" stroke-width="1.13" stroke-miterlimit="10"/>
<path d="M9.90031 8.31998C9.90031 8.42998 9.94031 8.52998 10.0103 8.61998C10.0803 8.70998 10.1803 8.74998 10.2903 8.74998C10.4003 8.74998 10.4903 8.70998 10.5703 8.61998C10.6503 8.52998 10.6803 8.42998 10.6803 8.31998V6.47998C10.6803 6.36998 10.6403 6.26998 10.5703 6.17998C10.5003 6.08998 10.4003 6.04998 10.2903 6.04998H10.2503C10.1503 6.04998 10.0703 6.08998 10.0003 6.16998C9.93031 6.24998 9.90031 6.33998 9.90031 6.45998V8.31998ZM9.90031 17.68H3.07031V4.04998L4.35031 2.72998H16.2403L17.5203 4.04998V17.68H10.6903V13.94C10.6903 13.83 10.6603 13.73 10.5903 13.65C10.5203 13.57 10.4403 13.53 10.3403 13.53H10.3003C10.1903 13.53 10.1003 13.57 10.0203 13.66C9.94031 13.75 9.91031 13.85 9.91031 13.96V17.68H9.90031Z" fill="#003556" stroke="#003556" stroke-width="1.13" stroke-miterlimit="10"/>
<path d="M26.4316 8.31997C26.4316 8.42997 26.4716 8.52997 26.5416 8.61997C26.6116 8.70997 26.7116 8.74997 26.8216 8.74997C26.9316 8.74997 27.0216 8.70997 27.1016 8.61997C27.1816 8.52997 27.2116 8.42997 27.2116 8.31997V6.45997C27.2116 6.18997 27.0816 6.04997 26.8216 6.04997C26.5616 6.04997 26.4316 6.18997 26.4316 6.45997V8.31997ZM34.0516 8.87997L32.7716 10.2L34.0516 11.52V16.35L32.7716 17.67H19.6016V2.71997H32.7716L34.0516 4.03997V8.86997V8.87997ZM27.2216 12.08C27.2216 11.97 27.1816 11.87 27.1116 11.78C27.0416 11.69 26.9416 11.65 26.8316 11.65C26.7216 11.65 26.6316 11.69 26.5516 11.78C26.4716 11.87 26.4416 11.97 26.4416 12.08V13.94C26.4416 14.21 26.5716 14.35 26.8316 14.35C27.0916 14.35 27.2216 14.21 27.2216 13.94V12.08Z" fill="#003556" stroke="#003556" stroke-width="1.13" stroke-miterlimit="10"/>
<path d="M42.9494 13.94C42.9494 14.05 42.9794 14.15 43.0494 14.23C43.1194 14.31 43.1994 14.35 43.2994 14.35H43.3394C43.4494 14.35 43.5394 14.31 43.6194 14.22C43.6994 14.13 43.7294 14.03 43.7294 13.92V6.47998C43.7294 6.36998 43.6894 6.26998 43.6194 6.17998C43.5494 6.08998 43.4494 6.04998 43.3394 6.04998H43.2994C43.1994 6.04998 43.1194 6.08998 43.0494 6.16998C42.9794 6.24998 42.9494 6.33998 42.9494 6.45998V13.94ZM37.3894 17.68L36.1094 16.36V4.04998L37.3894 2.72998H49.2794L50.5594 4.04998V16.36L49.2794 17.68H37.3894Z" fill="#003556" stroke="#003556" stroke-width="1.13" stroke-miterlimit="10"/>
<path d="M67.0789 2.71997V16.35L65.7989 17.67H53.9089L52.6289 16.35V2.71997H59.4589V10.2C59.4589 10.33 59.4989 10.43 59.5889 10.52C59.6789 10.61 59.7889 10.63 59.9089 10.61C60.0189 10.59 60.0989 10.55 60.1589 10.47C60.2089 10.39 60.2389 10.3 60.2389 10.18V2.71997H67.0689H67.0789Z" fill="#003556" stroke="#003556" stroke-width="1.13" stroke-miterlimit="10"/>
<path d="M79.9784 9.79997C79.7184 9.79997 79.5884 9.93997 79.5884 10.21V17.69H73.1484V10.21C73.1484 9.93997 73.0184 9.79997 72.7584 9.79997H69.1484V2.71997H83.5984V9.78997H79.9884L79.9784 9.79997Z" fill="#003556" stroke="#003556" stroke-width="1.13" stroke-miterlimit="10"/>
<path d="M9.81828 8.25991C9.81828 8.36991 9.85828 8.46991 9.92828 8.55991C9.99828 8.64991 10.0983 8.68991 10.2083 8.68991C10.3183 8.68991 10.4083 8.64991 10.4883 8.55991C10.5683 8.46991 10.5983 8.36991 10.5983 8.25991V6.41991C10.5983 6.30991 10.5583 6.20991 10.4883 6.11991C10.4183 6.02991 10.3183 5.98991 10.2083 5.98991H10.1683C10.0683 5.98991 9.98828 6.02991 9.91828 6.10991C9.84828 6.18991 9.81828 6.27991 9.81828 6.39991V8.25991ZM9.81828 17.6199H2.98828V3.97991L4.26828 2.65991H16.1583L17.4383 3.97991V17.6099H10.6083V13.8699C10.6083 13.7599 10.5783 13.6599 10.5083 13.5799C10.4383 13.4999 10.3583 13.4599 10.2583 13.4599H10.2183C10.1083 13.4599 10.0183 13.4999 9.93828 13.5899C9.85828 13.6799 9.82828 13.7799 9.82828 13.8899V17.6099L9.81828 17.6199Z" fill="#003556" stroke="#003556" stroke-width="1.13" stroke-miterlimit="10"/>
<path d="M26.3595 8.25991C26.3595 8.36991 26.3995 8.46991 26.4695 8.55991C26.5395 8.64991 26.6395 8.68991 26.7495 8.68991C26.8595 8.68991 26.9495 8.64991 27.0295 8.55991C27.1095 8.46991 27.1395 8.36991 27.1395 8.25991V6.39991C27.1395 6.12991 27.0095 5.98991 26.7495 5.98991C26.4895 5.98991 26.3595 6.12991 26.3595 6.39991V8.25991ZM33.9695 8.80991L32.6895 10.1299L33.9695 11.4499V16.2799L32.6895 17.5999H19.5195V2.65991H32.6895L33.9695 3.97991V8.80991ZM27.1395 12.0199C27.1395 11.9099 27.0995 11.8099 27.0295 11.7199C26.9595 11.6299 26.8595 11.5899 26.7495 11.5899C26.6395 11.5899 26.5495 11.6299 26.4695 11.7199C26.3895 11.8099 26.3595 11.9099 26.3595 12.0199V13.8799C26.3595 14.1499 26.4895 14.2899 26.7495 14.2899C27.0095 14.2899 27.1395 14.1499 27.1395 13.8799V12.0199Z" fill="#003556" stroke="#003556" stroke-width="1.13" stroke-miterlimit="10"/>
<path d="M42.8691 13.8799C42.8691 13.9899 42.8991 14.0899 42.9691 14.1699C43.0391 14.2499 43.1191 14.2899 43.2191 14.2899H43.2591C43.3691 14.2899 43.4591 14.2499 43.5391 14.1599C43.6191 14.0699 43.6491 13.9699 43.6491 13.8599V6.41991C43.6491 6.30991 43.6091 6.20991 43.5391 6.11991C43.4691 6.02991 43.3691 5.98991 43.2591 5.98991H43.2191C43.1191 5.98991 43.0391 6.02991 42.9691 6.10991C42.8991 6.18991 42.8691 6.27991 42.8691 6.39991V13.8799ZM37.3191 17.6199L36.0391 16.2999V3.97991L37.3191 2.65991H49.2091L50.4891 3.97991V16.2899L49.2091 17.6099H37.3191V17.6199Z" fill="#003556" stroke="#003556" stroke-width="1.13" stroke-miterlimit="10"/>
<path d="M66.9969 2.65991V16.2899L65.7169 17.6099H53.8269L52.5469 16.2899V2.65991H59.3769V10.1399C59.3769 10.2699 59.4169 10.3699 59.5069 10.4599C59.5969 10.5499 59.7069 10.5699 59.8269 10.5499C59.9369 10.5299 60.0169 10.4899 60.0769 10.4099C60.1269 10.3299 60.1569 10.2399 60.1569 10.1199V2.65991H66.9869H66.9969Z" fill="#003556" stroke="#003556" stroke-width="1.13" stroke-miterlimit="10"/>
<path d="M79.8964 9.72991C79.6364 9.72991 79.5064 9.86991 79.5064 10.1399V17.6199H73.0664V10.1399C73.0664 9.86991 72.9364 9.72991 72.6764 9.72991H69.0664V2.65991H83.5164V9.72991H79.9064H79.8964Z" fill="#003556" stroke="#003556" stroke-width="1.13" stroke-miterlimit="10"/>
<path d="M9.75188 8.2001C9.75188 8.3101 9.79187 8.4101 9.86188 8.5001C9.93188 8.5901 10.0319 8.6301 10.1419 8.6301C10.2519 8.6301 10.3419 8.5901 10.4219 8.5001C10.5019 8.4101 10.5319 8.3101 10.5319 8.2001V6.3601C10.5319 6.2501 10.4919 6.1501 10.4219 6.0601C10.3519 5.9701 10.2519 5.9301 10.1419 5.9301H10.1019C10.0019 5.9301 9.92188 5.9701 9.85187 6.0501C9.78187 6.1301 9.75188 6.2201 9.75188 6.3401V8.2001ZM9.75188 17.5601H2.92188V3.9201L4.20187 2.6001H16.0919L17.3719 3.9201V17.5501H10.5419V13.8101C10.5419 13.7001 10.5119 13.6001 10.4419 13.5201C10.3719 13.4401 10.2919 13.4001 10.1919 13.4001H10.1519C10.0419 13.4001 9.95188 13.4401 9.87188 13.5301C9.79188 13.6201 9.76187 13.7201 9.76187 13.8301V17.5501L9.75188 17.5601Z" fill="#003556" stroke="#003556" stroke-width="1.13" stroke-miterlimit="10"/>
<path d="M26.2831 8.2001C26.2831 8.3101 26.3231 8.4101 26.3931 8.5001C26.4631 8.5901 26.5631 8.6301 26.6731 8.6301C26.7831 8.6301 26.8731 8.5901 26.9531 8.5001C27.0331 8.4101 27.0631 8.3101 27.0631 8.2001V6.3401C27.0631 6.0701 26.9331 5.9301 26.6731 5.9301C26.4131 5.9301 26.2831 6.0701 26.2831 6.3401V8.2001ZM33.9031 8.7501L32.6231 10.0701L33.9031 11.3901V16.2201L32.6231 17.5401H19.4531V2.6001H32.6231L33.9031 3.9201V8.7501ZM27.0731 11.9601C27.0731 11.8501 27.0331 11.7501 26.9631 11.6601C26.8931 11.5701 26.7931 11.5301 26.6831 11.5301C26.5731 11.5301 26.4831 11.5701 26.4031 11.6601C26.3231 11.7501 26.2931 11.8501 26.2931 11.9601V13.8201C26.2931 14.0901 26.4231 14.2301 26.6831 14.2301C26.9431 14.2301 27.0731 14.0901 27.0731 13.8201V11.9601Z" fill="#003556" stroke="#003556" stroke-width="1.13" stroke-miterlimit="10"/>
<path d="M42.7909 13.8201C42.7909 13.9301 42.8209 14.0301 42.8909 14.1101C42.9609 14.1901 43.0409 14.2301 43.1409 14.2301H43.1809C43.2909 14.2301 43.3809 14.1901 43.4609 14.1001C43.5409 14.0101 43.5709 13.9101 43.5709 13.8001V6.3601C43.5709 6.2501 43.5309 6.1501 43.4609 6.0601C43.3909 5.9701 43.2909 5.9301 43.1809 5.9301H43.1409C43.0409 5.9301 42.9609 5.9701 42.8909 6.0501C42.8209 6.1301 42.7909 6.2201 42.7909 6.3401V13.8201ZM37.2409 17.5601L35.9609 16.2401V3.9201L37.2409 2.6001H49.1309L50.4109 3.9201V16.2301L49.1309 17.5501H37.2409V17.5601Z" fill="#003556" stroke="#003556" stroke-width="1.13" stroke-miterlimit="10"/>
<path d="M66.9227 2.6001V16.2301L65.6427 17.5501H53.7527L52.4727 16.2301V2.6001H59.3027V10.0801C59.3027 10.2101 59.3427 10.3101 59.4327 10.4001C59.5227 10.4901 59.6327 10.5101 59.7527 10.4901C59.8627 10.4701 59.9427 10.4301 60.0027 10.3501C60.0527 10.2701 60.0827 10.1801 60.0827 10.0601V2.6001H66.9127H66.9227Z" fill="#003556" stroke="#003556" stroke-width="1.13" stroke-miterlimit="10"/>
<path d="M79.83 9.6701C79.57 9.6701 79.44 9.8101 79.44 10.0801V17.5601H73V10.0801C73 9.8101 72.87 9.6701 72.61 9.6701H69V2.6001H83.45V9.6701H79.84H79.83Z" fill="#003556" stroke="#003556" stroke-width="1.13" stroke-miterlimit="10"/>
<path d="M9.66984 8.13004C9.66984 8.24004 9.70984 8.34004 9.77984 8.43004C9.84984 8.52004 9.94984 8.56004 10.0598 8.56004C10.1698 8.56004 10.2598 8.52004 10.3398 8.43004C10.4198 8.34004 10.4498 8.24004 10.4498 8.13004V6.29004C10.4498 6.18004 10.4098 6.08004 10.3398 5.99004C10.2698 5.90004 10.1698 5.86004 10.0598 5.86004H10.0198C9.91984 5.86004 9.83984 5.90004 9.76984 5.98004C9.69984 6.06004 9.66984 6.15004 9.66984 6.27004V8.13004ZM9.66984 17.49H2.83984V3.86004L4.11984 2.54004H16.0098L17.2898 3.86004V17.49H10.4598V13.75C10.4598 13.64 10.4298 13.54 10.3598 13.46C10.2898 13.38 10.2098 13.34 10.1098 13.34H10.0698C9.95984 13.34 9.86984 13.38 9.78984 13.47C9.70984 13.56 9.67984 13.66 9.67984 13.77V17.49H9.66984Z" fill="#003556" stroke="#003556" stroke-width="1.13" stroke-miterlimit="10"/>
<path d="M26.2011 8.13003C26.2011 8.24003 26.2411 8.34003 26.3111 8.43003C26.3811 8.52003 26.4811 8.56003 26.5911 8.56003C26.7011 8.56003 26.7911 8.52003 26.8711 8.43003C26.9511 8.34003 26.9811 8.24003 26.9811 8.13003V6.27003C26.9811 6.00003 26.8511 5.86003 26.5911 5.86003C26.3311 5.86003 26.2011 6.00003 26.2011 6.27003V8.13003ZM33.8211 8.69003L32.5411 10.01L33.8211 11.33V16.16L32.5411 17.48H19.3711V2.53003H32.5411L33.8211 3.85003V8.68003V8.69003ZM26.9911 11.89C26.9911 11.78 26.9511 11.68 26.8811 11.59C26.8111 11.5 26.7111 11.46 26.6011 11.46C26.4911 11.46 26.4011 11.5 26.3211 11.59C26.2411 11.68 26.2111 11.78 26.2111 11.89V13.75C26.2111 14.02 26.3411 14.16 26.6011 14.16C26.8611 14.16 26.9911 14.02 26.9911 13.75V11.89Z" fill="#003556" stroke="#003556" stroke-width="1.13" stroke-miterlimit="10"/>
<path d="M42.7206 13.75C42.7206 13.86 42.7506 13.96 42.8206 14.04C42.8906 14.12 42.9706 14.16 43.0706 14.16H43.1106C43.2206 14.16 43.3106 14.12 43.3906 14.03C43.4706 13.94 43.5006 13.84 43.5006 13.73V6.29004C43.5006 6.18004 43.4606 6.08004 43.3906 5.99004C43.3206 5.90004 43.2206 5.86004 43.1106 5.86004H43.0706C42.9706 5.86004 42.8906 5.90004 42.8206 5.98004C42.7506 6.06004 42.7206 6.15004 42.7206 6.27004V13.75ZM37.1706 17.49L35.8906 16.17V3.86004L37.1706 2.54004H49.0606L50.3406 3.86004V16.17L49.0606 17.49H37.1706Z" fill="#003556" stroke="#003556" stroke-width="1.13" stroke-miterlimit="10"/>
<path d="M66.8484 2.53003V16.16L65.5684 17.48H53.6784L52.3984 16.16V2.53003H59.2284V10.01C59.2284 10.14 59.2684 10.24 59.3584 10.33C59.4484 10.42 59.5584 10.44 59.6784 10.42C59.7884 10.4 59.8684 10.36 59.9284 10.28C59.9784 10.2 60.0084 10.11 60.0084 9.99003V2.53003H66.8384H66.8484Z" fill="#003556" stroke="#003556" stroke-width="1.13" stroke-miterlimit="10"/>
<path d="M79.748 9.61003C79.488 9.61003 79.358 9.75003 79.358 10.02V17.5H72.918V10.02C72.918 9.75003 72.788 9.61003 72.528 9.61003H68.918V2.53003H83.368V9.60003H79.758L79.748 9.61003Z" fill="#003556" stroke="#003556" stroke-width="1.13" stroke-miterlimit="10"/>
<path d="M9.59172 8.06997C9.59172 8.17997 9.63172 8.27997 9.70172 8.36997C9.77172 8.45997 9.87172 8.49997 9.98172 8.49997C10.0917 8.49997 10.1817 8.45997 10.2617 8.36997C10.3417 8.27997 10.3717 8.17997 10.3717 8.06997V6.22997C10.3717 6.11997 10.3317 6.01997 10.2617 5.92997C10.1917 5.83997 10.0917 5.79997 9.98172 5.79997H9.94172C9.84172 5.79997 9.76172 5.83997 9.69172 5.91997C9.62172 5.99997 9.59172 6.08997 9.59172 6.20997V8.06997ZM9.59172 17.43H2.76172V3.78997L4.04172 2.46997H15.9317L17.2117 3.78997V17.42H10.3817V13.68C10.3817 13.57 10.3517 13.47 10.2817 13.39C10.2117 13.31 10.1317 13.27 10.0317 13.27H9.99172C9.88172 13.27 9.79172 13.31 9.71172 13.4C9.63172 13.49 9.60172 13.59 9.60172 13.7V17.42L9.59172 17.43Z" fill="#003556" stroke="#003556" stroke-width="1.13" stroke-miterlimit="10"/>
<path d="M26.1308 8.06997C26.1308 8.17997 26.1708 8.27997 26.2408 8.36997C26.3108 8.45997 26.4108 8.49997 26.5208 8.49997C26.6308 8.49997 26.7208 8.45997 26.8008 8.36997C26.8808 8.27997 26.9108 8.17997 26.9108 8.06997V6.20997C26.9108 5.93997 26.7808 5.79997 26.5208 5.79997C26.2608 5.79997 26.1308 5.93997 26.1308 6.20997V8.06997ZM33.7508 8.61997L32.4708 9.93997L33.7508 11.26V16.09L32.4708 17.41H19.3008V2.46997H32.4708L33.7508 3.78997V8.61997ZM26.9108 11.83C26.9108 11.72 26.8708 11.62 26.8008 11.53C26.7308 11.44 26.6308 11.4 26.5208 11.4C26.4108 11.4 26.3208 11.44 26.2408 11.53C26.1608 11.62 26.1308 11.72 26.1308 11.83V13.69C26.1308 13.96 26.2608 14.1 26.5208 14.1C26.7808 14.1 26.9108 13.96 26.9108 13.69V11.83Z" fill="#003556" stroke="#003556" stroke-width="1.13" stroke-miterlimit="10"/>
<path d="M42.6425 13.69C42.6425 13.8 42.6725 13.9 42.7425 13.98C42.8125 14.06 42.8925 14.1 42.9925 14.1H43.0325C43.1425 14.1 43.2325 14.06 43.3125 13.97C43.3925 13.88 43.4225 13.78 43.4225 13.67V6.22997C43.4225 6.11997 43.3825 6.01997 43.3125 5.92997C43.2425 5.83997 43.1425 5.79997 43.0325 5.79997H42.9925C42.8925 5.79997 42.8125 5.83997 42.7425 5.91997C42.6725 5.99997 42.6425 6.08997 42.6425 6.20997V13.69ZM37.0925 17.43L35.8125 16.11V3.78997L37.0925 2.46997H48.9825L50.2625 3.78997V16.1L48.9825 17.42H37.0925V17.43Z" fill="#003556" stroke="#003556" stroke-width="1.13" stroke-miterlimit="10"/>
<path d="M66.7703 2.46997V16.1L65.4903 17.42H53.6003L52.3203 16.1V2.46997H59.1503V9.94997C59.1503 10.08 59.1903 10.18 59.2803 10.27C59.3703 10.36 59.4803 10.38 59.6003 10.36C59.7103 10.34 59.7903 10.3 59.8503 10.22C59.9003 10.14 59.9303 10.05 59.9303 9.92997V2.46997H66.7603H66.7703Z" fill="#003556" stroke="#003556" stroke-width="1.13" stroke-miterlimit="10"/>
<path d="M79.6698 9.53997C79.4098 9.53997 79.2798 9.67997 79.2798 9.94997V17.43H72.8398V9.94997C72.8398 9.67997 72.7098 9.53997 72.4498 9.53997H68.8398V2.46997H83.2898V9.53997H79.6798H79.6698Z" fill="#003556" stroke="#003556" stroke-width="1.13" stroke-miterlimit="10"/>
<path d="M9.52141 7.99991C9.52141 8.10991 9.56141 8.20991 9.63141 8.29991C9.70141 8.38991 9.80141 8.42991 9.91141 8.42991C10.0214 8.42991 10.1114 8.38991 10.1914 8.29991C10.2714 8.20991 10.3014 8.10991 10.3014 7.99991V6.15991C10.3014 6.04991 10.2614 5.94991 10.1914 5.85991C10.1214 5.76991 10.0214 5.72991 9.91141 5.72991H9.87141C9.77141 5.72991 9.69141 5.76991 9.62141 5.84991C9.55141 5.92991 9.52141 6.01991 9.52141 6.13991V7.99991ZM9.52141 17.3599H2.69141V3.72991L3.97141 2.40991H15.8614L17.1414 3.72991V17.3599H10.3114V13.6199C10.3114 13.5099 10.2814 13.4099 10.2114 13.3299C10.1414 13.2499 10.0614 13.2099 9.96141 13.2099H9.92141C9.81141 13.2099 9.72141 13.2499 9.64141 13.3399C9.56141 13.4299 9.53141 13.5299 9.53141 13.6399V17.3599H9.52141Z" fill="#003556" stroke="#003556" stroke-width="1.13" stroke-miterlimit="10"/>
<path d="M26.0527 7.99991C26.0527 8.10991 26.0927 8.20991 26.1627 8.29991C26.2327 8.38991 26.3327 8.42991 26.4427 8.42991C26.5527 8.42991 26.6427 8.38991 26.7227 8.29991C26.8027 8.20991 26.8327 8.10991 26.8327 7.99991V6.13991C26.8327 5.86991 26.7027 5.72991 26.4427 5.72991C26.1827 5.72991 26.0527 5.86991 26.0527 6.13991V7.99991ZM33.6727 8.55991L32.3927 9.87991L33.6727 11.1999V16.0299L32.3927 17.3499H19.2227V2.40991H32.3927L33.6727 3.72991V8.55991ZM26.8427 11.7699C26.8427 11.6599 26.8027 11.5599 26.7327 11.4699C26.6627 11.3799 26.5627 11.3399 26.4527 11.3399C26.3427 11.3399 26.2527 11.3799 26.1727 11.4699C26.0927 11.5599 26.0627 11.6599 26.0627 11.7699V13.6299C26.0627 13.8999 26.1927 14.0399 26.4527 14.0399C26.7127 14.0399 26.8427 13.8999 26.8427 13.6299V11.7699Z" fill="#003556" stroke="#003556" stroke-width="1.13" stroke-miterlimit="10"/>
<path d="M42.5605 13.6199C42.5605 13.7299 42.5905 13.8299 42.6605 13.9099C42.7305 13.9899 42.8105 14.0299 42.9105 14.0299H42.9505C43.0605 14.0299 43.1505 13.9899 43.2305 13.8999C43.3105 13.8099 43.3405 13.7099 43.3405 13.5999V6.15991C43.3405 6.04991 43.3005 5.94991 43.2305 5.85991C43.1605 5.76991 43.0605 5.72991 42.9505 5.72991H42.9105C42.8105 5.72991 42.7305 5.76991 42.6605 5.84991C42.5905 5.92991 42.5605 6.01991 42.5605 6.13991V13.6199ZM37.0105 17.3599L35.7305 16.0399V3.72991L37.0105 2.40991H48.9005L50.1805 3.72991V16.0399L48.9005 17.3599H37.0105Z" fill="#003556" stroke="#003556" stroke-width="1.13" stroke-miterlimit="10"/>
<path d="M66.7 2.40991V16.0399L65.42 17.3599H53.53L52.25 16.0399V2.40991H59.08V9.88991C59.08 10.0199 59.12 10.1199 59.21 10.2099C59.3 10.2999 59.41 10.3199 59.53 10.2999C59.64 10.2799 59.72 10.2399 59.78 10.1599C59.83 10.0799 59.86 9.98991 59.86 9.86991V2.40991H66.69H66.7Z" fill="#003556" stroke="#003556" stroke-width="1.13" stroke-miterlimit="10"/>
<path d="M79.5995 9.47991C79.3395 9.47991 79.2095 9.61991 79.2095 9.88991V17.3699H72.7695V9.88991C72.7695 9.61991 72.6395 9.47991 72.3795 9.47991H68.7695V2.40991H83.2195V9.47991H79.6095H79.5995Z" fill="#003556" stroke="#003556" stroke-width="1.13" stroke-miterlimit="10"/>
<path d="M9.43937 7.9401C9.43937 8.0501 9.47937 8.1501 9.54937 8.2401C9.61937 8.3301 9.71938 8.3701 9.82938 8.3701C9.93938 8.3701 10.0294 8.3301 10.1094 8.2401C10.1894 8.1501 10.2194 8.0501 10.2194 7.9401V6.1001C10.2194 5.9901 10.1794 5.8901 10.1094 5.8001C10.0394 5.7101 9.93938 5.6701 9.82938 5.6701H9.78938C9.68938 5.6701 9.60938 5.7101 9.53938 5.7901C9.46938 5.8701 9.43937 5.9601 9.43937 6.0801V7.9401ZM9.43937 17.3001H2.60938V3.6701L3.88937 2.3501H15.7794L17.0594 3.6701V17.3001H10.2294V13.5601C10.2294 13.4501 10.1994 13.3501 10.1294 13.2701C10.0594 13.1901 9.97937 13.1501 9.87937 13.1501H9.83937C9.72937 13.1501 9.63937 13.1901 9.55937 13.2801C9.47937 13.3701 9.44938 13.4701 9.44938 13.5801V17.3001H9.43937Z" fill="#003556" stroke="#003556" stroke-width="1.13" stroke-miterlimit="10"/>
<path d="M25.9806 7.94009C25.9806 8.05009 26.0206 8.15009 26.0906 8.24009C26.1606 8.33009 26.2606 8.37009 26.3706 8.37009C26.4806 8.37009 26.5706 8.33009 26.6506 8.24009C26.7306 8.15009 26.7606 8.05009 26.7606 7.94009V6.08009C26.7606 5.81009 26.6306 5.67009 26.3706 5.67009C26.1106 5.67009 25.9806 5.81009 25.9806 6.08009V7.94009ZM33.5906 8.50009L32.3106 9.82009L33.5906 11.1401V15.9701L32.3106 17.2901H19.1406V2.34009H32.3106L33.5906 3.66009V8.49009V8.50009ZM26.7606 11.7001C26.7606 11.5901 26.7206 11.4901 26.6506 11.4001C26.5806 11.3101 26.4806 11.2701 26.3706 11.2701C26.2606 11.2701 26.1706 11.3101 26.0906 11.4001C26.0106 11.4901 25.9806 11.5901 25.9806 11.7001V13.5601C25.9806 13.8301 26.1106 13.9701 26.3706 13.9701C26.6306 13.9701 26.7606 13.8301 26.7606 13.5601V11.7001Z" fill="#003556" stroke="#003556" stroke-width="1.13" stroke-miterlimit="10"/>
<path d="M42.4902 13.5601C42.4902 13.6701 42.5202 13.7701 42.5902 13.8501C42.6602 13.9301 42.7402 13.9701 42.8402 13.9701H42.8802C42.9902 13.9701 43.0802 13.9301 43.1602 13.8401C43.2402 13.7501 43.2702 13.6501 43.2702 13.5401V6.1001C43.2702 5.9901 43.2302 5.8901 43.1602 5.8001C43.0902 5.7101 42.9902 5.6701 42.8802 5.6701H42.8402C42.7402 5.6701 42.6602 5.7101 42.5902 5.7901C42.5202 5.8701 42.4902 5.9601 42.4902 6.0801V13.5601ZM36.9402 17.3001L35.6602 15.9801V3.6701L36.9402 2.3501H48.8302L50.1102 3.6701V15.9801L48.8302 17.3001H36.9402Z" fill="#003556" stroke="#003556" stroke-width="1.13" stroke-miterlimit="10"/>
<path d="M66.618 2.34009V15.9701L65.338 17.2901H53.448L52.168 15.9701V2.34009H58.998V9.82009C58.998 9.95009 59.038 10.0501 59.128 10.1401C59.218 10.2301 59.328 10.2501 59.448 10.2301C59.558 10.2101 59.638 10.1701 59.698 10.0901C59.748 10.0101 59.778 9.92009 59.778 9.80009V2.34009H66.608H66.618Z" fill="#003556" stroke="#003556" stroke-width="1.13" stroke-miterlimit="10"/>
<path d="M79.5175 9.41009C79.2575 9.41009 79.1275 9.55009 79.1275 9.82009V17.3001H72.6875V9.82009C72.6875 9.55009 72.5575 9.41009 72.2975 9.41009H68.6875V2.34009H83.1375V9.41009H79.5275H79.5175Z" fill="#003556" stroke="#003556" stroke-width="1.13" stroke-miterlimit="10"/>
<path d="M9.37125 7.88003C9.37125 7.99003 9.41125 8.09003 9.48125 8.18003C9.55125 8.27003 9.65125 8.31003 9.76125 8.31003C9.87125 8.31003 9.96125 8.27003 10.0413 8.18003C10.1213 8.09003 10.1512 7.99003 10.1512 7.88003V6.04003C10.1512 5.93003 10.1113 5.83003 10.0413 5.74003C9.97125 5.65003 9.87125 5.61003 9.76125 5.61003H9.72125C9.62125 5.61003 9.54125 5.65003 9.47125 5.73003C9.40125 5.81003 9.37125 5.90003 9.37125 6.02003V7.88003ZM9.37125 17.24H2.53125V3.60003L3.81125 2.28003H15.7013L16.9813 3.60003V17.23H10.1512V13.49C10.1512 13.38 10.1212 13.28 10.0512 13.2C9.98125 13.12 9.90125 13.08 9.80125 13.08H9.76125C9.65125 13.08 9.56125 13.12 9.48125 13.21C9.40125 13.3 9.37125 13.4 9.37125 13.51V17.23V17.24Z" fill="#003556" stroke="#003556" stroke-width="1.13" stroke-miterlimit="10"/>
<path d="M25.9003 7.88003C25.9003 7.99003 25.9403 8.09003 26.0103 8.18003C26.0803 8.27003 26.1803 8.31003 26.2903 8.31003C26.4003 8.31003 26.4903 8.27003 26.5703 8.18003C26.6503 8.09003 26.6803 7.99003 26.6803 7.88003V6.02003C26.6803 5.75003 26.5503 5.61003 26.2903 5.61003C26.0303 5.61003 25.9003 5.75003 25.9003 6.02003V7.88003ZM33.5203 8.43003L32.2403 9.75003L33.5203 11.07V15.9L32.2403 17.22H19.0703V2.28003H32.2403L33.5203 3.60003V8.43003ZM26.6803 11.64C26.6803 11.53 26.6403 11.43 26.5703 11.34C26.5003 11.25 26.4003 11.21 26.2903 11.21C26.1803 11.21 26.0903 11.25 26.0103 11.34C25.9303 11.43 25.9003 11.53 25.9003 11.64V13.5C25.9003 13.77 26.0303 13.91 26.2903 13.91C26.5503 13.91 26.6803 13.77 26.6803 13.5V11.64Z" fill="#003556" stroke="#003556" stroke-width="1.13" stroke-miterlimit="10"/>
<path d="M42.412 13.5C42.412 13.61 42.442 13.71 42.512 13.79C42.582 13.87 42.662 13.91 42.762 13.91H42.802C42.912 13.91 43.002 13.87 43.082 13.78C43.162 13.69 43.192 13.59 43.192 13.48V6.04003C43.192 5.93003 43.152 5.83003 43.082 5.74003C43.012 5.65003 42.912 5.61003 42.802 5.61003H42.762C42.662 5.61003 42.582 5.65003 42.512 5.73003C42.442 5.81003 42.412 5.90003 42.412 6.02003V13.5ZM36.862 17.24L35.582 15.92V3.60003L36.862 2.28003H48.752L50.032 3.60003V15.91L48.752 17.23H36.862V17.24Z" fill="#003556" stroke="#003556" stroke-width="1.13" stroke-miterlimit="10"/>
<path d="M66.5398 2.28003V15.91L65.2598 17.23H53.3698L52.0898 15.91V2.28003H58.9198V9.76003C58.9198 9.89003 58.9598 9.99003 59.0498 10.08C59.1398 10.17 59.2498 10.19 59.3698 10.17C59.4798 10.15 59.5598 10.11 59.6198 10.03C59.6698 9.95003 59.6998 9.86003 59.6998 9.74003V2.28003H66.5298H66.5398Z" fill="#003556" stroke="#003556" stroke-width="1.13" stroke-miterlimit="10"/>
<path d="M79.4394 9.35003C79.1794 9.35003 79.0494 9.49003 79.0494 9.76003V17.24H72.6094V9.76003C72.6094 9.49003 72.4794 9.35003 72.2194 9.35003H68.6094V2.28003H83.0594V9.35003H79.4494H79.4394Z" fill="#003556" stroke="#003556" stroke-width="1.13" stroke-miterlimit="10"/>
<path d="M9.29094 7.80997C9.29094 7.91997 9.33094 8.01997 9.40094 8.10997C9.47094 8.19997 9.57094 8.23997 9.68094 8.23997C9.79094 8.23997 9.88094 8.19997 9.96094 8.10997C10.0409 8.01997 10.0709 7.91997 10.0709 7.80997V5.96997C10.0709 5.85997 10.0309 5.75997 9.96094 5.66997C9.89094 5.57997 9.79094 5.53997 9.68094 5.53997H9.64094C9.54094 5.53997 9.46094 5.57997 9.39094 5.65997C9.32094 5.73997 9.29094 5.82997 9.29094 5.94997V7.80997ZM9.29094 17.17H2.46094V3.53997L3.74094 2.21997H15.6309L16.9109 3.53997V17.17H10.0809V13.43C10.0809 13.32 10.0509 13.22 9.98094 13.14C9.91094 13.06 9.83094 13.02 9.73094 13.02H9.69094C9.58094 13.02 9.49094 13.06 9.41094 13.15C9.33094 13.24 9.30094 13.34 9.30094 13.45V17.17H9.29094Z" fill="#003556" stroke="#003556" stroke-width="1.13" stroke-miterlimit="10"/>
<path d="M25.8222 7.80996C25.8222 7.91996 25.8622 8.01996 25.9322 8.10996C26.0022 8.19996 26.1022 8.23996 26.2122 8.23996C26.3222 8.23996 26.4122 8.19996 26.4922 8.10996C26.5722 8.01996 26.6022 7.91996 26.6022 7.80996V5.94996C26.6022 5.67996 26.4722 5.53996 26.2122 5.53996C25.9522 5.53996 25.8222 5.67996 25.8222 5.94996V7.80996ZM33.4422 8.36996L32.1622 9.68996L33.4422 11.01V15.84L32.1622 17.16H18.9922V2.20996H32.1622L33.4422 3.52996V8.35996V8.36996ZM26.6122 11.57C26.6122 11.46 26.5722 11.36 26.5022 11.27C26.4322 11.18 26.3322 11.14 26.2222 11.14C26.1122 11.14 26.0222 11.18 25.9422 11.27C25.8622 11.36 25.8322 11.46 25.8322 11.57V13.43C25.8322 13.7 25.9622 13.84 26.2222 13.84C26.4822 13.84 26.6122 13.7 26.6122 13.43V11.57Z" fill="#003556" stroke="#003556" stroke-width="1.13" stroke-miterlimit="10"/>
<path d="M42.34 13.43C42.34 13.54 42.37 13.64 42.44 13.72C42.51 13.8 42.59 13.84 42.69 13.84H42.73C42.84 13.84 42.93 13.8 43.01 13.71C43.09 13.62 43.12 13.52 43.12 13.41V5.96997C43.12 5.85997 43.08 5.75997 43.01 5.66997C42.94 5.57997 42.84 5.53997 42.73 5.53997H42.69C42.59 5.53997 42.51 5.57997 42.44 5.65997C42.37 5.73997 42.34 5.82997 42.34 5.94997V13.43ZM36.78 17.17L35.5 15.85V3.53997L36.78 2.21997H48.67L49.95 3.53997V15.85L48.67 17.17H36.78Z" fill="#003556" stroke="#003556" stroke-width="1.13" stroke-miterlimit="10"/>
<path d="M66.4695 2.20996V15.84L65.1895 17.16H53.2995L52.0195 15.84V2.20996H58.8495V9.68996C58.8495 9.81996 58.8895 9.91996 58.9795 10.01C59.0695 10.1 59.1795 10.12 59.2995 10.1C59.4095 10.08 59.4895 10.04 59.5495 9.95996C59.5995 9.87996 59.6295 9.78996 59.6295 9.66996V2.20996H66.4595H66.4695Z" fill="#003556" stroke="#003556" stroke-width="1.13" stroke-miterlimit="10"/>
<path d="M79.3691 9.28996C79.1091 9.28996 78.9791 9.42996 78.9791 9.69996V17.18H72.5391V9.69996C72.5391 9.42996 72.4091 9.28996 72.1491 9.28996H68.5391V2.20996H82.9891V9.27996H79.3791L79.3691 9.28996Z" fill="#003556" stroke="#003556" stroke-width="1.13" stroke-miterlimit="10"/>
<path d="M9.20891 7.74991C9.20891 7.85991 9.24891 7.95991 9.31891 8.04991C9.38891 8.13991 9.48891 8.17991 9.59891 8.17991C9.70891 8.17991 9.79891 8.13991 9.87891 8.04991C9.95891 7.95991 9.98891 7.85991 9.98891 7.74991V5.90991C9.98891 5.79991 9.94891 5.69991 9.87891 5.60991C9.80891 5.51991 9.70891 5.47991 9.59891 5.47991H9.55891C9.45891 5.47991 9.37891 5.51991 9.30891 5.59991C9.23891 5.67991 9.20891 5.76991 9.20891 5.88991V7.74991ZM9.20891 17.1099H2.37891V3.47991L3.65891 2.15991H15.5489L16.8289 3.47991V17.1099H9.99891V13.3699C9.99891 13.2599 9.96891 13.1599 9.89891 13.0799C9.82891 12.9999 9.74891 12.9599 9.64891 12.9599H9.60891C9.49891 12.9599 9.40891 12.9999 9.32891 13.0899C9.24891 13.1799 9.21891 13.2799 9.21891 13.3899V17.1099H9.20891Z" fill="#003556" stroke="#003556" stroke-width="1.13" stroke-miterlimit="10"/>
<path d="M25.7502 7.7499C25.7502 7.8599 25.7902 7.9599 25.8602 8.0499C25.9302 8.1399 26.0302 8.1799 26.1402 8.1799C26.2502 8.1799 26.3402 8.1399 26.4202 8.0499C26.5002 7.9599 26.5302 7.8599 26.5302 7.7499V5.8899C26.5302 5.6199 26.4002 5.4799 26.1402 5.4799C25.8802 5.4799 25.7502 5.6199 25.7502 5.8899V7.7499ZM33.3602 8.3099L32.0802 9.6299L33.3602 10.9499V15.7799L32.0802 17.0999H18.9102V2.1499H32.0802L33.3602 3.4699V8.2999V8.3099ZM26.5302 11.5099C26.5302 11.3999 26.4902 11.2999 26.4202 11.2099C26.3502 11.1199 26.2502 11.0799 26.1402 11.0799C26.0302 11.0799 25.9402 11.1199 25.8602 11.2099C25.7802 11.2999 25.7502 11.3999 25.7502 11.5099V13.3699C25.7502 13.6399 25.8802 13.7799 26.1402 13.7799C26.4002 13.7799 26.5302 13.6399 26.5302 13.3699V11.5099Z" fill="#003556" stroke="#003556" stroke-width="1.13" stroke-miterlimit="10"/>
<path d="M42.2597 13.3699C42.2597 13.4799 42.2897 13.5799 42.3597 13.6599C42.4297 13.7399 42.5097 13.7799 42.6097 13.7799H42.6497C42.7597 13.7799 42.8497 13.7399 42.9297 13.6499C43.0097 13.5599 43.0397 13.4599 43.0397 13.3499V5.90991C43.0397 5.79991 42.9997 5.69991 42.9297 5.60991C42.8597 5.51991 42.7597 5.47991 42.6497 5.47991H42.6097C42.5097 5.47991 42.4297 5.51991 42.3597 5.59991C42.2897 5.67991 42.2597 5.76991 42.2597 5.88991V13.3699ZM36.7097 17.1099L35.4297 15.7899V3.47991L36.7097 2.15991H48.5997L49.8797 3.47991V15.7899L48.5997 17.1099H36.7097Z" fill="#003556" stroke="#003556" stroke-width="1.13" stroke-miterlimit="10"/>
<path d="M66.3875 2.1499V15.7799L65.1075 17.0999H53.2175L51.9375 15.7799V2.1499H58.7675V9.6299C58.7675 9.7599 58.8075 9.8599 58.8975 9.9499C58.9875 10.0399 59.0975 10.0599 59.2175 10.0399C59.3275 10.0199 59.4075 9.9799 59.4675 9.8999C59.5175 9.8199 59.5475 9.7299 59.5475 9.6099V2.1499H66.3775H66.3875Z" fill="#003556" stroke="#003556" stroke-width="1.13" stroke-miterlimit="10"/>
<path d="M79.287 9.2199C79.027 9.2199 78.897 9.3599 78.897 9.6299V17.1099H72.457V9.6299C72.457 9.3599 72.327 9.2199 72.067 9.2199H68.457V2.1499H82.907V9.2199H79.297H79.287Z" fill="#003556" stroke="#003556" stroke-width="1.13" stroke-miterlimit="10"/>
<path d="M9.14078 7.69009C9.14078 7.80009 9.18078 7.90009 9.25078 7.99009C9.32078 8.08009 9.42078 8.12009 9.53078 8.12009C9.64078 8.12009 9.73078 8.08009 9.81078 7.99009C9.89078 7.90009 9.92078 7.80009 9.92078 7.69009V5.85009C9.92078 5.74009 9.88078 5.64009 9.81078 5.55009C9.74078 5.46009 9.64078 5.42009 9.53078 5.42009H9.49078C9.39078 5.42009 9.31078 5.46009 9.24078 5.54009C9.17078 5.62009 9.14078 5.71009 9.14078 5.83009V7.69009ZM9.14078 17.0501H2.30078V3.41009L3.58078 2.09009H15.4708L16.7508 3.41009V17.0401H9.92078V13.3001C9.92078 13.1901 9.89078 13.0901 9.82078 13.0101C9.75078 12.9301 9.67078 12.8901 9.57078 12.8901H9.53078C9.42078 12.8901 9.33078 12.9301 9.25078 13.0201C9.17078 13.1101 9.14078 13.2101 9.14078 13.3201V17.0401V17.0501Z" fill="#003556" stroke="#003556" stroke-width="1.13" stroke-miterlimit="10"/>
<path d="M25.6698 7.69009C25.6698 7.80009 25.7098 7.90009 25.7798 7.99009C25.8498 8.08009 25.9498 8.12009 26.0598 8.12009C26.1698 8.12009 26.2598 8.08009 26.3398 7.99009C26.4198 7.90009 26.4498 7.80009 26.4498 7.69009V5.83009C26.4498 5.56009 26.3198 5.42009 26.0598 5.42009C25.7998 5.42009 25.6698 5.56009 25.6698 5.83009V7.69009ZM33.2898 8.24009L32.0098 9.56009L33.2898 10.8801V15.7101L32.0098 17.0301H18.8398V2.09009H32.0098L33.2898 3.41009V8.24009ZM26.4498 11.4501C26.4498 11.3401 26.4098 11.2401 26.3398 11.1501C26.2698 11.0601 26.1698 11.0201 26.0598 11.0201C25.9498 11.0201 25.8598 11.0601 25.7798 11.1501C25.6998 11.2401 25.6698 11.3401 25.6698 11.4501V13.3101C25.6698 13.5801 25.7998 13.7201 26.0598 13.7201C26.3198 13.7201 26.4498 13.5801 26.4498 13.3101V11.4501Z" fill="#003556" stroke="#003556" stroke-width="1.13" stroke-miterlimit="10"/>
<path d="M42.1816 13.3101C42.1816 13.4201 42.2116 13.5201 42.2816 13.6001C42.3516 13.6801 42.4316 13.7201 42.5316 13.7201H42.5716C42.6816 13.7201 42.7716 13.6801 42.8516 13.5901C42.9316 13.5001 42.9616 13.4001 42.9616 13.2901V5.85009C42.9616 5.74009 42.9216 5.64009 42.8516 5.55009C42.7816 5.46009 42.6816 5.42009 42.5716 5.42009H42.5316C42.4316 5.42009 42.3516 5.46009 42.2816 5.54009C42.2116 5.62009 42.1816 5.71009 42.1816 5.83009V13.3101ZM36.6316 17.0501L35.3516 15.7301V3.41009L36.6316 2.09009H48.5216L49.8016 3.41009V15.7201L48.5216 17.0401H36.6316V17.0501Z" fill="#003556" stroke="#003556" stroke-width="1.13" stroke-miterlimit="10"/>
<path d="M66.3094 2.09009V15.7201L65.0294 17.0401H53.1394L51.8594 15.7201V2.09009H58.6894V9.57009C58.6894 9.70009 58.7294 9.80009 58.8194 9.89009C58.9094 9.98009 59.0194 10.0001 59.1394 9.98009C59.2494 9.96009 59.3294 9.92009 59.3894 9.84009C59.4394 9.76009 59.4694 9.67009 59.4694 9.55009V2.09009H66.2994H66.3094Z" fill="#003556" stroke="#003556" stroke-width="1.13" stroke-miterlimit="10"/>
<path d="M79.2089 9.16009C78.9489 9.16009 78.8189 9.30009 78.8189 9.57009V17.0501H72.3789V9.57009C72.3789 9.30009 72.2489 9.16009 71.9889 9.16009H68.3789V2.09009H82.8289V9.16009H79.2189H79.2089Z" fill="#003556" stroke="#003556" stroke-width="1.13" stroke-miterlimit="10"/>
<path d="M9.06047 7.62003C9.06047 7.73003 9.10047 7.83003 9.17047 7.92003C9.24047 8.01003 9.34047 8.05003 9.45047 8.05003C9.56047 8.05003 9.65047 8.01003 9.73047 7.92003C9.81047 7.83003 9.84047 7.73003 9.84047 7.62003V5.78003C9.84047 5.67003 9.80047 5.57003 9.73047 5.48003C9.66047 5.39003 9.56047 5.35003 9.45047 5.35003H9.41047C9.31047 5.35003 9.23047 5.39003 9.16047 5.47003C9.09047 5.55003 9.06047 5.64003 9.06047 5.76003V7.62003ZM9.06047 16.98H2.23047V3.35003L3.51047 2.03003H15.4005L16.6805 3.35003V16.98H9.85047V13.24C9.85047 13.13 9.82047 13.03 9.75047 12.95C9.68047 12.87 9.60047 12.83 9.50047 12.83H9.46047C9.35047 12.83 9.26047 12.87 9.18047 12.96C9.10047 13.05 9.07047 13.15 9.07047 13.26V16.98H9.06047Z" fill="#003556" stroke="#003556" stroke-width="1.13" stroke-miterlimit="10"/>
<path d="M25.5917 7.62002C25.5917 7.73002 25.6317 7.83002 25.7017 7.92002C25.7717 8.01002 25.8717 8.05002 25.9817 8.05002C26.0917 8.05002 26.1817 8.01002 26.2617 7.92002C26.3417 7.83002 26.3717 7.73002 26.3717 7.62002V5.76002C26.3717 5.49002 26.2417 5.35002 25.9817 5.35002C25.7217 5.35002 25.5917 5.49002 25.5917 5.76002V7.62002ZM33.2117 8.18002L31.9317 9.50002L33.2117 10.82V15.65L31.9317 16.97H18.7617V2.02002H31.9317L33.2117 3.34002V8.17002V8.18002ZM26.3817 11.38C26.3817 11.27 26.3417 11.17 26.2717 11.08C26.2017 10.99 26.1017 10.95 25.9917 10.95C25.8817 10.95 25.7917 10.99 25.7117 11.08C25.6317 11.17 25.6017 11.27 25.6017 11.38V13.24C25.6017 13.51 25.7317 13.65 25.9917 13.65C26.2517 13.65 26.3817 13.51 26.3817 13.24V11.38Z" fill="#003556" stroke="#003556" stroke-width="1.13" stroke-miterlimit="10"/>
<path d="M42.1095 13.24C42.1095 13.35 42.1395 13.45 42.2095 13.53C42.2795 13.61 42.3595 13.65 42.4595 13.65H42.4995C42.6095 13.65 42.6995 13.61 42.7795 13.52C42.8595 13.43 42.8895 13.33 42.8895 13.22V5.78003C42.8895 5.67003 42.8495 5.57003 42.7795 5.48003C42.7095 5.39003 42.6095 5.35003 42.4995 5.35003H42.4595C42.3595 5.35003 42.2795 5.39003 42.2095 5.47003C42.1395 5.55003 42.1095 5.64003 42.1095 5.76003V13.24ZM36.5495 16.98L35.2695 15.66V3.35003L36.5495 2.03003H48.4395L49.7195 3.35003V15.66L48.4395 16.98H36.5495Z" fill="#003556" stroke="#003556" stroke-width="1.13" stroke-miterlimit="10"/>
<path d="M66.2391 2.02002V15.65L64.9591 16.97H53.0691L51.7891 15.65V2.02002H58.6191V9.50002C58.6191 9.63002 58.6591 9.73002 58.7491 9.82002C58.8391 9.91002 58.9491 9.93002 59.0691 9.91002C59.1791 9.89002 59.2591 9.85002 59.3191 9.77002C59.3691 9.69002 59.3991 9.60002 59.3991 9.48002V2.02002H66.2291H66.2391Z" fill="#003556" stroke="#003556" stroke-width="1.13" stroke-miterlimit="10"/>
<path d="M79.1386 9.10002C78.8786 9.10002 78.7486 9.24002 78.7486 9.51002V16.99H72.3086V9.51002C72.3086 9.24002 72.1786 9.10002 71.9186 9.10002H68.3086V2.02002H82.7586V9.09002H79.1486L79.1386 9.10002Z" fill="#003556" stroke="#003556" stroke-width="1.13" stroke-miterlimit="10"/>
<path d="M8.97844 7.55996C8.97844 7.66996 9.01844 7.76996 9.08844 7.85996C9.15844 7.94996 9.25844 7.98996 9.36844 7.98996C9.47844 7.98996 9.56844 7.94996 9.64844 7.85996C9.72844 7.76996 9.75844 7.66996 9.75844 7.55996V5.71996C9.75844 5.60996 9.71844 5.50996 9.64844 5.41996C9.57844 5.32996 9.47844 5.28996 9.36844 5.28996H9.32844C9.22844 5.28996 9.14844 5.32996 9.07844 5.40996C9.00844 5.48996 8.97844 5.57996 8.97844 5.69996V7.55996ZM8.97844 16.92H2.14844V3.27996L3.42844 1.95996H15.3184L16.5984 3.27996V16.91H9.76844V13.17C9.76844 13.06 9.73844 12.96 9.66844 12.88C9.59844 12.8 9.51844 12.76 9.41844 12.76H9.37844C9.26844 12.76 9.17844 12.8 9.09844 12.89C9.01844 12.98 8.98844 13.08 8.98844 13.19V16.91L8.97844 16.92Z" fill="#003556" stroke="#003556" stroke-width="1.13" stroke-miterlimit="10"/>
<path d="M25.5197 7.55996C25.5197 7.66996 25.5597 7.76996 25.6297 7.85996C25.6997 7.94996 25.7997 7.98996 25.9097 7.98996C26.0197 7.98996 26.1097 7.94996 26.1897 7.85996C26.2697 7.76996 26.2997 7.66996 26.2997 7.55996V5.69996C26.2997 5.42996 26.1697 5.28996 25.9097 5.28996C25.6497 5.28996 25.5197 5.42996 25.5197 5.69996V7.55996ZM33.1297 8.10996L31.8497 9.42996L33.1297 10.75V15.58L31.8497 16.9H18.6797V1.95996H31.8497L33.1297 3.27996V8.10996ZM26.2997 11.32C26.2997 11.21 26.2597 11.11 26.1897 11.02C26.1197 10.93 26.0197 10.89 25.9097 10.89C25.7997 10.89 25.7097 10.93 25.6297 11.02C25.5497 11.11 25.5197 11.21 25.5197 11.32V13.18C25.5197 13.45 25.6497 13.59 25.9097 13.59C26.1697 13.59 26.2997 13.45 26.2997 13.18V11.32Z" fill="#003556" stroke="#003556" stroke-width="1.13" stroke-miterlimit="10"/>
<path d="M42.0292 13.18C42.0292 13.29 42.0592 13.39 42.1292 13.47C42.1992 13.55 42.2792 13.59 42.3792 13.59H42.4192C42.5292 13.59 42.6192 13.55 42.6992 13.46C42.7792 13.37 42.8092 13.27 42.8092 13.16V5.71996C42.8092 5.60996 42.7692 5.50996 42.6992 5.41996C42.6292 5.32996 42.5292 5.28996 42.4192 5.28996H42.3792C42.2792 5.28996 42.1992 5.32996 42.1292 5.40996C42.0592 5.48996 42.0292 5.57996 42.0292 5.69996V13.18ZM36.4792 16.92L35.1992 15.6V3.27996L36.4792 1.95996H48.3692L49.6492 3.27996V15.59L48.3692 16.91H36.4792V16.92Z" fill="#003556" stroke="#003556" stroke-width="1.13" stroke-miterlimit="10"/>
<path d="M66.157 1.95996V15.59L64.877 16.91H52.987L51.707 15.59V1.95996H58.537V9.43996C58.537 9.56996 58.577 9.66996 58.667 9.75996C58.757 9.84996 58.867 9.86996 58.987 9.84996C59.097 9.82996 59.177 9.78996 59.237 9.70996C59.287 9.62996 59.317 9.53996 59.317 9.41996V1.95996H66.147H66.157Z" fill="#003556" stroke="#003556" stroke-width="1.13" stroke-miterlimit="10"/>
<path d="M79.0566 9.02996C78.7966 9.02996 78.6666 9.16996 78.6666 9.43996V16.92H72.2266V9.43996C72.2266 9.16996 72.0966 9.02996 71.8366 9.02996H68.2266V1.95996H82.6766V9.02996H79.0666H79.0566Z" fill="#003556" stroke="#003556" stroke-width="1.13" stroke-miterlimit="10"/>
<path d="M8.91031 7.4999C8.91031 7.6099 8.95031 7.7099 9.02031 7.7999C9.09031 7.8899 9.19031 7.9299 9.30031 7.9299C9.41031 7.9299 9.50031 7.8899 9.58031 7.7999C9.66031 7.7099 9.69031 7.6099 9.69031 7.4999V5.6599C9.69031 5.5499 9.65031 5.4499 9.58031 5.3599C9.51031 5.2699 9.41031 5.2299 9.30031 5.2299H9.26031C9.16031 5.2299 9.08031 5.2699 9.01031 5.3499C8.94031 5.4299 8.91031 5.5199 8.91031 5.6399V7.4999ZM8.91031 16.8599H2.07031V3.2199L3.35031 1.8999H15.2403L16.5203 3.2199V16.8499H9.69031V13.1099C9.69031 12.9999 9.66031 12.8999 9.59031 12.8199C9.52031 12.7399 9.44031 12.6999 9.34031 12.6999H9.30031C9.19031 12.6999 9.10031 12.7399 9.02031 12.8299C8.94031 12.9199 8.91031 13.0199 8.91031 13.1299V16.8499V16.8599Z" fill="#003556" stroke="#003556" stroke-width="1.13" stroke-miterlimit="10"/>
<path d="M25.4394 7.4999C25.4394 7.6099 25.4794 7.7099 25.5494 7.7999C25.6194 7.8899 25.7194 7.9299 25.8294 7.9299C25.9394 7.9299 26.0294 7.8899 26.1094 7.7999C26.1894 7.7099 26.2194 7.6099 26.2194 7.4999V5.6399C26.2194 5.3699 26.0894 5.2299 25.8294 5.2299C25.5694 5.2299 25.4394 5.3699 25.4394 5.6399V7.4999ZM33.0594 8.0499L31.7794 9.3699L33.0594 10.6899V15.5199L31.7794 16.8399H18.6094V1.8999H31.7794L33.0594 3.2199V8.0499ZM26.2294 11.2599C26.2294 11.1499 26.1894 11.0499 26.1194 10.9599C26.0494 10.8699 25.9494 10.8299 25.8394 10.8299C25.7294 10.8299 25.6394 10.8699 25.5594 10.9599C25.4794 11.0499 25.4494 11.1499 25.4494 11.2599V13.1199C25.4494 13.3899 25.5794 13.5299 25.8394 13.5299C26.0994 13.5299 26.2294 13.3899 26.2294 13.1199V11.2599Z" fill="#003556" stroke="#003556" stroke-width="1.13" stroke-miterlimit="10"/>
<path d="M41.9511 13.1199C41.9511 13.2299 41.9811 13.3299 42.0511 13.4099C42.1211 13.4899 42.2011 13.5299 42.3011 13.5299H42.3411C42.4511 13.5299 42.5411 13.4899 42.6211 13.3999C42.7011 13.3099 42.7311 13.2099 42.7311 13.0999V5.6599C42.7311 5.5499 42.6911 5.4499 42.6211 5.3599C42.5511 5.2699 42.4511 5.2299 42.3411 5.2299H42.3011C42.2011 5.2299 42.1211 5.2699 42.0511 5.3499C41.9811 5.4299 41.9511 5.5199 41.9511 5.6399V13.1199ZM36.4011 16.8599L35.1211 15.5399V3.2199L36.4011 1.8999H48.2911L49.5711 3.2199V15.5299L48.2911 16.8499H36.4011V16.8599Z" fill="#003556" stroke="#003556" stroke-width="1.13" stroke-miterlimit="10"/>
<path d="M66.0789 1.8999V15.5299L64.7989 16.8499H52.9089L51.6289 15.5299V1.8999H58.4589V9.3799C58.4589 9.5099 58.4989 9.6099 58.5889 9.6999C58.6789 9.7899 58.7889 9.8099 58.9089 9.7899C59.0189 9.7699 59.0989 9.7299 59.1589 9.6499C59.2089 9.5699 59.2389 9.4799 59.2389 9.3599V1.8999H66.0689H66.0789Z" fill="#003556" stroke="#003556" stroke-width="1.13" stroke-miterlimit="10"/>
<path d="M78.9784 8.9699C78.7184 8.9699 78.5884 9.1099 78.5884 9.3799V16.8599H72.1484V9.3799C72.1484 9.1099 72.0184 8.9699 71.7584 8.9699H68.1484V1.8999H82.5984V8.9699H78.9884H78.9784Z" fill="#003556" stroke="#003556" stroke-width="1.13" stroke-miterlimit="10"/>
<path d="M8.83 7.43009C8.83 7.54009 8.87 7.64009 8.94 7.73009C9.01 7.82009 9.11 7.86009 9.22 7.86009C9.33 7.86009 9.42 7.82009 9.5 7.73009C9.58 7.64009 9.61 7.54009 9.61 7.43009V5.59009C9.61 5.48009 9.57 5.38009 9.5 5.29009C9.43 5.20009 9.33 5.16009 9.22 5.16009H9.18C9.08 5.16009 9 5.20009 8.93 5.28009C8.86 5.36009 8.83 5.45009 8.83 5.57009V7.43009ZM8.83 16.7901H2V3.16009L3.28 1.84009H15.17L16.45 3.16009V16.7901H9.62V13.0501C9.62 12.9401 9.59 12.8401 9.52 12.7601C9.45 12.6801 9.37 12.6401 9.27 12.6401H9.23C9.12 12.6401 9.03 12.6801 8.95 12.7701C8.87 12.8601 8.84 12.9601 8.84 13.0701V16.7901H8.83Z" fill="#003556" stroke="#003556" stroke-width="1.13" stroke-miterlimit="10"/>
<path d="M25.3612 7.43008C25.3612 7.54008 25.4013 7.64008 25.4713 7.73008C25.5413 7.82008 25.6412 7.86008 25.7512 7.86008C25.8612 7.86008 25.9513 7.82008 26.0312 7.73008C26.1112 7.64008 26.1413 7.54008 26.1413 7.43008V5.57008C26.1413 5.30008 26.0112 5.16008 25.7512 5.16008C25.4912 5.16008 25.3612 5.30008 25.3612 5.57008V7.43008ZM32.9813 7.99008L31.7013 9.31008L32.9813 10.6301V15.4601L31.7013 16.7801H18.5312V1.83008H31.7013L32.9813 3.15008V7.98008V7.99008ZM26.1512 11.1901C26.1512 11.0801 26.1113 10.9801 26.0413 10.8901C25.9713 10.8001 25.8712 10.7601 25.7612 10.7601C25.6512 10.7601 25.5613 10.8001 25.4813 10.8901C25.4013 10.9801 25.3713 11.0801 25.3713 11.1901V13.0501C25.3713 13.3201 25.5012 13.4601 25.7612 13.4601C26.0212 13.4601 26.1512 13.3201 26.1512 13.0501V11.1901Z" fill="#003556" stroke="#003556" stroke-width="1.13" stroke-miterlimit="10"/>
<path d="M41.8791 13.0501C41.8791 13.1601 41.9091 13.2601 41.9791 13.3401C42.0491 13.4201 42.1291 13.4601 42.2291 13.4601H42.2691C42.3791 13.4601 42.4691 13.4201 42.5491 13.3301C42.6291 13.2401 42.6591 13.1401 42.6591 13.0301V5.59009C42.6591 5.48009 42.6191 5.38009 42.5491 5.29009C42.4791 5.20009 42.3791 5.16009 42.2691 5.16009H42.2291C42.1291 5.16009 42.0491 5.20009 41.9791 5.28009C41.9091 5.36009 41.8791 5.45009 41.8791 5.57009V13.0501ZM36.3191 16.7901L35.0391 15.4701V3.16009L36.3191 1.84009H48.2091L49.4891 3.16009V15.4701L48.2091 16.7901H36.3191Z" fill="#003556" stroke="#003556" stroke-width="1.13" stroke-miterlimit="10"/>
<path d="M66.0086 1.83008V15.4601L64.7286 16.7801H52.8386L51.5586 15.4601V1.83008H58.3886V9.31008C58.3886 9.44008 58.4286 9.54008 58.5186 9.63008C58.6086 9.72008 58.7186 9.74008 58.8386 9.72008C58.9486 9.70008 59.0286 9.66008 59.0886 9.58008C59.1386 9.50008 59.1686 9.41008 59.1686 9.29008V1.83008H65.9986H66.0086Z" fill="#003556" stroke="#003556" stroke-width="1.13" stroke-miterlimit="10"/>
<path d="M78.9081 8.91008C78.6481 8.91008 78.5181 9.05008 78.5181 9.32008V16.8001H72.0781V9.32008C72.0781 9.05008 71.9481 8.91008 71.6881 8.91008H68.0781V1.83008H82.5281V8.90008H78.9181L78.9081 8.91008Z" fill="#003556" stroke="#003556" stroke-width="1.13" stroke-miterlimit="10"/>
<path d="M8.75188 7.37002C8.75188 7.48002 8.79187 7.58002 8.86188 7.67002C8.93188 7.76002 9.03187 7.80002 9.14187 7.80002C9.25187 7.80002 9.34187 7.76002 9.42187 7.67002C9.50187 7.58002 9.53188 7.48002 9.53188 7.37002V5.53002C9.53188 5.42002 9.49187 5.32002 9.42187 5.23002C9.35187 5.14002 9.25187 5.10002 9.14187 5.10002H9.10187C9.00187 5.10002 8.92188 5.14002 8.85187 5.22002C8.78187 5.30002 8.75188 5.39002 8.75188 5.51002V7.37002ZM8.75188 16.73H1.92188V3.09002L3.20187 1.77002H15.0919L16.3719 3.09002V16.72H9.54188V12.98C9.54188 12.87 9.51188 12.77 9.44187 12.69C9.37187 12.61 9.29187 12.57 9.19187 12.57H9.15188C9.04187 12.57 8.95188 12.61 8.87188 12.7C8.79188 12.79 8.76187 12.89 8.76187 13V16.72L8.75188 16.73Z" fill="#003556" stroke="#003556" stroke-width="1.13" stroke-miterlimit="10"/>
<path d="M25.2931 7.37002C25.2931 7.48002 25.3331 7.58002 25.4031 7.67002C25.4731 7.76002 25.5731 7.80002 25.6831 7.80002C25.7931 7.80002 25.8831 7.76002 25.9631 7.67002C26.0431 7.58002 26.0731 7.48002 26.0731 7.37002V5.51002C26.0731 5.24002 25.9431 5.10002 25.6831 5.10002C25.4231 5.10002 25.2931 5.24002 25.2931 5.51002V7.37002ZM32.9031 7.92002L31.6231 9.24002L32.9031 10.56V15.39L31.6231 16.71H18.4531V1.77002H31.6231L32.9031 3.09002V7.92002ZM26.0731 11.13C26.0731 11.02 26.0331 10.92 25.9631 10.83C25.8931 10.74 25.7931 10.7 25.6831 10.7C25.5731 10.7 25.4831 10.74 25.4031 10.83C25.3231 10.92 25.2931 11.02 25.2931 11.13V12.99C25.2931 13.26 25.4231 13.4 25.6831 13.4C25.9431 13.4 26.0731 13.26 26.0731 12.99V11.13Z" fill="#003556" stroke="#003556" stroke-width="1.13" stroke-miterlimit="10"/>
<path d="M41.8027 12.99C41.8027 13.1 41.8327 13.2 41.9027 13.28C41.9727 13.36 42.0527 13.4 42.1527 13.4H42.1927C42.3027 13.4 42.3927 13.36 42.4727 13.27C42.5527 13.18 42.5827 13.08 42.5827 12.97V5.53002C42.5827 5.42002 42.5427 5.32002 42.4727 5.23002C42.4027 5.14002 42.3027 5.10002 42.1927 5.10002H42.1527C42.0527 5.10002 41.9727 5.14002 41.9027 5.22002C41.8327 5.30002 41.8027 5.39002 41.8027 5.51002V12.99ZM36.2527 16.73L34.9727 15.41V3.09002L36.2527 1.77002H48.1427L49.4227 3.09002V15.4L48.1427 16.72H36.2527V16.73Z" fill="#003556" stroke="#003556" stroke-width="1.13" stroke-miterlimit="10"/>
<path d="M65.9305 1.77002V15.4L64.6505 16.72H52.7605L51.4805 15.4V1.77002H58.3105V9.25002C58.3105 9.38002 58.3505 9.48002 58.4405 9.57002C58.5305 9.66002 58.6405 9.68002 58.7605 9.66002C58.8705 9.64002 58.9505 9.60002 59.0105 9.52002C59.0605 9.44002 59.0905 9.35002 59.0905 9.23002V1.77002H65.9205H65.9305Z" fill="#003556" stroke="#003556" stroke-width="1.13" stroke-miterlimit="10"/>
<path d="M78.83 8.84002C78.57 8.84002 78.44 8.98002 78.44 9.25002V16.73H72V9.25002C72 8.98002 71.87 8.84002 71.61 8.84002H68V1.77002H82.45V8.84002H78.84H78.83Z" fill="#003556" stroke="#003556" stroke-width="1.13" stroke-miterlimit="10"/>
<path d="M8.68156 7.29996C8.68156 7.40996 8.72156 7.50996 8.79156 7.59996C8.86156 7.68996 8.96156 7.72996 9.07156 7.72996C9.18156 7.72996 9.27156 7.68996 9.35156 7.59996C9.43156 7.50996 9.46156 7.40996 9.46156 7.29996V5.45996C9.46156 5.34996 9.42156 5.24996 9.35156 5.15996C9.28156 5.06996 9.18156 5.02996 9.07156 5.02996H9.03156C8.93156 5.02996 8.85156 5.06996 8.78156 5.14996C8.71156 5.22996 8.68156 5.31996 8.68156 5.43996V7.29996ZM8.68156 16.66H1.85156V3.02996L3.13156 1.70996H15.0216L16.3016 3.02996V16.66H9.47156V12.92C9.47156 12.81 9.44156 12.71 9.37156 12.63C9.30156 12.55 9.22156 12.51 9.12156 12.51H9.08156C8.97156 12.51 8.88156 12.55 8.80156 12.64C8.72156 12.73 8.69156 12.83 8.69156 12.94V16.66H8.68156Z" fill="#003556" stroke="#003556" stroke-width="1.13" stroke-miterlimit="10"/>
<path d="M25.2128 7.29996C25.2128 7.40996 25.2528 7.50996 25.3228 7.59996C25.3928 7.68996 25.4928 7.72996 25.6028 7.72996C25.7128 7.72996 25.8028 7.68996 25.8828 7.59996C25.9628 7.50996 25.9928 7.40996 25.9928 7.29996V5.43996C25.9928 5.16996 25.8628 5.02996 25.6028 5.02996C25.3428 5.02996 25.2128 5.16996 25.2128 5.43996V7.29996ZM32.8328 7.85996L31.5528 9.17996L32.8328 10.5V15.33L31.5528 16.65H18.3828V1.70996H31.5528L32.8328 3.02996V7.85996ZM26.0028 11.06C26.0028 10.95 25.9628 10.85 25.8928 10.76C25.8228 10.67 25.7228 10.63 25.6128 10.63C25.5028 10.63 25.4128 10.67 25.3328 10.76C25.2528 10.85 25.2228 10.95 25.2228 11.06V12.92C25.2228 13.19 25.3528 13.33 25.6128 13.33C25.8728 13.33 26.0028 13.19 26.0028 12.92V11.06Z" fill="#003556" stroke="#003556" stroke-width="1.13" stroke-miterlimit="10"/>
<path d="M41.7206 12.92C41.7206 13.03 41.7506 13.13 41.8206 13.21C41.8906 13.29 41.9706 13.33 42.0706 13.33H42.1106C42.2206 13.33 42.3106 13.29 42.3906 13.2C42.4706 13.11 42.5006 13.01 42.5006 12.9V5.45996C42.5006 5.34996 42.4606 5.24996 42.3906 5.15996C42.3206 5.06996 42.2206 5.02996 42.1106 5.02996H42.0706C41.9706 5.02996 41.8906 5.06996 41.8206 5.14996C41.7506 5.22996 41.7206 5.31996 41.7206 5.43996V12.92ZM36.1706 16.66L34.8906 15.34V3.02996L36.1706 1.70996H48.0606L49.3406 3.02996V15.34L48.0606 16.66H36.1706Z" fill="#003556" stroke="#003556" stroke-width="1.13" stroke-miterlimit="10"/>
<path d="M65.8523 1.70996V15.34L64.5723 16.66H52.6823L51.4023 15.34V1.70996H58.2323V9.18996C58.2323 9.31996 58.2723 9.41996 58.3623 9.50996C58.4523 9.59996 58.5623 9.61996 58.6823 9.59996C58.7923 9.57996 58.8723 9.53996 58.9323 9.45996C58.9823 9.37996 59.0123 9.28996 59.0123 9.16996V1.70996H65.8423H65.8523Z" fill="#003556" stroke="#003556" stroke-width="1.13" stroke-miterlimit="10"/>
<path d="M78.7597 8.77996C78.4997 8.77996 78.3697 8.91996 78.3697 9.18996V16.67H71.9297V9.18996C71.9297 8.91996 71.7997 8.77996 71.5397 8.77996H67.9297V1.70996H82.3797V8.77996H78.7697H78.7597Z" fill="#003556" stroke="#003556" stroke-width="1.13" stroke-miterlimit="10"/>
<path d="M8.59953 7.2399C8.59953 7.3499 8.63953 7.4499 8.70953 7.5399C8.77953 7.6299 8.87953 7.6699 8.98953 7.6699C9.09953 7.6699 9.18953 7.6299 9.26953 7.5399C9.34953 7.4499 9.37953 7.3499 9.37953 7.2399V5.3999C9.37953 5.2899 9.33953 5.1899 9.26953 5.0999C9.19953 5.0099 9.09953 4.9699 8.98953 4.9699H8.94953C8.84953 4.9699 8.76953 5.0099 8.69953 5.0899C8.62953 5.1699 8.59953 5.2599 8.59953 5.3799V7.2399ZM8.59953 16.5999H1.76953V2.9699L3.04953 1.6499H14.9395L16.2195 2.9699V16.5999H9.38953V12.8599C9.38953 12.7499 9.35953 12.6499 9.28953 12.5699C9.21953 12.4899 9.13953 12.4499 9.03953 12.4499H8.99953C8.88953 12.4499 8.79953 12.4899 8.71953 12.5799C8.63953 12.6699 8.60953 12.7699 8.60953 12.8799V16.5999H8.59953Z" fill="#003556" stroke="#003556" stroke-width="1.13" stroke-miterlimit="10"/>
<path d="M25.1308 7.23989C25.1308 7.34989 25.1708 7.44989 25.2408 7.53989C25.3108 7.62989 25.4108 7.66989 25.5208 7.66989C25.6308 7.66989 25.7208 7.62989 25.8008 7.53989C25.8808 7.44989 25.9108 7.34989 25.9108 7.23989V5.37989C25.9108 5.10989 25.7808 4.96989 25.5208 4.96989C25.2608 4.96989 25.1308 5.10989 25.1308 5.37989V7.23989ZM32.7508 7.79989L31.4708 9.11989L32.7508 10.4399V15.2699L31.4708 16.5899H18.3008V1.63989H31.4708L32.7508 2.95989V7.78989V7.79989ZM25.9208 10.9999C25.9208 10.8899 25.8808 10.7899 25.8108 10.6999C25.7408 10.6099 25.6408 10.5699 25.5308 10.5699C25.4208 10.5699 25.3308 10.6099 25.2508 10.6999C25.1708 10.7899 25.1408 10.8899 25.1408 10.9999V12.8599C25.1408 13.1299 25.2708 13.2699 25.5308 13.2699C25.7908 13.2699 25.9208 13.1299 25.9208 12.8599V10.9999Z" fill="#003556" stroke="#003556" stroke-width="1.13" stroke-miterlimit="10"/>
<path d="M41.6503 12.8599C41.6503 12.9699 41.6803 13.0699 41.7503 13.1499C41.8203 13.2299 41.9003 13.2699 42.0003 13.2699H42.0403C42.1503 13.2699 42.2403 13.2299 42.3203 13.1399C42.4003 13.0499 42.4303 12.9499 42.4303 12.8399V5.3999C42.4303 5.2899 42.3903 5.1899 42.3203 5.0999C42.2503 5.0099 42.1503 4.9699 42.0403 4.9699H42.0003C41.9003 4.9699 41.8203 5.0099 41.7503 5.0899C41.6803 5.1699 41.6503 5.2599 41.6503 5.3799V12.8599ZM36.1003 16.5999L34.8203 15.2799V2.9699L36.1003 1.6499H47.9903L49.2703 2.9699V15.2799L47.9903 16.5999H36.1003Z" fill="#003556" stroke="#003556" stroke-width="1.13" stroke-miterlimit="10"/>
<path d="M65.7781 1.63989V15.2699L64.4981 16.5899H52.6081L51.3281 15.2699V1.63989H58.1581V9.11989C58.1581 9.24989 58.1981 9.34989 58.2881 9.43989C58.3781 9.52989 58.4881 9.54989 58.6081 9.52989C58.7181 9.50989 58.7981 9.46989 58.8581 9.38989C58.9081 9.30989 58.9381 9.21989 58.9381 9.09989V1.63989H65.7681H65.7781Z" fill="#003556" stroke="#003556" stroke-width="1.13" stroke-miterlimit="10"/>
<path d="M78.6777 8.70989C78.4177 8.70989 78.2877 8.84989 78.2877 9.11989V16.5999H71.8477V9.11989C71.8477 8.84989 71.7176 8.70989 71.4576 8.70989H67.8477V1.63989H82.2977V8.70989H78.6877H78.6777Z" fill="#003556" stroke="#003556" stroke-width="1.13" stroke-miterlimit="10"/>
<path d="M8.52141 7.18008C8.52141 7.29008 8.56141 7.39008 8.63141 7.48008C8.70141 7.57008 8.80141 7.61008 8.91141 7.61008C9.02141 7.61008 9.11141 7.57008 9.19141 7.48008C9.27141 7.39008 9.30141 7.29008 9.30141 7.18008V5.34008C9.30141 5.23008 9.26141 5.13008 9.19141 5.04008C9.12141 4.95008 9.02141 4.91008 8.91141 4.91008H8.87141C8.77141 4.91008 8.69141 4.95008 8.62141 5.03008C8.55141 5.11008 8.52141 5.20008 8.52141 5.32008V7.18008ZM8.52141 16.5401H1.69141V2.90008L2.97141 1.58008H14.8614L16.1414 2.90008V16.5301H9.31141V12.7901C9.31141 12.6801 9.28141 12.5801 9.21141 12.5001C9.14141 12.4201 9.06141 12.3801 8.96141 12.3801H8.92141C8.81141 12.3801 8.72141 12.4201 8.64141 12.5101C8.56141 12.6001 8.53141 12.7001 8.53141 12.8101V16.5301L8.52141 16.5401Z" fill="#003556" stroke="#003556" stroke-width="1.13" stroke-miterlimit="10"/>
<path d="M25.0605 7.18008C25.0605 7.29008 25.1005 7.39008 25.1705 7.48008C25.2405 7.57008 25.3405 7.61008 25.4505 7.61008C25.5605 7.61008 25.6505 7.57008 25.7305 7.48008C25.8105 7.39008 25.8405 7.29008 25.8405 7.18008V5.32008C25.8405 5.05008 25.7105 4.91008 25.4505 4.91008C25.1905 4.91008 25.0605 5.05008 25.0605 5.32008V7.18008ZM32.6805 7.73008L31.4005 9.05008L32.6805 10.3701V15.2001L31.4005 16.5201H18.2305V1.58008H31.4005L32.6805 2.90008V7.73008ZM25.8405 10.9401C25.8405 10.8301 25.8005 10.7301 25.7305 10.6401C25.6605 10.5501 25.5605 10.5101 25.4505 10.5101C25.3405 10.5101 25.2505 10.5501 25.1705 10.6401C25.0905 10.7301 25.0605 10.8301 25.0605 10.9401V12.8001C25.0605 13.0701 25.1905 13.2101 25.4505 13.2101C25.7105 13.2101 25.8405 13.0701 25.8405 12.8001V10.9401Z" fill="#003556" stroke="#003556" stroke-width="1.13" stroke-miterlimit="10"/>
<path d="M41.5722 12.8001C41.5722 12.9101 41.6022 13.0101 41.6722 13.0901C41.7422 13.1701 41.8222 13.2101 41.9222 13.2101H41.9622C42.0722 13.2101 42.1622 13.1701 42.2422 13.0801C42.3222 12.9901 42.3522 12.8901 42.3522 12.7801V5.34008C42.3522 5.23008 42.3122 5.13008 42.2422 5.04008C42.1722 4.95008 42.0722 4.91008 41.9622 4.91008H41.9222C41.8222 4.91008 41.7422 4.95008 41.6722 5.03008C41.6022 5.11008 41.5722 5.20008 41.5722 5.32008V12.8001ZM36.0222 16.5401L34.7422 15.2201V2.90008L36.0222 1.58008H47.9122L49.1922 2.90008V15.2101L47.9122 16.5301H36.0222V16.5401Z" fill="#003556" stroke="#003556" stroke-width="1.13" stroke-miterlimit="10"/>
<path d="M65.7 1.58008V15.2101L64.42 16.5301H52.53L51.25 15.2101V1.58008H58.08V9.06008C58.08 9.19008 58.12 9.29008 58.21 9.38008C58.3 9.47008 58.41 9.49008 58.53 9.47008C58.64 9.45008 58.72 9.41008 58.78 9.33008C58.83 9.25008 58.86 9.16008 58.86 9.04008V1.58008H65.69H65.7Z" fill="#003556" stroke="#003556" stroke-width="1.13" stroke-miterlimit="10"/>
<path d="M78.5995 8.65008C78.3395 8.65008 78.2095 8.79008 78.2095 9.06008V16.5401H71.7695V9.06008C71.7695 8.79008 71.6395 8.65008 71.3795 8.65008H67.7695V1.58008H82.2195V8.65008H78.6095H78.5995Z" fill="#003556" stroke="#003556" stroke-width="1.13" stroke-miterlimit="10"/>
<path d="M8.45109 7.11002C8.45109 7.22002 8.49109 7.32002 8.56109 7.41002C8.63109 7.50002 8.73109 7.54002 8.84109 7.54002C8.95109 7.54002 9.04109 7.50002 9.12109 7.41002C9.20109 7.32002 9.23109 7.22002 9.23109 7.11002V5.27002C9.23109 5.16002 9.19109 5.06002 9.12109 4.97002C9.05109 4.88002 8.95109 4.84002 8.84109 4.84002H8.80109C8.70109 4.84002 8.62109 4.88002 8.55109 4.96002C8.48109 5.04002 8.45109 5.13002 8.45109 5.25002V7.11002ZM8.45109 16.47H1.62109V2.84002L2.90109 1.52002H14.7911L16.0711 2.84002V16.47H9.24109V12.73C9.24109 12.62 9.21109 12.52 9.14109 12.44C9.07109 12.36 8.99109 12.32 8.89109 12.32H8.85109C8.74109 12.32 8.65109 12.36 8.57109 12.45C8.49109 12.54 8.46109 12.64 8.46109 12.75V16.47H8.45109Z" fill="#003556" stroke="#003556" stroke-width="1.13" stroke-miterlimit="10"/>
<path d="M24.9823 7.11001C24.9823 7.22001 25.0223 7.32001 25.0923 7.41001C25.1623 7.50001 25.2623 7.54001 25.3723 7.54001C25.4823 7.54001 25.5723 7.50001 25.6523 7.41001C25.7323 7.32001 25.7623 7.22001 25.7623 7.11001V5.25001C25.7623 4.98001 25.6323 4.84001 25.3723 4.84001C25.1123 4.84001 24.9823 4.98001 24.9823 5.25001V7.11001ZM32.6023 7.67001L31.3223 8.99001L32.6023 10.31V15.14L31.3223 16.46H18.1523V1.51001H31.3223L32.6023 2.83001V7.66001V7.67001ZM25.7723 10.87C25.7723 10.76 25.7323 10.66 25.6623 10.57C25.5923 10.48 25.4923 10.44 25.3823 10.44C25.2723 10.44 25.1823 10.48 25.1023 10.57C25.0223 10.66 24.9923 10.76 24.9923 10.87V12.73C24.9923 13 25.1223 13.14 25.3823 13.14C25.6423 13.14 25.7723 13 25.7723 12.73V10.87Z" fill="#003556" stroke="#003556" stroke-width="1.13" stroke-miterlimit="10"/>
<path d="M41.5002 12.73C41.5002 12.84 41.5302 12.94 41.6002 13.02C41.6702 13.1 41.7502 13.14 41.8502 13.14H41.8902C42.0002 13.14 42.0902 13.1 42.1702 13.01C42.2502 12.92 42.2802 12.82 42.2802 12.71V5.27002C42.2802 5.16002 42.2402 5.06002 42.1702 4.97002C42.1002 4.88002 42.0002 4.84002 41.8902 4.84002H41.8502C41.7502 4.84002 41.6702 4.88002 41.6002 4.96002C41.5302 5.04002 41.5002 5.13002 41.5002 5.25002V12.73ZM35.9402 16.47L34.6602 15.15V2.84002L35.9402 1.52002H47.8302L49.1102 2.84002V15.15L47.8302 16.47H35.9402Z" fill="#003556" stroke="#003556" stroke-width="1.13" stroke-miterlimit="10"/>
<path d="M65.6297 1.51001V15.14L64.3497 16.46H52.4597L51.1797 15.14V1.51001H58.0097V8.99001C58.0097 9.12001 58.0497 9.22001 58.1397 9.31001C58.2297 9.40001 58.3397 9.42001 58.4597 9.40001C58.5697 9.38001 58.6497 9.34001 58.7097 9.26001C58.7597 9.18001 58.7897 9.09001 58.7897 8.97001V1.51001H65.6197H65.6297Z" fill="#003556" stroke="#003556" stroke-width="1.13" stroke-miterlimit="10"/>
<path d="M78.5292 8.59001C78.2692 8.59001 78.1392 8.73001 78.1392 9.00001V16.48H71.6992V9.00001C71.6992 8.73001 71.5692 8.59001 71.3092 8.59001H67.6992V1.51001H82.1492V8.58001H78.5392L78.5292 8.59001Z" fill="#003556" stroke="#003556" stroke-width="1.13" stroke-miterlimit="10"/>
<path d="M8.36906 7.04996C8.36906 7.15996 8.40906 7.25996 8.47906 7.34996C8.54906 7.43996 8.64906 7.47996 8.75906 7.47996C8.86906 7.47996 8.95906 7.43996 9.03906 7.34996C9.11906 7.25996 9.14906 7.15996 9.14906 7.04996V5.20996C9.14906 5.09996 9.10906 4.99996 9.03906 4.90996C8.96906 4.81996 8.86906 4.77996 8.75906 4.77996H8.71906C8.61906 4.77996 8.53906 4.81996 8.46906 4.89996C8.39906 4.97996 8.36906 5.06996 8.36906 5.18996V7.04996ZM8.36906 16.41H1.53906V2.77996L2.81906 1.45996H14.7091L15.9891 2.77996V16.41H9.15906V12.67C9.15906 12.56 9.12906 12.46 9.05906 12.38C8.98906 12.3 8.90906 12.26 8.80906 12.26H8.76906C8.65906 12.26 8.56906 12.3 8.48906 12.39C8.40906 12.48 8.37906 12.58 8.37906 12.69V16.41H8.36906Z" fill="#003556" stroke="#003556" stroke-width="1.13" stroke-miterlimit="10"/>
<path d="M24.9103 7.04995C24.9103 7.15995 24.9503 7.25995 25.0203 7.34995C25.0903 7.43995 25.1903 7.47995 25.3003 7.47995C25.4103 7.47995 25.5003 7.43995 25.5803 7.34995C25.6603 7.25995 25.6903 7.15995 25.6903 7.04995V5.18995C25.6903 4.91995 25.5603 4.77995 25.3003 4.77995C25.0403 4.77995 24.9103 4.91995 24.9103 5.18995V7.04995ZM32.5203 7.60995L31.2403 8.92995L32.5203 10.25V15.08L31.2403 16.4H18.0703V1.44995H31.2403L32.5203 2.76995V7.59995V7.60995ZM25.6903 10.81C25.6903 10.7 25.6503 10.6 25.5803 10.51C25.5103 10.42 25.4103 10.38 25.3003 10.38C25.1903 10.38 25.1003 10.42 25.0203 10.51C24.9403 10.6 24.9103 10.7 24.9103 10.81V12.67C24.9103 12.94 25.0403 13.08 25.3003 13.08C25.5603 13.08 25.6903 12.94 25.6903 12.67V10.81Z" fill="#003556" stroke="#003556" stroke-width="1.13" stroke-miterlimit="10"/>
<path d="M41.4198 12.67C41.4198 12.78 41.4498 12.88 41.5198 12.96C41.5898 13.04 41.6698 13.08 41.7698 13.08H41.8098C41.9198 13.08 42.0098 13.04 42.0898 12.95C42.1698 12.86 42.1998 12.76 42.1998 12.65V5.20996C42.1998 5.09996 42.1598 4.99996 42.0898 4.90996C42.0198 4.81996 41.9198 4.77996 41.8098 4.77996H41.7698C41.6698 4.77996 41.5898 4.81996 41.5198 4.89996C41.4498 4.97996 41.4198 5.06996 41.4198 5.18996V12.67ZM35.8698 16.41L34.5898 15.09V2.77996L35.8698 1.45996H47.7598L49.0398 2.77996V15.09L47.7598 16.41H35.8698Z" fill="#003556" stroke="#003556" stroke-width="1.13" stroke-miterlimit="10"/>
<path d="M65.5477 1.44995V15.08L64.2677 16.4H52.3777L51.0977 15.08V1.44995H57.9277V8.92995C57.9277 9.05995 57.9677 9.15995 58.0577 9.24995C58.1477 9.33995 58.2577 9.35995 58.3777 9.33995C58.4877 9.31995 58.5677 9.27995 58.6277 9.19995C58.6777 9.11995 58.7077 9.02995 58.7077 8.90995V1.44995H65.5377H65.5477Z" fill="#003556" stroke="#003556" stroke-width="1.13" stroke-miterlimit="10"/>
<path d="M78.4472 8.51995C78.1872 8.51995 78.0572 8.65995 78.0572 8.92995V16.41H71.6172V8.92995C71.6172 8.65995 71.4872 8.51995 71.2272 8.51995H67.6172V1.44995H82.0672V8.51995H78.4572H78.4472Z" fill="#003556" stroke="#003556" stroke-width="1.13" stroke-miterlimit="10"/>
<path d="M8.30094 6.98989C8.30094 7.09989 8.34094 7.19989 8.41094 7.28989C8.48094 7.37989 8.58094 7.41989 8.69094 7.41989C8.80094 7.41989 8.89094 7.37989 8.97094 7.28989C9.05094 7.19989 9.08094 7.09989 9.08094 6.98989V5.14989C9.08094 5.03989 9.04094 4.93989 8.97094 4.84989C8.90094 4.75989 8.80094 4.71989 8.69094 4.71989H8.65094C8.55094 4.71989 8.47094 4.75989 8.40094 4.83989C8.33094 4.91989 8.30094 5.00989 8.30094 5.12989V6.98989ZM8.30094 16.3499H1.46094V2.70989L2.74094 1.38989H14.6309L15.9109 2.70989V16.3399H9.08094V12.5999C9.08094 12.4899 9.05094 12.3899 8.98094 12.3099C8.91094 12.2299 8.83094 12.1899 8.73094 12.1899H8.69094C8.58094 12.1899 8.49094 12.2299 8.41094 12.3199C8.33094 12.4099 8.30094 12.5099 8.30094 12.6199V16.3399V16.3499Z" fill="#003556" stroke="#003556" stroke-width="1.13" stroke-miterlimit="10"/>
<path d="M24.83 6.98989C24.83 7.09989 24.87 7.19989 24.94 7.28989C25.01 7.37989 25.11 7.41989 25.22 7.41989C25.33 7.41989 25.42 7.37989 25.5 7.28989C25.58 7.19989 25.61 7.09989 25.61 6.98989V5.12989C25.61 4.85989 25.48 4.71989 25.22 4.71989C24.96 4.71989 24.83 4.85989 24.83 5.12989V6.98989ZM32.45 7.53989L31.17 8.85989L32.45 10.1799V15.0099L31.17 16.3299H18V1.38989H31.17L32.45 2.70989V7.53989ZM25.61 10.7499C25.61 10.6399 25.57 10.5399 25.5 10.4499C25.43 10.3599 25.33 10.3199 25.22 10.3199C25.11 10.3199 25.02 10.3599 24.94 10.4499C24.86 10.5399 24.83 10.6399 24.83 10.7499V12.6099C24.83 12.8799 24.96 13.0199 25.22 13.0199C25.48 13.0199 25.61 12.8799 25.61 12.6099V10.7499Z" fill="#003556" stroke="#003556" stroke-width="1.13" stroke-miterlimit="10"/>
<path d="M41.3417 12.6099C41.3417 12.7199 41.3717 12.8199 41.4417 12.8999C41.5117 12.9799 41.5917 13.0199 41.6917 13.0199H41.7317C41.8417 13.0199 41.9317 12.9799 42.0117 12.8899C42.0917 12.7999 42.1217 12.6999 42.1217 12.5899V5.14989C42.1217 5.03989 42.0817 4.93989 42.0117 4.84989C41.9417 4.75989 41.8417 4.71989 41.7317 4.71989H41.6917C41.5917 4.71989 41.5117 4.75989 41.4417 4.83989C41.3717 4.91989 41.3417 5.00989 41.3417 5.12989V12.6099ZM35.7917 16.3499L34.5117 15.0299V2.70989L35.7917 1.38989H47.6817L48.9617 2.70989V15.0199L47.6817 16.3399H35.7917V16.3499Z" fill="#003556" stroke="#003556" stroke-width="1.13" stroke-miterlimit="10"/>
<path d="M65.4695 1.38989V15.0199L64.1895 16.3399H52.2995L51.0195 15.0199V1.38989H57.8495V8.86989C57.8495 8.99989 57.8895 9.09989 57.9795 9.18989C58.0695 9.27989 58.1795 9.29989 58.2995 9.27989C58.4095 9.25989 58.4895 9.21989 58.5495 9.13989C58.5995 9.05989 58.6295 8.96989 58.6295 8.84989V1.38989H65.4595H65.4695Z" fill="#003556" stroke="#003556" stroke-width="1.13" stroke-miterlimit="10"/>
<path d="M78.3691 8.45989C78.1091 8.45989 77.9791 8.59989 77.9791 8.86989V16.3499H71.5391V8.86989C71.5391 8.59989 71.4091 8.45989 71.1491 8.45989H67.5391V1.38989H81.9891V8.45989H78.3791H78.3691Z" fill="#003556" stroke="#003556" stroke-width="1.13" stroke-miterlimit="10"/>
<path d="M8.22063 6.92008C8.22063 7.03008 8.26062 7.13008 8.33063 7.22008C8.40063 7.31008 8.50063 7.35008 8.61063 7.35008C8.72063 7.35008 8.81063 7.31008 8.89062 7.22008C8.97062 7.13008 9.00063 7.03008 9.00063 6.92008V5.08008C9.00063 4.97008 8.96063 4.87008 8.89062 4.78008C8.82062 4.69008 8.72063 4.65008 8.61063 4.65008H8.57063C8.47063 4.65008 8.39063 4.69008 8.32063 4.77008C8.25063 4.85008 8.22063 4.94008 8.22063 5.06008V6.92008ZM8.22063 16.2801H1.39062V2.65008L2.67062 1.33008H14.5606L15.8406 2.65008V16.2801H9.01062V12.5401C9.01062 12.4301 8.98063 12.3301 8.91063 12.2501C8.84063 12.1701 8.76063 12.1301 8.66063 12.1301H8.62063C8.51063 12.1301 8.42063 12.1701 8.34063 12.2601C8.26063 12.3501 8.23063 12.4501 8.23063 12.5601V16.2801H8.22063Z" fill="#003556" stroke="#003556" stroke-width="1.13" stroke-miterlimit="10"/>
<path d="M24.7519 6.92007C24.7519 7.03007 24.7919 7.13007 24.8619 7.22007C24.9319 7.31007 25.0319 7.35007 25.1419 7.35007C25.2519 7.35007 25.3419 7.31007 25.4219 7.22007C25.5019 7.13007 25.5319 7.03007 25.5319 6.92007V5.06007C25.5319 4.79007 25.4019 4.65007 25.1419 4.65007C24.8819 4.65007 24.7519 4.79007 24.7519 5.06007V6.92007ZM32.3719 7.48007L31.0919 8.80007L32.3719 10.1201V14.9501L31.0919 16.2701H17.9219V1.32007H31.0919L32.3719 2.64007V7.47007V7.48007ZM25.5419 10.6801C25.5419 10.5701 25.5019 10.4701 25.4319 10.3801C25.3619 10.2901 25.2619 10.2501 25.1519 10.2501C25.0419 10.2501 24.9519 10.2901 24.8719 10.3801C24.7919 10.4701 24.7619 10.5701 24.7619 10.6801V12.5401C24.7619 12.8101 24.8919 12.9501 25.1519 12.9501C25.4119 12.9501 25.5419 12.8101 25.5419 12.5401V10.6801Z" fill="#003556" stroke="#003556" stroke-width="1.13" stroke-miterlimit="10"/>
<path d="M41.2697 12.5401C41.2697 12.6501 41.2997 12.7501 41.3697 12.8301C41.4397 12.9101 41.5197 12.9501 41.6197 12.9501H41.6597C41.7697 12.9501 41.8597 12.9101 41.9397 12.8201C42.0197 12.7301 42.0497 12.6301 42.0497 12.5201V5.08008C42.0497 4.97008 42.0097 4.87008 41.9397 4.78008C41.8697 4.69008 41.7697 4.65008 41.6597 4.65008H41.6197C41.5197 4.65008 41.4397 4.69008 41.3697 4.77008C41.2997 4.85008 41.2697 4.94008 41.2697 5.06008V12.5401ZM35.7097 16.2801L34.4297 14.9601V2.65008L35.7097 1.33008H47.5997L48.8797 2.65008V14.9601L47.5997 16.2801H35.7097Z" fill="#003556" stroke="#003556" stroke-width="1.13" stroke-miterlimit="10"/>
<path d="M65.3992 1.32007V14.9501L64.1192 16.2701H52.2292L50.9492 14.9501V1.32007H57.7792V8.80007C57.7792 8.93007 57.8192 9.03007 57.9092 9.12007C57.9992 9.21007 58.1092 9.23007 58.2292 9.21007C58.3392 9.19007 58.4192 9.15007 58.4792 9.07007C58.5292 8.99007 58.5592 8.90007 58.5592 8.78007V1.32007H65.3892H65.3992Z" fill="#003556" stroke="#003556" stroke-width="1.13" stroke-miterlimit="10"/>
<path d="M78.2988 8.40007C78.0388 8.40007 77.9088 8.54007 77.9088 8.81007V16.2901H71.4688V8.81007C71.4688 8.54007 71.3388 8.40007 71.0788 8.40007H67.4688V1.32007H81.9188V8.39007H78.3088L78.2988 8.40007Z" fill="#003556" stroke="#003556" stroke-width="1.13" stroke-miterlimit="10"/>
<path d="M8.13859 6.86001C8.13859 6.97001 8.17859 7.07001 8.24859 7.16001C8.31859 7.25001 8.41859 7.29001 8.52859 7.29001C8.63859 7.29001 8.72859 7.25001 8.80859 7.16001C8.88859 7.07001 8.91859 6.97001 8.91859 6.86001V5.02001C8.91859 4.91001 8.87859 4.81001 8.80859 4.72001C8.73859 4.63001 8.63859 4.59001 8.52859 4.59001H8.48859C8.38859 4.59001 8.30859 4.63001 8.23859 4.71001C8.16859 4.79001 8.13859 4.88001 8.13859 5.00001V6.86001ZM8.13859 16.22H1.30859V2.58001L2.58859 1.26001H14.4786L15.7586 2.58001V16.21H8.92859V12.47C8.92859 12.36 8.89859 12.26 8.82859 12.18C8.75859 12.1 8.67859 12.06 8.57859 12.06H8.53859C8.42859 12.06 8.33859 12.1 8.25859 12.19C8.17859 12.28 8.14859 12.38 8.14859 12.49V16.21L8.13859 16.22Z" fill="#003556" stroke="#003556" stroke-width="1.13" stroke-miterlimit="10"/>
<path d="M24.6798 6.86001C24.6798 6.97001 24.7198 7.07001 24.7898 7.16001C24.8598 7.25001 24.9598 7.29001 25.0698 7.29001C25.1798 7.29001 25.2698 7.25001 25.3498 7.16001C25.4298 7.07001 25.4598 6.97001 25.4598 6.86001V5.00001C25.4598 4.73001 25.3298 4.59001 25.0698 4.59001C24.8098 4.59001 24.6798 4.73001 24.6798 5.00001V6.86001ZM32.2898 7.41001L31.0098 8.73001L32.2898 10.05V14.88L31.0098 16.2H17.8398V1.26001H31.0098L32.2898 2.58001V7.41001ZM25.4598 10.62C25.4598 10.51 25.4198 10.41 25.3498 10.32C25.2798 10.23 25.1798 10.19 25.0698 10.19C24.9598 10.19 24.8698 10.23 24.7898 10.32C24.7098 10.41 24.6798 10.51 24.6798 10.62V12.48C24.6798 12.75 24.8098 12.89 25.0698 12.89C25.3298 12.89 25.4598 12.75 25.4598 12.48V10.62Z" fill="#003556" stroke="#003556" stroke-width="1.13" stroke-miterlimit="10"/>
<path d="M41.1894 12.48C41.1894 12.59 41.2194 12.69 41.2894 12.77C41.3594 12.85 41.4394 12.89 41.5394 12.89H41.5794C41.6894 12.89 41.7794 12.85 41.8594 12.76C41.9394 12.67 41.9694 12.57 41.9694 12.46V5.02001C41.9694 4.91001 41.9294 4.81001 41.8594 4.72001C41.7894 4.63001 41.6894 4.59001 41.5794 4.59001H41.5394C41.4394 4.59001 41.3594 4.63001 41.2894 4.71001C41.2194 4.79001 41.1894 4.88001 41.1894 5.00001V12.48ZM35.6394 16.22L34.3594 14.9V2.58001L35.6394 1.26001H47.5294L48.8094 2.58001V14.89L47.5294 16.21H35.6394V16.22Z" fill="#003556" stroke="#003556" stroke-width="1.13" stroke-miterlimit="10"/>
<path d="M65.3172 1.26001V14.89L64.0372 16.21H52.1472L50.8672 14.89V1.26001H57.6972V8.74001C57.6972 8.87001 57.7372 8.97001 57.8272 9.06001C57.9172 9.15001 58.0272 9.17001 58.1472 9.15001C58.2572 9.13001 58.3372 9.09001 58.3972 9.01001C58.4472 8.93001 58.4772 8.84001 58.4772 8.72001V1.26001H65.3072H65.3172Z" fill="#003556" stroke="#003556" stroke-width="1.13" stroke-miterlimit="10"/>
<path d="M78.2167 8.33001C77.9567 8.33001 77.8267 8.47001 77.8267 8.74001V16.22H71.3867V8.74001C71.3867 8.47001 71.2567 8.33001 70.9967 8.33001H67.3867V1.26001H81.8367V8.33001H78.2267H78.2167Z" fill="#003556" stroke="#003556" stroke-width="1.13" stroke-miterlimit="10"/>
<path d="M8.07047 6.78995C8.07047 6.89995 8.11047 6.99995 8.18047 7.08995C8.25047 7.17995 8.35047 7.21995 8.46047 7.21995C8.57047 7.21995 8.66047 7.17995 8.74047 7.08995C8.82047 6.99995 8.85047 6.89995 8.85047 6.78995V4.94995C8.85047 4.83995 8.81047 4.73995 8.74047 4.64995C8.67047 4.55995 8.57047 4.51995 8.46047 4.51995H8.42047C8.32047 4.51995 8.24047 4.55995 8.17047 4.63995C8.10047 4.71995 8.07047 4.80995 8.07047 4.92995V6.78995ZM8.07047 16.15H1.23047V2.51995L2.51047 1.19995H14.4005L15.6805 2.51995V16.15H8.85047V12.41C8.85047 12.3 8.82047 12.2 8.75047 12.12C8.68047 12.04 8.60047 12 8.50047 12H8.46047C8.35047 12 8.26047 12.04 8.18047 12.13C8.10047 12.22 8.07047 12.32 8.07047 12.43V16.15Z" fill="#003556" stroke="#003556" stroke-width="1.13" stroke-miterlimit="10"/>
<path d="M24.5995 6.78995C24.5995 6.89995 24.6395 6.99995 24.7095 7.08995C24.7795 7.17995 24.8795 7.21995 24.9895 7.21995C25.0995 7.21995 25.1895 7.17995 25.2695 7.08995C25.3495 6.99995 25.3795 6.89995 25.3795 6.78995V4.92995C25.3795 4.65995 25.2495 4.51995 24.9895 4.51995C24.7295 4.51995 24.5995 4.65995 24.5995 4.92995V6.78995ZM32.2195 7.34995L30.9395 8.66995L32.2195 9.98995V14.82L30.9395 16.14H17.7695V1.19995H30.9395L32.2195 2.51995V7.34995ZM25.3795 10.56C25.3795 10.45 25.3395 10.35 25.2695 10.26C25.1995 10.17 25.0995 10.13 24.9895 10.13C24.8795 10.13 24.7895 10.17 24.7095 10.26C24.6295 10.35 24.5995 10.45 24.5995 10.56V12.42C24.5995 12.69 24.7295 12.83 24.9895 12.83C25.2495 12.83 25.3795 12.69 25.3795 12.42V10.56Z" fill="#003556" stroke="#003556" stroke-width="1.13" stroke-miterlimit="10"/>
<path d="M41.1112 12.41C41.1112 12.52 41.1413 12.62 41.2113 12.7C41.2813 12.78 41.3613 12.82 41.4613 12.82H41.5013C41.6113 12.82 41.7013 12.78 41.7812 12.69C41.8612 12.6 41.8913 12.5 41.8913 12.39V4.94995C41.8913 4.83995 41.8513 4.73995 41.7812 4.64995C41.7112 4.55995 41.6113 4.51995 41.5013 4.51995H41.4613C41.3613 4.51995 41.2813 4.55995 41.2113 4.63995C41.1413 4.71995 41.1112 4.80995 41.1112 4.92995V12.41ZM35.5612 16.15L34.2812 14.83V2.51995L35.5612 1.19995H47.4512L48.7313 2.51995V14.83L47.4512 16.15H35.5612Z" fill="#003556" stroke="#003556" stroke-width="1.13" stroke-miterlimit="10"/>
<path d="M65.2391 1.19995V14.83L63.9591 16.15H52.0691L50.7891 14.83V1.19995H57.6191V8.67995C57.6191 8.80995 57.6591 8.90995 57.7491 8.99995C57.8391 9.08995 57.9491 9.10995 58.0691 9.08995C58.1791 9.06995 58.2591 9.02995 58.3191 8.94995C58.3691 8.86995 58.3991 8.77995 58.3991 8.65995V1.19995H65.2291H65.2391Z" fill="#003556" stroke="#003556" stroke-width="1.13" stroke-miterlimit="10"/>
<path d="M78.1386 8.26995C77.8786 8.26995 77.7486 8.40995 77.7486 8.67995V16.16H71.3086V8.67995C71.3086 8.40995 71.1786 8.26995 70.9186 8.26995H67.3086V1.19995H81.7586V8.26995H78.1486H78.1386Z" fill="#003556" stroke="#003556" stroke-width="1.13" stroke-miterlimit="10"/>
<path d="M7.99016 6.72988C7.99016 6.83988 8.03016 6.93988 8.10016 7.02988C8.17016 7.11988 8.27016 7.15988 8.38016 7.15988C8.49016 7.15988 8.58016 7.11988 8.66016 7.02988C8.74016 6.93988 8.77016 6.83988 8.77016 6.72988V4.88988C8.77016 4.77988 8.73016 4.67988 8.66016 4.58988C8.59016 4.49988 8.49016 4.45988 8.38016 4.45988H8.34016C8.24016 4.45988 8.16016 4.49988 8.09016 4.57988C8.02016 4.65988 7.99016 4.74988 7.99016 4.86988V6.72988ZM7.99016 16.0899H1.16016V2.45988L2.44016 1.12988H14.3302L15.6102 2.44988V16.0799H8.78016V12.3399C8.78016 12.2299 8.75016 12.1299 8.68016 12.0499C8.61016 11.9699 8.53016 11.9299 8.43016 11.9299H8.39016C8.28016 11.9299 8.19016 11.9699 8.11016 12.0599C8.03016 12.1499 8.00016 12.2499 8.00016 12.3599V16.0799L7.99016 16.0899Z" fill="#003556" stroke="#003556" stroke-width="1.13" stroke-miterlimit="10"/>
<path d="M24.5214 6.72988C24.5214 6.83988 24.5614 6.93988 24.6314 7.02988C24.7014 7.11988 24.8014 7.15988 24.9114 7.15988C25.0214 7.15988 25.1114 7.11988 25.1914 7.02988C25.2714 6.93988 25.3014 6.83988 25.3014 6.72988V4.86988C25.3014 4.59988 25.1714 4.45988 24.9114 4.45988C24.6514 4.45988 24.5214 4.59988 24.5214 4.86988V6.72988ZM32.1414 7.28988L30.8614 8.60988L32.1414 9.92988V14.7599L30.8614 16.0799H17.6914V1.12988H30.8614L32.1414 2.44988V7.27988V7.28988ZM25.3114 10.4899C25.3114 10.3799 25.2714 10.2799 25.2014 10.1899C25.1314 10.0999 25.0314 10.0599 24.9214 10.0599C24.8114 10.0599 24.7214 10.0999 24.6414 10.1899C24.5614 10.2799 24.5314 10.3799 24.5314 10.4899V12.3499C24.5314 12.6199 24.6614 12.7599 24.9214 12.7599C25.1814 12.7599 25.3114 12.6199 25.3114 12.3499V10.4899Z" fill="#003556" stroke="#003556" stroke-width="1.13" stroke-miterlimit="10"/>
<path d="M41.0392 12.3499C41.0392 12.4599 41.0692 12.5599 41.1392 12.6399C41.2092 12.7199 41.2892 12.7599 41.3892 12.7599H41.4292C41.5392 12.7599 41.6292 12.7199 41.7092 12.6299C41.7892 12.5399 41.8192 12.4399 41.8192 12.3299V4.88989C41.8192 4.77989 41.7792 4.67989 41.7092 4.58989C41.6392 4.49989 41.5392 4.45989 41.4292 4.45989H41.3892C41.2892 4.45989 41.2092 4.49989 41.1392 4.57989C41.0692 4.65989 41.0392 4.74989 41.0392 4.86989V12.3499ZM35.4792 16.0899L34.1992 14.7699V2.45989L35.4792 1.13989H47.3692L48.6492 2.45989V14.7699L47.3692 16.0899H35.4792Z" fill="#003556" stroke="#003556" stroke-width="1.13" stroke-miterlimit="10"/>
<path d="M65.1688 1.12988V14.7599L63.8888 16.0799H51.9988L50.7188 14.7599V1.12988H57.5488V8.60988C57.5488 8.73988 57.5888 8.83988 57.6788 8.92988C57.7688 9.01988 57.8788 9.03988 57.9988 9.01988C58.1088 8.99988 58.1888 8.95988 58.2488 8.87988C58.2988 8.79988 58.3288 8.70988 58.3288 8.58988V1.12988H65.1588H65.1688Z" fill="#003556" stroke="#003556" stroke-width="1.13" stroke-miterlimit="10"/>
<path d="M78.0683 8.20988C77.8083 8.20988 77.6783 8.34988 77.6783 8.61988V16.0999H71.2383V8.61988C71.2383 8.34988 71.1083 8.20988 70.8483 8.20988H67.2383V1.12988H81.6883V8.19988H78.0783L78.0683 8.20988Z" fill="#003556" stroke="#003556" stroke-width="1.13" stroke-miterlimit="10"/>
<path d="M7.90812 6.67007C7.90812 6.78007 7.94812 6.88007 8.01813 6.97007C8.08813 7.06007 8.18813 7.10007 8.29813 7.10007C8.40813 7.10007 8.49813 7.06007 8.57813 6.97007C8.65813 6.88007 8.68813 6.78007 8.68813 6.67007V4.83007C8.68813 4.72007 8.64813 4.62007 8.57813 4.53007C8.50813 4.44007 8.40813 4.40007 8.29813 4.40007H8.25813C8.15813 4.40007 8.07813 4.44007 8.00813 4.52007C7.93813 4.60007 7.90812 4.69007 7.90812 4.81007V6.67007ZM7.90812 16.0301H1.07812V2.39007L2.35812 1.07007H14.2481L15.5281 2.39007V16.0201H8.69813V12.2801C8.69813 12.1701 8.66813 12.0701 8.59812 11.9901C8.52812 11.9101 8.44812 11.8701 8.34812 11.8701H8.30813C8.19812 11.8701 8.10813 11.9101 8.02813 12.0001C7.94813 12.0901 7.91813 12.1901 7.91813 12.3001V16.0201L7.90812 16.0301Z" fill="#003556" stroke="#003556" stroke-width="1.13" stroke-miterlimit="10"/>
<path d="M24.4494 6.67007C24.4494 6.78007 24.4894 6.88007 24.5594 6.97007C24.6294 7.06007 24.7294 7.10007 24.8394 7.10007C24.9494 7.10007 25.0394 7.06007 25.1194 6.97007C25.1994 6.88007 25.2294 6.78007 25.2294 6.67007V4.81007C25.2294 4.54007 25.0994 4.40007 24.8394 4.40007C24.5794 4.40007 24.4494 4.54007 24.4494 4.81007V6.67007ZM32.0594 7.22007L30.7794 8.54007L32.0594 9.86007V14.6901L30.7794 16.0101H17.6094V1.07007H30.7794L32.0594 2.39007V7.22007ZM25.2294 10.4301C25.2294 10.3201 25.1894 10.2201 25.1194 10.1301C25.0494 10.0401 24.9494 10.0001 24.8394 10.0001C24.7294 10.0001 24.6394 10.0401 24.5594 10.1301C24.4794 10.2201 24.4494 10.3201 24.4494 10.4301V12.2901C24.4494 12.5601 24.5794 12.7001 24.8394 12.7001C25.0994 12.7001 25.2294 12.5601 25.2294 12.2901V10.4301Z" fill="#003556" stroke="#003556" stroke-width="1.13" stroke-miterlimit="10"/>
<path d="M40.9589 12.2901C40.9589 12.4001 40.9889 12.5001 41.0589 12.5801C41.1289 12.6601 41.2089 12.7001 41.3089 12.7001H41.3489C41.4589 12.7001 41.5489 12.6601 41.6289 12.5701C41.7089 12.4801 41.7389 12.3801 41.7389 12.2701V4.83007C41.7389 4.72007 41.6989 4.62007 41.6289 4.53007C41.5589 4.44007 41.4589 4.40007 41.3489 4.40007H41.3089C41.2089 4.40007 41.1289 4.44007 41.0589 4.52007C40.9889 4.60007 40.9589 4.69007 40.9589 4.81007V12.2901ZM35.4089 16.0301L34.1289 14.7101V2.39007L35.4089 1.07007H47.2989L48.5789 2.39007V14.7001L47.2989 16.0201H35.4089V16.0301Z" fill="#003556" stroke="#003556" stroke-width="1.13" stroke-miterlimit="10"/>
<path d="M65.0867 1.07007V14.7001L63.8067 16.0201H51.9167L50.6367 14.7001V1.07007H57.4667V8.55007C57.4667 8.68007 57.5067 8.78007 57.5967 8.87007C57.6867 8.96007 57.7967 8.98007 57.9167 8.96007C58.0267 8.94007 58.1067 8.90007 58.1667 8.82007C58.2167 8.74007 58.2467 8.65007 58.2467 8.53007V1.07007H65.0767H65.0867Z" fill="#003556" stroke="#003556" stroke-width="1.13" stroke-miterlimit="10"/>
<path d="M77.9863 8.14007C77.7263 8.14007 77.5963 8.28007 77.5963 8.55007V16.0301H71.1562V8.55007C71.1562 8.28007 71.0263 8.14007 70.7663 8.14007H67.1562V1.07007H81.6062V8.14007H77.9962H77.9863Z" fill="#003556" stroke="#003556" stroke-width="1.13" stroke-miterlimit="10"/>
<path d="M7.84 6.6C7.84 6.71 7.88 6.81 7.95 6.9C8.02 6.99 8.12 7.03 8.23 7.03C8.34 7.03 8.43 6.99 8.51 6.9C8.59 6.81 8.62 6.71 8.62 6.6V4.76C8.62 4.65 8.58 4.55 8.51 4.46C8.44 4.37 8.34 4.33 8.23 4.33H8.19C8.09 4.33 8.01 4.37 7.94 4.45C7.87 4.53 7.84 4.62 7.84 4.74V6.6ZM7.84 15.96H1V2.33L2.28 1H14.17L15.45 2.32V15.95H8.62V12.21C8.62 12.1 8.59 12 8.52 11.92C8.45 11.84 8.37 11.8 8.27 11.8H8.23C8.12 11.8 8.03 11.84 7.95 11.93C7.87 12.02 7.84 12.12 7.84 12.23V15.95V15.96Z" fill="#003556" stroke="#003556" stroke-width="1.13" stroke-miterlimit="10"/>
<path d="M24.3691 6.6C24.3691 6.71 24.4091 6.81 24.4791 6.9C24.5491 6.99 24.6491 7.03 24.7591 7.03C24.8691 7.03 24.9591 6.99 25.0391 6.9C25.1191 6.81 25.1491 6.71 25.1491 6.6V4.74C25.1491 4.47 25.0191 4.33 24.7591 4.33C24.4991 4.33 24.3691 4.47 24.3691 4.74V6.6ZM31.9891 7.16L30.7091 8.48L31.9891 9.8V14.63L30.7091 15.95H17.5391V1H30.7091L31.9891 2.32V7.15V7.16ZM25.1591 10.36C25.1591 10.25 25.1191 10.15 25.0491 10.06C24.9791 9.97 24.8791 9.93 24.7691 9.93C24.6591 9.93 24.5691 9.97 24.4891 10.06C24.4091 10.15 24.3791 10.25 24.3791 10.36V12.22C24.3791 12.49 24.5091 12.63 24.7691 12.63C25.0291 12.63 25.1591 12.49 25.1591 12.22V10.36Z" fill="#003556" stroke="#003556" stroke-width="1.13" stroke-miterlimit="10"/>
<path d="M40.8808 12.22C40.8808 12.33 40.9108 12.43 40.9808 12.51C41.0508 12.59 41.1308 12.63 41.2308 12.63H41.2708C41.3808 12.63 41.4708 12.59 41.5508 12.5C41.6308 12.41 41.6608 12.31 41.6608 12.2V4.76001C41.6608 4.65001 41.6208 4.55001 41.5508 4.46001C41.4808 4.37001 41.3808 4.33001 41.2708 4.33001H41.2308C41.1308 4.33001 41.0508 4.37001 40.9808 4.45001C40.9108 4.53001 40.8808 4.62001 40.8808 4.74001V12.22ZM35.3308 15.96L34.0508 14.64V2.33001L35.3308 1.01001H47.2208L48.5008 2.33001V14.64L47.2208 15.96H35.3308Z" fill="#003556" stroke="#003556" stroke-width="1.13" stroke-miterlimit="10"/>
<path d="M65.0086 1V14.63L63.7286 15.95H51.8386L50.5586 14.63V1H57.3886V8.48C57.3886 8.61 57.4286 8.71 57.5186 8.8C57.6086 8.89 57.7186 8.91 57.8386 8.89C57.9486 8.88 58.0286 8.83 58.0886 8.75C58.1386 8.67 58.1686 8.58 58.1686 8.46V1H64.9986H65.0086Z" fill="#003556" stroke="#003556" stroke-width="1.13" stroke-miterlimit="10"/>
<path d="M77.9081 8.08C77.6481 8.08 77.5181 8.22 77.5181 8.49V15.97H71.0781V8.49C71.0781 8.22 70.9481 8.08 70.6881 8.08H67.0781V1H81.5281V8.07H77.9181L77.9081 8.08Z" fill="#003556" stroke="#003556" stroke-width="1.13" stroke-miterlimit="10"/>
<path d="M7.84 15.96H1V2.33L2.28 1H14.17L15.45 2.32V15.95H8.62V12.21C8.62 12.1 8.59 12 8.52 11.92C8.45 11.84 8.37 11.8 8.27 11.8H8.23C8.12 11.8 8.03 11.84 7.95 11.93C7.87 12.02 7.84 12.12 7.84 12.23V15.95V15.96ZM7.84 6.6C7.84 6.71 7.88 6.81 7.95 6.9C8.02 6.99 8.12 7.03 8.23 7.03C8.34 7.03 8.43 6.99 8.51 6.9C8.59 6.81 8.62 6.71 8.62 6.6V4.76C8.62 4.65 8.58 4.55 8.51 4.46C8.44 4.37 8.34 4.33 8.23 4.33H8.19C8.09 4.33 8.01 4.37 7.94 4.45C7.87 4.53 7.84 4.62 7.84 4.74V6.6Z" fill="white" stroke="#003556" stroke-width="1.13" stroke-miterlimit="10"/>
<path d="M31.9891 7.16L30.7091 8.48L31.9891 9.8V14.63L30.7091 15.95H17.5391V1H30.7091L31.9891 2.32V7.15V7.16ZM24.3691 6.6C24.3691 6.71 24.4091 6.81 24.4791 6.9C24.5491 6.99 24.6491 7.03 24.7591 7.03C24.8691 7.03 24.9591 6.99 25.0391 6.9C25.1191 6.81 25.1491 6.71 25.1491 6.6V4.74C25.1491 4.47 25.0191 4.33 24.7591 4.33C24.4991 4.33 24.3691 4.47 24.3691 4.74V6.6ZM25.1591 10.36C25.1591 10.25 25.1191 10.15 25.0491 10.06C24.9791 9.97 24.8791 9.93 24.7691 9.93C24.6591 9.93 24.5691 9.97 24.4891 10.06C24.4091 10.15 24.3791 10.25 24.3791 10.36V12.22C24.3791 12.49 24.5091 12.63 24.7691 12.63C25.0291 12.63 25.1591 12.49 25.1591 12.22V10.36Z" fill="white" stroke="#003556" stroke-width="1.13" stroke-miterlimit="10"/>
<path d="M35.3308 15.96L34.0508 14.64V2.33001L35.3308 1.01001H47.2208L48.5008 2.33001V14.64L47.2208 15.96H35.3308ZM40.8808 12.22C40.8808 12.33 40.9108 12.43 40.9808 12.51C41.0508 12.59 41.1308 12.63 41.2308 12.63H41.2708C41.3808 12.63 41.4708 12.59 41.5508 12.5C41.6308 12.41 41.6608 12.31 41.6608 12.2V4.76001C41.6608 4.65001 41.6208 4.55001 41.5508 4.46001C41.4808 4.37001 41.3808 4.33001 41.2708 4.33001H41.2308C41.1308 4.33001 41.0508 4.37001 40.9808 4.45001C40.9108 4.53001 40.8808 4.62001 40.8808 4.74001V12.22Z" fill="white" stroke="#003556" stroke-width="1.13" stroke-miterlimit="10"/>
<path d="M65.0086 1V14.63L63.7286 15.95H51.8386L50.5586 14.63V1H57.3886V8.48C57.3886 8.61 57.4286 8.71 57.5186 8.8C57.6086 8.89 57.7186 8.91 57.8386 8.89C57.9486 8.88 58.0286 8.83 58.0886 8.75C58.1386 8.67 58.1686 8.58 58.1686 8.46V1H64.9986H65.0086Z" fill="white" stroke="#003556" stroke-width="1.13" stroke-miterlimit="10"/>
<path d="M77.9081 8.08C77.6481 8.08 77.5181 8.22 77.5181 8.49V15.97H71.0781V8.49C71.0781 8.22 70.9481 8.08 70.6881 8.08H67.0781V1H81.5281V8.07H77.9181L77.9081 8.08Z" fill="white" stroke="#003556" stroke-width="1.13" stroke-miterlimit="10"/>
</svg>
