<svg width="265" height="81" viewBox="0 0 265 81" fill="none" xmlns="http://www.w3.org/2000/svg">
<path d="M222.891 9.79004H36.4609C17.4071 9.79004 1.96094 25.2362 1.96094 44.29C1.96094 63.3439 17.4071 78.79 36.4609 78.79H222.891C241.945 78.79 257.391 63.3439 257.391 44.29C257.391 25.2362 241.945 9.79004 222.891 9.79004Z" fill="#EBC613" stroke="#003556" stroke-width="2.38" stroke-miterlimit="10"/>
<path d="M62.6249 45.1634H73.3111V55.8496H50.7119V33.2504H61.3981V50.1998C61.3981 50.6087 61.6025 50.8132 62.0115 50.8132C62.4204 50.8132 62.6249 50.6087 62.6249 50.1998V45.1634ZM76.5332 33.2504H87.8328V55.8496H76.5332V33.2504ZM107.404 44.55C107.404 44.959 107.608 45.1634 108.017 45.1634C108.426 45.1634 108.63 44.959 108.63 44.55V33.2504H113.667V55.8496H97.3308V44.55C97.3308 44.1411 97.1263 43.9366 96.7174 43.9366C96.3084 43.9366 96.104 44.1411 96.104 44.55V55.8496H91.0676V33.2504H107.404V44.55ZM139.488 45.1634V55.8496H116.889V33.2504H139.488V38.2868H128.189C127.78 38.2868 127.575 38.4913 127.575 38.9002C127.575 39.3092 127.78 39.5136 128.189 39.5136H139.488V43.9366H128.189C127.78 43.9366 127.575 44.1411 127.575 44.55C127.575 44.959 127.78 45.1634 128.189 45.1634H139.488ZM142.742 42.0318H154.041V47.0682H142.742V42.0318ZM179.907 33.2504V53.848L177.905 55.8496H159.309L157.308 53.848V33.2504H167.994V44.55C167.994 44.7437 168.058 44.9051 168.188 45.0343C168.338 45.1634 168.51 45.2065 168.704 45.1634C168.876 45.1419 169.005 45.0773 169.092 44.9697C169.178 44.8406 169.221 44.6899 169.221 44.5177V33.2504H179.907ZM194.429 49.5864C194.02 49.5864 193.815 49.7909 193.815 50.1998V55.8496H183.129V33.2504H203.727L205.728 35.2521V47.5848L203.727 49.5864H194.429ZM193.815 44.55C193.815 44.959 194.02 45.1634 194.429 45.1634C194.838 45.1634 195.042 44.959 195.042 44.55V38.9002C195.042 38.4913 194.838 38.2868 194.429 38.2868C194.02 38.2868 193.815 38.4913 193.815 38.9002V44.55Z" fill="white"/>
<path d="M62.6249 45.1634V44.3115H61.773V45.1634H62.6249ZM73.3111 45.1634H74.163V44.3115H73.3111V45.1634ZM73.3111 55.8496V56.7015H74.163V55.8496H73.3111ZM50.7119 55.8496H49.86V56.7015H50.7119V55.8496ZM50.7119 33.2504V32.3985H49.86V33.2504H50.7119ZM61.3981 33.2504H62.25V32.3985H61.3981V33.2504ZM62.6249 46.0153H73.3111V44.3115H62.6249V46.0153ZM72.4592 45.1634V55.8496H74.163V45.1634H72.4592ZM73.3111 54.9977H50.7119V56.7015H73.3111V54.9977ZM51.5638 55.8496V33.2504H49.86V55.8496H51.5638ZM50.7119 34.1023H61.3981V32.3985H50.7119V34.1023ZM60.5461 33.2504V50.1998H62.25V33.2504H60.5461ZM60.5461 50.1998C60.5461 50.5356 60.6307 50.9439 60.949 51.2623C61.2674 51.5806 61.6757 51.6651 62.0115 51.6651V49.9613C61.9383 49.9613 62.0399 49.9436 62.1538 50.0575C62.2677 50.1713 62.25 50.273 62.25 50.1998H60.5461ZM62.0115 51.6651C62.3473 51.6651 62.7556 51.5806 63.0739 51.2623C63.3923 50.9439 63.4768 50.5356 63.4768 50.1998H61.773C61.773 50.273 61.7552 50.1713 61.8691 50.0575C61.983 49.9436 62.0846 49.9613 62.0115 49.9613V51.6651ZM63.4768 50.1998V45.1634H61.773V50.1998H63.4768ZM76.5332 33.2504V32.3985H75.6813V33.2504H76.5332ZM87.8328 33.2504H88.6847V32.3985H87.8328V33.2504ZM87.8328 55.8496V56.7015H88.6847V55.8496H87.8328ZM76.5332 55.8496H75.6813V56.7015H76.5332V55.8496ZM76.5332 34.1023H87.8328V32.3985H76.5332V34.1023ZM86.9809 33.2504V55.8496H88.6847V33.2504H86.9809ZM87.8328 54.9977H76.5332V56.7015H87.8328V54.9977ZM77.3852 55.8496V33.2504H75.6813V55.8496H77.3852ZM108.63 33.2504V32.3985H107.778V33.2504H108.63ZM113.667 33.2504H114.519V32.3985H113.667V33.2504ZM113.667 55.8496V56.7015H114.519V55.8496H113.667ZM97.3308 55.8496H96.4789V56.7015H97.3308V55.8496ZM96.104 55.8496V56.7015H96.9559V55.8496H96.104ZM91.0676 55.8496H90.2157V56.7015H91.0676V55.8496ZM91.0676 33.2504V32.3985H90.2157V33.2504H91.0676ZM107.404 33.2504H108.255V32.3985H107.404V33.2504ZM106.552 44.55C106.552 44.8858 106.636 45.2941 106.955 45.6125C107.273 45.9308 107.681 46.0153 108.017 46.0153V44.3115C107.944 44.3115 108.045 44.2938 108.159 44.4077C108.273 44.5215 108.255 44.6232 108.255 44.55H106.552ZM108.017 46.0153C108.353 46.0153 108.761 45.9308 109.079 45.6125C109.398 45.2941 109.482 44.8858 109.482 44.55H107.778C107.778 44.6232 107.761 44.5215 107.875 44.4077C107.989 44.2938 108.09 44.3115 108.017 44.3115V46.0153ZM109.482 44.55V33.2504H107.778V44.55H109.482ZM108.63 34.1023H113.667V32.3985H108.63V34.1023ZM112.815 33.2504V55.8496H114.519V33.2504H112.815ZM113.667 54.9977H97.3308V56.7015H113.667V54.9977ZM98.1827 55.8496V44.55H96.4789V55.8496H98.1827ZM98.1827 44.55C98.1827 44.2142 98.0982 43.8059 97.7798 43.4876C97.4615 43.1692 97.0532 43.0847 96.7174 43.0847V44.7885C96.7905 44.7885 96.6889 44.8062 96.575 44.6924C96.4612 44.5785 96.4789 44.4769 96.4789 44.55H98.1827ZM96.7174 43.0847C96.3816 43.0847 95.9733 43.1692 95.6549 43.4876C95.3366 43.8059 95.252 44.2142 95.252 44.55H96.9559C96.9559 44.4769 96.9736 44.5785 96.8597 44.6924C96.7458 44.8062 96.6442 44.7885 96.7174 44.7885V43.0847ZM95.252 44.55V55.8496H96.9559V44.55H95.252ZM96.104 54.9977H91.0676V56.7015H96.104V54.9977ZM91.9195 55.8496V33.2504H90.2157V55.8496H91.9195ZM91.0676 34.1023H107.404V32.3985H91.0676V34.1023ZM106.552 33.2504V44.55H108.255V33.2504H106.552ZM139.488 45.1634H140.34V44.3115H139.488V45.1634ZM139.488 55.8496V56.7015H140.34V55.8496H139.488ZM116.889 55.8496H116.037V56.7015H116.889V55.8496ZM116.889 33.2504V32.3985H116.037V33.2504H116.889ZM139.488 33.2504H140.34V32.3985H139.488V33.2504ZM139.488 38.2868V39.1387H140.34V38.2868H139.488ZM139.488 39.5136H140.34V38.6617H139.488V39.5136ZM139.488 43.9366V44.7885H140.34V43.9366H139.488ZM138.636 45.1634V55.8496H140.34V45.1634H138.636ZM139.488 54.9977H116.889V56.7015H139.488V54.9977ZM117.741 55.8496V33.2504H116.037V55.8496H117.741ZM116.889 34.1023H139.488V32.3985H116.889V34.1023ZM138.636 33.2504V38.2868H140.34V33.2504H138.636ZM139.488 37.4349H128.189V39.1387H139.488V37.4349ZM128.189 37.4349C127.853 37.4349 127.444 37.5194 127.126 37.8378C126.808 38.1561 126.723 38.5644 126.723 38.9002H128.427C128.427 38.8271 128.445 38.9287 128.331 39.0426C128.217 39.1564 128.115 39.1387 128.189 39.1387V37.4349ZM126.723 38.9002C126.723 39.236 126.808 39.6443 127.126 39.9627C127.444 40.281 127.853 40.3655 128.189 40.3655V38.6617C128.115 38.6617 128.217 38.644 128.331 38.7579C128.445 38.8717 128.427 38.9734 128.427 38.9002H126.723ZM128.189 40.3655H139.488V38.6617H128.189V40.3655ZM138.636 39.5136V43.9366H140.34V39.5136H138.636ZM139.488 43.0847H128.189V44.7885H139.488V43.0847ZM128.189 43.0847C127.853 43.0847 127.444 43.1692 127.126 43.4876C126.808 43.8059 126.723 44.2142 126.723 44.55H128.427C128.427 44.4769 128.445 44.5785 128.331 44.6924C128.217 44.8062 128.115 44.7885 128.189 44.7885V43.0847ZM126.723 44.55C126.723 44.8858 126.808 45.2941 127.126 45.6125C127.444 45.9308 127.853 46.0153 128.189 46.0153V44.3115C128.115 44.3115 128.217 44.2938 128.331 44.4077C128.445 44.5215 128.427 44.6232 128.427 44.55H126.723ZM128.189 46.0153H139.488V44.3115H128.189V46.0153ZM142.742 42.0318V41.1799H141.89V42.0318H142.742ZM154.041 42.0318H154.893V41.1799H154.041V42.0318ZM154.041 47.0682V47.9201H154.893V47.0682H154.041ZM142.742 47.0682H141.89V47.9201H142.742V47.0682ZM142.742 42.8837H154.041V41.1799H142.742V42.8837ZM153.189 42.0318V47.0682H154.893V42.0318H153.189ZM154.041 46.2163H142.742V47.9201H154.041V46.2163ZM143.594 47.0682V42.0318H141.89V47.0682H143.594ZM179.907 33.2504H180.759V32.3985H179.907V33.2504ZM179.907 53.848L180.509 54.4504L180.759 54.2008V53.848H179.907ZM177.905 55.8496V56.7015H178.258L178.508 56.452L177.905 55.8496ZM159.309 55.8496L158.707 56.452L158.956 56.7015H159.309V55.8496ZM157.308 53.848H156.456V54.2008L156.705 54.4504L157.308 53.848ZM157.308 33.2504V32.3985H156.456V33.2504H157.308ZM167.994 33.2504H168.846V32.3985H167.994V33.2504ZM168.188 45.0343L167.585 45.6367L167.608 45.6598L167.633 45.6811L168.188 45.0343ZM168.704 45.1634L168.598 44.3181L168.559 44.3231L168.519 44.3318L168.704 45.1634ZM169.092 44.9697L169.757 45.5019L169.78 45.473L169.8 45.4423L169.092 44.9697ZM169.221 33.2504V32.3985H168.369V33.2504H169.221ZM179.055 33.2504V53.848H180.759V33.2504H179.055ZM179.304 53.2456L177.303 55.2472L178.508 56.452L180.509 54.4504L179.304 53.2456ZM177.905 54.9977H159.309V56.7015H177.905V54.9977ZM159.912 55.2472L157.91 53.2456L156.705 54.4504L158.707 56.452L159.912 55.2472ZM158.16 53.848V33.2504H156.456V53.848H158.16ZM157.308 34.1023H167.994V32.3985H157.308V34.1023ZM167.142 33.2504V44.55H168.846V33.2504H167.142ZM167.142 44.55C167.142 44.9545 167.286 45.3373 167.585 45.6367L168.79 44.4319C168.803 44.4447 168.821 44.4682 168.833 44.5C168.846 44.5307 168.846 44.5508 168.846 44.55H167.142ZM167.633 45.6811C167.987 45.9848 168.433 46.0963 168.889 45.9951L168.519 44.3318C168.536 44.328 168.58 44.3228 168.636 44.3369C168.693 44.3511 168.729 44.3762 168.742 44.3875L167.633 45.6811ZM168.81 46.0088C169.142 45.9672 169.498 45.8248 169.757 45.5019L168.426 44.4375C168.464 44.3905 168.509 44.357 168.549 44.3369C168.586 44.3182 168.607 44.3169 168.598 44.3181L168.81 46.0088ZM169.8 45.4423C169.99 45.1581 170.073 44.839 170.073 44.5177H168.369C168.369 44.5324 168.367 44.5337 168.369 44.5258C168.37 44.5221 168.372 44.5173 168.375 44.5118C168.377 44.5064 168.38 44.5014 168.383 44.4971L169.8 45.4423ZM170.073 44.5177V33.2504H168.369V44.5177H170.073ZM169.221 34.1023H179.907V32.3985H169.221V34.1023ZM193.815 55.8496V56.7015H194.667V55.8496H193.815ZM183.129 55.8496H182.277V56.7015H183.129V55.8496ZM183.129 33.2504V32.3985H182.277V33.2504H183.129ZM203.727 33.2504L204.329 32.648L204.079 32.3985H203.727V33.2504ZM205.728 35.2521H206.58V34.8992L206.331 34.6497L205.728 35.2521ZM205.728 47.5848L206.331 48.1872L206.58 47.9376V47.5848H205.728ZM203.727 49.5864V50.4383H204.079L204.329 50.1888L203.727 49.5864ZM194.429 48.7345C194.093 48.7345 193.685 48.819 193.366 49.1374C193.048 49.4557 192.963 49.864 192.963 50.1998H194.667C194.667 50.1267 194.685 50.2283 194.571 50.3422C194.457 50.456 194.355 50.4383 194.429 50.4383V48.7345ZM192.963 50.1998V55.8496H194.667V50.1998H192.963ZM193.815 54.9977H183.129V56.7015H193.815V54.9977ZM183.981 55.8496V33.2504H182.277V55.8496H183.981ZM183.129 34.1023H203.727V32.3985H183.129V34.1023ZM203.124 33.8528L205.126 35.8545L206.331 34.6497L204.329 32.648L203.124 33.8528ZM204.876 35.2521V47.5848H206.58V35.2521H204.876ZM205.126 46.9824L203.124 48.984L204.329 50.1888L206.331 48.1872L205.126 46.9824ZM203.727 48.7345H194.429V50.4383H203.727V48.7345ZM192.963 44.55C192.963 44.8858 193.048 45.2941 193.366 45.6125C193.685 45.9308 194.093 46.0153 194.429 46.0153V44.3115C194.355 44.3115 194.457 44.2938 194.571 44.4077C194.685 44.5215 194.667 44.6232 194.667 44.55H192.963ZM194.429 46.0153C194.764 46.0153 195.173 45.9308 195.491 45.6125C195.809 45.2941 195.894 44.8858 195.894 44.55H194.19C194.19 44.6232 194.172 44.5215 194.286 44.4077C194.4 44.2938 194.502 44.3115 194.429 44.3115V46.0153ZM195.894 44.55V38.9002H194.19V44.55H195.894ZM195.894 38.9002C195.894 38.5644 195.809 38.1561 195.491 37.8378C195.173 37.5194 194.764 37.4349 194.429 37.4349V39.1387C194.502 39.1387 194.4 39.1564 194.286 39.0426C194.172 38.9287 194.19 38.8271 194.19 38.9002H195.894ZM194.429 37.4349C194.093 37.4349 193.685 37.5194 193.366 37.8378C193.048 38.1561 192.963 38.5644 192.963 38.9002H194.667C194.667 38.8271 194.685 38.9287 194.571 39.0426C194.457 39.1564 194.355 39.1387 194.429 39.1387V37.4349ZM192.963 38.9002V44.55H194.667V38.9002H192.963Z" fill="#003556"/>
</svg>
