<svg width="864" height="213" viewBox="0 0 864 213" fill="none" xmlns="http://www.w3.org/2000/svg">
<g clip-path="url(#clip0_690_7522)">
<path d="M355.417 63.1365C349.777 55.5789 354.569 44.5107 363.987 43.897C364.253 43.8804 364.519 43.8694 364.785 43.8694C365.045 43.8694 365.311 43.8694 365.571 43.8859C374.967 44.3614 379.875 55.3522 374.33 62.9319L364.895 75.8301L355.417 63.1365Z" fill="#2D8EC9"/>
<path d="M360.258 61.3176V50.1388H365.947C367.127 50.1388 367.992 50.4373 368.534 51.0289C369.077 51.626 369.349 52.306 369.349 53.0689C369.349 53.6273 369.194 54.1304 368.878 54.5782C368.562 55.0316 368.091 55.3412 367.471 55.507C368.922 55.8553 369.648 56.7233 369.648 58.111C369.648 58.9403 369.393 59.6811 368.878 60.3335C368.368 60.9859 367.271 61.3121 365.598 61.3121H360.263L360.258 61.3176ZM363.427 54.4234H365.017C365.415 54.4234 365.698 54.3239 365.859 54.1194C366.025 53.9148 366.102 53.6992 366.102 53.4725C366.102 52.8478 365.72 52.5382 364.956 52.5382H363.421V54.4234H363.427ZM363.427 58.8297H365.1C365.515 58.8297 365.82 58.7302 366.014 58.5257C366.208 58.3211 366.307 58.0889 366.307 57.8346C366.307 57.5803 366.213 57.3425 366.025 57.1269C365.836 56.9113 365.487 56.8063 364.989 56.8063H363.427V58.8352V58.8297Z" fill="white"/>
<path d="M355.417 19.2727C349.777 11.7151 354.569 0.64684 363.987 0.0331666C364.253 0.0165809 364.519 0.00552368 364.785 0.00552368C365.051 0.00552368 365.311 0.00552368 365.571 0.0221095C374.967 0.497568 379.875 11.4884 374.33 19.0681L364.895 31.9663L355.417 19.2727Z" fill="#2D8EC9"/>
<path d="M366.436 17.4538L365.805 15.2478H362.802L362.132 17.4538H359.34L362.797 6.27495H366.431L369.943 17.4538H366.436ZM363.39 12.8097H365.201L364.293 9.56446L363.384 12.8097H363.39Z" fill="white"/>
<path d="M407.726 25.9236H405.294V21.5781C405.294 18.8857 403.881 17.697 401.494 17.697H399.771V25.9236H397.316V9.71373H403.504C406.202 9.71373 407.726 11.0129 407.726 13.639C407.726 15.8007 406.707 17.0557 405.072 17.498C406.64 18.0066 407.726 19.3279 407.726 21.755V25.9236ZM399.771 17.2547H401.494C403.881 17.2547 405.294 16.0882 405.294 13.7054C405.294 11.3226 403.881 10.156 401.494 10.156H399.771V17.2547Z" fill="white"/>
<path d="M412.029 19.8366V22.7059C412.029 24.558 412.783 25.7024 414.329 25.7024C415.874 25.7024 416.65 24.558 416.65 23.3638V21.8213H418.882V22.4848C418.882 25.3099 417.492 26.1447 414.329 26.1447C411.165 26.1447 409.797 25.3044 409.797 21.8213V18.2499C409.797 14.7669 411.165 13.9265 414.329 13.9265C417.492 13.9265 418.882 14.7669 418.882 17.5864V19.8366H412.029ZM416.65 19.3943V16.7019C416.65 15.5132 415.896 14.3633 414.329 14.3633C412.761 14.3633 412.029 15.5077 412.029 17.3598V19.3888H416.65V19.3943Z" fill="white"/>
<path d="M422.92 21.8213V23.3638C422.92 24.5525 423.674 25.7024 425.219 25.7024C426.632 25.7024 427.496 24.7515 427.496 23.4965C427.496 19.9471 420.688 22.3742 420.688 17.6528C420.688 15.2036 422.521 13.9265 425.175 13.9265C428.022 13.9265 429.551 15.3805 429.551 17.5864V18.2499H427.319V16.7074C427.319 15.5187 426.787 14.3688 425.219 14.3688C423.829 14.3688 422.964 15.2976 422.964 16.6632C422.964 20.4116 429.773 18.0066 429.773 22.5511C429.773 24.9118 427.939 26.1447 425.219 26.1447C422.3 26.1447 420.688 24.6686 420.688 22.4848V21.8213H422.92Z" fill="white"/>
<path d="M432.646 10.3716C433.466 10.3716 434.103 11.0129 434.103 11.8035C434.103 12.5941 433.46 13.2576 432.646 13.2576C431.831 13.2576 431.211 12.6162 431.211 11.8035C431.211 10.9908 431.854 10.3716 432.646 10.3716ZM431.543 14.1421H433.776V25.918H431.543V14.1421Z" fill="white"/>
<path d="M445.015 21.8213C445.015 25.3044 443.625 26.1447 440.461 26.1447C437.298 26.1447 435.93 25.3044 435.93 21.8213V17.8076C435.93 15.4911 437.209 13.9265 439.819 13.9265C441.386 13.9265 442.317 14.4794 442.777 15.5353V9.71373H445.01V21.8213H445.015ZM438.162 17.3653V22.7004C438.162 24.5525 438.916 25.6969 440.461 25.6969C442.007 25.6969 442.783 24.5525 442.783 22.7004V17.3653C442.783 15.5132 441.724 14.5844 440.306 14.5844C438.888 14.5844 438.162 15.5132 438.162 17.3653Z" fill="white"/>
<path d="M449.319 19.8366V22.7059C449.319 24.558 450.072 25.7024 451.618 25.7024C453.163 25.7024 453.939 24.558 453.939 23.3638V21.8213H456.171V22.4848C456.171 25.3099 454.781 26.1447 451.618 26.1447C448.454 26.1447 447.086 25.3044 447.086 21.8213V18.2499C447.086 14.7669 448.454 13.9265 451.618 13.9265C454.781 13.9265 456.171 14.7669 456.171 17.5864V19.8366H449.319ZM453.939 19.3943V16.7019C453.939 15.5132 453.185 14.3633 451.618 14.3633C450.05 14.3633 449.319 15.5077 449.319 17.3598V19.3888H453.939V19.3943Z" fill="white"/>
<path d="M465.052 25.9236V17.3653C465.052 15.5132 464.299 14.3688 462.731 14.3688C461.163 14.3688 460.432 15.5132 460.432 17.3653V25.9236H458.199V18.2499C458.199 14.7669 459.568 13.9265 462.731 13.9265C465.894 13.9265 467.285 14.7669 467.285 18.2499V25.9236H465.052Z" fill="white"/>
<path d="M471.855 14.1421H475.744V14.5844H471.855V22.7004C471.855 24.5525 472.298 25.6969 472.935 25.6969C473.422 25.6969 473.971 25.1219 473.971 23.8006V22.7004H476.181V23.3638C476.181 25.3043 475.095 26.1447 472.913 26.1447C470.73 26.1447 469.622 25.3043 469.622 21.8213V14.5899H468.52V14.1477H469.622V10.5983H471.855V14.1477V14.1421Z" fill="white"/>
<path d="M478.904 10.3716C479.723 10.3716 480.361 11.0129 480.361 11.8035C480.361 12.5941 479.718 13.2576 478.904 13.2576C478.089 13.2576 477.469 12.6162 477.469 11.8035C477.469 10.9908 478.111 10.3716 478.904 10.3716ZM477.801 14.1421H480.034V25.918H477.801V14.1421Z" fill="white"/>
<path d="M488.867 25.9236V24.5359C488.401 25.5918 487.476 26.1447 485.909 26.1447C483.299 26.1447 482.02 24.5801 482.02 22.2636V18.2499C482.02 14.7669 483.388 13.9265 486.551 13.9265C489.714 13.9265 491.105 14.7669 491.105 18.2499V25.9236H488.872H488.867ZM488.867 22.7059V17.3708C488.867 15.5187 488.113 14.3743 486.546 14.3743C484.978 14.3743 484.247 15.5187 484.247 17.3708V22.7059C484.247 24.558 485 25.4868 486.391 25.4868C487.781 25.4868 488.867 24.558 488.867 22.7059Z" fill="white"/>
<path d="M493.395 25.9236V9.71373H495.627V25.9236H493.395Z" fill="white"/>
<path d="M510.697 25.9236L510.099 20.1683H505.279L504.681 25.9236H502.227L503.44 14.2582C503.817 10.7752 505.296 9.49258 507.683 9.49258C510.071 9.49258 511.55 10.7697 511.905 14.2582L513.118 25.9236H510.686H510.697ZM510.032 19.726L509.345 12.9314C509.146 11.0572 508.442 9.92934 507.667 9.92934C506.847 9.92934 506.188 11.118 506.01 12.9314L505.323 19.726H510.032Z" fill="white"/>
<path d="M521.299 16.5913C520.612 15.9721 519.798 15.6846 519.066 15.6846C518.052 15.6846 517.233 16.2817 517.233 17.3598V25.918H515V14.1421H517.233V16.1932C517.853 14.2969 519.798 13.6998 521.299 13.921V16.5913Z" fill="white"/>
<path d="M524.811 19.8366V22.7059C524.811 24.558 525.564 25.7024 527.11 25.7024C528.655 25.7024 529.431 24.558 529.431 23.3638V21.8213H531.664V22.4848C531.664 25.3099 530.273 26.1447 527.11 26.1447C523.946 26.1447 522.578 25.3044 522.578 21.8213V18.2499C522.578 14.7669 523.946 13.9265 527.11 13.9265C530.273 13.9265 531.664 14.7669 531.664 17.5864V19.8366H524.811ZM529.431 19.3943V16.7019C529.431 15.5132 528.678 14.3633 527.11 14.3633C525.542 14.3633 524.811 15.5077 524.811 17.3598V19.3888H529.431V19.3943Z" fill="white"/>
<path d="M540.457 25.9236V24.5359C539.991 25.5918 539.066 26.1447 537.498 26.1447C534.889 26.1447 533.609 24.5801 533.609 22.2636V18.2499C533.609 14.7669 534.978 13.9265 538.141 13.9265C541.304 13.9265 542.695 14.7669 542.695 18.2499V25.9236H540.462H540.457ZM540.457 22.7059V17.3708C540.457 15.5187 539.703 14.3743 538.135 14.3743C536.568 14.3743 535.836 15.5187 535.836 17.3708V22.7059C535.836 24.558 536.59 25.4868 537.98 25.4868C539.371 25.4868 540.457 24.558 540.457 22.7059Z" fill="white"/>
<path d="M546.881 21.8213V23.3638C546.881 24.5525 547.634 25.7024 549.18 25.7024C550.593 25.7024 551.457 24.7515 551.457 23.4965C551.457 19.9471 544.648 22.3742 544.648 17.6528C544.648 15.2036 546.482 13.9265 549.136 13.9265C551.989 13.9265 553.512 15.3805 553.512 17.5864V18.2499H551.28V16.7074C551.28 15.5187 550.748 14.3688 549.18 14.3688C547.79 14.3688 546.925 15.2976 546.925 16.6632C546.925 20.4116 553.734 18.0066 553.734 22.5511C553.734 24.9118 551.9 26.1447 549.18 26.1447C546.266 26.1447 544.648 24.6686 544.648 22.4848V21.8213H546.881Z" fill="white"/>
<path d="M400.275 52.7151H395.832V52.2728H407.189V52.7151H402.724V68.4827H400.269V52.7151H400.275Z" fill="white"/>
<path d="M405.355 60.809C405.355 57.326 406.724 56.4856 409.887 56.4856C413.05 56.4856 414.441 57.326 414.441 60.809V64.3804C414.441 67.8635 413.05 68.7038 409.887 68.7038C406.724 68.7038 405.355 67.8635 405.355 64.3804V60.809ZM412.208 65.265V59.9299C412.208 58.0778 411.455 56.9334 409.887 56.9334C408.319 56.9334 407.588 58.0778 407.588 59.9299V65.265C407.588 67.1171 408.341 68.2615 409.887 68.2615C411.433 68.2615 412.208 67.1171 412.208 65.265Z" fill="white"/>
<path d="M423.365 68.4827V59.9244C423.365 58.0723 422.611 56.9279 421.043 56.9279C419.476 56.9279 418.744 58.0723 418.744 59.9244V68.4827H416.512V60.809C416.512 57.326 417.88 56.4856 421.043 56.4856C424.207 56.4856 425.597 57.326 425.597 60.809V68.4827H423.365Z" fill="white"/>
<path d="M432.754 52.2728H437.989C441.479 52.2728 443.202 53.5499 443.202 57.0385V63.7004C443.202 67.1834 441.479 68.4882 437.989 68.4882H432.754V52.2784V52.2728ZM440.776 65.0439V55.7171C440.776 53.8429 439.845 52.7206 437.989 52.7206H435.203V68.0459H437.989C439.845 68.0459 440.776 66.9015 440.776 65.0494V65.0439Z" fill="white"/>
<path d="M454.472 64.3804C454.472 67.8635 453.082 68.7038 449.918 68.7038C446.755 68.7038 445.387 67.8635 445.387 64.3804V56.7068H447.619V65.265C447.619 67.1171 448.373 68.2615 449.918 68.2615C451.464 68.2615 452.24 67.1171 452.24 65.265V56.7068H454.472V64.3804Z" fill="white"/>
<path d="M463.396 60.809V59.2665C463.396 58.0778 462.642 56.9279 461.075 56.9279C459.507 56.9279 458.776 58.0723 458.776 59.9244V65.2595C458.776 67.1116 459.529 68.256 461.075 68.256C462.62 68.256 463.396 67.1116 463.396 65.9174V64.3749H465.628V65.0383C465.628 67.8635 464.238 68.6983 461.075 68.6983C457.911 68.6983 456.543 67.8579 456.543 64.3749V60.8034C456.543 57.3204 457.911 56.4801 461.075 56.4801C464.238 56.4801 465.628 57.3204 465.628 60.14V60.8034H463.396V60.809Z" fill="white"/>
<path d="M475.502 52.7151H471.059V52.2728H482.415V52.7151H477.95V68.4827H475.496V52.7151H475.502Z" fill="white"/>
<path d="M490.31 68.4827V59.9244C490.31 58.0723 489.556 57.1435 488.144 57.1435C486.731 57.1435 485.69 58.0723 485.69 59.9244V68.4827H483.457V52.2728H485.69V58.0944C486.155 57.0385 487.08 56.4856 488.648 56.4856C491.235 56.4856 492.537 58.0502 492.537 60.3667V68.4827H490.304H490.31Z" fill="white"/>
<path d="M501.461 68.4827V67.095C500.995 68.1509 500.07 68.7038 498.502 68.7038C495.893 68.7038 494.613 67.1392 494.613 64.8227V60.809C494.613 57.326 495.982 56.4856 499.145 56.4856C502.308 56.4856 503.699 57.326 503.699 60.809V68.4827H501.466H501.461ZM501.461 65.265V59.9299C501.461 58.0778 500.707 56.9334 499.139 56.9334C497.572 56.9334 496.84 58.0778 496.84 59.9299V65.265C496.84 67.1171 497.594 68.0459 498.984 68.0459C500.375 68.0459 501.461 67.1171 501.461 65.265Z" fill="white"/>
<path d="M512.728 68.4827V59.9244C512.728 58.0723 511.974 56.9279 510.407 56.9279C508.839 56.9279 508.108 58.0723 508.108 59.9244V68.4827H505.875V60.809C505.875 57.326 507.243 56.4856 510.407 56.4856C513.57 56.4856 514.96 57.326 514.96 60.809V68.4827H512.728Z" fill="white"/>
<path d="M519.274 69.4723V70.8157C519.274 72.0044 520.027 72.4688 521.573 72.4688C523.119 72.4688 523.894 71.3465 523.894 69.4667V67.0839C523.429 68.1399 522.504 68.6927 520.936 68.6927C518.327 68.6927 517.047 67.1281 517.047 64.8117V60.7979C517.047 57.3149 518.415 56.4745 521.579 56.4745C524.742 56.4745 526.132 57.3149 526.132 60.7979V68.5822C526.132 72.0652 524.742 72.9055 521.579 72.9055C518.415 72.9055 517.047 72.7286 517.047 69.9035V69.4612H519.279L519.274 69.4723ZM523.894 65.2595V59.9244C523.894 58.0723 523.141 56.9279 521.573 56.9279C520.005 56.9279 519.274 58.0723 519.274 59.9244V65.2595C519.274 67.1116 520.027 68.0404 521.418 68.0404C522.808 68.0404 523.894 67.1116 523.894 65.2595Z" fill="white"/>
<path d="M543.644 63.916C543.644 67.399 541.921 68.7038 538.431 68.7038C534.94 68.7038 533.195 67.4046 533.195 63.916V52.2728H535.649V65.265C535.649 67.1171 536.553 68.2615 538.436 68.2615C540.32 68.2615 541.223 67.1171 541.223 65.265V52.2728H543.655V63.916H543.644Z" fill="white"/>
<path d="M552.81 68.4827V59.9244C552.81 58.0723 552.056 56.9279 550.489 56.9279C548.921 56.9279 548.19 58.0723 548.19 59.9244V68.4827H545.957V60.809C545.957 57.326 547.325 56.4856 550.489 56.4856C553.652 56.4856 555.042 57.326 555.042 60.809V68.4827H552.81Z" fill="white"/>
<path d="M558.197 52.9362C559.016 52.9362 559.654 53.5776 559.654 54.3682C559.654 55.1587 559.011 55.8222 558.197 55.8222C557.382 55.8222 556.762 55.1809 556.762 54.3682C556.762 53.5554 557.404 52.9362 558.197 52.9362ZM557.094 56.7067H559.327V68.4826H557.094V56.7067Z" fill="white"/>
<path d="M569.448 64.3804C569.005 67.8413 567.946 68.7038 565.692 68.7038C563.437 68.7038 562.357 67.8413 561.913 64.3804L560.922 56.7068H563.177L564.262 65.265C564.506 67.1171 565.016 68.2615 565.697 68.2615C566.379 68.2615 566.866 67.1171 567.11 65.265L568.196 56.7068H570.45L569.453 64.3804H569.448Z" fill="white"/>
<path d="M574.283 62.3957V65.265C574.283 67.1171 575.037 68.2615 576.582 68.2615C578.128 68.2615 578.904 67.1171 578.904 65.9229V64.3804H581.136V65.0439C581.136 67.869 579.746 68.7038 576.582 68.7038C573.419 68.7038 572.051 67.8635 572.051 64.3804V60.809C572.051 57.326 573.419 56.4856 576.582 56.4856C579.746 56.4856 581.136 57.326 581.136 60.1455V62.3957H574.283ZM578.904 61.9534V59.261C578.904 58.0723 578.15 56.9224 576.582 56.9224C575.015 56.9224 574.283 58.0668 574.283 59.9189V61.9479H578.904V61.9534Z" fill="white"/>
<path d="M589.572 59.1559C588.885 58.5367 588.071 58.2492 587.34 58.2492C586.326 58.2492 585.506 58.8463 585.506 59.9244V68.4827H583.273V56.7068H585.506V58.7579C586.126 56.8616 588.071 56.2645 589.572 56.4856V59.1559Z" fill="white"/>
<path d="M592.951 64.3804V65.9229C592.951 67.1116 593.705 68.2615 595.25 68.2615C596.663 68.2615 597.527 67.3106 597.527 66.0556C597.527 62.5062 590.719 64.9333 590.719 60.2119C590.719 57.7627 592.553 56.4856 595.206 56.4856C598.059 56.4856 599.583 57.9396 599.583 60.1455V60.809H597.35V59.2665C597.35 58.0778 596.818 56.9279 595.25 56.9279C593.86 56.9279 592.996 57.8567 592.996 59.2223C592.996 62.9707 599.804 60.5657 599.804 65.1102C599.804 67.4709 597.971 68.7038 595.25 68.7038C592.331 68.7038 590.719 67.2277 590.719 65.0439V64.3804H592.951Z" fill="white"/>
<path d="M602.669 52.9362C603.489 52.9362 604.126 53.5776 604.126 54.3682C604.126 55.1587 603.484 55.8222 602.669 55.8222C601.855 55.8222 601.234 55.1809 601.234 54.3682C601.234 53.5554 601.877 52.9362 602.669 52.9362ZM601.567 56.7067H603.799V68.4826H601.567V56.7067Z" fill="white"/>
<path d="M608.723 56.7068H612.612V57.149H608.723V65.265C608.723 67.1171 609.167 68.2615 609.804 68.2615C610.291 68.2615 610.84 67.6865 610.84 66.3652V65.265H613.05V65.9284C613.05 67.869 611.964 68.7093 609.781 68.7093C607.599 68.7093 606.491 67.869 606.491 64.386V57.1546H605.383V56.7123H606.491V53.1629H608.723V56.7123V56.7068Z" fill="white"/>
<path d="M623.216 68.5932C623.216 72.0762 621.826 72.9166 619.106 72.9166C615.948 72.9166 614.574 72.7397 614.574 69.9146V69.4723H616.807V70.8157C616.807 72.0044 617.56 72.4688 619.106 72.4688C620.23 72.4688 620.984 71.3465 620.984 69.4667V67.0839C620.518 68.1399 619.815 68.6927 618.33 68.6927C615.854 68.6927 614.574 67.1281 614.574 64.8117V56.6957H616.807V65.254C616.807 67.106 617.56 68.0348 618.84 68.0348C620.12 68.0348 620.984 67.106 620.984 65.254V56.6957H623.216V68.5822V68.5932Z" fill="white"/>
<path d="M397.316 92.7089H399.771V100.25H405.338V92.7089H407.77V108.919H405.338V100.692H399.771V108.919H397.316V92.7089Z" fill="white"/>
<path d="M410.109 101.245C410.109 97.7621 411.478 96.9217 414.641 96.9217C417.804 96.9217 419.195 97.7621 419.195 101.245V104.817C419.195 108.3 417.804 109.14 414.641 109.14C411.478 109.14 410.109 108.3 410.109 104.817V101.245ZM416.962 105.701V100.366C416.962 98.5139 416.209 97.3695 414.641 97.3695C413.073 97.3695 412.342 98.5139 412.342 100.366V105.701C412.342 107.553 413.095 108.698 414.641 108.698C416.187 108.698 416.962 107.553 416.962 105.701Z" fill="white"/>
<path d="M423.276 104.817V106.359C423.276 107.548 424.029 108.698 425.575 108.698C426.987 108.698 427.852 107.747 427.852 106.492C427.852 102.942 421.043 105.369 421.043 100.648C421.043 98.1988 422.877 96.9217 425.53 96.9217C428.383 96.9217 429.907 98.3757 429.907 100.582V101.245H427.674V99.7026C427.674 98.5139 427.142 97.364 425.575 97.364C424.184 97.364 423.32 98.2928 423.32 99.6584C423.32 103.407 430.128 101.002 430.128 105.546C430.128 107.907 428.295 109.14 425.575 109.14C422.655 109.14 421.043 107.664 421.043 105.48V104.817H423.276Z" fill="white"/>
<path d="M432.023 101.245C432.023 97.7621 433.392 96.9217 436.555 96.9217C439.718 96.9217 441.109 97.7621 441.109 101.245V105.259C441.109 107.575 439.807 109.14 437.22 109.14C435.652 109.14 434.721 108.587 434.262 107.531V113.353H432.029V101.245H432.023ZM438.876 105.701V100.366C438.876 98.5139 438.123 97.3695 436.555 97.3695C434.987 97.3695 434.256 98.5139 434.256 100.366V105.701C434.256 107.553 435.314 108.482 436.71 108.482C438.106 108.482 438.876 107.553 438.876 105.701Z" fill="white"/>
<path d="M444.197 93.3724C445.016 93.3724 445.654 94.0137 445.654 94.8043C445.654 95.5949 445.011 96.2583 444.197 96.2583C443.382 96.2583 442.762 95.617 442.762 94.8043C442.762 93.9916 443.404 93.3724 444.197 93.3724ZM443.094 97.1429H445.327V108.919H443.094V97.1429Z" fill="white"/>
<path d="M450.249 97.1429H454.138V97.5851H450.249V105.701C450.249 107.553 450.692 108.698 451.329 108.698C451.817 108.698 452.365 108.123 452.365 106.801V105.701H454.576V106.365C454.576 108.305 453.49 109.145 451.307 109.145C449.124 109.145 448.016 108.305 448.016 104.822V97.5907H446.914V97.1484H448.016V93.599H450.249V97.1484V97.1429Z" fill="white"/>
<path d="M462.863 108.919V107.531C462.398 108.587 461.472 109.14 459.905 109.14C457.295 109.14 456.016 107.575 456.016 105.259V101.245C456.016 97.7621 457.384 96.9217 460.547 96.9217C463.711 96.9217 465.101 97.7621 465.101 101.245V108.919H462.868H462.863ZM462.863 105.701V100.366C462.863 98.5139 462.109 97.3695 460.542 97.3695C458.974 97.3695 458.243 98.5139 458.243 100.366V105.701C458.243 107.553 458.996 108.482 460.387 108.482C461.777 108.482 462.863 107.553 462.863 105.701Z" fill="white"/>
<path d="M467.395 108.919V92.7089H469.627V108.919H467.395Z" fill="white"/>
<path d="M355.703 104.369C350.18 96.9659 354.872 86.1188 364.101 85.5162C364.362 85.4996 364.622 85.4886 364.882 85.4886C365.143 85.4886 365.398 85.4886 365.652 85.5052C374.86 85.9751 379.668 96.7393 374.234 104.17L364.988 116.808L355.703 104.369Z" fill="#2D8EC9"/>
<path d="M366.491 98.4089L369.571 98.5913C369.427 99.9348 368.928 100.963 368.081 101.682C367.233 102.401 366.186 102.754 364.951 102.754C363.461 102.754 362.258 102.262 361.339 101.278C360.425 100.294 359.965 98.9341 359.965 97.2037C359.965 95.4732 360.397 94.1021 361.267 93.0462C362.137 91.9902 363.344 91.465 364.901 91.465C366.352 91.465 367.471 91.8686 368.253 92.6702C369.034 93.4719 369.471 94.5389 369.577 95.8657L366.43 96.0316C366.43 95.2963 366.291 94.7711 366.009 94.4449C365.726 94.1187 365.394 93.9529 365.017 93.9529C363.954 93.9529 363.427 95.0199 363.427 97.1484C363.427 98.3426 363.566 99.1497 363.843 99.581C364.12 100.007 364.508 100.222 365.006 100.222C365.898 100.222 366.397 99.6197 366.502 98.4089H366.491Z" fill="white"/>
<path d="M2.68131 3.6544H0V3.20658H5.1798V19.726H2.68131V3.6544Z" fill="white"/>
<path d="M7.04688 18.2388C7.04688 17.4316 7.70058 16.7793 8.50941 16.7793C9.31823 16.7793 9.9941 17.4316 9.9941 18.2388C9.9941 19.046 9.34039 19.7205 8.50941 19.7205C7.67842 19.7205 7.04688 19.0681 7.04688 18.2388Z" fill="white"/>
<path d="M59.0508 3.20658H61.5493L66.6848 18.9631L71.8424 3.20658H74.3409V19.726H71.8424V4.71036L66.9341 19.7205H66.441L61.5548 4.71036V19.7205H59.0563V3.20658H59.0508Z" fill="white"/>
<path d="M83.6873 19.726V18.3107C83.2164 19.3888 82.2691 19.9527 80.6681 19.9527C78.0089 19.9527 76.707 18.3549 76.707 15.9997V11.9086C76.707 8.35923 78.1031 7.5023 81.3218 7.5023C84.5404 7.5023 85.9587 8.3537 85.9587 11.9086V19.7315H83.6818L83.6873 19.726ZM83.6873 16.4476V11.0074C83.6873 9.12217 82.9228 7.95011 81.3218 7.95011C79.7207 7.95011 78.9784 9.11664 78.9784 11.0074V16.4476C78.9784 18.3328 79.7429 19.2782 81.1611 19.2782C82.5793 19.2782 83.6818 18.3328 83.6818 16.4476H83.6873Z" fill="white"/>
<path d="M89.2047 3.88107C90.0357 3.88107 90.6894 4.53345 90.6894 5.34062C90.6894 6.1478 90.0357 6.82228 89.2047 6.82228C88.3737 6.82228 87.7422 6.16991 87.7422 5.34062C87.7422 4.51133 88.3959 3.88107 89.2047 3.88107ZM88.0801 7.72344H90.357V19.726H88.0801V7.72344Z" fill="white"/>
<path d="M99.4233 19.726V11.0074C99.4233 9.12217 98.6588 7.95011 97.0578 7.95011C95.4567 7.95011 94.7144 9.11664 94.7144 11.0074V19.726H92.4375V11.9031C92.4375 8.3537 93.8336 7.49677 97.0522 7.49677C100.271 7.49677 101.689 8.34817 101.689 11.9031V19.726H99.4122H99.4233Z" fill="white"/>
<path d="M110.799 15.5464V17.122C110.799 18.3383 111.563 19.5049 113.142 19.5049C114.582 19.5049 115.463 18.5374 115.463 17.2603C115.463 13.6446 108.527 16.1158 108.527 11.306C108.527 8.81258 110.394 7.50783 113.098 7.50783C116.001 7.50783 117.557 8.98949 117.557 11.2396V11.9141H115.28V10.3385C115.28 9.12218 114.738 7.95564 113.142 7.95564C111.724 7.95564 110.843 8.90103 110.843 10.2942C110.843 14.1145 117.779 11.6653 117.779 16.2928C117.779 18.6977 115.912 19.9582 113.142 19.9582C110.167 19.9582 108.527 18.4544 108.527 16.2264V15.5519H110.804L110.799 15.5464Z" fill="white"/>
<path d="M122.212 7.72344H126.173V8.17126H122.212V16.442C122.212 18.3273 122.66 19.4993 123.314 19.4993C123.807 19.4993 124.372 18.9133 124.372 17.5643V16.442H126.621V17.1165C126.621 19.0958 125.519 19.9472 123.286 19.9472C121.054 19.9472 119.929 19.0958 119.929 15.5409V8.17126H118.805V7.72344H119.929V4.10774H122.206V7.72344H122.212Z" fill="white"/>
<path d="M135.066 19.726V18.3107C134.595 19.3888 133.648 19.9527 132.047 19.9527C129.388 19.9527 128.086 18.3549 128.086 15.9997V11.9086C128.086 8.35923 129.482 7.5023 132.701 7.5023C135.919 7.5023 137.338 8.3537 137.338 11.9086V19.7315H135.061L135.066 19.726ZM135.066 16.4476V11.0074C135.066 9.12217 134.302 7.95011 132.701 7.95011C131.1 7.95011 130.357 9.11664 130.357 11.0074V16.4476C130.357 18.3328 131.122 19.2782 132.54 19.2782C133.958 19.2782 135.061 18.3328 135.061 16.4476H135.066Z" fill="white"/>
<path d="M141.756 20.7377V22.1088C141.756 23.3251 142.52 23.7951 144.099 23.7951C145.678 23.7951 146.465 22.6506 146.465 20.7377V18.3107C145.994 19.3888 145.046 19.9527 143.445 19.9527C140.786 19.9527 139.484 18.3549 139.484 15.9997V11.9086C139.484 8.35923 140.88 7.5023 144.099 7.5023C147.318 7.5023 148.736 8.3537 148.736 11.9086V19.8421C148.736 23.3915 147.318 24.2484 144.099 24.2484C140.88 24.2484 139.484 24.066 139.484 21.1911V20.7433H141.761L141.756 20.7377ZM146.465 16.4476V11.0074C146.465 9.12217 145.7 7.95011 144.099 7.95011C142.498 7.95011 141.756 9.11664 141.756 11.0074V16.4476C141.756 18.3328 142.52 19.2782 143.938 19.2782C145.357 19.2782 146.459 18.3328 146.459 16.4476H146.465Z" fill="white"/>
<path d="M153.149 13.5229V16.442C153.149 18.3273 153.913 19.4993 155.492 19.4993C157.071 19.4993 157.858 18.3328 157.858 17.1165V15.5409H160.134V16.2154C160.134 19.0902 158.716 19.9472 155.498 19.9472C152.279 19.9472 150.883 19.0958 150.883 15.5409V11.8975C150.883 8.34817 152.279 7.49124 155.498 7.49124C158.716 7.49124 160.134 8.34264 160.134 11.223V13.5174H153.154L153.149 13.5229ZM157.858 13.0751V10.3329C157.858 9.11665 157.093 7.95011 155.492 7.95011C153.891 7.95011 153.149 9.11665 153.149 11.0074V13.0751H157.858Z" fill="white"/>
<path d="M11.4384 44.6434V46.6889H0.71875C0.763069 40.309 8.89563 37.6773 8.89563 33.0278C8.89563 32.2206 8.64634 30.3962 6.14785 30.3962C4.1424 30.3962 3.44438 31.5406 3.44438 33.4535V35.6318H0.945886V34.8025C0.945886 31.2531 2.49706 29.9484 5.78775 29.9484C9.3222 29.9484 11.372 31.4743 11.372 33.9953C11.372 38.8936 3.58288 40.6241 1.48326 44.6489H11.4384V44.6434Z" fill="white"/>
<path d="M12.9023 45.2073C12.9023 44.4001 13.5561 43.7477 14.3649 43.7477C15.1737 43.7477 15.8496 44.4001 15.8496 45.2073C15.8496 46.0144 15.1959 46.6889 14.3649 46.6889C13.5339 46.6889 12.9023 46.0366 12.9023 45.2073Z" fill="white"/>
<path d="M59.0508 30.1695H61.5493V37.8543H67.2221V30.1695H69.6985V46.6889H67.2221V38.3076H61.5493V46.6889H59.0508V30.1695Z" fill="white"/>
<path d="M74.3635 40.4859V43.405C74.3635 45.2902 75.128 46.4623 76.7069 46.4623C78.2857 46.4623 79.0724 45.2957 79.0724 44.0795V42.5038H81.3493V43.1783C81.3493 46.0532 79.9311 46.9101 76.7124 46.9101C73.4937 46.9101 72.0977 46.0587 72.0977 42.5038V38.8605C72.0977 35.3111 73.4937 34.4542 76.7124 34.4542C79.9311 34.4542 81.3493 35.3056 81.3493 38.186V40.4803H74.369L74.3635 40.4859ZM79.0724 40.0381V37.2959C79.0724 36.0796 78.3079 34.9131 76.7069 34.9131C75.1058 34.9131 74.3635 36.0796 74.3635 37.9704V40.0381H79.0724Z" fill="white"/>
<path d="M90.3045 46.6889V45.2736C89.8336 46.3517 88.8863 46.9156 87.2852 46.9156C84.6261 46.9156 83.3242 45.3179 83.3242 42.9627V38.8715C83.3242 35.3222 84.7203 34.4652 87.939 34.4652C91.1576 34.4652 92.5758 35.3166 92.5758 38.8715V46.6945H90.2989L90.3045 46.6889ZM90.3045 43.4105V37.9704C90.3045 36.0851 89.54 34.913 87.939 34.913C86.3379 34.913 85.5956 36.0796 85.5956 37.9704V43.4105C85.5956 45.2957 86.3601 46.2411 87.7783 46.2411C89.1965 46.2411 90.2989 45.2957 90.2989 43.4105H90.3045Z" fill="white"/>
<path d="M94.9219 46.6889V30.1695H97.1988V46.6889H94.9219Z" fill="white"/>
<path d="M102.239 34.6919H106.2V35.1397H102.239V43.4105C102.239 45.2957 102.688 46.4678 103.342 46.4678C103.835 46.4678 104.4 45.8818 104.4 44.5328V43.4105H106.649V44.085C106.649 46.0642 105.546 46.9156 103.314 46.9156C101.081 46.9156 99.9566 46.0642 99.9566 42.5093V35.1397H98.832V34.6919H99.9566V31.0762H102.234V34.6919H102.239Z" fill="white"/>
<path d="M115.297 46.6889V37.9704C115.297 36.0851 114.532 35.1397 113.092 35.1397C111.651 35.1397 110.593 36.0851 110.593 37.9704V46.6889H108.316V30.1695H110.593V36.1017C111.064 35.0236 112.012 34.4597 113.613 34.4597C116.25 34.4597 117.574 36.0575 117.574 38.4126V46.6834H115.297V46.6889Z" fill="white"/>
<path d="M126.67 38.8715V37.2959C126.67 36.0796 125.906 34.913 124.305 34.913C122.703 34.913 121.961 36.0796 121.961 37.9704V43.4105C121.961 45.2957 122.726 46.4678 124.305 46.4678C125.883 46.4678 126.67 45.3013 126.67 44.085V42.5093H128.947V43.1838C128.947 46.0587 127.529 46.9156 124.31 46.9156C121.091 46.9156 119.695 46.0642 119.695 42.5093V38.866C119.695 35.3166 121.091 34.4597 124.31 34.4597C127.529 34.4597 128.947 35.3111 128.947 38.1915V38.866H126.67V38.8715Z" fill="white"/>
<path d="M137.793 46.6889V45.2736C137.322 46.3517 136.375 46.9156 134.774 46.9156C132.114 46.9156 130.812 45.3179 130.812 42.9627V38.8715C130.812 35.3222 132.209 34.4652 135.427 34.4652C138.646 34.4652 140.064 35.3166 140.064 38.8715V46.6945H137.787L137.793 46.6889ZM137.793 43.4105V37.9704C137.793 36.0851 137.028 34.913 135.427 34.913C133.826 34.913 133.084 36.0796 133.084 37.9704V43.4105C133.084 45.2957 133.848 46.2411 135.267 46.2411C136.685 46.2411 137.787 45.2957 137.787 43.4105H137.793Z" fill="white"/>
<path d="M148.831 37.1853C148.133 36.555 147.302 36.262 146.554 36.262C145.518 36.262 144.687 36.8702 144.687 37.9704V46.6889H142.41V34.6864H144.687V36.7762C145.319 34.8412 147.302 34.2386 148.831 34.4597V37.1798V37.1853Z" fill="white"/>
<path d="M152.406 40.4859V43.405C152.406 45.2902 153.171 46.4623 154.75 46.4623C156.329 46.4623 157.115 45.2957 157.115 44.0795V42.5038H159.392V43.1783C159.392 46.0532 157.974 46.9101 154.755 46.9101C151.537 46.9101 150.141 46.0587 150.141 42.5038V38.8605C150.141 35.3111 151.537 34.4542 154.755 34.4542C157.974 34.4542 159.392 35.3056 159.392 38.186V40.4803H152.412L152.406 40.4859ZM157.115 40.0381V37.2959C157.115 36.0796 156.351 34.9131 154.75 34.9131C153.149 34.9131 152.406 36.0796 152.406 37.9704V40.0381H157.115Z" fill="white"/>
<path d="M175.466 42.5093C175.466 46.0587 174.048 46.9156 170.83 46.9156C167.611 46.9156 166.215 46.0642 166.215 42.5093V38.4182C166.215 36.0575 167.522 34.4652 170.176 34.4652C171.777 34.4652 172.719 35.0291 173.195 36.1072V30.175H175.472V42.5149L175.466 42.5093ZM168.486 37.9704V43.4105C168.486 45.2957 169.251 46.4678 170.83 46.4678C172.408 46.4678 173.195 45.3013 173.195 43.4105V37.9704C173.195 36.0851 172.115 35.1397 170.674 35.1397C169.234 35.1397 168.492 36.0851 168.492 37.9704H168.486Z" fill="white"/>
<path d="M179.852 40.4859V43.405C179.852 45.2902 180.616 46.4623 182.195 46.4623C183.774 46.4623 184.561 45.2957 184.561 44.0795V42.5038H186.838V43.1783C186.838 46.0532 185.419 46.9101 182.201 46.9101C178.982 46.9101 177.586 46.0587 177.586 42.5038V38.8605C177.586 35.3111 178.982 34.4542 182.201 34.4542C185.419 34.4542 186.838 35.3056 186.838 38.186V40.4803H179.857L179.852 40.4859ZM184.561 40.0381V37.2959C184.561 36.0796 183.796 34.9131 182.195 34.9131C180.594 34.9131 179.852 36.0796 179.852 37.9704V40.0381H184.561Z" fill="white"/>
<path d="M188.927 38.8715C188.927 35.3222 190.323 34.4652 193.542 34.4652C196.761 34.4652 198.179 35.3166 198.179 38.8715V42.9627C198.179 45.3234 196.849 46.9156 194.218 46.9156C192.617 46.9156 191.675 46.3517 191.199 45.2736V51.2058H188.922V38.866L188.927 38.8715ZM195.908 43.4105V37.9704C195.908 36.0851 195.143 34.913 193.542 34.913C191.941 34.913 191.199 36.0796 191.199 37.9704V43.4105C191.199 45.2957 192.279 46.2411 193.697 46.2411C195.115 46.2411 195.902 45.2957 195.902 43.4105H195.908Z" fill="white"/>
<path d="M207.191 46.6889V45.2736C206.72 46.3517 205.773 46.9156 204.172 46.9156C201.513 46.9156 200.211 45.3179 200.211 42.9627V38.8715C200.211 35.3222 201.607 34.4652 204.826 34.4652C208.044 34.4652 209.463 35.3166 209.463 38.8715V46.6945H207.186L207.191 46.6889ZM207.191 43.4105V37.9704C207.191 36.0851 206.427 34.913 204.826 34.913C203.225 34.913 202.482 36.0796 202.482 37.9704V43.4105C202.482 45.2957 203.247 46.2411 204.665 46.2411C206.083 46.2411 207.186 45.2957 207.186 43.4105H207.191Z" fill="white"/>
<path d="M218.229 37.1853C217.531 36.555 216.7 36.262 215.952 36.262C214.916 36.262 214.085 36.8702 214.085 37.9704V46.6889H211.809V34.6864H214.085V36.7762C214.717 34.8412 216.7 34.2386 218.229 34.4597V37.1798V37.1853Z" fill="white"/>
<path d="M222.345 34.6919H226.306V35.1397H222.345V43.4105C222.345 45.2957 222.793 46.4678 223.447 46.4678C223.94 46.4678 224.505 45.8818 224.505 44.5328V43.4105H226.754V44.085C226.754 46.0642 225.652 46.9156 223.419 46.9156C221.187 46.9156 220.062 46.0642 220.062 42.5093V35.1397H218.938V34.6919H220.062V31.0762H222.339V34.6919H222.345Z" fill="white"/>
<path d="M234.572 46.6889V37.9704C234.572 36.0851 233.94 34.913 232.588 34.913C231.237 34.913 230.605 36.0796 230.605 37.9704V46.6889H228.328V38.866C228.328 35.3166 229.613 34.4597 232.317 34.4597C233.984 34.4597 235.175 34.7748 235.696 36.1459C236.123 34.7748 237.43 34.4597 239.076 34.4597C241.779 34.4597 243.086 35.3111 243.086 38.866V46.6889H240.81V37.9704C240.81 36.0851 240.178 34.913 238.826 34.913C237.474 34.913 236.843 36.0796 236.843 37.9704V46.6889H234.566H234.572Z" fill="white"/>
<path d="M247.496 40.4859V43.405C247.496 45.2902 248.261 46.4623 249.84 46.4623C251.419 46.4623 252.205 45.2957 252.205 44.0795V42.5038H254.482V43.1783C254.482 46.0532 253.064 46.9101 249.845 46.9101C246.627 46.9101 245.23 46.0587 245.23 42.5038V38.8605C245.23 35.3111 246.627 34.4542 249.845 34.4542C253.064 34.4542 254.482 35.3056 254.482 38.186V40.4803H247.502L247.496 40.4859ZM252.205 40.0381V37.2959C252.205 36.0796 251.441 34.9131 249.84 34.9131C248.239 34.9131 247.496 36.0796 247.496 37.9704V40.0381H252.205Z" fill="white"/>
<path d="M263.529 46.6889V37.9704C263.529 36.0851 262.764 34.913 261.163 34.913C259.562 34.913 258.82 36.0796 258.82 37.9704V46.6889H256.543V38.866C256.543 35.3166 257.939 34.4597 261.158 34.4597C264.376 34.4597 265.795 35.3111 265.795 38.866V46.6889H263.518H263.529Z" fill="white"/>
<path d="M270.462 34.6919H274.423V35.1397H270.462V43.4105C270.462 45.2957 270.91 46.4678 271.564 46.4678C272.057 46.4678 272.622 45.8818 272.622 44.5328V43.4105H274.871V44.085C274.871 46.0642 273.769 46.9156 271.536 46.9156C269.304 46.9156 268.179 46.0642 268.179 42.5093V35.1397H267.055V34.6919H268.179V31.0762H270.456V34.6919H270.462Z" fill="white"/>
<path d="M3.35559 68.1731V70.3734C3.35559 72.1923 4.0093 73.4307 5.92056 73.4307C8.0368 73.4307 8.73483 71.9049 8.73483 69.6768C8.73483 66.4868 7.31662 65.2705 4.8846 65.2705V64.8227C7.31662 64.8227 8.73483 63.6341 8.73483 60.82C8.73483 58.8408 8.0368 57.3591 5.94272 57.3591C4.00376 57.3591 3.35559 58.5754 3.35559 60.4164V62.5947H0.851562V61.7654C0.851562 58.2603 2.81269 56.9113 6.03136 56.9113C9.25004 56.9113 11.2333 58.1276 11.2333 61.2015C11.2333 63.3355 10.1974 64.6182 8.52985 65.066C10.1309 65.5857 11.2333 66.9291 11.2333 69.2677C11.2333 72.6623 8.93427 73.873 5.96488 73.873C2.83484 73.873 0.851562 72.5019 0.851562 68.9968V68.1675H3.35005L3.35559 68.1731Z" fill="white"/>
<path d="M12.9258 72.1702C12.9258 71.363 13.5795 70.7107 14.3883 70.7107C15.1971 70.7107 15.873 71.363 15.873 72.1702C15.873 72.9774 15.2193 73.6519 14.3883 73.6519C13.5573 73.6519 12.9258 72.9995 12.9258 72.1702Z" fill="white"/>
<path d="M67.0229 62.6002V60.422C67.0229 58.5091 66.0756 57.3647 64.1865 57.3647C62.2974 57.3647 61.3501 58.5091 61.3501 60.422V70.379C61.3501 72.2642 62.2752 73.4363 64.1865 73.4363C66.0977 73.4363 67.0229 72.2697 67.0229 70.379V68.1786H69.4992V69.0079C69.4992 72.5572 67.7431 73.8841 64.1865 73.8841C60.6299 73.8841 58.8516 72.5572 58.8516 69.0079V61.7709C58.8516 58.2216 60.6299 56.9168 64.1865 56.9168C67.7431 56.9168 69.4992 58.2216 69.4992 61.7709V62.6002H67.0229Z" fill="white"/>
<path d="M78.3514 73.6574V72.2421C77.8805 73.3202 76.9331 73.8841 75.3321 73.8841C72.673 73.8841 71.3711 72.2863 71.3711 69.9311V65.84C71.3711 62.2906 72.7671 61.4337 75.9858 61.4337C79.2045 61.4337 80.6227 62.2851 80.6227 65.84V73.6629H78.3458L78.3514 73.6574ZM78.3514 70.379V64.9388C78.3514 63.0536 77.5869 61.8815 75.9858 61.8815C74.3848 61.8815 73.6424 63.048 73.6424 64.9388V70.379C73.6424 72.2642 74.407 73.2096 75.8252 73.2096C77.2434 73.2096 78.3458 72.2642 78.3458 70.379H78.3514Z" fill="white"/>
<path d="M89.1107 73.6574V64.9388C89.1107 63.0536 88.4791 61.8815 87.1274 61.8815C85.7756 61.8815 85.1441 63.048 85.1441 64.9388V73.6574H82.8672V65.8344C82.8672 62.2851 84.1524 61.4282 86.8559 61.4282C88.5234 61.4282 89.7145 61.7433 90.2352 63.1144C90.6618 61.7433 91.9692 61.4282 93.6146 61.4282C96.318 61.4282 97.6255 62.2796 97.6255 65.8344V73.6574H95.3486V64.9388C95.3486 63.0536 94.717 61.8815 93.3653 61.8815C92.0135 61.8815 91.382 63.048 91.382 64.9388V73.6574H89.1051H89.1107Z" fill="white"/>
<path d="M99.8727 65.8344C99.8727 62.2851 101.269 61.4282 104.487 61.4282C107.706 61.4282 109.124 62.2796 109.124 65.8344V69.9256C109.124 72.2863 107.795 73.8786 105.163 73.8786C103.562 73.8786 102.621 73.3146 102.144 72.2366V78.1687H99.8672V65.8289L99.8727 65.8344ZM106.853 70.3734V64.9333C106.853 63.048 106.088 61.876 104.487 61.876C102.886 61.876 102.144 63.0425 102.144 64.9333V70.3734C102.144 72.2587 103.224 73.2041 104.643 73.2041C106.061 73.2041 106.847 72.2587 106.847 70.3734H106.853Z" fill="white"/>
<path d="M112.283 57.8125C113.114 57.8125 113.768 58.4648 113.768 59.272C113.768 60.0792 113.114 60.7537 112.283 60.7537C111.452 60.7537 110.82 60.1013 110.82 59.272C110.82 58.4427 111.474 57.8125 112.283 57.8125ZM111.158 61.6548H113.435V73.6574H111.158V61.6548Z" fill="white"/>
<path d="M122.505 73.6574V64.9388C122.505 63.0536 121.741 61.8815 120.14 61.8815C118.539 61.8815 117.796 63.048 117.796 64.9388V73.6574H115.52V65.8344C115.52 62.2851 116.916 61.4282 120.134 61.4282C123.353 61.4282 124.771 62.2796 124.771 65.8344V73.6574H122.494H122.505Z" fill="white"/>
<path d="M129.17 74.6691V76.0402C129.17 77.2565 129.934 77.7265 131.513 77.7265C133.092 77.7265 133.879 76.582 133.879 74.6691V72.2421C133.408 73.3202 132.46 73.8841 130.859 73.8841C128.2 73.8841 126.898 72.2863 126.898 69.9311V65.84C126.898 62.2906 128.294 61.4337 131.513 61.4337C134.732 61.4337 136.15 62.2851 136.15 65.84V73.7735C136.15 77.3229 134.732 78.1798 131.513 78.1798C128.294 78.1798 126.898 77.9974 126.898 75.1225V74.6747H129.175L129.17 74.6691ZM133.879 70.379V64.9388C133.879 63.0536 133.114 61.8815 131.513 61.8815C129.912 61.8815 129.17 63.048 129.17 64.9388V70.379C129.17 72.2642 129.934 73.2096 131.353 73.2096C132.771 73.2096 133.873 72.2642 133.873 70.379H133.879Z" fill="white"/>
<path d="M150.109 73.6574V72.2421C149.638 73.3202 148.691 73.8841 147.09 73.8841C144.431 73.8841 143.129 72.2863 143.129 69.9311V65.84C143.129 62.2906 144.525 61.4337 147.744 61.4337C150.962 61.4337 152.381 62.2851 152.381 65.84V73.6629H150.104L150.109 73.6574ZM150.109 70.379V64.9388C150.109 63.0536 149.345 61.8815 147.744 61.8815C146.143 61.8815 145.4 63.048 145.4 64.9388V70.379C145.4 72.2642 146.165 73.2096 147.583 73.2096C149.001 73.2096 150.104 72.2642 150.104 70.379H150.109Z" fill="white"/>
<path d="M161.143 64.1482C160.445 63.518 159.614 63.225 158.866 63.225C157.831 63.225 157 63.8331 157 64.9333V73.6519H154.723V61.6493H157V63.7391C157.631 61.8041 159.614 61.2015 161.143 61.4226V64.1427V64.1482Z" fill="white"/>
<path d="M164.723 67.4543V70.3734C164.723 72.2587 165.487 73.4307 167.066 73.4307C168.645 73.4307 169.432 72.2642 169.432 71.0479V69.4723H171.709V70.1468C171.709 73.0216 170.29 73.8786 167.072 73.8786C163.853 73.8786 162.457 73.0272 162.457 69.4723V65.8289C162.457 62.2796 163.853 61.4226 167.072 61.4226C170.29 61.4226 171.709 62.274 171.709 65.1544V67.4488H164.728L164.723 67.4543ZM169.432 67.0065V64.2643C169.432 63.048 168.667 61.8815 167.066 61.8815C165.465 61.8815 164.723 63.048 164.723 64.9388V67.0065H169.432Z" fill="white"/>
<path d="M180.668 73.6574V72.2421C180.197 73.3202 179.25 73.8841 177.649 73.8841C174.989 73.8841 173.688 72.2863 173.688 69.9311V65.84C173.688 62.2906 175.084 61.4337 178.302 61.4337C181.521 61.4337 182.939 62.2851 182.939 65.84V73.6629H180.662L180.668 73.6574ZM180.668 70.379V64.9388C180.668 63.0536 179.903 61.8815 178.302 61.8815C176.701 61.8815 175.959 63.048 175.959 64.9388V70.379C175.959 72.2642 176.723 73.2096 178.142 73.2096C179.56 73.2096 180.662 72.2642 180.662 70.379H180.668Z" fill="white"/>
<path d="M7.20924 96.4628H0.40625V94.4173L7.20924 84.1009H9.70773V94.4173H11.1038V96.4628H9.70773V100.62H7.20924V96.4628ZM7.20924 94.4173V84.9136L0.94916 94.4173H7.20924Z" fill="white"/>
<path d="M12.5195 99.1387C12.5195 98.3315 13.1732 97.6791 13.9821 97.6791C14.7909 97.6791 15.4668 98.3315 15.4668 99.1387C15.4668 99.9459 14.813 100.62 13.9821 100.62C13.1511 100.62 12.5195 99.968 12.5195 99.1387Z" fill="white"/>
<path d="M69.658 100.62H67.1817V96.192C67.1817 93.4498 65.7413 92.239 63.3093 92.239H61.5532V100.62H59.0547V84.1009H65.3591C68.1069 84.1009 69.658 85.4278 69.658 88.1036C69.658 90.304 68.6221 91.5866 66.9546 92.0345C68.5556 92.5541 69.658 93.8976 69.658 96.3744V100.62ZM61.5532 91.7857H63.3093C65.7413 91.7857 67.1817 90.597 67.1817 88.17C67.1817 85.7429 65.7413 84.5543 63.3093 84.5543H61.5532V91.7912V91.7857Z" fill="white"/>
<path d="M74.0471 94.4173V97.3364C74.0471 99.2216 74.8116 100.394 76.3904 100.394C77.9693 100.394 78.756 99.2271 78.756 98.0109V96.4352H81.0329V97.1097C81.0329 99.9846 79.6147 100.841 76.396 100.841C73.1773 100.841 71.7812 99.9901 71.7812 96.4352V92.7919C71.7812 89.2425 73.1773 88.3856 76.396 88.3856C79.6147 88.3856 81.0329 89.237 81.0329 92.1174V94.4117H74.0526L74.0471 94.4173ZM78.756 93.9695V91.2273C78.756 90.011 77.9915 88.8444 76.3904 88.8444C74.7894 88.8444 74.0471 90.011 74.0471 91.9018V93.9695H78.756Z" fill="white"/>
<path d="M85.1464 96.4407V98.0164C85.1464 99.2327 85.9109 100.399 87.4897 100.399C88.9301 100.399 89.8109 99.4317 89.8109 98.1546C89.8109 94.5389 82.875 97.0102 82.875 92.2003C82.875 89.7069 84.7419 88.4022 87.4454 88.4022C90.3483 88.4022 91.905 89.8838 91.905 92.134V92.8084H89.6281V91.2328C89.6281 90.0165 89.0852 88.85 87.4897 88.85C86.0715 88.85 85.1907 89.7954 85.1907 91.1886C85.1907 95.0088 92.1266 92.5597 92.1266 97.1871C92.1266 99.592 90.2597 100.853 87.4897 100.853C84.5148 100.853 82.875 99.3488 82.875 97.1208V96.4463H85.1519L85.1464 96.4407Z" fill="white"/>
<path d="M96.5672 88.6233H100.528V89.0711H96.5672V97.3419C96.5672 99.2271 97.0159 100.399 97.6696 100.399C98.1627 100.399 98.7278 99.8132 98.7278 98.4642V97.3419H100.977V98.0164C100.977 99.9956 99.8745 100.847 97.6419 100.847C95.4094 100.847 94.2848 99.9956 94.2848 96.4407V89.0711H93.1602V88.6233H94.2848V85.0076H96.5617V88.6233H96.5672Z" fill="white"/>
<path d="M109.065 91.1167C108.367 90.4864 107.536 90.1934 106.788 90.1934C105.752 90.1934 104.921 90.8016 104.921 91.9017V100.62H102.645V88.6178H104.921V90.7076C105.553 88.7726 107.536 88.17 109.065 88.3911V91.1112V91.1167Z" fill="white"/>
<path d="M110.367 92.8029C110.367 89.2536 111.763 88.3966 114.982 88.3966C118.201 88.3966 119.619 89.248 119.619 92.8029V96.4463C119.619 99.9956 118.201 100.853 114.982 100.853C111.763 100.853 110.367 100.001 110.367 96.4463V92.8029ZM117.347 97.3419V91.9018C117.347 90.0165 116.583 88.8445 114.982 88.8445C113.381 88.8445 112.639 90.011 112.639 91.9018V97.3419C112.639 99.2272 113.403 100.399 114.982 100.399C116.561 100.399 117.347 99.2327 117.347 97.3419Z" fill="white"/>
<path d="M121.652 92.8029C121.652 89.2536 123.048 88.3966 126.267 88.3966C129.486 88.3966 130.904 89.248 130.904 92.8029V96.4463C130.904 99.9956 129.486 100.853 126.267 100.853C123.048 100.853 121.652 100.001 121.652 96.4463V92.8029ZM128.633 97.3419V91.9018C128.633 90.0165 127.868 88.8445 126.267 88.8445C124.666 88.8445 123.924 90.011 123.924 91.9018V97.3419C123.924 99.2272 124.688 100.399 126.267 100.399C127.846 100.399 128.633 99.2327 128.633 97.3419Z" fill="white"/>
<path d="M139.279 100.62V91.9018C139.279 90.0165 138.647 88.8445 137.295 88.8445C135.944 88.8445 135.312 90.011 135.312 91.9018V100.62H133.035V92.7974C133.035 89.248 134.32 88.3911 137.018 88.3911C138.686 88.3911 139.877 88.7062 140.398 90.0773C140.824 88.7062 142.132 88.3911 143.777 88.3911C146.48 88.3911 147.788 89.2425 147.788 92.7974V100.62H145.511V91.9018C145.511 90.0165 144.879 88.8445 143.528 88.8445C142.176 88.8445 141.544 90.011 141.544 91.9018V100.62H139.268H139.279Z" fill="white"/>
<path d="M1.62509 117.836C3.10978 117.477 4.55015 117.25 5.8354 117.25C9.07624 117.25 11.3753 118.621 11.3753 122.552C11.3753 126.262 9.32554 127.81 5.79109 127.81C2.47823 127.81 0.949219 126.483 0.949219 122.934V122.104H3.44771V124.305C3.44771 126.19 4.14574 127.362 6.03484 127.362C8.64967 127.362 8.87127 125.068 8.87127 123.205C8.87127 120.037 8.1954 117.991 4.43381 117.991C3.62499 117.991 2.63335 118.102 1.48105 118.306L1.16527 117.991V111.069H10.2839V113.093H1.62509V117.836Z" fill="white"/>
<path d="M12.8594 126.107C12.8594 125.3 13.5131 124.648 14.3219 124.648C15.1307 124.648 15.8066 125.3 15.8066 126.107C15.8066 126.914 15.1529 127.589 14.3219 127.589C13.4909 127.589 12.8594 126.936 12.8594 126.107Z" fill="white"/>
<path d="M61.5493 119.207V127.589H59.0508V111.069H65.3552C68.103 111.069 69.6541 112.396 69.6541 115.138C69.6541 117.881 68.103 119.207 65.3552 119.207H61.5493ZM61.5493 111.523V118.76H63.3054C65.7374 118.76 67.1778 117.571 67.1778 115.144C67.1778 112.717 65.7374 111.528 63.3054 111.528H61.5493V111.523Z" fill="white"/>
<path d="M78.2342 127.589V118.87C78.2342 116.985 77.4697 116.04 76.0293 116.04C74.5889 116.04 73.5308 116.985 73.5308 118.87V127.589H71.2539V111.069H73.5308V117.002C74.0017 115.923 74.949 115.36 76.55 115.36C79.187 115.36 80.5111 116.957 80.5111 119.312V127.583H78.2342V127.589Z" fill="white"/>
<path d="M82.6289 119.766C82.6289 116.216 84.025 115.36 87.2436 115.36C90.4623 115.36 91.8805 116.211 91.8805 119.766V123.409C91.8805 126.959 90.4623 127.815 87.2436 127.815C84.025 127.815 82.6289 126.964 82.6289 123.409V119.766ZM89.6092 124.305V118.865C89.6092 116.979 88.8447 115.807 87.2436 115.807C85.6426 115.807 84.9003 116.974 84.9003 118.865V124.305C84.9003 126.19 85.6648 127.362 87.2436 127.362C88.8225 127.362 89.6092 126.196 89.6092 124.305Z" fill="white"/>
<path d="M96.5203 115.586H100.481V116.034H96.5203V124.305C96.5203 126.19 96.969 127.362 97.6228 127.362C98.1158 127.362 98.6809 126.776 98.6809 125.427V124.305H100.93V124.979C100.93 126.959 99.8276 127.81 97.5951 127.81C95.3625 127.81 94.2379 126.959 94.2379 123.404V116.034H93.1133V115.586H94.2379V111.971H96.5148V115.586H96.5203Z" fill="white"/>
<path d="M102.395 119.766C102.395 116.216 103.791 115.36 107.009 115.36C110.228 115.36 111.646 116.211 111.646 119.766V123.409C111.646 126.959 110.228 127.815 107.009 127.815C103.791 127.815 102.395 126.964 102.395 123.409V119.766ZM109.375 124.305V118.865C109.375 116.979 108.61 115.807 107.009 115.807C105.408 115.807 104.666 116.974 104.666 118.865V124.305C104.666 126.19 105.43 127.362 107.009 127.362C108.588 127.362 109.375 126.196 109.375 124.305Z" fill="white"/>
<path d="M118.859 111.069H125.164C127.912 111.069 129.463 112.396 129.463 115.072C129.463 117.272 128.427 118.555 126.759 119.003C128.36 119.517 129.463 120.866 129.463 123.343C129.463 126.24 127.912 127.589 125.164 127.589H118.859V111.069ZM121.358 118.754H123.114C125.546 118.754 126.986 117.565 126.986 115.138C126.986 112.711 125.546 111.523 123.114 111.523H121.358V118.76V118.754ZM121.358 127.135H123.114C125.546 127.135 126.986 125.919 126.986 123.16C126.986 120.402 125.546 119.207 123.114 119.207H121.358V127.141V127.135Z" fill="white"/>
<path d="M131.488 119.766C131.488 116.216 132.884 115.36 136.103 115.36C139.322 115.36 140.74 116.211 140.74 119.766V123.409C140.74 126.959 139.322 127.815 136.103 127.815C132.884 127.815 131.488 126.964 131.488 123.409V119.766ZM138.469 124.305V118.865C138.469 116.979 137.704 115.807 136.103 115.807C134.502 115.807 133.76 116.974 133.76 118.865V124.305C133.76 126.19 134.524 127.362 136.103 127.362C137.682 127.362 138.469 126.196 138.469 124.305Z" fill="white"/>
<path d="M142.77 119.766C142.77 116.216 144.166 115.36 147.384 115.36C150.603 115.36 152.021 116.211 152.021 119.766V123.409C152.021 126.959 150.603 127.815 147.384 127.815C144.166 127.815 142.77 126.964 142.77 123.409V119.766ZM149.75 124.305V118.865C149.75 116.979 148.985 115.807 147.384 115.807C145.783 115.807 145.041 116.974 145.041 118.865V124.305C145.041 126.19 145.805 127.362 147.384 127.362C148.963 127.362 149.75 126.196 149.75 124.305Z" fill="white"/>
<path d="M156.661 115.586H160.622V116.034H156.661V124.305C156.661 126.19 157.11 127.362 157.763 127.362C158.256 127.362 158.821 126.776 158.821 125.427V124.305H161.071V124.979C161.071 126.959 159.968 127.81 157.736 127.81C155.503 127.81 154.379 126.959 154.379 123.404V116.034H153.254V115.586H154.379V111.971H156.655V115.586H156.661Z" fill="white"/>
<path d="M169.719 127.589V118.87C169.719 116.985 168.954 116.04 167.514 116.04C166.073 116.04 165.015 116.985 165.015 118.87V127.589H162.738V111.069H165.015V117.002C165.486 115.923 166.433 115.36 168.034 115.36C170.671 115.36 171.995 116.957 171.995 119.312V127.583H169.719V127.589Z" fill="white"/>
<path d="M179.09 123.205C179.09 120.866 180.192 119.517 181.793 119.003C180.126 118.555 179.09 117.272 179.09 115.138C179.09 112.059 181.25 110.848 184.314 110.848C187.533 110.848 189.472 112.197 189.472 115.702V116.084H186.973V114.353C186.973 112.512 186.319 111.296 184.408 111.296C182.292 111.296 181.594 112.778 181.594 114.757C181.594 117.565 183.012 118.76 185.444 118.76H189.477V127.594H187.45L186.979 125.952C186.685 126.649 185.965 127.815 183.688 127.815C181.411 127.815 179.095 126.599 179.095 123.21L179.09 123.205ZM186.973 124.305V119.202H185.444C183.012 119.202 181.594 120.413 181.594 123.608C181.594 125.383 182.292 126.914 184.408 126.914C185.849 126.914 186.973 126.196 186.973 124.305Z" fill="white"/>
<path d="M206.134 122.934C205.774 126.483 204.267 127.81 201.835 127.81C199.403 127.81 197.897 126.483 197.514 122.934L196.273 111.069H198.772L200.124 124.305C200.306 126.124 200.977 127.362 201.813 127.362C202.6 127.362 203.32 126.196 203.525 124.305L204.899 111.069H207.375L206.134 122.934Z" fill="white"/>
<path d="M211.063 121.386V124.305C211.063 126.19 211.827 127.362 213.406 127.362C214.985 127.362 215.772 126.196 215.772 124.979V123.404H218.049V124.078C218.049 126.953 216.63 127.81 213.412 127.81C210.193 127.81 208.797 126.959 208.797 123.404V119.76C208.797 116.211 210.193 115.354 213.412 115.354C216.63 115.354 218.049 116.205 218.049 119.086V121.38H211.068L211.063 121.386ZM215.772 120.938V118.196C215.772 116.979 215.007 115.813 213.406 115.813C211.805 115.813 211.063 116.979 211.063 118.87V120.938H215.772Z" fill="white"/>
<path d="M227.095 127.589V118.87C227.095 116.985 226.331 115.813 224.73 115.813C223.129 115.813 222.386 116.979 222.386 118.87V127.589H220.109V119.766C220.109 116.216 221.505 115.36 224.724 115.36C227.943 115.36 229.361 116.211 229.361 119.766V127.589H227.084H227.095Z" fill="white"/>
<path d="M240.74 123.409C240.74 126.959 239.322 127.815 236.103 127.815C232.884 127.815 231.488 126.964 231.488 123.409V119.318C231.488 116.957 232.796 115.365 235.449 115.365C237.05 115.365 237.992 115.929 238.469 117.007V111.075H240.745V123.415L240.74 123.409ZM233.76 118.87V124.31C233.76 126.196 234.524 127.368 236.103 127.368C237.682 127.368 238.469 126.201 238.469 124.31V118.87C238.469 116.985 237.388 116.04 235.948 116.04C234.508 116.04 233.765 116.985 233.765 118.87H233.76Z" fill="white"/>
<path d="M242.859 119.766C242.859 116.216 244.255 115.36 247.474 115.36C250.693 115.36 252.111 116.211 252.111 119.766V123.409C252.111 126.959 250.693 127.815 247.474 127.815C244.255 127.815 242.859 126.964 242.859 123.409V119.766ZM249.84 124.305V118.865C249.84 116.979 249.075 115.807 247.474 115.807C245.873 115.807 245.131 116.974 245.131 118.865V124.305C245.131 126.19 245.895 127.362 247.474 127.362C249.053 127.362 249.84 126.196 249.84 124.305Z" fill="white"/>
<path d="M260.757 118.08C260.059 117.449 259.228 117.156 258.48 117.156C257.444 117.156 256.613 117.765 256.613 118.865V127.583H254.336V115.581H256.613V117.671C257.244 115.736 259.228 115.133 260.757 115.354V118.074V118.08Z" fill="white"/>
<path d="M8.53745 140.62C8.53745 138.734 7.39069 138.259 6.17192 138.259C4.25511 138.259 3.55709 139.403 3.55709 141.316V145.114C4.68168 144.91 5.7398 144.777 6.68713 144.777C9.52355 144.777 11.4847 145.9 11.4847 149.521C11.4847 153.142 9.43491 154.778 5.90046 154.778C2.5876 154.778 1.05859 153.452 1.05859 149.902V142.665C1.05859 139.116 2.36601 137.811 6.19408 137.811C8.80891 137.811 11.0359 138.441 11.0359 141.991V142.82H8.53745V140.62ZM3.56263 151.273C3.56263 153.159 4.26065 154.331 6.03896 154.331C8.76459 154.331 8.98618 151.588 8.98618 150.085C8.98618 146.939 7.97238 145.435 5.20243 145.435C4.70938 145.435 4.16647 145.479 3.55709 145.568V151.273H3.56263Z" fill="white"/>
<path d="M13.1055 153.07C13.1055 152.263 13.7592 151.611 14.568 151.611C15.3768 151.611 16.0527 152.263 16.0527 153.07C16.0527 153.877 15.399 154.552 14.568 154.552C13.737 154.552 13.1055 153.899 13.1055 153.07Z" fill="white"/>
<path d="M61.5493 146.17V154.552H59.0508V138.032H65.3552C68.103 138.032 69.6541 139.359 69.6541 142.101C69.6541 144.844 68.103 146.17 65.3552 146.17H61.5493ZM61.5493 138.486V145.723H63.3054C65.7374 145.723 67.1778 144.534 67.1778 142.107C67.1778 139.68 65.7374 138.491 63.3054 138.491H61.5493V138.486Z" fill="white"/>
<path d="M77.5584 154.552V153.136C77.0875 154.214 76.1402 154.778 74.5391 154.778C71.88 154.778 70.5781 153.181 70.5781 150.825V146.734C70.5781 143.185 71.9742 142.328 75.1929 142.328C78.4115 142.328 79.8298 143.179 79.8298 146.734V154.557H77.5529L77.5584 154.552ZM77.5584 151.273V145.833C77.5584 143.948 76.7939 142.776 75.1929 142.776C73.5918 142.776 72.8495 143.942 72.8495 145.833V151.273C72.8495 153.159 73.614 154.104 75.0322 154.104C76.4504 154.104 77.5529 153.159 77.5529 151.273H77.5584Z" fill="white"/>
<path d="M88.5926 145.048C87.8946 144.418 87.0636 144.125 86.3157 144.125C85.2798 144.125 84.4488 144.733 84.4488 145.833V154.552H82.1719V142.549H84.4488V144.639C85.0803 142.704 87.0636 142.101 88.5926 142.323V145.043V145.048Z" fill="white"/>
<path d="M96.6308 142.555H98.9077V145.43C98.9077 147.63 98.0989 147.79 96.4314 148.238C98.0103 148.752 98.9077 149.183 98.9077 151.655V154.552H96.6308V151.494C96.6308 148.73 95.8885 148.437 93.6781 148.437H92.3706V154.552H90.0938V138.032H92.3706V147.989H93.6781C95.8829 147.989 96.6308 147.923 96.6308 145.496V142.555Z" fill="white"/>
<path d="M102.306 138.712C103.137 138.712 103.791 139.365 103.791 140.172C103.791 140.979 103.137 141.654 102.306 141.654C101.475 141.654 100.844 141.001 100.844 140.172C100.844 139.343 101.497 138.712 102.306 138.712ZM101.182 142.555H103.459V154.557H101.182V142.555Z" fill="white"/>
<path d="M112.533 154.552V145.833C112.533 143.948 111.768 142.776 110.167 142.776C108.566 142.776 107.824 143.942 107.824 145.833V154.552H105.547V146.729C105.547 143.179 106.943 142.323 110.162 142.323C113.38 142.323 114.798 143.174 114.798 146.729V154.552H112.522H112.533Z" fill="white"/>
<path d="M119.197 155.563V156.935C119.197 158.151 119.962 158.621 121.541 158.621C123.119 158.621 123.906 157.476 123.906 155.563V153.136C123.435 154.214 122.488 154.778 120.887 154.778C118.228 154.778 116.926 153.181 116.926 150.825V146.734C116.926 143.185 118.322 142.328 121.541 142.328C124.759 142.328 126.177 143.179 126.177 146.734V154.668C126.177 158.217 124.759 159.074 121.541 159.074C118.322 159.074 116.926 158.892 116.926 156.017V155.569H119.203L119.197 155.563ZM123.906 151.273V145.833C123.906 143.948 123.142 142.776 121.541 142.776C119.939 142.776 119.197 143.942 119.197 145.833V151.273C119.197 153.159 119.962 154.104 121.38 154.104C122.798 154.104 123.901 153.159 123.901 151.273H123.906Z" fill="white"/>
<path d="M133.355 154.552V138.032H135.632V154.552H133.355Z" fill="white"/>
<path d="M137.859 146.734C137.859 143.185 139.255 142.328 142.474 142.328C145.693 142.328 147.111 143.179 147.111 146.734V150.378C147.111 153.927 145.693 154.784 142.474 154.784C139.255 154.784 137.859 153.933 137.859 150.378V146.734ZM144.84 151.273V145.833C144.84 143.948 144.075 142.776 142.474 142.776C140.873 142.776 140.131 143.942 140.131 145.833V151.273C140.131 153.159 140.895 154.331 142.474 154.331C144.053 154.331 144.84 153.164 144.84 151.273Z" fill="white"/>
<path d="M151.755 142.555H155.716V143.003H151.755V151.273C151.755 153.159 152.203 154.331 152.857 154.331C153.35 154.331 153.915 153.745 153.915 152.396V151.273H156.164V151.948C156.164 153.927 155.062 154.778 152.829 154.778C150.597 154.778 149.472 153.927 149.472 150.372V143.003H148.348V142.555H149.472V138.939H151.749V142.555H151.755Z" fill="white"/>
<path d="M4.10014 181.52L8.15534 165.675H0.925781V165.001H10.7425V165.675L6.68727 181.52H4.10014Z" fill="white"/>
<path d="M11.8867 180.039C11.8867 179.231 12.5404 178.579 13.3493 178.579C14.1581 178.579 14.8339 179.231 14.8339 180.039C14.8339 180.846 14.1802 181.52 13.3493 181.52C12.5183 181.52 11.8867 180.868 11.8867 180.039Z" fill="white"/>
<path d="M67.0229 170.463V168.285C67.0229 166.372 66.0756 165.227 64.1865 165.227C62.2974 165.227 61.3501 166.372 61.3501 168.285V178.242C61.3501 180.127 62.2752 181.299 64.1865 181.299C66.0977 181.299 67.0229 180.133 67.0229 178.242V176.041H69.4992V176.871C69.4992 180.42 67.7431 181.747 64.1865 181.747C60.6299 181.747 58.8516 180.42 58.8516 176.871V169.634C58.8516 166.084 60.6299 164.78 64.1865 164.78C67.7431 164.78 69.4992 166.084 69.4992 169.634V170.463H67.0229Z" fill="white"/>
<path d="M78.5506 181.52V172.802C78.5506 170.916 77.7861 169.971 76.3457 169.971C74.9053 169.971 73.8472 170.916 73.8472 172.802V181.52H71.5703V165.001H73.8472V170.933C74.3181 169.855 75.2654 169.291 76.8664 169.291C79.5034 169.291 80.8275 170.889 80.8275 173.244V181.515H78.5506V181.52Z" fill="white"/>
<path d="M85.215 175.317V178.236C85.215 180.122 85.9795 181.294 87.5584 181.294C89.1373 181.294 89.924 180.127 89.924 178.911V177.335H92.2008V178.01C92.2008 180.884 90.7826 181.741 87.564 181.741C84.3453 181.741 82.9492 180.89 82.9492 177.335V173.692C82.9492 170.142 84.3453 169.285 87.564 169.285C90.7826 169.285 92.2008 170.137 92.2008 173.017V175.312H85.2206L85.215 175.317ZM89.924 174.869V172.127C89.924 170.911 89.1594 169.744 87.5584 169.744C85.9574 169.744 85.215 170.911 85.215 172.802V174.869H89.924Z" fill="white"/>
<path d="M101.158 173.697V172.122C101.158 170.905 100.394 169.739 98.7928 169.739C97.1918 169.739 96.4494 170.905 96.4494 172.796V178.236C96.4494 180.122 97.2139 181.294 98.7928 181.294C100.372 181.294 101.158 180.127 101.158 178.911V177.335H103.435V178.01C103.435 180.884 102.017 181.741 98.7983 181.741C95.5796 181.741 94.1836 180.89 94.1836 177.335V173.692C94.1836 170.142 95.5796 169.285 98.7983 169.285C102.017 169.285 103.435 170.137 103.435 173.017V173.692H101.158V173.697Z" fill="white"/>
<path d="M112.032 169.518H114.308V172.393C114.308 174.593 113.5 174.753 111.832 175.201C113.411 175.721 114.308 176.146 114.308 178.618V181.515H112.032V178.457C112.032 175.693 111.289 175.4 109.084 175.4H107.777V181.515H105.5V164.995H107.777V174.952H109.084C111.289 174.952 112.032 174.886 112.032 172.459V169.512V169.518Z" fill="white"/>
<path d="M122.548 165.675C123.379 165.675 124.033 166.328 124.033 167.135C124.033 167.942 123.379 168.616 122.548 168.616C121.717 168.616 121.086 167.964 121.086 167.135C121.086 166.306 121.74 165.675 122.548 165.675ZM121.424 169.518H123.701V181.52H121.424V169.518Z" fill="white"/>
<path d="M132.775 181.52V172.802C132.775 170.916 132.01 169.744 130.409 169.744C128.808 169.744 128.066 170.911 128.066 172.802V181.52H125.789V173.697C125.789 170.148 127.185 169.291 130.404 169.291C133.622 169.291 135.041 170.142 135.041 173.697V181.52H132.764H132.775Z" fill="white"/>
<path d="M0.925781 196.033C0.925781 192.953 3.31348 191.743 6.37704 191.743C9.4406 191.743 11.8061 192.959 11.8061 196.033C11.8061 198.167 10.543 199.449 8.88107 199.897C10.4821 200.417 11.8061 201.76 11.8061 204.099C11.8061 207.494 9.35196 208.704 6.37704 208.704C3.40211 208.704 0.925781 207.488 0.925781 204.099C0.925781 201.76 2.25536 200.411 3.85084 199.897C2.18334 199.449 0.925781 198.167 0.925781 196.033ZM3.42427 195.563C3.42427 197.99 4.59319 199.538 6.3715 199.538C8.1498 199.538 9.31872 197.99 9.31872 195.563C9.31872 193.678 8.46558 192.19 6.3715 192.19C4.27742 192.19 3.42427 193.672 3.42427 195.563ZM3.42427 204.619C3.42427 206.731 4.2331 208.262 6.3715 208.262C8.5099 208.262 9.31872 206.736 9.31872 204.619C9.31872 201.854 8.12764 199.991 6.3715 199.991C4.61535 199.991 3.42427 201.854 3.42427 204.619Z" fill="white"/>
<path d="M13.4453 207.001C13.4453 206.194 14.099 205.542 14.9078 205.542C15.7167 205.542 16.3925 206.194 16.3925 207.001C16.3925 207.809 15.7388 208.483 14.9078 208.483C14.0769 208.483 13.4453 207.831 13.4453 207.001Z" fill="white"/>
<path d="M59.0508 191.969H61.5493V199.654H67.2221V191.969H69.6985V208.489H67.2221V200.107H61.5493V208.489H59.0508V191.969Z" fill="white"/>
<path d="M72.0859 200.666C72.0859 197.116 73.482 196.259 76.7007 196.259C79.9193 196.259 81.3376 197.111 81.3376 200.666V204.309C81.3376 207.858 79.9193 208.715 76.7007 208.715C73.482 208.715 72.0859 207.864 72.0859 204.309V200.666ZM79.0662 205.205V199.765C79.0662 197.879 78.3017 196.707 76.7007 196.707C75.0996 196.707 74.3573 197.874 74.3573 199.765V205.205C74.3573 207.09 75.1218 208.262 76.7007 208.262C78.2795 208.262 79.0662 207.095 79.0662 205.205Z" fill="white"/>
<path d="M85.5096 204.304V205.879C85.5096 207.095 86.2741 208.262 87.853 208.262C89.2934 208.262 90.1742 207.294 90.1742 206.017C90.1742 202.402 83.2383 204.873 83.2383 200.063C83.2383 197.57 85.1052 196.265 87.8087 196.265C90.7116 196.265 92.2683 197.747 92.2683 199.997V200.671H89.9914V199.096C89.9914 197.879 89.4485 196.713 87.853 196.713C86.4348 196.713 85.554 197.658 85.554 199.051C85.554 202.872 92.4899 200.422 92.4899 205.05C92.4899 207.455 90.623 208.715 87.853 208.715C84.8781 208.715 83.2383 207.212 83.2383 204.984V204.309H85.5152L85.5096 204.304Z" fill="white"/>
<path d="M94.4274 200.666C94.4274 197.116 95.8235 196.259 99.0421 196.259C102.261 196.259 103.679 197.111 103.679 200.666V204.757C103.679 207.118 102.349 208.71 99.718 208.71C98.117 208.71 97.1752 208.146 96.6988 207.068V213H94.4219V200.66L94.4274 200.666ZM101.408 205.205V199.765C101.408 197.879 100.643 196.707 99.0421 196.707C97.4411 196.707 96.6988 197.874 96.6988 199.765V205.205C96.6988 207.09 97.779 208.035 99.1973 208.035C100.615 208.035 101.402 207.09 101.402 205.205H101.408Z" fill="white"/>
<path d="M106.83 192.644C107.661 192.644 108.314 193.296 108.314 194.103C108.314 194.91 107.661 195.585 106.83 195.585C105.999 195.585 105.367 194.933 105.367 194.103C105.367 193.274 106.021 192.644 106.83 192.644ZM105.705 196.486H107.982V208.489H105.705V196.486Z" fill="white"/>
<path d="M113.005 196.486H116.966V196.934H113.005V205.205C113.005 207.09 113.453 208.262 114.107 208.262C114.6 208.262 115.165 207.676 115.165 206.327V205.205H117.414V205.879C117.414 207.858 116.312 208.71 114.079 208.71C111.847 208.71 110.722 207.858 110.722 204.304V196.934H109.598V196.486H110.722V192.87H112.999V196.486H113.005Z" fill="white"/>
<path d="M125.859 208.483V207.068C125.388 208.146 124.441 208.71 122.84 208.71C120.181 208.71 118.879 207.112 118.879 204.757V200.666C118.879 197.116 120.275 196.259 123.494 196.259C126.712 196.259 128.131 197.111 128.131 200.666V208.489H125.854L125.859 208.483ZM125.859 205.205V199.765C125.859 197.879 125.095 196.707 123.494 196.707C121.893 196.707 121.15 197.874 121.15 199.765V205.205C121.15 207.09 121.915 208.035 123.333 208.035C124.751 208.035 125.854 207.09 125.854 205.205H125.859Z" fill="white"/>
<path d="M130.477 208.483V191.964H132.753V208.483H130.477Z" fill="white"/>
<path d="M718.213 36.2786C725.51 36.2786 731.425 30.3752 731.425 23.0929C731.425 15.8107 725.51 9.90723 718.213 9.90723C710.915 9.90723 705 15.8107 705 23.0929C705 30.3752 710.915 36.2786 718.213 36.2786Z" fill="#FFC72C"/>
<path d="M714.196 29.9318C714.196 30.3354 714.196 30.7058 714.196 31.0707C714.196 31.607 713.714 32.0492 713.143 32.0492C712.573 32.0492 712.096 31.607 712.096 31.0707C712.096 30.7003 712.096 30.3299 712.096 29.9318H710.828C710.828 29.8046 710.828 29.7051 710.828 29.6056C710.828 27.1896 710.805 24.7736 710.839 22.3632C710.85 21.6168 710.994 20.8704 711.088 20.1296C711.226 19.0073 711.387 17.8905 711.52 16.7682C711.614 15.9776 712.035 15.4358 712.717 15.0654C713.453 14.6674 714.257 14.4628 715.06 14.2748C716.223 14.0095 717.409 13.8436 718.606 13.9044C720.262 13.9929 721.874 14.2804 723.409 14.9327C724.35 15.3308 724.805 16.0384 724.91 17.0557C725.082 18.7419 725.331 20.4171 725.541 22.0978C725.553 22.1807 725.558 22.2636 725.558 22.3521C725.575 24.7681 725.586 27.1841 725.602 29.5945C725.602 29.8194 725.493 29.9318 725.276 29.9318C725.065 29.9318 724.849 29.9429 724.644 29.9318C724.445 29.9152 724.378 29.9871 724.378 30.1861C724.384 30.5897 724.395 30.9988 724.361 31.4024C724.317 31.9055 723.907 32.2593 723.386 32.3036C722.899 32.3423 722.4 32.0161 722.278 31.5517C722.229 31.3582 722.24 31.1481 722.24 30.9491C722.234 30.6782 722.234 30.4073 722.24 30.1364C722.24 29.9816 722.184 29.9207 722.029 29.9318C721.929 29.9373 721.824 29.9318 721.724 29.9318C719.331 29.9318 716.938 29.9318 714.539 29.9318H714.19H714.196ZM718.234 22.7391C719.979 22.7391 721.719 22.7391 723.464 22.7391C723.591 22.7391 723.719 22.7391 723.841 22.717C724.101 22.6783 724.267 22.5014 724.284 22.2415C724.295 22.0978 724.284 21.954 724.273 21.8103C724.096 20.4558 723.913 19.1013 723.73 17.7523C723.675 17.3487 723.464 17.1552 723.054 17.1552C719.846 17.1552 716.644 17.1552 713.437 17.1552C713.038 17.1552 712.833 17.3542 712.778 17.7413C712.589 19.1013 712.401 20.4613 712.201 21.8214C712.107 22.4793 712.318 22.7336 712.983 22.7336C714.733 22.7336 716.484 22.7336 718.234 22.7336V22.7391ZM718.212 16.1932C719.154 16.1932 720.09 16.1932 721.032 16.1932C721.126 16.1932 721.22 16.1932 721.309 16.1822C721.536 16.1545 721.686 15.9997 721.691 15.7841C721.702 15.574 721.564 15.3916 721.348 15.3418C721.292 15.3308 721.231 15.3308 721.17 15.3308C719.198 15.3308 717.226 15.3308 715.254 15.3308C715.171 15.3308 715.082 15.3418 715.005 15.3695C714.805 15.4414 714.711 15.5906 714.733 15.8062C714.755 16.0163 714.877 16.1435 715.082 16.1822C715.182 16.1988 715.287 16.1988 715.387 16.1988C716.329 16.1988 717.265 16.1988 718.207 16.1988L718.212 16.1932ZM713.149 25.3928C712.55 25.3928 712.091 25.8572 712.091 26.4488C712.091 27.0348 712.573 27.5213 713.149 27.5158C713.719 27.5158 714.218 27.0127 714.218 26.4433C714.218 25.8683 713.736 25.3928 713.143 25.3928H713.149ZM724.35 26.4433C724.35 25.8462 723.891 25.3928 723.292 25.3928C722.7 25.3928 722.229 25.8628 722.229 26.4488C722.229 27.0072 722.711 27.5158 723.242 27.5158C723.868 27.5158 724.356 27.0459 724.356 26.4433H724.35Z" fill="#1C1E23"/>
<path d="M757.008 13.0364H762.974C765.572 13.0364 767.046 14.2914 767.046 16.8235C767.046 18.9078 766.066 20.1185 764.487 20.5442C765.999 21.0308 767.046 22.3079 767.046 24.6465C767.046 27.3886 765.572 28.6657 762.974 28.6657H757.008V13.0309V13.0364ZM759.373 20.312H761.035C763.34 20.312 764.703 19.1842 764.703 16.8898C764.703 14.5955 763.34 13.4676 761.035 13.4676H759.373V20.3176V20.312ZM759.373 28.2456H761.035C763.34 28.2456 764.703 27.0956 764.703 24.4806C764.703 21.8656 763.34 20.7377 761.035 20.7377H759.373V28.2456Z" fill="white"/>
<path d="M777.811 24.7128C777.811 28.0742 776.47 28.8814 773.418 28.8814C770.365 28.8814 769.047 28.0742 769.047 24.7128V17.31H771.202V25.5642C771.202 27.3499 771.928 28.4557 773.418 28.4557C774.908 28.4557 775.656 27.3499 775.656 25.5642V17.31H777.811V24.7128Z" fill="white"/>
<path d="M781.836 24.7128V26.2C781.836 27.3499 782.562 28.4557 784.052 28.4557C785.415 28.4557 786.246 27.5434 786.246 26.3271C786.246 22.9049 779.681 25.2435 779.681 20.6935C779.681 18.3328 781.449 17.0999 784.008 17.0999C786.756 17.0999 788.229 18.5042 788.229 20.6327V21.2685H786.074V19.7813C786.074 18.6313 785.565 17.5256 784.047 17.5256C782.706 17.5256 781.875 18.4213 781.875 19.7371C781.875 23.3528 788.44 21.0363 788.44 25.4149C788.44 27.6927 786.673 28.8814 784.047 28.8814C781.232 28.8814 779.676 27.455 779.676 25.3486V24.7128H781.831H781.836Z" fill="white"/>
<path d="M796.774 24.7128V26.2C796.774 27.3499 797.5 28.4557 798.99 28.4557C800.353 28.4557 801.184 27.5434 801.184 26.3271C801.184 22.9049 794.619 25.2435 794.619 20.6935C794.619 18.3328 796.386 17.0999 798.945 17.0999C801.693 17.0999 803.167 18.5042 803.167 20.6327V21.2685H801.012V19.7813C801.012 18.6313 800.502 17.5256 798.984 17.5256C797.644 17.5256 796.813 18.4213 796.813 19.7371C796.813 23.3528 803.377 21.0363 803.377 25.4149C803.377 27.6927 801.61 28.8814 798.984 28.8814C796.17 28.8814 794.613 27.455 794.613 25.3486V24.7128H796.768H796.774Z" fill="white"/>
<path d="M807.575 17.31H811.325V17.7357H807.575V25.5642C807.575 27.3499 808.001 28.4557 808.622 28.4557C809.093 28.4557 809.625 27.9028 809.625 26.6257V25.5642H811.757V26.2C811.757 28.0742 810.71 28.8814 808.605 28.8814C806.5 28.8814 805.431 28.0742 805.431 24.7128V17.7357H804.367V17.31H805.431V13.8878H807.586V17.31H807.575Z" fill="white"/>
<path d="M813.137 21.2685C813.137 17.9071 814.455 17.0999 817.508 17.0999C820.56 17.0999 821.901 17.9071 821.901 21.2685V24.7128C821.901 28.0742 820.56 28.8814 817.508 28.8814C814.455 28.8814 813.137 28.0742 813.137 24.7128V21.2685ZM819.746 25.5642V20.4171C819.746 18.6313 819.02 17.5256 817.508 17.5256C815.995 17.5256 815.292 18.6313 815.292 20.4171V25.5642C815.292 27.3499 816.017 28.4557 817.508 28.4557C818.998 28.4557 819.746 27.3499 819.746 25.5642Z" fill="white"/>
<path d="M823.918 21.2685C823.918 17.9071 825.236 17.0999 828.289 17.0999C831.341 17.0999 832.682 17.9071 832.682 21.2685V25.1385C832.682 27.3721 831.424 28.8814 828.932 28.8814C827.419 28.8814 826.522 28.3506 826.073 27.3278V32.9449H823.918V21.2685ZM830.527 25.5642V20.4171C830.527 18.6313 829.801 17.5256 828.289 17.5256C826.777 17.5256 826.073 18.6313 826.073 20.4171V25.5642C826.073 27.3499 827.098 28.2456 828.438 28.2456C829.779 28.2456 830.527 27.3499 830.527 25.5642Z" fill="white"/>
<path d="M766.313 73.486L765.704 67.6202H760.795L760.186 73.486H757.688L758.928 61.5996C759.311 58.0502 760.818 56.7455 763.25 56.7455C765.682 56.7455 767.188 58.0502 767.549 61.5996L768.789 73.486H766.313ZM765.637 67.1724L764.939 60.2506C764.734 58.3377 764.014 57.1933 763.227 57.1933C762.396 57.1933 761.721 58.404 761.538 60.2506L760.84 67.1724H765.637Z" fill="white"/>
<path d="M776.849 73.486V64.7674C776.849 62.8822 776.217 61.7101 774.866 61.7101C773.514 61.7101 772.882 62.8767 772.882 64.7674V73.486H770.605V65.6631C770.605 62.1137 771.891 61.2568 774.594 61.2568C776.262 61.2568 777.453 61.5719 777.973 62.943C778.4 61.5719 779.707 61.2568 781.353 61.2568C784.056 61.2568 785.364 62.1082 785.364 65.6631V73.486H783.087V64.7674C783.087 62.8822 782.455 61.7101 781.104 61.7101C779.752 61.7101 779.12 62.8767 779.12 64.7674V73.486H776.843H776.849Z" fill="white"/>
<path d="M789.869 56.9666V62.8988C790.34 61.8207 791.287 61.2568 792.888 61.2568C795.525 61.2568 796.849 62.8545 796.849 65.2097V69.3009C796.849 72.8502 795.431 73.7072 792.212 73.7072C788.994 73.7072 787.598 72.8558 787.598 69.3009V56.9611H789.875L789.869 56.9666ZM789.869 64.7674V70.2076C789.869 72.0928 790.634 73.2649 792.212 73.2649C793.791 73.2649 794.578 72.0983 794.578 70.2076V64.7674C794.578 62.8822 793.813 61.9368 792.373 61.9368C790.933 61.9368 789.875 62.8822 789.875 64.7674H789.869Z" fill="white"/>
<path d="M808.216 69.3064C808.216 72.8558 806.798 73.7127 803.58 73.7127C800.361 73.7127 798.965 72.8613 798.965 69.3064V61.4835H801.242V70.202C801.242 72.0873 802.006 73.2594 803.585 73.2594C805.164 73.2594 805.951 72.0928 805.951 70.202V61.4835H808.228V69.3064H808.216Z" fill="white"/>
<path d="M810.539 73.486V56.9666H812.816V73.486H810.539Z" fill="white"/>
<path d="M822.023 73.486V72.0707C821.552 73.1488 820.605 73.7127 819.004 73.7127C816.345 73.7127 815.043 72.1149 815.043 69.7598V65.6686C815.043 62.1192 816.439 61.2623 819.658 61.2623C822.876 61.2623 824.295 62.1137 824.295 65.6686V73.4916H822.018L822.023 73.486ZM822.023 70.2076V64.7674C822.023 62.8822 821.259 61.7101 819.658 61.7101C818.057 61.7101 817.314 62.8767 817.314 64.7674V70.2076C817.314 72.0928 818.079 73.0382 819.497 73.0382C820.915 73.0382 822.018 72.0928 822.018 70.2076H822.023Z" fill="white"/>
<path d="M833.505 73.486V64.7674C833.505 62.8822 832.741 61.7101 831.14 61.7101C829.539 61.7101 828.796 62.8767 828.796 64.7674V73.486H826.52V65.6631C826.52 62.1137 827.916 61.2568 831.134 61.2568C834.353 61.2568 835.771 62.1082 835.771 65.6631V73.486H833.494H833.505Z" fill="white"/>
<path d="M844.873 65.6631V64.0874C844.873 62.8711 844.109 61.7046 842.508 61.7046C840.907 61.7046 840.164 62.8711 840.164 64.7619V70.202C840.164 72.0873 840.929 73.2593 842.508 73.2593C844.086 73.2593 844.873 72.0928 844.873 70.8765V69.3009H847.15V69.9754C847.15 72.8502 845.732 73.7072 842.513 73.7072C839.294 73.7072 837.898 72.8558 837.898 69.3009V65.6575C837.898 62.1082 839.294 61.2513 842.513 61.2513C845.732 61.2513 847.15 62.1027 847.15 64.983V65.6575H844.873V65.6631Z" fill="white"/>
<path d="M851.293 67.2829V70.202C851.293 72.0873 852.058 73.2593 853.637 73.2593C855.215 73.2593 856.002 72.0928 856.002 70.8765V69.3009H858.279V69.9754C858.279 72.8502 856.861 73.7072 853.642 73.7072C850.423 73.7072 849.027 72.8558 849.027 69.3009V65.6575C849.027 62.1082 850.423 61.2513 853.642 61.2513C856.861 61.2513 858.279 62.1027 858.279 64.983V67.2774H851.299L851.293 67.2829ZM856.002 66.8351V64.0929C856.002 62.8767 855.238 61.7101 853.637 61.7101C852.036 61.7101 851.293 62.8767 851.293 64.7674V66.8351H856.002Z" fill="white"/>
<path d="M718.213 77.9974C725.51 77.9974 731.425 72.0939 731.425 64.8117C731.425 57.5294 725.51 51.626 718.213 51.626C710.915 51.626 705 57.5294 705 64.8117C705 72.0939 710.915 77.9974 718.213 77.9974Z" fill="#E5E2D1"/>
<path d="M715.151 59.648C715.151 59.1117 715.139 58.5809 715.151 58.0447C715.184 56.8947 715.915 56.1705 717.073 56.1428C717.832 56.1263 718.591 56.1263 719.35 56.1428C720.53 56.1705 721.25 56.9003 721.272 58.0889C721.289 59.1449 721.289 60.1953 721.272 61.2513C721.267 61.6438 721.411 61.7654 721.793 61.7599C722.801 61.7433 723.815 61.7488 724.829 61.7599C726.18 61.7709 726.895 62.4786 726.906 63.8221C726.912 64.5187 726.917 65.2153 726.906 65.9119C726.879 67.1171 726.158 67.8469 724.945 67.8635C723.904 67.88 722.862 67.88 721.821 67.8635C721.422 67.8579 721.267 67.9796 721.278 68.3942C721.3 69.3893 721.289 70.3845 721.278 71.3796C721.272 72.7784 720.557 73.4805 719.15 73.486C718.513 73.486 717.871 73.486 717.234 73.486C715.882 73.475 715.162 72.7673 715.151 71.4239C715.145 70.4121 715.134 69.4059 715.151 68.3942C715.162 67.9796 715.006 67.8579 714.608 67.8635C713.599 67.8856 712.586 67.8745 711.572 67.8635C710.253 67.8524 709.533 67.1337 709.522 65.8179C709.516 65.1047 709.511 64.3915 709.522 63.6783C709.55 62.5007 710.275 61.7709 711.461 61.7488C712.519 61.7322 713.572 61.7322 714.63 61.7488C715.012 61.7544 715.167 61.6327 715.151 61.2402C715.123 60.7095 715.145 60.1732 715.145 59.6369L715.151 59.648Z" fill="#C5221F"/>
</g>
<defs>
<clipPath id="clip0_690_7522">
<rect width="864" height="213" fill="white"/>
</clipPath>
</defs>
</svg>
