<svg width="242" height="338" viewBox="0 0 242 338" fill="none" xmlns="http://www.w3.org/2000/svg">
<path d="M25.2 20V5.3H32.66V5.7H27.42V12.14H32.24V12.54H27.42V20H25.2ZM41.9891 9.32V16.28C41.9891 19.44 40.7291 20.2 37.8691 20.2C35.0091 20.2 33.7691 19.44 33.7691 16.28V9.32H35.7891V17.08C35.7891 18.76 36.4691 19.8 37.8691 19.8C39.2891 19.8 39.9691 18.76 39.9691 17.08V9.32H41.9891ZM46.0648 20H44.0448V5.3H46.0648V20ZM50.2445 20H48.2245V5.3H50.2445V20ZM64.7411 20H62.7211V18.74C62.3011 19.7 61.4611 20.2 60.0411 20.2C57.6811 20.2 56.5211 18.78 56.5211 16.68V13.04C56.5211 9.88 57.7611 9.12 60.6211 9.12C63.4811 9.12 64.7411 9.88 64.7411 13.04V20ZM60.4811 19.6C61.7611 19.6 62.7211 18.76 62.7211 17.08V12.24C62.7211 10.56 62.0411 9.52 60.6211 9.52C59.2211 9.52 58.5411 10.56 58.5411 12.24V17.08C58.5411 18.76 59.2211 19.6 60.4811 19.6ZM74.8583 13.04H72.8383V11.64C72.8383 10.56 72.1583 9.52 70.7383 9.52C69.3383 9.52 68.6583 10.56 68.6583 12.24V17.08C68.6583 18.76 69.3383 19.8 70.7383 19.8C72.1583 19.8 72.8383 18.76 72.8383 17.68V16.28H74.8583V16.88C74.8583 19.44 73.5983 20.2 70.7383 20.2C67.8783 20.2 66.6383 19.44 66.6383 16.28V13.04C66.6383 9.88 67.8783 9.12 70.7383 9.12C73.5983 9.12 74.8583 9.88 74.8583 12.44V13.04ZM84.7411 13.04H82.7211V11.64C82.7211 10.56 82.0411 9.52 80.6211 9.52C79.2211 9.52 78.5411 10.56 78.5411 12.24V17.08C78.5411 18.76 79.2211 19.8 80.6211 19.8C82.0411 19.8 82.7211 18.76 82.7211 17.68V16.28H84.7411V16.88C84.7411 19.44 83.4811 20.2 80.6211 20.2C77.7611 20.2 76.5211 19.44 76.5211 16.28V13.04C76.5211 9.88 77.7611 9.12 80.6211 9.12C83.4811 9.12 84.7411 9.88 84.7411 12.44V13.04ZM94.6239 14.48H88.4239V17.08C88.4239 18.76 89.1039 19.8 90.5039 19.8C91.9239 19.8 92.6039 18.76 92.6039 17.68V16.28H94.6239V16.88C94.6239 19.44 93.3639 20.2 90.5039 20.2C87.6439 20.2 86.4039 19.44 86.4039 16.28V13.04C86.4039 9.88 87.6439 9.12 90.5039 9.12C93.3639 9.12 94.6239 9.88 94.6239 12.44V14.48ZM88.4239 14.08H92.6039V11.64C92.6039 10.56 91.9239 9.52 90.5039 9.52C89.1039 9.52 88.4239 10.56 88.4239 12.24V14.08ZM96.2644 16.28H98.2844V17.68C98.2844 18.76 98.9644 19.8 100.364 19.8C101.644 19.8 102.424 18.94 102.424 17.8C102.424 14.58 96.2644 16.78 96.2644 12.5C96.2644 10.28 97.9244 9.12 100.324 9.12C102.904 9.12 104.284 10.44 104.284 12.44V13.04H102.264V11.64C102.264 10.56 101.784 9.52 100.364 9.52C99.1044 9.52 98.3244 10.36 98.3244 11.6C98.3244 15 104.484 12.82 104.484 16.94C104.484 19.08 102.824 20.2 100.364 20.2C97.7244 20.2 96.2644 18.86 96.2644 16.88V16.28ZM105.991 16.28H108.011V17.68C108.011 18.76 108.691 19.8 110.091 19.8C111.371 19.8 112.151 18.94 112.151 17.8C112.151 14.58 105.991 16.78 105.991 12.5C105.991 10.28 107.651 9.12 110.051 9.12C112.631 9.12 114.011 10.44 114.011 12.44V13.04H111.991V11.64C111.991 10.56 111.511 9.52 110.091 9.52C108.831 9.52 108.051 10.36 108.051 11.6C108.051 15 114.211 12.82 114.211 16.94C114.211 19.08 112.551 20.2 110.091 20.2C107.451 20.2 105.991 18.86 105.991 16.88V16.28ZM122.634 6.1V9.32H126.154V9.72H122.634V17.08C122.634 18.76 123.034 19.8 123.614 19.8C124.054 19.8 124.554 19.28 124.554 18.08V17.08H126.554V17.68C126.554 19.44 125.574 20.2 123.594 20.2C121.614 20.2 120.614 19.44 120.614 16.28V9.72H119.614V9.32H120.614V6.1H122.634ZM127.849 16.28V13.04C127.849 9.88 129.089 9.12 131.949 9.12C134.809 9.12 136.069 9.88 136.069 13.04V16.28C136.069 19.44 134.809 20.2 131.949 20.2C129.089 20.2 127.849 19.44 127.849 16.28ZM131.949 19.8C133.369 19.8 134.049 18.76 134.049 17.08V12.24C134.049 10.56 133.369 9.52 131.949 9.52C130.549 9.52 129.869 10.56 129.869 12.24V17.08C129.869 18.76 130.549 19.8 131.949 19.8ZM144.666 6.1V9.32H148.186V9.72H144.666V17.08C144.666 18.76 145.066 19.8 145.646 19.8C146.086 19.8 146.586 19.28 146.586 18.08V17.08H148.586V17.68C148.586 19.44 147.606 20.2 145.626 20.2C143.646 20.2 142.646 19.44 142.646 16.28V9.72H141.646V9.32H142.646V6.1H144.666ZM158.28 20H156.26V12.24C156.26 10.56 155.58 9.72 154.3 9.72C153.04 9.72 152.08 10.56 152.08 12.24V20H150.06V5.3H152.08V10.58C152.5 9.62 153.34 9.12 154.76 9.12C157.1 9.12 158.28 10.54 158.28 12.64V20ZM168.374 14.48H162.174V17.08C162.174 18.76 162.854 19.8 164.254 19.8C165.674 19.8 166.354 18.76 166.354 17.68V16.28H168.374V16.88C168.374 19.44 167.114 20.2 164.254 20.2C161.394 20.2 160.154 19.44 160.154 16.28V13.04C160.154 9.88 161.394 9.12 164.254 9.12C167.114 9.12 168.374 9.88 168.374 12.44V14.48ZM162.174 14.08H166.354V11.64C166.354 10.56 165.674 9.52 164.254 9.52C162.854 9.52 162.174 10.56 162.174 12.24V14.08ZM182.091 20H180.071V12.24C180.071 10.56 179.511 9.52 178.311 9.52C177.111 9.52 176.551 10.56 176.551 12.24V20H174.531V13.04C174.531 9.88 175.671 9.12 178.071 9.12C179.551 9.12 180.611 9.4 181.071 10.62C181.451 9.4 182.611 9.12 184.071 9.12C186.471 9.12 187.631 9.88 187.631 13.04V20H185.611V12.24C185.611 10.56 185.051 9.52 183.851 9.52C182.651 9.52 182.091 10.56 182.091 12.24V20ZM197.829 9.32V16.28C197.829 19.44 196.569 20.2 193.709 20.2C190.849 20.2 189.609 19.44 189.609 16.28V9.32H191.629V17.08C191.629 18.76 192.309 19.8 193.709 19.8C195.129 19.8 195.809 18.76 195.809 17.08V9.32H197.829ZM199.585 16.28H201.605V17.68C201.605 18.76 202.285 19.8 203.685 19.8C204.965 19.8 205.745 18.94 205.745 17.8C205.745 14.58 199.585 16.78 199.585 12.5C199.585 10.28 201.245 9.12 203.645 9.12C206.225 9.12 207.605 10.44 207.605 12.44V13.04H205.585V11.64C205.585 10.56 205.105 9.52 203.685 9.52C202.425 9.52 201.645 10.36 201.645 11.6C201.645 15 207.805 12.82 207.805 16.94C207.805 19.08 206.145 20.2 203.685 20.2C201.045 20.2 199.585 18.86 199.585 16.88V16.28ZM209.115 7.2C209.115 6.48 209.695 5.9 210.415 5.9C211.155 5.9 211.735 6.48 211.735 7.2C211.735 7.94 211.155 8.52 210.415 8.52C209.695 8.52 209.115 7.94 209.115 7.2ZM209.415 20V9.32H211.435V20H209.415ZM221.46 13.04H219.44V11.64C219.44 10.56 218.76 9.52 217.34 9.52C215.94 9.52 215.26 10.56 215.26 12.24V17.08C215.26 18.76 215.94 19.8 217.34 19.8C218.76 19.8 219.44 18.76 219.44 17.68V16.28H221.46V16.88C221.46 19.44 220.2 20.2 217.34 20.2C214.48 20.2 213.24 19.44 213.24 16.28V13.04C213.24 9.88 214.48 9.12 217.34 9.12C220.2 9.12 221.46 9.88 221.46 12.44V13.04ZM33.12 43H31.1V41.74C30.68 42.7 29.84 43.2 28.42 43.2C26.06 43.2 24.9 41.78 24.9 39.68V36.04C24.9 32.88 26.14 32.12 29 32.12C31.86 32.12 33.12 32.88 33.12 36.04V43ZM28.86 42.6C30.14 42.6 31.1 41.76 31.1 40.08V35.24C31.1 33.56 30.42 32.52 29 32.52C27.6 32.52 26.92 33.56 26.92 35.24V40.08C26.92 41.76 27.6 42.6 28.86 42.6ZM43.3172 43H41.2972V35.24C41.2972 33.56 40.6172 32.52 39.1972 32.52C37.7972 32.52 37.1172 33.56 37.1172 35.24V43H35.0972V36.04C35.0972 32.88 36.3372 32.12 39.1972 32.12C42.0572 32.12 43.3172 32.88 43.3172 36.04V43ZM49.153 32.72C47.893 32.72 47.213 33.56 47.213 35.24V40.08C47.213 41.76 47.893 42.8 49.293 42.8C50.713 42.8 51.393 41.76 51.393 40.08V35.24C51.393 33.56 50.433 32.72 49.153 32.72ZM53.413 28.3V39.28C53.413 42.44 52.153 43.2 49.293 43.2C46.433 43.2 45.193 42.44 45.193 39.28V35.64C45.193 33.54 46.353 32.12 48.713 32.12C50.133 32.12 50.973 32.62 51.393 33.58V28.3H53.413ZM62.1275 43H60.1075V32.72H59.1075V32.32H60.1075V32.02C60.1075 28.86 61.1075 28.1 62.9875 28.1C64.8675 28.1 65.8475 28.86 65.8475 30.6V31.22H63.8475V30.2C63.8475 29.02 63.4475 28.5 62.9675 28.5C62.3275 28.5 62.1275 29.58 62.1275 31.22V32.32H64.9875V32.72H62.1275V43ZM73.7841 37.48H67.5841V40.08C67.5841 41.76 68.2641 42.8 69.6641 42.8C71.0841 42.8 71.7641 41.76 71.7641 40.68V39.28H73.7841V39.88C73.7841 42.44 72.5241 43.2 69.6641 43.2C66.8041 43.2 65.5641 42.44 65.5641 39.28V36.04C65.5641 32.88 66.8041 32.12 69.6641 32.12C72.5241 32.12 73.7841 32.88 73.7841 35.44V37.48ZM67.5841 37.08H71.7641V34.64C71.7641 33.56 71.0841 32.52 69.6641 32.52C68.2641 32.52 67.5841 33.56 67.5841 35.24V37.08ZM75.4245 39.28H77.4445V40.68C77.4445 41.76 78.1245 42.8 79.5245 42.8C80.8045 42.8 81.5845 41.94 81.5845 40.8C81.5845 37.58 75.4245 39.78 75.4245 35.5C75.4245 33.28 77.0845 32.12 79.4845 32.12C82.0645 32.12 83.4445 33.44 83.4445 35.44V36.04H81.4245V34.64C81.4245 33.56 80.9445 32.52 79.5245 32.52C78.2645 32.52 77.4845 33.36 77.4845 34.6C77.4845 38 83.6445 35.82 83.6445 39.94C83.6445 42.08 81.9845 43.2 79.5245 43.2C76.8845 43.2 75.4245 41.86 75.4245 39.88V39.28ZM87.5953 29.1V32.32H91.1153V32.72H87.5953V40.08C87.5953 41.76 87.9953 42.8 88.5753 42.8C89.0153 42.8 89.5153 42.28 89.5153 41.08V40.08H91.5153V40.68C91.5153 42.44 90.5353 43.2 88.5553 43.2C86.5753 43.2 85.5753 42.44 85.5753 39.28V32.72H84.5753V32.32H85.5753V29.1H87.5953ZM92.6702 30.2C92.6702 29.48 93.2502 28.9 93.9702 28.9C94.7102 28.9 95.2902 29.48 95.2902 30.2C95.2902 30.94 94.7102 31.52 93.9702 31.52C93.2502 31.52 92.6702 30.94 92.6702 30.2ZM92.9702 43V32.32H94.9902V43H92.9702ZM105.055 32.32L104.155 39.28C103.755 42.42 102.795 43.2 100.755 43.2C98.6945 43.2 97.7345 42.42 97.3345 39.28L96.4345 32.32H98.4745L99.4545 40.08C99.6745 41.76 100.135 42.8 100.755 42.8C101.355 42.8 101.815 41.76 102.035 40.08L103.015 32.32H105.055ZM114.741 37.48H108.541V40.08C108.541 41.76 109.221 42.8 110.621 42.8C112.041 42.8 112.721 41.76 112.721 40.68V39.28H114.741V39.88C114.741 42.44 113.481 43.2 110.621 43.2C107.761 43.2 106.521 42.44 106.521 39.28V36.04C106.521 32.88 107.761 32.12 110.621 32.12C113.481 32.12 114.741 32.88 114.741 35.44V37.48ZM108.541 37.08H112.721V34.64C112.721 33.56 112.041 32.52 110.621 32.52C109.221 32.52 108.541 33.56 108.541 35.24V37.08ZM129.018 37.48H122.818V40.08C122.818 41.76 123.498 42.8 124.898 42.8C126.318 42.8 126.998 41.76 126.998 40.68V39.28H129.018V39.88C129.018 42.44 127.758 43.2 124.898 43.2C122.038 43.2 120.798 42.44 120.798 39.28V36.04C120.798 32.88 122.038 32.12 124.898 32.12C127.758 32.12 129.018 32.88 129.018 35.44V37.48ZM122.818 37.08H126.998V34.64C126.998 33.56 126.318 32.52 124.898 32.52C123.498 32.52 122.818 33.56 122.818 35.24V37.08ZM130.839 43V40.42C130.839 38.22 131.619 37.84 133.039 37.38C131.559 36.98 130.839 36.84 130.839 34.88V32.32H132.859V34.94C132.859 36.78 133.339 37.14 134.679 37.14C136.019 37.14 136.499 36.78 136.499 34.94V32.32H138.519V34.88C138.519 36.84 137.779 36.98 136.319 37.38C137.719 37.84 138.519 38.22 138.519 40.42V43H136.499V40.28C136.499 38.18 136.019 37.58 134.679 37.58C133.339 37.58 132.859 38.18 132.859 40.28V43H130.839ZM144.728 42.6C146.008 42.6 146.688 41.76 146.688 40.08V35.24C146.688 33.56 146.008 32.52 144.588 32.52C143.188 32.52 142.508 33.56 142.508 35.24V40.08C142.508 41.76 143.468 42.6 144.728 42.6ZM140.488 47.02V36.04C140.488 32.88 141.728 32.12 144.588 32.12C147.448 32.12 148.708 32.88 148.708 36.04V39.68C148.708 41.78 147.528 43.2 145.188 43.2C143.768 43.2 142.928 42.7 142.508 41.74V47.02H140.488ZM158.725 37.48H152.525V40.08C152.525 41.76 153.205 42.8 154.605 42.8C156.025 42.8 156.705 41.76 156.705 40.68V39.28H158.725V39.88C158.725 42.44 157.465 43.2 154.605 43.2C151.745 43.2 150.505 42.44 150.505 39.28V36.04C150.505 32.88 151.745 32.12 154.605 32.12C157.465 32.12 158.725 32.88 158.725 35.44V37.48ZM152.525 37.08H156.705V34.64C156.705 33.56 156.025 32.52 154.605 32.52C153.205 32.52 152.525 33.56 152.525 35.24V37.08ZM166.366 32.12V34.54C165.746 33.98 165.006 33.72 164.346 33.72C163.426 33.72 162.686 34.26 162.686 35.24V43H160.666V32.32H162.686V34.18C163.246 32.46 165.006 31.92 166.366 32.12ZM167.377 30.2C167.377 29.48 167.957 28.9 168.677 28.9C169.417 28.9 169.997 29.48 169.997 30.2C169.997 30.94 169.417 31.52 168.677 31.52C167.957 31.52 167.377 30.94 167.377 30.2ZM167.677 43V32.32H169.697V43H167.677ZM179.722 37.48H173.522V40.08C173.522 41.76 174.202 42.8 175.602 42.8C177.022 42.8 177.702 41.76 177.702 40.68V39.28H179.722V39.88C179.722 42.44 178.462 43.2 175.602 43.2C172.742 43.2 171.502 42.44 171.502 39.28V36.04C171.502 32.88 172.742 32.12 175.602 32.12C178.462 32.12 179.722 32.88 179.722 35.44V37.48ZM173.522 37.08H177.702V34.64C177.702 33.56 177.022 32.52 175.602 32.52C174.202 32.52 173.522 33.56 173.522 35.24V37.08ZM189.782 43H187.762V35.24C187.762 33.56 187.082 32.52 185.662 32.52C184.262 32.52 183.582 33.56 183.582 35.24V43H181.562V36.04C181.562 32.88 182.802 32.12 185.662 32.12C188.522 32.12 189.782 32.88 189.782 36.04V43ZM199.878 36.04H197.858V34.64C197.858 33.56 197.178 32.52 195.758 32.52C194.358 32.52 193.678 33.56 193.678 35.24V40.08C193.678 41.76 194.358 42.8 195.758 42.8C197.178 42.8 197.858 41.76 197.858 40.68V39.28H199.878V39.88C199.878 42.44 198.618 43.2 195.758 43.2C192.898 43.2 191.658 42.44 191.658 39.28V36.04C191.658 32.88 192.898 32.12 195.758 32.12C198.618 32.12 199.878 32.88 199.878 35.44V36.04ZM209.761 37.48H203.561V40.08C203.561 41.76 204.241 42.8 205.641 42.8C207.061 42.8 207.741 41.76 207.741 40.68V39.28H209.761V39.88C209.761 42.44 208.501 43.2 205.641 43.2C202.781 43.2 201.541 42.44 201.541 39.28V36.04C201.541 32.88 202.781 32.12 205.641 32.12C208.501 32.12 209.761 32.88 209.761 35.44V37.48ZM203.561 37.08H207.741V34.64C207.741 33.56 207.061 32.52 205.641 32.52C204.241 32.52 203.561 33.56 203.561 35.24V37.08Z" fill="black"/>
<path d="M2 8C2 6.34315 3.34315 5 5 5H15C16.6569 5 18 6.34315 18 8V18C18 19.6569 16.6569 21 15 21H5C3.34315 21 2 19.6569 2 18V8Z" fill="black" stroke="#003556" stroke-width="2"/>
<path d="M2 10.5714L8.6 17L24 2" stroke="#8DFF00" stroke-width="3"/>
<path d="M34.46 153H32.26L31.72 147.78H27.36L26.82 153H24.6L25.7 142.42C26.04 139.26 27.38 138.1 29.54 138.1C31.7 138.1 33.04 139.26 33.36 142.42L34.46 153ZM27.4 147.38H31.66L31.04 141.22C30.86 139.52 30.22 138.5 29.52 138.5C28.78 138.5 28.18 139.58 28.02 141.22L27.4 147.38ZM44.1942 146.04H42.1742V144.64C42.1742 143.56 41.4942 142.52 40.0742 142.52C38.6742 142.52 37.9942 143.56 37.9942 145.24V150.08C37.9942 151.76 38.6742 152.8 40.0742 152.8C41.4942 152.8 42.1742 151.76 42.1742 150.68V149.28H44.1942V149.88C44.1942 152.44 42.9342 153.2 40.0742 153.2C37.2142 153.2 35.9742 152.44 35.9742 149.28V146.04C35.9742 142.88 37.2142 142.12 40.0742 142.12C42.9342 142.12 44.1942 142.88 44.1942 145.44V146.04ZM54.077 146.04H52.057V144.64C52.057 143.56 51.377 142.52 49.957 142.52C48.557 142.52 47.877 143.56 47.877 145.24V150.08C47.877 151.76 48.557 152.8 49.957 152.8C51.377 152.8 52.057 151.76 52.057 150.68V149.28H54.077V149.88C54.077 152.44 52.817 153.2 49.957 153.2C47.097 153.2 45.857 152.44 45.857 149.28V146.04C45.857 142.88 47.097 142.12 49.957 142.12C52.817 142.12 54.077 142.88 54.077 145.44V146.04ZM63.9598 147.48H57.7598V150.08C57.7598 151.76 58.4398 152.8 59.8398 152.8C61.2598 152.8 61.9398 151.76 61.9398 150.68V149.28H63.9598V149.88C63.9598 152.44 62.6998 153.2 59.8398 153.2C56.9798 153.2 55.7398 152.44 55.7398 149.28V146.04C55.7398 142.88 56.9798 142.12 59.8398 142.12C62.6998 142.12 63.9598 142.88 63.9598 145.44V147.48ZM57.7598 147.08H61.9398V144.64C61.9398 143.56 61.2598 142.52 59.8398 142.52C58.4398 142.52 57.7598 143.56 57.7598 145.24V147.08ZM65.6003 149.28H67.6203V150.68C67.6203 151.76 68.3003 152.8 69.7003 152.8C70.9803 152.8 71.7603 151.94 71.7603 150.8C71.7603 147.58 65.6003 149.78 65.6003 145.5C65.6003 143.28 67.2603 142.12 69.6603 142.12C72.2403 142.12 73.6203 143.44 73.6203 145.44V146.04H71.6003V144.64C71.6003 143.56 71.1203 142.52 69.7003 142.52C68.4403 142.52 67.6603 143.36 67.6603 144.6C67.6603 148 73.8203 145.82 73.8203 149.94C73.8203 152.08 72.1603 153.2 69.7003 153.2C67.0603 153.2 65.6003 151.86 65.6003 149.88V149.28ZM75.3269 149.28H77.3469V150.68C77.3469 151.76 78.0269 152.8 79.4269 152.8C80.7069 152.8 81.4869 151.94 81.4869 150.8C81.4869 147.58 75.3269 149.78 75.3269 145.5C75.3269 143.28 76.9869 142.12 79.3869 142.12C81.9669 142.12 83.3469 143.44 83.3469 145.44V146.04H81.3269V144.64C81.3269 143.56 80.8469 142.52 79.4269 142.52C78.1669 142.52 77.3869 143.36 77.3869 144.6C77.3869 148 83.5469 145.82 83.5469 149.94C83.5469 152.08 81.8869 153.2 79.4269 153.2C76.7869 153.2 75.3269 151.86 75.3269 149.88V149.28ZM91.9703 139.1V142.32H95.4903V142.72H91.9703V150.08C91.9703 151.76 92.3703 152.8 92.9503 152.8C93.3903 152.8 93.8903 152.28 93.8903 151.08V150.08H95.8903V150.68C95.8903 152.44 94.9103 153.2 92.9303 153.2C90.9503 153.2 89.9503 152.44 89.9503 149.28V142.72H88.9503V142.32H89.9503V139.1H91.9703ZM97.1852 149.28V146.04C97.1852 142.88 98.4252 142.12 101.285 142.12C104.145 142.12 105.405 142.88 105.405 146.04V149.28C105.405 152.44 104.145 153.2 101.285 153.2C98.4252 153.2 97.1852 152.44 97.1852 149.28ZM101.285 152.8C102.705 152.8 103.385 151.76 103.385 150.08V145.24C103.385 143.56 102.705 142.52 101.285 142.52C99.8852 142.52 99.2052 143.56 99.2052 145.24V150.08C99.2052 151.76 99.8852 152.8 101.285 152.8ZM119.162 153H117.142V145.24C117.142 143.56 116.582 142.52 115.382 142.52C114.182 142.52 113.622 143.56 113.622 145.24V153H111.602V146.04C111.602 142.88 112.742 142.12 115.142 142.12C116.622 142.12 117.682 142.4 118.142 143.62C118.522 142.4 119.682 142.12 121.142 142.12C123.542 142.12 124.702 142.88 124.702 146.04V153H122.682V145.24C122.682 143.56 122.122 142.52 120.922 142.52C119.722 142.52 119.162 143.56 119.162 145.24V153ZM126.599 149.28V146.04C126.599 142.88 127.839 142.12 130.699 142.12C133.559 142.12 134.819 142.88 134.819 146.04V149.28C134.819 152.44 133.559 153.2 130.699 153.2C127.839 153.2 126.599 152.44 126.599 149.28ZM130.699 152.8C132.119 152.8 132.799 151.76 132.799 150.08V145.24C132.799 143.56 132.119 142.52 130.699 142.52C129.299 142.52 128.619 143.56 128.619 145.24V150.08C128.619 151.76 129.299 152.8 130.699 152.8ZM142.499 142.12V144.54C141.879 143.98 141.139 143.72 140.479 143.72C139.559 143.72 138.819 144.26 138.819 145.24V153H136.799V142.32H138.819V144.18C139.379 142.46 141.139 141.92 142.499 142.12ZM151.87 147.48H145.67V150.08C145.67 151.76 146.35 152.8 147.75 152.8C149.17 152.8 149.85 151.76 149.85 150.68V149.28H151.87V149.88C151.87 152.44 150.61 153.2 147.75 153.2C144.89 153.2 143.65 152.44 143.65 149.28V146.04C143.65 142.88 144.89 142.12 147.75 142.12C150.61 142.12 151.87 142.88 151.87 145.44V147.48ZM145.67 147.08H149.85V144.64C149.85 143.56 149.17 142.52 147.75 142.52C146.35 142.52 145.67 143.56 145.67 145.24V147.08ZM161.887 142.72C160.627 142.72 159.947 143.56 159.947 145.24V150.08C159.947 151.76 160.627 152.8 162.027 152.8C163.447 152.8 164.127 151.76 164.127 150.08V145.24C164.127 143.56 163.167 142.72 161.887 142.72ZM166.147 138.3V149.28C166.147 152.44 164.887 153.2 162.027 153.2C159.167 153.2 157.927 152.44 157.927 149.28V145.64C157.927 143.54 159.087 142.12 161.447 142.12C162.867 142.12 163.707 142.62 164.127 143.58V138.3H166.147ZM167.885 140.2C167.885 139.48 168.465 138.9 169.185 138.9C169.925 138.9 170.505 139.48 170.505 140.2C170.505 140.94 169.925 141.52 169.185 141.52C168.465 141.52 167.885 140.94 167.885 140.2ZM168.185 153V142.32H170.205V153H168.185ZM177.792 142.12V144.54C177.172 143.98 176.432 143.72 175.772 143.72C174.852 143.72 174.112 144.26 174.112 145.24V153H172.092V142.32H174.112V144.18C174.672 142.46 176.432 141.92 177.792 142.12ZM187.163 147.48H180.963V150.08C180.963 151.76 181.643 152.8 183.043 152.8C184.463 152.8 185.143 151.76 185.143 150.68V149.28H187.163V149.88C187.163 152.44 185.903 153.2 183.043 153.2C180.183 153.2 178.943 152.44 178.943 149.28V146.04C178.943 142.88 180.183 142.12 183.043 142.12C185.903 142.12 187.163 142.88 187.163 145.44V147.48ZM180.963 147.08H185.143V144.64C185.143 143.56 184.463 142.52 183.043 142.52C181.643 142.52 180.963 143.56 180.963 145.24V147.08ZM197.143 146.04H195.123V144.64C195.123 143.56 194.443 142.52 193.023 142.52C191.623 142.52 190.943 143.56 190.943 145.24V150.08C190.943 151.76 191.623 152.8 193.023 152.8C194.443 152.8 195.123 151.76 195.123 150.68V149.28H197.143V149.88C197.143 152.44 195.883 153.2 193.023 153.2C190.163 153.2 188.923 152.44 188.923 149.28V146.04C188.923 142.88 190.163 142.12 193.023 142.12C195.883 142.12 197.143 142.88 197.143 145.44V146.04ZM201.209 139.1V142.32H204.729V142.72H201.209V150.08C201.209 151.76 201.609 152.8 202.189 152.8C202.629 152.8 203.129 152.28 203.129 151.08V150.08H205.129V150.68C205.129 152.44 204.149 153.2 202.169 153.2C200.189 153.2 199.189 152.44 199.189 149.28V142.72H198.189V142.32H199.189V139.1H201.209ZM33.16 165.32L32.26 172.28C31.86 175.42 30.9 176.2 28.86 176.2C26.8 176.2 25.84 175.42 25.44 172.28L24.54 165.32H26.58L27.56 173.08C27.78 174.76 28.24 175.8 28.86 175.8C29.46 175.8 29.92 174.76 30.14 173.08L31.12 165.32H33.16ZM34.3303 163.2C34.3303 162.48 34.9103 161.9 35.6303 161.9C36.3703 161.9 36.9503 162.48 36.9503 163.2C36.9503 163.94 36.3703 164.52 35.6303 164.52C34.9103 164.52 34.3303 163.94 34.3303 163.2ZM34.6303 176V165.32H36.6503V176H34.6303ZM46.6747 170.48H40.4747V173.08C40.4747 174.76 41.1547 175.8 42.5547 175.8C43.9747 175.8 44.6547 174.76 44.6547 173.68V172.28H46.6747V172.88C46.6747 175.44 45.4147 176.2 42.5547 176.2C39.6947 176.2 38.4547 175.44 38.4547 172.28V169.04C38.4547 165.88 39.6947 165.12 42.5547 165.12C45.4147 165.12 46.6747 165.88 46.6747 168.44V170.48ZM40.4747 170.08H44.6547V167.64C44.6547 166.56 43.9747 165.52 42.5547 165.52C41.1547 165.52 40.4747 166.56 40.4747 168.24V170.08ZM56.0952 165.32V173.08C56.0952 174.76 56.6552 175.8 57.8552 175.8C59.0552 175.8 59.6152 174.76 59.6152 173.08V165.32H61.6352V172.28C61.6352 175.44 60.4752 176.2 58.0752 176.2C56.6152 176.2 55.4552 175.92 55.0752 174.7C54.6152 175.92 53.5552 176.2 52.0752 176.2C49.6752 176.2 48.5352 175.44 48.5352 172.28V165.32H50.5552V173.08C50.5552 174.76 51.1152 175.8 52.3152 175.8C53.5152 175.8 54.0752 174.76 54.0752 173.08V165.32H56.0952ZM67.8297 172.28V169.04C67.8297 165.88 69.0697 165.12 71.9297 165.12C74.7897 165.12 76.0497 165.88 76.0497 169.04V172.28C76.0497 175.44 74.7897 176.2 71.9297 176.2C69.0697 176.2 67.8297 175.44 67.8297 172.28ZM71.9297 175.8C73.3497 175.8 74.0297 174.76 74.0297 173.08V168.24C74.0297 166.56 73.3497 165.52 71.9297 165.52C70.5297 165.52 69.8497 166.56 69.8497 168.24V173.08C69.8497 174.76 70.5297 175.8 71.9297 175.8ZM80.1939 176H78.1739V165.72H77.1739V165.32H78.1739V165.02C78.1739 161.86 79.1739 161.1 81.0539 161.1C82.9339 161.1 83.9139 161.86 83.9139 163.6V164.22H81.9139V163.2C81.9139 162.02 81.5139 161.5 81.0339 161.5C80.3939 161.5 80.1939 162.58 80.1939 164.22V165.32H83.0539V165.72H80.1939V176ZM92.658 175.6C93.938 175.6 94.618 174.76 94.618 173.08V168.24C94.618 166.56 93.938 165.52 92.518 165.52C91.118 165.52 90.438 166.56 90.438 168.24V173.08C90.438 174.76 91.398 175.6 92.658 175.6ZM88.418 180.02V169.04C88.418 165.88 89.658 165.12 92.518 165.12C95.378 165.12 96.638 165.88 96.638 169.04V172.68C96.638 174.78 95.458 176.2 93.118 176.2C91.698 176.2 90.858 175.7 90.438 174.74V180.02H88.418ZM106.655 170.48H100.455V173.08C100.455 174.76 101.135 175.8 102.535 175.8C103.955 175.8 104.635 174.76 104.635 173.68V172.28H106.655V172.88C106.655 175.44 105.395 176.2 102.535 176.2C99.6752 176.2 98.4352 175.44 98.4352 172.28V169.04C98.4352 165.88 99.6752 165.12 102.535 165.12C105.395 165.12 106.655 165.88 106.655 168.44V170.48ZM100.455 170.08H104.635V167.64C104.635 166.56 103.955 165.52 102.535 165.52C101.135 165.52 100.455 166.56 100.455 168.24V170.08ZM114.296 165.12V167.54C113.676 166.98 112.936 166.72 112.276 166.72C111.356 166.72 110.616 167.26 110.616 168.24V176H108.596V165.32H110.616V167.18C111.176 165.46 112.936 164.92 114.296 165.12ZM117.987 176H115.967V165.72H114.967V165.32H115.967V165.02C115.967 161.86 116.967 161.1 118.847 161.1C120.727 161.1 121.707 161.86 121.707 163.6V164.22H119.707V163.2C119.707 162.02 119.307 161.5 118.827 161.5C118.187 161.5 117.987 162.58 117.987 164.22V165.32H120.847V165.72H117.987V176ZM121.423 172.28V169.04C121.423 165.88 122.663 165.12 125.523 165.12C128.383 165.12 129.643 165.88 129.643 169.04V172.28C129.643 175.44 128.383 176.2 125.523 176.2C122.663 176.2 121.423 175.44 121.423 172.28ZM125.523 175.8C126.943 175.8 127.623 174.76 127.623 173.08V168.24C127.623 166.56 126.943 165.52 125.523 165.52C124.123 165.52 123.443 166.56 123.443 168.24V173.08C123.443 174.76 124.123 175.8 125.523 175.8ZM137.323 165.12V167.54C136.703 166.98 135.963 166.72 135.303 166.72C134.383 166.72 133.643 167.26 133.643 168.24V176H131.623V165.32H133.643V167.18C134.203 165.46 135.963 164.92 137.323 165.12ZM146.134 176H144.114V168.24C144.114 166.56 143.554 165.52 142.354 165.52C141.154 165.52 140.594 166.56 140.594 168.24V176H138.574V169.04C138.574 165.88 139.714 165.12 142.114 165.12C143.594 165.12 144.654 165.4 145.114 166.62C145.494 165.4 146.654 165.12 148.114 165.12C150.514 165.12 151.674 165.88 151.674 169.04V176H149.654V168.24C149.654 166.56 149.094 165.52 147.894 165.52C146.694 165.52 146.134 166.56 146.134 168.24V176ZM161.792 170.48H155.592V173.08C155.592 174.76 156.272 175.8 157.672 175.8C159.092 175.8 159.772 174.76 159.772 173.68V172.28H161.792V172.88C161.792 175.44 160.532 176.2 157.672 176.2C154.812 176.2 153.572 175.44 153.572 172.28V169.04C153.572 165.88 154.812 165.12 157.672 165.12C160.532 165.12 161.792 165.88 161.792 168.44V170.48ZM155.592 170.08H159.772V167.64C159.772 166.56 159.092 165.52 157.672 165.52C156.272 165.52 155.592 166.56 155.592 168.24V170.08ZM169.432 165.12V167.54C168.812 166.98 168.072 166.72 167.412 166.72C166.492 166.72 165.752 167.26 165.752 168.24V176H163.732V165.32H165.752V167.18C166.312 165.46 168.072 164.92 169.432 165.12ZM170.464 172.28H172.484V173.68C172.484 174.76 173.164 175.8 174.564 175.8C175.844 175.8 176.624 174.94 176.624 173.8C176.624 170.58 170.464 172.78 170.464 168.5C170.464 166.28 172.124 165.12 174.524 165.12C177.104 165.12 178.484 166.44 178.484 168.44V169.04H176.464V167.64C176.464 166.56 175.984 165.52 174.564 165.52C173.304 165.52 172.524 166.36 172.524 167.6C172.524 171 178.684 168.82 178.684 172.94C178.684 175.08 177.024 176.2 174.564 176.2C171.924 176.2 170.464 174.86 170.464 172.88V172.28ZM184.607 172.28V169.04C184.607 165.88 185.847 165.12 188.707 165.12C191.567 165.12 192.827 165.88 192.827 169.04V172.28C192.827 175.44 191.567 176.2 188.707 176.2C185.847 176.2 184.607 175.44 184.607 172.28ZM188.707 175.8C190.127 175.8 190.807 174.76 190.807 173.08V168.24C190.807 166.56 190.127 165.52 188.707 165.52C187.307 165.52 186.627 166.56 186.627 168.24V173.08C186.627 174.76 187.307 175.8 188.707 175.8ZM202.927 176H200.907V168.24C200.907 166.56 200.227 165.52 198.807 165.52C197.407 165.52 196.727 166.56 196.727 168.24V176H194.707V169.04C194.707 165.88 195.947 165.12 198.807 165.12C201.667 165.12 202.927 165.88 202.927 169.04V176ZM24.78 195.28H26.8V196.68C26.8 197.76 27.48 198.8 28.88 198.8C30.16 198.8 30.94 197.94 30.94 196.8C30.94 193.58 24.78 195.78 24.78 191.5C24.78 189.28 26.44 188.12 28.84 188.12C31.42 188.12 32.8 189.44 32.8 191.44V192.04H30.78V190.64C30.78 189.56 30.3 188.52 28.88 188.52C27.62 188.52 26.84 189.36 26.84 190.6C26.84 194 33 191.82 33 195.94C33 198.08 31.34 199.2 28.88 199.2C26.24 199.2 24.78 197.86 24.78 195.88V195.28ZM36.9508 185.1V188.32H40.4708V188.72H36.9508V196.08C36.9508 197.76 37.3508 198.8 37.9308 198.8C38.3708 198.8 38.8708 198.28 38.8708 197.08V196.08H40.8708V196.68C40.8708 198.44 39.8908 199.2 37.9108 199.2C35.9308 199.2 34.9308 198.44 34.9308 195.28V188.72H33.9308V188.32H34.9308V185.1H36.9508ZM50.3856 199H48.3656V197.74C47.9456 198.7 47.1056 199.2 45.6856 199.2C43.3256 199.2 42.1656 197.78 42.1656 195.68V192.04C42.1656 188.88 43.4056 188.12 46.2656 188.12C49.1256 188.12 50.3856 188.88 50.3856 192.04V199ZM46.1256 198.6C47.4056 198.6 48.3656 197.76 48.3656 196.08V191.24C48.3656 189.56 47.6856 188.52 46.2656 188.52C44.8656 188.52 44.1856 189.56 44.1856 191.24V196.08C44.1856 197.76 44.8656 198.6 46.1256 198.6ZM56.2428 198.6C57.5228 198.6 58.4828 197.76 58.4828 196.08V191.24C58.4828 189.56 57.8028 188.52 56.3828 188.52C54.9828 188.52 54.3028 189.56 54.3028 191.24V196.08C54.3028 197.76 54.9828 198.6 56.2428 198.6ZM52.2828 199.9H54.3028V201.12C54.3028 202.2 54.9828 202.62 56.3828 202.62C57.8028 202.62 58.4828 201.6 58.4828 199.9V197.74C58.0628 198.7 57.2228 199.2 55.8028 199.2C53.4428 199.2 52.2828 197.78 52.2828 195.68V192.04C52.2828 188.88 53.5228 188.12 56.3828 188.12C59.2428 188.12 60.5028 188.88 60.5028 192.04V199.1C60.5028 202.26 59.2428 203.02 56.3828 203.02C53.5228 203.02 52.2828 202.86 52.2828 200.3V199.9ZM70.62 193.48H64.42V196.08C64.42 197.76 65.1 198.8 66.5 198.8C67.92 198.8 68.6 197.76 68.6 196.68V195.28H70.62V195.88C70.62 198.44 69.36 199.2 66.5 199.2C63.64 199.2 62.4 198.44 62.4 195.28V192.04C62.4 188.88 63.64 188.12 66.5 188.12C69.36 188.12 70.62 188.88 70.62 191.44V193.48ZM64.42 193.08H68.6V190.64C68.6 189.56 67.92 188.52 66.5 188.52C65.1 188.52 64.42 189.56 64.42 191.24V193.08Z" fill="black"/>
<path d="M2 141C2 139.343 3.34315 138 5 138H15C16.6569 138 18 139.343 18 141V151C18 152.657 16.6569 154 15 154H5C3.34315 154 2 152.657 2 151V141Z" fill="black" stroke="#003556" stroke-width="2"/>
<path d="M2 143.571L8.6 150L24 135" stroke="#8DFF00" stroke-width="3"/>
<path d="M34.46 75H32.26L31.72 69.78H27.36L26.82 75H24.6L25.7 64.42C26.04 61.26 27.38 60.1 29.54 60.1C31.7 60.1 33.04 61.26 33.36 64.42L34.46 75ZM27.4 69.38H31.66L31.04 63.22C30.86 61.52 30.22 60.5 29.52 60.5C28.78 60.5 28.18 61.58 28.02 63.22L27.4 69.38ZM44.1942 68.04H42.1742V66.64C42.1742 65.56 41.4942 64.52 40.0742 64.52C38.6742 64.52 37.9942 65.56 37.9942 67.24V72.08C37.9942 73.76 38.6742 74.8 40.0742 74.8C41.4942 74.8 42.1742 73.76 42.1742 72.68V71.28H44.1942V71.88C44.1942 74.44 42.9342 75.2 40.0742 75.2C37.2142 75.2 35.9742 74.44 35.9742 71.28V68.04C35.9742 64.88 37.2142 64.12 40.0742 64.12C42.9342 64.12 44.1942 64.88 44.1942 67.44V68.04ZM54.077 68.04H52.057V66.64C52.057 65.56 51.377 64.52 49.957 64.52C48.557 64.52 47.877 65.56 47.877 67.24V72.08C47.877 73.76 48.557 74.8 49.957 74.8C51.377 74.8 52.057 73.76 52.057 72.68V71.28H54.077V71.88C54.077 74.44 52.817 75.2 49.957 75.2C47.097 75.2 45.857 74.44 45.857 71.28V68.04C45.857 64.88 47.097 64.12 49.957 64.12C52.817 64.12 54.077 64.88 54.077 67.44V68.04ZM63.9598 69.48H57.7598V72.08C57.7598 73.76 58.4398 74.8 59.8398 74.8C61.2598 74.8 61.9398 73.76 61.9398 72.68V71.28H63.9598V71.88C63.9598 74.44 62.6998 75.2 59.8398 75.2C56.9798 75.2 55.7398 74.44 55.7398 71.28V68.04C55.7398 64.88 56.9798 64.12 59.8398 64.12C62.6998 64.12 63.9598 64.88 63.9598 67.44V69.48ZM57.7598 69.08H61.9398V66.64C61.9398 65.56 61.2598 64.52 59.8398 64.52C58.4398 64.52 57.7598 65.56 57.7598 67.24V69.08ZM65.6003 71.28H67.6203V72.68C67.6203 73.76 68.3003 74.8 69.7003 74.8C70.9803 74.8 71.7603 73.94 71.7603 72.8C71.7603 69.58 65.6003 71.78 65.6003 67.5C65.6003 65.28 67.2603 64.12 69.6603 64.12C72.2403 64.12 73.6203 65.44 73.6203 67.44V68.04H71.6003V66.64C71.6003 65.56 71.1203 64.52 69.7003 64.52C68.4403 64.52 67.6603 65.36 67.6603 66.6C67.6603 70 73.8203 67.82 73.8203 71.94C73.8203 74.08 72.1603 75.2 69.7003 75.2C67.0603 75.2 65.6003 73.86 65.6003 71.88V71.28ZM75.3269 71.28H77.3469V72.68C77.3469 73.76 78.0269 74.8 79.4269 74.8C80.7069 74.8 81.4869 73.94 81.4869 72.8C81.4869 69.58 75.3269 71.78 75.3269 67.5C75.3269 65.28 76.9869 64.12 79.3869 64.12C81.9669 64.12 83.3469 65.44 83.3469 67.44V68.04H81.3269V66.64C81.3269 65.56 80.8469 64.52 79.4269 64.52C78.1669 64.52 77.3869 65.36 77.3869 66.6C77.3869 70 83.5469 67.82 83.5469 71.94C83.5469 74.08 81.8869 75.2 79.4269 75.2C76.7869 75.2 75.3269 73.86 75.3269 71.88V71.28ZM91.9703 61.1V64.32H95.4903V64.72H91.9703V72.08C91.9703 73.76 92.3703 74.8 92.9503 74.8C93.3903 74.8 93.8903 74.28 93.8903 73.08V72.08H95.8903V72.68C95.8903 74.44 94.9103 75.2 92.9303 75.2C90.9503 75.2 89.9503 74.44 89.9503 71.28V64.72H88.9503V64.32H89.9503V61.1H91.9703ZM97.1852 71.28V68.04C97.1852 64.88 98.4252 64.12 101.285 64.12C104.145 64.12 105.405 64.88 105.405 68.04V71.28C105.405 74.44 104.145 75.2 101.285 75.2C98.4252 75.2 97.1852 74.44 97.1852 71.28ZM101.285 74.8C102.705 74.8 103.385 73.76 103.385 72.08V67.24C103.385 65.56 102.705 64.52 101.285 64.52C99.8852 64.52 99.2052 65.56 99.2052 67.24V72.08C99.2052 73.76 99.8852 74.8 101.285 74.8ZM119.722 69.48H113.522V72.08C113.522 73.76 114.202 74.8 115.602 74.8C117.022 74.8 117.702 73.76 117.702 72.68V71.28H119.722V71.88C119.722 74.44 118.462 75.2 115.602 75.2C112.742 75.2 111.502 74.44 111.502 71.28V68.04C111.502 64.88 112.742 64.12 115.602 64.12C118.462 64.12 119.722 64.88 119.722 67.44V69.48ZM113.522 69.08H117.702V66.64C117.702 65.56 117.022 64.52 115.602 64.52C114.202 64.52 113.522 65.56 113.522 67.24V69.08ZM129.702 75H127.682V73.74C127.262 74.7 126.422 75.2 125.002 75.2C122.642 75.2 121.482 73.78 121.482 71.68V68.04C121.482 64.88 122.722 64.12 125.582 64.12C128.442 64.12 129.702 64.88 129.702 68.04V75ZM125.442 74.6C126.722 74.6 127.682 73.76 127.682 72.08V67.24C127.682 65.56 127.002 64.52 125.582 64.52C124.182 64.52 123.502 65.56 123.502 67.24V72.08C123.502 73.76 124.182 74.6 125.442 74.6ZM137.479 64.12V66.54C136.859 65.98 136.119 65.72 135.459 65.72C134.539 65.72 133.799 66.26 133.799 67.24V75H131.779V64.32H133.799V66.18C134.359 64.46 136.119 63.92 137.479 64.12ZM140.83 75H138.81V60.3H140.83V75ZM150.71 64.32V75.1C150.71 78.26 149.45 79.02 146.99 79.02C144.13 79.02 142.89 78.86 142.89 76.3V75.9H144.91V77.12C144.91 78.2 145.59 78.62 146.99 78.62C148.01 78.62 148.69 77.6 148.69 75.9V73.74C148.27 74.7 147.63 75.2 146.29 75.2C144.05 75.2 142.89 73.78 142.89 71.68V64.32H144.91V72.08C144.91 73.76 145.59 74.6 146.75 74.6C147.93 74.6 148.69 73.76 148.69 72.08V64.32H150.71ZM29.22 87.72C27.96 87.72 27 88.56 27 90.24V95.08C27 96.76 27.68 97.8 29.08 97.8C30.5 97.8 31.18 96.76 31.18 95.08V90.24C31.18 88.56 30.5 87.72 29.22 87.72ZM24.98 83.3H27V88.58C27.42 87.62 28.26 87.12 29.68 87.12C32.02 87.12 33.2 88.54 33.2 90.64V94.28C33.2 97.44 31.94 98.2 29.08 98.2C26.22 98.2 24.98 97.44 24.98 94.28V83.3ZM43.2177 98H41.1977V96.74C40.7777 97.7 39.9377 98.2 38.5177 98.2C36.1577 98.2 34.9977 96.78 34.9977 94.68V91.04C34.9977 87.88 36.2377 87.12 39.0977 87.12C41.9577 87.12 43.2177 87.88 43.2177 91.04V98ZM38.9577 97.6C40.2377 97.6 41.1977 96.76 41.1977 95.08V90.24C41.1977 88.56 40.5177 87.52 39.0977 87.52C37.6977 87.52 37.0177 88.56 37.0177 90.24V95.08C37.0177 96.76 37.6977 97.6 38.9577 97.6ZM53.3348 91.04H51.3148V89.64C51.3148 88.56 50.6348 87.52 49.2148 87.52C47.8148 87.52 47.1348 88.56 47.1348 90.24V95.08C47.1348 96.76 47.8148 97.8 49.2148 97.8C50.6348 97.8 51.3148 96.76 51.3148 95.68V94.28H53.3348V94.88C53.3348 97.44 52.0748 98.2 49.2148 98.2C46.3548 98.2 45.1148 97.44 45.1148 94.28V91.04C45.1148 87.88 46.3548 87.12 49.2148 87.12C52.0748 87.12 53.3348 87.88 53.3348 90.44V91.04ZM60.9777 89.94V87.32H62.9977V89.88C62.9977 91.84 62.2777 91.98 60.7977 92.38C62.1977 92.84 62.9977 93.22 62.9977 95.42V98H60.9777V95.28C60.9777 92.82 60.3177 92.56 58.3577 92.56H57.1977V98H55.1777V83.3H57.1977V92.16H58.3577C60.3177 92.16 60.9777 92.1 60.9777 89.94ZM64.7409 94.28H66.7609V95.68C66.7609 96.76 67.4409 97.8 68.8409 97.8C70.1209 97.8 70.9009 96.94 70.9009 95.8C70.9009 92.58 64.7409 94.78 64.7409 90.5C64.7409 88.28 66.4009 87.12 68.8009 87.12C71.3809 87.12 72.7609 88.44 72.7609 90.44V91.04H70.7409V89.64C70.7409 88.56 70.2609 87.52 68.8409 87.52C67.5809 87.52 66.8009 88.36 66.8009 89.6C66.8009 93 72.9609 90.82 72.9609 94.94C72.9609 97.08 71.3009 98.2 68.8409 98.2C66.2009 98.2 64.7409 96.86 64.7409 94.88V94.28ZM76.9117 84.1V87.32H80.4317V87.72H76.9117V95.08C76.9117 96.76 77.3117 97.8 77.8917 97.8C78.3317 97.8 78.8317 97.28 78.8317 96.08V95.08H80.8317V95.68C80.8317 97.44 79.8517 98.2 77.8717 98.2C75.8917 98.2 74.8917 97.44 74.8917 94.28V87.72H73.8917V87.32H74.8917V84.1H76.9117ZM90.3466 98H88.3266V96.74C87.9066 97.7 87.0666 98.2 85.6466 98.2C83.2866 98.2 82.1266 96.78 82.1266 94.68V91.04C82.1266 87.88 83.3666 87.12 86.2266 87.12C89.0866 87.12 90.3466 87.88 90.3466 91.04V98ZM86.0866 97.6C87.3666 97.6 88.3266 96.76 88.3266 95.08V90.24C88.3266 88.56 87.6466 87.52 86.2266 87.52C84.8266 87.52 84.1466 88.56 84.1466 90.24V95.08C84.1466 96.76 84.8266 97.6 86.0866 97.6ZM96.2038 97.6C97.4838 97.6 98.4438 96.76 98.4438 95.08V90.24C98.4438 88.56 97.7638 87.52 96.3438 87.52C94.9438 87.52 94.2638 88.56 94.2638 90.24V95.08C94.2638 96.76 94.9438 97.6 96.2038 97.6ZM92.2438 98.9H94.2638V100.12C94.2638 101.2 94.9438 101.62 96.3438 101.62C97.7638 101.62 98.4438 100.6 98.4438 98.9V96.74C98.0238 97.7 97.1838 98.2 95.7638 98.2C93.4038 98.2 92.2438 96.78 92.2438 94.68V91.04C92.2438 87.88 93.4838 87.12 96.3438 87.12C99.2038 87.12 100.464 87.88 100.464 91.04V98.1C100.464 101.26 99.2038 102.02 96.3438 102.02C93.4838 102.02 92.2438 101.86 92.2438 99.3V98.9ZM110.581 92.48H104.381V95.08C104.381 96.76 105.061 97.8 106.461 97.8C107.881 97.8 108.561 96.76 108.561 95.68V94.28H110.581V94.88C110.581 97.44 109.321 98.2 106.461 98.2C103.601 98.2 102.361 97.44 102.361 94.28V91.04C102.361 87.88 103.601 87.12 106.461 87.12C109.321 87.12 110.581 87.88 110.581 90.44V92.48ZM104.381 92.08H108.561V89.64C108.561 88.56 107.881 87.52 106.461 87.52C105.061 87.52 104.381 88.56 104.381 90.24V92.08ZM119.178 98H117.158V87.72H116.158V87.32H117.158V87.02C117.158 83.86 118.158 83.1 120.038 83.1C121.918 83.1 122.898 83.86 122.898 85.6V86.22H120.898V85.2C120.898 84.02 120.498 83.5 120.018 83.5C119.378 83.5 119.178 84.58 119.178 86.22V87.32H122.038V87.72H119.178V98ZM130.835 92.48H124.635V95.08C124.635 96.76 125.315 97.8 126.715 97.8C128.135 97.8 128.815 96.76 128.815 95.68V94.28H130.835V94.88C130.835 97.44 129.575 98.2 126.715 98.2C123.855 98.2 122.615 97.44 122.615 94.28V91.04C122.615 87.88 123.855 87.12 126.715 87.12C129.575 87.12 130.835 87.88 130.835 90.44V92.48ZM124.635 92.08H128.815V89.64C128.815 88.56 128.135 87.52 126.715 87.52C125.315 87.52 124.635 88.56 124.635 90.24V92.08ZM132.475 94.28H134.495V95.68C134.495 96.76 135.175 97.8 136.575 97.8C137.855 97.8 138.635 96.94 138.635 95.8C138.635 92.58 132.475 94.78 132.475 90.5C132.475 88.28 134.135 87.12 136.535 87.12C139.115 87.12 140.495 88.44 140.495 90.44V91.04H138.475V89.64C138.475 88.56 137.995 87.52 136.575 87.52C135.315 87.52 134.535 88.36 134.535 89.6C134.535 93 140.695 90.82 140.695 94.94C140.695 97.08 139.035 98.2 136.575 98.2C133.935 98.2 132.475 96.86 132.475 94.88V94.28ZM144.646 84.1V87.32H148.166V87.72H144.646V95.08C144.646 96.76 145.046 97.8 145.626 97.8C146.066 97.8 146.566 97.28 146.566 96.08V95.08H148.566V95.68C148.566 97.44 147.586 98.2 145.606 98.2C143.626 98.2 142.626 97.44 142.626 94.28V87.72H141.626V87.32H142.626V84.1H144.646ZM149.721 85.2C149.721 84.48 150.301 83.9 151.021 83.9C151.761 83.9 152.341 84.48 152.341 85.2C152.341 85.94 151.761 86.52 151.021 86.52C150.301 86.52 149.721 85.94 149.721 85.2ZM150.021 98V87.32H152.041V98H150.021ZM162.105 87.32L161.205 94.28C160.805 97.42 159.845 98.2 157.805 98.2C155.745 98.2 154.785 97.42 154.385 94.28L153.485 87.32H155.525L156.505 95.08C156.725 96.76 157.185 97.8 157.805 97.8C158.405 97.8 158.865 96.76 159.085 95.08L160.065 87.32H162.105ZM171.792 98H169.772V96.74C169.352 97.7 168.512 98.2 167.092 98.2C164.732 98.2 163.572 96.78 163.572 94.68V91.04C163.572 87.88 164.812 87.12 167.672 87.12C170.532 87.12 171.792 87.88 171.792 91.04V98ZM167.532 97.6C168.812 97.6 169.772 96.76 169.772 95.08V90.24C169.772 88.56 169.092 87.52 167.672 87.52C166.272 87.52 165.592 88.56 165.592 90.24V95.08C165.592 96.76 166.272 97.6 167.532 97.6ZM175.889 98H173.869V83.3H175.889V98ZM29.24 120.6C30.52 120.6 31.2 119.76 31.2 118.08V113.24C31.2 111.56 30.52 110.52 29.1 110.52C27.7 110.52 27.02 111.56 27.02 113.24V118.08C27.02 119.76 27.98 120.6 29.24 120.6ZM25 125.02V114.04C25 110.88 26.24 110.12 29.1 110.12C31.96 110.12 33.22 110.88 33.22 114.04V117.68C33.22 119.78 32.04 121.2 29.7 121.2C28.28 121.2 27.44 120.7 27.02 119.74V125.02H25ZM40.8972 110.12V112.54C40.2772 111.98 39.5372 111.72 38.8772 111.72C37.9572 111.72 37.2172 112.26 37.2172 113.24V121H35.1972V110.32H37.2172V112.18C37.7772 110.46 39.5372 109.92 40.8972 110.12ZM50.2684 115.48H44.0684V118.08C44.0684 119.76 44.7484 120.8 46.1484 120.8C47.5684 120.8 48.2484 119.76 48.2484 118.68V117.28H50.2684V117.88C50.2684 120.44 49.0084 121.2 46.1484 121.2C43.2884 121.2 42.0484 120.44 42.0484 117.28V114.04C42.0484 110.88 43.2884 110.12 46.1484 110.12C49.0084 110.12 50.2684 110.88 50.2684 113.44V115.48ZM44.0684 115.08H48.2484V112.64C48.2484 111.56 47.5684 110.52 46.1484 110.52C44.7484 110.52 44.0684 111.56 44.0684 113.24V115.08ZM56.3689 120.6C57.6489 120.6 58.3289 119.76 58.3289 118.08V113.24C58.3289 111.56 57.6489 110.52 56.2289 110.52C54.8289 110.52 54.1489 111.56 54.1489 113.24V118.08C54.1489 119.76 55.1089 120.6 56.3689 120.6ZM52.1289 125.02V114.04C52.1289 110.88 53.3689 110.12 56.2289 110.12C59.0889 110.12 60.3489 110.88 60.3489 114.04V117.68C60.3489 119.78 59.1689 121.2 56.8289 121.2C55.4089 121.2 54.5689 120.7 54.1489 119.74V125.02H52.1289ZM70.3661 121H68.3461V119.74C67.9261 120.7 67.0861 121.2 65.6661 121.2C63.3061 121.2 62.1461 119.78 62.1461 117.68V114.04C62.1461 110.88 63.3861 110.12 66.2461 110.12C69.1061 110.12 70.3661 110.88 70.3661 114.04V121ZM66.1061 120.6C67.3861 120.6 68.3461 119.76 68.3461 118.08V113.24C68.3461 111.56 67.6661 110.52 66.2461 110.52C64.8461 110.52 64.1661 111.56 64.1661 113.24V118.08C64.1661 119.76 64.8461 120.6 66.1061 120.6ZM78.1433 110.12V112.54C77.5233 111.98 76.7833 111.72 76.1233 111.72C75.2033 111.72 74.4633 112.26 74.4633 113.24V121H72.4433V110.32H74.4633V112.18C75.0233 110.46 76.7833 109.92 78.1433 110.12ZM87.5145 121H85.4945V119.74C85.0745 120.7 84.2345 121.2 82.8145 121.2C80.4545 121.2 79.2945 119.78 79.2945 117.68V114.04C79.2945 110.88 80.5345 110.12 83.3945 110.12C86.2545 110.12 87.5145 110.88 87.5145 114.04V121ZM83.2545 120.6C84.5345 120.6 85.4945 119.76 85.4945 118.08V113.24C85.4945 111.56 84.8145 110.52 83.3945 110.52C81.9945 110.52 81.3145 111.56 81.3145 113.24V118.08C81.3145 119.76 81.9945 120.6 83.2545 120.6ZM91.6773 107.1V110.32H95.1973V110.72H91.6773V118.08C91.6773 119.76 92.0773 120.8 92.6573 120.8C93.0973 120.8 93.5973 120.28 93.5973 119.08V118.08H95.5973V118.68C95.5973 120.44 94.6173 121.2 92.6373 121.2C90.6573 121.2 89.6573 120.44 89.6573 117.28V110.72H88.6573V110.32H89.6573V107.1H91.6773ZM96.7522 108.2C96.7522 107.48 97.3322 106.9 98.0522 106.9C98.7922 106.9 99.3722 107.48 99.3722 108.2C99.3722 108.94 98.7922 109.52 98.0522 109.52C97.3322 109.52 96.7522 108.94 96.7522 108.2ZM97.0522 121V110.32H99.0722V121H97.0522ZM100.877 117.28V114.04C100.877 110.88 102.117 110.12 104.977 110.12C107.837 110.12 109.097 110.88 109.097 114.04V117.28C109.097 120.44 107.837 121.2 104.977 121.2C102.117 121.2 100.877 120.44 100.877 117.28ZM104.977 120.8C106.397 120.8 107.077 119.76 107.077 118.08V113.24C107.077 111.56 106.397 110.52 104.977 110.52C103.577 110.52 102.897 111.56 102.897 113.24V118.08C102.897 119.76 103.577 120.8 104.977 120.8ZM119.196 121H117.176V113.24C117.176 111.56 116.496 110.52 115.076 110.52C113.676 110.52 112.996 111.56 112.996 113.24V121H110.976V114.04C110.976 110.88 112.216 110.12 115.076 110.12C117.936 110.12 119.196 110.88 119.196 114.04V121Z" fill="black"/>
<path d="M2 63C2 61.3431 3.34315 60 5 60H15C16.6569 60 18 61.3431 18 63V73C18 74.6569 16.6569 76 15 76H5C3.34315 76 2 74.6569 2 73V63Z" fill="black" stroke="#003556" stroke-width="2"/>
<path d="M2 65.5714L8.6 72L24 57" stroke="#8DFF00" stroke-width="3"/>
<path d="M25.2 231V216.3H32.66V216.7H27.42V223.14H32.24V223.54H27.42V231H25.2ZM39.4128 220.12V222.54C38.7928 221.98 38.0528 221.72 37.3928 221.72C36.4728 221.72 35.7328 222.26 35.7328 223.24V231H33.7128V220.32H35.7328V222.18C36.2928 220.46 38.0528 219.92 39.4128 220.12ZM48.7841 225.48H42.5841V228.08C42.5841 229.76 43.2641 230.8 44.6641 230.8C46.0841 230.8 46.7641 229.76 46.7641 228.68V227.28H48.7841V227.88C48.7841 230.44 47.5241 231.2 44.6641 231.2C41.8041 231.2 40.5641 230.44 40.5641 227.28V224.04C40.5641 220.88 41.8041 220.12 44.6641 220.12C47.5241 220.12 48.7841 220.88 48.7841 223.44V225.48ZM42.5841 225.08H46.7641V222.64C46.7641 221.56 46.0841 220.52 44.6641 220.52C43.2641 220.52 42.5841 221.56 42.5841 223.24V225.08ZM58.7645 225.48H52.5645V228.08C52.5645 229.76 53.2445 230.8 54.6445 230.8C56.0645 230.8 56.7445 229.76 56.7445 228.68V227.28H58.7645V227.88C58.7645 230.44 57.5045 231.2 54.6445 231.2C51.7845 231.2 50.5445 230.44 50.5445 227.28V224.04C50.5445 220.88 51.7845 220.12 54.6445 220.12C57.5045 220.12 58.7645 220.88 58.7645 223.44V225.48ZM52.5645 225.08H56.7445V222.64C56.7445 221.56 56.0645 220.52 54.6445 220.52C53.2445 220.52 52.5645 221.56 52.5645 223.24V225.08ZM73.0419 225.48H66.8419V228.08C66.8419 229.76 67.5219 230.8 68.9219 230.8C70.3419 230.8 71.0219 229.76 71.0219 228.68V227.28H73.0419V227.88C73.0419 230.44 71.7819 231.2 68.9219 231.2C66.0619 231.2 64.8219 230.44 64.8219 227.28V224.04C64.8219 220.88 66.0619 220.12 68.9219 220.12C71.7819 220.12 73.0419 220.88 73.0419 223.44V225.48ZM66.8419 225.08H71.0219V222.64C71.0219 221.56 70.3419 220.52 68.9219 220.52C67.5219 220.52 66.8419 221.56 66.8419 223.24V225.08ZM74.8623 231V228.42C74.8623 226.22 75.6423 225.84 77.0623 225.38C75.5823 224.98 74.8623 224.84 74.8623 222.88V220.32H76.8823V222.94C76.8823 224.78 77.3623 225.14 78.7023 225.14C80.0423 225.14 80.5223 224.78 80.5223 222.94V220.32H82.5423V222.88C82.5423 224.84 81.8023 224.98 80.3423 225.38C81.7423 225.84 82.5423 226.22 82.5423 228.42V231H80.5223V228.28C80.5223 226.18 80.0423 225.58 78.7023 225.58C77.3623 225.58 76.8823 226.18 76.8823 228.28V231H74.8623ZM92.6317 224.04H90.6117V222.64C90.6117 221.56 89.9317 220.52 88.5117 220.52C87.1117 220.52 86.4317 221.56 86.4317 223.24V228.08C86.4317 229.76 87.1117 230.8 88.5117 230.8C89.9317 230.8 90.6117 229.76 90.6117 228.68V227.28H92.6317V227.88C92.6317 230.44 91.3717 231.2 88.5117 231.2C85.6517 231.2 84.4117 230.44 84.4117 227.28V224.04C84.4117 220.88 85.6517 220.12 88.5117 220.12C91.3717 220.12 92.6317 220.88 92.6317 223.44V224.04ZM96.4945 231H94.4745V216.3H96.4945V231ZM106.774 220.32V227.28C106.774 230.44 105.514 231.2 102.654 231.2C99.7942 231.2 98.5542 230.44 98.5542 227.28V220.32H100.574V228.08C100.574 229.76 101.254 230.8 102.654 230.8C104.074 230.8 104.754 229.76 104.754 228.08V220.32H106.774ZM108.53 227.28H110.55V228.68C110.55 229.76 111.23 230.8 112.63 230.8C113.91 230.8 114.69 229.94 114.69 228.8C114.69 225.58 108.53 227.78 108.53 223.5C108.53 221.28 110.19 220.12 112.59 220.12C115.17 220.12 116.55 221.44 116.55 223.44V224.04H114.53V222.64C114.53 221.56 114.05 220.52 112.63 220.52C111.37 220.52 110.59 221.36 110.59 222.6C110.59 226 116.75 223.82 116.75 227.94C116.75 230.08 115.09 231.2 112.63 231.2C109.99 231.2 108.53 229.86 108.53 227.88V227.28ZM118.061 218.2C118.061 217.48 118.641 216.9 119.361 216.9C120.101 216.9 120.681 217.48 120.681 218.2C120.681 218.94 120.101 219.52 119.361 219.52C118.641 219.52 118.061 218.94 118.061 218.2ZM118.361 231V220.32H120.381V231H118.361ZM130.445 220.32L129.545 227.28C129.145 230.42 128.185 231.2 126.145 231.2C124.085 231.2 123.125 230.42 122.725 227.28L121.825 220.32H123.865L124.845 228.08C125.065 229.76 125.525 230.8 126.145 230.8C126.745 230.8 127.205 229.76 127.425 228.08L128.405 220.32H130.445ZM140.132 225.48H133.932V228.08C133.932 229.76 134.612 230.8 136.012 230.8C137.432 230.8 138.112 229.76 138.112 228.68V227.28H140.132V227.88C140.132 230.44 138.872 231.2 136.012 231.2C133.152 231.2 131.912 230.44 131.912 227.28V224.04C131.912 220.88 133.152 220.12 136.012 220.12C138.872 220.12 140.132 220.88 140.132 223.44V225.48ZM133.932 225.08H138.112V222.64C138.112 221.56 137.432 220.52 136.012 220.52C134.612 220.52 133.932 221.56 133.932 223.24V225.08ZM147.469 216.3L147.609 216.44C147.209 216.84 146.949 217.36 146.849 217.82C146.749 218.28 146.869 218.42 147.269 218.5C148.049 218.64 148.509 219.18 148.509 219.82C148.509 220.54 147.929 221.12 147.189 221.12C146.469 221.12 145.889 220.54 145.889 219.56C145.889 218.48 146.549 217.28 147.469 216.3ZM150.749 216.3L150.889 216.44C150.509 216.84 150.249 217.36 150.129 217.82C150.029 218.28 150.169 218.42 150.569 218.5C151.329 218.64 151.789 219.18 151.789 219.82C151.789 220.54 151.209 221.12 150.489 221.12C149.749 221.12 149.169 220.54 149.169 219.56C149.169 218.48 149.829 217.28 150.749 216.3ZM162.839 221.16H160.639V219.22C160.639 217.52 159.799 216.5 158.119 216.5C156.419 216.5 155.599 217.52 155.599 219.22V228.08C155.599 229.76 156.419 230.8 158.119 230.8C159.799 230.8 160.639 229.76 160.639 228.08V226.12H162.839V226.86C162.839 230.02 161.279 231.2 158.119 231.2C154.959 231.2 153.379 230.02 153.379 226.86V220.42C153.379 217.26 154.959 216.1 158.119 216.1C161.279 216.1 162.839 217.26 162.839 220.42V221.16ZM172.89 231H170.87V223.24C170.87 221.56 170.19 220.72 168.91 220.72C167.65 220.72 166.69 221.56 166.69 223.24V231H164.67V216.3H166.69V221.58C167.11 220.62 167.95 220.12 169.37 220.12C171.71 220.12 172.89 221.54 172.89 223.64V231ZM174.623 218.2C174.623 217.48 175.203 216.9 175.923 216.9C176.663 216.9 177.243 217.48 177.243 218.2C177.243 218.94 176.663 219.52 175.923 219.52C175.203 219.52 174.623 218.94 174.623 218.2ZM174.923 231V220.32H176.943V231H174.923ZM184.53 220.12V222.54C183.91 221.98 183.17 221.72 182.51 221.72C181.59 221.72 180.85 222.26 180.85 223.24V231H178.83V220.32H180.85V222.18C181.41 220.46 183.17 219.92 184.53 220.12ZM190.021 230.6C191.301 230.6 191.981 229.76 191.981 228.08V223.24C191.981 221.56 191.301 220.52 189.881 220.52C188.481 220.52 187.801 221.56 187.801 223.24V228.08C187.801 229.76 188.761 230.6 190.021 230.6ZM185.781 235.02V224.04C185.781 220.88 187.021 220.12 189.881 220.12C192.741 220.12 194.001 220.88 194.001 224.04V227.68C194.001 229.78 192.821 231.2 190.481 231.2C189.061 231.2 188.221 230.7 187.801 229.74V235.02H185.781ZM196.098 231V216.3H203.558V216.7H198.318V223.14H203.138V223.54H198.318V231H196.098ZM212.808 225.48H206.608V228.08C206.608 229.76 207.288 230.8 208.688 230.8C210.108 230.8 210.788 229.76 210.788 228.68V227.28H212.808V227.88C212.808 230.44 211.548 231.2 208.688 231.2C205.828 231.2 204.588 230.44 204.588 227.28V224.04C204.588 220.88 205.828 220.12 208.688 220.12C211.548 220.12 212.808 220.88 212.808 223.44V225.48ZM206.608 225.08H210.788V222.64C210.788 221.56 210.108 220.52 208.688 220.52C207.288 220.52 206.608 221.56 206.608 223.24V225.08ZM214.448 227.28H216.468V228.68C216.468 229.76 217.148 230.8 218.548 230.8C219.828 230.8 220.608 229.94 220.608 228.8C220.608 225.58 214.448 227.78 214.448 223.5C214.448 221.28 216.108 220.12 218.508 220.12C221.088 220.12 222.468 221.44 222.468 223.44V224.04H220.448V222.64C220.448 221.56 219.968 220.52 218.548 220.52C217.288 220.52 216.508 221.36 216.508 222.6C216.508 226 222.668 223.82 222.668 227.94C222.668 230.08 221.008 231.2 218.548 231.2C215.908 231.2 214.448 229.86 214.448 227.88V227.28ZM226.619 217.1V220.32H230.139V220.72H226.619V228.08C226.619 229.76 227.019 230.8 227.599 230.8C228.039 230.8 228.539 230.28 228.539 229.08V228.08H230.539V228.68C230.539 230.44 229.559 231.2 227.579 231.2C225.599 231.2 224.599 230.44 224.599 227.28V220.72H223.599V220.32H224.599V217.1H226.619ZM27.88 254V239.7H23.86V239.3H34.14V239.7H30.1V254H27.88ZM41.5984 243.32V250.28C41.5984 253.44 40.3384 254.2 37.4784 254.2C34.6184 254.2 33.3784 253.44 33.3784 250.28V243.32H35.3984V251.08C35.3984 252.76 36.0784 253.8 37.4784 253.8C38.8984 253.8 39.5784 252.76 39.5784 251.08V243.32H41.5984ZM51.6942 247.04H49.6742V245.64C49.6742 244.56 48.9942 243.52 47.5742 243.52C46.1742 243.52 45.4942 244.56 45.4942 246.24V251.08C45.4942 252.76 46.1742 253.8 47.5742 253.8C48.9942 253.8 49.6742 252.76 49.6742 251.68V250.28H51.6942V250.88C51.6942 253.44 50.4342 254.2 47.5742 254.2C44.7142 254.2 43.4742 253.44 43.4742 250.28V247.04C43.4742 243.88 44.7142 243.12 47.5742 243.12C50.4342 243.12 51.6942 243.88 51.6942 246.44V247.04ZM61.577 254H59.557V252.74C59.137 253.7 58.297 254.2 56.877 254.2C54.517 254.2 53.357 252.78 53.357 250.68V247.04C53.357 243.88 54.597 243.12 57.457 243.12C60.317 243.12 61.577 243.88 61.577 247.04V254ZM57.317 253.6C58.597 253.6 59.557 252.76 59.557 251.08V246.24C59.557 244.56 58.877 243.52 57.457 243.52C56.057 243.52 55.377 244.56 55.377 246.24V251.08C55.377 252.76 56.057 253.6 57.317 253.6ZM71.7742 254H69.7542V246.24C69.7542 244.56 69.0742 243.52 67.6542 243.52C66.2542 243.52 65.5742 244.56 65.5742 246.24V254H63.5542V247.04C63.5542 243.88 64.7942 243.12 67.6542 243.12C70.5142 243.12 71.7742 243.88 71.7742 247.04V254ZM82.9869 253.6C84.6669 253.6 85.5069 252.56 85.5069 250.88V242.42C85.5069 240.72 84.6669 239.7 82.9869 239.7H80.4669V253.6H82.9869ZM78.2469 254V239.3H82.9869C86.1469 239.3 87.7069 240.46 87.7069 243.62V249.66C87.7069 252.82 86.1469 254 82.9869 254H78.2469ZM89.467 241.2C89.467 240.48 90.047 239.9 90.767 239.9C91.507 239.9 92.087 240.48 92.087 241.2C92.087 241.94 91.507 242.52 90.767 242.52C90.047 242.52 89.467 241.94 89.467 241.2ZM89.767 254V243.32H91.787V254H89.767ZM93.4714 250.28H95.4914V251.68C95.4914 252.76 96.1714 253.8 97.5714 253.8C98.8514 253.8 99.6314 252.94 99.6314 251.8C99.6314 248.58 93.4714 250.78 93.4714 246.5C93.4714 244.28 95.1314 243.12 97.5314 243.12C100.111 243.12 101.491 244.44 101.491 246.44V247.04H99.4714V245.64C99.4714 244.56 98.9914 243.52 97.5714 243.52C96.3114 243.52 95.5314 244.36 95.5314 245.6C95.5314 249 101.691 246.82 101.691 250.94C101.691 253.08 100.031 254.2 97.5714 254.2C94.9314 254.2 93.4714 252.86 93.4714 250.88V250.28ZM109.298 245.94V243.32H111.318V245.88C111.318 247.84 110.598 247.98 109.118 248.38C110.518 248.84 111.318 249.22 111.318 251.42V254H109.298V251.28C109.298 248.82 108.638 248.56 106.678 248.56H105.518V254H103.498V239.3H105.518V248.16H106.678C108.638 248.16 109.298 248.1 109.298 245.94ZM116.478 244.12L116.318 243.98C116.718 243.58 116.978 243.06 117.078 242.6C117.178 242.14 117.058 242 116.658 241.92C115.878 241.78 115.418 241.24 115.418 240.6C115.418 239.88 115.998 239.3 116.738 239.3C117.458 239.3 118.038 239.88 118.038 240.86C118.038 241.94 117.378 243.14 116.478 244.12ZM113.178 244.12L113.038 243.98C113.418 243.58 113.698 243.06 113.798 242.6C113.898 242.14 113.778 242 113.358 241.92C112.598 241.78 112.138 241.24 112.138 240.6C112.138 239.88 112.718 239.3 113.438 239.3C114.178 239.3 114.758 239.88 114.758 240.86C114.758 241.94 114.098 243.14 113.178 244.12ZM126.385 254H124.365V243.72H123.365V243.32H124.365V243.02C124.365 239.86 125.365 239.1 127.245 239.1C129.125 239.1 130.105 239.86 130.105 241.6V242.22H128.105V241.2C128.105 240.02 127.705 239.5 127.225 239.5C126.585 239.5 126.385 240.58 126.385 242.22V243.32H129.245V243.72H126.385V254ZM129.822 250.28V247.04C129.822 243.88 131.062 243.12 133.922 243.12C136.782 243.12 138.042 243.88 138.042 247.04V250.28C138.042 253.44 136.782 254.2 133.922 254.2C131.062 254.2 129.822 253.44 129.822 250.28ZM133.922 253.8C135.342 253.8 136.022 252.76 136.022 251.08V246.24C136.022 244.56 135.342 243.52 133.922 243.52C132.522 243.52 131.842 244.56 131.842 246.24V251.08C131.842 252.76 132.522 253.8 133.922 253.8ZM142.041 254H140.021V239.3H142.041V254ZM147.981 243.72C146.721 243.72 146.041 244.56 146.041 246.24V251.08C146.041 252.76 146.721 253.8 148.121 253.8C149.541 253.8 150.221 252.76 150.221 251.08V246.24C150.221 244.56 149.261 243.72 147.981 243.72ZM152.241 239.3V250.28C152.241 253.44 150.981 254.2 148.121 254.2C145.261 254.2 144.021 253.44 144.021 250.28V246.64C144.021 244.54 145.181 243.12 147.541 243.12C148.961 243.12 149.801 243.62 150.221 244.58V239.3H152.241ZM153.979 241.2C153.979 240.48 154.559 239.9 155.279 239.9C156.019 239.9 156.599 240.48 156.599 241.2C156.599 241.94 156.019 242.52 155.279 242.52C154.559 242.52 153.979 241.94 153.979 241.2ZM154.279 254V243.32H156.299V254H154.279ZM166.384 254H164.364V246.24C164.364 244.56 163.684 243.52 162.264 243.52C160.864 243.52 160.184 244.56 160.184 246.24V254H158.164V247.04C158.164 243.88 159.404 243.12 162.264 243.12C165.124 243.12 166.384 243.88 166.384 247.04V254ZM172.219 253.6C173.499 253.6 174.459 252.76 174.459 251.08V246.24C174.459 244.56 173.779 243.52 172.359 243.52C170.959 243.52 170.279 244.56 170.279 246.24V251.08C170.279 252.76 170.959 253.6 172.219 253.6ZM168.259 254.9H170.279V256.12C170.279 257.2 170.959 257.62 172.359 257.62C173.779 257.62 174.459 256.6 174.459 254.9V252.74C174.039 253.7 173.199 254.2 171.779 254.2C169.419 254.2 168.259 252.78 168.259 250.68V247.04C168.259 243.88 169.499 243.12 172.359 243.12C175.219 243.12 176.479 243.88 176.479 247.04V254.1C176.479 257.26 175.219 258.02 172.359 258.02C169.499 258.02 168.259 257.86 168.259 255.3V254.9ZM185.213 254H183.193V243.72H182.193V243.32H183.193V243.02C183.193 239.86 184.193 239.1 186.073 239.1C187.953 239.1 188.933 239.86 188.933 241.6V242.22H186.933V241.2C186.933 240.02 186.533 239.5 186.053 239.5C185.413 239.5 185.213 240.58 185.213 242.22V243.32H188.073V243.72H185.213V254ZM196.87 254H194.85V252.74C194.43 253.7 193.59 254.2 192.17 254.2C189.81 254.2 188.65 252.78 188.65 250.68V247.04C188.65 243.88 189.89 243.12 192.75 243.12C195.61 243.12 196.87 243.88 196.87 247.04V254ZM192.61 253.6C193.89 253.6 194.85 252.76 194.85 251.08V246.24C194.85 244.56 194.17 243.52 192.75 243.52C191.35 243.52 190.67 244.56 190.67 246.24V251.08C190.67 252.76 191.35 253.6 192.61 253.6ZM207.067 254H205.047V246.24C205.047 244.56 204.367 243.52 202.947 243.52C201.547 243.52 200.867 244.56 200.867 246.24V254H198.847V247.04C198.847 243.88 200.087 243.12 202.947 243.12C205.807 243.12 207.067 243.88 207.067 247.04V254Z" fill="black"/>
<path d="M2 219C2 217.343 3.34315 216 5 216H15C16.6569 216 18 217.343 18 219V229C18 230.657 16.6569 232 15 232H5C3.34315 232 2 230.657 2 229V219Z" fill="black" stroke="#003556" stroke-width="2"/>
<path d="M2 221.571L8.6 228L24 213" stroke="#8DFF00" stroke-width="3"/>
<path d="M34.46 286H32.26L31.72 280.78H27.36L26.82 286H24.6L25.7 275.42C26.04 272.26 27.38 271.1 29.54 271.1C31.7 271.1 33.04 272.26 33.36 275.42L34.46 286ZM27.4 280.38H31.66L31.04 274.22C30.86 272.52 30.22 271.5 29.52 271.5C28.78 271.5 28.18 272.58 28.02 274.22L27.4 280.38ZM44.1942 279.04H42.1742V277.64C42.1742 276.56 41.4942 275.52 40.0742 275.52C38.6742 275.52 37.9942 276.56 37.9942 278.24V283.08C37.9942 284.76 38.6742 285.8 40.0742 285.8C41.4942 285.8 42.1742 284.76 42.1742 283.68V282.28H44.1942V282.88C44.1942 285.44 42.9342 286.2 40.0742 286.2C37.2142 286.2 35.9742 285.44 35.9742 282.28V279.04C35.9742 275.88 37.2142 275.12 40.0742 275.12C42.9342 275.12 44.1942 275.88 44.1942 278.44V279.04ZM54.077 279.04H52.057V277.64C52.057 276.56 51.377 275.52 49.957 275.52C48.557 275.52 47.877 276.56 47.877 278.24V283.08C47.877 284.76 48.557 285.8 49.957 285.8C51.377 285.8 52.057 284.76 52.057 283.68V282.28H54.077V282.88C54.077 285.44 52.817 286.2 49.957 286.2C47.097 286.2 45.857 285.44 45.857 282.28V279.04C45.857 275.88 47.097 275.12 49.957 275.12C52.817 275.12 54.077 275.88 54.077 278.44V279.04ZM63.9598 280.48H57.7598V283.08C57.7598 284.76 58.4398 285.8 59.8398 285.8C61.2598 285.8 61.9398 284.76 61.9398 283.68V282.28H63.9598V282.88C63.9598 285.44 62.6998 286.2 59.8398 286.2C56.9798 286.2 55.7398 285.44 55.7398 282.28V279.04C55.7398 275.88 56.9798 275.12 59.8398 275.12C62.6998 275.12 63.9598 275.88 63.9598 278.44V280.48ZM57.7598 280.08H61.9398V277.64C61.9398 276.56 61.2598 275.52 59.8398 275.52C58.4398 275.52 57.7598 276.56 57.7598 278.24V280.08ZM65.6003 282.28H67.6203V283.68C67.6203 284.76 68.3003 285.8 69.7003 285.8C70.9803 285.8 71.7603 284.94 71.7603 283.8C71.7603 280.58 65.6003 282.78 65.6003 278.5C65.6003 276.28 67.2603 275.12 69.6603 275.12C72.2403 275.12 73.6203 276.44 73.6203 278.44V279.04H71.6003V277.64C71.6003 276.56 71.1203 275.52 69.7003 275.52C68.4403 275.52 67.6603 276.36 67.6603 277.6C67.6603 281 73.8203 278.82 73.8203 282.94C73.8203 285.08 72.1603 286.2 69.7003 286.2C67.0603 286.2 65.6003 284.86 65.6003 282.88V282.28ZM75.3269 282.28H77.3469V283.68C77.3469 284.76 78.0269 285.8 79.4269 285.8C80.7069 285.8 81.4869 284.94 81.4869 283.8C81.4869 280.58 75.3269 282.78 75.3269 278.5C75.3269 276.28 76.9869 275.12 79.3869 275.12C81.9669 275.12 83.3469 276.44 83.3469 278.44V279.04H81.3269V277.64C81.3269 276.56 80.8469 275.52 79.4269 275.52C78.1669 275.52 77.3869 276.36 77.3869 277.6C77.3869 281 83.5469 278.82 83.5469 282.94C83.5469 285.08 81.8869 286.2 79.4269 286.2C76.7869 286.2 75.3269 284.86 75.3269 282.88V282.28ZM91.9703 272.1V275.32H95.4903V275.72H91.9703V283.08C91.9703 284.76 92.3703 285.8 92.9503 285.8C93.3903 285.8 93.8903 285.28 93.8903 284.08V283.08H95.8903V283.68C95.8903 285.44 94.9103 286.2 92.9303 286.2C90.9503 286.2 89.9503 285.44 89.9503 282.28V275.72H88.9503V275.32H89.9503V272.1H91.9703ZM97.1852 282.28V279.04C97.1852 275.88 98.4252 275.12 101.285 275.12C104.145 275.12 105.405 275.88 105.405 279.04V282.28C105.405 285.44 104.145 286.2 101.285 286.2C98.4252 286.2 97.1852 285.44 97.1852 282.28ZM101.285 285.8C102.705 285.8 103.385 284.76 103.385 283.08V278.24C103.385 276.56 102.705 275.52 101.285 275.52C99.8852 275.52 99.2052 276.56 99.2052 278.24V283.08C99.2052 284.76 99.8852 285.8 101.285 285.8ZM114.002 272.1V275.32H117.522V275.72H114.002V283.08C114.002 284.76 114.402 285.8 114.982 285.8C115.422 285.8 115.922 285.28 115.922 284.08V283.08H117.922V283.68C117.922 285.44 116.942 286.2 114.962 286.2C112.982 286.2 111.982 285.44 111.982 282.28V275.72H110.982V275.32H111.982V272.1H114.002ZM127.436 286H125.416V284.74C124.996 285.7 124.156 286.2 122.736 286.2C120.376 286.2 119.216 284.78 119.216 282.68V279.04C119.216 275.88 120.456 275.12 123.316 275.12C126.176 275.12 127.436 275.88 127.436 279.04V286ZM123.176 285.6C124.456 285.6 125.416 284.76 125.416 283.08V278.24C125.416 276.56 124.736 275.52 123.316 275.52C121.916 275.52 121.236 276.56 121.236 278.24V283.08C121.236 284.76 121.916 285.6 123.176 285.6ZM135.314 277.94V275.32H137.334V277.88C137.334 279.84 136.614 279.98 135.134 280.38C136.534 280.84 137.334 281.22 137.334 283.42V286H135.314V283.28C135.314 280.82 134.654 280.56 132.694 280.56H131.534V286H129.514V271.3H131.534V280.16H132.694C134.654 280.16 135.314 280.1 135.314 277.94ZM147.417 280.48H141.217V283.08C141.217 284.76 141.897 285.8 143.297 285.8C144.717 285.8 145.397 284.76 145.397 283.68V282.28H147.417V282.88C147.417 285.44 146.157 286.2 143.297 286.2C140.437 286.2 139.197 285.44 139.197 282.28V279.04C139.197 275.88 140.437 275.12 143.297 275.12C146.157 275.12 147.417 275.88 147.417 278.44V280.48ZM141.217 280.08H145.397V277.64C145.397 276.56 144.717 275.52 143.297 275.52C141.897 275.52 141.217 276.56 141.217 278.24V280.08ZM157.814 285.6C159.094 285.6 159.774 284.76 159.774 283.08V278.24C159.774 276.56 159.094 275.52 157.674 275.52C156.274 275.52 155.594 276.56 155.594 278.24V283.08C155.594 284.76 156.554 285.6 157.814 285.6ZM153.574 290.02V279.04C153.574 275.88 154.814 275.12 157.674 275.12C160.534 275.12 161.794 275.88 161.794 279.04V282.68C161.794 284.78 160.614 286.2 158.274 286.2C156.854 286.2 156.014 285.7 155.594 284.74V290.02H153.574ZM171.991 286H169.971V278.24C169.971 276.56 169.291 275.72 168.011 275.72C166.751 275.72 165.791 276.56 165.791 278.24V286H163.771V271.3H165.791V276.58C166.211 275.62 167.051 275.12 168.471 275.12C170.811 275.12 171.991 276.54 171.991 278.64V286ZM173.865 282.28V279.04C173.865 275.88 175.105 275.12 177.965 275.12C180.825 275.12 182.085 275.88 182.085 279.04V282.28C182.085 285.44 180.825 286.2 177.965 286.2C175.105 286.2 173.865 285.44 173.865 282.28ZM177.965 285.8C179.385 285.8 180.065 284.76 180.065 283.08V278.24C180.065 276.56 179.385 275.52 177.965 275.52C176.565 275.52 175.885 276.56 175.885 278.24V283.08C175.885 284.76 176.565 285.8 177.965 285.8ZM186.209 272.1V275.32H189.729V275.72H186.209V283.08C186.209 284.76 186.609 285.8 187.189 285.8C187.629 285.8 188.129 285.28 188.129 284.08V283.08H190.129V283.68C190.129 285.44 189.149 286.2 187.169 286.2C185.189 286.2 184.189 285.44 184.189 282.28V275.72H183.189V275.32H184.189V272.1H186.209ZM191.423 282.28V279.04C191.423 275.88 192.663 275.12 195.523 275.12C198.383 275.12 199.643 275.88 199.643 279.04V282.28C199.643 285.44 198.383 286.2 195.523 286.2C192.663 286.2 191.423 285.44 191.423 282.28ZM195.523 285.8C196.943 285.8 197.623 284.76 197.623 283.08V278.24C197.623 276.56 196.943 275.52 195.523 275.52C194.123 275.52 193.443 276.56 193.443 278.24V283.08C193.443 284.76 194.123 285.8 195.523 285.8ZM201.323 282.28H203.343V283.68C203.343 284.76 204.023 285.8 205.423 285.8C206.703 285.8 207.483 284.94 207.483 283.8C207.483 280.58 201.323 282.78 201.323 278.5C201.323 276.28 202.983 275.12 205.383 275.12C207.963 275.12 209.343 276.44 209.343 278.44V279.04H207.323V277.64C207.323 276.56 206.843 275.52 205.423 275.52C204.163 275.52 203.383 276.36 203.383 277.6C203.383 281 209.543 278.82 209.543 282.94C209.543 285.08 207.883 286.2 205.423 286.2C202.783 286.2 201.323 284.86 201.323 282.88V282.28ZM32.56 298.32V306.08C32.56 307.76 33.12 308.8 34.32 308.8C35.52 308.8 36.08 307.76 36.08 306.08V298.32H38.1V305.28C38.1 308.44 36.94 309.2 34.54 309.2C33.08 309.2 31.92 308.92 31.54 307.7C31.08 308.92 30.02 309.2 28.54 309.2C26.14 309.2 25 308.44 25 305.28V298.32H27.02V306.08C27.02 307.76 27.58 308.8 28.78 308.8C29.98 308.8 30.54 307.76 30.54 306.08V298.32H32.56ZM39.6623 296.2C39.6623 295.48 40.2423 294.9 40.9623 294.9C41.7023 294.9 42.2823 295.48 42.2823 296.2C42.2823 296.94 41.7023 297.52 40.9623 297.52C40.2423 297.52 39.6623 296.94 39.6623 296.2ZM39.9623 309V298.32H41.9823V309H39.9623ZM46.443 295.1V298.32H49.963V298.72H46.443V306.08C46.443 307.76 46.843 308.8 47.423 308.8C47.863 308.8 48.363 308.28 48.363 307.08V306.08H50.363V306.68C50.363 308.44 49.383 309.2 47.403 309.2C45.423 309.2 44.423 308.44 44.423 305.28V298.72H43.423V298.32H44.423V295.1H46.443ZM60.0578 309H58.0378V301.24C58.0378 299.56 57.3578 298.72 56.0778 298.72C54.8178 298.72 53.8578 299.56 53.8578 301.24V309H51.8378V294.3H53.8578V299.58C54.2778 298.62 55.1178 298.12 56.5378 298.12C58.8778 298.12 60.0578 299.54 60.0578 301.64V309ZM68.7281 295.1V298.32H72.2481V298.72H68.7281V306.08C68.7281 307.76 69.1281 308.8 69.7081 308.8C70.1481 308.8 70.6481 308.28 70.6481 307.08V306.08H72.6481V306.68C72.6481 308.44 71.6681 309.2 69.6881 309.2C67.7081 309.2 66.7081 308.44 66.7081 305.28V298.72H65.7081V298.32H66.7081V295.1H68.7281ZM82.343 309H80.323V301.24C80.323 299.56 79.643 298.72 78.363 298.72C77.103 298.72 76.143 299.56 76.143 301.24V309H74.123V294.3H76.143V299.58C76.563 298.62 77.403 298.12 78.823 298.12C81.163 298.12 82.343 299.54 82.343 301.64V309ZM92.4364 303.48H86.2364V306.08C86.2364 307.76 86.9164 308.8 88.3164 308.8C89.7364 308.8 90.4164 307.76 90.4164 306.68V305.28H92.4364V305.88C92.4364 308.44 91.1764 309.2 88.3164 309.2C85.4564 309.2 84.2164 308.44 84.2164 305.28V302.04C84.2164 298.88 85.4564 298.12 88.3164 298.12C91.1764 298.12 92.4364 298.88 92.4364 301.44V303.48ZM86.2364 303.08H90.4164V300.64C90.4164 299.56 89.7364 298.52 88.3164 298.52C86.9164 298.52 86.2364 299.56 86.2364 301.24V303.08ZM102.454 308.6C103.734 308.6 104.694 307.76 104.694 306.08V301.24C104.694 299.56 104.014 298.52 102.594 298.52C101.194 298.52 100.514 299.56 100.514 301.24V306.08C100.514 307.76 101.194 308.6 102.454 308.6ZM98.4938 309.9H100.514V311.12C100.514 312.2 101.194 312.62 102.594 312.62C104.014 312.62 104.694 311.6 104.694 309.9V307.74C104.274 308.7 103.434 309.2 102.014 309.2C99.6538 309.2 98.4938 307.78 98.4938 305.68V302.04C98.4938 298.88 99.7338 298.12 102.594 298.12C105.454 298.12 106.714 298.88 106.714 302.04V309.1C106.714 312.26 105.454 313.02 102.594 313.02C99.7338 313.02 98.4938 312.86 98.4938 310.3V309.9ZM116.911 298.32V305.28C116.911 308.44 115.651 309.2 112.791 309.2C109.931 309.2 108.691 308.44 108.691 305.28V298.32H110.711V306.08C110.711 307.76 111.391 308.8 112.791 308.8C114.211 308.8 114.891 307.76 114.891 306.08V298.32H116.911ZM127.007 303.48H120.807V306.08C120.807 307.76 121.487 308.8 122.887 308.8C124.307 308.8 124.987 307.76 124.987 306.68V305.28H127.007V305.88C127.007 308.44 125.747 309.2 122.887 309.2C120.027 309.2 118.787 308.44 118.787 305.28V302.04C118.787 298.88 120.027 298.12 122.887 298.12C125.747 298.12 127.007 298.88 127.007 301.44V303.48ZM120.807 303.08H124.987V300.64C124.987 299.56 124.307 298.52 122.887 298.52C121.487 298.52 120.807 299.56 120.807 301.24V303.08ZM128.647 305.28H130.667V306.68C130.667 307.76 131.347 308.8 132.747 308.8C134.027 308.8 134.807 307.94 134.807 306.8C134.807 303.58 128.647 305.78 128.647 301.5C128.647 299.28 130.307 298.12 132.707 298.12C135.287 298.12 136.667 299.44 136.667 301.44V302.04H134.647V300.64C134.647 299.56 134.167 298.52 132.747 298.52C131.487 298.52 130.707 299.36 130.707 300.6C130.707 304 136.867 301.82 136.867 305.94C136.867 308.08 135.207 309.2 132.747 309.2C130.107 309.2 128.647 307.86 128.647 305.88V305.28ZM140.818 295.1V298.32H144.338V298.72H140.818V306.08C140.818 307.76 141.218 308.8 141.798 308.8C142.238 308.8 142.738 308.28 142.738 307.08V306.08H144.738V306.68C144.738 308.44 143.758 309.2 141.778 309.2C139.798 309.2 138.798 308.44 138.798 305.28V298.72H137.798V298.32H138.798V295.1H140.818ZM150.21 305.28H152.23V306.68C152.23 307.76 152.91 308.8 154.31 308.8C155.59 308.8 156.37 307.94 156.37 306.8C156.37 303.58 150.21 305.78 150.21 301.5C150.21 299.28 151.87 298.12 154.27 298.12C156.85 298.12 158.23 299.44 158.23 301.44V302.04H156.21V300.64C156.21 299.56 155.73 298.52 154.31 298.52C153.05 298.52 152.27 299.36 152.27 300.6C152.27 304 158.43 301.82 158.43 305.94C158.43 308.08 156.77 309.2 154.31 309.2C151.67 309.2 150.21 307.86 150.21 305.88V305.28ZM162.38 295.1V298.32H165.9V298.72H162.38V306.08C162.38 307.76 162.78 308.8 163.36 308.8C163.8 308.8 164.3 308.28 164.3 307.08V306.08H166.3V306.68C166.3 308.44 165.32 309.2 163.34 309.2C161.36 309.2 160.36 308.44 160.36 305.28V298.72H159.36V298.32H160.36V295.1H162.38ZM175.815 309H173.795V307.74C173.375 308.7 172.535 309.2 171.115 309.2C168.755 309.2 167.595 307.78 167.595 305.68V302.04C167.595 298.88 168.835 298.12 171.695 298.12C174.555 298.12 175.815 298.88 175.815 302.04V309ZM171.555 308.6C172.835 308.6 173.795 307.76 173.795 306.08V301.24C173.795 299.56 173.115 298.52 171.695 298.52C170.295 298.52 169.615 299.56 169.615 301.24V306.08C169.615 307.76 170.295 308.6 171.555 308.6ZM183.593 298.12V300.54C182.973 299.98 182.233 299.72 181.573 299.72C180.653 299.72 179.913 300.26 179.913 301.24V309H177.893V298.32H179.913V300.18C180.473 298.46 182.233 297.92 183.593 298.12ZM184.624 305.28H186.644V306.68C186.644 307.76 187.324 308.8 188.724 308.8C190.004 308.8 190.784 307.94 190.784 306.8C190.784 303.58 184.624 305.78 184.624 301.5C184.624 299.28 186.284 298.12 188.684 298.12C191.264 298.12 192.644 299.44 192.644 301.44V302.04H190.624V300.64C190.624 299.56 190.144 298.52 188.724 298.52C187.464 298.52 186.684 299.36 186.684 300.6C186.684 304 192.844 301.82 192.844 305.94C192.844 308.08 191.184 309.2 188.724 309.2C186.084 309.2 184.624 307.86 184.624 305.88V305.28ZM206.987 309H204.967V307.74C204.547 308.7 203.707 309.2 202.287 309.2C199.927 309.2 198.767 307.78 198.767 305.68V302.04C198.767 298.88 200.007 298.12 202.867 298.12C205.727 298.12 206.987 298.88 206.987 302.04V309ZM202.727 308.6C204.007 308.6 204.967 307.76 204.967 306.08V301.24C204.967 299.56 204.287 298.52 202.867 298.52C201.467 298.52 200.787 299.56 200.787 301.24V306.08C200.787 307.76 201.467 308.6 202.727 308.6ZM211.15 295.1V298.32H214.67V298.72H211.15V306.08C211.15 307.76 211.55 308.8 212.13 308.8C212.57 308.8 213.07 308.28 213.07 307.08V306.08H215.07V306.68C215.07 308.44 214.09 309.2 212.11 309.2C210.13 309.2 209.13 308.44 209.13 305.28V298.72H208.13V298.32H209.13V295.1H211.15ZM33.12 326.48H26.92V329.08C26.92 330.76 27.6 331.8 29 331.8C30.42 331.8 31.1 330.76 31.1 329.68V328.28H33.12V328.88C33.12 331.44 31.86 332.2 29 332.2C26.14 332.2 24.9 331.44 24.9 328.28V325.04C24.9 321.88 26.14 321.12 29 321.12C31.86 321.12 33.12 321.88 33.12 324.44V326.48ZM26.92 326.08H31.1V323.64C31.1 322.56 30.42 321.52 29 321.52C27.6 321.52 26.92 322.56 26.92 324.24V326.08ZM43.1405 321.32L42.2405 328.28C41.8405 331.42 40.8805 332.2 38.8405 332.2C36.7805 332.2 35.8205 331.42 35.4205 328.28L34.5205 321.32H36.5605L37.5405 329.08C37.7605 330.76 38.2205 331.8 38.8405 331.8C39.4405 331.8 39.9005 330.76 40.1205 329.08L41.1005 321.32H43.1405ZM52.827 326.48H46.627V329.08C46.627 330.76 47.307 331.8 48.707 331.8C50.127 331.8 50.807 330.76 50.807 329.68V328.28H52.827V328.88C52.827 331.44 51.567 332.2 48.707 332.2C45.847 332.2 44.607 331.44 44.607 328.28V325.04C44.607 321.88 45.847 321.12 48.707 321.12C51.567 321.12 52.827 321.88 52.827 324.44V326.48ZM46.627 326.08H50.807V323.64C50.807 322.56 50.127 321.52 48.707 321.52C47.307 321.52 46.627 322.56 46.627 324.24V326.08ZM62.8875 332H60.8675V324.24C60.8675 322.56 60.1875 321.52 58.7675 321.52C57.3675 321.52 56.6875 322.56 56.6875 324.24V332H54.6675V325.04C54.6675 321.88 55.9075 321.12 58.7675 321.12C61.6275 321.12 62.8875 321.88 62.8875 325.04V332ZM67.0289 318.1V321.32H70.5489V321.72H67.0289V329.08C67.0289 330.76 67.4289 331.8 68.0089 331.8C68.4489 331.8 68.9489 331.28 68.9489 330.08V329.08H70.9489V329.68C70.9489 331.44 69.9689 332.2 67.9889 332.2C66.0089 332.2 65.0089 331.44 65.0089 328.28V321.72H64.0089V321.32H65.0089V318.1H67.0289ZM80.8606 321.72C79.6006 321.72 78.6406 322.56 78.6406 324.24V329.08C78.6406 330.76 79.3206 331.8 80.7206 331.8C82.1406 331.8 82.8206 330.76 82.8206 329.08V324.24C82.8206 322.56 82.1406 321.72 80.8606 321.72ZM76.6206 317.3H78.6406V322.58C79.0606 321.62 79.9006 321.12 81.3206 321.12C83.6606 321.12 84.8406 322.54 84.8406 324.64V328.28C84.8406 331.44 83.5806 332.2 80.7206 332.2C77.8606 332.2 76.6206 331.44 76.6206 328.28V317.3ZM94.8583 332H92.8383V330.74C92.4183 331.7 91.5783 332.2 90.1583 332.2C87.7983 332.2 86.6383 330.78 86.6383 328.68V325.04C86.6383 321.88 87.8783 321.12 90.7383 321.12C93.5983 321.12 94.8583 321.88 94.8583 325.04V332ZM90.5983 331.6C91.8783 331.6 92.8383 330.76 92.8383 329.08V324.24C92.8383 322.56 92.1583 321.52 90.7383 321.52C89.3383 321.52 88.6583 322.56 88.6583 324.24V329.08C88.6583 330.76 89.3383 331.6 90.5983 331.6ZM104.975 325.04H102.955V323.64C102.955 322.56 102.275 321.52 100.855 321.52C99.4555 321.52 98.7755 322.56 98.7755 324.24V329.08C98.7755 330.76 99.4555 331.8 100.855 331.8C102.275 331.8 102.955 330.76 102.955 329.68V328.28H104.975V328.88C104.975 331.44 103.715 332.2 100.855 332.2C97.9955 332.2 96.7555 331.44 96.7555 328.28V325.04C96.7555 321.88 97.9955 321.12 100.855 321.12C103.715 321.12 104.975 321.88 104.975 324.44V325.04ZM112.618 323.94V321.32H114.638V323.88C114.638 325.84 113.918 325.98 112.438 326.38C113.838 326.84 114.638 327.22 114.638 329.42V332H112.618V329.28C112.618 326.82 111.958 326.56 109.998 326.56H108.838V332H106.818V317.3H108.838V326.16H109.998C111.958 326.16 112.618 326.1 112.618 323.94ZM120.462 321.72C119.202 321.72 118.522 322.56 118.522 324.24V329.08C118.522 330.76 119.202 331.8 120.602 331.8C122.022 331.8 122.702 330.76 122.702 329.08V324.24C122.702 322.56 121.742 321.72 120.462 321.72ZM124.722 317.3V328.28C124.722 331.44 123.462 332.2 120.602 332.2C117.742 332.2 116.502 331.44 116.502 328.28V324.64C116.502 322.54 117.662 321.12 120.022 321.12C121.442 321.12 122.282 321.62 122.702 322.58V317.3H124.722ZM132.479 321.12V323.54C131.859 322.98 131.119 322.72 130.459 322.72C129.539 322.72 128.799 323.26 128.799 324.24V332H126.779V321.32H128.799V323.18C129.359 321.46 131.119 320.92 132.479 321.12ZM133.63 328.28V325.04C133.63 321.88 134.87 321.12 137.73 321.12C140.59 321.12 141.85 321.88 141.85 325.04V328.28C141.85 331.44 140.59 332.2 137.73 332.2C134.87 332.2 133.63 331.44 133.63 328.28ZM137.73 331.8C139.15 331.8 139.83 330.76 139.83 329.08V324.24C139.83 322.56 139.15 321.52 137.73 321.52C136.33 321.52 135.65 322.56 135.65 324.24V329.08C135.65 330.76 136.33 331.8 137.73 331.8ZM147.99 331.6C149.27 331.6 149.95 330.76 149.95 329.08V324.24C149.95 322.56 149.27 321.52 147.85 321.52C146.45 321.52 145.77 322.56 145.77 324.24V329.08C145.77 330.76 146.73 331.6 147.99 331.6ZM143.75 336.02V325.04C143.75 321.88 144.99 321.12 147.85 321.12C150.71 321.12 151.97 321.88 151.97 325.04V328.68C151.97 330.78 150.79 332.2 148.45 332.2C147.03 332.2 146.19 331.7 145.77 330.74V336.02H143.75Z" fill="black"/>
<path d="M2 274C2 272.343 3.34315 271 5 271H15C16.6569 271 18 272.343 18 274V284C18 285.657 16.6569 287 15 287H5C3.34315 287 2 285.657 2 284V274Z" fill="black" stroke="#003556" stroke-width="2"/>
<path d="M2 276.571L8.6 283L24 268" stroke="#8DFF00" stroke-width="3"/>
</svg>
