<svg width="257" height="338" viewBox="0 0 257 338" fill="none" xmlns="http://www.w3.org/2000/svg">
<path d="M25.2 20V5.3H32.66V5.7H27.42V12.14H32.24V12.54H27.42V20H25.2ZM41.9891 9.32V16.28C41.9891 19.44 40.7291 20.2 37.8691 20.2C35.0091 20.2 33.7691 19.44 33.7691 16.28V9.32H35.7891V17.08C35.7891 18.76 36.4691 19.8 37.8691 19.8C39.2891 19.8 39.9691 18.76 39.9691 17.08V9.32H41.9891ZM46.0648 20H44.0448V5.3H46.0648V20ZM50.2445 20H48.2245V5.3H50.2445V20ZM64.7411 20H62.7211V18.74C62.3011 19.7 61.4611 20.2 60.0411 20.2C57.6811 20.2 56.5211 18.78 56.5211 16.68V13.04C56.5211 9.88 57.7611 9.12 60.6211 9.12C63.4811 9.12 64.7411 9.88 64.7411 13.04V20ZM60.4811 19.6C61.7611 19.6 62.7211 18.76 62.7211 17.08V12.24C62.7211 10.56 62.0411 9.52 60.6211 9.52C59.2211 9.52 58.5411 10.56 58.5411 12.24V17.08C58.5411 18.76 59.2211 19.6 60.4811 19.6ZM74.8583 13.04H72.8383V11.64C72.8383 10.56 72.1583 9.52 70.7383 9.52C69.3383 9.52 68.6583 10.56 68.6583 12.24V17.08C68.6583 18.76 69.3383 19.8 70.7383 19.8C72.1583 19.8 72.8383 18.76 72.8383 17.68V16.28H74.8583V16.88C74.8583 19.44 73.5983 20.2 70.7383 20.2C67.8783 20.2 66.6383 19.44 66.6383 16.28V13.04C66.6383 9.88 67.8783 9.12 70.7383 9.12C73.5983 9.12 74.8583 9.88 74.8583 12.44V13.04ZM84.7411 13.04H82.7211V11.64C82.7211 10.56 82.0411 9.52 80.6211 9.52C79.2211 9.52 78.5411 10.56 78.5411 12.24V17.08C78.5411 18.76 79.2211 19.8 80.6211 19.8C82.0411 19.8 82.7211 18.76 82.7211 17.68V16.28H84.7411V16.88C84.7411 19.44 83.4811 20.2 80.6211 20.2C77.7611 20.2 76.5211 19.44 76.5211 16.28V13.04C76.5211 9.88 77.7611 9.12 80.6211 9.12C83.4811 9.12 84.7411 9.88 84.7411 12.44V13.04ZM94.6239 14.48H88.4239V17.08C88.4239 18.76 89.1039 19.8 90.5039 19.8C91.9239 19.8 92.6039 18.76 92.6039 17.68V16.28H94.6239V16.88C94.6239 19.44 93.3639 20.2 90.5039 20.2C87.6439 20.2 86.4039 19.44 86.4039 16.28V13.04C86.4039 9.88 87.6439 9.12 90.5039 9.12C93.3639 9.12 94.6239 9.88 94.6239 12.44V14.48ZM88.4239 14.08H92.6039V11.64C92.6039 10.56 91.9239 9.52 90.5039 9.52C89.1039 9.52 88.4239 10.56 88.4239 12.24V14.08ZM96.2644 16.28H98.2844V17.68C98.2844 18.76 98.9644 19.8 100.364 19.8C101.644 19.8 102.424 18.94 102.424 17.8C102.424 14.58 96.2644 16.78 96.2644 12.5C96.2644 10.28 97.9244 9.12 100.324 9.12C102.904 9.12 104.284 10.44 104.284 12.44V13.04H102.264V11.64C102.264 10.56 101.784 9.52 100.364 9.52C99.1044 9.52 98.3244 10.36 98.3244 11.6C98.3244 15 104.484 12.82 104.484 16.94C104.484 19.08 102.824 20.2 100.364 20.2C97.7244 20.2 96.2644 18.86 96.2644 16.88V16.28ZM105.991 16.28H108.011V17.68C108.011 18.76 108.691 19.8 110.091 19.8C111.371 19.8 112.151 18.94 112.151 17.8C112.151 14.58 105.991 16.78 105.991 12.5C105.991 10.28 107.651 9.12 110.051 9.12C112.631 9.12 114.011 10.44 114.011 12.44V13.04H111.991V11.64C111.991 10.56 111.511 9.52 110.091 9.52C108.831 9.52 108.051 10.36 108.051 11.6C108.051 15 114.211 12.82 114.211 16.94C114.211 19.08 112.551 20.2 110.091 20.2C107.451 20.2 105.991 18.86 105.991 16.88V16.28ZM122.634 6.1V9.32H126.154V9.72H122.634V17.08C122.634 18.76 123.034 19.8 123.614 19.8C124.054 19.8 124.554 19.28 124.554 18.08V17.08H126.554V17.68C126.554 19.44 125.574 20.2 123.594 20.2C121.614 20.2 120.614 19.44 120.614 16.28V9.72H119.614V9.32H120.614V6.1H122.634ZM127.849 16.28V13.04C127.849 9.88 129.089 9.12 131.949 9.12C134.809 9.12 136.069 9.88 136.069 13.04V16.28C136.069 19.44 134.809 20.2 131.949 20.2C129.089 20.2 127.849 19.44 127.849 16.28ZM131.949 19.8C133.369 19.8 134.049 18.76 134.049 17.08V12.24C134.049 10.56 133.369 9.52 131.949 9.52C130.549 9.52 129.869 10.56 129.869 12.24V17.08C129.869 18.76 130.549 19.8 131.949 19.8ZM144.666 6.1V9.32H148.186V9.72H144.666V17.08C144.666 18.76 145.066 19.8 145.646 19.8C146.086 19.8 146.586 19.28 146.586 18.08V17.08H148.586V17.68C148.586 19.44 147.606 20.2 145.626 20.2C143.646 20.2 142.646 19.44 142.646 16.28V9.72H141.646V9.32H142.646V6.1H144.666ZM158.28 20H156.26V12.24C156.26 10.56 155.58 9.72 154.3 9.72C153.04 9.72 152.08 10.56 152.08 12.24V20H150.06V5.3H152.08V10.58C152.5 9.62 153.34 9.12 154.76 9.12C157.1 9.12 158.28 10.54 158.28 12.64V20ZM168.374 14.48H162.174V17.08C162.174 18.76 162.854 19.8 164.254 19.8C165.674 19.8 166.354 18.76 166.354 17.68V16.28H168.374V16.88C168.374 19.44 167.114 20.2 164.254 20.2C161.394 20.2 160.154 19.44 160.154 16.28V13.04C160.154 9.88 161.394 9.12 164.254 9.12C167.114 9.12 168.374 9.88 168.374 12.44V14.48ZM162.174 14.08H166.354V11.64C166.354 10.56 165.674 9.52 164.254 9.52C162.854 9.52 162.174 10.56 162.174 12.24V14.08ZM182.091 20H180.071V12.24C180.071 10.56 179.511 9.52 178.311 9.52C177.111 9.52 176.551 10.56 176.551 12.24V20H174.531V13.04C174.531 9.88 175.671 9.12 178.071 9.12C179.551 9.12 180.611 9.4 181.071 10.62C181.451 9.4 182.611 9.12 184.071 9.12C186.471 9.12 187.631 9.88 187.631 13.04V20H185.611V12.24C185.611 10.56 185.051 9.52 183.851 9.52C182.651 9.52 182.091 10.56 182.091 12.24V20ZM197.829 9.32V16.28C197.829 19.44 196.569 20.2 193.709 20.2C190.849 20.2 189.609 19.44 189.609 16.28V9.32H191.629V17.08C191.629 18.76 192.309 19.8 193.709 19.8C195.129 19.8 195.809 18.76 195.809 17.08V9.32H197.829ZM199.585 16.28H201.605V17.68C201.605 18.76 202.285 19.8 203.685 19.8C204.965 19.8 205.745 18.94 205.745 17.8C205.745 14.58 199.585 16.78 199.585 12.5C199.585 10.28 201.245 9.12 203.645 9.12C206.225 9.12 207.605 10.44 207.605 12.44V13.04H205.585V11.64C205.585 10.56 205.105 9.52 203.685 9.52C202.425 9.52 201.645 10.36 201.645 11.6C201.645 15 207.805 12.82 207.805 16.94C207.805 19.08 206.145 20.2 203.685 20.2C201.045 20.2 199.585 18.86 199.585 16.88V16.28ZM209.115 7.2C209.115 6.48 209.695 5.9 210.415 5.9C211.155 5.9 211.735 6.48 211.735 7.2C211.735 7.94 211.155 8.52 210.415 8.52C209.695 8.52 209.115 7.94 209.115 7.2ZM209.415 20V9.32H211.435V20H209.415ZM221.46 13.04H219.44V11.64C219.44 10.56 218.76 9.52 217.34 9.52C215.94 9.52 215.26 10.56 215.26 12.24V17.08C215.26 18.76 215.94 19.8 217.34 19.8C218.76 19.8 219.44 18.76 219.44 17.68V16.28H221.46V16.88C221.46 19.44 220.2 20.2 217.34 20.2C214.48 20.2 213.24 19.44 213.24 16.28V13.04C213.24 9.88 214.48 9.12 217.34 9.12C220.2 9.12 221.46 9.88 221.46 12.44V13.04ZM33.12 43H31.1V41.74C30.68 42.7 29.84 43.2 28.42 43.2C26.06 43.2 24.9 41.78 24.9 39.68V36.04C24.9 32.88 26.14 32.12 29 32.12C31.86 32.12 33.12 32.88 33.12 36.04V43ZM28.86 42.6C30.14 42.6 31.1 41.76 31.1 40.08V35.24C31.1 33.56 30.42 32.52 29 32.52C27.6 32.52 26.92 33.56 26.92 35.24V40.08C26.92 41.76 27.6 42.6 28.86 42.6ZM43.3172 43H41.2972V35.24C41.2972 33.56 40.6172 32.52 39.1972 32.52C37.7972 32.52 37.1172 33.56 37.1172 35.24V43H35.0972V36.04C35.0972 32.88 36.3372 32.12 39.1972 32.12C42.0572 32.12 43.3172 32.88 43.3172 36.04V43ZM49.153 32.72C47.893 32.72 47.213 33.56 47.213 35.24V40.08C47.213 41.76 47.893 42.8 49.293 42.8C50.713 42.8 51.393 41.76 51.393 40.08V35.24C51.393 33.56 50.433 32.72 49.153 32.72ZM53.413 28.3V39.28C53.413 42.44 52.153 43.2 49.293 43.2C46.433 43.2 45.193 42.44 45.193 39.28V35.64C45.193 33.54 46.353 32.12 48.713 32.12C50.133 32.12 50.973 32.62 51.393 33.58V28.3H53.413ZM62.1275 43H60.1075V32.72H59.1075V32.32H60.1075V32.02C60.1075 28.86 61.1075 28.1 62.9875 28.1C64.8675 28.1 65.8475 28.86 65.8475 30.6V31.22H63.8475V30.2C63.8475 29.02 63.4475 28.5 62.9675 28.5C62.3275 28.5 62.1275 29.58 62.1275 31.22V32.32H64.9875V32.72H62.1275V43ZM73.7841 37.48H67.5841V40.08C67.5841 41.76 68.2641 42.8 69.6641 42.8C71.0841 42.8 71.7641 41.76 71.7641 40.68V39.28H73.7841V39.88C73.7841 42.44 72.5241 43.2 69.6641 43.2C66.8041 43.2 65.5641 42.44 65.5641 39.28V36.04C65.5641 32.88 66.8041 32.12 69.6641 32.12C72.5241 32.12 73.7841 32.88 73.7841 35.44V37.48ZM67.5841 37.08H71.7641V34.64C71.7641 33.56 71.0841 32.52 69.6641 32.52C68.2641 32.52 67.5841 33.56 67.5841 35.24V37.08ZM75.4245 39.28H77.4445V40.68C77.4445 41.76 78.1245 42.8 79.5245 42.8C80.8045 42.8 81.5845 41.94 81.5845 40.8C81.5845 37.58 75.4245 39.78 75.4245 35.5C75.4245 33.28 77.0845 32.12 79.4845 32.12C82.0645 32.12 83.4445 33.44 83.4445 35.44V36.04H81.4245V34.64C81.4245 33.56 80.9445 32.52 79.5245 32.52C78.2645 32.52 77.4845 33.36 77.4845 34.6C77.4845 38 83.6445 35.82 83.6445 39.94C83.6445 42.08 81.9845 43.2 79.5245 43.2C76.8845 43.2 75.4245 41.86 75.4245 39.88V39.28ZM87.5953 29.1V32.32H91.1153V32.72H87.5953V40.08C87.5953 41.76 87.9953 42.8 88.5753 42.8C89.0153 42.8 89.5153 42.28 89.5153 41.08V40.08H91.5153V40.68C91.5153 42.44 90.5353 43.2 88.5553 43.2C86.5753 43.2 85.5753 42.44 85.5753 39.28V32.72H84.5753V32.32H85.5753V29.1H87.5953ZM92.6702 30.2C92.6702 29.48 93.2502 28.9 93.9702 28.9C94.7102 28.9 95.2902 29.48 95.2902 30.2C95.2902 30.94 94.7102 31.52 93.9702 31.52C93.2502 31.52 92.6702 30.94 92.6702 30.2ZM92.9702 43V32.32H94.9902V43H92.9702ZM105.055 32.32L104.155 39.28C103.755 42.42 102.795 43.2 100.755 43.2C98.6945 43.2 97.7345 42.42 97.3345 39.28L96.4345 32.32H98.4745L99.4545 40.08C99.6745 41.76 100.135 42.8 100.755 42.8C101.355 42.8 101.815 41.76 102.035 40.08L103.015 32.32H105.055ZM114.741 37.48H108.541V40.08C108.541 41.76 109.221 42.8 110.621 42.8C112.041 42.8 112.721 41.76 112.721 40.68V39.28H114.741V39.88C114.741 42.44 113.481 43.2 110.621 43.2C107.761 43.2 106.521 42.44 106.521 39.28V36.04C106.521 32.88 107.761 32.12 110.621 32.12C113.481 32.12 114.741 32.88 114.741 35.44V37.48ZM108.541 37.08H112.721V34.64C112.721 33.56 112.041 32.52 110.621 32.52C109.221 32.52 108.541 33.56 108.541 35.24V37.08ZM129.018 37.48H122.818V40.08C122.818 41.76 123.498 42.8 124.898 42.8C126.318 42.8 126.998 41.76 126.998 40.68V39.28H129.018V39.88C129.018 42.44 127.758 43.2 124.898 43.2C122.038 43.2 120.798 42.44 120.798 39.28V36.04C120.798 32.88 122.038 32.12 124.898 32.12C127.758 32.12 129.018 32.88 129.018 35.44V37.48ZM122.818 37.08H126.998V34.64C126.998 33.56 126.318 32.52 124.898 32.52C123.498 32.52 122.818 33.56 122.818 35.24V37.08ZM130.839 43V40.42C130.839 38.22 131.619 37.84 133.039 37.38C131.559 36.98 130.839 36.84 130.839 34.88V32.32H132.859V34.94C132.859 36.78 133.339 37.14 134.679 37.14C136.019 37.14 136.499 36.78 136.499 34.94V32.32H138.519V34.88C138.519 36.84 137.779 36.98 136.319 37.38C137.719 37.84 138.519 38.22 138.519 40.42V43H136.499V40.28C136.499 38.18 136.019 37.58 134.679 37.58C133.339 37.58 132.859 38.18 132.859 40.28V43H130.839ZM144.728 42.6C146.008 42.6 146.688 41.76 146.688 40.08V35.24C146.688 33.56 146.008 32.52 144.588 32.52C143.188 32.52 142.508 33.56 142.508 35.24V40.08C142.508 41.76 143.468 42.6 144.728 42.6ZM140.488 47.02V36.04C140.488 32.88 141.728 32.12 144.588 32.12C147.448 32.12 148.708 32.88 148.708 36.04V39.68C148.708 41.78 147.528 43.2 145.188 43.2C143.768 43.2 142.928 42.7 142.508 41.74V47.02H140.488ZM158.725 37.48H152.525V40.08C152.525 41.76 153.205 42.8 154.605 42.8C156.025 42.8 156.705 41.76 156.705 40.68V39.28H158.725V39.88C158.725 42.44 157.465 43.2 154.605 43.2C151.745 43.2 150.505 42.44 150.505 39.28V36.04C150.505 32.88 151.745 32.12 154.605 32.12C157.465 32.12 158.725 32.88 158.725 35.44V37.48ZM152.525 37.08H156.705V34.64C156.705 33.56 156.025 32.52 154.605 32.52C153.205 32.52 152.525 33.56 152.525 35.24V37.08ZM166.366 32.12V34.54C165.746 33.98 165.006 33.72 164.346 33.72C163.426 33.72 162.686 34.26 162.686 35.24V43H160.666V32.32H162.686V34.18C163.246 32.46 165.006 31.92 166.366 32.12ZM167.377 30.2C167.377 29.48 167.957 28.9 168.677 28.9C169.417 28.9 169.997 29.48 169.997 30.2C169.997 30.94 169.417 31.52 168.677 31.52C167.957 31.52 167.377 30.94 167.377 30.2ZM167.677 43V32.32H169.697V43H167.677ZM179.722 37.48H173.522V40.08C173.522 41.76 174.202 42.8 175.602 42.8C177.022 42.8 177.702 41.76 177.702 40.68V39.28H179.722V39.88C179.722 42.44 178.462 43.2 175.602 43.2C172.742 43.2 171.502 42.44 171.502 39.28V36.04C171.502 32.88 172.742 32.12 175.602 32.12C178.462 32.12 179.722 32.88 179.722 35.44V37.48ZM173.522 37.08H177.702V34.64C177.702 33.56 177.022 32.52 175.602 32.52C174.202 32.52 173.522 33.56 173.522 35.24V37.08ZM189.782 43H187.762V35.24C187.762 33.56 187.082 32.52 185.662 32.52C184.262 32.52 183.582 33.56 183.582 35.24V43H181.562V36.04C181.562 32.88 182.802 32.12 185.662 32.12C188.522 32.12 189.782 32.88 189.782 36.04V43ZM199.878 36.04H197.858V34.64C197.858 33.56 197.178 32.52 195.758 32.52C194.358 32.52 193.678 33.56 193.678 35.24V40.08C193.678 41.76 194.358 42.8 195.758 42.8C197.178 42.8 197.858 41.76 197.858 40.68V39.28H199.878V39.88C199.878 42.44 198.618 43.2 195.758 43.2C192.898 43.2 191.658 42.44 191.658 39.28V36.04C191.658 32.88 192.898 32.12 195.758 32.12C198.618 32.12 199.878 32.88 199.878 35.44V36.04ZM209.761 37.48H203.561V40.08C203.561 41.76 204.241 42.8 205.641 42.8C207.061 42.8 207.741 41.76 207.741 40.68V39.28H209.761V39.88C209.761 42.44 208.501 43.2 205.641 43.2C202.781 43.2 201.541 42.44 201.541 39.28V36.04C201.541 32.88 202.781 32.12 205.641 32.12C208.501 32.12 209.761 32.88 209.761 35.44V37.48ZM203.561 37.08H207.741V34.64C207.741 33.56 207.061 32.52 205.641 32.52C204.241 32.52 203.561 33.56 203.561 35.24V37.08Z" fill="black"/>
<path d="M2 8C2 6.34315 3.34315 5 5 5H15C16.6569 5 18 6.34315 18 8V18C18 19.6569 16.6569 21 15 21H5C3.34315 21 2 19.6569 2 18V8Z" fill="black" stroke="#003556" stroke-width="2"/>
<path d="M2 10.5714L8.6 17L24 2" stroke="#8DFF00" stroke-width="3"/>
<path d="M34.46 76H32.26L31.72 70.78H27.36L26.82 76H24.6L25.7 65.42C26.04 62.26 27.38 61.1 29.54 61.1C31.7 61.1 33.04 62.26 33.36 65.42L34.46 76ZM27.4 70.38H31.66L31.04 64.22C30.86 62.52 30.22 61.5 29.52 61.5C28.78 61.5 28.18 62.58 28.02 64.22L27.4 70.38ZM44.1942 69.04H42.1742V67.64C42.1742 66.56 41.4942 65.52 40.0742 65.52C38.6742 65.52 37.9942 66.56 37.9942 68.24V73.08C37.9942 74.76 38.6742 75.8 40.0742 75.8C41.4942 75.8 42.1742 74.76 42.1742 73.68V72.28H44.1942V72.88C44.1942 75.44 42.9342 76.2 40.0742 76.2C37.2142 76.2 35.9742 75.44 35.9742 72.28V69.04C35.9742 65.88 37.2142 65.12 40.0742 65.12C42.9342 65.12 44.1942 65.88 44.1942 68.44V69.04ZM54.077 69.04H52.057V67.64C52.057 66.56 51.377 65.52 49.957 65.52C48.557 65.52 47.877 66.56 47.877 68.24V73.08C47.877 74.76 48.557 75.8 49.957 75.8C51.377 75.8 52.057 74.76 52.057 73.68V72.28H54.077V72.88C54.077 75.44 52.817 76.2 49.957 76.2C47.097 76.2 45.857 75.44 45.857 72.28V69.04C45.857 65.88 47.097 65.12 49.957 65.12C52.817 65.12 54.077 65.88 54.077 68.44V69.04ZM63.9598 70.48H57.7598V73.08C57.7598 74.76 58.4398 75.8 59.8398 75.8C61.2598 75.8 61.9398 74.76 61.9398 73.68V72.28H63.9598V72.88C63.9598 75.44 62.6998 76.2 59.8398 76.2C56.9798 76.2 55.7398 75.44 55.7398 72.28V69.04C55.7398 65.88 56.9798 65.12 59.8398 65.12C62.6998 65.12 63.9598 65.88 63.9598 68.44V70.48ZM57.7598 70.08H61.9398V67.64C61.9398 66.56 61.2598 65.52 59.8398 65.52C58.4398 65.52 57.7598 66.56 57.7598 68.24V70.08ZM65.6003 72.28H67.6203V73.68C67.6203 74.76 68.3003 75.8 69.7003 75.8C70.9803 75.8 71.7603 74.94 71.7603 73.8C71.7603 70.58 65.6003 72.78 65.6003 68.5C65.6003 66.28 67.2603 65.12 69.6603 65.12C72.2403 65.12 73.6203 66.44 73.6203 68.44V69.04H71.6003V67.64C71.6003 66.56 71.1203 65.52 69.7003 65.52C68.4403 65.52 67.6603 66.36 67.6603 67.6C67.6603 71 73.8203 68.82 73.8203 72.94C73.8203 75.08 72.1603 76.2 69.7003 76.2C67.0603 76.2 65.6003 74.86 65.6003 72.88V72.28ZM75.3269 72.28H77.3469V73.68C77.3469 74.76 78.0269 75.8 79.4269 75.8C80.7069 75.8 81.4869 74.94 81.4869 73.8C81.4869 70.58 75.3269 72.78 75.3269 68.5C75.3269 66.28 76.9869 65.12 79.3869 65.12C81.9669 65.12 83.3469 66.44 83.3469 68.44V69.04H81.3269V67.64C81.3269 66.56 80.8469 65.52 79.4269 65.52C78.1669 65.52 77.3869 66.36 77.3869 67.6C77.3869 71 83.5469 68.82 83.5469 72.94C83.5469 75.08 81.8869 76.2 79.4269 76.2C76.7869 76.2 75.3269 74.86 75.3269 72.88V72.28ZM91.9703 62.1V65.32H95.4903V65.72H91.9703V73.08C91.9703 74.76 92.3703 75.8 92.9503 75.8C93.3903 75.8 93.8903 75.28 93.8903 74.08V73.08H95.8903V73.68C95.8903 75.44 94.9103 76.2 92.9303 76.2C90.9503 76.2 89.9503 75.44 89.9503 72.28V65.72H88.9503V65.32H89.9503V62.1H91.9703ZM97.1852 72.28V69.04C97.1852 65.88 98.4252 65.12 101.285 65.12C104.145 65.12 105.405 65.88 105.405 69.04V72.28C105.405 75.44 104.145 76.2 101.285 76.2C98.4252 76.2 97.1852 75.44 97.1852 72.28ZM101.285 75.8C102.705 75.8 103.385 74.76 103.385 73.08V68.24C103.385 66.56 102.705 65.52 101.285 65.52C99.8852 65.52 99.2052 66.56 99.2052 68.24V73.08C99.2052 74.76 99.8852 75.8 101.285 75.8ZM119.722 70.48H113.522V73.08C113.522 74.76 114.202 75.8 115.602 75.8C117.022 75.8 117.702 74.76 117.702 73.68V72.28H119.722V72.88C119.722 75.44 118.462 76.2 115.602 76.2C112.742 76.2 111.502 75.44 111.502 72.28V69.04C111.502 65.88 112.742 65.12 115.602 65.12C118.462 65.12 119.722 65.88 119.722 68.44V70.48ZM113.522 70.08H117.702V67.64C117.702 66.56 117.022 65.52 115.602 65.52C114.202 65.52 113.522 66.56 113.522 68.24V70.08ZM129.702 76H127.682V74.74C127.262 75.7 126.422 76.2 125.002 76.2C122.642 76.2 121.482 74.78 121.482 72.68V69.04C121.482 65.88 122.722 65.12 125.582 65.12C128.442 65.12 129.702 65.88 129.702 69.04V76ZM125.442 75.6C126.722 75.6 127.682 74.76 127.682 73.08V68.24C127.682 66.56 127.002 65.52 125.582 65.52C124.182 65.52 123.502 66.56 123.502 68.24V73.08C123.502 74.76 124.182 75.6 125.442 75.6ZM137.479 65.12V67.54C136.859 66.98 136.119 66.72 135.459 66.72C134.539 66.72 133.799 67.26 133.799 68.24V76H131.779V65.32H133.799V67.18C134.359 65.46 136.119 64.92 137.479 65.12ZM140.83 76H138.81V61.3H140.83V76ZM150.71 65.32V76.1C150.71 79.26 149.45 80.02 146.99 80.02C144.13 80.02 142.89 79.86 142.89 77.3V76.9H144.91V78.12C144.91 79.2 145.59 79.62 146.99 79.62C148.01 79.62 148.69 78.6 148.69 76.9V74.74C148.27 75.7 147.63 76.2 146.29 76.2C144.05 76.2 142.89 74.78 142.89 72.68V65.32H144.91V73.08C144.91 74.76 145.59 75.6 146.75 75.6C147.93 75.6 148.69 74.76 148.69 73.08V65.32H150.71ZM29.22 88.72C27.96 88.72 27 89.56 27 91.24V96.08C27 97.76 27.68 98.8 29.08 98.8C30.5 98.8 31.18 97.76 31.18 96.08V91.24C31.18 89.56 30.5 88.72 29.22 88.72ZM24.98 84.3H27V89.58C27.42 88.62 28.26 88.12 29.68 88.12C32.02 88.12 33.2 89.54 33.2 91.64V95.28C33.2 98.44 31.94 99.2 29.08 99.2C26.22 99.2 24.98 98.44 24.98 95.28V84.3ZM43.2177 99H41.1977V97.74C40.7777 98.7 39.9377 99.2 38.5177 99.2C36.1577 99.2 34.9977 97.78 34.9977 95.68V92.04C34.9977 88.88 36.2377 88.12 39.0977 88.12C41.9577 88.12 43.2177 88.88 43.2177 92.04V99ZM38.9577 98.6C40.2377 98.6 41.1977 97.76 41.1977 96.08V91.24C41.1977 89.56 40.5177 88.52 39.0977 88.52C37.6977 88.52 37.0177 89.56 37.0177 91.24V96.08C37.0177 97.76 37.6977 98.6 38.9577 98.6ZM53.3348 92.04H51.3148V90.64C51.3148 89.56 50.6348 88.52 49.2148 88.52C47.8148 88.52 47.1348 89.56 47.1348 91.24V96.08C47.1348 97.76 47.8148 98.8 49.2148 98.8C50.6348 98.8 51.3148 97.76 51.3148 96.68V95.28H53.3348V95.88C53.3348 98.44 52.0748 99.2 49.2148 99.2C46.3548 99.2 45.1148 98.44 45.1148 95.28V92.04C45.1148 88.88 46.3548 88.12 49.2148 88.12C52.0748 88.12 53.3348 88.88 53.3348 91.44V92.04ZM60.9777 90.94V88.32H62.9977V90.88C62.9977 92.84 62.2777 92.98 60.7977 93.38C62.1977 93.84 62.9977 94.22 62.9977 96.42V99H60.9777V96.28C60.9777 93.82 60.3177 93.56 58.3577 93.56H57.1977V99H55.1777V84.3H57.1977V93.16H58.3577C60.3177 93.16 60.9777 93.1 60.9777 90.94ZM64.7409 95.28H66.7609V96.68C66.7609 97.76 67.4409 98.8 68.8409 98.8C70.1209 98.8 70.9009 97.94 70.9009 96.8C70.9009 93.58 64.7409 95.78 64.7409 91.5C64.7409 89.28 66.4009 88.12 68.8009 88.12C71.3809 88.12 72.7609 89.44 72.7609 91.44V92.04H70.7409V90.64C70.7409 89.56 70.2609 88.52 68.8409 88.52C67.5809 88.52 66.8009 89.36 66.8009 90.6C66.8009 94 72.9609 91.82 72.9609 95.94C72.9609 98.08 71.3009 99.2 68.8409 99.2C66.2009 99.2 64.7409 97.86 64.7409 95.88V95.28ZM76.9117 85.1V88.32H80.4317V88.72H76.9117V96.08C76.9117 97.76 77.3117 98.8 77.8917 98.8C78.3317 98.8 78.8317 98.28 78.8317 97.08V96.08H80.8317V96.68C80.8317 98.44 79.8517 99.2 77.8717 99.2C75.8917 99.2 74.8917 98.44 74.8917 95.28V88.72H73.8917V88.32H74.8917V85.1H76.9117ZM90.3466 99H88.3266V97.74C87.9066 98.7 87.0666 99.2 85.6466 99.2C83.2866 99.2 82.1266 97.78 82.1266 95.68V92.04C82.1266 88.88 83.3666 88.12 86.2266 88.12C89.0866 88.12 90.3466 88.88 90.3466 92.04V99ZM86.0866 98.6C87.3666 98.6 88.3266 97.76 88.3266 96.08V91.24C88.3266 89.56 87.6466 88.52 86.2266 88.52C84.8266 88.52 84.1466 89.56 84.1466 91.24V96.08C84.1466 97.76 84.8266 98.6 86.0866 98.6ZM96.2038 98.6C97.4838 98.6 98.4438 97.76 98.4438 96.08V91.24C98.4438 89.56 97.7638 88.52 96.3438 88.52C94.9438 88.52 94.2638 89.56 94.2638 91.24V96.08C94.2638 97.76 94.9438 98.6 96.2038 98.6ZM92.2438 99.9H94.2638V101.12C94.2638 102.2 94.9438 102.62 96.3438 102.62C97.7638 102.62 98.4438 101.6 98.4438 99.9V97.74C98.0238 98.7 97.1838 99.2 95.7638 99.2C93.4038 99.2 92.2438 97.78 92.2438 95.68V92.04C92.2438 88.88 93.4838 88.12 96.3438 88.12C99.2038 88.12 100.464 88.88 100.464 92.04V99.1C100.464 102.26 99.2038 103.02 96.3438 103.02C93.4838 103.02 92.2438 102.86 92.2438 100.3V99.9ZM110.581 93.48H104.381V96.08C104.381 97.76 105.061 98.8 106.461 98.8C107.881 98.8 108.561 97.76 108.561 96.68V95.28H110.581V95.88C110.581 98.44 109.321 99.2 106.461 99.2C103.601 99.2 102.361 98.44 102.361 95.28V92.04C102.361 88.88 103.601 88.12 106.461 88.12C109.321 88.12 110.581 88.88 110.581 91.44V93.48ZM104.381 93.08H108.561V90.64C108.561 89.56 107.881 88.52 106.461 88.52C105.061 88.52 104.381 89.56 104.381 91.24V93.08ZM119.178 99H117.158V88.72H116.158V88.32H117.158V88.02C117.158 84.86 118.158 84.1 120.038 84.1C121.918 84.1 122.898 84.86 122.898 86.6V87.22H120.898V86.2C120.898 85.02 120.498 84.5 120.018 84.5C119.378 84.5 119.178 85.58 119.178 87.22V88.32H122.038V88.72H119.178V99ZM130.835 93.48H124.635V96.08C124.635 97.76 125.315 98.8 126.715 98.8C128.135 98.8 128.815 97.76 128.815 96.68V95.28H130.835V95.88C130.835 98.44 129.575 99.2 126.715 99.2C123.855 99.2 122.615 98.44 122.615 95.28V92.04C122.615 88.88 123.855 88.12 126.715 88.12C129.575 88.12 130.835 88.88 130.835 91.44V93.48ZM124.635 93.08H128.815V90.64C128.815 89.56 128.135 88.52 126.715 88.52C125.315 88.52 124.635 89.56 124.635 91.24V93.08ZM132.475 95.28H134.495V96.68C134.495 97.76 135.175 98.8 136.575 98.8C137.855 98.8 138.635 97.94 138.635 96.8C138.635 93.58 132.475 95.78 132.475 91.5C132.475 89.28 134.135 88.12 136.535 88.12C139.115 88.12 140.495 89.44 140.495 91.44V92.04H138.475V90.64C138.475 89.56 137.995 88.52 136.575 88.52C135.315 88.52 134.535 89.36 134.535 90.6C134.535 94 140.695 91.82 140.695 95.94C140.695 98.08 139.035 99.2 136.575 99.2C133.935 99.2 132.475 97.86 132.475 95.88V95.28ZM144.646 85.1V88.32H148.166V88.72H144.646V96.08C144.646 97.76 145.046 98.8 145.626 98.8C146.066 98.8 146.566 98.28 146.566 97.08V96.08H148.566V96.68C148.566 98.44 147.586 99.2 145.606 99.2C143.626 99.2 142.626 98.44 142.626 95.28V88.72H141.626V88.32H142.626V85.1H144.646ZM149.721 86.2C149.721 85.48 150.301 84.9 151.021 84.9C151.761 84.9 152.341 85.48 152.341 86.2C152.341 86.94 151.761 87.52 151.021 87.52C150.301 87.52 149.721 86.94 149.721 86.2ZM150.021 99V88.32H152.041V99H150.021ZM162.105 88.32L161.205 95.28C160.805 98.42 159.845 99.2 157.805 99.2C155.745 99.2 154.785 98.42 154.385 95.28L153.485 88.32H155.525L156.505 96.08C156.725 97.76 157.185 98.8 157.805 98.8C158.405 98.8 158.865 97.76 159.085 96.08L160.065 88.32H162.105ZM171.792 99H169.772V97.74C169.352 98.7 168.512 99.2 167.092 99.2C164.732 99.2 163.572 97.78 163.572 95.68V92.04C163.572 88.88 164.812 88.12 167.672 88.12C170.532 88.12 171.792 88.88 171.792 92.04V99ZM167.532 98.6C168.812 98.6 169.772 97.76 169.772 96.08V91.24C169.772 89.56 169.092 88.52 167.672 88.52C166.272 88.52 165.592 89.56 165.592 91.24V96.08C165.592 97.76 166.272 98.6 167.532 98.6ZM175.889 99H173.869V84.3H175.889V99ZM29.24 121.6C30.52 121.6 31.2 120.76 31.2 119.08V114.24C31.2 112.56 30.52 111.52 29.1 111.52C27.7 111.52 27.02 112.56 27.02 114.24V119.08C27.02 120.76 27.98 121.6 29.24 121.6ZM25 126.02V115.04C25 111.88 26.24 111.12 29.1 111.12C31.96 111.12 33.22 111.88 33.22 115.04V118.68C33.22 120.78 32.04 122.2 29.7 122.2C28.28 122.2 27.44 121.7 27.02 120.74V126.02H25ZM40.8972 111.12V113.54C40.2772 112.98 39.5372 112.72 38.8772 112.72C37.9572 112.72 37.2172 113.26 37.2172 114.24V122H35.1972V111.32H37.2172V113.18C37.7772 111.46 39.5372 110.92 40.8972 111.12ZM50.2684 116.48H44.0684V119.08C44.0684 120.76 44.7484 121.8 46.1484 121.8C47.5684 121.8 48.2484 120.76 48.2484 119.68V118.28H50.2684V118.88C50.2684 121.44 49.0084 122.2 46.1484 122.2C43.2884 122.2 42.0484 121.44 42.0484 118.28V115.04C42.0484 111.88 43.2884 111.12 46.1484 111.12C49.0084 111.12 50.2684 111.88 50.2684 114.44V116.48ZM44.0684 116.08H48.2484V113.64C48.2484 112.56 47.5684 111.52 46.1484 111.52C44.7484 111.52 44.0684 112.56 44.0684 114.24V116.08ZM56.3689 121.6C57.6489 121.6 58.3289 120.76 58.3289 119.08V114.24C58.3289 112.56 57.6489 111.52 56.2289 111.52C54.8289 111.52 54.1489 112.56 54.1489 114.24V119.08C54.1489 120.76 55.1089 121.6 56.3689 121.6ZM52.1289 126.02V115.04C52.1289 111.88 53.3689 111.12 56.2289 111.12C59.0889 111.12 60.3489 111.88 60.3489 115.04V118.68C60.3489 120.78 59.1689 122.2 56.8289 122.2C55.4089 122.2 54.5689 121.7 54.1489 120.74V126.02H52.1289ZM70.3661 122H68.3461V120.74C67.9261 121.7 67.0861 122.2 65.6661 122.2C63.3061 122.2 62.1461 120.78 62.1461 118.68V115.04C62.1461 111.88 63.3861 111.12 66.2461 111.12C69.1061 111.12 70.3661 111.88 70.3661 115.04V122ZM66.1061 121.6C67.3861 121.6 68.3461 120.76 68.3461 119.08V114.24C68.3461 112.56 67.6661 111.52 66.2461 111.52C64.8461 111.52 64.1661 112.56 64.1661 114.24V119.08C64.1661 120.76 64.8461 121.6 66.1061 121.6ZM78.1433 111.12V113.54C77.5233 112.98 76.7833 112.72 76.1233 112.72C75.2033 112.72 74.4633 113.26 74.4633 114.24V122H72.4433V111.32H74.4633V113.18C75.0233 111.46 76.7833 110.92 78.1433 111.12ZM87.5145 122H85.4945V120.74C85.0745 121.7 84.2345 122.2 82.8145 122.2C80.4545 122.2 79.2945 120.78 79.2945 118.68V115.04C79.2945 111.88 80.5345 111.12 83.3945 111.12C86.2545 111.12 87.5145 111.88 87.5145 115.04V122ZM83.2545 121.6C84.5345 121.6 85.4945 120.76 85.4945 119.08V114.24C85.4945 112.56 84.8145 111.52 83.3945 111.52C81.9945 111.52 81.3145 112.56 81.3145 114.24V119.08C81.3145 120.76 81.9945 121.6 83.2545 121.6ZM91.6773 108.1V111.32H95.1973V111.72H91.6773V119.08C91.6773 120.76 92.0773 121.8 92.6573 121.8C93.0973 121.8 93.5973 121.28 93.5973 120.08V119.08H95.5973V119.68C95.5973 121.44 94.6173 122.2 92.6373 122.2C90.6573 122.2 89.6573 121.44 89.6573 118.28V111.72H88.6573V111.32H89.6573V108.1H91.6773ZM96.7522 109.2C96.7522 108.48 97.3322 107.9 98.0522 107.9C98.7922 107.9 99.3722 108.48 99.3722 109.2C99.3722 109.94 98.7922 110.52 98.0522 110.52C97.3322 110.52 96.7522 109.94 96.7522 109.2ZM97.0522 122V111.32H99.0722V122H97.0522ZM100.877 118.28V115.04C100.877 111.88 102.117 111.12 104.977 111.12C107.837 111.12 109.097 111.88 109.097 115.04V118.28C109.097 121.44 107.837 122.2 104.977 122.2C102.117 122.2 100.877 121.44 100.877 118.28ZM104.977 121.8C106.397 121.8 107.077 120.76 107.077 119.08V114.24C107.077 112.56 106.397 111.52 104.977 111.52C103.577 111.52 102.897 112.56 102.897 114.24V119.08C102.897 120.76 103.577 121.8 104.977 121.8ZM119.196 122H117.176V114.24C117.176 112.56 116.496 111.52 115.076 111.52C113.676 111.52 112.996 112.56 112.996 114.24V122H110.976V115.04C110.976 111.88 112.216 111.12 115.076 111.12C117.936 111.12 119.196 111.88 119.196 115.04V122Z" fill="#161616" fill-opacity="0.5"/>
<path d="M2 64C2 62.3431 3.34315 61 5 61H15C16.6569 61 18 62.3431 18 64V74C18 75.6569 16.6569 77 15 77H5C3.34315 77 2 75.6569 2 74V64Z" stroke="#003556" stroke-width="2"/>
<path d="M2 62L17.2984 77.6541" stroke="#F83A31" stroke-width="3"/>
<path d="M18.5156 62L2.86149 77.2984" stroke="#F83A31" stroke-width="3"/>
<path d="M34.46 152H32.26L31.72 146.78H27.36L26.82 152H24.6L25.7 141.42C26.04 138.26 27.38 137.1 29.54 137.1C31.7 137.1 33.04 138.26 33.36 141.42L34.46 152ZM27.4 146.38H31.66L31.04 140.22C30.86 138.52 30.22 137.5 29.52 137.5C28.78 137.5 28.18 138.58 28.02 140.22L27.4 146.38ZM44.1942 145.04H42.1742V143.64C42.1742 142.56 41.4942 141.52 40.0742 141.52C38.6742 141.52 37.9942 142.56 37.9942 144.24V149.08C37.9942 150.76 38.6742 151.8 40.0742 151.8C41.4942 151.8 42.1742 150.76 42.1742 149.68V148.28H44.1942V148.88C44.1942 151.44 42.9342 152.2 40.0742 152.2C37.2142 152.2 35.9742 151.44 35.9742 148.28V145.04C35.9742 141.88 37.2142 141.12 40.0742 141.12C42.9342 141.12 44.1942 141.88 44.1942 144.44V145.04ZM54.077 145.04H52.057V143.64C52.057 142.56 51.377 141.52 49.957 141.52C48.557 141.52 47.877 142.56 47.877 144.24V149.08C47.877 150.76 48.557 151.8 49.957 151.8C51.377 151.8 52.057 150.76 52.057 149.68V148.28H54.077V148.88C54.077 151.44 52.817 152.2 49.957 152.2C47.097 152.2 45.857 151.44 45.857 148.28V145.04C45.857 141.88 47.097 141.12 49.957 141.12C52.817 141.12 54.077 141.88 54.077 144.44V145.04ZM63.9598 146.48H57.7598V149.08C57.7598 150.76 58.4398 151.8 59.8398 151.8C61.2598 151.8 61.9398 150.76 61.9398 149.68V148.28H63.9598V148.88C63.9598 151.44 62.6998 152.2 59.8398 152.2C56.9798 152.2 55.7398 151.44 55.7398 148.28V145.04C55.7398 141.88 56.9798 141.12 59.8398 141.12C62.6998 141.12 63.9598 141.88 63.9598 144.44V146.48ZM57.7598 146.08H61.9398V143.64C61.9398 142.56 61.2598 141.52 59.8398 141.52C58.4398 141.52 57.7598 142.56 57.7598 144.24V146.08ZM65.6003 148.28H67.6203V149.68C67.6203 150.76 68.3003 151.8 69.7003 151.8C70.9803 151.8 71.7603 150.94 71.7603 149.8C71.7603 146.58 65.6003 148.78 65.6003 144.5C65.6003 142.28 67.2603 141.12 69.6603 141.12C72.2403 141.12 73.6203 142.44 73.6203 144.44V145.04H71.6003V143.64C71.6003 142.56 71.1203 141.52 69.7003 141.52C68.4403 141.52 67.6603 142.36 67.6603 143.6C67.6603 147 73.8203 144.82 73.8203 148.94C73.8203 151.08 72.1603 152.2 69.7003 152.2C67.0603 152.2 65.6003 150.86 65.6003 148.88V148.28ZM75.3269 148.28H77.3469V149.68C77.3469 150.76 78.0269 151.8 79.4269 151.8C80.7069 151.8 81.4869 150.94 81.4869 149.8C81.4869 146.58 75.3269 148.78 75.3269 144.5C75.3269 142.28 76.9869 141.12 79.3869 141.12C81.9669 141.12 83.3469 142.44 83.3469 144.44V145.04H81.3269V143.64C81.3269 142.56 80.8469 141.52 79.4269 141.52C78.1669 141.52 77.3869 142.36 77.3869 143.6C77.3869 147 83.5469 144.82 83.5469 148.94C83.5469 151.08 81.8869 152.2 79.4269 152.2C76.7869 152.2 75.3269 150.86 75.3269 148.88V148.28ZM91.9703 138.1V141.32H95.4903V141.72H91.9703V149.08C91.9703 150.76 92.3703 151.8 92.9503 151.8C93.3903 151.8 93.8903 151.28 93.8903 150.08V149.08H95.8903V149.68C95.8903 151.44 94.9103 152.2 92.9303 152.2C90.9503 152.2 89.9503 151.44 89.9503 148.28V141.72H88.9503V141.32H89.9503V138.1H91.9703ZM97.1852 148.28V145.04C97.1852 141.88 98.4252 141.12 101.285 141.12C104.145 141.12 105.405 141.88 105.405 145.04V148.28C105.405 151.44 104.145 152.2 101.285 152.2C98.4252 152.2 97.1852 151.44 97.1852 148.28ZM101.285 151.8C102.705 151.8 103.385 150.76 103.385 149.08V144.24C103.385 142.56 102.705 141.52 101.285 141.52C99.8852 141.52 99.2052 142.56 99.2052 144.24V149.08C99.2052 150.76 99.8852 151.8 101.285 151.8ZM119.162 152H117.142V144.24C117.142 142.56 116.582 141.52 115.382 141.52C114.182 141.52 113.622 142.56 113.622 144.24V152H111.602V145.04C111.602 141.88 112.742 141.12 115.142 141.12C116.622 141.12 117.682 141.4 118.142 142.62C118.522 141.4 119.682 141.12 121.142 141.12C123.542 141.12 124.702 141.88 124.702 145.04V152H122.682V144.24C122.682 142.56 122.122 141.52 120.922 141.52C119.722 141.52 119.162 142.56 119.162 144.24V152ZM126.599 148.28V145.04C126.599 141.88 127.839 141.12 130.699 141.12C133.559 141.12 134.819 141.88 134.819 145.04V148.28C134.819 151.44 133.559 152.2 130.699 152.2C127.839 152.2 126.599 151.44 126.599 148.28ZM130.699 151.8C132.119 151.8 132.799 150.76 132.799 149.08V144.24C132.799 142.56 132.119 141.52 130.699 141.52C129.299 141.52 128.619 142.56 128.619 144.24V149.08C128.619 150.76 129.299 151.8 130.699 151.8ZM142.499 141.12V143.54C141.879 142.98 141.139 142.72 140.479 142.72C139.559 142.72 138.819 143.26 138.819 144.24V152H136.799V141.32H138.819V143.18C139.379 141.46 141.139 140.92 142.499 141.12ZM151.87 146.48H145.67V149.08C145.67 150.76 146.35 151.8 147.75 151.8C149.17 151.8 149.85 150.76 149.85 149.68V148.28H151.87V148.88C151.87 151.44 150.61 152.2 147.75 152.2C144.89 152.2 143.65 151.44 143.65 148.28V145.04C143.65 141.88 144.89 141.12 147.75 141.12C150.61 141.12 151.87 141.88 151.87 144.44V146.48ZM145.67 146.08H149.85V143.64C149.85 142.56 149.17 141.52 147.75 141.52C146.35 141.52 145.67 142.56 145.67 144.24V146.08ZM161.887 141.72C160.627 141.72 159.947 142.56 159.947 144.24V149.08C159.947 150.76 160.627 151.8 162.027 151.8C163.447 151.8 164.127 150.76 164.127 149.08V144.24C164.127 142.56 163.167 141.72 161.887 141.72ZM166.147 137.3V148.28C166.147 151.44 164.887 152.2 162.027 152.2C159.167 152.2 157.927 151.44 157.927 148.28V144.64C157.927 142.54 159.087 141.12 161.447 141.12C162.867 141.12 163.707 141.62 164.127 142.58V137.3H166.147ZM167.885 139.2C167.885 138.48 168.465 137.9 169.185 137.9C169.925 137.9 170.505 138.48 170.505 139.2C170.505 139.94 169.925 140.52 169.185 140.52C168.465 140.52 167.885 139.94 167.885 139.2ZM168.185 152V141.32H170.205V152H168.185ZM177.792 141.12V143.54C177.172 142.98 176.432 142.72 175.772 142.72C174.852 142.72 174.112 143.26 174.112 144.24V152H172.092V141.32H174.112V143.18C174.672 141.46 176.432 140.92 177.792 141.12ZM187.163 146.48H180.963V149.08C180.963 150.76 181.643 151.8 183.043 151.8C184.463 151.8 185.143 150.76 185.143 149.68V148.28H187.163V148.88C187.163 151.44 185.903 152.2 183.043 152.2C180.183 152.2 178.943 151.44 178.943 148.28V145.04C178.943 141.88 180.183 141.12 183.043 141.12C185.903 141.12 187.163 141.88 187.163 144.44V146.48ZM180.963 146.08H185.143V143.64C185.143 142.56 184.463 141.52 183.043 141.52C181.643 141.52 180.963 142.56 180.963 144.24V146.08ZM197.143 145.04H195.123V143.64C195.123 142.56 194.443 141.52 193.023 141.52C191.623 141.52 190.943 142.56 190.943 144.24V149.08C190.943 150.76 191.623 151.8 193.023 151.8C194.443 151.8 195.123 150.76 195.123 149.68V148.28H197.143V148.88C197.143 151.44 195.883 152.2 193.023 152.2C190.163 152.2 188.923 151.44 188.923 148.28V145.04C188.923 141.88 190.163 141.12 193.023 141.12C195.883 141.12 197.143 141.88 197.143 144.44V145.04ZM201.209 138.1V141.32H204.729V141.72H201.209V149.08C201.209 150.76 201.609 151.8 202.189 151.8C202.629 151.8 203.129 151.28 203.129 150.08V149.08H205.129V149.68C205.129 151.44 204.149 152.2 202.169 152.2C200.189 152.2 199.189 151.44 199.189 148.28V141.72H198.189V141.32H199.189V138.1H201.209ZM33.16 164.32L32.26 171.28C31.86 174.42 30.9 175.2 28.86 175.2C26.8 175.2 25.84 174.42 25.44 171.28L24.54 164.32H26.58L27.56 172.08C27.78 173.76 28.24 174.8 28.86 174.8C29.46 174.8 29.92 173.76 30.14 172.08L31.12 164.32H33.16ZM34.3303 162.2C34.3303 161.48 34.9103 160.9 35.6303 160.9C36.3703 160.9 36.9503 161.48 36.9503 162.2C36.9503 162.94 36.3703 163.52 35.6303 163.52C34.9103 163.52 34.3303 162.94 34.3303 162.2ZM34.6303 175V164.32H36.6503V175H34.6303ZM46.6747 169.48H40.4747V172.08C40.4747 173.76 41.1547 174.8 42.5547 174.8C43.9747 174.8 44.6547 173.76 44.6547 172.68V171.28H46.6747V171.88C46.6747 174.44 45.4147 175.2 42.5547 175.2C39.6947 175.2 38.4547 174.44 38.4547 171.28V168.04C38.4547 164.88 39.6947 164.12 42.5547 164.12C45.4147 164.12 46.6747 164.88 46.6747 167.44V169.48ZM40.4747 169.08H44.6547V166.64C44.6547 165.56 43.9747 164.52 42.5547 164.52C41.1547 164.52 40.4747 165.56 40.4747 167.24V169.08ZM56.0952 164.32V172.08C56.0952 173.76 56.6552 174.8 57.8552 174.8C59.0552 174.8 59.6152 173.76 59.6152 172.08V164.32H61.6352V171.28C61.6352 174.44 60.4752 175.2 58.0752 175.2C56.6152 175.2 55.4552 174.92 55.0752 173.7C54.6152 174.92 53.5552 175.2 52.0752 175.2C49.6752 175.2 48.5352 174.44 48.5352 171.28V164.32H50.5552V172.08C50.5552 173.76 51.1152 174.8 52.3152 174.8C53.5152 174.8 54.0752 173.76 54.0752 172.08V164.32H56.0952ZM67.8297 171.28V168.04C67.8297 164.88 69.0697 164.12 71.9297 164.12C74.7897 164.12 76.0497 164.88 76.0497 168.04V171.28C76.0497 174.44 74.7897 175.2 71.9297 175.2C69.0697 175.2 67.8297 174.44 67.8297 171.28ZM71.9297 174.8C73.3497 174.8 74.0297 173.76 74.0297 172.08V167.24C74.0297 165.56 73.3497 164.52 71.9297 164.52C70.5297 164.52 69.8497 165.56 69.8497 167.24V172.08C69.8497 173.76 70.5297 174.8 71.9297 174.8ZM80.1939 175H78.1739V164.72H77.1739V164.32H78.1739V164.02C78.1739 160.86 79.1739 160.1 81.0539 160.1C82.9339 160.1 83.9139 160.86 83.9139 162.6V163.22H81.9139V162.2C81.9139 161.02 81.5139 160.5 81.0339 160.5C80.3939 160.5 80.1939 161.58 80.1939 163.22V164.32H83.0539V164.72H80.1939V175ZM92.658 174.6C93.938 174.6 94.618 173.76 94.618 172.08V167.24C94.618 165.56 93.938 164.52 92.518 164.52C91.118 164.52 90.438 165.56 90.438 167.24V172.08C90.438 173.76 91.398 174.6 92.658 174.6ZM88.418 179.02V168.04C88.418 164.88 89.658 164.12 92.518 164.12C95.378 164.12 96.638 164.88 96.638 168.04V171.68C96.638 173.78 95.458 175.2 93.118 175.2C91.698 175.2 90.858 174.7 90.438 173.74V179.02H88.418ZM106.655 169.48H100.455V172.08C100.455 173.76 101.135 174.8 102.535 174.8C103.955 174.8 104.635 173.76 104.635 172.68V171.28H106.655V171.88C106.655 174.44 105.395 175.2 102.535 175.2C99.6752 175.2 98.4352 174.44 98.4352 171.28V168.04C98.4352 164.88 99.6752 164.12 102.535 164.12C105.395 164.12 106.655 164.88 106.655 167.44V169.48ZM100.455 169.08H104.635V166.64C104.635 165.56 103.955 164.52 102.535 164.52C101.135 164.52 100.455 165.56 100.455 167.24V169.08ZM114.296 164.12V166.54C113.676 165.98 112.936 165.72 112.276 165.72C111.356 165.72 110.616 166.26 110.616 167.24V175H108.596V164.32H110.616V166.18C111.176 164.46 112.936 163.92 114.296 164.12ZM117.987 175H115.967V164.72H114.967V164.32H115.967V164.02C115.967 160.86 116.967 160.1 118.847 160.1C120.727 160.1 121.707 160.86 121.707 162.6V163.22H119.707V162.2C119.707 161.02 119.307 160.5 118.827 160.5C118.187 160.5 117.987 161.58 117.987 163.22V164.32H120.847V164.72H117.987V175ZM121.423 171.28V168.04C121.423 164.88 122.663 164.12 125.523 164.12C128.383 164.12 129.643 164.88 129.643 168.04V171.28C129.643 174.44 128.383 175.2 125.523 175.2C122.663 175.2 121.423 174.44 121.423 171.28ZM125.523 174.8C126.943 174.8 127.623 173.76 127.623 172.08V167.24C127.623 165.56 126.943 164.52 125.523 164.52C124.123 164.52 123.443 165.56 123.443 167.24V172.08C123.443 173.76 124.123 174.8 125.523 174.8ZM137.323 164.12V166.54C136.703 165.98 135.963 165.72 135.303 165.72C134.383 165.72 133.643 166.26 133.643 167.24V175H131.623V164.32H133.643V166.18C134.203 164.46 135.963 163.92 137.323 164.12ZM146.134 175H144.114V167.24C144.114 165.56 143.554 164.52 142.354 164.52C141.154 164.52 140.594 165.56 140.594 167.24V175H138.574V168.04C138.574 164.88 139.714 164.12 142.114 164.12C143.594 164.12 144.654 164.4 145.114 165.62C145.494 164.4 146.654 164.12 148.114 164.12C150.514 164.12 151.674 164.88 151.674 168.04V175H149.654V167.24C149.654 165.56 149.094 164.52 147.894 164.52C146.694 164.52 146.134 165.56 146.134 167.24V175ZM161.792 169.48H155.592V172.08C155.592 173.76 156.272 174.8 157.672 174.8C159.092 174.8 159.772 173.76 159.772 172.68V171.28H161.792V171.88C161.792 174.44 160.532 175.2 157.672 175.2C154.812 175.2 153.572 174.44 153.572 171.28V168.04C153.572 164.88 154.812 164.12 157.672 164.12C160.532 164.12 161.792 164.88 161.792 167.44V169.48ZM155.592 169.08H159.772V166.64C159.772 165.56 159.092 164.52 157.672 164.52C156.272 164.52 155.592 165.56 155.592 167.24V169.08ZM169.432 164.12V166.54C168.812 165.98 168.072 165.72 167.412 165.72C166.492 165.72 165.752 166.26 165.752 167.24V175H163.732V164.32H165.752V166.18C166.312 164.46 168.072 163.92 169.432 164.12ZM170.464 171.28H172.484V172.68C172.484 173.76 173.164 174.8 174.564 174.8C175.844 174.8 176.624 173.94 176.624 172.8C176.624 169.58 170.464 171.78 170.464 167.5C170.464 165.28 172.124 164.12 174.524 164.12C177.104 164.12 178.484 165.44 178.484 167.44V168.04H176.464V166.64C176.464 165.56 175.984 164.52 174.564 164.52C173.304 164.52 172.524 165.36 172.524 166.6C172.524 170 178.684 167.82 178.684 171.94C178.684 174.08 177.024 175.2 174.564 175.2C171.924 175.2 170.464 173.86 170.464 171.88V171.28ZM184.607 171.28V168.04C184.607 164.88 185.847 164.12 188.707 164.12C191.567 164.12 192.827 164.88 192.827 168.04V171.28C192.827 174.44 191.567 175.2 188.707 175.2C185.847 175.2 184.607 174.44 184.607 171.28ZM188.707 174.8C190.127 174.8 190.807 173.76 190.807 172.08V167.24C190.807 165.56 190.127 164.52 188.707 164.52C187.307 164.52 186.627 165.56 186.627 167.24V172.08C186.627 173.76 187.307 174.8 188.707 174.8ZM202.927 175H200.907V167.24C200.907 165.56 200.227 164.52 198.807 164.52C197.407 164.52 196.727 165.56 196.727 167.24V175H194.707V168.04C194.707 164.88 195.947 164.12 198.807 164.12C201.667 164.12 202.927 164.88 202.927 168.04V175ZM24.78 194.28H26.8V195.68C26.8 196.76 27.48 197.8 28.88 197.8C30.16 197.8 30.94 196.94 30.94 195.8C30.94 192.58 24.78 194.78 24.78 190.5C24.78 188.28 26.44 187.12 28.84 187.12C31.42 187.12 32.8 188.44 32.8 190.44V191.04H30.78V189.64C30.78 188.56 30.3 187.52 28.88 187.52C27.62 187.52 26.84 188.36 26.84 189.6C26.84 193 33 190.82 33 194.94C33 197.08 31.34 198.2 28.88 198.2C26.24 198.2 24.78 196.86 24.78 194.88V194.28ZM36.9508 184.1V187.32H40.4708V187.72H36.9508V195.08C36.9508 196.76 37.3508 197.8 37.9308 197.8C38.3708 197.8 38.8708 197.28 38.8708 196.08V195.08H40.8708V195.68C40.8708 197.44 39.8908 198.2 37.9108 198.2C35.9308 198.2 34.9308 197.44 34.9308 194.28V187.72H33.9308V187.32H34.9308V184.1H36.9508ZM50.3856 198H48.3656V196.74C47.9456 197.7 47.1056 198.2 45.6856 198.2C43.3256 198.2 42.1656 196.78 42.1656 194.68V191.04C42.1656 187.88 43.4056 187.12 46.2656 187.12C49.1256 187.12 50.3856 187.88 50.3856 191.04V198ZM46.1256 197.6C47.4056 197.6 48.3656 196.76 48.3656 195.08V190.24C48.3656 188.56 47.6856 187.52 46.2656 187.52C44.8656 187.52 44.1856 188.56 44.1856 190.24V195.08C44.1856 196.76 44.8656 197.6 46.1256 197.6ZM56.2428 197.6C57.5228 197.6 58.4828 196.76 58.4828 195.08V190.24C58.4828 188.56 57.8028 187.52 56.3828 187.52C54.9828 187.52 54.3028 188.56 54.3028 190.24V195.08C54.3028 196.76 54.9828 197.6 56.2428 197.6ZM52.2828 198.9H54.3028V200.12C54.3028 201.2 54.9828 201.62 56.3828 201.62C57.8028 201.62 58.4828 200.6 58.4828 198.9V196.74C58.0628 197.7 57.2228 198.2 55.8028 198.2C53.4428 198.2 52.2828 196.78 52.2828 194.68V191.04C52.2828 187.88 53.5228 187.12 56.3828 187.12C59.2428 187.12 60.5028 187.88 60.5028 191.04V198.1C60.5028 201.26 59.2428 202.02 56.3828 202.02C53.5228 202.02 52.2828 201.86 52.2828 199.3V198.9ZM70.62 192.48H64.42V195.08C64.42 196.76 65.1 197.8 66.5 197.8C67.92 197.8 68.6 196.76 68.6 195.68V194.28H70.62V194.88C70.62 197.44 69.36 198.2 66.5 198.2C63.64 198.2 62.4 197.44 62.4 194.28V191.04C62.4 187.88 63.64 187.12 66.5 187.12C69.36 187.12 70.62 187.88 70.62 190.44V192.48ZM64.42 192.08H68.6V189.64C68.6 188.56 67.92 187.52 66.5 187.52C65.1 187.52 64.42 188.56 64.42 190.24V192.08Z" fill="#161616" fill-opacity="0.5"/>
<path d="M2 140C2 138.343 3.34315 137 5 137H15C16.6569 137 18 138.343 18 140V150C18 151.657 16.6569 153 15 153H5C3.34315 153 2 151.657 2 150V140Z" stroke="#003556" stroke-width="2"/>
<path d="M2 138L17.2984 153.654" stroke="#F83A31" stroke-width="3"/>
<path d="M18.5156 138L2.86149 153.298" stroke="#F83A31" stroke-width="3"/>
<path d="M25.2 230V215.3H32.66V215.7H27.42V222.14H32.24V222.54H27.42V230H25.2ZM39.4128 219.12V221.54C38.7928 220.98 38.0528 220.72 37.3928 220.72C36.4728 220.72 35.7328 221.26 35.7328 222.24V230H33.7128V219.32H35.7328V221.18C36.2928 219.46 38.0528 218.92 39.4128 219.12ZM48.7841 224.48H42.5841V227.08C42.5841 228.76 43.2641 229.8 44.6641 229.8C46.0841 229.8 46.7641 228.76 46.7641 227.68V226.28H48.7841V226.88C48.7841 229.44 47.5241 230.2 44.6641 230.2C41.8041 230.2 40.5641 229.44 40.5641 226.28V223.04C40.5641 219.88 41.8041 219.12 44.6641 219.12C47.5241 219.12 48.7841 219.88 48.7841 222.44V224.48ZM42.5841 224.08H46.7641V221.64C46.7641 220.56 46.0841 219.52 44.6641 219.52C43.2641 219.52 42.5841 220.56 42.5841 222.24V224.08ZM58.7645 224.48H52.5645V227.08C52.5645 228.76 53.2445 229.8 54.6445 229.8C56.0645 229.8 56.7445 228.76 56.7445 227.68V226.28H58.7645V226.88C58.7645 229.44 57.5045 230.2 54.6445 230.2C51.7845 230.2 50.5445 229.44 50.5445 226.28V223.04C50.5445 219.88 51.7845 219.12 54.6445 219.12C57.5045 219.12 58.7645 219.88 58.7645 222.44V224.48ZM52.5645 224.08H56.7445V221.64C56.7445 220.56 56.0645 219.52 54.6445 219.52C53.2445 219.52 52.5645 220.56 52.5645 222.24V224.08ZM73.0419 224.48H66.8419V227.08C66.8419 228.76 67.5219 229.8 68.9219 229.8C70.3419 229.8 71.0219 228.76 71.0219 227.68V226.28H73.0419V226.88C73.0419 229.44 71.7819 230.2 68.9219 230.2C66.0619 230.2 64.8219 229.44 64.8219 226.28V223.04C64.8219 219.88 66.0619 219.12 68.9219 219.12C71.7819 219.12 73.0419 219.88 73.0419 222.44V224.48ZM66.8419 224.08H71.0219V221.64C71.0219 220.56 70.3419 219.52 68.9219 219.52C67.5219 219.52 66.8419 220.56 66.8419 222.24V224.08ZM74.8623 230V227.42C74.8623 225.22 75.6423 224.84 77.0623 224.38C75.5823 223.98 74.8623 223.84 74.8623 221.88V219.32H76.8823V221.94C76.8823 223.78 77.3623 224.14 78.7023 224.14C80.0423 224.14 80.5223 223.78 80.5223 221.94V219.32H82.5423V221.88C82.5423 223.84 81.8023 223.98 80.3423 224.38C81.7423 224.84 82.5423 225.22 82.5423 227.42V230H80.5223V227.28C80.5223 225.18 80.0423 224.58 78.7023 224.58C77.3623 224.58 76.8823 225.18 76.8823 227.28V230H74.8623ZM92.6317 223.04H90.6117V221.64C90.6117 220.56 89.9317 219.52 88.5117 219.52C87.1117 219.52 86.4317 220.56 86.4317 222.24V227.08C86.4317 228.76 87.1117 229.8 88.5117 229.8C89.9317 229.8 90.6117 228.76 90.6117 227.68V226.28H92.6317V226.88C92.6317 229.44 91.3717 230.2 88.5117 230.2C85.6517 230.2 84.4117 229.44 84.4117 226.28V223.04C84.4117 219.88 85.6517 219.12 88.5117 219.12C91.3717 219.12 92.6317 219.88 92.6317 222.44V223.04ZM96.4945 230H94.4745V215.3H96.4945V230ZM106.774 219.32V226.28C106.774 229.44 105.514 230.2 102.654 230.2C99.7942 230.2 98.5542 229.44 98.5542 226.28V219.32H100.574V227.08C100.574 228.76 101.254 229.8 102.654 229.8C104.074 229.8 104.754 228.76 104.754 227.08V219.32H106.774ZM108.53 226.28H110.55V227.68C110.55 228.76 111.23 229.8 112.63 229.8C113.91 229.8 114.69 228.94 114.69 227.8C114.69 224.58 108.53 226.78 108.53 222.5C108.53 220.28 110.19 219.12 112.59 219.12C115.17 219.12 116.55 220.44 116.55 222.44V223.04H114.53V221.64C114.53 220.56 114.05 219.52 112.63 219.52C111.37 219.52 110.59 220.36 110.59 221.6C110.59 225 116.75 222.82 116.75 226.94C116.75 229.08 115.09 230.2 112.63 230.2C109.99 230.2 108.53 228.86 108.53 226.88V226.28ZM118.061 217.2C118.061 216.48 118.641 215.9 119.361 215.9C120.101 215.9 120.681 216.48 120.681 217.2C120.681 217.94 120.101 218.52 119.361 218.52C118.641 218.52 118.061 217.94 118.061 217.2ZM118.361 230V219.32H120.381V230H118.361ZM130.445 219.32L129.545 226.28C129.145 229.42 128.185 230.2 126.145 230.2C124.085 230.2 123.125 229.42 122.725 226.28L121.825 219.32H123.865L124.845 227.08C125.065 228.76 125.525 229.8 126.145 229.8C126.745 229.8 127.205 228.76 127.425 227.08L128.405 219.32H130.445ZM140.132 224.48H133.932V227.08C133.932 228.76 134.612 229.8 136.012 229.8C137.432 229.8 138.112 228.76 138.112 227.68V226.28H140.132V226.88C140.132 229.44 138.872 230.2 136.012 230.2C133.152 230.2 131.912 229.44 131.912 226.28V223.04C131.912 219.88 133.152 219.12 136.012 219.12C138.872 219.12 140.132 219.88 140.132 222.44V224.48ZM133.932 224.08H138.112V221.64C138.112 220.56 137.432 219.52 136.012 219.52C134.612 219.52 133.932 220.56 133.932 222.24V224.08ZM147.469 215.3L147.609 215.44C147.209 215.84 146.949 216.36 146.849 216.82C146.749 217.28 146.869 217.42 147.269 217.5C148.049 217.64 148.509 218.18 148.509 218.82C148.509 219.54 147.929 220.12 147.189 220.12C146.469 220.12 145.889 219.54 145.889 218.56C145.889 217.48 146.549 216.28 147.469 215.3ZM150.749 215.3L150.889 215.44C150.509 215.84 150.249 216.36 150.129 216.82C150.029 217.28 150.169 217.42 150.569 217.5C151.329 217.64 151.789 218.18 151.789 218.82C151.789 219.54 151.209 220.12 150.489 220.12C149.749 220.12 149.169 219.54 149.169 218.56C149.169 217.48 149.829 216.28 150.749 215.3ZM162.839 220.16H160.639V218.22C160.639 216.52 159.799 215.5 158.119 215.5C156.419 215.5 155.599 216.52 155.599 218.22V227.08C155.599 228.76 156.419 229.8 158.119 229.8C159.799 229.8 160.639 228.76 160.639 227.08V225.12H162.839V225.86C162.839 229.02 161.279 230.2 158.119 230.2C154.959 230.2 153.379 229.02 153.379 225.86V219.42C153.379 216.26 154.959 215.1 158.119 215.1C161.279 215.1 162.839 216.26 162.839 219.42V220.16ZM172.89 230H170.87V222.24C170.87 220.56 170.19 219.72 168.91 219.72C167.65 219.72 166.69 220.56 166.69 222.24V230H164.67V215.3H166.69V220.58C167.11 219.62 167.95 219.12 169.37 219.12C171.71 219.12 172.89 220.54 172.89 222.64V230ZM174.623 217.2C174.623 216.48 175.203 215.9 175.923 215.9C176.663 215.9 177.243 216.48 177.243 217.2C177.243 217.94 176.663 218.52 175.923 218.52C175.203 218.52 174.623 217.94 174.623 217.2ZM174.923 230V219.32H176.943V230H174.923ZM184.53 219.12V221.54C183.91 220.98 183.17 220.72 182.51 220.72C181.59 220.72 180.85 221.26 180.85 222.24V230H178.83V219.32H180.85V221.18C181.41 219.46 183.17 218.92 184.53 219.12ZM190.021 229.6C191.301 229.6 191.981 228.76 191.981 227.08V222.24C191.981 220.56 191.301 219.52 189.881 219.52C188.481 219.52 187.801 220.56 187.801 222.24V227.08C187.801 228.76 188.761 229.6 190.021 229.6ZM185.781 234.02V223.04C185.781 219.88 187.021 219.12 189.881 219.12C192.741 219.12 194.001 219.88 194.001 223.04V226.68C194.001 228.78 192.821 230.2 190.481 230.2C189.061 230.2 188.221 229.7 187.801 228.74V234.02H185.781ZM196.098 230V215.3H203.558V215.7H198.318V222.14H203.138V222.54H198.318V230H196.098ZM212.808 224.48H206.608V227.08C206.608 228.76 207.288 229.8 208.688 229.8C210.108 229.8 210.788 228.76 210.788 227.68V226.28H212.808V226.88C212.808 229.44 211.548 230.2 208.688 230.2C205.828 230.2 204.588 229.44 204.588 226.28V223.04C204.588 219.88 205.828 219.12 208.688 219.12C211.548 219.12 212.808 219.88 212.808 222.44V224.48ZM206.608 224.08H210.788V221.64C210.788 220.56 210.108 219.52 208.688 219.52C207.288 219.52 206.608 220.56 206.608 222.24V224.08ZM214.448 226.28H216.468V227.68C216.468 228.76 217.148 229.8 218.548 229.8C219.828 229.8 220.608 228.94 220.608 227.8C220.608 224.58 214.448 226.78 214.448 222.5C214.448 220.28 216.108 219.12 218.508 219.12C221.088 219.12 222.468 220.44 222.468 222.44V223.04H220.448V221.64C220.448 220.56 219.968 219.52 218.548 219.52C217.288 219.52 216.508 220.36 216.508 221.6C216.508 225 222.668 222.82 222.668 226.94C222.668 229.08 221.008 230.2 218.548 230.2C215.908 230.2 214.448 228.86 214.448 226.88V226.28ZM226.619 216.1V219.32H230.139V219.72H226.619V227.08C226.619 228.76 227.019 229.8 227.599 229.8C228.039 229.8 228.539 229.28 228.539 228.08V227.08H230.539V227.68C230.539 229.44 229.559 230.2 227.579 230.2C225.599 230.2 224.599 229.44 224.599 226.28V219.72H223.599V219.32H224.599V216.1H226.619ZM27.88 253V238.7H23.86V238.3H34.14V238.7H30.1V253H27.88ZM41.5984 242.32V249.28C41.5984 252.44 40.3384 253.2 37.4784 253.2C34.6184 253.2 33.3784 252.44 33.3784 249.28V242.32H35.3984V250.08C35.3984 251.76 36.0784 252.8 37.4784 252.8C38.8984 252.8 39.5784 251.76 39.5784 250.08V242.32H41.5984ZM51.6942 246.04H49.6742V244.64C49.6742 243.56 48.9942 242.52 47.5742 242.52C46.1742 242.52 45.4942 243.56 45.4942 245.24V250.08C45.4942 251.76 46.1742 252.8 47.5742 252.8C48.9942 252.8 49.6742 251.76 49.6742 250.68V249.28H51.6942V249.88C51.6942 252.44 50.4342 253.2 47.5742 253.2C44.7142 253.2 43.4742 252.44 43.4742 249.28V246.04C43.4742 242.88 44.7142 242.12 47.5742 242.12C50.4342 242.12 51.6942 242.88 51.6942 245.44V246.04ZM61.577 253H59.557V251.74C59.137 252.7 58.297 253.2 56.877 253.2C54.517 253.2 53.357 251.78 53.357 249.68V246.04C53.357 242.88 54.597 242.12 57.457 242.12C60.317 242.12 61.577 242.88 61.577 246.04V253ZM57.317 252.6C58.597 252.6 59.557 251.76 59.557 250.08V245.24C59.557 243.56 58.877 242.52 57.457 242.52C56.057 242.52 55.377 243.56 55.377 245.24V250.08C55.377 251.76 56.057 252.6 57.317 252.6ZM71.7742 253H69.7542V245.24C69.7542 243.56 69.0742 242.52 67.6542 242.52C66.2542 242.52 65.5742 243.56 65.5742 245.24V253H63.5542V246.04C63.5542 242.88 64.7942 242.12 67.6542 242.12C70.5142 242.12 71.7742 242.88 71.7742 246.04V253ZM82.9869 252.6C84.6669 252.6 85.5069 251.56 85.5069 249.88V241.42C85.5069 239.72 84.6669 238.7 82.9869 238.7H80.4669V252.6H82.9869ZM78.2469 253V238.3H82.9869C86.1469 238.3 87.7069 239.46 87.7069 242.62V248.66C87.7069 251.82 86.1469 253 82.9869 253H78.2469ZM89.467 240.2C89.467 239.48 90.047 238.9 90.767 238.9C91.507 238.9 92.087 239.48 92.087 240.2C92.087 240.94 91.507 241.52 90.767 241.52C90.047 241.52 89.467 240.94 89.467 240.2ZM89.767 253V242.32H91.787V253H89.767ZM93.4714 249.28H95.4914V250.68C95.4914 251.76 96.1714 252.8 97.5714 252.8C98.8514 252.8 99.6314 251.94 99.6314 250.8C99.6314 247.58 93.4714 249.78 93.4714 245.5C93.4714 243.28 95.1314 242.12 97.5314 242.12C100.111 242.12 101.491 243.44 101.491 245.44V246.04H99.4714V244.64C99.4714 243.56 98.9914 242.52 97.5714 242.52C96.3114 242.52 95.5314 243.36 95.5314 244.6C95.5314 248 101.691 245.82 101.691 249.94C101.691 252.08 100.031 253.2 97.5714 253.2C94.9314 253.2 93.4714 251.86 93.4714 249.88V249.28ZM109.298 244.94V242.32H111.318V244.88C111.318 246.84 110.598 246.98 109.118 247.38C110.518 247.84 111.318 248.22 111.318 250.42V253H109.298V250.28C109.298 247.82 108.638 247.56 106.678 247.56H105.518V253H103.498V238.3H105.518V247.16H106.678C108.638 247.16 109.298 247.1 109.298 244.94ZM116.478 243.12L116.318 242.98C116.718 242.58 116.978 242.06 117.078 241.6C117.178 241.14 117.058 241 116.658 240.92C115.878 240.78 115.418 240.24 115.418 239.6C115.418 238.88 115.998 238.3 116.738 238.3C117.458 238.3 118.038 238.88 118.038 239.86C118.038 240.94 117.378 242.14 116.478 243.12ZM113.178 243.12L113.038 242.98C113.418 242.58 113.698 242.06 113.798 241.6C113.898 241.14 113.778 241 113.358 240.92C112.598 240.78 112.138 240.24 112.138 239.6C112.138 238.88 112.718 238.3 113.438 238.3C114.178 238.3 114.758 238.88 114.758 239.86C114.758 240.94 114.098 242.14 113.178 243.12ZM126.385 253H124.365V242.72H123.365V242.32H124.365V242.02C124.365 238.86 125.365 238.1 127.245 238.1C129.125 238.1 130.105 238.86 130.105 240.6V241.22H128.105V240.2C128.105 239.02 127.705 238.5 127.225 238.5C126.585 238.5 126.385 239.58 126.385 241.22V242.32H129.245V242.72H126.385V253ZM129.822 249.28V246.04C129.822 242.88 131.062 242.12 133.922 242.12C136.782 242.12 138.042 242.88 138.042 246.04V249.28C138.042 252.44 136.782 253.2 133.922 253.2C131.062 253.2 129.822 252.44 129.822 249.28ZM133.922 252.8C135.342 252.8 136.022 251.76 136.022 250.08V245.24C136.022 243.56 135.342 242.52 133.922 242.52C132.522 242.52 131.842 243.56 131.842 245.24V250.08C131.842 251.76 132.522 252.8 133.922 252.8ZM142.041 253H140.021V238.3H142.041V253ZM147.981 242.72C146.721 242.72 146.041 243.56 146.041 245.24V250.08C146.041 251.76 146.721 252.8 148.121 252.8C149.541 252.8 150.221 251.76 150.221 250.08V245.24C150.221 243.56 149.261 242.72 147.981 242.72ZM152.241 238.3V249.28C152.241 252.44 150.981 253.2 148.121 253.2C145.261 253.2 144.021 252.44 144.021 249.28V245.64C144.021 243.54 145.181 242.12 147.541 242.12C148.961 242.12 149.801 242.62 150.221 243.58V238.3H152.241ZM153.979 240.2C153.979 239.48 154.559 238.9 155.279 238.9C156.019 238.9 156.599 239.48 156.599 240.2C156.599 240.94 156.019 241.52 155.279 241.52C154.559 241.52 153.979 240.94 153.979 240.2ZM154.279 253V242.32H156.299V253H154.279ZM166.384 253H164.364V245.24C164.364 243.56 163.684 242.52 162.264 242.52C160.864 242.52 160.184 243.56 160.184 245.24V253H158.164V246.04C158.164 242.88 159.404 242.12 162.264 242.12C165.124 242.12 166.384 242.88 166.384 246.04V253ZM172.219 252.6C173.499 252.6 174.459 251.76 174.459 250.08V245.24C174.459 243.56 173.779 242.52 172.359 242.52C170.959 242.52 170.279 243.56 170.279 245.24V250.08C170.279 251.76 170.959 252.6 172.219 252.6ZM168.259 253.9H170.279V255.12C170.279 256.2 170.959 256.62 172.359 256.62C173.779 256.62 174.459 255.6 174.459 253.9V251.74C174.039 252.7 173.199 253.2 171.779 253.2C169.419 253.2 168.259 251.78 168.259 249.68V246.04C168.259 242.88 169.499 242.12 172.359 242.12C175.219 242.12 176.479 242.88 176.479 246.04V253.1C176.479 256.26 175.219 257.02 172.359 257.02C169.499 257.02 168.259 256.86 168.259 254.3V253.9ZM185.213 253H183.193V242.72H182.193V242.32H183.193V242.02C183.193 238.86 184.193 238.1 186.073 238.1C187.953 238.1 188.933 238.86 188.933 240.6V241.22H186.933V240.2C186.933 239.02 186.533 238.5 186.053 238.5C185.413 238.5 185.213 239.58 185.213 241.22V242.32H188.073V242.72H185.213V253ZM196.87 253H194.85V251.74C194.43 252.7 193.59 253.2 192.17 253.2C189.81 253.2 188.65 251.78 188.65 249.68V246.04C188.65 242.88 189.89 242.12 192.75 242.12C195.61 242.12 196.87 242.88 196.87 246.04V253ZM192.61 252.6C193.89 252.6 194.85 251.76 194.85 250.08V245.24C194.85 243.56 194.17 242.52 192.75 242.52C191.35 242.52 190.67 243.56 190.67 245.24V250.08C190.67 251.76 191.35 252.6 192.61 252.6ZM207.067 253H205.047V245.24C205.047 243.56 204.367 242.52 202.947 242.52C201.547 242.52 200.867 243.56 200.867 245.24V253H198.847V246.04C198.847 242.88 200.087 242.12 202.947 242.12C205.807 242.12 207.067 242.88 207.067 246.04V253Z" fill="#161616" fill-opacity="0.5"/>
<path d="M2 218C2 216.343 3.34315 215 5 215H15C16.6569 215 18 216.343 18 218V228C18 229.657 16.6569 231 15 231H5C3.34315 231 2 229.657 2 228V218Z" stroke="#003556" stroke-width="2"/>
<path d="M2 215L17.2984 230.654" stroke="#F83A31" stroke-width="3"/>
<path d="M18.5156 215L2.86149 230.298" stroke="#F83A31" stroke-width="3"/>
<path d="M34.46 286H32.26L31.72 280.78H27.36L26.82 286H24.6L25.7 275.42C26.04 272.26 27.38 271.1 29.54 271.1C31.7 271.1 33.04 272.26 33.36 275.42L34.46 286ZM27.4 280.38H31.66L31.04 274.22C30.86 272.52 30.22 271.5 29.52 271.5C28.78 271.5 28.18 272.58 28.02 274.22L27.4 280.38ZM44.1942 279.04H42.1742V277.64C42.1742 276.56 41.4942 275.52 40.0742 275.52C38.6742 275.52 37.9942 276.56 37.9942 278.24V283.08C37.9942 284.76 38.6742 285.8 40.0742 285.8C41.4942 285.8 42.1742 284.76 42.1742 283.68V282.28H44.1942V282.88C44.1942 285.44 42.9342 286.2 40.0742 286.2C37.2142 286.2 35.9742 285.44 35.9742 282.28V279.04C35.9742 275.88 37.2142 275.12 40.0742 275.12C42.9342 275.12 44.1942 275.88 44.1942 278.44V279.04ZM54.077 279.04H52.057V277.64C52.057 276.56 51.377 275.52 49.957 275.52C48.557 275.52 47.877 276.56 47.877 278.24V283.08C47.877 284.76 48.557 285.8 49.957 285.8C51.377 285.8 52.057 284.76 52.057 283.68V282.28H54.077V282.88C54.077 285.44 52.817 286.2 49.957 286.2C47.097 286.2 45.857 285.44 45.857 282.28V279.04C45.857 275.88 47.097 275.12 49.957 275.12C52.817 275.12 54.077 275.88 54.077 278.44V279.04ZM63.9598 280.48H57.7598V283.08C57.7598 284.76 58.4398 285.8 59.8398 285.8C61.2598 285.8 61.9398 284.76 61.9398 283.68V282.28H63.9598V282.88C63.9598 285.44 62.6998 286.2 59.8398 286.2C56.9798 286.2 55.7398 285.44 55.7398 282.28V279.04C55.7398 275.88 56.9798 275.12 59.8398 275.12C62.6998 275.12 63.9598 275.88 63.9598 278.44V280.48ZM57.7598 280.08H61.9398V277.64C61.9398 276.56 61.2598 275.52 59.8398 275.52C58.4398 275.52 57.7598 276.56 57.7598 278.24V280.08ZM65.6003 282.28H67.6203V283.68C67.6203 284.76 68.3003 285.8 69.7003 285.8C70.9803 285.8 71.7603 284.94 71.7603 283.8C71.7603 280.58 65.6003 282.78 65.6003 278.5C65.6003 276.28 67.2603 275.12 69.6603 275.12C72.2403 275.12 73.6203 276.44 73.6203 278.44V279.04H71.6003V277.64C71.6003 276.56 71.1203 275.52 69.7003 275.52C68.4403 275.52 67.6603 276.36 67.6603 277.6C67.6603 281 73.8203 278.82 73.8203 282.94C73.8203 285.08 72.1603 286.2 69.7003 286.2C67.0603 286.2 65.6003 284.86 65.6003 282.88V282.28ZM75.3269 282.28H77.3469V283.68C77.3469 284.76 78.0269 285.8 79.4269 285.8C80.7069 285.8 81.4869 284.94 81.4869 283.8C81.4869 280.58 75.3269 282.78 75.3269 278.5C75.3269 276.28 76.9869 275.12 79.3869 275.12C81.9669 275.12 83.3469 276.44 83.3469 278.44V279.04H81.3269V277.64C81.3269 276.56 80.8469 275.52 79.4269 275.52C78.1669 275.52 77.3869 276.36 77.3869 277.6C77.3869 281 83.5469 278.82 83.5469 282.94C83.5469 285.08 81.8869 286.2 79.4269 286.2C76.7869 286.2 75.3269 284.86 75.3269 282.88V282.28ZM91.9703 272.1V275.32H95.4903V275.72H91.9703V283.08C91.9703 284.76 92.3703 285.8 92.9503 285.8C93.3903 285.8 93.8903 285.28 93.8903 284.08V283.08H95.8903V283.68C95.8903 285.44 94.9103 286.2 92.9303 286.2C90.9503 286.2 89.9503 285.44 89.9503 282.28V275.72H88.9503V275.32H89.9503V272.1H91.9703ZM97.1852 282.28V279.04C97.1852 275.88 98.4252 275.12 101.285 275.12C104.145 275.12 105.405 275.88 105.405 279.04V282.28C105.405 285.44 104.145 286.2 101.285 286.2C98.4252 286.2 97.1852 285.44 97.1852 282.28ZM101.285 285.8C102.705 285.8 103.385 284.76 103.385 283.08V278.24C103.385 276.56 102.705 275.52 101.285 275.52C99.8852 275.52 99.2052 276.56 99.2052 278.24V283.08C99.2052 284.76 99.8852 285.8 101.285 285.8ZM115.842 285.6C117.122 285.6 117.802 284.76 117.802 283.08V278.24C117.802 276.56 117.122 275.52 115.702 275.52C114.302 275.52 113.622 276.56 113.622 278.24V283.08C113.622 284.76 114.582 285.6 115.842 285.6ZM111.602 290.02V279.04C111.602 275.88 112.842 275.12 115.702 275.12C118.562 275.12 119.822 275.88 119.822 279.04V282.68C119.822 284.78 118.642 286.2 116.302 286.2C114.882 286.2 114.042 285.7 113.622 284.74V290.02H111.602ZM130.019 286H127.999V278.24C127.999 276.56 127.319 275.72 126.039 275.72C124.779 275.72 123.819 276.56 123.819 278.24V286H121.799V271.3H123.819V276.58C124.239 275.62 125.079 275.12 126.499 275.12C128.839 275.12 130.019 276.54 130.019 278.64V286ZM131.892 282.28V279.04C131.892 275.88 133.132 275.12 135.992 275.12C138.852 275.12 140.112 275.88 140.112 279.04V282.28C140.112 285.44 138.852 286.2 135.992 286.2C133.132 286.2 131.892 285.44 131.892 282.28ZM135.992 285.8C137.412 285.8 138.092 284.76 138.092 283.08V278.24C138.092 276.56 137.412 275.52 135.992 275.52C134.592 275.52 133.912 276.56 133.912 278.24V283.08C133.912 284.76 134.592 285.8 135.992 285.8ZM144.236 272.1V275.32H147.756V275.72H144.236V283.08C144.236 284.76 144.636 285.8 145.216 285.8C145.656 285.8 146.156 285.28 146.156 284.08V283.08H148.156V283.68C148.156 285.44 147.176 286.2 145.196 286.2C143.216 286.2 142.216 285.44 142.216 282.28V275.72H141.216V275.32H142.216V272.1H144.236ZM149.451 282.28V279.04C149.451 275.88 150.691 275.12 153.551 275.12C156.411 275.12 157.671 275.88 157.671 279.04V282.28C157.671 285.44 156.411 286.2 153.551 286.2C150.691 286.2 149.451 285.44 149.451 282.28ZM153.551 285.8C154.971 285.8 155.651 284.76 155.651 283.08V278.24C155.651 276.56 154.971 275.52 153.551 275.52C152.151 275.52 151.471 276.56 151.471 278.24V283.08C151.471 284.76 152.151 285.8 153.551 285.8ZM163.43 285.6C164.71 285.6 165.67 284.76 165.67 283.08V278.24C165.67 276.56 164.99 275.52 163.57 275.52C162.17 275.52 161.49 276.56 161.49 278.24V283.08C161.49 284.76 162.17 285.6 163.43 285.6ZM159.47 286.9H161.49V288.12C161.49 289.2 162.17 289.62 163.57 289.62C164.99 289.62 165.67 288.6 165.67 286.9V284.74C165.25 285.7 164.41 286.2 162.99 286.2C160.63 286.2 159.47 284.78 159.47 282.68V279.04C159.47 275.88 160.71 275.12 163.57 275.12C166.43 275.12 167.69 275.88 167.69 279.04V286.1C167.69 289.26 166.43 290.02 163.57 290.02C160.71 290.02 159.47 289.86 159.47 287.3V286.9ZM175.468 275.12V277.54C174.848 276.98 174.108 276.72 173.448 276.72C172.528 276.72 171.788 277.26 171.788 278.24V286H169.768V275.32H171.788V277.18C172.348 275.46 174.108 274.92 175.468 275.12ZM184.839 286H182.819V284.74C182.399 285.7 181.559 286.2 180.139 286.2C177.779 286.2 176.619 284.78 176.619 282.68V279.04C176.619 275.88 177.859 275.12 180.719 275.12C183.579 275.12 184.839 275.88 184.839 279.04V286ZM180.579 285.6C181.859 285.6 182.819 284.76 182.819 283.08V278.24C182.819 276.56 182.139 275.52 180.719 275.52C179.319 275.52 178.639 276.56 178.639 278.24V283.08C178.639 284.76 179.319 285.6 180.579 285.6ZM191.076 285.6C192.356 285.6 193.036 284.76 193.036 283.08V278.24C193.036 276.56 192.356 275.52 190.936 275.52C189.536 275.52 188.856 276.56 188.856 278.24V283.08C188.856 284.76 189.816 285.6 191.076 285.6ZM186.836 290.02V279.04C186.836 275.88 188.076 275.12 190.936 275.12C193.796 275.12 195.056 275.88 195.056 279.04V282.68C195.056 284.78 193.876 286.2 191.536 286.2C190.116 286.2 189.276 285.7 188.856 284.74V290.02H186.836ZM205.253 286H203.233V278.24C203.233 276.56 202.553 275.72 201.273 275.72C200.013 275.72 199.053 276.56 199.053 278.24V286H197.033V271.3H199.053V276.58C199.473 275.62 200.313 275.12 201.733 275.12C204.073 275.12 205.253 276.54 205.253 278.64V286ZM32.56 298.32V306.08C32.56 307.76 33.12 308.8 34.32 308.8C35.52 308.8 36.08 307.76 36.08 306.08V298.32H38.1V305.28C38.1 308.44 36.94 309.2 34.54 309.2C33.08 309.2 31.92 308.92 31.54 307.7C31.08 308.92 30.02 309.2 28.54 309.2C26.14 309.2 25 308.44 25 305.28V298.32H27.02V306.08C27.02 307.76 27.58 308.8 28.78 308.8C29.98 308.8 30.54 307.76 30.54 306.08V298.32H32.56ZM39.6623 296.2C39.6623 295.48 40.2423 294.9 40.9623 294.9C41.7023 294.9 42.2823 295.48 42.2823 296.2C42.2823 296.94 41.7023 297.52 40.9623 297.52C40.2423 297.52 39.6623 296.94 39.6623 296.2ZM39.9623 309V298.32H41.9823V309H39.9623ZM46.443 295.1V298.32H49.963V298.72H46.443V306.08C46.443 307.76 46.843 308.8 47.423 308.8C47.863 308.8 48.363 308.28 48.363 307.08V306.08H50.363V306.68C50.363 308.44 49.383 309.2 47.403 309.2C45.423 309.2 44.423 308.44 44.423 305.28V298.72H43.423V298.32H44.423V295.1H46.443ZM60.0578 309H58.0378V301.24C58.0378 299.56 57.3578 298.72 56.0778 298.72C54.8178 298.72 53.8578 299.56 53.8578 301.24V309H51.8378V294.3H53.8578V299.58C54.2778 298.62 55.1178 298.12 56.5378 298.12C58.8778 298.12 60.0578 299.54 60.0578 301.64V309ZM68.7281 295.1V298.32H72.2481V298.72H68.7281V306.08C68.7281 307.76 69.1281 308.8 69.7081 308.8C70.1481 308.8 70.6481 308.28 70.6481 307.08V306.08H72.6481V306.68C72.6481 308.44 71.6681 309.2 69.6881 309.2C67.7081 309.2 66.7081 308.44 66.7081 305.28V298.72H65.7081V298.32H66.7081V295.1H68.7281ZM82.343 309H80.323V301.24C80.323 299.56 79.643 298.72 78.363 298.72C77.103 298.72 76.143 299.56 76.143 301.24V309H74.123V294.3H76.143V299.58C76.563 298.62 77.403 298.12 78.823 298.12C81.163 298.12 82.343 299.54 82.343 301.64V309ZM92.4364 303.48H86.2364V306.08C86.2364 307.76 86.9164 308.8 88.3164 308.8C89.7364 308.8 90.4164 307.76 90.4164 306.68V305.28H92.4364V305.88C92.4364 308.44 91.1764 309.2 88.3164 309.2C85.4564 309.2 84.2164 308.44 84.2164 305.28V302.04C84.2164 298.88 85.4564 298.12 88.3164 298.12C91.1764 298.12 92.4364 298.88 92.4364 301.44V303.48ZM86.2364 303.08H90.4164V300.64C90.4164 299.56 89.7364 298.52 88.3164 298.52C86.9164 298.52 86.2364 299.56 86.2364 301.24V303.08ZM102.454 308.6C103.734 308.6 104.694 307.76 104.694 306.08V301.24C104.694 299.56 104.014 298.52 102.594 298.52C101.194 298.52 100.514 299.56 100.514 301.24V306.08C100.514 307.76 101.194 308.6 102.454 308.6ZM98.4938 309.9H100.514V311.12C100.514 312.2 101.194 312.62 102.594 312.62C104.014 312.62 104.694 311.6 104.694 309.9V307.74C104.274 308.7 103.434 309.2 102.014 309.2C99.6538 309.2 98.4938 307.78 98.4938 305.68V302.04C98.4938 298.88 99.7338 298.12 102.594 298.12C105.454 298.12 106.714 298.88 106.714 302.04V309.1C106.714 312.26 105.454 313.02 102.594 313.02C99.7338 313.02 98.4938 312.86 98.4938 310.3V309.9ZM116.911 298.32V305.28C116.911 308.44 115.651 309.2 112.791 309.2C109.931 309.2 108.691 308.44 108.691 305.28V298.32H110.711V306.08C110.711 307.76 111.391 308.8 112.791 308.8C114.211 308.8 114.891 307.76 114.891 306.08V298.32H116.911ZM127.007 303.48H120.807V306.08C120.807 307.76 121.487 308.8 122.887 308.8C124.307 308.8 124.987 307.76 124.987 306.68V305.28H127.007V305.88C127.007 308.44 125.747 309.2 122.887 309.2C120.027 309.2 118.787 308.44 118.787 305.28V302.04C118.787 298.88 120.027 298.12 122.887 298.12C125.747 298.12 127.007 298.88 127.007 301.44V303.48ZM120.807 303.08H124.987V300.64C124.987 299.56 124.307 298.52 122.887 298.52C121.487 298.52 120.807 299.56 120.807 301.24V303.08ZM128.647 305.28H130.667V306.68C130.667 307.76 131.347 308.8 132.747 308.8C134.027 308.8 134.807 307.94 134.807 306.8C134.807 303.58 128.647 305.78 128.647 301.5C128.647 299.28 130.307 298.12 132.707 298.12C135.287 298.12 136.667 299.44 136.667 301.44V302.04H134.647V300.64C134.647 299.56 134.167 298.52 132.747 298.52C131.487 298.52 130.707 299.36 130.707 300.6C130.707 304 136.867 301.82 136.867 305.94C136.867 308.08 135.207 309.2 132.747 309.2C130.107 309.2 128.647 307.86 128.647 305.88V305.28ZM140.818 295.1V298.32H144.338V298.72H140.818V306.08C140.818 307.76 141.218 308.8 141.798 308.8C142.238 308.8 142.738 308.28 142.738 307.08V306.08H144.738V306.68C144.738 308.44 143.758 309.2 141.778 309.2C139.798 309.2 138.798 308.44 138.798 305.28V298.72H137.798V298.32H138.798V295.1H140.818ZM150.21 305.28H152.23V306.68C152.23 307.76 152.91 308.8 154.31 308.8C155.59 308.8 156.37 307.94 156.37 306.8C156.37 303.58 150.21 305.78 150.21 301.5C150.21 299.28 151.87 298.12 154.27 298.12C156.85 298.12 158.23 299.44 158.23 301.44V302.04H156.21V300.64C156.21 299.56 155.73 298.52 154.31 298.52C153.05 298.52 152.27 299.36 152.27 300.6C152.27 304 158.43 301.82 158.43 305.94C158.43 308.08 156.77 309.2 154.31 309.2C151.67 309.2 150.21 307.86 150.21 305.88V305.28ZM162.38 295.1V298.32H165.9V298.72H162.38V306.08C162.38 307.76 162.78 308.8 163.36 308.8C163.8 308.8 164.3 308.28 164.3 307.08V306.08H166.3V306.68C166.3 308.44 165.32 309.2 163.34 309.2C161.36 309.2 160.36 308.44 160.36 305.28V298.72H159.36V298.32H160.36V295.1H162.38ZM175.815 309H173.795V307.74C173.375 308.7 172.535 309.2 171.115 309.2C168.755 309.2 167.595 307.78 167.595 305.68V302.04C167.595 298.88 168.835 298.12 171.695 298.12C174.555 298.12 175.815 298.88 175.815 302.04V309ZM171.555 308.6C172.835 308.6 173.795 307.76 173.795 306.08V301.24C173.795 299.56 173.115 298.52 171.695 298.52C170.295 298.52 169.615 299.56 169.615 301.24V306.08C169.615 307.76 170.295 308.6 171.555 308.6ZM183.593 298.12V300.54C182.973 299.98 182.233 299.72 181.573 299.72C180.653 299.72 179.913 300.26 179.913 301.24V309H177.893V298.32H179.913V300.18C180.473 298.46 182.233 297.92 183.593 298.12ZM184.624 305.28H186.644V306.68C186.644 307.76 187.324 308.8 188.724 308.8C190.004 308.8 190.784 307.94 190.784 306.8C190.784 303.58 184.624 305.78 184.624 301.5C184.624 299.28 186.284 298.12 188.684 298.12C191.264 298.12 192.644 299.44 192.644 301.44V302.04H190.624V300.64C190.624 299.56 190.144 298.52 188.724 298.52C187.464 298.52 186.684 299.36 186.684 300.6C186.684 304 192.844 301.82 192.844 305.94C192.844 308.08 191.184 309.2 188.724 309.2C186.084 309.2 184.624 307.86 184.624 305.88V305.28ZM206.987 309H204.967V307.74C204.547 308.7 203.707 309.2 202.287 309.2C199.927 309.2 198.767 307.78 198.767 305.68V302.04C198.767 298.88 200.007 298.12 202.867 298.12C205.727 298.12 206.987 298.88 206.987 302.04V309ZM202.727 308.6C204.007 308.6 204.967 307.76 204.967 306.08V301.24C204.967 299.56 204.287 298.52 202.867 298.52C201.467 298.52 200.787 299.56 200.787 301.24V306.08C200.787 307.76 201.467 308.6 202.727 308.6ZM211.15 295.1V298.32H214.67V298.72H211.15V306.08C211.15 307.76 211.55 308.8 212.13 308.8C212.57 308.8 213.07 308.28 213.07 307.08V306.08H215.07V306.68C215.07 308.44 214.09 309.2 212.11 309.2C210.13 309.2 209.13 308.44 209.13 305.28V298.72H208.13V298.32H209.13V295.1H211.15ZM33.12 326.48H26.92V329.08C26.92 330.76 27.6 331.8 29 331.8C30.42 331.8 31.1 330.76 31.1 329.68V328.28H33.12V328.88C33.12 331.44 31.86 332.2 29 332.2C26.14 332.2 24.9 331.44 24.9 328.28V325.04C24.9 321.88 26.14 321.12 29 321.12C31.86 321.12 33.12 321.88 33.12 324.44V326.48ZM26.92 326.08H31.1V323.64C31.1 322.56 30.42 321.52 29 321.52C27.6 321.52 26.92 322.56 26.92 324.24V326.08ZM43.1405 321.32L42.2405 328.28C41.8405 331.42 40.8805 332.2 38.8405 332.2C36.7805 332.2 35.8205 331.42 35.4205 328.28L34.5205 321.32H36.5605L37.5405 329.08C37.7605 330.76 38.2205 331.8 38.8405 331.8C39.4405 331.8 39.9005 330.76 40.1205 329.08L41.1005 321.32H43.1405ZM52.827 326.48H46.627V329.08C46.627 330.76 47.307 331.8 48.707 331.8C50.127 331.8 50.807 330.76 50.807 329.68V328.28H52.827V328.88C52.827 331.44 51.567 332.2 48.707 332.2C45.847 332.2 44.607 331.44 44.607 328.28V325.04C44.607 321.88 45.847 321.12 48.707 321.12C51.567 321.12 52.827 321.88 52.827 324.44V326.48ZM46.627 326.08H50.807V323.64C50.807 322.56 50.127 321.52 48.707 321.52C47.307 321.52 46.627 322.56 46.627 324.24V326.08ZM62.8875 332H60.8675V324.24C60.8675 322.56 60.1875 321.52 58.7675 321.52C57.3675 321.52 56.6875 322.56 56.6875 324.24V332H54.6675V325.04C54.6675 321.88 55.9075 321.12 58.7675 321.12C61.6275 321.12 62.8875 321.88 62.8875 325.04V332ZM67.0289 318.1V321.32H70.5489V321.72H67.0289V329.08C67.0289 330.76 67.4289 331.8 68.0089 331.8C68.4489 331.8 68.9489 331.28 68.9489 330.08V329.08H70.9489V329.68C70.9489 331.44 69.9689 332.2 67.9889 332.2C66.0089 332.2 65.0089 331.44 65.0089 328.28V321.72H64.0089V321.32H65.0089V318.1H67.0289ZM80.8606 321.72C79.6006 321.72 78.6406 322.56 78.6406 324.24V329.08C78.6406 330.76 79.3206 331.8 80.7206 331.8C82.1406 331.8 82.8206 330.76 82.8206 329.08V324.24C82.8206 322.56 82.1406 321.72 80.8606 321.72ZM76.6206 317.3H78.6406V322.58C79.0606 321.62 79.9006 321.12 81.3206 321.12C83.6606 321.12 84.8406 322.54 84.8406 324.64V328.28C84.8406 331.44 83.5806 332.2 80.7206 332.2C77.8606 332.2 76.6206 331.44 76.6206 328.28V317.3ZM94.8583 332H92.8383V330.74C92.4183 331.7 91.5783 332.2 90.1583 332.2C87.7983 332.2 86.6383 330.78 86.6383 328.68V325.04C86.6383 321.88 87.8783 321.12 90.7383 321.12C93.5983 321.12 94.8583 321.88 94.8583 325.04V332ZM90.5983 331.6C91.8783 331.6 92.8383 330.76 92.8383 329.08V324.24C92.8383 322.56 92.1583 321.52 90.7383 321.52C89.3383 321.52 88.6583 322.56 88.6583 324.24V329.08C88.6583 330.76 89.3383 331.6 90.5983 331.6ZM104.975 325.04H102.955V323.64C102.955 322.56 102.275 321.52 100.855 321.52C99.4555 321.52 98.7755 322.56 98.7755 324.24V329.08C98.7755 330.76 99.4555 331.8 100.855 331.8C102.275 331.8 102.955 330.76 102.955 329.68V328.28H104.975V328.88C104.975 331.44 103.715 332.2 100.855 332.2C97.9955 332.2 96.7555 331.44 96.7555 328.28V325.04C96.7555 321.88 97.9955 321.12 100.855 321.12C103.715 321.12 104.975 321.88 104.975 324.44V325.04ZM112.618 323.94V321.32H114.638V323.88C114.638 325.84 113.918 325.98 112.438 326.38C113.838 326.84 114.638 327.22 114.638 329.42V332H112.618V329.28C112.618 326.82 111.958 326.56 109.998 326.56H108.838V332H106.818V317.3H108.838V326.16H109.998C111.958 326.16 112.618 326.1 112.618 323.94ZM120.462 321.72C119.202 321.72 118.522 322.56 118.522 324.24V329.08C118.522 330.76 119.202 331.8 120.602 331.8C122.022 331.8 122.702 330.76 122.702 329.08V324.24C122.702 322.56 121.742 321.72 120.462 321.72ZM124.722 317.3V328.28C124.722 331.44 123.462 332.2 120.602 332.2C117.742 332.2 116.502 331.44 116.502 328.28V324.64C116.502 322.54 117.662 321.12 120.022 321.12C121.442 321.12 122.282 321.62 122.702 322.58V317.3H124.722ZM132.479 321.12V323.54C131.859 322.98 131.119 322.72 130.459 322.72C129.539 322.72 128.799 323.26 128.799 324.24V332H126.779V321.32H128.799V323.18C129.359 321.46 131.119 320.92 132.479 321.12ZM133.63 328.28V325.04C133.63 321.88 134.87 321.12 137.73 321.12C140.59 321.12 141.85 321.88 141.85 325.04V328.28C141.85 331.44 140.59 332.2 137.73 332.2C134.87 332.2 133.63 331.44 133.63 328.28ZM137.73 331.8C139.15 331.8 139.83 330.76 139.83 329.08V324.24C139.83 322.56 139.15 321.52 137.73 321.52C136.33 321.52 135.65 322.56 135.65 324.24V329.08C135.65 330.76 136.33 331.8 137.73 331.8ZM147.99 331.6C149.27 331.6 149.95 330.76 149.95 329.08V324.24C149.95 322.56 149.27 321.52 147.85 321.52C146.45 321.52 145.77 322.56 145.77 324.24V329.08C145.77 330.76 146.73 331.6 147.99 331.6ZM143.75 336.02V325.04C143.75 321.88 144.99 321.12 147.85 321.12C150.71 321.12 151.97 321.88 151.97 325.04V328.68C151.97 330.78 150.79 332.2 148.45 332.2C147.03 332.2 146.19 331.7 145.77 330.74V336.02H143.75Z" fill="#161616" fill-opacity="0.5"/>
<path d="M2 274C2 272.343 3.34315 271 5 271H15C16.6569 271 18 272.343 18 274V284C18 285.657 16.6569 287 15 287H5C3.34315 287 2 285.657 2 284V274Z" stroke="#003556" stroke-width="2"/>
<path d="M2 271L17.2984 286.654" stroke="#F83A31" stroke-width="3"/>
<path d="M18.5156 271L2.86149 286.298" stroke="#F83A31" stroke-width="3"/>
</svg>
