<svg width="525" height="90" viewBox="0 0 525 90" fill="none" xmlns="http://www.w3.org/2000/svg">
<path d="M59.7397 43.7424C58.3036 43.7424 57.3763 44.5108 56.9692 46.0363L45.8535 88.2194L10.3581 88.3324L21.4737 46.1493C21.8808 44.6238 21.3606 43.8667 19.9132 43.8667L0 43.9345L10.5163 4.0453L90.1466 3.7854L79.6302 43.6746L59.717 43.7424H59.7397Z" fill="#52BDFF"/>
<path d="M101.657 3.74034L141.472 3.60474L119.229 87.9596L79.4141 88.0952L101.657 3.74034Z" fill="#52BDFF"/>
<path d="M183.098 47.9007L220.753 47.7764L212.204 80.1962L203.18 87.6881L137.651 87.9028L132.562 80.4561L150.87 11.0399L159.894 3.54796L225.423 3.33325L230.512 10.78L221.963 43.1998L184.308 43.3241L189.26 24.5209C189.43 23.8767 189.362 23.3117 189.079 22.8371C188.785 22.3625 188.333 22.1591 187.7 22.2382C187.089 22.2382 186.513 22.4868 185.97 22.9727C185.427 23.4586 185.065 24.0237 184.895 24.6565L179.366 45.6293L173.836 66.6023C173.667 67.2464 173.678 67.7887 173.859 68.2295C174.051 68.6702 174.436 68.9301 175.012 69.0092C175.657 69.1674 176.279 69.0092 176.901 68.5233C177.523 68.0374 177.93 67.4385 178.122 66.7152L183.075 47.912L183.098 47.9007Z" fill="#52BDFF"/>
<path d="M290.411 45.268C290.004 46.7935 290.524 47.5506 291.972 47.5506L311.885 47.4828L301.368 87.372L263.713 87.4963L269.277 66.4104C269.684 64.8849 269.152 64.1278 267.716 64.1278C266.28 64.1278 265.353 64.8962 264.957 66.4217L259.394 87.5076L221.738 87.6319L243.981 3.27699L281.636 3.15268L276.073 24.2386C275.666 25.7641 276.186 26.5212 277.633 26.5212C279.069 26.5212 279.997 25.7528 280.404 24.2273L285.967 3.14139L323.622 3.01709L313.106 42.9063L293.193 42.9741C291.757 42.9741 290.83 43.7425 290.422 45.268H290.411Z" fill="#52BDFF"/>
<path d="M402.881 47.1776L392.365 87.0668L312.734 87.3267L334.977 2.97182L414.607 2.71191L409.654 21.5152L369.839 21.6508C368.403 21.6508 367.476 22.4192 367.08 23.9447C366.673 25.4702 367.193 26.2273 368.641 26.2273L408.456 26.0917L404.102 42.6011L364.287 42.7367C362.851 42.7367 361.924 43.5051 361.517 45.0306C361.11 46.5561 361.63 47.3132 363.077 47.3132L402.892 47.1776H402.881Z" fill="#52BDFF"/>
<path d="M475.294 42.3637C473.858 42.3637 472.931 43.1321 472.524 44.6576L461.408 86.8407L425.913 86.9537L437.028 44.7706C437.435 43.2451 436.915 42.488 435.468 42.488L415.555 42.5558L426.071 2.66663L505.701 2.40674L495.185 42.2959L475.272 42.3637H475.294Z" fill="#52BDFF"/>
<path d="M63.3807 43.7536C61.9446 43.7536 61.0173 44.522 60.6102 46.0475L49.4946 88.2306L13.9991 88.3436L25.126 46.1605C25.5331 44.635 25.0017 43.8779 23.5656 43.8779L3.65234 43.9457L14.1687 4.05654L93.799 3.79663L83.2826 43.6858L63.3694 43.7536H63.3807Z" fill="#F83A31"/>
<path d="M105.301 3.76255L145.116 3.62695L122.874 87.9819L83.0586 88.1174L105.301 3.76255Z" fill="#F83A31"/>
<path d="M186.738 47.9231L224.394 47.7988L215.845 80.2187L206.821 87.7106L141.292 87.9253L136.215 80.4786L154.511 11.0623L163.535 3.57042L229.064 3.35571L234.153 10.8025L225.604 43.2223L187.948 43.3466L192.901 24.5433C193.071 23.8992 193.014 23.3455 192.72 22.8596C192.426 22.3737 191.974 22.1816 191.341 22.2607C190.73 22.2607 190.153 22.5093 189.611 22.9839C189.068 23.4698 188.706 24.0348 188.537 24.6676L183.007 45.6405L177.477 66.6134C177.308 67.2575 177.319 67.7999 177.5 68.2406C177.692 68.6813 178.077 68.9412 178.653 69.0203C179.298 69.1785 179.92 69.0203 180.542 68.5344C181.164 68.0485 181.571 67.4496 181.763 66.7264L186.716 47.9231H186.738Z" fill="#F83A31"/>
<path d="M294.051 45.2792C293.644 46.8047 294.164 47.5618 295.612 47.5618L315.525 47.494L305.009 87.3832L267.353 87.5075L272.917 66.4216C273.324 64.8961 272.804 64.139 271.356 64.139C269.92 64.139 268.993 64.9074 268.586 66.4329L263.023 87.5188L225.367 87.6431L247.61 3.28823L285.265 3.16392L279.702 24.2498C279.295 25.7753 279.815 26.5324 281.262 26.5324C282.698 26.5324 283.625 25.764 284.033 24.2385L289.596 3.15262L327.251 3.02832L316.735 42.9175L296.822 42.9853C295.386 42.9853 294.458 43.7537 294.063 45.2792H294.051Z" fill="#F83A31"/>
<path d="M406.518 47.1889L396.001 87.078L316.371 87.3379L338.614 2.98305L418.244 2.72314L413.291 21.5264L373.476 21.662C372.04 21.662 371.113 22.4304 370.717 23.9559C370.31 25.4815 370.83 26.2386 372.277 26.2386L412.093 26.103L407.739 42.6123L367.924 42.7479C366.488 42.7479 365.56 43.5163 365.165 45.0418C364.758 46.5673 365.278 47.3245 366.725 47.3245L406.54 47.1889H406.518Z" fill="#F83A31"/>
<path d="M478.935 42.375C477.499 42.375 476.572 43.1434 476.176 44.6689L465.049 86.852L429.553 86.965L440.669 44.7819C441.076 43.2564 440.556 42.4993 439.109 42.4993L419.195 42.5671L429.712 2.67787L509.342 2.41797L498.825 42.3072L478.912 42.375H478.935Z" fill="#F83A31"/>
<path d="M67.2045 44.0927C65.7684 44.0927 64.8411 44.8611 64.4341 46.3866L53.3184 88.5697L17.8229 88.6827L28.9386 46.4996C29.3457 44.9741 28.8255 44.217 27.3781 44.217L7.46484 44.2848L17.9812 4.39565L97.6115 4.13574L87.0951 44.0249L67.1819 44.0927H67.2045Z" fill="#EBC613"/>
<path d="M109.114 4.10167L148.929 3.96606L126.686 88.321L86.8711 88.4566L109.114 4.10167Z" fill="#EBC613"/>
<path d="M190.562 48.2622L228.218 48.1379L219.669 80.5578L210.645 88.0497L145.116 88.2644L140.027 80.8177L158.335 11.4015L167.358 3.90953L232.888 3.69482L237.976 11.1416L229.428 43.5614L191.772 43.6857L196.725 24.8824C196.895 24.2383 196.827 23.6733 196.544 23.1987C196.25 22.7128 195.798 22.5207 195.165 22.5998C194.554 22.5998 193.977 22.8484 193.435 23.323C192.892 23.8089 192.53 24.3739 192.36 25.018L186.831 45.9909L181.301 66.9638C181.132 67.6079 181.143 68.1503 181.324 68.591C181.505 69.0317 181.901 69.2916 182.477 69.3707C183.122 69.5289 183.744 69.3707 184.366 68.8848C184.988 68.3989 185.395 67.8 185.587 67.0768L190.54 48.2735L190.562 48.2622Z" fill="#EBC613"/>
<path d="M297.864 45.6183C297.457 47.1438 297.977 47.9009 299.424 47.9009L319.338 47.8331L308.821 87.7223L271.166 87.8466L276.729 66.7607C277.137 65.2352 276.616 64.4781 275.169 64.4781C273.722 64.4781 272.806 65.2465 272.398 66.772L266.835 87.8579L229.18 87.9822L251.422 3.62734L289.078 3.50304L283.514 24.5889C283.107 26.1144 283.627 26.8715 285.075 26.8715C286.511 26.8715 287.438 26.1031 287.845 24.5776L293.409 3.49173L331.064 3.36743L320.548 43.2566L300.634 43.3244C299.198 43.3244 298.271 44.0928 297.864 45.6183Z" fill="#EBC613"/>
<path d="M410.33 47.528L399.814 87.4172L320.184 87.6771L342.426 3.32215L422.057 3.06226L417.104 21.8655L377.288 22.0011C375.852 22.0011 374.925 22.7696 374.529 24.2951C374.122 25.8206 374.643 26.5777 376.09 26.5777L415.905 26.4421L411.551 42.9514L371.736 43.087C370.3 43.087 369.373 43.8554 368.966 45.381C368.559 46.9065 369.079 47.6636 370.526 47.6636L410.341 47.528H410.33Z" fill="#EBC613"/>
<path d="M482.759 42.7141C481.323 42.7141 480.396 43.4825 479.989 45.008L468.873 87.1911L433.377 87.3041L444.493 45.121C444.9 43.5955 444.38 42.8384 442.933 42.8384L423.02 42.9062L433.536 3.01699L513.166 2.75708L502.65 42.6463L482.736 42.7141H482.759Z" fill="#EBC613"/>
<path d="M70.724 44.33C69.2879 44.33 68.3607 45.0984 67.9536 46.6239L56.838 88.807L21.3425 88.9201L32.4581 46.7369C32.8652 45.2114 32.3451 44.4543 30.8976 44.4543L10.9844 44.5221L21.5008 4.63295L101.131 4.37305L90.6147 44.2622L70.7014 44.33H70.724Z" fill="#F83A31"/>
<path d="M112.633 4.33897L152.448 4.20337L130.206 88.5583L90.3906 88.6939L112.633 4.33897Z" fill="#F83A31"/>
<path d="M194.082 48.4995L231.737 48.3752L223.188 80.7951L214.165 88.287L148.635 88.5017L143.547 81.055L161.854 11.6388L170.878 4.14683L236.407 3.93213L241.496 11.3789L232.947 43.7987L195.292 43.923L200.245 25.1197C200.414 24.4756 200.346 23.9219 200.064 23.436C199.77 22.9501 199.317 22.758 198.684 22.8371C198.074 22.8371 197.497 23.0857 196.954 23.5603C196.411 24.0462 196.049 24.6112 195.88 25.244L190.35 46.2169L184.821 67.1898C184.651 67.8339 184.662 68.3763 184.843 68.817C185.024 69.2577 185.42 69.5176 185.997 69.5967C186.641 69.7549 187.263 69.5967 187.885 69.1108C188.507 68.6249 188.914 68.026 189.106 67.3028L194.059 48.4995H194.082Z" fill="#F83A31"/>
<path d="M301.391 45.8556C300.984 47.3811 301.504 48.1383 302.952 48.1383L322.865 48.0704L312.349 87.9596L274.693 88.0839L280.257 66.998C280.664 65.4725 280.144 64.7154 278.696 64.7154C277.249 64.7154 276.333 65.4838 275.926 67.0093L270.362 88.0952L232.707 88.2195L254.95 3.86464L292.605 3.74034L287.042 24.8262C286.634 26.3517 287.155 27.1089 288.602 27.1089C290.038 27.1089 290.965 26.3404 291.372 24.8149L296.936 3.72904L334.591 3.60474L324.075 43.4939L304.162 43.5617C302.726 43.5617 301.798 44.3301 301.391 45.8556Z" fill="#F83A31"/>
<path d="M413.865 47.7765L403.349 87.6657L323.719 87.9256L345.961 3.5707L425.592 3.31079L420.639 22.1141L380.824 22.2497C379.388 22.2497 378.46 23.0181 378.065 24.5436C377.658 26.0691 378.178 26.8262 379.625 26.8262L419.44 26.6906L415.087 43.2L375.272 43.3356C373.835 43.3356 372.908 44.104 372.501 45.6295C372.094 47.155 372.614 47.9121 374.062 47.9121L413.877 47.7765H413.865Z" fill="#F83A31"/>
<path d="M486.279 42.9514C484.843 42.9514 483.915 43.7198 483.508 45.2453L472.393 87.4284L436.897 87.5414L448.013 45.3583C448.42 43.8328 447.9 43.0757 446.452 43.0757L426.539 43.1435L437.055 3.25429L516.686 2.99438L506.169 42.8836L486.256 42.9514H486.279Z" fill="#F83A31"/>
<path d="M76.6264 43.3357C75.1903 43.3357 74.263 44.1041 73.8559 45.6296L62.7402 87.8127L27.2447 87.9257L38.3604 45.7426C38.7675 44.2171 38.236 43.46 36.7999 43.46L16.8867 43.5278L27.4031 3.63856L107.033 3.37866L96.5169 43.2678L76.6037 43.3357H76.6264Z" fill="white" stroke="#00518C" stroke-width="2.43" stroke-miterlimit="10"/>
<path d="M118.536 3.33336L158.351 3.19775L136.108 87.5527L96.293 87.6882L118.536 3.33336Z" fill="white" stroke="#00518C" stroke-width="2.43" stroke-miterlimit="10"/>
<path d="M199.973 47.4939L237.628 47.3696L229.079 79.7895L220.055 87.2814L154.526 87.4961L149.438 80.0494L167.745 10.6332L176.769 3.14122L242.298 2.92651L247.387 10.3732L238.838 42.7931L201.182 42.9174L206.135 24.1141C206.305 23.47 206.248 22.9163 205.954 22.4304C205.66 21.9558 205.208 21.7524 204.575 21.8315C203.964 21.8315 203.387 22.0801 202.845 22.5547C202.302 23.0406 201.94 23.6056 201.77 24.2497L196.241 45.2226L190.711 66.1955C190.542 66.8396 190.553 67.382 190.734 67.8227C190.926 68.2634 191.311 68.5233 191.899 68.6024C192.543 68.7606 193.165 68.6024 193.787 68.1165C194.409 67.6306 194.816 67.0317 195.008 66.3085L199.961 47.5052L199.973 47.4939Z" fill="white" stroke="#00518C" stroke-width="2.43" stroke-miterlimit="10"/>
<path d="M307.286 44.8613C306.879 46.3868 307.399 47.1439 308.846 47.1439L328.76 47.0761L318.243 86.9652L280.588 87.0895L286.151 66.0037C286.558 64.4782 286.038 63.721 284.591 63.721C283.155 63.721 282.228 64.4894 281.82 66.015L276.257 87.1009L238.602 87.2252L260.844 2.87025L298.5 2.74595L292.936 23.8319C292.529 25.3574 293.049 26.1145 294.497 26.1145C295.933 26.1145 296.86 25.3461 297.267 23.8205L302.83 2.73465L340.486 2.61035L329.969 42.4995L310.056 42.5673C308.62 42.5673 307.693 43.3357 307.297 44.8613H307.286Z" fill="white" stroke="#00518C" stroke-width="2.43" stroke-miterlimit="10"/>
<path d="M419.768 46.7709L409.251 86.6601L329.621 86.92L351.864 2.56508L431.494 2.30518L426.541 21.1085L386.726 21.2441C385.29 21.2441 384.363 22.0125 383.956 23.538C383.549 25.0635 384.069 25.8206 385.516 25.8206L425.331 25.685L420.978 42.1944L381.163 42.33C379.726 42.33 378.799 43.0984 378.403 44.6239C377.996 46.1494 378.516 46.9065 379.964 46.9065L419.779 46.7709H419.768Z" fill="white" stroke="#00518C" stroke-width="2.43" stroke-miterlimit="10"/>
<path d="M492.177 41.957C490.741 41.957 489.814 42.7254 489.418 44.2509L478.303 86.434L442.807 86.547L453.923 44.3639C454.33 42.8384 453.81 42.0813 452.362 42.0813L432.449 42.1491L442.966 2.25991L522.596 2L512.08 41.8892L492.166 41.957H492.177Z" fill="white" stroke="#00518C" stroke-width="2.43" stroke-miterlimit="10"/>
</svg>
