<svg width="81" height="43" viewBox="0 0 81 43" fill="none" xmlns="http://www.w3.org/2000/svg">
<path d="M16.1173 5.4H28.6953V24.932L21.6273 32H9.16331L2.09531 24.932V5.4H14.6733V18.7C14.6733 19.1813 14.914 19.422 15.3953 19.422C15.8766 19.422 16.1173 19.1813 16.1173 18.7V5.4ZM32.4879 5.4H45.7879V32H32.4879V5.4ZM62.8953 24.628C62.414 24.628 62.1733 24.8687 62.1733 25.35V32H49.5953V5.4H73.8393L76.1953 7.756V22.272L73.8393 24.628H62.8953ZM62.1733 18.7C62.1733 19.1813 62.414 19.422 62.8953 19.422C63.3766 19.422 63.6173 19.1813 63.6173 18.7V12.05C63.6173 11.5687 63.3766 11.328 62.8953 11.328C62.414 11.328 62.1733 11.5687 62.1733 12.05V18.7Z" fill="#003556"/>
<path d="M16.1173 5.4V4.9H15.6173V5.4H16.1173ZM28.6953 5.4H29.1953V4.9H28.6953V5.4ZM28.6953 24.932L29.0489 25.2856L29.1953 25.1391V24.932H28.6953ZM21.6273 32V32.5H21.8344L21.9809 32.3536L21.6273 32ZM9.16331 32L8.80976 32.3536L8.95621 32.5H9.16331V32ZM2.09531 24.932H1.59531V25.1391L1.74176 25.2856L2.09531 24.932ZM2.09531 5.4V4.9H1.59531V5.4H2.09531ZM14.6733 5.4H15.1733V4.9H14.6733V5.4ZM16.1173 5.9H28.6953V4.9H16.1173V5.9ZM28.1953 5.4V24.932H29.1953V5.4H28.1953ZM28.3418 24.5784L21.2738 31.6464L21.9809 32.3536L29.0489 25.2856L28.3418 24.5784ZM21.6273 31.5H9.16331V32.5H21.6273V31.5ZM9.51687 31.6464L2.44887 24.5784L1.74176 25.2856L8.80976 32.3536L9.51687 31.6464ZM2.59531 24.932V5.4H1.59531V24.932H2.59531ZM2.09531 5.9H14.6733V4.9H2.09531V5.9ZM14.1733 5.4V18.7H15.1733V5.4H14.1733ZM14.1733 18.7C14.1733 19.0177 14.2531 19.3479 14.5003 19.5951C14.7474 19.8422 15.0776 19.922 15.3953 19.922V18.922C15.3152 18.922 15.2654 18.9118 15.2376 18.9025C15.2241 18.8981 15.2164 18.894 15.2126 18.8917C15.209 18.8895 15.2077 18.8882 15.2074 18.8879C15.2071 18.8876 15.2058 18.8864 15.2036 18.8827C15.2013 18.8789 15.1972 18.8712 15.1928 18.8578C15.1835 18.8299 15.1733 18.7802 15.1733 18.7H14.1733ZM15.3953 19.922C15.7131 19.922 16.0432 19.8422 16.2904 19.5951C16.5375 19.3479 16.6173 19.0177 16.6173 18.7H15.6173C15.6173 18.7802 15.6071 18.8299 15.5978 18.8578C15.5934 18.8712 15.5893 18.8789 15.587 18.8827C15.5849 18.8864 15.5836 18.8876 15.5833 18.8879C15.583 18.8882 15.5817 18.8895 15.578 18.8917C15.5742 18.894 15.5665 18.8981 15.5531 18.9025C15.5253 18.9118 15.4755 18.922 15.3953 18.922V19.922ZM16.6173 18.7V5.4H15.6173V18.7H16.6173ZM32.4879 5.4V4.9H31.9879V5.4H32.4879ZM45.7879 5.4H46.2879V4.9H45.7879V5.4ZM45.7879 32V32.5H46.2879V32H45.7879ZM32.4879 32H31.9879V32.5H32.4879V32ZM32.4879 5.9H45.7879V4.9H32.4879V5.9ZM45.2879 5.4V32H46.2879V5.4H45.2879ZM45.7879 31.5H32.4879V32.5H45.7879V31.5ZM32.9879 32V5.4H31.9879V32H32.9879ZM62.1733 32V32.5H62.6733V32H62.1733ZM49.5953 32H49.0953V32.5H49.5953V32ZM49.5953 5.4V4.9H49.0953V5.4H49.5953ZM73.8393 5.4L74.1929 5.04644L74.0464 4.9H73.8393V5.4ZM76.1953 7.756H76.6953V7.54889L76.5489 7.40245L76.1953 7.756ZM76.1953 22.272L76.5489 22.6256L76.6953 22.4791V22.272H76.1953ZM73.8393 24.628V25.128H74.0464L74.1929 24.9816L73.8393 24.628ZM62.8953 24.128C62.5776 24.128 62.2474 24.2078 62.0003 24.4549C61.7531 24.7021 61.6733 25.0323 61.6733 25.35H62.6733C62.6733 25.2698 62.6835 25.2201 62.6928 25.1922C62.6973 25.1788 62.7013 25.1711 62.7036 25.1673C62.7058 25.1636 62.7071 25.1623 62.7074 25.1621C62.7077 25.1618 62.709 25.1605 62.7126 25.1583C62.7164 25.156 62.7241 25.1519 62.7376 25.1475C62.7654 25.1382 62.8152 25.128 62.8953 25.128V24.128ZM61.6733 25.35V32H62.6733V25.35H61.6733ZM62.1733 31.5H49.5953V32.5H62.1733V31.5ZM50.0953 32V5.4H49.0953V32H50.0953ZM49.5953 5.9H73.8393V4.9H49.5953V5.9ZM73.4858 5.75355L75.8418 8.10955L76.5489 7.40245L74.1929 5.04644L73.4858 5.75355ZM75.6953 7.756V22.272H76.6953V7.756H75.6953ZM75.8418 21.9184L73.4858 24.2744L74.1929 24.9816L76.5489 22.6256L75.8418 21.9184ZM73.8393 24.128H62.8953V25.128H73.8393V24.128ZM61.6733 18.7C61.6733 19.0177 61.7531 19.3479 62.0003 19.5951C62.2474 19.8422 62.5776 19.922 62.8953 19.922V18.922C62.8152 18.922 62.7654 18.9118 62.7376 18.9025C62.7241 18.8981 62.7164 18.894 62.7126 18.8917C62.709 18.8895 62.7077 18.8882 62.7074 18.8879C62.7071 18.8876 62.7058 18.8864 62.7036 18.8827C62.7013 18.8789 62.6973 18.8712 62.6928 18.8578C62.6835 18.8299 62.6733 18.7802 62.6733 18.7H61.6733ZM62.8953 19.922C63.2131 19.922 63.5432 19.8422 63.7904 19.5951C64.0375 19.3479 64.1173 19.0177 64.1173 18.7H63.1173C63.1173 18.7802 63.1071 18.8299 63.0978 18.8578C63.0934 18.8712 63.0893 18.8789 63.087 18.8827C63.0849 18.8864 63.0836 18.8876 63.0833 18.8879C63.083 18.8882 63.0817 18.8895 63.078 18.8917C63.0742 18.894 63.0665 18.8981 63.0531 18.9025C63.0253 18.9118 62.9755 18.922 62.8953 18.922V19.922ZM64.1173 18.7V12.05H63.1173V18.7H64.1173ZM64.1173 12.05C64.1173 11.7323 64.0375 11.4021 63.7904 11.1549C63.5432 10.9078 63.2131 10.828 62.8953 10.828V11.828C62.9755 11.828 63.0253 11.8382 63.0531 11.8475C63.0665 11.8519 63.0742 11.856 63.078 11.8583C63.0817 11.8605 63.083 11.8618 63.0833 11.8621C63.0836 11.8623 63.0849 11.8636 63.087 11.8673C63.0893 11.8711 63.0934 11.8788 63.0978 11.8922C63.1071 11.9201 63.1173 11.9698 63.1173 12.05H64.1173ZM62.8953 10.828C62.5776 10.828 62.2474 10.9078 62.0003 11.1549C61.7531 11.4021 61.6733 11.7323 61.6733 12.05H62.6733C62.6733 11.9698 62.6835 11.9201 62.6928 11.8922C62.6973 11.8788 62.7013 11.8711 62.7036 11.8673C62.7058 11.8636 62.7071 11.8623 62.7074 11.8621C62.7077 11.8618 62.709 11.8605 62.7126 11.8583C62.7164 11.856 62.7241 11.8519 62.7376 11.8475C62.7654 11.8382 62.8152 11.828 62.8953 11.828V10.828ZM61.6733 12.05V18.7H62.6733V12.05H61.6733Z" fill="#003556"/>
<path d="M18.1173 4.4H30.6953V23.932L23.6273 31H11.1633L4.09531 23.932V4.4H16.6733V17.7C16.6733 18.1813 16.914 18.422 17.3953 18.422C17.8766 18.422 18.1173 18.1813 18.1173 17.7V4.4ZM34.4879 4.4H47.7879V31H34.4879V4.4ZM64.8953 23.628C64.414 23.628 64.1733 23.8687 64.1733 24.35V31H51.5953V4.4H75.8393L78.1953 6.756V21.272L75.8393 23.628H64.8953ZM64.1733 17.7C64.1733 18.1813 64.414 18.422 64.8953 18.422C65.3766 18.422 65.6173 18.1813 65.6173 17.7V11.05C65.6173 10.5687 65.3766 10.328 64.8953 10.328C64.414 10.328 64.1733 10.5687 64.1733 11.05V17.7Z" fill="white"/>
<path d="M18.1173 4.4V3.9H17.6173V4.4H18.1173ZM30.6953 4.4H31.1953V3.9H30.6953V4.4ZM30.6953 23.932L31.0489 24.2856L31.1953 24.1391V23.932H30.6953ZM23.6273 31V31.5H23.8344L23.9809 31.3536L23.6273 31ZM11.1633 31L10.8098 31.3536L10.9562 31.5H11.1633V31ZM4.09531 23.932H3.59531V24.1391L3.74176 24.2856L4.09531 23.932ZM4.09531 4.4V3.9H3.59531V4.4H4.09531ZM16.6733 4.4H17.1733V3.9H16.6733V4.4ZM18.1173 4.9H30.6953V3.9H18.1173V4.9ZM30.1953 4.4V23.932H31.1953V4.4H30.1953ZM30.3418 23.5784L23.2738 30.6464L23.9809 31.3536L31.0489 24.2856L30.3418 23.5784ZM23.6273 30.5H11.1633V31.5H23.6273V30.5ZM11.5169 30.6464L4.44887 23.5784L3.74176 24.2856L10.8098 31.3536L11.5169 30.6464ZM4.59531 23.932V4.4H3.59531V23.932H4.59531ZM4.09531 4.9H16.6733V3.9H4.09531V4.9ZM16.1733 4.4V17.7H17.1733V4.4H16.1733ZM16.1733 17.7C16.1733 18.0177 16.2531 18.3479 16.5003 18.5951C16.7474 18.8422 17.0776 18.922 17.3953 18.922V17.922C17.3152 17.922 17.2654 17.9118 17.2376 17.9025C17.2241 17.8981 17.2164 17.894 17.2126 17.8917C17.209 17.8895 17.2077 17.8882 17.2074 17.8879C17.2071 17.8876 17.2058 17.8864 17.2036 17.8827C17.2013 17.8789 17.1972 17.8712 17.1928 17.8578C17.1835 17.8299 17.1733 17.7802 17.1733 17.7H16.1733ZM17.3953 18.922C17.7131 18.922 18.0432 18.8422 18.2904 18.5951C18.5375 18.3479 18.6173 18.0177 18.6173 17.7H17.6173C17.6173 17.7802 17.6071 17.8299 17.5978 17.8578C17.5934 17.8712 17.5893 17.8789 17.587 17.8827C17.5849 17.8864 17.5836 17.8876 17.5833 17.8879C17.583 17.8882 17.5817 17.8895 17.578 17.8917C17.5742 17.894 17.5665 17.8981 17.5531 17.9025C17.5253 17.9118 17.4755 17.922 17.3953 17.922V18.922ZM18.6173 17.7V4.4H17.6173V17.7H18.6173ZM34.4879 4.4V3.9H33.9879V4.4H34.4879ZM47.7879 4.4H48.2879V3.9H47.7879V4.4ZM47.7879 31V31.5H48.2879V31H47.7879ZM34.4879 31H33.9879V31.5H34.4879V31ZM34.4879 4.9H47.7879V3.9H34.4879V4.9ZM47.2879 4.4V31H48.2879V4.4H47.2879ZM47.7879 30.5H34.4879V31.5H47.7879V30.5ZM34.9879 31V4.4H33.9879V31H34.9879ZM64.1733 31V31.5H64.6733V31H64.1733ZM51.5953 31H51.0953V31.5H51.5953V31ZM51.5953 4.4V3.9H51.0953V4.4H51.5953ZM75.8393 4.4L76.1929 4.04644L76.0464 3.9H75.8393V4.4ZM78.1953 6.756H78.6953V6.54889L78.5489 6.40245L78.1953 6.756ZM78.1953 21.272L78.5489 21.6256L78.6953 21.4791V21.272H78.1953ZM75.8393 23.628V24.128H76.0464L76.1929 23.9816L75.8393 23.628ZM64.8953 23.128C64.5776 23.128 64.2474 23.2078 64.0003 23.4549C63.7531 23.7021 63.6733 24.0323 63.6733 24.35H64.6733C64.6733 24.2698 64.6835 24.2201 64.6928 24.1922C64.6973 24.1788 64.7013 24.1711 64.7036 24.1673C64.7058 24.1636 64.7071 24.1623 64.7074 24.1621C64.7077 24.1618 64.709 24.1605 64.7126 24.1583C64.7164 24.156 64.7241 24.1519 64.7376 24.1475C64.7654 24.1382 64.8152 24.128 64.8953 24.128V23.128ZM63.6733 24.35V31H64.6733V24.35H63.6733ZM64.1733 30.5H51.5953V31.5H64.1733V30.5ZM52.0953 31V4.4H51.0953V31H52.0953ZM51.5953 4.9H75.8393V3.9H51.5953V4.9ZM75.4858 4.75355L77.8418 7.10955L78.5489 6.40245L76.1929 4.04644L75.4858 4.75355ZM77.6953 6.756V21.272H78.6953V6.756H77.6953ZM77.8418 20.9184L75.4858 23.2744L76.1929 23.9816L78.5489 21.6256L77.8418 20.9184ZM75.8393 23.128H64.8953V24.128H75.8393V23.128ZM63.6733 17.7C63.6733 18.0177 63.7531 18.3479 64.0003 18.5951C64.2474 18.8422 64.5776 18.922 64.8953 18.922V17.922C64.8152 17.922 64.7654 17.9118 64.7376 17.9025C64.7241 17.8981 64.7164 17.894 64.7126 17.8917C64.709 17.8895 64.7077 17.8882 64.7074 17.8879C64.7071 17.8876 64.7058 17.8864 64.7036 17.8827C64.7013 17.8789 64.6973 17.8712 64.6928 17.8578C64.6835 17.8299 64.6733 17.7802 64.6733 17.7H63.6733ZM64.8953 18.922C65.2131 18.922 65.5432 18.8422 65.7904 18.5951C66.0375 18.3479 66.1173 18.0177 66.1173 17.7H65.1173C65.1173 17.7802 65.1071 17.8299 65.0978 17.8578C65.0934 17.8712 65.0893 17.8789 65.087 17.8827C65.0849 17.8864 65.0836 17.8876 65.0833 17.8879C65.083 17.8882 65.0817 17.8895 65.078 17.8917C65.0742 17.894 65.0665 17.8981 65.0531 17.9025C65.0253 17.9118 64.9755 17.922 64.8953 17.922V18.922ZM66.1173 17.7V11.05H65.1173V17.7H66.1173ZM66.1173 11.05C66.1173 10.7323 66.0375 10.4021 65.7904 10.1549C65.5432 9.90777 65.2131 9.828 64.8953 9.828V10.828C64.9755 10.828 65.0253 10.8382 65.0531 10.8475C65.0665 10.8519 65.0742 10.856 65.078 10.8583C65.0817 10.8605 65.083 10.8618 65.0833 10.8621C65.0836 10.8623 65.0849 10.8636 65.087 10.8673C65.0893 10.8711 65.0934 10.8788 65.0978 10.8922C65.1071 10.9201 65.1173 10.9698 65.1173 11.05H66.1173ZM64.8953 9.828C64.5776 9.828 64.2474 9.90777 64.0003 10.1549C63.7531 10.4021 63.6733 10.7323 63.6733 11.05H64.6733C64.6733 10.9698 64.6835 10.9201 64.6928 10.8922C64.6973 10.8788 64.7013 10.8711 64.7036 10.8673C64.7058 10.8636 64.7071 10.8623 64.7074 10.8621C64.7077 10.8618 64.709 10.8605 64.7126 10.8583C64.7164 10.856 64.7241 10.8519 64.7376 10.8475C64.7654 10.8382 64.8152 10.828 64.8953 10.828V9.828ZM63.6733 11.05V17.7H64.6733V11.05H63.6733Z" fill="#003556"/>
</svg>
