<svg width="435" height="101" viewBox="0 0 435 101" fill="none" xmlns="http://www.w3.org/2000/svg">
<path d="M94.4999 28.7972L101.06 37.3631L92.0375 90.1241L82.5497 98.69H0L3.68494 77.1423H48.9719C49.6607 77.1423 50.2805 76.9117 50.8402 76.4506C51.3912 75.9895 51.727 75.4397 51.8389 74.7924C51.8561 74.7037 51.8734 74.6062 51.882 74.5175C52.0111 73.7815 51.8561 73.1608 51.4257 72.6553C50.9952 72.1499 50.4355 71.8928 49.7468 71.8928H12.6132L6.05261 63.3269L15.0756 10.5659L24.5634 2H107.113L103.428 23.5478H58.2703C57.5816 23.5478 56.9358 23.8049 56.3332 24.3103C55.7305 24.8158 55.3603 25.4365 55.2397 26.1725C55.2225 26.2612 55.2053 26.3587 55.1967 26.4474C55.0848 27.0947 55.2311 27.6445 55.6272 28.1056C56.0232 28.5667 56.5656 28.7972 57.2544 28.7972H94.5171H94.4999Z" fill="#52BDFF"/>
<path d="M167.783 2H210.608L194.077 98.6811H151.252L155.385 74.5086C155.686 72.7617 155.015 71.8839 153.379 71.8839C151.743 71.8839 150.77 72.7617 150.469 74.5086L146.336 98.6811H103.512L120.042 2H162.867L158.734 26.1725C158.433 27.9194 159.104 28.7972 160.74 28.7972C162.376 28.7972 163.349 27.9194 163.65 26.1725L167.783 2Z" fill="#52BDFF"/>
<path d="M215.162 98.6811L208.602 90.1152L222.205 10.5659L231.693 2H306.218L312.779 10.5659L299.175 90.1152L289.688 98.6811H215.162ZM254.104 74.5086C253.975 75.2446 254.087 75.8653 254.431 76.3708C254.775 76.8762 255.249 77.1334 255.852 77.1334H256.11C256.799 77.1334 257.427 76.8585 257.995 76.3087C258.564 75.7589 258.908 75.1116 259.037 74.3756L267.259 26.3144C267.388 25.5784 267.259 24.9311 266.881 24.3813C266.502 23.8315 265.968 23.5566 265.279 23.5566H265.021C264.418 23.5566 263.859 23.8138 263.342 24.3192C262.825 24.8247 262.498 25.4454 262.378 26.1814L254.112 74.5175L254.104 74.5086Z" fill="#52BDFF"/>
<path d="M360.512 71.8839C358.876 71.8839 357.903 72.7617 357.602 74.5086L353.469 98.6811H310.645L327.175 2H409.725L416.285 10.5659L407.262 63.3269L397.774 71.8928H360.512V71.8839ZM361.743 50.3361C361.442 52.083 362.113 52.9609 363.749 52.9609C365.385 52.9609 366.358 52.083 366.659 50.3361L370.792 26.1636C371.093 24.4168 370.422 23.5389 368.786 23.5389C367.15 23.5389 366.177 24.4168 365.876 26.1636L361.743 50.3361Z" fill="#52BDFF"/>
<path d="M98.8046 28.7972L105.365 37.3631L96.3422 90.1241L86.8543 98.69H4.30469L7.98963 77.1423H53.2766C53.9654 77.1423 54.5852 76.9117 55.1449 76.4506C55.6959 75.9895 56.0317 75.4397 56.1436 74.7924C56.1608 74.7037 56.178 74.6062 56.1867 74.5175C56.3158 73.7815 56.1608 73.1608 55.7303 72.6553C55.2999 72.1499 54.7402 71.8928 54.0514 71.8928H16.9179L10.3573 63.3269L19.3802 10.5659L28.8681 2H111.418L107.733 23.5478H62.575C61.8863 23.5478 61.2405 23.8049 60.6378 24.3103C60.0352 24.8158 59.665 25.4365 59.5444 26.1725C59.5272 26.2612 59.51 26.3587 59.5014 26.4474C59.3895 27.0947 59.5358 27.6445 59.9319 28.1056C60.3279 28.5667 60.8703 28.7972 61.5591 28.7972H98.8218H98.8046Z" fill="#F83A31"/>
<path d="M172.088 2H214.912L198.382 98.6811H155.557L159.69 74.5086C159.991 72.7617 159.32 71.8839 157.684 71.8839C156.048 71.8839 155.075 72.7617 154.774 74.5086L150.641 98.6811H107.816L124.347 2H167.172L163.039 26.1725C162.738 27.9194 163.409 28.7972 165.045 28.7972C166.681 28.7972 167.654 27.9194 167.955 26.1725L172.088 2Z" fill="#F83A31"/>
<path d="M219.467 98.6811L212.906 90.1152L226.51 10.5659L235.997 2H310.523L317.083 10.5659L303.48 90.1152L293.992 98.6811H219.467ZM258.408 74.5086C258.279 75.2446 258.391 75.8653 258.736 76.3708C259.08 76.8762 259.554 77.1334 260.156 77.1334H260.414C261.103 77.1334 261.732 76.8585 262.3 76.3087C262.868 75.7589 263.213 75.1116 263.342 74.3756L271.564 26.3144C271.693 25.5784 271.564 24.9311 271.185 24.3813C270.806 23.8315 270.273 23.5566 269.584 23.5566H269.325C268.723 23.5566 268.163 23.8138 267.647 24.3192C267.13 24.8247 266.803 25.4454 266.682 26.1814L258.417 74.5175L258.408 74.5086Z" fill="#F83A31"/>
<path d="M364.816 71.8839C363.181 71.8839 362.208 72.7617 361.906 74.5086L357.774 98.6811H314.949L331.48 2H414.029L420.59 10.5659L411.567 63.3269L402.079 71.8928H364.816V71.8839ZM366.048 50.3361C365.746 52.083 366.418 52.9609 368.054 52.9609C369.69 52.9609 370.662 52.083 370.964 50.3361L375.096 26.1636C375.398 24.4168 374.726 23.5389 373.09 23.5389C371.455 23.5389 370.482 24.4168 370.18 26.1636L366.048 50.3361Z" fill="#F83A31"/>
<path d="M103.109 28.7972L109.67 37.3631L100.647 90.1241L91.159 98.69H8.60938L12.2943 77.1423H57.5813C58.27 77.1423 58.8899 76.9117 59.4496 76.4506C60.0006 75.9895 60.3364 75.4397 60.4483 74.7924C60.4655 74.7037 60.4827 74.6062 60.4913 74.5175C60.6205 73.7815 60.4655 73.1608 60.035 72.6553C59.6045 72.1499 59.0449 71.8928 58.3561 71.8928H21.2226L14.662 63.3269L23.6849 10.5659L33.1728 2H115.722L112.038 23.5478H66.8797C66.1909 23.5478 65.5452 23.8049 64.9425 24.3103C64.3399 24.8158 63.9697 25.4365 63.8491 26.1725C63.8319 26.2612 63.8147 26.3587 63.8061 26.4474C63.6942 27.0947 63.8405 27.6445 64.2366 28.1056C64.6326 28.5667 65.175 28.7972 65.8638 28.7972H103.126H103.109Z" fill="#EBC613"/>
<path d="M176.392 2H219.217L202.686 98.6811H159.862L163.994 74.5086C164.296 72.7617 163.624 71.8839 161.988 71.8839C160.353 71.8839 159.38 72.7617 159.078 74.5086L154.946 98.6811H112.121L128.652 2H171.476L167.344 26.1725C167.042 27.9194 167.714 28.7972 169.35 28.7972C170.986 28.7972 171.958 27.9194 172.26 26.1725L176.392 2Z" fill="#EBC613"/>
<path d="M223.772 98.6811L217.211 90.1152L230.814 10.5659L240.302 2H314.828L321.388 10.5659L307.785 90.1152L298.297 98.6811H223.772ZM262.713 74.5086C262.584 75.2446 262.696 75.8653 263.04 76.3708C263.385 76.8762 263.858 77.1334 264.461 77.1334H264.719C265.408 77.1334 266.036 76.8585 266.605 76.3087C267.173 75.7589 267.517 75.1116 267.646 74.3756L275.869 26.3144C275.998 25.5784 275.869 24.9311 275.49 24.3813C275.111 23.8315 274.577 23.5566 273.889 23.5566H273.63C273.027 23.5566 272.468 23.8138 271.951 24.3192C271.435 24.8247 271.108 25.4454 270.987 26.1814L262.722 74.5175L262.713 74.5086Z" fill="#EBC613"/>
<path d="M369.121 71.8839C367.485 71.8839 366.512 72.7617 366.211 74.5086L362.078 98.6811H319.254L335.784 2H418.334L424.895 10.5659L415.872 63.3269L406.384 71.8928H369.121V71.8839ZM370.352 50.3361C370.051 52.083 370.723 52.9609 372.358 52.9609C373.994 52.9609 374.967 52.083 375.269 50.3361L379.401 26.1636C379.702 24.4168 379.031 23.5389 377.395 23.5389C375.759 23.5389 374.786 24.4168 374.485 26.1636L370.352 50.3361Z" fill="#EBC613"/>
<path d="M106.984 28.7972L113.545 37.3631L104.522 90.1241L95.034 98.69H12.4844L16.1693 77.1423H61.4563C62.145 77.1423 62.7649 76.9117 63.3246 76.4506C63.8756 75.9895 64.2114 75.4397 64.3233 74.7924C64.3405 74.7037 64.3577 74.6062 64.3663 74.5175C64.4955 73.7815 64.3405 73.1608 63.91 72.6553C63.4795 72.1499 62.9199 71.8928 62.2311 71.8928H25.0976L18.537 63.3269L27.5599 10.5659L37.0478 2H119.597L115.913 23.5478H70.7547C70.0659 23.5478 69.4202 23.8049 68.8175 24.3103C68.2149 24.8158 67.8447 25.4365 67.7241 26.1725C67.7069 26.2612 67.6897 26.3587 67.6811 26.4474C67.5692 27.0947 67.7155 27.6445 68.1116 28.1056C68.5076 28.5667 69.05 28.7972 69.7388 28.7972H107.001H106.984Z" fill="#F83A31"/>
<path d="M180.267 2H223.092L206.561 98.6811H163.737L167.869 74.5086C168.171 72.7617 167.499 71.8839 165.863 71.8839C164.228 71.8839 163.255 72.7617 162.953 74.5086L158.821 98.6811H115.996L132.527 2H175.351L171.219 26.1725C170.917 27.9194 171.589 28.7972 173.225 28.7972C174.861 28.7972 175.833 27.9194 176.135 26.1725L180.267 2Z" fill="#F83A31"/>
<path d="M227.647 98.6811L221.086 90.1152L234.689 10.5659L244.177 2H318.703L325.263 10.5659L311.66 90.1152L302.172 98.6811H227.647ZM266.588 74.5086C266.459 75.2446 266.571 75.8653 266.915 76.3708C267.26 76.8762 267.733 77.1334 268.336 77.1334H268.594C269.283 77.1334 269.911 76.8585 270.48 76.3087C271.048 75.7589 271.392 75.1116 271.521 74.3756L279.744 26.3144C279.873 25.5784 279.744 24.9311 279.365 24.3813C278.986 23.8315 278.452 23.5566 277.764 23.5566H277.505C276.902 23.5566 276.343 23.8138 275.826 24.3192C275.31 24.8247 274.983 25.4454 274.862 26.1814L266.597 74.5175L266.588 74.5086Z" fill="#F83A31"/>
<path d="M372.996 71.8839C371.36 71.8839 370.387 72.7617 370.086 74.5086L365.953 98.6811H323.129L339.659 2H422.209L428.77 10.5659L419.747 63.3269L410.259 71.8928H372.996V71.8839ZM374.227 50.3361C373.926 52.083 374.598 52.9609 376.233 52.9609C377.869 52.9609 378.842 52.083 379.144 50.3361L383.276 26.1636C383.577 24.4168 382.906 23.5389 381.27 23.5389C379.634 23.5389 378.661 24.4168 378.36 26.1636L374.227 50.3361Z" fill="#F83A31"/>
<path d="M111.289 28.7972L117.85 37.3631L108.827 90.1241L99.3387 98.69H16.7891L20.474 77.1423H65.761C66.4497 77.1423 67.0696 76.9117 67.6292 76.4506C68.1803 75.9895 68.516 75.4397 68.628 74.7924C68.6452 74.7037 68.6624 74.6062 68.671 74.5175C68.8002 73.7815 68.6452 73.1608 68.2147 72.6553C67.7842 72.1499 67.2246 71.8928 66.5358 71.8928H29.4022L22.8417 63.3269L31.8646 10.5659L41.3525 2H123.902L120.217 23.5478H75.0594C74.3706 23.5478 73.7249 23.8049 73.1222 24.3103C72.5195 24.8158 72.1493 25.4365 72.0288 26.1725C72.0116 26.2612 71.9944 26.3587 71.9858 26.4474C71.8738 27.0947 72.0202 27.6445 72.4162 28.1056C72.8123 28.5667 73.3547 28.7972 74.0435 28.7972H111.306H111.289Z" fill="white" stroke="#00518C" stroke-width="3.52" stroke-miterlimit="10"/>
<path d="M184.572 2H227.397L210.866 98.6811H168.041L172.174 74.5086C172.475 72.7617 171.804 71.8839 170.168 71.8839C168.532 71.8839 167.559 72.7617 167.258 74.5086L163.125 98.6811H120.301L136.831 2H179.656L175.523 26.1725C175.222 27.9194 175.894 28.7972 177.529 28.7972C179.165 28.7972 180.138 27.9194 180.439 26.1725L184.572 2Z" fill="white" stroke="#00518C" stroke-width="3.52" stroke-miterlimit="10"/>
<path d="M231.951 98.6811L225.391 90.1152L238.994 10.5659L248.482 2H323.007L329.568 10.5659L315.965 90.1152L306.477 98.6811H231.951ZM270.893 74.5086C270.764 75.2446 270.876 75.8653 271.22 76.3708C271.564 76.8762 272.038 77.1334 272.641 77.1334H272.899C273.588 77.1334 274.216 76.8585 274.784 76.3087C275.353 75.7589 275.697 75.1116 275.826 74.3756L284.048 26.3144C284.178 25.5784 284.048 24.9311 283.67 24.3813C283.291 23.8315 282.757 23.5566 282.068 23.5566H281.81C281.207 23.5566 280.648 23.8138 280.131 24.3192C279.614 24.8247 279.287 25.4454 279.167 26.1814L270.901 74.5175L270.893 74.5086Z" fill="white" stroke="#00518C" stroke-width="3.52" stroke-miterlimit="10"/>
<path d="M377.301 71.8839C375.665 71.8839 374.692 72.7617 374.391 74.5086L370.258 98.6811H327.434L343.964 2H426.514L433.074 10.5659L424.051 63.3269L414.564 71.8928H377.301V71.8839ZM378.532 50.3361C378.231 52.083 378.902 52.9609 380.538 52.9609C382.174 52.9609 383.147 52.083 383.448 50.3361L387.581 26.1636C387.882 24.4168 387.211 23.5389 385.575 23.5389C383.939 23.5389 382.966 24.4168 382.665 26.1636L378.532 50.3361Z" fill="white" stroke="#00518C" stroke-width="3.52" stroke-miterlimit="10"/>
</svg>
