<svg width="684" height="105" viewBox="0 0 684 105" fill="none" xmlns="http://www.w3.org/2000/svg">
<path d="M60.9623 55.2963L55.3884 77.6028C55.1783 78.4623 54.828 79.1178 54.3377 79.5476C53.7873 80.0741 53.0768 80.3212 52.1862 80.3212C50.495 80.3212 49.8746 79.4187 50.3349 77.6028L68.5976 4.41894L69.0679 2.52783L24.9873 2.52783L-9.02532e-08 102.628L93.2347 102.628L93.705 100.737L104.573 57.1874L105.043 55.2963L60.9623 55.2963Z" fill="#52BDFF"/>
<path d="M131.53 2.52783L118.831 53.4051L118.361 55.2963L117.891 57.1874L107.013 100.737L106.543 102.628L153.155 102.628L153.626 100.737L177.672 4.41894L178.143 2.52783L131.53 2.52783Z" fill="#52BDFF"/>
<path d="M264.043 2.52783L263.573 4.41894L251.554 52.5778C251.334 53.4374 250.984 54.0928 250.494 54.5226C249.943 55.0491 249.233 55.2963 248.342 55.2963C246.651 55.2963 246.041 54.3937 246.491 52.5778L258.509 4.41894L258.98 2.52783L191.593 2.52783L191.122 4.41894L167.076 100.737L166.605 102.628L187.39 102.628L199.879 52.5778C200.079 51.7504 200.419 51.1165 200.879 50.6867C201.43 50.1279 202.17 49.8593 203.081 49.8593C203.991 49.8593 204.572 50.1172 204.862 50.633C205.132 51.0842 205.152 51.7289 204.942 52.5778L192.914 100.737L192.443 102.628L259.84 102.628L260.311 100.737L271.608 55.4467L284.818 2.52783L264.043 2.52783Z" fill="#52BDFF"/>
<path d="M298.14 2.52783L297.669 4.41894L273.623 100.737L273.152 102.628L366.377 102.628L366.847 100.737L377.725 57.1874L378.195 55.2963L331.583 55.2963C329.892 55.2963 329.271 54.3937 329.732 52.5778C330.182 50.7726 331.253 49.8593 332.934 49.8593L379.546 49.8593L380.016 47.9682L383.969 32.1624L384.44 30.2713L337.827 30.2713C336.136 30.2713 335.516 29.3687 335.976 27.5528C336.426 25.7369 337.497 24.8343 339.178 24.8343L385.791 24.8343L386.261 22.9432L390.894 4.41894L391.364 2.52783L298.14 2.52783Z" fill="#52BDFF"/>
<path d="M395.103 41.4248L441.715 41.4248L436.151 63.7313L389.539 63.7313L395.103 41.4248Z" fill="#52BDFF"/>
<path d="M514.019 2.52783L513.549 4.41894L501.561 52.4381C501.371 53.201 501.03 53.8457 500.55 54.3615C500.54 54.3615 500.53 54.3829 500.52 54.3829C500.04 54.8987 499.439 55.1996 498.719 55.2963C497.868 55.4897 497.228 55.2963 496.797 54.7268C496.357 54.1465 496.257 53.4374 496.467 52.5778L508.485 4.41894L508.956 2.52783L464.875 2.52783L442.109 93.7632L448.154 102.628L524.867 102.628L527.098 100.737L535.334 93.7632L557.63 4.41894L558.1 2.52783L514.019 2.52783Z" fill="#52BDFF"/>
<path d="M603.009 52.5778C602.559 54.3937 603.179 55.2963 604.86 55.2963C606.541 55.2963 607.612 54.3937 608.072 52.5778L614.317 27.5528C614.767 25.7477 614.147 24.8343 612.465 24.8343C610.784 24.8343 609.704 25.7369 609.253 27.5528L603.009 52.5778ZM657.677 4.41894L656.386 2.52783L571.417 2.52783L570.947 4.41894L548.551 94.1392L547.751 97.3305L546.99 100.393L546.43 102.628L590.52 102.628L590.991 100.737L596.765 77.6028C597.215 75.7976 598.286 74.8843 599.967 74.8843L638.323 74.8843L640.555 72.9932L648.801 66.0197L662.43 11.3924L657.677 4.41894Z" fill="#52BDFF"/>
<path d="M64.8959 55.2963L59.322 77.6028C59.252 77.8821 59.1619 78.1507 59.0519 78.3871C58.5215 79.6765 57.5408 80.3212 56.1198 80.3212C55.2192 80.3212 54.6288 80.0633 54.3386 79.5476C54.0684 79.0963 54.0484 78.4516 54.2585 77.6028L72.5312 4.41894L73.0015 2.52783L28.911 2.52783L3.93359 102.628L97.1583 102.628L97.6286 100.737L108.506 57.1874L108.977 55.2963L64.8959 55.2963Z" fill="#F83A31"/>
<path d="M135.454 2.52783L122.755 53.4051L122.285 55.2963L121.814 57.1874L110.947 100.737L110.477 102.628L157.089 102.628L157.559 100.737L181.606 4.41894L182.076 2.52783L135.454 2.52783Z" fill="#F83A31"/>
<path d="M267.977 2.52783L267.506 4.41894L255.478 52.5778C255.408 52.8572 255.318 53.1258 255.208 53.3622C254.677 54.6623 253.687 55.2963 252.276 55.2963C251.375 55.2963 250.785 55.0384 250.495 54.5226C250.234 54.0713 250.214 53.4266 250.425 52.5778L262.443 4.41894L262.913 2.52783L195.516 2.52783L195.046 4.41894L171.009 100.737L170.539 102.628L191.313 102.628L191.784 100.737L203.812 52.5778C204.022 51.7182 204.373 51.0628 204.863 50.633C205.403 50.1065 206.124 49.8593 207.014 49.8593C208.445 49.8593 209.106 50.504 208.996 51.7934C208.986 52.0298 208.936 52.2984 208.866 52.5778L196.847 100.737L196.377 102.628L263.764 102.628L264.234 100.737L288.281 4.41894L288.751 2.52783L267.977 2.52783Z" fill="#F83A31"/>
<path d="M302.063 2.52783L301.593 4.41894L277.556 100.737L277.086 102.628L370.311 102.628L370.781 100.737L381.659 57.1874L382.129 55.2963L335.516 55.2963C333.825 55.2963 333.205 54.3937 333.655 52.5778C334.115 50.7619 335.176 49.8593 336.867 49.8593L383.48 49.8593L383.95 47.9682L387.903 32.1624L388.373 30.2713L341.761 30.2713C340.07 30.2713 339.449 29.358 339.899 27.5528C340.36 25.7369 341.421 24.8343 343.112 24.8343L389.724 24.8343L390.194 22.9432L394.818 4.41894L395.288 2.52783L302.063 2.52783Z" fill="#F83A31"/>
<path d="M399.037 41.4248L445.649 41.4248L440.085 63.7313L393.473 63.7313L399.037 41.4248Z" fill="#F83A31"/>
<path d="M517.953 2.52783L517.483 4.41894L505.494 52.4381C505.424 52.7175 505.334 52.9753 505.214 53.2225C505.034 53.6523 504.794 54.0284 504.484 54.3615C503.993 54.888 503.383 55.1996 502.652 55.2963C501.802 55.4897 501.161 55.2963 500.731 54.7268C500.651 54.6193 500.581 54.5011 500.521 54.3829C500.261 53.8779 500.221 53.2762 500.401 52.5778L512.419 4.41894L512.889 2.52783L468.809 2.52783L446.043 93.7632L452.087 102.628L528.8 102.628L531.032 100.737L539.268 93.7632L561.563 4.41894L562.033 2.52783L517.953 2.52783Z" fill="#F83A31"/>
<path d="M606.943 52.5778C606.492 54.3937 607.113 55.2963 608.794 55.2963C610.475 55.2963 611.546 54.3937 612.006 52.5778L618.25 27.5528C618.701 25.7477 618.08 24.8343 616.399 24.8343C614.718 24.8343 613.637 25.7369 613.187 27.5528L606.943 52.5778ZM661.61 4.41894L660.32 2.52783L575.351 2.52783L574.88 4.41894L552.735 93.1077L551.974 96.17L551.214 99.2216L550.363 102.628L594.454 102.628L594.924 100.737L600.698 77.6028C601.149 75.7976 602.219 74.8843 603.9 74.8843L642.257 74.8843L644.489 72.9932L652.724 66.0197L666.364 11.3924L661.61 4.41894Z" fill="#F83A31"/>
<path d="M69.81 55.2963L64.2361 77.6028C64.146 77.9788 64.0159 78.3227 63.8558 78.6235C63.3055 79.7625 62.3548 80.3212 61.0339 80.3212C59.6029 80.3212 58.9424 79.6765 59.0525 78.3871C59.0625 78.1507 59.1126 77.8821 59.1826 77.6028L64.7465 55.2963L77.4453 4.41894L77.9156 2.52783L33.835 2.52783L8.84766 102.628L102.082 102.628L102.553 100.737L113.42 57.1874L113.891 55.2963L69.81 55.2963Z" fill="#EBC613"/>
<path d="M140.378 2.52783L115.391 102.628L162.003 102.628L162.473 100.737L186.52 4.41894L186.99 2.52783L140.378 2.52783Z" fill="#EBC613"/>
<path d="M272.891 2.52783L272.42 4.41894L260.402 52.5778C260.302 52.9646 260.172 53.3192 260.012 53.62C259.451 54.7375 258.511 55.2963 257.19 55.2963C255.769 55.2963 255.108 54.6623 255.208 53.3729C255.218 53.1258 255.268 52.8679 255.339 52.5778L267.357 4.41894L267.827 2.52783L200.44 2.52783L175.453 102.628L196.238 102.628L196.708 100.737L208.726 52.5778C208.796 52.2984 208.886 52.0298 208.996 51.7934C209.527 50.504 210.507 49.8593 211.928 49.8593C213.249 49.8593 213.92 50.418 213.93 51.5248C213.93 51.8364 213.88 52.1802 213.78 52.5778L201.761 100.737L201.291 102.628L268.688 102.628L269.158 100.737L293.195 4.41894L293.665 2.52783L272.891 2.52783Z" fill="#EBC613"/>
<path d="M306.977 2.52783L282 102.628L375.225 102.628L375.695 100.737L386.573 57.1874L387.043 55.2963L340.431 55.2963C338.739 55.2963 338.119 54.3937 338.579 52.5778C339.03 50.7726 340.1 49.8593 341.781 49.8593L388.394 49.8593L388.864 47.9682L392.817 32.1624L393.287 30.2713L346.675 30.2713C344.984 30.2713 344.363 29.3687 344.824 27.5528C345.274 25.7369 346.345 24.8343 348.026 24.8343L394.638 24.8343L395.109 22.9432L399.742 4.41894L400.212 2.52783L306.977 2.52783Z" fill="#EBC613"/>
<path d="M403.951 41.4248L450.563 41.4248L444.999 63.7313L398.387 63.7313L403.951 41.4248Z" fill="#EBC613"/>
<path d="M522.867 2.52783L522.397 4.41894L510.408 52.4381C510.318 52.8034 510.198 53.1365 510.038 53.4374C509.868 53.7812 509.648 54.0928 509.398 54.3615C508.907 54.888 508.297 55.1996 507.566 55.2963C506.716 55.4897 506.075 55.2963 505.645 54.7268C505.325 54.297 505.185 53.8027 505.215 53.2225C505.225 53.0183 505.255 52.8034 505.315 52.5778L517.333 4.41894L517.803 2.52783L473.723 2.52783L450.957 93.7632L457.001 102.628L533.714 102.628L535.946 100.737L544.182 93.7632L566.477 4.41894L566.947 2.52783L522.867 2.52783Z" fill="#EBC613"/>
<path d="M611.857 52.5778C611.406 54.3937 612.027 55.2963 613.708 55.2963C615.389 55.2963 616.46 54.3937 616.92 52.5778L623.164 27.5528C623.615 25.7477 622.994 24.8343 621.313 24.8343C619.632 24.8343 618.551 25.7369 618.101 27.5528L611.857 52.5778ZM666.525 4.41894L665.234 2.52783L580.265 2.52783L555.277 102.628L599.368 102.628L599.838 100.737L605.612 77.6028C606.063 75.7976 607.133 74.8843 608.814 74.8843L647.171 74.8843L649.403 72.9932L657.648 66.0197L671.278 11.3924L666.525 4.41894Z" fill="#EBC613"/>
<path d="M74.6242 55.2963L69.0603 77.6028C68.8502 78.4623 68.4899 79.1178 67.9996 79.5583C67.4492 80.0741 66.7387 80.3212 65.8481 80.3212C64.5171 80.3212 63.8567 79.7625 63.8567 78.6343C63.8567 78.3227 63.9067 77.9896 63.9968 77.6028L69.5607 55.2963L82.2595 4.41894L82.7298 2.52783L38.6492 2.52783L13.6719 102.628L106.897 102.628L107.367 100.737L118.234 57.1874L118.705 55.2963L74.6242 55.2963Z" fill="#F83A31"/>
<path d="M145.192 2.52783L120.215 102.628L166.827 102.628L167.298 100.737L191.334 4.41894L191.805 2.52783L145.192 2.52783Z" fill="#F83A31"/>
<path d="M277.705 2.52783L265.216 52.5778C265.006 53.4374 264.656 54.0821 264.166 54.5226C263.615 55.0491 262.895 55.2963 262.004 55.2963C260.683 55.2963 260.023 54.7483 260.013 53.62C260.013 53.3192 260.053 52.9646 260.153 52.5778L272.181 4.41894L272.651 2.52783L205.255 2.52783L180.277 102.628L201.052 102.628L201.522 100.737L213.54 52.5778C213.64 52.1802 213.761 51.8364 213.931 51.5248C214.481 50.418 215.432 49.8593 216.753 49.8593C217.483 49.8593 218.003 50.0205 218.334 50.3751C218.774 50.8049 218.864 51.5463 218.604 52.5778L206.115 102.628L273.502 102.628L273.972 100.737L298.009 4.41894L298.479 2.52783L277.705 2.52783Z" fill="#F83A31"/>
<path d="M311.802 2.52783L286.824 102.628L380.049 102.628L380.519 100.737L391.387 57.1874L391.857 55.2963L345.245 55.2963C343.564 55.2963 342.943 54.3937 343.394 52.5778C343.844 50.7619 344.915 49.8593 346.606 49.8593L393.218 49.8593L393.688 47.9682L397.631 32.1624L398.101 30.2713L351.489 30.2713C349.808 30.2713 349.188 29.358 349.638 27.5528C350.088 25.7369 351.159 24.8343 352.85 24.8343L399.462 24.8343L399.933 22.9432L404.556 4.41894L405.026 2.52783L311.802 2.52783Z" fill="#F83A31"/>
<path d="M408.775 41.4248L455.387 41.4248L449.823 63.7313L403.211 63.7313L408.775 41.4248Z" fill="#F83A31"/>
<path d="M527.679 2.52783L515.231 52.4381C515.041 53.201 514.7 53.8457 514.21 54.3615C514.21 54.3615 514.203 54.3686 514.19 54.3829C513.71 54.8987 513.109 55.1996 512.389 55.2963C511.538 55.4897 510.898 55.2963 510.457 54.7268C510.177 54.3614 510.037 53.9317 510.037 53.4374C510.017 53.1688 510.057 52.8894 510.127 52.5778L522.156 4.41894L522.626 2.52783L478.535 2.52783L455.77 93.7632L461.814 102.628L538.527 102.628L540.758 100.737L548.554 94.1392L548.994 93.7632L571.3 4.41894L571.77 2.52783L527.679 2.52783Z" fill="#F83A31"/>
<path d="M616.671 52.5778C616.22 54.3937 616.841 55.2963 618.522 55.2963C620.203 55.2963 621.274 54.3937 621.734 52.5778L627.979 27.5528C628.429 25.7477 627.809 24.8343 626.127 24.8343C624.446 24.8343 623.365 25.7369 622.915 27.5528L616.671 52.5778ZM671.339 4.41894L670.048 2.52783L585.079 2.52783L560.102 102.628L604.182 102.628L604.652 100.737L610.426 77.6028C610.877 75.7976 611.948 74.8843 613.639 74.8843L651.995 74.8843L654.227 72.9932L662.463 66.0197L676.092 11.3924L671.339 4.41894Z" fill="#F83A31"/>
<path d="M80.4428 55.2958L74.8689 77.6023C74.4186 79.4182 73.3478 80.3207 71.6667 80.3207C69.9855 80.3207 69.3551 79.4182 69.8154 77.6023L75.3793 55.2958L88.5484 2.52734L44.4678 2.52734L19.4805 102.627L112.705 102.627L124.523 55.2958L80.4428 55.2958Z" fill="white"/>
<path d="M79.0944 53.4046L78.6241 55.2958L73.1703 77.1187C72.9001 78.2147 72.4297 78.4296 71.6692 78.4296C71.5791 78.4296 71.5091 78.4296 71.4491 78.4296C71.4691 78.3437 71.4891 78.2362 71.5191 78.1073L77.203 55.3065L90.8425 0.646973L43.1194 0.646973L42.6491 2.53808L17.6617 102.638L17.1914 104.529L114.069 104.529L114.539 102.638L126.817 53.4154L79.0944 53.4154L79.0944 53.4046ZM21.7846 100.736L45.8213 4.41844L86.2493 4.41844L73.5505 55.2958L68.1067 77.1187C67.8866 78.0321 67.8466 78.8487 67.9967 79.5578C68.1068 80.0306 68.2969 80.4497 68.5571 80.815C69.2175 81.7391 70.2682 82.2118 71.6692 82.2118C74.1709 82.2118 75.9122 80.7505 76.5826 78.0965L81.7962 57.1869L122.224 57.1869L111.357 100.736L21.7846 100.736Z" fill="#00518C"/>
<path d="M151.011 2.52783L126.023 102.628L172.636 102.628L197.623 2.52783L151.011 2.52783Z" fill="white"/>
<path d="M149.652 0.636719L149.182 2.52782L124.205 102.628L123.734 104.519L173.999 104.519L174.47 102.628L199.447 2.52782L199.917 0.636719L149.652 0.636719ZM128.328 100.737L152.364 4.41893L195.324 4.41893L171.287 100.737L128.328 100.737Z" fill="#00518C"/>
<path d="M283.524 2.52783L271.025 52.5778C270.575 54.3937 269.504 55.2963 267.823 55.2963C266.141 55.2963 265.521 54.3937 265.971 52.5778L278.46 2.52783L211.073 2.52783L186.086 102.628L206.87 102.628L219.359 52.5778C219.809 50.7726 220.88 49.8593 222.561 49.8593C224.242 49.8593 224.873 50.7726 224.413 52.5778L211.924 102.628L279.321 102.628L304.298 2.52783L283.524 2.52783Z" fill="white"/>
<path d="M282.165 0.636719L281.695 2.52782L269.326 52.0835C269.056 53.1902 268.586 53.4051 267.825 53.4051C267.735 53.4051 267.665 53.4051 267.605 53.4051C267.625 53.3192 267.645 53.2117 267.675 53.0828L280.294 2.53856L280.764 0.647458L209.725 0.647458L209.255 2.53856L184.267 102.638L183.797 104.53L208.224 104.53L208.694 102.638L221.063 53.0828C221.333 51.9761 221.803 51.7612 222.564 51.7612C222.654 51.7612 222.724 51.7719 222.784 51.7719C222.784 51.8579 222.754 51.9653 222.714 52.0943L210.105 102.638L209.635 104.53L280.674 104.53L281.144 102.638L306.122 2.53856L306.592 0.647458L282.165 0.647458L282.165 0.636719ZM214.228 100.737L226.126 53.072C226.497 51.557 226.346 50.3106 225.676 49.365C225.016 48.441 223.965 47.9682 222.564 47.9682C220.702 47.9682 219.231 48.8278 218.331 50.3751C218.051 50.8693 217.821 51.4496 217.66 52.0835L205.512 100.737L188.39 100.737L200.879 50.6867L212.427 4.41893L276.161 4.41893L264.273 52.0835C264.043 52.9968 264.003 53.8134 264.163 54.5226C264.263 54.9954 264.443 55.4144 264.713 55.7905C265.374 56.7146 266.424 57.1874 267.825 57.1874C269.436 57.1874 270.727 56.5856 271.608 55.4467C272.118 54.8127 272.498 54.0176 272.739 53.072L284.877 4.41893L301.999 4.41893L277.962 100.737L214.228 100.737Z" fill="#00518C"/>
<path d="M358.659 24.8343L405.271 24.8343L410.845 2.52783L317.61 2.52783L292.633 102.628L385.858 102.628L397.676 55.2963L351.063 55.2963C349.372 55.2963 348.752 54.3937 349.212 52.5778C349.662 50.7726 350.733 49.8593 352.414 49.8593L399.027 49.8593L403.92 30.2713L357.308 30.2713C355.617 30.2713 354.996 29.3687 355.456 27.5528C355.907 25.7477 356.977 24.8343 358.659 24.8343Z" fill="white"/>
<path d="M358.661 26.7254L406.624 26.7254L413.139 0.636719L316.262 0.636719L315.791 2.52782L290.814 102.628L290.344 104.519L387.211 104.519L399.97 53.4051L351.066 53.4051C350.976 53.4051 350.906 53.4051 350.846 53.4051C350.846 53.3192 350.876 53.2117 350.916 53.0828C351.186 51.9761 351.656 51.7611 352.417 51.7611L400.38 51.7611L406.214 28.3909L357.31 28.3909C357.22 28.3909 357.15 28.3909 357.09 28.3909C357.1 28.3049 357.12 28.1975 357.16 28.0686C357.43 26.9618 357.901 26.7469 358.661 26.7469L358.661 26.7254ZM354.198 30.7655C354.859 31.6896 355.909 32.1624 357.31 32.1624L401.621 32.1624L397.678 47.9682L352.417 47.9682C350.776 47.9682 349.435 48.6344 348.524 49.8593C348.074 50.4718 347.724 51.2239 347.503 52.0943C347.193 53.3514 347.243 54.4259 347.663 55.2962C347.744 55.4682 347.844 55.6293 347.954 55.7905C348.614 56.7253 349.665 57.1873 351.066 57.1873L395.377 57.1873L384.509 100.737L294.937 100.737L318.974 4.41893L408.546 4.41893L403.923 22.9432L358.661 22.9432C356.99 22.9432 355.649 23.5987 354.758 24.8343C354.308 25.436 353.968 26.1882 353.748 27.0693C353.438 28.3264 353.488 29.4009 353.918 30.2713C353.988 30.4432 354.088 30.6044 354.198 30.7655Z" fill="#00518C"/>
<path d="M414.587 41.4246L461.2 41.4246L455.636 63.7311L409.023 63.7311L414.587 41.4246Z" fill="white"/>
<path d="M456.988 65.6332L406.723 65.6332L413.237 39.5337L463.502 39.5337L456.988 65.6332ZM411.316 61.8509L454.276 61.8509L458.899 43.3267L415.939 43.3267L411.316 61.8509Z" fill="#00518C"/>
<path d="M533.504 2.52783L521.045 52.4381C520.855 53.201 520.515 53.8457 520.034 54.3615C519.544 54.888 518.934 55.1996 518.203 55.2963C517.352 55.4897 516.712 55.2963 516.282 54.7268C515.841 54.1465 515.741 53.4374 515.951 52.5778L528.44 2.52783L484.36 2.52783L461.594 93.7632L467.638 102.628L544.351 102.628L546.993 100.393L551.976 96.17L554.818 93.7632L577.584 2.52783L533.504 2.52783Z" fill="white"/>
<path d="M532.152 0.636719L531.682 2.52782L519.343 51.9438C519.233 52.3844 519.053 52.7389 518.783 53.0291C518.573 53.2547 518.333 53.3729 517.992 53.4159L517.842 53.4481C517.732 53.4696 517.662 53.4696 517.622 53.4696C517.602 53.4159 517.592 53.2977 517.652 53.072L530.271 2.52782L530.741 0.636719L483.008 0.636719L482.538 2.52782L459.882 93.2689L459.672 94.15L465.446 102.628L466.737 104.519L544.961 104.519L547.193 102.628L551.215 99.2216L556.369 94.8591L579.415 2.52782L579.885 0.636719L532.152 0.636719ZM552.736 93.1077L547.753 97.3305L543.73 100.737L468.528 100.737L463.515 93.3763L485.71 4.41893L526.138 4.41893L514.25 52.0835C514.02 52.9861 514.05 53.7597 514.19 54.3829C514.35 55.0384 514.63 55.5434 514.91 55.9194C515.401 56.5641 516.521 57.5849 518.493 57.1659C519.583 57.0047 520.524 56.5212 521.285 55.7046C521.985 54.9417 522.485 54.0068 522.746 52.9216L534.854 4.41893L575.282 4.41893L553.267 92.6672L552.736 93.1077Z" fill="#00518C"/>
<path d="M622.489 52.5778C622.039 54.3937 622.659 55.2963 624.341 55.2963C626.022 55.2963 627.093 54.3937 627.553 52.5778L633.797 27.5528C634.248 25.7477 633.627 24.8343 631.946 24.8343C630.265 24.8343 629.194 25.7369 628.734 27.5528L622.489 52.5778ZM675.866 2.52783L590.897 2.52783L565.91 102.628L610.001 102.628L616.245 77.6028C616.695 75.7976 617.766 74.8843 619.447 74.8843L657.804 74.8843L668.271 66.0197L681.911 11.3924L675.866 2.52783Z" fill="white"/>
<path d="M624.343 57.1873C622.942 57.1873 621.892 56.7146 621.231 55.7905C620.561 54.8449 620.411 53.5985 620.791 52.0835L627.035 27.0585C627.686 24.4368 629.477 22.9432 631.948 22.9432C633.349 22.9432 634.4 23.416 635.061 24.3401C635.731 25.2856 635.881 26.532 635.501 28.0471L629.257 53.072C628.606 55.6938 626.815 57.1873 624.343 57.1873ZM624.123 53.3944C624.183 53.3944 624.253 53.3944 624.343 53.3944C625.104 53.3944 625.574 53.1795 625.844 52.0835L632.089 27.0585C632.119 26.9296 632.139 26.8221 632.159 26.7362C632.099 26.7362 632.029 26.7362 631.948 26.7362C631.188 26.7362 630.718 26.9511 630.447 28.0471L624.203 53.072C624.173 53.201 624.153 53.3084 624.133 53.3944L624.123 53.3944ZM676.76 0.636719L589.549 0.636719L589.079 2.52782L564.091 102.628L563.621 104.519L611.354 104.519L617.949 78.097C618.229 76.9903 618.689 76.7754 619.45 76.7754L658.427 76.7754L669.835 67.1157L683.835 11.0056L676.76 0.636719ZM619.45 72.9932C617.809 72.9932 616.468 73.6593 615.567 74.8843C615.107 75.4967 614.767 76.2489 614.546 77.1192L608.642 100.737L568.214 100.737L592.251 4.41893L674.968 4.41893L679.992 11.7792L666.723 64.9237L657.196 72.9932L619.45 72.9932Z" fill="#00518C"/>
</svg>
