<svg width="266" height="82" viewBox="0 0 266 82" fill="none" xmlns="http://www.w3.org/2000/svg">
<path d="M36.8697 80.5997C17.1897 80.5997 1.17969 64.5897 1.17969 44.9097C1.17969 25.2297 17.1897 9.21973 36.8697 9.21973H223.3C242.98 9.21973 258.99 25.2297 258.99 44.9097C258.99 64.5897 242.98 80.5997 223.3 80.5997H36.8697Z" fill="#E5E2D1"/>
<path d="M223.3 10.4198C242.35 10.4198 257.8 25.8698 257.8 44.9198C257.8 63.9698 242.35 79.4198 223.3 79.4198H36.87C17.82 79.4198 2.37 63.9698 2.37 44.9198C2.37 25.8698 17.82 10.4198 36.87 10.4198H223.3ZM223.3 8.0498H36.87C16.54 8.0498 0 24.5898 0 44.9198C0 65.2498 16.54 81.7898 36.87 81.7898H223.3C243.63 81.7898 260.17 65.2498 260.17 44.9198C260.17 24.5898 243.63 8.0498 223.3 8.0498Z" fill="#003556"/>
<path d="M223.301 10.4199H36.8711C17.8173 10.4199 2.37109 25.8661 2.37109 44.9199C2.37109 63.9737 17.8173 79.4199 36.8711 79.4199H223.301C242.355 79.4199 257.801 63.9737 257.801 44.9199C257.801 25.8661 242.355 10.4199 223.301 10.4199Z" fill="#E5E2D1"/>
<path d="M223.52 10.1499H37.0899C18.036 10.1499 2.58984 25.5961 2.58984 44.6499C2.58984 63.7037 18.036 79.1499 37.0899 79.1499H223.52C242.574 79.1499 258.02 63.7037 258.02 44.6499C258.02 25.5961 242.574 10.1499 223.52 10.1499Z" fill="#E5E2D1"/>
<path d="M223.731 9.87988H37.3008C18.247 9.87988 2.80078 25.3261 2.80078 44.3799C2.80078 63.4337 18.247 78.8799 37.3008 78.8799H223.731C242.785 78.8799 258.231 63.4337 258.231 44.3799C258.231 25.3261 242.785 9.87988 223.731 9.87988Z" fill="#E5E2D1"/>
<path d="M223.942 9.6001H37.5117C18.4579 9.6001 3.01172 25.0463 3.01172 44.1001C3.01172 63.1539 18.4579 78.6001 37.5117 78.6001H223.942C242.996 78.6001 258.442 63.1539 258.442 44.1001C258.442 25.0463 242.996 9.6001 223.942 9.6001Z" fill="#E5E2D1"/>
<path d="M224.153 9.33008H37.7226C18.6688 9.33008 3.22266 24.7763 3.22266 43.8301C3.22266 62.8839 18.6688 78.3301 37.7226 78.3301H224.153C243.206 78.3301 258.653 62.8839 258.653 43.8301C258.653 24.7763 243.206 9.33008 224.153 9.33008Z" fill="#E5E2D1"/>
<path d="M224.371 9.06006H37.9414C18.8876 9.06006 3.44141 24.5062 3.44141 43.5601C3.44141 62.6139 18.8876 78.0601 37.9414 78.0601H224.371C243.425 78.0601 258.871 62.6139 258.871 43.5601C258.871 24.5062 243.425 9.06006 224.371 9.06006Z" fill="#E5E2D1"/>
<path d="M224.582 8.79004H38.1523C19.0985 8.79004 3.65234 24.2362 3.65234 43.29C3.65234 62.3439 19.0985 77.79 38.1523 77.79H224.582C243.636 77.79 259.082 62.3439 259.082 43.29C259.082 24.2362 243.636 8.79004 224.582 8.79004Z" fill="#E5E2D1"/>
<path d="M224.789 8.52002H38.3594C19.3055 8.52002 3.85938 23.9662 3.85938 43.02C3.85938 62.0738 19.3055 77.52 38.3594 77.52H224.789C243.843 77.52 259.289 62.0738 259.289 43.02C259.289 23.9662 243.843 8.52002 224.789 8.52002Z" fill="#E5E2D1"/>
<path d="M225 8.25H38.5703C19.5165 8.25 4.07031 23.6962 4.07031 42.75C4.07031 61.8038 19.5165 77.25 38.5703 77.25H225C244.054 77.25 259.5 61.8038 259.5 42.75C259.5 23.6962 244.054 8.25 225 8.25Z" fill="#E5E2D1"/>
<path d="M225.223 7.97998H38.793C19.7391 7.97998 4.29297 23.4262 4.29297 42.48C4.29297 61.5338 19.7391 76.98 38.793 76.98H225.223C244.277 76.98 259.723 61.5338 259.723 42.48C259.723 23.4262 244.277 7.97998 225.223 7.97998Z" fill="#E5E2D1"/>
<path d="M225.43 7.7002H39C19.9462 7.7002 4.5 23.1464 4.5 42.2002C4.5 61.254 19.9462 76.7002 39 76.7002H225.43C244.484 76.7002 259.93 61.254 259.93 42.2002C259.93 23.1464 244.484 7.7002 225.43 7.7002Z" fill="#E5E2D1"/>
<path d="M225.641 7.43018H39.2109C20.1571 7.43018 4.71094 22.8764 4.71094 41.9302C4.71094 60.984 20.1571 76.4302 39.2109 76.4302H225.641C244.695 76.4302 260.141 60.984 260.141 41.9302C260.141 22.8764 244.695 7.43018 225.641 7.43018Z" fill="#E5E2D1"/>
<path d="M225.852 7.16016H39.4219C20.3681 7.16016 4.92188 22.6063 4.92188 41.6602C4.92188 60.714 20.3681 76.1602 39.4219 76.1602H225.852C244.906 76.1602 260.352 60.714 260.352 41.6602C260.352 22.6063 244.906 7.16016 225.852 7.16016Z" fill="#E5E2D1"/>
<path d="M226.063 6.89014H39.6328C20.579 6.89014 5.13281 22.3363 5.13281 41.3901C5.13281 60.444 20.579 75.8901 39.6328 75.8901H226.063C245.117 75.8901 260.563 60.444 260.563 41.3901C260.563 22.3363 245.117 6.89014 226.063 6.89014Z" fill="#E5E2D1"/>
<path d="M226.282 6.62012H39.8516C20.7977 6.62012 5.35156 22.0663 5.35156 41.1201C5.35156 60.1739 20.7977 75.6201 39.8516 75.6201H226.282C245.335 75.6201 260.782 60.1739 260.782 41.1201C260.782 22.0663 245.335 6.62012 226.282 6.62012Z" fill="#E5E2D1"/>
<path d="M226.493 6.3501H40.0625C21.0087 6.3501 5.5625 21.7963 5.5625 40.8501C5.5625 59.9039 21.0087 75.3501 40.0625 75.3501H226.493C245.546 75.3501 260.993 59.9039 260.993 40.8501C260.993 21.7963 245.546 6.3501 226.493 6.3501Z" fill="#E5E2D1"/>
<path d="M226.7 6.06982H40.2695C21.2157 6.06982 5.76953 21.516 5.76953 40.5698C5.76953 59.6236 21.2157 75.0698 40.2695 75.0698H226.7C245.753 75.0698 261.2 59.6236 261.2 40.5698C261.2 21.516 245.753 6.06982 226.7 6.06982Z" fill="#E5E2D1"/>
<path d="M226.91 5.7998H40.4805C21.4267 5.7998 5.98047 21.246 5.98047 40.2998C5.98047 59.3536 21.4267 74.7998 40.4805 74.7998H226.91C245.964 74.7998 261.41 59.3536 261.41 40.2998C261.41 21.246 245.964 5.7998 226.91 5.7998Z" fill="#E5E2D1"/>
<path d="M227.129 5.52979H40.6992C21.6454 5.52979 6.19922 20.976 6.19922 40.0298C6.19922 59.0836 21.6454 74.5298 40.6992 74.5298H227.129C246.183 74.5298 261.629 59.0836 261.629 40.0298C261.629 20.976 246.183 5.52979 227.129 5.52979Z" fill="#E5E2D1"/>
<path d="M227.34 5.25977H40.9102C21.8563 5.25977 6.41016 20.7059 6.41016 39.7598C6.41016 58.8136 21.8563 74.2598 40.9102 74.2598H227.34C246.394 74.2598 261.84 58.8136 261.84 39.7598C261.84 20.7059 246.394 5.25977 227.34 5.25977Z" fill="#E5E2D1"/>
<path d="M227.551 4.99023H41.1211C22.0673 4.99023 6.62109 20.4364 6.62109 39.4902C6.62109 58.5441 22.0673 73.9902 41.1211 73.9902H227.551C246.605 73.9902 262.051 58.5441 262.051 39.4902C262.051 20.4364 246.605 4.99023 227.551 4.99023Z" fill="#E5E2D1"/>
<path d="M227.762 4.71973H41.332C22.2782 4.71973 6.83203 20.1659 6.83203 39.2197C6.83203 58.2736 22.2782 73.7197 41.332 73.7197H227.762C246.816 73.7197 262.262 58.2736 262.262 39.2197C262.262 20.1659 246.816 4.71973 227.762 4.71973Z" fill="#E5E2D1"/>
<path d="M227.981 4.4502H41.5508C22.497 4.4502 7.05078 19.8964 7.05078 38.9502C7.05078 58.004 22.497 73.4502 41.5508 73.4502H227.981C247.035 73.4502 262.481 58.004 262.481 38.9502C262.481 19.8964 247.035 4.4502 227.981 4.4502Z" fill="#E5E2D1"/>
<path d="M228.192 4.16992H41.7617C22.7079 4.16992 7.26172 19.6161 7.26172 38.6699C7.26172 57.7237 22.7079 73.1699 41.7617 73.1699H228.192C247.246 73.1699 262.692 57.7237 262.692 38.6699C262.692 19.6161 247.246 4.16992 228.192 4.16992Z" fill="#E5E2D1"/>
<path d="M228.403 3.8999H41.9726C22.9188 3.8999 7.47266 19.3461 7.47266 38.3999C7.47266 57.4537 22.9188 72.8999 41.9726 72.8999H228.403C247.456 72.8999 262.903 57.4537 262.903 38.3999C262.903 19.3461 247.456 3.8999 228.403 3.8999Z" fill="#E5E2D1"/>
<path d="M228.61 3.62988H42.1797C23.1259 3.62988 7.67969 19.0761 7.67969 38.1299C7.67969 57.1837 23.1259 72.6299 42.1797 72.6299H228.61C247.664 72.6299 263.11 57.1837 263.11 38.1299C263.11 19.0761 247.664 3.62988 228.61 3.62988Z" fill="#E5E2D1"/>
<path d="M228.832 3.35986H42.4023C23.3485 3.35986 7.90234 18.806 7.90234 37.8599C7.90234 56.9137 23.3485 72.3599 42.4023 72.3599H228.832C247.886 72.3599 263.332 56.9137 263.332 37.8599C263.332 18.806 247.886 3.35986 228.832 3.35986Z" fill="#E5E2D1"/>
<path d="M229.039 3.08984H42.6094C23.5555 3.08984 8.10938 18.536 8.10938 37.5898C8.10938 56.6437 23.5555 72.0898 42.6094 72.0898H229.039C248.093 72.0898 263.539 56.6437 263.539 37.5898C263.539 18.536 248.093 3.08984 229.039 3.08984Z" fill="#E5E2D1"/>
<path d="M229.25 2.81982H42.8203C23.7665 2.81982 8.32031 18.266 8.32031 37.3198C8.32031 56.3736 23.7665 71.8198 42.8203 71.8198H229.25C248.304 71.8198 263.75 56.3736 263.75 37.3198C263.75 18.266 248.304 2.81982 229.25 2.81982Z" fill="#E5E2D1"/>
<path d="M229.461 2.5498H43.0312C23.9774 2.5498 8.53125 17.996 8.53125 37.0498C8.53125 56.1036 23.9774 71.5498 43.0312 71.5498H229.461C248.515 71.5498 263.961 56.1036 263.961 37.0498C263.961 17.996 248.515 2.5498 229.461 2.5498Z" fill="#E5E2D1"/>
<path d="M229.672 2.27002H43.2422C24.1884 2.27002 8.74219 17.7162 8.74219 36.77C8.74219 55.8238 24.1884 71.27 43.2422 71.27H229.672C248.726 71.27 264.172 55.8238 264.172 36.77C264.172 17.7162 248.726 2.27002 229.672 2.27002Z" fill="#E5E2D1"/>
<path d="M229.891 2H43.4609C24.4071 2 8.96094 17.4462 8.96094 36.5C8.96094 55.5538 24.4071 71 43.4609 71H229.891C248.945 71 264.391 55.5538 264.391 36.5C264.391 17.4462 248.945 2 229.891 2Z" fill="#E5E2D1"/>
<path d="M229.891 2H43.4609C24.4071 2 8.96094 17.4462 8.96094 36.5C8.96094 55.5538 24.4071 71 43.4609 71H229.891C248.945 71 264.391 55.5538 264.391 36.5C264.391 17.4462 248.945 2 229.891 2Z" fill="#F83A31" stroke="#003556" stroke-width="2.38" stroke-miterlimit="10"/>
<path d="M69.6249 37.3734H80.3111V48.0596H57.7119V25.4604H68.3981V42.4098C68.3981 42.8187 68.6025 43.0232 69.0115 43.0232C69.4204 43.0232 69.6249 42.8187 69.6249 42.4098V37.3734ZM83.5332 25.4604H94.8328V48.0596H83.5332V25.4604ZM114.404 36.76C114.404 37.1689 114.608 37.3734 115.017 37.3734C115.426 37.3734 115.63 37.1689 115.63 36.76V25.4604H120.667V48.0596H104.331V36.76C104.331 36.351 104.126 36.1466 103.717 36.1466C103.308 36.1466 103.104 36.351 103.104 36.76V48.0596H98.0676V25.4604H114.404V36.76ZM146.488 37.3734V48.0596H123.889V25.4604H146.488V30.4968H135.189C134.78 30.4968 134.575 30.7012 134.575 31.1102C134.575 31.5191 134.78 31.7236 135.189 31.7236H146.488V36.1466H135.189C134.78 36.1466 134.575 36.351 134.575 36.76C134.575 37.1689 134.78 37.3734 135.189 37.3734H146.488ZM149.742 34.2418H161.041V39.2782H149.742V34.2418ZM186.907 25.4604V46.0579L184.905 48.0596H166.309L164.308 46.0579V25.4604H174.994V36.76C174.994 36.9537 175.058 37.1151 175.188 37.2442C175.338 37.3734 175.51 37.4164 175.704 37.3734C175.876 37.3519 176.005 37.2873 176.092 37.1797C176.178 37.0505 176.221 36.8999 176.221 36.7277V25.4604H186.907ZM201.429 41.7964C201.02 41.7964 200.815 42.0008 200.815 42.4098V48.0596H190.129V25.4604H210.727L212.728 27.462V39.7947L210.727 41.7964H201.429ZM200.815 36.76C200.815 37.1689 201.02 37.3734 201.429 37.3734C201.838 37.3734 202.042 37.1689 202.042 36.76V31.1102C202.042 30.7012 201.838 30.4968 201.429 30.4968C201.02 30.4968 200.815 30.7012 200.815 31.1102V36.76Z" fill="white"/>
<path d="M69.6249 37.3734V36.5215H68.773V37.3734H69.6249ZM80.3111 37.3734H81.163V36.5215H80.3111V37.3734ZM80.3111 48.0596V48.9115H81.163V48.0596H80.3111ZM57.7119 48.0596H56.86V48.9115H57.7119V48.0596ZM57.7119 25.4604V24.6085H56.86V25.4604H57.7119ZM68.3981 25.4604H69.25V24.6085H68.3981V25.4604ZM69.6249 38.2253H80.3111V36.5215H69.6249V38.2253ZM79.4592 37.3734V48.0596H81.163V37.3734H79.4592ZM80.3111 47.2076H57.7119V48.9115H80.3111V47.2076ZM58.5638 48.0596V25.4604H56.86V48.0596H58.5638ZM57.7119 26.3123H68.3981V24.6085H57.7119V26.3123ZM67.5461 25.4604V42.4098H69.25V25.4604H67.5461ZM67.5461 42.4098C67.5461 42.7456 67.6307 43.1539 67.949 43.4722C68.2674 43.7906 68.6757 43.8751 69.0115 43.8751V42.1713C68.9383 42.1713 69.0399 42.1535 69.1538 42.2674C69.2677 42.3813 69.25 42.4829 69.25 42.4098H67.5461ZM69.0115 43.8751C69.3473 43.8751 69.7556 43.7906 70.0739 43.4722C70.3923 43.1539 70.4768 42.7456 70.4768 42.4098H68.773C68.773 42.4829 68.7552 42.3813 68.8691 42.2674C68.983 42.1535 69.0846 42.1713 69.0115 42.1713V43.8751ZM70.4768 42.4098V37.3734H68.773V42.4098H70.4768ZM83.5332 25.4604V24.6085H82.6813V25.4604H83.5332ZM94.8328 25.4604H95.6847V24.6085H94.8328V25.4604ZM94.8328 48.0596V48.9115H95.6847V48.0596H94.8328ZM83.5332 48.0596H82.6813V48.9115H83.5332V48.0596ZM83.5332 26.3123H94.8328V24.6085H83.5332V26.3123ZM93.9809 25.4604V48.0596H95.6847V25.4604H93.9809ZM94.8328 47.2076H83.5332V48.9115H94.8328V47.2076ZM84.3852 48.0596V25.4604H82.6813V48.0596H84.3852ZM115.63 25.4604V24.6085H114.778V25.4604H115.63ZM120.667 25.4604H121.519V24.6085H120.667V25.4604ZM120.667 48.0596V48.9115H121.519V48.0596H120.667ZM104.331 48.0596H103.479V48.9115H104.331V48.0596ZM103.104 48.0596V48.9115H103.956V48.0596H103.104ZM98.0676 48.0596H97.2157V48.9115H98.0676V48.0596ZM98.0676 25.4604V24.6085H97.2157V25.4604H98.0676ZM114.404 25.4604H115.255V24.6085H114.404V25.4604ZM113.552 36.76C113.552 37.0958 113.636 37.5041 113.955 37.8224C114.273 38.1408 114.681 38.2253 115.017 38.2253V36.5215C114.944 36.5215 115.045 36.5037 115.159 36.6176C115.273 36.7315 115.255 36.8331 115.255 36.76H113.552ZM115.017 38.2253C115.353 38.2253 115.761 38.1408 116.079 37.8224C116.398 37.5041 116.482 37.0958 116.482 36.76H114.778C114.778 36.8331 114.761 36.7315 114.875 36.6176C114.989 36.5037 115.09 36.5215 115.017 36.5215V38.2253ZM116.482 36.76V25.4604H114.778V36.76H116.482ZM115.63 26.3123H120.667V24.6085H115.63V26.3123ZM119.815 25.4604V48.0596H121.519V25.4604H119.815ZM120.667 47.2076H104.331V48.9115H120.667V47.2076ZM105.183 48.0596V36.76H103.479V48.0596H105.183ZM105.183 36.76C105.183 36.4242 105.098 36.0159 104.78 35.6975C104.461 35.3792 104.053 35.2946 103.717 35.2946V36.9985C103.791 36.9985 103.689 37.0162 103.575 36.9023C103.461 36.7884 103.479 36.6868 103.479 36.76H105.183ZM103.717 35.2946C103.382 35.2946 102.973 35.3792 102.655 35.6975C102.337 36.0159 102.252 36.4242 102.252 36.76H103.956C103.956 36.6868 103.974 36.7884 103.86 36.9023C103.746 37.0162 103.644 36.9985 103.717 36.9985V35.2946ZM102.252 36.76V48.0596H103.956V36.76H102.252ZM103.104 47.2076H98.0676V48.9115H103.104V47.2076ZM98.9195 48.0596V25.4604H97.2157V48.0596H98.9195ZM98.0676 26.3123H114.404V24.6085H98.0676V26.3123ZM113.552 25.4604V36.76H115.255V25.4604H113.552ZM146.488 37.3734H147.34V36.5215H146.488V37.3734ZM146.488 48.0596V48.9115H147.34V48.0596H146.488ZM123.889 48.0596H123.037V48.9115H123.889V48.0596ZM123.889 25.4604V24.6085H123.037V25.4604H123.889ZM146.488 25.4604H147.34V24.6085H146.488V25.4604ZM146.488 30.4968V31.3487H147.34V30.4968H146.488ZM146.488 31.7236H147.34V30.8717H146.488V31.7236ZM146.488 36.1466V36.9985H147.34V36.1466H146.488ZM145.636 37.3734V48.0596H147.34V37.3734H145.636ZM146.488 47.2076H123.889V48.9115H146.488V47.2076ZM124.741 48.0596V25.4604H123.037V48.0596H124.741ZM123.889 26.3123H146.488V24.6085H123.889V26.3123ZM145.636 25.4604V30.4968H147.34V25.4604H145.636ZM146.488 29.6448H135.189V31.3487H146.488V29.6448ZM135.189 29.6448C134.853 29.6448 134.444 29.7294 134.126 30.0477C133.808 30.3661 133.723 30.7744 133.723 31.1102H135.427C135.427 31.037 135.445 31.1386 135.331 31.2525C135.217 31.3664 135.115 31.3487 135.189 31.3487V29.6448ZM133.723 31.1102C133.723 31.446 133.808 31.8543 134.126 32.1726C134.444 32.491 134.853 32.5755 135.189 32.5755V30.8717C135.115 30.8717 135.217 30.8539 135.331 30.9678C135.445 31.0817 135.427 31.1833 135.427 31.1102H133.723ZM135.189 32.5755H146.488V30.8717H135.189V32.5755ZM145.636 31.7236V36.1466H147.34V31.7236H145.636ZM146.488 35.2946H135.189V36.9985H146.488V35.2946ZM135.189 35.2946C134.853 35.2946 134.444 35.3792 134.126 35.6975C133.808 36.0159 133.723 36.4242 133.723 36.76H135.427C135.427 36.6868 135.445 36.7884 135.331 36.9023C135.217 37.0162 135.115 36.9985 135.189 36.9985V35.2946ZM133.723 36.76C133.723 37.0958 133.808 37.5041 134.126 37.8224C134.444 38.1408 134.853 38.2253 135.189 38.2253V36.5215C135.115 36.5215 135.217 36.5037 135.331 36.6176C135.445 36.7315 135.427 36.8331 135.427 36.76H133.723ZM135.189 38.2253H146.488V36.5215H135.189V38.2253ZM149.742 34.2418V33.3899H148.89V34.2418H149.742ZM161.041 34.2418H161.893V33.3899H161.041V34.2418ZM161.041 39.2782V40.1301H161.893V39.2782H161.041ZM149.742 39.2782H148.89V40.1301H149.742V39.2782ZM149.742 35.0937H161.041V33.3899H149.742V35.0937ZM160.189 34.2418V39.2782H161.893V34.2418H160.189ZM161.041 38.4262H149.742V40.1301H161.041V38.4262ZM150.594 39.2782V34.2418H148.89V39.2782H150.594ZM186.907 25.4604H187.759V24.6085H186.907V25.4604ZM186.907 46.0579L187.509 46.6603L187.759 46.4108V46.0579H186.907ZM184.905 48.0596V48.9115H185.258L185.508 48.662L184.905 48.0596ZM166.309 48.0596L165.707 48.662L165.956 48.9115H166.309V48.0596ZM164.308 46.0579H163.456V46.4108L163.705 46.6603L164.308 46.0579ZM164.308 25.4604V24.6085H163.456V25.4604H164.308ZM174.994 25.4604H175.846V24.6085H174.994V25.4604ZM175.188 37.2442L174.585 37.8466L174.608 37.8698L174.633 37.8911L175.188 37.2442ZM175.704 37.3734L175.598 36.528L175.559 36.533L175.519 36.5417L175.704 37.3734ZM176.092 37.1797L176.757 37.7119L176.78 37.683L176.8 37.6522L176.092 37.1797ZM176.221 25.4604V24.6085H175.369V25.4604H176.221ZM186.055 25.4604V46.0579H187.759V25.4604H186.055ZM186.304 45.4555L184.303 47.4572L185.508 48.662L187.509 46.6603L186.304 45.4555ZM184.905 47.2076H166.309V48.9115H184.905V47.2076ZM166.912 47.4572L164.91 45.4555L163.705 46.6603L165.707 48.662L166.912 47.4572ZM165.16 46.0579V25.4604H163.456V46.0579H165.16ZM164.308 26.3123H174.994V24.6085H164.308V26.3123ZM174.142 25.4604V36.76H175.846V25.4604H174.142ZM174.142 36.76C174.142 37.1644 174.286 37.5473 174.585 37.8466L175.79 36.6418C175.803 36.6547 175.821 36.6781 175.833 36.7099C175.846 36.7407 175.846 36.7608 175.846 36.76H174.142ZM174.633 37.8911C174.987 38.1947 175.433 38.3062 175.889 38.205L175.519 36.5417C175.536 36.538 175.58 36.5327 175.636 36.5469C175.693 36.5611 175.729 36.5862 175.742 36.5974L174.633 37.8911ZM175.81 38.2187C176.142 38.1772 176.498 38.0348 176.757 37.7119L175.426 36.6475C175.464 36.6004 175.509 36.567 175.549 36.5468C175.586 36.5282 175.607 36.5269 175.598 36.528L175.81 38.2187ZM176.8 37.6522C176.99 37.3681 177.073 37.0489 177.073 36.7277H175.369C175.369 36.7424 175.367 36.7437 175.369 36.7358C175.37 36.7321 175.372 36.7272 175.375 36.7218C175.377 36.7163 175.38 36.7113 175.383 36.7071L176.8 37.6522ZM177.073 36.7277V25.4604H175.369V36.7277H177.073ZM176.221 26.3123H186.907V24.6085H176.221V26.3123ZM200.815 48.0596V48.9115H201.667V48.0596H200.815ZM190.129 48.0596H189.277V48.9115H190.129V48.0596ZM190.129 25.4604V24.6085H189.277V25.4604H190.129ZM210.727 25.4604L211.329 24.858L211.079 24.6085H210.727V25.4604ZM212.728 27.462H213.58V27.1091L213.331 26.8596L212.728 27.462ZM212.728 39.7947L213.331 40.3971L213.58 40.1476V39.7947H212.728ZM210.727 41.7964V42.6483H211.079L211.329 42.3988L210.727 41.7964ZM201.429 40.9444C201.093 40.9444 200.685 41.029 200.366 41.3473C200.048 41.6657 199.963 42.074 199.963 42.4098H201.667C201.667 42.3366 201.685 42.4382 201.571 42.5521C201.457 42.666 201.355 42.6483 201.429 42.6483V40.9444ZM199.963 42.4098V48.0596H201.667V42.4098H199.963ZM200.815 47.2076H190.129V48.9115H200.815V47.2076ZM190.981 48.0596V25.4604H189.277V48.0596H190.981ZM190.129 26.3123H210.727V24.6085H190.129V26.3123ZM210.124 26.0628L212.126 28.0644L213.331 26.8596L211.329 24.858L210.124 26.0628ZM211.876 27.462V39.7947H213.58V27.462H211.876ZM212.126 39.1923L210.124 41.194L211.329 42.3988L213.331 40.3971L212.126 39.1923ZM210.727 40.9444H201.429V42.6483H210.727V40.9444ZM199.963 36.76C199.963 37.0958 200.048 37.5041 200.366 37.8224C200.685 38.1408 201.093 38.2253 201.429 38.2253V36.5215C201.355 36.5215 201.457 36.5037 201.571 36.6176C201.685 36.7315 201.667 36.8331 201.667 36.76H199.963ZM201.429 38.2253C201.764 38.2253 202.173 38.1408 202.491 37.8224C202.809 37.5041 202.894 37.0958 202.894 36.76H201.19C201.19 36.8331 201.172 36.7315 201.286 36.6176C201.4 36.5037 201.502 36.5215 201.429 36.5215V38.2253ZM202.894 36.76V31.1102H201.19V36.76H202.894ZM202.894 31.1102C202.894 30.7744 202.809 30.3661 202.491 30.0477C202.173 29.7294 201.764 29.6448 201.429 29.6448V31.3487C201.502 31.3487 201.4 31.3664 201.286 31.2525C201.172 31.1386 201.19 31.037 201.19 31.1102H202.894ZM201.429 29.6448C201.093 29.6448 200.685 29.7294 200.366 30.0477C200.048 30.3661 199.963 30.7744 199.963 31.1102H201.667C201.667 31.037 201.685 31.1386 201.571 31.2525C201.457 31.3664 201.355 31.3487 201.429 31.3487V29.6448ZM199.963 31.1102V36.76H201.667V31.1102H199.963Z" fill="#003556"/>
</svg>
