<svg width="1440" height="1075" viewBox="0 0 1440 1075" fill="none" xmlns="http://www.w3.org/2000/svg">
<path d="M0.078125 34C0.078125 34 321.483 78.9336 489.321 62.1138C663.422 44.6635 890.032 43.7237 1028.5 60.5C1168.7 77.4828 1349.5 101.5 1440 29.5V50V65.5L1441.01 302.2L0.078125 340.265V69.5V34Z" fill="#D68A04"/>
<path d="M0.078125 63.2963C0.078125 63.2963 250.678 105.512 489.321 84.3631C666.574 68.6576 891.447 70.1207 1029.92 85.9081C1170.12 101.89 1381.68 114.07 1440 54L1441.01 315.586L0.078125 351.397V63.2963Z" fill="#6D4600"/>
<path d="M1441 1057.52C1441 1057.52 1118.58 1009.5 952.608 1034.91C778.497 1051.33 549.591 1050.7 411.112 1034.91C270.903 1018.92 55.4754 1002.73 0 1075V805.235L1441 769.424V1057.52Z" fill="#D68A04"/>
<path d="M1441 1029.98C1441 1029.98 1190.39 987.766 951.738 1008.91C774.474 1024.62 549.591 1023.16 411.112 1007.37C270.903 991.378 58.3172 981.576 0 1041.65V777.681L1441 741.871V1029.97V1029.98Z" fill="#6D4600"/>
<path d="M0 1007.44L0.0800511 87.1729C0.0800511 87.1729 208.903 135.885 574.507 101.098C940.12 66.3107 1271.45 159.183 1441 87.1729V1006.06C1441 1006.06 1119.59 963.885 951.758 979.703C777.656 996.125 549.631 999.225 411.173 983.438C282.5 968.776 73.687 953.93 0.0800511 1007.44H0Z" fill="#1E1E1E"/>
</svg>
