<svg width="104" height="19" viewBox="0 0 104 19" fill="none" xmlns="http://www.w3.org/2000/svg">
<path d="M10.9911 10.86H17.8211V17.93H3.37109V2.96997H10.2011V14.19C10.2011 14.46 10.3311 14.6 10.5911 14.6C10.8511 14.6 10.9811 14.46 10.9811 14.19V10.86H10.9911Z" fill="#003556" stroke="#003556" stroke-width="1.13" stroke-miterlimit="10"/>
<path d="M19.8906 2.97998H27.1106V17.94H19.8906V2.97998Z" fill="#003556" stroke="#003556" stroke-width="1.13" stroke-miterlimit="10"/>
<path d="M39.6197 10.46C39.6197 10.73 39.7497 10.87 40.0097 10.87C40.2697 10.87 40.3997 10.73 40.3997 10.46V2.97998H43.6197V17.94H33.1797V10.46C33.1797 10.19 33.0497 10.05 32.7897 10.05C32.5297 10.05 32.3997 10.19 32.3997 10.46V17.94H29.1797V2.97998H39.6197V10.46Z" fill="#003556" stroke="#003556" stroke-width="1.13" stroke-miterlimit="10"/>
<path d="M60.1414 10.86V17.93H45.6914V2.96997H60.1414V6.29997H52.9214C52.6614 6.29997 52.5314 6.43998 52.5314 6.70998C52.5314 6.97998 52.6614 7.11997 52.9214 7.11997H60.1414V10.05H52.9214C52.6614 10.05 52.5314 10.19 52.5314 10.46C52.5314 10.73 52.6614 10.87 52.9214 10.87H60.1414V10.86Z" fill="#003556" stroke="#003556" stroke-width="1.13" stroke-miterlimit="10"/>
<path d="M62.2227 8.79004H69.4427V12.12H62.2227V8.79004Z" fill="#003556" stroke="#003556" stroke-width="1.13" stroke-miterlimit="10"/>
<path d="M85.9813 2.97998V16.61L84.7013 17.93H72.8113L71.5312 16.61V2.97998H78.3613V10.46C78.3613 10.59 78.4013 10.69 78.4913 10.78C78.5813 10.87 78.6913 10.89 78.8113 10.87C78.9213 10.86 79.0013 10.81 79.0613 10.73C79.1113 10.65 79.1413 10.56 79.1413 10.44V2.97998H85.9713H85.9813Z" fill="#003556" stroke="#003556" stroke-width="1.13" stroke-miterlimit="10"/>
<path d="M94.8808 10.46C94.8808 10.73 95.0108 10.87 95.2708 10.87C95.5308 10.87 95.6608 10.73 95.6608 10.46V6.71998C95.6608 6.44998 95.5308 6.30998 95.2708 6.30998C95.0108 6.30998 94.8808 6.44998 94.8808 6.71998V10.46ZM95.2708 13.79C95.0108 13.79 94.8808 13.93 94.8808 14.2V17.94H88.0508V2.97998H101.221L102.501 4.29998V12.46L101.221 13.78H95.2808L95.2708 13.79Z" fill="#003556" stroke="#003556" stroke-width="1.13" stroke-miterlimit="10"/>
<path d="M10.9108 10.7999H17.7408V17.8699H3.30078V2.90991H10.1308V14.1299C10.1308 14.3999 10.2608 14.5399 10.5208 14.5399C10.7808 14.5399 10.9108 14.3999 10.9108 14.1299V10.7999Z" fill="#003556" stroke="#003556" stroke-width="1.13" stroke-miterlimit="10"/>
<path d="M27.0325 2.90991H19.8125V17.8699H27.0325V2.90991Z" fill="#003556" stroke="#003556" stroke-width="1.13" stroke-miterlimit="10"/>
<path d="M39.5416 10.3899C39.5416 10.6599 39.6716 10.7999 39.9316 10.7999C40.1916 10.7999 40.3216 10.6599 40.3216 10.3899V2.90991H43.5416V17.8699H33.1016V10.3899C33.1016 10.1199 32.9716 9.97991 32.7116 9.97991C32.4516 9.97991 32.3216 10.1199 32.3216 10.3899V17.8699H29.1016V2.90991H39.5416V10.3899Z" fill="#003556" stroke="#003556" stroke-width="1.13" stroke-miterlimit="10"/>
<path d="M60.0594 10.7999V17.8699H45.6094V2.90991H60.0594V6.23991H52.8394C52.5794 6.23991 52.4494 6.37991 52.4494 6.64991C52.4494 6.91991 52.5794 7.05991 52.8394 7.05991H60.0594V9.98991H52.8394C52.5794 9.98991 52.4494 10.1299 52.4494 10.3999C52.4494 10.6699 52.5794 10.8099 52.8394 10.8099H60.0594V10.7999Z" fill="#003556" stroke="#003556" stroke-width="1.13" stroke-miterlimit="10"/>
<path d="M69.3723 8.71997H62.1523V12.05H69.3723V8.71997Z" fill="#003556" stroke="#003556" stroke-width="1.13" stroke-miterlimit="10"/>
<path d="M85.8992 2.90991V16.5399L84.6192 17.8599H72.7292L71.4492 16.5399V2.90991H78.2792V10.3899C78.2792 10.5199 78.3192 10.6199 78.4092 10.7099C78.4992 10.7999 78.6092 10.8199 78.7292 10.7999C78.8392 10.7799 78.9192 10.7399 78.9792 10.6599C79.0292 10.5799 79.0592 10.4899 79.0592 10.3699V2.90991H85.8892H85.8992Z" fill="#003556" stroke="#003556" stroke-width="1.13" stroke-miterlimit="10"/>
<path d="M94.8027 10.3899C94.8027 10.6599 94.9327 10.7999 95.1927 10.7999C95.4527 10.7999 95.5827 10.6599 95.5827 10.3899V6.64991C95.5827 6.37991 95.4527 6.23991 95.1927 6.23991C94.9327 6.23991 94.8027 6.37991 94.8027 6.64991V10.3899ZM95.1927 13.7199C94.9327 13.7199 94.8027 13.8599 94.8027 14.1299V17.8699H87.9727V2.90991H101.143L102.423 4.22991V12.3899L101.143 13.7099H95.2027L95.1927 13.7199Z" fill="#003556" stroke="#003556" stroke-width="1.13" stroke-miterlimit="10"/>
<path d="M10.8387 10.7301H17.6687V17.8001H3.21875V2.84009H10.0487V14.0601C10.0487 14.3301 10.1788 14.4701 10.4388 14.4701C10.6988 14.4701 10.8288 14.3301 10.8288 14.0601V10.7301H10.8387Z" fill="#003556" stroke="#003556" stroke-width="1.13" stroke-miterlimit="10"/>
<path d="M26.9505 2.8501H19.7305V17.8101H26.9505V2.8501Z" fill="#003556" stroke="#003556" stroke-width="1.13" stroke-miterlimit="10"/>
<path d="M39.4673 10.3301C39.4673 10.6001 39.5973 10.7401 39.8573 10.7401C40.1173 10.7401 40.2473 10.6001 40.2473 10.3301V2.8501H43.4673V17.8101H33.0273V10.3301C33.0273 10.0601 32.8973 9.9201 32.6373 9.9201C32.3773 9.9201 32.2473 10.0601 32.2473 10.3301V17.8101H29.0273V2.8501H39.4673V10.3301Z" fill="#003556" stroke="#003556" stroke-width="1.13" stroke-miterlimit="10"/>
<path d="M59.9773 10.7301V17.8001H45.5273V2.84009H59.9773V6.17009H52.7573C52.4973 6.17009 52.3673 6.31009 52.3673 6.58009C52.3673 6.85009 52.4973 6.99009 52.7573 6.99009H59.9773V9.92009H52.7573C52.4973 9.92009 52.3673 10.0601 52.3673 10.3301C52.3673 10.6001 52.4973 10.7401 52.7573 10.7401H59.9773V10.7301Z" fill="#003556" stroke="#003556" stroke-width="1.13" stroke-miterlimit="10"/>
<path d="M69.2903 8.66016H62.0703V11.9902H69.2903V8.66016Z" fill="#003556" stroke="#003556" stroke-width="1.13" stroke-miterlimit="10"/>
<path d="M85.8289 2.8501V16.4801L84.5489 17.8001H72.6589L71.3789 16.4801V2.8501H78.2089V10.3301C78.2089 10.4601 78.2489 10.5601 78.3389 10.6501C78.4289 10.7401 78.5389 10.7601 78.6589 10.7401C78.7689 10.7201 78.8489 10.6801 78.9089 10.6001C78.9589 10.5201 78.9889 10.4301 78.9889 10.3101V2.8501H85.8189H85.8289Z" fill="#003556" stroke="#003556" stroke-width="1.13" stroke-miterlimit="10"/>
<path d="M94.7184 10.3301C94.7184 10.6001 94.8484 10.7401 95.1084 10.7401C95.3684 10.7401 95.4984 10.6001 95.4984 10.3301V6.5901C95.4984 6.3201 95.3684 6.18009 95.1084 6.18009C94.8484 6.18009 94.7184 6.3201 94.7184 6.5901V10.3301ZM95.1184 13.6601C94.8584 13.6601 94.7284 13.8001 94.7284 14.0701V17.8101H87.8984V2.8501H101.068L102.348 4.1701V12.3301L101.068 13.6501H95.1284L95.1184 13.6601Z" fill="#003556" stroke="#003556" stroke-width="1.13" stroke-miterlimit="10"/>
<path d="M10.7606 10.67H17.5906V17.74H3.14062V2.78003H9.97062V14C9.97062 14.27 10.1006 14.41 10.3606 14.41C10.6206 14.41 10.7506 14.27 10.7506 14V10.67H10.7606Z" fill="#003556" stroke="#003556" stroke-width="1.13" stroke-miterlimit="10"/>
<path d="M26.8802 2.78003H19.6602V17.74H26.8802V2.78003Z" fill="#003556" stroke="#003556" stroke-width="1.13" stroke-miterlimit="10"/>
<path d="M39.3892 10.26C39.3892 10.53 39.5192 10.67 39.7792 10.67C40.0392 10.67 40.1692 10.53 40.1692 10.26V2.78003H43.3892V17.74H32.9492V10.26C32.9492 9.99003 32.8192 9.85003 32.5592 9.85003C32.2992 9.85003 32.1692 9.99003 32.1692 10.26V17.74H28.9492V2.78003H39.3892V10.26Z" fill="#003556" stroke="#003556" stroke-width="1.13" stroke-miterlimit="10"/>
<path d="M59.9109 10.67V17.74H45.4609V2.78003H59.9109V6.11002H52.6909C52.4309 6.11002 52.3009 6.25003 52.3009 6.52003C52.3009 6.79003 52.4309 6.93002 52.6909 6.93002H59.9109V9.86002H52.6909C52.4309 9.86002 52.3009 10 52.3009 10.27C52.3009 10.54 52.4309 10.68 52.6909 10.68H59.9109V10.67Z" fill="#003556" stroke="#003556" stroke-width="1.13" stroke-miterlimit="10"/>
<path d="M69.2122 8.6001H61.9922V11.9301H69.2122V8.6001Z" fill="#003556" stroke="#003556" stroke-width="1.13" stroke-miterlimit="10"/>
<path d="M85.7508 2.78003V16.41L84.4708 17.73H72.5808L71.3008 16.41V2.78003H78.1308V10.26C78.1308 10.39 78.1708 10.49 78.2608 10.58C78.3508 10.67 78.4608 10.69 78.5808 10.67C78.6908 10.65 78.7708 10.61 78.8308 10.53C78.8808 10.45 78.9108 10.36 78.9108 10.24V2.78003H85.7408H85.7508Z" fill="#003556" stroke="#003556" stroke-width="1.13" stroke-miterlimit="10"/>
<path d="M94.6503 10.26C94.6503 10.53 94.7803 10.67 95.0403 10.67C95.3003 10.67 95.4303 10.53 95.4303 10.26V6.52004C95.4303 6.25004 95.3003 6.11004 95.0403 6.11004C94.7803 6.11004 94.6503 6.25004 94.6503 6.52004V10.26ZM95.0403 13.6C94.7803 13.6 94.6503 13.74 94.6503 14.01V17.75H87.8203V2.79004H100.99L102.27 4.11004V12.27L100.99 13.59H95.0503L95.0403 13.6Z" fill="#003556" stroke="#003556" stroke-width="1.13" stroke-miterlimit="10"/>
<path d="M10.6803 10.61H17.5103V17.68H3.07031V2.71997H9.90031V13.94C9.90031 14.21 10.0303 14.35 10.2903 14.35C10.5503 14.35 10.6803 14.21 10.6803 13.94V10.61Z" fill="#003556" stroke="#003556" stroke-width="1.13" stroke-miterlimit="10"/>
<path d="M26.802 2.71997H19.582V17.68H26.802V2.71997Z" fill="#003556" stroke="#003556" stroke-width="1.13" stroke-miterlimit="10"/>
<path d="M39.3111 10.2C39.3111 10.47 39.4411 10.61 39.7011 10.61C39.9611 10.61 40.0911 10.47 40.0911 10.2V2.71997H43.3111V17.68H32.8711V10.2C32.8711 9.92997 32.7411 9.78997 32.4811 9.78997C32.2211 9.78997 32.0911 9.92997 32.0911 10.2V17.68H28.8711V2.71997H39.3111V10.2Z" fill="#003556" stroke="#003556" stroke-width="1.13" stroke-miterlimit="10"/>
<path d="M59.8289 10.61V17.68H45.3789V2.71997H59.8289V6.04997H52.6089C52.3489 6.04997 52.2189 6.18998 52.2189 6.45998C52.2189 6.72998 52.3489 6.86997 52.6089 6.86997H59.8289V9.79997H52.6089C52.3489 9.79997 52.2189 9.93998 52.2189 10.21C52.2189 10.48 52.3489 10.62 52.6089 10.62H59.8289V10.61Z" fill="#003556" stroke="#003556" stroke-width="1.13" stroke-miterlimit="10"/>
<path d="M69.1419 8.53003H61.9219V11.86H69.1419V8.53003Z" fill="#003556" stroke="#003556" stroke-width="1.13" stroke-miterlimit="10"/>
<path d="M85.6688 2.71997V16.35L84.3887 17.67H72.4987L71.2188 16.35V2.71997H78.0488V10.2C78.0488 10.33 78.0887 10.43 78.1787 10.52C78.2687 10.61 78.3787 10.63 78.4987 10.61C78.6087 10.59 78.6887 10.55 78.7487 10.47C78.7987 10.39 78.8288 10.3 78.8288 10.18V2.71997H85.6588H85.6688Z" fill="#003556" stroke="#003556" stroke-width="1.13" stroke-miterlimit="10"/>
<path d="M94.5722 10.2C94.5722 10.47 94.7022 10.61 94.9622 10.61C95.2222 10.61 95.3522 10.47 95.3522 10.2V6.45998C95.3522 6.18998 95.2222 6.04997 94.9622 6.04997C94.7022 6.04997 94.5722 6.18998 94.5722 6.45998V10.2ZM94.9622 13.53C94.7022 13.53 94.5722 13.67 94.5722 13.94V17.68H87.7422V2.71997H100.912L102.192 4.03997V12.2L100.912 13.52H94.9722L94.9622 13.53Z" fill="#003556" stroke="#003556" stroke-width="1.13" stroke-miterlimit="10"/>
<path d="M10.6083 10.5399H17.4383V17.6099H2.98828V2.6499H9.81828V13.8699C9.81828 14.1399 9.94828 14.2799 10.2083 14.2799C10.4683 14.2799 10.5983 14.1399 10.5983 13.8699V10.5399H10.6083Z" fill="#003556" stroke="#003556" stroke-width="1.13" stroke-miterlimit="10"/>
<path d="M26.72 2.65991H19.5V17.6199H26.72V2.65991Z" fill="#003556" stroke="#003556" stroke-width="1.13" stroke-miterlimit="10"/>
<path d="M39.2369 10.1399C39.2369 10.4099 39.3669 10.5499 39.6269 10.5499C39.8869 10.5499 40.0169 10.4099 40.0169 10.1399V2.65991H43.2369V17.6199H32.7969V10.1399C32.7969 9.86991 32.6669 9.72991 32.4069 9.72991C32.1469 9.72991 32.0169 9.86991 32.0169 10.1399V17.6199H28.7969V2.65991H39.2369V10.1399Z" fill="#003556" stroke="#003556" stroke-width="1.13" stroke-miterlimit="10"/>
<path d="M59.7586 10.5399V17.6099H45.3086V2.6499H59.7586V5.9799H52.5386C52.2786 5.9799 52.1486 6.1199 52.1486 6.3899C52.1486 6.6599 52.2786 6.7999 52.5386 6.7999H59.7586V9.7299H52.5386C52.2786 9.7299 52.1486 9.8699 52.1486 10.1399C52.1486 10.4099 52.2786 10.5499 52.5386 10.5499H59.7586V10.5399Z" fill="#003556" stroke="#003556" stroke-width="1.13" stroke-miterlimit="10"/>
<path d="M69.0598 8.46997H61.8398V11.8H69.0598V8.46997Z" fill="#003556" stroke="#003556" stroke-width="1.13" stroke-miterlimit="10"/>
<path d="M85.5984 2.65991V16.2899L84.3184 17.6099H72.4284L71.1484 16.2899V2.65991H77.9784V10.1399C77.9784 10.2699 78.0184 10.3699 78.1084 10.4599C78.1984 10.5499 78.3084 10.5699 78.4284 10.5499C78.5384 10.5299 78.6184 10.4899 78.6784 10.4099C78.7284 10.3299 78.7584 10.2399 78.7584 10.1199V2.65991H85.5884H85.5984Z" fill="#003556" stroke="#003556" stroke-width="1.13" stroke-miterlimit="10"/>
<path d="M94.488 10.1399C94.488 10.4099 94.618 10.5499 94.878 10.5499C95.138 10.5499 95.268 10.4099 95.268 10.1399V6.39991C95.268 6.12991 95.138 5.98991 94.878 5.98991C94.618 5.98991 94.488 6.12991 94.488 6.39991V10.1399ZM94.888 13.4699C94.628 13.4699 94.498 13.6099 94.498 13.8799V17.6199H87.668V2.65991H100.838L102.118 3.97991V12.1399L100.838 13.4599H94.898L94.888 13.4699Z" fill="#003556" stroke="#003556" stroke-width="1.13" stroke-miterlimit="10"/>
<path d="M10.5302 10.4801H17.3602V17.5501H2.91016V2.59009H9.74016V13.8101C9.74016 14.0801 9.87016 14.2201 10.1302 14.2201C10.3902 14.2201 10.5202 14.0801 10.5202 13.8101V10.4801H10.5302Z" fill="#003556" stroke="#003556" stroke-width="1.13" stroke-miterlimit="10"/>
<path d="M26.6497 2.59009H19.4297V17.5501H26.6497V2.59009Z" fill="#003556" stroke="#003556" stroke-width="1.13" stroke-miterlimit="10"/>
<path d="M39.1588 10.0701C39.1588 10.3401 39.2887 10.4801 39.5487 10.4801C39.8088 10.4801 39.9387 10.3401 39.9387 10.0701V2.59009H43.1588V17.5501H32.7187V10.0701C32.7187 9.80008 32.5887 9.66009 32.3287 9.66009C32.0687 9.66009 31.9387 9.80008 31.9387 10.0701V17.5501H28.7188V2.59009H39.1588V10.0701Z" fill="#003556" stroke="#003556" stroke-width="1.13" stroke-miterlimit="10"/>
<path d="M59.6805 10.4801V17.5501H45.2305V2.59009H59.6805V5.92009H52.4605C52.2005 5.92009 52.0705 6.06009 52.0705 6.33009C52.0705 6.60009 52.2005 6.74009 52.4605 6.74009H59.6805V9.67009H52.4605C52.2005 9.67009 52.0705 9.81009 52.0705 10.0801C52.0705 10.3501 52.2005 10.4901 52.4605 10.4901H59.6805V10.4801Z" fill="#003556" stroke="#003556" stroke-width="1.13" stroke-miterlimit="10"/>
<path d="M68.9817 8.41016H61.7617V11.7402H68.9817V8.41016Z" fill="#003556" stroke="#003556" stroke-width="1.13" stroke-miterlimit="10"/>
<path d="M85.5203 2.59009V16.2201L84.2403 17.5401H72.3503L71.0703 16.2201V2.59009H77.9003V10.0701C77.9003 10.2001 77.9403 10.3001 78.0303 10.3901C78.1203 10.4801 78.2303 10.5001 78.3503 10.4801C78.4603 10.4601 78.5403 10.4201 78.6003 10.3401C78.6503 10.2601 78.6803 10.1701 78.6803 10.0501V2.59009H85.5103H85.5203Z" fill="#003556" stroke="#003556" stroke-width="1.13" stroke-miterlimit="10"/>
<path d="M94.4198 10.0701C94.4198 10.3401 94.5498 10.4801 94.8098 10.4801C95.0698 10.4801 95.1998 10.3401 95.1998 10.0701V6.33009C95.1998 6.06009 95.0698 5.9201 94.8098 5.9201C94.5498 5.9201 94.4198 6.06009 94.4198 6.33009V10.0701ZM94.8098 13.4101C94.5498 13.4101 94.4198 13.5501 94.4198 13.8201V17.5601H87.5898V2.6001H100.76L102.04 3.9201V12.0801L100.76 13.4001H94.8198L94.8098 13.4101Z" fill="#003556" stroke="#003556" stroke-width="1.13" stroke-miterlimit="10"/>
<path d="M10.4598 10.42H17.2898V17.49H2.83984V2.53003H9.66984V13.75C9.66984 14.02 9.79984 14.16 10.0598 14.16C10.3198 14.16 10.4498 14.02 10.4498 13.75V10.42H10.4598Z" fill="#003556" stroke="#003556" stroke-width="1.13" stroke-miterlimit="10"/>
<path d="M26.5716 2.53003H19.3516V17.49H26.5716V2.53003Z" fill="#003556" stroke="#003556" stroke-width="1.13" stroke-miterlimit="10"/>
<path d="M39.0806 10.01C39.0806 10.28 39.2106 10.42 39.4706 10.42C39.7306 10.42 39.8606 10.28 39.8606 10.01V2.53003H43.0806V17.49H32.6406V10.01C32.6406 9.74003 32.5106 9.60003 32.2506 9.60003C31.9906 9.60003 31.8606 9.74003 31.8606 10.01V17.49H28.6406V2.53003H39.0806V10.01Z" fill="#003556" stroke="#003556" stroke-width="1.13" stroke-miterlimit="10"/>
<path d="M59.5984 10.42V17.49H45.1484V2.53003H59.5984V5.86002H52.3784C52.1184 5.86002 51.9884 6.00003 51.9884 6.27003C51.9884 6.54003 52.1184 6.68002 52.3784 6.68002H59.5984V9.61002H52.3784C52.1184 9.61002 51.9884 9.75003 51.9884 10.02C51.9884 10.29 52.1184 10.43 52.3784 10.43H59.5984V10.42Z" fill="#003556" stroke="#003556" stroke-width="1.13" stroke-miterlimit="10"/>
<path d="M68.9114 8.34009H61.6914V11.6701H68.9114V8.34009Z" fill="#003556" stroke="#003556" stroke-width="1.13" stroke-miterlimit="10"/>
<path d="M85.45 2.53003V16.16L84.17 17.48H72.28L71 16.16V2.53003H77.83V10.01C77.83 10.14 77.87 10.24 77.96 10.33C78.05 10.42 78.16 10.44 78.28 10.42C78.39 10.4 78.47 10.36 78.53 10.28C78.58 10.2 78.61 10.11 78.61 9.99003V2.53003H85.44H85.45Z" fill="#003556" stroke="#003556" stroke-width="1.13" stroke-miterlimit="10"/>
<path d="M94.3417 10.01C94.3417 10.28 94.4717 10.42 94.7317 10.42C94.9917 10.42 95.1217 10.28 95.1217 10.01V6.27003C95.1217 6.00003 94.9917 5.86002 94.7317 5.86002C94.4717 5.86002 94.3417 6.00003 94.3417 6.27003V10.01ZM94.7317 13.34C94.4717 13.34 94.3417 13.48 94.3417 13.75V17.49H87.5117V2.53003H100.682L101.962 3.85003V12.01L100.682 13.33H94.7417L94.7317 13.34Z" fill="#003556" stroke="#003556" stroke-width="1.13" stroke-miterlimit="10"/>
<path d="M10.3817 10.35H17.2117V17.42H2.76172V2.45996H9.59172V13.68C9.59172 13.95 9.72172 14.09 9.98172 14.09C10.2417 14.09 10.3717 13.95 10.3717 13.68V10.35H10.3817Z" fill="#003556" stroke="#003556" stroke-width="1.13" stroke-miterlimit="10"/>
<path d="M26.5012 2.46997H19.2812V17.43H26.5012V2.46997Z" fill="#003556" stroke="#003556" stroke-width="1.13" stroke-miterlimit="10"/>
<path d="M39.0103 9.94997C39.0103 10.22 39.1403 10.36 39.4003 10.36C39.6603 10.36 39.7903 10.22 39.7903 9.94997V2.46997H43.0103V17.43H32.5703V9.94997C32.5703 9.67997 32.4403 9.53997 32.1803 9.53997C31.9203 9.53997 31.7903 9.67997 31.7903 9.94997V17.43H28.5703V2.46997H39.0103V9.94997Z" fill="#003556" stroke="#003556" stroke-width="1.13" stroke-miterlimit="10"/>
<path d="M59.532 10.35V17.42H45.082V2.45996H59.532V5.78996H52.312C52.052 5.78996 51.922 5.92996 51.922 6.19996C51.922 6.46996 52.052 6.60995 52.312 6.60995H59.532V9.53996H52.312C52.052 9.53996 51.922 9.67996 51.922 9.94996C51.922 10.22 52.052 10.36 52.312 10.36H59.532V10.35Z" fill="#003556" stroke="#003556" stroke-width="1.13" stroke-miterlimit="10"/>
<path d="M68.8333 8.28003H61.6133V11.61H68.8333V8.28003Z" fill="#003556" stroke="#003556" stroke-width="1.13" stroke-miterlimit="10"/>
<path d="M85.3719 2.46997V16.1L84.0919 17.42H72.2019L70.9219 16.1V2.46997H77.7519V9.94997C77.7519 10.08 77.7919 10.18 77.8819 10.27C77.9719 10.36 78.0819 10.38 78.2019 10.36C78.3119 10.34 78.3919 10.3 78.4519 10.22C78.5019 10.14 78.5319 10.05 78.5319 9.92997V2.46997H85.3619H85.3719Z" fill="#003556" stroke="#003556" stroke-width="1.13" stroke-miterlimit="10"/>
<path d="M94.2714 9.94997C94.2714 10.22 94.4014 10.36 94.6614 10.36C94.9214 10.36 95.0514 10.22 95.0514 9.94997V6.20998C95.0514 5.93998 94.9214 5.79997 94.6614 5.79997C94.4014 5.79997 94.2714 5.93998 94.2714 6.20998V9.94997ZM94.6614 13.28C94.4014 13.28 94.2714 13.42 94.2714 13.69V17.43H87.4414V2.46997H100.611L101.891 3.78997V11.95L100.611 13.27H94.6714L94.6614 13.28Z" fill="#003556" stroke="#003556" stroke-width="1.13" stroke-miterlimit="10"/>
<path d="M10.3014 10.2899H17.1314V17.3599H2.69141V2.3999H9.52141V13.6199C9.52141 13.8899 9.65141 14.0299 9.91141 14.0299C10.1714 14.0299 10.3014 13.8899 10.3014 13.6199V10.2899Z" fill="#003556" stroke="#003556" stroke-width="1.13" stroke-miterlimit="10"/>
<path d="M26.4231 2.3999H19.2031V17.3599H26.4231V2.3999Z" fill="#003556" stroke="#003556" stroke-width="1.13" stroke-miterlimit="10"/>
<path d="M38.9322 9.87991C38.9322 10.1499 39.0622 10.2899 39.3222 10.2899C39.5822 10.2899 39.7122 10.1499 39.7122 9.87991V2.3999H42.9322V17.3599H32.4922V9.87991C32.4922 9.60991 32.3622 9.4699 32.1022 9.4699C31.8422 9.4699 31.7122 9.60991 31.7122 9.87991V17.3599H28.4922V2.3999H38.9322V9.87991Z" fill="#003556" stroke="#003556" stroke-width="1.13" stroke-miterlimit="10"/>
<path d="M59.45 10.2899V17.3599H45V2.3999H59.45V5.7299H52.23C51.97 5.7299 51.84 5.8699 51.84 6.1399C51.84 6.4099 51.97 6.5499 52.23 6.5499H59.45V9.4799H52.23C51.97 9.4799 51.84 9.6199 51.84 9.8899C51.84 10.1599 51.97 10.2999 52.23 10.2999H59.45V10.2899Z" fill="#003556" stroke="#003556" stroke-width="1.13" stroke-miterlimit="10"/>
<path d="M68.7512 8.21997H61.5312V11.55H68.7512V8.21997Z" fill="#003556" stroke="#003556" stroke-width="1.13" stroke-miterlimit="10"/>
<path d="M85.2898 2.3999V16.0299L84.0098 17.3499H72.1198L70.8398 16.0299V2.3999H77.6698V9.87991C77.6698 10.0099 77.7098 10.1099 77.7998 10.1999C77.8898 10.2899 77.9998 10.3099 78.1198 10.2899C78.2298 10.2699 78.3098 10.2299 78.3698 10.1499C78.4198 10.0699 78.4498 9.9799 78.4498 9.8599V2.3999H85.2798H85.2898Z" fill="#003556" stroke="#003556" stroke-width="1.13" stroke-miterlimit="10"/>
<path d="M94.1933 9.87991C94.1933 10.1499 94.3233 10.2899 94.5833 10.2899C94.8433 10.2899 94.9733 10.1499 94.9733 9.87991V6.13991C94.9733 5.86991 94.8433 5.72991 94.5833 5.72991C94.3233 5.72991 94.1933 5.86991 94.1933 6.13991V9.87991ZM94.5833 13.2199C94.3233 13.2199 94.1933 13.3599 94.1933 13.6299V17.3699H87.3633V2.40991H100.533L101.813 3.72991V11.8899L100.533 13.2099H94.5933L94.5833 13.2199Z" fill="#003556" stroke="#003556" stroke-width="1.13" stroke-miterlimit="10"/>
<path d="M10.2294 10.2201H17.0594V17.2901H2.60938V2.33008H9.43937V13.5501C9.43937 13.8201 9.56938 13.9601 9.82938 13.9601C10.0894 13.9601 10.2194 13.8201 10.2194 13.5501V10.2201H10.2294Z" fill="#003556" stroke="#003556" stroke-width="1.13" stroke-miterlimit="10"/>
<path d="M26.3411 2.34009H19.1211V17.3001H26.3411V2.34009Z" fill="#003556" stroke="#003556" stroke-width="1.13" stroke-miterlimit="10"/>
<path d="M38.858 9.82008C38.858 10.0901 38.988 10.2301 39.248 10.2301C39.508 10.2301 39.638 10.0901 39.638 9.82008V2.34009H42.858V17.3001H32.418V9.82008C32.418 9.55008 32.288 9.41009 32.028 9.41009C31.768 9.41009 31.638 9.55008 31.638 9.82008V17.3001H28.418V2.34009H38.858V9.82008Z" fill="#003556" stroke="#003556" stroke-width="1.13" stroke-miterlimit="10"/>
<path d="M59.368 10.2201V17.2901H44.918V2.33008H59.368V5.66008H52.148C51.888 5.66008 51.758 5.80008 51.758 6.07008C51.758 6.34008 51.888 6.48008 52.148 6.48008H59.368V9.41008H52.148C51.888 9.41008 51.758 9.55008 51.758 9.82008C51.758 10.0901 51.888 10.2301 52.148 10.2301H59.368V10.2201Z" fill="#003556" stroke="#003556" stroke-width="1.13" stroke-miterlimit="10"/>
<path d="M68.6809 8.15015H61.4609V11.4801H68.6809V8.15015Z" fill="#003556" stroke="#003556" stroke-width="1.13" stroke-miterlimit="10"/>
<path d="M85.2195 2.34009V15.9701L83.9395 17.2901H72.0495L70.7695 15.9701V2.34009H77.5995V9.82008C77.5995 9.95008 77.6395 10.0501 77.7295 10.1401C77.8195 10.2301 77.9295 10.2501 78.0495 10.2301C78.1595 10.2101 78.2395 10.1701 78.2995 10.0901C78.3495 10.0101 78.3795 9.92009 78.3795 9.80009V2.34009H85.2095H85.2195Z" fill="#003556" stroke="#003556" stroke-width="1.13" stroke-miterlimit="10"/>
<path d="M94.1113 9.82008C94.1113 10.0901 94.2413 10.2301 94.5013 10.2301C94.7613 10.2301 94.8913 10.0901 94.8913 9.82008V6.08009C94.8913 5.81009 94.7613 5.67009 94.5013 5.67009C94.2413 5.67009 94.1113 5.81009 94.1113 6.08009V9.82008ZM94.5013 13.1501C94.2413 13.1501 94.1113 13.2901 94.1113 13.5601V17.3001H87.2812V2.34009H100.451L101.731 3.66009V11.8201L100.451 13.1401H94.5113L94.5013 13.1501Z" fill="#003556" stroke="#003556" stroke-width="1.13" stroke-miterlimit="10"/>
<path d="M10.1512 10.16H16.9813V17.23H2.53125V2.27002H9.36125V13.49C9.36125 13.76 9.49125 13.9 9.75125 13.9C10.0113 13.9 10.1412 13.76 10.1412 13.49V10.16H10.1512Z" fill="#003556" stroke="#003556" stroke-width="1.13" stroke-miterlimit="10"/>
<path d="M26.2708 2.28003H19.0508V17.24H26.2708V2.28003Z" fill="#003556" stroke="#003556" stroke-width="1.13" stroke-miterlimit="10"/>
<path d="M38.7798 9.75002C38.7798 10.02 38.9098 10.16 39.1698 10.16C39.4298 10.16 39.5598 10.02 39.5598 9.75002V2.27002H42.7798V17.23H32.3398V9.75002C32.3398 9.48002 32.2098 9.34002 31.9498 9.34002C31.6898 9.34002 31.5598 9.48002 31.5598 9.75002V17.23H28.3398V2.27002H38.7798V9.75002Z" fill="#003556" stroke="#003556" stroke-width="1.13" stroke-miterlimit="10"/>
<path d="M59.3016 10.16V17.23H44.8516V2.27002H59.3016V5.60002H52.0816C51.8216 5.60002 51.6916 5.74002 51.6916 6.01002C51.6916 6.28002 51.8216 6.42002 52.0816 6.42002H59.3016V9.35002H52.0816C51.8216 9.35002 51.6916 9.49002 51.6916 9.76002C51.6916 10.03 51.8216 10.17 52.0816 10.17H59.3016V10.16Z" fill="#003556" stroke="#003556" stroke-width="1.13" stroke-miterlimit="10"/>
<path d="M68.6028 8.09009H61.3828V11.4201H68.6028V8.09009Z" fill="#003556" stroke="#003556" stroke-width="1.13" stroke-miterlimit="10"/>
<path d="M85.1414 2.28003V15.91L83.8614 17.23H71.9714L70.6914 15.91V2.28003H77.5214V9.76003C77.5214 9.89003 77.5614 9.99002 77.6514 10.08C77.7414 10.17 77.8514 10.19 77.9714 10.17C78.0814 10.15 78.1614 10.11 78.2214 10.03C78.2714 9.95003 78.3014 9.86003 78.3014 9.74003V2.28003H85.1314H85.1414Z" fill="#003556" stroke="#003556" stroke-width="1.13" stroke-miterlimit="10"/>
<path d="M94.0409 9.75002C94.0409 10.02 94.1709 10.16 94.4309 10.16C94.6909 10.16 94.8209 10.02 94.8209 9.75002V6.01003C94.8209 5.74003 94.6909 5.60003 94.4309 5.60003C94.1709 5.60003 94.0409 5.74003 94.0409 6.01003V9.75002ZM94.4309 13.09C94.1709 13.09 94.0409 13.23 94.0409 13.5V17.24H87.2109V2.28003H100.381L101.661 3.60003V11.76L100.381 13.08H94.4409L94.4309 13.09Z" fill="#003556" stroke="#003556" stroke-width="1.13" stroke-miterlimit="10"/>
<path d="M10.0709 10.1H16.9009V17.17H2.46094V2.20996H9.29094V13.43C9.29094 13.7 9.42094 13.84 9.68094 13.84C9.94094 13.84 10.0709 13.7 10.0709 13.43V10.1Z" fill="#003556" stroke="#003556" stroke-width="1.13" stroke-miterlimit="10"/>
<path d="M26.1927 2.20996H18.9727V17.17H26.1927V2.20996Z" fill="#003556" stroke="#003556" stroke-width="1.13" stroke-miterlimit="10"/>
<path d="M38.7017 9.68996C38.7017 9.95996 38.8317 10.1 39.0917 10.1C39.3517 10.1 39.4817 9.95996 39.4817 9.68996V2.20996H42.7017V17.17H32.2617V9.68996C32.2617 9.41996 32.1317 9.27996 31.8717 9.27996C31.6117 9.27996 31.4817 9.41996 31.4817 9.68996V17.17H28.2617V2.20996H38.7017V9.68996Z" fill="#003556" stroke="#003556" stroke-width="1.13" stroke-miterlimit="10"/>
<path d="M59.2195 10.1V17.17H44.7695V2.20996H59.2195V5.53996H51.9995C51.7395 5.53996 51.6095 5.67996 51.6095 5.94996C51.6095 6.21996 51.7395 6.35995 51.9995 6.35995H59.2195V9.28996H51.9995C51.7395 9.28996 51.6095 9.42996 51.6095 9.69996C51.6095 9.96996 51.7395 10.11 51.9995 10.11H59.2195V10.1Z" fill="#003556" stroke="#003556" stroke-width="1.13" stroke-miterlimit="10"/>
<path d="M68.5325 8.02002H61.3125V11.35H68.5325V8.02002Z" fill="#003556" stroke="#003556" stroke-width="1.13" stroke-miterlimit="10"/>
<path d="M85.0594 2.20996V15.84L83.7794 17.16H71.8894L70.6094 15.84V2.20996H77.4394V9.68996C77.4394 9.81996 77.4794 9.91996 77.5694 10.01C77.6594 10.1 77.7694 10.12 77.8894 10.1C77.9994 10.08 78.0794 10.04 78.1394 9.95996C78.1894 9.87996 78.2194 9.78996 78.2194 9.66996V2.20996H85.0494H85.0594Z" fill="#003556" stroke="#003556" stroke-width="1.13" stroke-miterlimit="10"/>
<path d="M93.9628 9.68996C93.9628 9.95996 94.0928 10.1 94.3528 10.1C94.6128 10.1 94.7428 9.95996 94.7428 9.68996V5.94996C94.7428 5.67996 94.6128 5.53996 94.3528 5.53996C94.0928 5.53996 93.9628 5.67996 93.9628 5.94996V9.68996ZM94.3528 13.02C94.0928 13.02 93.9628 13.16 93.9628 13.43V17.17H87.1328V2.20996H100.303L101.583 3.52996V11.69L100.303 13.01H94.3628L94.3528 13.02Z" fill="#003556" stroke="#003556" stroke-width="1.13" stroke-miterlimit="10"/>
<path d="M9.99891 10.0299H16.8289V17.0999H2.37891V2.13989H9.20891V13.3599C9.20891 13.6299 9.33891 13.7699 9.59891 13.7699C9.85891 13.7699 9.98891 13.6299 9.98891 13.3599V10.0299H9.99891Z" fill="#003556" stroke="#003556" stroke-width="1.13" stroke-miterlimit="10"/>
<path d="M26.1106 2.1499H18.8906V17.1099H26.1106V2.1499Z" fill="#003556" stroke="#003556" stroke-width="1.13" stroke-miterlimit="10"/>
<path d="M38.6275 9.62991C38.6275 9.89991 38.7575 10.0399 39.0175 10.0399C39.2775 10.0399 39.4075 9.89991 39.4075 9.62991V2.1499H42.6275V17.1099H32.1875V9.62991C32.1875 9.35991 32.0575 9.2199 31.7975 9.2199C31.5375 9.2199 31.4075 9.35991 31.4075 9.62991V17.1099H28.1875V2.1499H38.6275V9.62991Z" fill="#003556" stroke="#003556" stroke-width="1.13" stroke-miterlimit="10"/>
<path d="M59.1375 10.0299V17.0999H44.6875V2.13989H59.1375V5.46989H51.9175C51.6575 5.46989 51.5275 5.6099 51.5275 5.8799C51.5275 6.1499 51.6575 6.28989 51.9175 6.28989H59.1375V9.21989H51.9175C51.6575 9.21989 51.5275 9.3599 51.5275 9.6299C51.5275 9.8999 51.6575 10.0399 51.9175 10.0399H59.1375V10.0299Z" fill="#003556" stroke="#003556" stroke-width="1.13" stroke-miterlimit="10"/>
<path d="M68.4505 7.95996H61.2305V11.29H68.4505V7.95996Z" fill="#003556" stroke="#003556" stroke-width="1.13" stroke-miterlimit="10"/>
<path d="M84.9891 2.1499V15.7799L83.7091 17.0999H71.8191L70.5391 15.7799V2.1499H77.3691V9.62991C77.3691 9.75991 77.4091 9.85991 77.4991 9.94991C77.5891 10.0399 77.6991 10.0599 77.8191 10.0399C77.9291 10.0199 78.0091 9.9799 78.0691 9.8999C78.1191 9.8199 78.1491 9.7299 78.1491 9.6099V2.1499H84.9791H84.9891Z" fill="#003556" stroke="#003556" stroke-width="1.13" stroke-miterlimit="10"/>
<path d="M93.8786 9.62991C93.8786 9.89991 94.0086 10.0399 94.2686 10.0399C94.5286 10.0399 94.6586 9.89991 94.6586 9.62991V5.8899C94.6586 5.6199 94.5286 5.4799 94.2686 5.4799C94.0086 5.4799 93.8786 5.6199 93.8786 5.8899V9.62991ZM94.2786 12.9599C94.0186 12.9599 93.8886 13.0999 93.8886 13.3699V17.1099H87.0586V2.1499H100.229L101.509 3.4699V11.6299L100.229 12.9499H94.2886L94.2786 12.9599Z" fill="#003556" stroke="#003556" stroke-width="1.13" stroke-miterlimit="10"/>
<path d="M9.92078 9.97008H16.7508V17.0401H2.30078V2.08008H9.13078V13.3001C9.13078 13.5701 9.26078 13.7101 9.52078 13.7101C9.78078 13.7101 9.91078 13.5701 9.91078 13.3001V9.97008H9.92078Z" fill="#003556" stroke="#003556" stroke-width="1.13" stroke-miterlimit="10"/>
<path d="M26.0403 2.08008H18.8203V17.0401H26.0403V2.08008Z" fill="#003556" stroke="#003556" stroke-width="1.13" stroke-miterlimit="10"/>
<path d="M38.5494 9.56008C38.5494 9.83008 38.6794 9.97008 38.9394 9.97008C39.1994 9.97008 39.3294 9.83008 39.3294 9.56008V2.08008H42.5494V17.0401H32.1094V9.56008C32.1094 9.29008 31.9794 9.15008 31.7194 9.15008C31.4594 9.15008 31.3294 9.29008 31.3294 9.56008V17.0401H28.1094V2.08008H38.5494V9.56008Z" fill="#003556" stroke="#003556" stroke-width="1.13" stroke-miterlimit="10"/>
<path d="M59.0711 9.97008V17.0401H44.6211V2.08008H59.0711V5.41008H51.8511C51.5911 5.41008 51.4611 5.55008 51.4611 5.82008C51.4611 6.09008 51.5911 6.23008 51.8511 6.23008H59.0711V9.16008H51.8511C51.5911 9.16008 51.4611 9.30008 51.4611 9.57008C51.4611 9.84008 51.5911 9.98008 51.8511 9.98008H59.0711V9.97008Z" fill="#003556" stroke="#003556" stroke-width="1.13" stroke-miterlimit="10"/>
<path d="M68.3723 7.90015H61.1523V11.2301H68.3723V7.90015Z" fill="#003556" stroke="#003556" stroke-width="1.13" stroke-miterlimit="10"/>
<path d="M84.9109 2.08008V15.7101L83.6309 17.0301H71.7409L70.4609 15.7101V2.08008H77.2909V9.56008C77.2909 9.69008 77.3309 9.79008 77.4209 9.88008C77.5109 9.97008 77.6209 9.99008 77.7409 9.97008C77.8509 9.95008 77.9309 9.91008 77.9909 9.83008C78.0409 9.75008 78.0709 9.66008 78.0709 9.54008V2.08008H84.9009H84.9109Z" fill="#003556" stroke="#003556" stroke-width="1.13" stroke-miterlimit="10"/>
<path d="M93.8105 9.56009C93.8105 9.83009 93.9405 9.97009 94.2005 9.97009C94.4605 9.97009 94.5905 9.83009 94.5905 9.56009V5.82008C94.5905 5.55008 94.4605 5.41009 94.2005 5.41009C93.9405 5.41009 93.8105 5.55008 93.8105 5.82008V9.56009ZM94.2005 12.9001C93.9405 12.9001 93.8105 13.0401 93.8105 13.3101V17.0501H86.9805V2.09009H100.15L101.43 3.41009V11.5701L100.15 12.8901H94.2105L94.2005 12.9001Z" fill="#003556" stroke="#003556" stroke-width="1.13" stroke-miterlimit="10"/>
<path d="M9.84047 9.91002H16.6705V16.98H2.23047V2.02002H9.06047V13.24C9.06047 13.51 9.19047 13.65 9.45047 13.65C9.71047 13.65 9.84047 13.51 9.84047 13.24V9.91002Z" fill="#003556" stroke="#003556" stroke-width="1.13" stroke-miterlimit="10"/>
<path d="M25.9622 2.02002H18.7422V16.98H25.9622V2.02002Z" fill="#003556" stroke="#003556" stroke-width="1.13" stroke-miterlimit="10"/>
<path d="M38.4712 9.50002C38.4712 9.77002 38.6012 9.91002 38.8612 9.91002C39.1212 9.91002 39.2513 9.77002 39.2513 9.50002V2.02002H42.4712V16.98H32.0312V9.50002C32.0312 9.23002 31.9013 9.09002 31.6413 9.09002C31.3813 9.09002 31.2512 9.23002 31.2512 9.50002V16.98H28.0312V2.02002H38.4712V9.50002Z" fill="#003556" stroke="#003556" stroke-width="1.13" stroke-miterlimit="10"/>
<path d="M58.9891 9.91002V16.98H44.5391V2.02002H58.9891V5.35002H51.7691C51.5091 5.35002 51.3791 5.49002 51.3791 5.76002C51.3791 6.03002 51.5091 6.17002 51.7691 6.17002H58.9891V9.10002H51.7691C51.5091 9.10002 51.3791 9.24002 51.3791 9.51002C51.3791 9.78002 51.5091 9.92002 51.7691 9.92002H58.9891V9.91002Z" fill="#003556" stroke="#003556" stroke-width="1.13" stroke-miterlimit="10"/>
<path d="M68.302 7.83008H61.082V11.1601H68.302V7.83008Z" fill="#003556" stroke="#003556" stroke-width="1.13" stroke-miterlimit="10"/>
<path d="M84.8289 2.02002V15.65L83.5489 16.97H71.6589L70.3789 15.65V2.02002H77.2089V9.50002C77.2089 9.63002 77.2489 9.73001 77.3389 9.82001C77.4289 9.91002 77.5389 9.93002 77.6589 9.91002C77.7689 9.89002 77.8489 9.85002 77.9089 9.77002C77.9589 9.69002 77.9889 9.60002 77.9889 9.48002V2.02002H84.8189H84.8289Z" fill="#003556" stroke="#003556" stroke-width="1.13" stroke-miterlimit="10"/>
<path d="M93.7323 9.50002C93.7323 9.77002 93.8623 9.91002 94.1223 9.91002C94.3823 9.91002 94.5123 9.77002 94.5123 9.50002V5.76002C94.5123 5.49002 94.3823 5.35002 94.1223 5.35002C93.8623 5.35002 93.7323 5.49002 93.7323 5.76002V9.50002ZM94.1223 12.83C93.8623 12.83 93.7323 12.97 93.7323 13.24V16.98H86.9023V2.02002H100.072L101.352 3.34002V11.5L100.072 12.82H94.1323L94.1223 12.83Z" fill="#003556" stroke="#003556" stroke-width="1.13" stroke-miterlimit="10"/>
<path d="M9.76844 9.83995H16.5984V16.91H2.14844V1.94995H8.97844V13.17C8.97844 13.44 9.10844 13.5799 9.36844 13.5799C9.62844 13.5799 9.75844 13.44 9.75844 13.17V9.83995H9.76844Z" fill="#003556" stroke="#003556" stroke-width="1.13" stroke-miterlimit="10"/>
<path d="M25.8802 1.95996H18.6602V16.92H25.8802V1.95996Z" fill="#003556" stroke="#003556" stroke-width="1.13" stroke-miterlimit="10"/>
<path d="M38.397 9.43996C38.397 9.70996 38.527 9.84996 38.787 9.84996C39.047 9.84996 39.177 9.70996 39.177 9.43996V1.95996H42.397V16.92H31.957V9.43996C31.957 9.16996 31.827 9.02996 31.567 9.02996C31.307 9.02996 31.177 9.16996 31.177 9.43996V16.92H27.957V1.95996H38.397V9.43996Z" fill="#003556" stroke="#003556" stroke-width="1.13" stroke-miterlimit="10"/>
<path d="M58.9188 9.83995V16.91H44.4688V1.94995H58.9188V5.27995H51.6987C51.4387 5.27995 51.3088 5.41995 51.3088 5.68995C51.3088 5.95995 51.4387 6.09995 51.6987 6.09995H58.9188V9.02995H51.6987C51.4387 9.02995 51.3088 9.16995 51.3088 9.43995C51.3088 9.70995 51.4387 9.84995 51.6987 9.84995H58.9188V9.83995Z" fill="#003556" stroke="#003556" stroke-width="1.13" stroke-miterlimit="10"/>
<path d="M68.22 7.77002H61V11.1H68.22V7.77002Z" fill="#003556" stroke="#003556" stroke-width="1.13" stroke-miterlimit="10"/>
<path d="M84.7586 1.95996V15.59L83.4786 16.91H71.5886L70.3086 15.59V1.95996H77.1386V9.43996C77.1386 9.56996 77.1786 9.66996 77.2686 9.75996C77.3586 9.84996 77.4686 9.86996 77.5886 9.84996C77.6986 9.82996 77.7786 9.78996 77.8386 9.70996C77.8886 9.62996 77.9186 9.53996 77.9186 9.41996V1.95996H84.7486H84.7586Z" fill="#003556" stroke="#003556" stroke-width="1.13" stroke-miterlimit="10"/>
<path d="M93.6481 9.43996C93.6481 9.70996 93.7781 9.84996 94.0381 9.84996C94.2981 9.84996 94.4281 9.70996 94.4281 9.43996V5.69996C94.4281 5.42996 94.2981 5.28996 94.0381 5.28996C93.7781 5.28996 93.6481 5.42996 93.6481 5.69996V9.43996ZM94.0481 12.77C93.7881 12.77 93.6581 12.91 93.6581 13.18V16.92H86.8281V1.95996H99.9981L101.278 3.27996V11.44L99.9981 12.76H94.0581L94.0481 12.77Z" fill="#003556" stroke="#003556" stroke-width="1.13" stroke-miterlimit="10"/>
<path d="M9.69031 9.7799H16.5203V16.8499H2.07031V1.88989H8.90031V13.1099C8.90031 13.3799 9.03031 13.5199 9.29031 13.5199C9.55031 13.5199 9.68031 13.3799 9.68031 13.1099V9.7799H9.69031Z" fill="#003556" stroke="#003556" stroke-width="1.13" stroke-miterlimit="10"/>
<path d="M25.8098 1.88989H18.5898V16.8499H25.8098V1.88989Z" fill="#003556" stroke="#003556" stroke-width="1.13" stroke-miterlimit="10"/>
<path d="M38.3189 9.3699C38.3189 9.6399 38.4489 9.7799 38.7089 9.7799C38.9689 9.7799 39.0989 9.6399 39.0989 9.3699V1.88989H42.3189V16.8499H31.8789V9.3699C31.8789 9.0999 31.7489 8.9599 31.4889 8.9599C31.2289 8.9599 31.0989 9.0999 31.0989 9.3699V16.8499H27.8789V1.88989H38.3189V9.3699Z" fill="#003556" stroke="#003556" stroke-width="1.13" stroke-miterlimit="10"/>
<path d="M58.8406 9.7799V16.8499H44.3906V1.88989H58.8406V5.21989H51.6206C51.3606 5.21989 51.2306 5.3599 51.2306 5.6299C51.2306 5.8999 51.3606 6.03989 51.6206 6.03989H58.8406V8.96989H51.6206C51.3606 8.96989 51.2306 9.1099 51.2306 9.3799C51.2306 9.6499 51.3606 9.78989 51.6206 9.78989H58.8406V9.7799Z" fill="#003556" stroke="#003556" stroke-width="1.13" stroke-miterlimit="10"/>
<path d="M68.1419 7.70996H60.9219V11.04H68.1419V7.70996Z" fill="#003556" stroke="#003556" stroke-width="1.13" stroke-miterlimit="10"/>
<path d="M84.6805 1.88989V15.5199L83.4005 16.8399H71.5105L70.2305 15.5199V1.88989H77.0605V9.3699C77.0605 9.4999 77.1005 9.5999 77.1905 9.6899C77.2805 9.7799 77.3905 9.7999 77.5105 9.7799C77.6205 9.7599 77.7005 9.71989 77.7605 9.63989C77.8105 9.55989 77.8405 9.4699 77.8405 9.3499V1.88989H84.6705H84.6805Z" fill="#003556" stroke="#003556" stroke-width="1.13" stroke-miterlimit="10"/>
<path d="M93.58 9.3699C93.58 9.6399 93.71 9.77991 93.97 9.77991C94.23 9.77991 94.36 9.6399 94.36 9.3699V5.62991C94.36 5.35991 94.23 5.2199 93.97 5.2199C93.71 5.2199 93.58 5.35991 93.58 5.62991V9.3699ZM93.97 12.7099C93.71 12.7099 93.58 12.8499 93.58 13.1199V16.8599H86.75V1.8999H99.92L101.2 3.2199V11.3799L99.92 12.6999H93.98L93.97 12.7099Z" fill="#003556" stroke="#003556" stroke-width="1.13" stroke-miterlimit="10"/>
<path d="M9.61 9.72008H16.44V16.7901H2V1.83008H8.83V13.0501C8.83 13.3201 8.96 13.4601 9.22 13.4601C9.48 13.4601 9.61 13.3201 9.61 13.0501V9.72008Z" fill="#003556" stroke="#003556" stroke-width="1.13" stroke-miterlimit="10"/>
<path d="M25.7317 1.83008H18.5117V16.7901H25.7317V1.83008Z" fill="#003556" stroke="#003556" stroke-width="1.13" stroke-miterlimit="10"/>
<path d="M38.2408 9.31008C38.2408 9.58008 38.3708 9.72008 38.6308 9.72008C38.8908 9.72008 39.0208 9.58008 39.0208 9.31008V1.83008H42.2408V16.7901H31.8008V9.31008C31.8008 9.04008 31.6708 8.90008 31.4108 8.90008C31.1508 8.90008 31.0208 9.04008 31.0208 9.31008V16.7901H27.8008V1.83008H38.2408V9.31008Z" fill="#003556" stroke="#003556" stroke-width="1.13" stroke-miterlimit="10"/>
<path d="M58.7586 9.72008V16.7901H44.3086V1.83008H58.7586V5.16008H51.5386C51.2786 5.16008 51.1486 5.30008 51.1486 5.57008C51.1486 5.84008 51.2786 5.98008 51.5386 5.98008H58.7586V8.91008H51.5386C51.2786 8.91008 51.1486 9.05008 51.1486 9.32008C51.1486 9.59008 51.2786 9.73008 51.5386 9.73008H58.7586V9.72008Z" fill="#003556" stroke="#003556" stroke-width="1.13" stroke-miterlimit="10"/>
<path d="M68.0716 7.64014H60.8516V10.9701H68.0716V7.64014Z" fill="#003556" stroke="#003556" stroke-width="1.13" stroke-miterlimit="10"/>
<path d="M84.5984 1.83008V15.4601L83.3184 16.7801H71.4284L70.1484 15.4601V1.83008H76.9784V9.31008C76.9784 9.44008 77.0184 9.54008 77.1084 9.63008C77.1984 9.72008 77.3084 9.74008 77.4284 9.72008C77.5384 9.70008 77.6184 9.66008 77.6784 9.58008C77.7284 9.50008 77.7584 9.41008 77.7584 9.29008V1.83008H84.5884H84.5984Z" fill="#003556" stroke="#003556" stroke-width="1.13" stroke-miterlimit="10"/>
<path d="M93.5019 9.31008C93.5019 9.58008 93.6319 9.72008 93.8919 9.72008C94.1519 9.72008 94.2819 9.58008 94.2819 9.31008V5.57008C94.2819 5.30008 94.1519 5.16008 93.8919 5.16008C93.6319 5.16008 93.5019 5.30008 93.5019 5.57008V9.31008ZM93.8919 12.6401C93.6319 12.6401 93.5019 12.7801 93.5019 13.0501V16.7901H86.6719V1.83008H99.8419L101.122 3.15008V11.3101L99.8419 12.6301H93.9019L93.8919 12.6401Z" fill="#003556" stroke="#003556" stroke-width="1.13" stroke-miterlimit="10"/>
<path d="M9.54188 9.65001H16.3719V16.72H1.92188V1.76001H8.75188V12.98C8.75188 13.25 8.88188 13.39 9.14187 13.39C9.40187 13.39 9.53188 13.25 9.53188 12.98V9.65001H9.54188Z" fill="#003556" stroke="#003556" stroke-width="1.13" stroke-miterlimit="10"/>
<path d="M25.6536 1.77002H18.4336V16.73H25.6536V1.77002Z" fill="#003556" stroke="#003556" stroke-width="1.13" stroke-miterlimit="10"/>
<path d="M38.1705 9.25002C38.1705 9.52002 38.3005 9.66002 38.5605 9.66002C38.8205 9.66002 38.9505 9.52002 38.9505 9.25002V1.77002H42.1705V16.73H31.7305V9.25002C31.7305 8.98002 31.6005 8.84002 31.3405 8.84002C31.0805 8.84002 30.9505 8.98002 30.9505 9.25002V16.73H27.7305V1.77002H38.1705V9.25002Z" fill="#003556" stroke="#003556" stroke-width="1.13" stroke-miterlimit="10"/>
<path d="M58.6922 9.65001V16.72H44.2422V1.76001H58.6922V5.09001H51.4722C51.2122 5.09001 51.0822 5.23001 51.0822 5.50001C51.0822 5.77001 51.2122 5.91001 51.4722 5.91001H58.6922V8.84001H51.4722C51.2122 8.84001 51.0822 8.98001 51.0822 9.25001C51.0822 9.52001 51.2122 9.66001 51.4722 9.66001H58.6922V9.65001Z" fill="#003556" stroke="#003556" stroke-width="1.13" stroke-miterlimit="10"/>
<path d="M67.9934 7.58008H60.7734V10.9101H67.9934V7.58008Z" fill="#003556" stroke="#003556" stroke-width="1.13" stroke-miterlimit="10"/>
<path d="M84.532 1.77002V15.4L83.252 16.72H71.362L70.082 15.4V1.77002H76.912V9.25002C76.912 9.38002 76.952 9.48001 77.042 9.57001C77.132 9.66002 77.242 9.68002 77.362 9.66002C77.472 9.64002 77.552 9.60002 77.612 9.52002C77.662 9.44002 77.692 9.35002 77.692 9.23002V1.77002H84.522H84.532Z" fill="#003556" stroke="#003556" stroke-width="1.13" stroke-miterlimit="10"/>
<path d="M93.4216 9.25002C93.4216 9.52002 93.5516 9.66002 93.8116 9.66002C94.0716 9.66002 94.2016 9.52002 94.2016 9.25002V5.51002C94.2016 5.24002 94.0716 5.10002 93.8116 5.10002C93.5516 5.10002 93.4216 5.24002 93.4216 5.51002V9.25002ZM93.8216 12.58C93.5616 12.58 93.4316 12.72 93.4316 12.99V16.73H86.6016V1.77002H99.7716L101.052 3.09002V11.25L99.7716 12.57H93.8316L93.8216 12.58Z" fill="#003556" stroke="#003556" stroke-width="1.13" stroke-miterlimit="10"/>
<path d="M9.46156 9.58995H16.2916V16.66H1.85156V1.69995H8.68156V12.92C8.68156 13.19 8.81156 13.3299 9.07156 13.3299C9.33156 13.3299 9.46156 13.19 9.46156 12.92V9.58995Z" fill="#003556" stroke="#003556" stroke-width="1.13" stroke-miterlimit="10"/>
<path d="M25.5833 1.69995H18.3633V16.66H25.5833V1.69995Z" fill="#003556" stroke="#003556" stroke-width="1.13" stroke-miterlimit="10"/>
<path d="M38.0923 9.17995C38.0923 9.44995 38.2223 9.58995 38.4823 9.58995C38.7423 9.58995 38.8723 9.44995 38.8723 9.17995V1.69995H42.0923V16.66H31.6523V9.17995C31.6523 8.90995 31.5223 8.76995 31.2623 8.76995C31.0023 8.76995 30.8723 8.90995 30.8723 9.17995V16.66H27.6523V1.69995H38.0923V9.17995Z" fill="#003556" stroke="#003556" stroke-width="1.13" stroke-miterlimit="10"/>
<path d="M58.6102 9.58995V16.66H44.1602V1.69995H58.6102V5.02995H51.3902C51.1302 5.02995 51.0002 5.16995 51.0002 5.43995C51.0002 5.70995 51.1302 5.84995 51.3902 5.84995H58.6102V8.77995H51.3902C51.1302 8.77995 51.0002 8.91995 51.0002 9.18995C51.0002 9.45995 51.1302 9.59995 51.3902 9.59995H58.6102V9.58995Z" fill="#003556" stroke="#003556" stroke-width="1.13" stroke-miterlimit="10"/>
<path d="M67.9114 7.51001H60.6914V10.84H67.9114V7.51001Z" fill="#003556" stroke="#003556" stroke-width="1.13" stroke-miterlimit="10"/>
<path d="M84.45 1.69995V15.3299L83.17 16.6499H71.28L70 15.3299V1.69995H76.83V9.17995C76.83 9.30995 76.87 9.40995 76.96 9.49995C77.05 9.58995 77.16 9.60995 77.28 9.58995C77.39 9.56995 77.47 9.52995 77.53 9.44995C77.58 9.36995 77.61 9.27995 77.61 9.15995V1.69995H84.44H84.45Z" fill="#003556" stroke="#003556" stroke-width="1.13" stroke-miterlimit="10"/>
<path d="M93.3534 9.17995C93.3534 9.44995 93.4834 9.58996 93.7434 9.58996C94.0034 9.58996 94.1334 9.44995 94.1334 9.17995V5.43996C94.1334 5.16996 94.0034 5.02996 93.7434 5.02996C93.4834 5.02996 93.3534 5.16996 93.3534 5.43996V9.17995ZM93.7434 12.52C93.4834 12.52 93.3534 12.66 93.3534 12.93V16.67H86.5234V1.70996H99.6934L100.973 3.02996V11.19L99.6934 12.51H93.7534L93.7434 12.52Z" fill="#003556" stroke="#003556" stroke-width="1.13" stroke-miterlimit="10"/>
<path d="M9.38953 9.51988H16.2195V16.5899H1.76953V1.62988H8.59953V12.8499C8.59953 13.1199 8.72953 13.2599 8.98953 13.2599C9.24953 13.2599 9.37953 13.1199 9.37953 12.8499V9.51988H9.38953Z" fill="#003556" stroke="#003556" stroke-width="1.13" stroke-miterlimit="10"/>
<path d="M25.5012 1.63989H18.2812V16.5999H25.5012V1.63989Z" fill="#003556" stroke="#003556" stroke-width="1.13" stroke-miterlimit="10"/>
<path d="M38.0103 9.1199C38.0103 9.3899 38.1403 9.5299 38.4003 9.5299C38.6603 9.5299 38.7903 9.3899 38.7903 9.1199V1.63989H42.0103V16.5999H31.5703V9.1199C31.5703 8.8499 31.4403 8.7099 31.1803 8.7099C30.9203 8.7099 30.7903 8.8499 30.7903 9.1199V16.5999H27.5703V1.63989H38.0103V9.1199Z" fill="#003556" stroke="#003556" stroke-width="1.13" stroke-miterlimit="10"/>
<path d="M58.5281 9.51988V16.5899H44.0781V1.62988H58.5281V4.95988H51.3081C51.0481 4.95988 50.9181 5.09988 50.9181 5.36988C50.9181 5.63988 51.0481 5.77988 51.3081 5.77988H58.5281V8.70988H51.3081C51.0481 8.70988 50.9181 8.84988 50.9181 9.11988C50.9181 9.38988 51.0481 9.52988 51.3081 9.52988H58.5281V9.51988Z" fill="#003556" stroke="#003556" stroke-width="1.13" stroke-miterlimit="10"/>
<path d="M67.8411 7.44995H60.6211V10.78H67.8411V7.44995Z" fill="#003556" stroke="#003556" stroke-width="1.13" stroke-miterlimit="10"/>
<path d="M84.3797 1.63989V15.2699L83.0997 16.5899H71.2097L69.9297 15.2699V1.63989H76.7597V9.1199C76.7597 9.2499 76.7997 9.3499 76.8897 9.4399C76.9797 9.5299 77.0897 9.5499 77.2097 9.5299C77.3197 9.5099 77.3997 9.46989 77.4597 9.38989C77.5097 9.30989 77.5397 9.2199 77.5397 9.0999V1.63989H84.3697H84.3797Z" fill="#003556" stroke="#003556" stroke-width="1.13" stroke-miterlimit="10"/>
<path d="M93.2714 9.1199C93.2714 9.3899 93.4014 9.5299 93.6614 9.5299C93.9214 9.5299 94.0514 9.3899 94.0514 9.1199V5.3799C94.0514 5.1099 93.9214 4.96989 93.6614 4.96989C93.4014 4.96989 93.2714 5.1099 93.2714 5.3799V9.1199ZM93.6614 12.4499C93.4014 12.4499 93.2714 12.5899 93.2714 12.8599V16.5999H86.4414V1.63989H99.6114L100.891 2.9599V11.1199L99.6114 12.4399H93.6714L93.6614 12.4499Z" fill="#003556" stroke="#003556" stroke-width="1.13" stroke-miterlimit="10"/>
<path d="M9.31141 9.46008H16.1414V16.5301H1.69141V1.57007H8.52141V12.7901C8.52141 13.0601 8.65141 13.2001 8.91141 13.2001C9.17141 13.2001 9.30141 13.0601 9.30141 12.7901V9.46008H9.31141Z" fill="#003556" stroke="#003556" stroke-width="1.13" stroke-miterlimit="10"/>
<path d="M25.4309 1.57007H18.2109V16.5301H25.4309V1.57007Z" fill="#003556" stroke="#003556" stroke-width="1.13" stroke-miterlimit="10"/>
<path d="M37.94 9.05007C37.94 9.32007 38.07 9.46008 38.33 9.46008C38.59 9.46008 38.72 9.32007 38.72 9.05007V1.57007H41.94V16.5301H31.5V9.05007C31.5 8.78007 31.37 8.64007 31.11 8.64007C30.85 8.64007 30.72 8.78007 30.72 9.05007V16.5301H27.5V1.57007H37.94V9.05007Z" fill="#003556" stroke="#003556" stroke-width="1.13" stroke-miterlimit="10"/>
<path d="M58.4617 9.46008V16.5301H44.0117V1.57007H58.4617V4.90007H51.2417C50.9817 4.90007 50.8517 5.04007 50.8517 5.31007C50.8517 5.58007 50.9817 5.72007 51.2417 5.72007H58.4617V8.65007H51.2417C50.9817 8.65007 50.8517 8.79007 50.8517 9.06007C50.8517 9.33007 50.9817 9.47007 51.2417 9.47007H58.4617V9.46008Z" fill="#003556" stroke="#003556" stroke-width="1.13" stroke-miterlimit="10"/>
<path d="M67.763 7.39014H60.543V10.7201H67.763V7.39014Z" fill="#003556" stroke="#003556" stroke-width="1.13" stroke-miterlimit="10"/>
<path d="M84.3016 1.57007V15.2001L83.0216 16.5201H71.1316L69.8516 15.2001V1.57007H76.6816V9.05007C76.6816 9.18007 76.7216 9.28007 76.8116 9.37007C76.9016 9.46007 77.0116 9.48008 77.1316 9.46008C77.2416 9.44008 77.3216 9.40007 77.3816 9.32007C77.4316 9.24007 77.4616 9.15007 77.4616 9.03008V1.57007H84.2916H84.3016Z" fill="#003556" stroke="#003556" stroke-width="1.13" stroke-miterlimit="10"/>
<path d="M93.2011 9.05008C93.2011 9.32008 93.3311 9.46008 93.5911 9.46008C93.8511 9.46008 93.9811 9.32008 93.9811 9.05008V5.31008C93.9811 5.04008 93.8511 4.90008 93.5911 4.90008C93.3311 4.90008 93.2011 5.04008 93.2011 5.31008V9.05008ZM93.5911 12.3901C93.3311 12.3901 93.2011 12.5301 93.2011 12.8001V16.5401H86.3711V1.58008H99.5411L100.821 2.90008V11.0601L99.5411 12.3801H93.6011L93.5911 12.3901Z" fill="#003556" stroke="#003556" stroke-width="1.13" stroke-miterlimit="10"/>
<path d="M9.23109 9.40001H16.0611V16.47H1.62109V1.51001H8.45109V12.73C8.45109 13 8.58109 13.14 8.84109 13.14C9.10109 13.14 9.23109 13 9.23109 12.73V9.40001Z" fill="#003556" stroke="#003556" stroke-width="1.13" stroke-miterlimit="10"/>
<path d="M25.3528 1.51001H18.1328V16.47H25.3528V1.51001Z" fill="#003556" stroke="#003556" stroke-width="1.13" stroke-miterlimit="10"/>
<path d="M37.8619 8.99001C37.8619 9.26001 37.9919 9.40001 38.2519 9.40001C38.5119 9.40001 38.6419 9.26001 38.6419 8.99001V1.51001H41.8619V16.47H31.4219V8.99001C31.4219 8.72001 31.2919 8.58001 31.0319 8.58001C30.7719 8.58001 30.6419 8.72001 30.6419 8.99001V16.47H27.4219V1.51001H37.8619V8.99001Z" fill="#003556" stroke="#003556" stroke-width="1.13" stroke-miterlimit="10"/>
<path d="M58.3797 9.40001V16.47H43.9297V1.51001H58.3797V4.84001H51.1597C50.8997 4.84001 50.7697 4.98001 50.7697 5.25001C50.7697 5.52001 50.8997 5.66001 51.1597 5.66001H58.3797V8.59001H51.1597C50.8997 8.59001 50.7697 8.73001 50.7697 9.00001C50.7697 9.27001 50.8997 9.41001 51.1597 9.41001H58.3797V9.40001Z" fill="#003556" stroke="#003556" stroke-width="1.13" stroke-miterlimit="10"/>
<path d="M67.6809 7.32007H60.4609V10.6501H67.6809V7.32007Z" fill="#003556" stroke="#003556" stroke-width="1.13" stroke-miterlimit="10"/>
<path d="M84.2195 1.51001V15.14L82.9395 16.46H71.0495L69.7695 15.14V1.51001H76.5995V8.99001C76.5995 9.12001 76.6395 9.22001 76.7295 9.31001C76.8195 9.40001 76.9295 9.42001 77.0495 9.40001C77.1595 9.38001 77.2395 9.34001 77.2995 9.26001C77.3495 9.18001 77.3795 9.09001 77.3795 8.97001V1.51001H84.2095H84.2195Z" fill="#003556" stroke="#003556" stroke-width="1.13" stroke-miterlimit="10"/>
<path d="M93.123 8.99001C93.123 9.26001 93.253 9.40001 93.513 9.40001C93.773 9.40001 93.903 9.26001 93.903 8.99001V5.25001C93.903 4.98001 93.773 4.84001 93.513 4.84001C93.253 4.84001 93.123 4.98001 93.123 5.25001V8.99001ZM93.513 12.32C93.253 12.32 93.123 12.46 93.123 12.73V16.47H86.293V1.51001H99.463L100.743 2.83001V10.99L99.463 12.31H93.523L93.513 12.32Z" fill="#003556" stroke="#003556" stroke-width="1.13" stroke-miterlimit="10"/>
<path d="M9.15906 9.32994H15.9891V16.3999H1.53906V1.43994H8.36906V12.6599C8.36906 12.9299 8.49906 13.0699 8.75906 13.0699C9.01906 13.0699 9.14906 12.9299 9.14906 12.6599V9.32994H9.15906Z" fill="#003556" stroke="#003556" stroke-width="1.13" stroke-miterlimit="10"/>
<path d="M25.2708 1.44995H18.0508V16.41H25.2708V1.44995Z" fill="#003556" stroke="#003556" stroke-width="1.13" stroke-miterlimit="10"/>
<path d="M37.7877 8.92995C37.7877 9.19995 37.9177 9.33995 38.1777 9.33995C38.4377 9.33995 38.5677 9.19995 38.5677 8.92995V1.44995H41.7877V16.41H31.3477V8.92995C31.3477 8.65995 31.2177 8.51995 30.9577 8.51995C30.6977 8.51995 30.5677 8.65995 30.5677 8.92995V16.41H27.3477V1.44995H37.7877V8.92995Z" fill="#003556" stroke="#003556" stroke-width="1.13" stroke-miterlimit="10"/>
<path d="M58.2977 9.32994V16.3999H43.8477V1.43994H58.2977V4.76994H51.0777C50.8177 4.76994 50.6877 4.90994 50.6877 5.17994C50.6877 5.44994 50.8177 5.58994 51.0777 5.58994H58.2977V8.51994H51.0777C50.8177 8.51994 50.6877 8.65994 50.6877 8.92994C50.6877 9.19994 50.8177 9.33994 51.0777 9.33994H58.2977V9.32994Z" fill="#003556" stroke="#003556" stroke-width="1.13" stroke-miterlimit="10"/>
<path d="M67.6106 7.26001H60.3906V10.59H67.6106V7.26001Z" fill="#003556" stroke="#003556" stroke-width="1.13" stroke-miterlimit="10"/>
<path d="M84.1492 1.44995V15.0799L82.8692 16.3999H70.9792L69.6992 15.0799V1.44995H76.5292V8.92995C76.5292 9.05995 76.5692 9.15995 76.6592 9.24995C76.7492 9.33995 76.8592 9.35995 76.9792 9.33995C77.0892 9.31995 77.1692 9.27995 77.2292 9.19995C77.2792 9.11995 77.3092 9.02995 77.3092 8.90995V1.44995H84.1392H84.1492Z" fill="#003556" stroke="#003556" stroke-width="1.13" stroke-miterlimit="10"/>
<path d="M93.0387 8.92995C93.0387 9.19995 93.1687 9.33995 93.4287 9.33995C93.6887 9.33995 93.8187 9.19995 93.8187 8.92995V5.18995C93.8187 4.91995 93.6887 4.77995 93.4287 4.77995C93.1687 4.77995 93.0387 4.91995 93.0387 5.18995V8.92995ZM93.4388 12.2599C93.1788 12.2599 93.0488 12.4 93.0488 12.67V16.41H86.2188V1.44995H99.3887L100.669 2.76995V10.9299L99.3887 12.2499H93.4488L93.4388 12.2599Z" fill="#003556" stroke="#003556" stroke-width="1.13" stroke-miterlimit="10"/>
<path d="M9.08094 9.26988H15.9109V16.3399H1.46094V1.37988H8.29094V12.5999C8.29094 12.8699 8.42094 13.0099 8.68094 13.0099C8.94094 13.0099 9.07094 12.8699 9.07094 12.5999V9.26988H9.08094Z" fill="#003556" stroke="#003556" stroke-width="1.13" stroke-miterlimit="10"/>
<path d="M25.2005 1.37988H17.9805V16.3399H25.2005V1.37988Z" fill="#003556" stroke="#003556" stroke-width="1.13" stroke-miterlimit="10"/>
<path d="M37.7095 8.85988C37.7095 9.12988 37.8395 9.26988 38.0995 9.26988C38.3595 9.26988 38.4895 9.12988 38.4895 8.85988V1.37988H41.7095V16.3399H31.2695V8.85988C31.2695 8.58988 31.1395 8.44988 30.8795 8.44988C30.6195 8.44988 30.4895 8.58988 30.4895 8.85988V16.3399H27.2695V1.37988H37.7095V8.85988Z" fill="#003556" stroke="#003556" stroke-width="1.13" stroke-miterlimit="10"/>
<path d="M58.2313 9.26988V16.3399H43.7812V1.37988H58.2313V4.70988H51.0112C50.7512 4.70988 50.6213 4.84988 50.6213 5.11988C50.6213 5.38988 50.7512 5.52988 51.0112 5.52988H58.2313V8.45988H51.0112C50.7512 8.45988 50.6213 8.59988 50.6213 8.86988C50.6213 9.13988 50.7512 9.27988 51.0112 9.27988H58.2313V9.26988Z" fill="#003556" stroke="#003556" stroke-width="1.13" stroke-miterlimit="10"/>
<path d="M67.5325 7.19995H60.3125V10.53H67.5325V7.19995Z" fill="#003556" stroke="#003556" stroke-width="1.13" stroke-miterlimit="10"/>
<path d="M84.0711 1.37988V15.0099L82.7911 16.3299H70.9011L69.6211 15.0099V1.37988H76.4511V8.85988C76.4511 8.98988 76.4911 9.08988 76.5811 9.17988C76.6711 9.26988 76.7811 9.28988 76.9011 9.26988C77.0111 9.24988 77.0911 9.20988 77.1511 9.12988C77.2011 9.04988 77.2311 8.95988 77.2311 8.83988V1.37988H84.0611H84.0711Z" fill="#003556" stroke="#003556" stroke-width="1.13" stroke-miterlimit="10"/>
<path d="M92.9706 8.85989C92.9706 9.12989 93.1006 9.2699 93.3606 9.2699C93.6206 9.2699 93.7506 9.12989 93.7506 8.85989V5.1199C93.7506 4.8499 93.6206 4.7099 93.3606 4.7099C93.1006 4.7099 92.9706 4.8499 92.9706 5.1199V8.85989ZM93.3606 12.1999C93.1006 12.1999 92.9706 12.3399 92.9706 12.6099V16.3499H86.1406V1.38989H99.3106L100.591 2.7099V10.8699L99.3106 12.1899H93.3706L93.3606 12.1999Z" fill="#003556" stroke="#003556" stroke-width="1.13" stroke-miterlimit="10"/>
<path d="M9.00063 9.21008H15.8306V16.2801H1.39062V1.32007H8.22063V12.5401C8.22063 12.8101 8.35063 12.9501 8.61063 12.9501C8.87063 12.9501 9.00063 12.8101 9.00063 12.5401V9.21008Z" fill="#003556" stroke="#003556" stroke-width="1.13" stroke-miterlimit="10"/>
<path d="M25.1223 1.32007H17.9023V16.2801H25.1223V1.32007Z" fill="#003556" stroke="#003556" stroke-width="1.13" stroke-miterlimit="10"/>
<path d="M37.6314 8.80007C37.6314 9.07007 37.7614 9.21008 38.0214 9.21008C38.2814 9.21008 38.4114 9.07007 38.4114 8.80007V1.32007H41.6314V16.2801H31.1914V8.80007C31.1914 8.53007 31.0614 8.39007 30.8014 8.39007C30.5414 8.39007 30.4114 8.53007 30.4114 8.80007V16.2801H27.1914V1.32007H37.6314V8.80007Z" fill="#003556" stroke="#003556" stroke-width="1.13" stroke-miterlimit="10"/>
<path d="M58.1492 9.21008V16.2801H43.6992V1.32007H58.1492V4.65007H50.9292C50.6692 4.65007 50.5392 4.79007 50.5392 5.06007C50.5392 5.33007 50.6692 5.47007 50.9292 5.47007H58.1492V8.40007H50.9292C50.6692 8.40007 50.5392 8.54007 50.5392 8.81007C50.5392 9.08007 50.6692 9.22007 50.9292 9.22007H58.1492V9.21008Z" fill="#003556" stroke="#003556" stroke-width="1.13" stroke-miterlimit="10"/>
<path d="M67.4622 7.13013H60.2422V10.4601H67.4622V7.13013Z" fill="#003556" stroke="#003556" stroke-width="1.13" stroke-miterlimit="10"/>
<path d="M83.9891 1.32007V14.9501L82.7091 16.2701H70.8191L69.5391 14.9501V1.32007H76.3691V8.80007C76.3691 8.93007 76.4091 9.03007 76.4991 9.12007C76.5891 9.21007 76.6991 9.23008 76.8191 9.21008C76.9291 9.19008 77.0091 9.15007 77.0691 9.07007C77.1191 8.99007 77.1491 8.90007 77.1491 8.78008V1.32007H83.9791H83.9891Z" fill="#003556" stroke="#003556" stroke-width="1.13" stroke-miterlimit="10"/>
<path d="M92.8925 8.80007C92.8925 9.07007 93.0225 9.21008 93.2825 9.21008C93.5425 9.21008 93.6725 9.07007 93.6725 8.80007V5.06007C93.6725 4.79007 93.5425 4.65007 93.2825 4.65007C93.0225 4.65007 92.8925 4.79007 92.8925 5.06007V8.80007ZM93.2825 12.1301C93.0225 12.1301 92.8925 12.2701 92.8925 12.5401V16.2801H86.0625V1.32007H99.2325L100.512 2.64007V10.8001L99.2325 12.1201H93.2925L93.2825 12.1301Z" fill="#003556" stroke="#003556" stroke-width="1.13" stroke-miterlimit="10"/>
<path d="M8.92859 9.14H15.7586V16.21H1.30859V1.25H8.13859V12.47C8.13859 12.74 8.26859 12.88 8.52859 12.88C8.78859 12.88 8.91859 12.74 8.91859 12.47V9.14H8.92859Z" fill="#003556" stroke="#003556" stroke-width="1.13" stroke-miterlimit="10"/>
<path d="M25.0403 1.26001H17.8203V16.22H25.0403V1.26001Z" fill="#003556" stroke="#003556" stroke-width="1.13" stroke-miterlimit="10"/>
<path d="M37.5572 8.74001C37.5572 9.01001 37.6872 9.15001 37.9472 9.15001C38.2072 9.15001 38.3372 9.01001 38.3372 8.74001V1.26001H41.5572V16.22H31.1172V8.74001C31.1172 8.47001 30.9872 8.33001 30.7272 8.33001C30.4672 8.33001 30.3372 8.47001 30.3372 8.74001V16.22H27.1172V1.26001H37.5572V8.74001Z" fill="#003556" stroke="#003556" stroke-width="1.13" stroke-miterlimit="10"/>
<path d="M58.0672 9.14V16.21H43.6172V1.25H58.0672V4.58H50.8472C50.5872 4.58 50.4572 4.72001 50.4572 4.99001C50.4572 5.26001 50.5872 5.4 50.8472 5.4H58.0672V8.33H50.8472C50.5872 8.33 50.4572 8.47001 50.4572 8.74001C50.4572 9.01001 50.5872 9.15 50.8472 9.15H58.0672V9.14Z" fill="#003556" stroke="#003556" stroke-width="1.13" stroke-miterlimit="10"/>
<path d="M67.3802 7.07007H60.1602V10.4001H67.3802V7.07007Z" fill="#003556" stroke="#003556" stroke-width="1.13" stroke-miterlimit="10"/>
<path d="M83.9188 1.26001V14.89L82.6387 16.21H70.7487L69.4688 14.89V1.26001H76.2988V8.74001C76.2988 8.87001 76.3387 8.97001 76.4287 9.06001C76.5187 9.15001 76.6287 9.17001 76.7487 9.15001C76.8587 9.13001 76.9387 9.09001 76.9987 9.01001C77.0487 8.93001 77.0788 8.84001 77.0788 8.72001V1.26001H83.9088H83.9188Z" fill="#003556" stroke="#003556" stroke-width="1.13" stroke-miterlimit="10"/>
<path d="M92.8083 8.74001C92.8083 9.01001 92.9383 9.15001 93.1983 9.15001C93.4583 9.15001 93.5883 9.01001 93.5883 8.74001V5.00001C93.5883 4.73001 93.4583 4.59001 93.1983 4.59001C92.9383 4.59001 92.8083 4.73001 92.8083 5.00001V8.74001ZM93.2083 12.07C92.9483 12.07 92.8183 12.21 92.8183 12.48V16.22H85.9883V1.26001H99.1583L100.438 2.58001V10.74L99.1583 12.06H93.2183L93.2083 12.07Z" fill="#003556" stroke="#003556" stroke-width="1.13" stroke-miterlimit="10"/>
<path d="M8.85047 9.07994H15.6805V16.1499H1.23047V1.18994H8.06047V12.4099C8.06047 12.6799 8.19047 12.8199 8.45047 12.8199C8.71047 12.8199 8.84047 12.6799 8.84047 12.4099V9.07994H8.85047Z" fill="#003556" stroke="#003556" stroke-width="1.13" stroke-miterlimit="10"/>
<path d="M24.97 1.18994H17.75V16.1499H24.97V1.18994Z" fill="#003556" stroke="#003556" stroke-width="1.13" stroke-miterlimit="10"/>
<path d="M37.4791 8.66994C37.4791 8.93994 37.6091 9.07994 37.8691 9.07994C38.1291 9.07994 38.2591 8.93994 38.2591 8.66994V1.18994H41.4791V16.1499H31.0391V8.66994C31.0391 8.39994 30.9091 8.25994 30.6491 8.25994C30.3891 8.25994 30.2591 8.39994 30.2591 8.66994V16.1499H27.0391V1.18994H37.4791V8.66994Z" fill="#003556" stroke="#003556" stroke-width="1.13" stroke-miterlimit="10"/>
<path d="M58.0008 9.07994V16.1499H43.5508V1.18994H58.0008V4.51994H50.7808C50.5208 4.51994 50.3908 4.65994 50.3908 4.92994C50.3908 5.19994 50.5208 5.33994 50.7808 5.33994H58.0008V8.26994H50.7808C50.5208 8.26994 50.3908 8.40994 50.3908 8.67994C50.3908 8.94994 50.5208 9.08994 50.7808 9.08994H58.0008V9.07994Z" fill="#003556" stroke="#003556" stroke-width="1.13" stroke-miterlimit="10"/>
<path d="M67.302 7.01001H60.082V10.34H67.302V7.01001Z" fill="#003556" stroke="#003556" stroke-width="1.13" stroke-miterlimit="10"/>
<path d="M83.8406 1.18994V14.8199L82.5606 16.1399H70.6706L69.3906 14.8199V1.18994H76.2206V8.66994C76.2206 8.79994 76.2606 8.89994 76.3506 8.98994C76.4406 9.07994 76.5506 9.09994 76.6706 9.07994C76.7806 9.05994 76.8606 9.01994 76.9206 8.93994C76.9706 8.85994 77.0006 8.76994 77.0006 8.64994V1.18994H83.8306H83.8406Z" fill="#003556" stroke="#003556" stroke-width="1.13" stroke-miterlimit="10"/>
<path d="M92.7402 8.66995C92.7402 8.93995 92.8702 9.07995 93.1302 9.07995C93.3902 9.07995 93.5202 8.93995 93.5202 8.66995V4.92995C93.5202 4.65995 93.3902 4.51995 93.1302 4.51995C92.8702 4.51995 92.7402 4.65995 92.7402 4.92995V8.66995ZM93.1302 12.0099C92.8702 12.0099 92.7402 12.15 92.7402 12.42V16.16H85.9102V1.19995H99.0802L100.36 2.51995V10.6799L99.0802 11.9999H93.1402L93.1302 12.0099Z" fill="#003556" stroke="#003556" stroke-width="1.13" stroke-miterlimit="10"/>
<path d="M8.77016 9.01988H15.6002V16.0899H1.16016V1.12988H7.99016V12.3499C7.99016 12.6199 8.12016 12.7599 8.38016 12.7599C8.64016 12.7599 8.77016 12.6199 8.77016 12.3499V9.01988Z" fill="#003556" stroke="#003556" stroke-width="1.13" stroke-miterlimit="10"/>
<path d="M24.8919 1.12988H17.6719V16.0899H24.8919V1.12988Z" fill="#003556" stroke="#003556" stroke-width="1.13" stroke-miterlimit="10"/>
<path d="M37.4009 8.60988C37.4009 8.87988 37.5309 9.01988 37.7909 9.01988C38.0509 9.01988 38.1809 8.87988 38.1809 8.60988V1.12988H41.4009V16.0899H30.9609V8.60988C30.9609 8.33988 30.8309 8.19988 30.5709 8.19988C30.3109 8.19988 30.1809 8.33988 30.1809 8.60988V16.0899H26.9609V1.12988H37.4009V8.60988Z" fill="#003556" stroke="#003556" stroke-width="1.13" stroke-miterlimit="10"/>
<path d="M57.9188 9.01988V16.0899H43.4688V1.12988H57.9188V4.45988H50.6987C50.4387 4.45988 50.3088 4.59988 50.3088 4.86988C50.3088 5.13988 50.4387 5.27988 50.6987 5.27988H57.9188V8.20988H50.6987C50.4387 8.20988 50.3088 8.34988 50.3088 8.61988C50.3088 8.88988 50.4387 9.02988 50.6987 9.02988H57.9188V9.01988Z" fill="#003556" stroke="#003556" stroke-width="1.13" stroke-miterlimit="10"/>
<path d="M67.2317 6.93994H60.0117V10.2699H67.2317V6.93994Z" fill="#003556" stroke="#003556" stroke-width="1.13" stroke-miterlimit="10"/>
<path d="M83.7586 1.12988V14.7599L82.4786 16.0799H70.5886L69.3086 14.7599V1.12988H76.1386V8.60988C76.1386 8.73988 76.1786 8.83988 76.2686 8.92988C76.3586 9.01988 76.4686 9.03988 76.5886 9.01988C76.6986 8.99988 76.7786 8.95988 76.8386 8.87988C76.8886 8.79988 76.9186 8.70988 76.9186 8.58988V1.12988H83.7486H83.7586Z" fill="#003556" stroke="#003556" stroke-width="1.13" stroke-miterlimit="10"/>
<path d="M92.662 8.60988C92.662 8.87988 92.792 9.01988 93.052 9.01988C93.312 9.01988 93.442 8.87988 93.442 8.60988V4.86988C93.442 4.59988 93.312 4.45988 93.052 4.45988C92.792 4.45988 92.662 4.59988 92.662 4.86988V8.60988ZM93.052 11.9399C92.792 11.9399 92.662 12.0799 92.662 12.3499V16.0899H85.832V1.12988H99.002L100.282 2.44988V10.6099L99.002 11.9299H93.062L93.052 11.9399Z" fill="#003556" stroke="#003556" stroke-width="1.13" stroke-miterlimit="10"/>
<path d="M8.69813 8.95006H15.5281V16.0201H1.07812V1.06006H7.90812V12.2801C7.90812 12.5501 8.03813 12.6901 8.29813 12.6901C8.55813 12.6901 8.68813 12.5501 8.68813 12.2801V8.95006H8.69813Z" fill="#003556" stroke="#003556" stroke-width="1.13" stroke-miterlimit="10"/>
<path d="M24.8098 1.07007H17.5898V16.0301H24.8098V1.07007Z" fill="#003556" stroke="#003556" stroke-width="1.13" stroke-miterlimit="10"/>
<path d="M37.3267 8.55007C37.3267 8.82007 37.4567 8.96008 37.7167 8.96008C37.9767 8.96008 38.1067 8.82007 38.1067 8.55007V1.07007H41.3267V16.0301H30.8867V8.55007C30.8867 8.28007 30.7567 8.14007 30.4967 8.14007C30.2367 8.14007 30.1067 8.28007 30.1067 8.55007V16.0301H26.8867V1.07007H37.3267V8.55007Z" fill="#003556" stroke="#003556" stroke-width="1.13" stroke-miterlimit="10"/>
<path d="M57.8484 8.95006V16.0201H43.3984V1.06006H57.8484V4.39005H50.6284C50.3684 4.39005 50.2384 4.53006 50.2384 4.80006C50.2384 5.07006 50.3684 5.21006 50.6284 5.21006H57.8484V8.14005H50.6284C50.3684 8.14005 50.2384 8.28006 50.2384 8.55006C50.2384 8.82006 50.3684 8.96006 50.6284 8.96006H57.8484V8.95006Z" fill="#003556" stroke="#003556" stroke-width="1.13" stroke-miterlimit="10"/>
<path d="M67.1497 6.88013H59.9297V10.2101H67.1497V6.88013Z" fill="#003556" stroke="#003556" stroke-width="1.13" stroke-miterlimit="10"/>
<path d="M83.6883 1.07007V14.7001L82.4083 16.0201H70.5183L69.2383 14.7001V1.07007H76.0683V8.55007C76.0683 8.68007 76.1083 8.78007 76.1983 8.87007C76.2883 8.96007 76.3983 8.98008 76.5183 8.96008C76.6283 8.94008 76.7083 8.90007 76.7683 8.82007C76.8183 8.74007 76.8483 8.65007 76.8483 8.53008V1.07007H83.6783H83.6883Z" fill="#003556" stroke="#003556" stroke-width="1.13" stroke-miterlimit="10"/>
<path d="M92.5778 8.55007C92.5778 8.82007 92.7078 8.96008 92.9678 8.96008C93.2278 8.96008 93.3578 8.82007 93.3578 8.55007V4.81007C93.3578 4.54007 93.2278 4.40007 92.9678 4.40007C92.7078 4.40007 92.5778 4.54007 92.5778 4.81007V8.55007ZM92.9778 11.8801C92.7178 11.8801 92.5878 12.0201 92.5878 12.2901V16.0301H85.7578V1.07007H98.9278L100.208 2.39007V10.5501L98.9278 11.8701H92.9878L92.9778 11.8801Z" fill="#003556" stroke="#003556" stroke-width="1.13" stroke-miterlimit="10"/>
<path d="M8.62 8.89H15.45V15.96H1V1H7.83V12.22C7.83 12.49 7.96 12.63 8.22 12.63C8.48 12.63 8.61 12.49 8.61 12.22V8.89H8.62Z" fill="#003556" stroke="#003556" stroke-width="1.13" stroke-miterlimit="10"/>
<path d="M17.5195 1H24.7395V15.96H17.5195V1Z" fill="#003556" stroke="#003556" stroke-width="1.13" stroke-miterlimit="10"/>
<path d="M37.2486 8.48C37.2486 8.75 37.3786 8.89 37.6386 8.89C37.8986 8.89 38.0286 8.75 38.0286 8.48V1H41.2486V15.96H30.8086V8.48C30.8086 8.21 30.6786 8.07 30.4186 8.07C30.1586 8.07 30.0286 8.21 30.0286 8.48V15.96H26.8086V1H37.2486V8.48Z" fill="#003556" stroke="#003556" stroke-width="1.13" stroke-miterlimit="10"/>
<path d="M57.7703 8.89V15.96H43.3203V1H57.7703V4.33H50.5503C50.2903 4.33 50.1603 4.47001 50.1603 4.74001C50.1603 5.01001 50.2903 5.15 50.5503 5.15H57.7703V8.08H50.5503C50.2903 8.08 50.1603 8.22001 50.1603 8.49001C50.1603 8.76001 50.2903 8.9 50.5503 8.9H57.7703V8.89Z" fill="#003556" stroke="#003556" stroke-width="1.13" stroke-miterlimit="10"/>
<path d="M59.8516 6.81006H67.0716V10.1401H59.8516V6.81006Z" fill="#003556" stroke="#003556" stroke-width="1.13" stroke-miterlimit="10"/>
<path d="M83.6102 1V14.63L82.3302 15.95H70.4402L69.1602 14.63V1H75.9902V8.48C75.9902 8.61 76.0302 8.71 76.1202 8.8C76.2102 8.89 76.3202 8.91 76.4402 8.89C76.5502 8.88 76.6302 8.83 76.6902 8.75C76.7402 8.67 76.7702 8.58001 76.7702 8.46001V1H83.6002H83.6102Z" fill="#003556" stroke="#003556" stroke-width="1.13" stroke-miterlimit="10"/>
<path d="M92.5097 8.48C92.5097 8.75 92.6397 8.89 92.8997 8.89C93.1597 8.89 93.2897 8.75 93.2897 8.48V4.74001C93.2897 4.47001 93.1597 4.33 92.8997 4.33C92.6397 4.33 92.5097 4.47001 92.5097 4.74001V8.48ZM92.8997 11.81C92.6397 11.81 92.5097 11.95 92.5097 12.22V15.96H85.6797V1H98.8497L100.13 2.32V10.48L98.8497 11.8H92.9097L92.8997 11.81Z" fill="#003556" stroke="#003556" stroke-width="1.13" stroke-miterlimit="10"/>
<path d="M8.62 8.89H15.45V15.96H1V1H7.83V12.22C7.83 12.49 7.96 12.63 8.22 12.63C8.48 12.63 8.61 12.49 8.61 12.22V8.89H8.62Z" fill="white" stroke="#003556" stroke-width="1.13" stroke-miterlimit="10"/>
<path d="M17.5195 1H24.7395V15.96H17.5195V1Z" fill="white" stroke="#003556" stroke-width="1.13" stroke-miterlimit="10"/>
<path d="M37.2486 8.48C37.2486 8.75 37.3786 8.89 37.6386 8.89C37.8986 8.89 38.0286 8.75 38.0286 8.48V1H41.2486V15.96H30.8086V8.48C30.8086 8.21 30.6786 8.07 30.4186 8.07C30.1586 8.07 30.0286 8.21 30.0286 8.48V15.96H26.8086V1H37.2486V8.48Z" fill="white" stroke="#003556" stroke-width="1.13" stroke-miterlimit="10"/>
<path d="M57.7703 8.89V15.96H43.3203V1H57.7703V4.33H50.5503C50.2903 4.33 50.1603 4.47001 50.1603 4.74001C50.1603 5.01001 50.2903 5.15 50.5503 5.15H57.7703V8.08H50.5503C50.2903 8.08 50.1603 8.22001 50.1603 8.49001C50.1603 8.76001 50.2903 8.9 50.5503 8.9H57.7703V8.89Z" fill="white" stroke="#003556" stroke-width="1.13" stroke-miterlimit="10"/>
<path d="M59.8516 6.81006H67.0716V10.1401H59.8516V6.81006Z" fill="white" stroke="#003556" stroke-width="1.13" stroke-miterlimit="10"/>
<path d="M83.6102 1V14.63L82.3302 15.95H70.4402L69.1602 14.63V1H75.9902V8.48C75.9902 8.61 76.0302 8.71 76.1202 8.8C76.2102 8.89 76.3202 8.91 76.4402 8.89C76.5502 8.88 76.6302 8.83 76.6902 8.75C76.7402 8.67 76.7702 8.58001 76.7702 8.46001V1H83.6002H83.6102Z" fill="white" stroke="#003556" stroke-width="1.13" stroke-miterlimit="10"/>
<path d="M92.8997 11.81C92.6397 11.81 92.5097 11.95 92.5097 12.22V15.96H85.6797V1H98.8497L100.13 2.32V10.48L98.8497 11.8H92.9097L92.8997 11.81ZM92.5097 8.48C92.5097 8.75 92.6397 8.89 92.8997 8.89C93.1597 8.89 93.2897 8.75 93.2897 8.48V4.74001C93.2897 4.47001 93.1597 4.33 92.8997 4.33C92.6397 4.33 92.5097 4.47001 92.5097 4.74001V8.48Z" fill="white" stroke="#003556" stroke-width="1.13" stroke-miterlimit="10"/>
</svg>
