<svg width="32" height="32" viewBox="0 0 32 32" fill="none" xmlns="http://www.w3.org/2000/svg">
<path d="M15.5457 30.7728C7.18282 30.7728 0.375 23.9536 0.375 15.5739C0.375 7.19417 7.18282 0.375 15.5457 0.375C23.9087 0.375 30.7165 7.19417 30.7165 15.5739C30.7165 23.9536 23.9087 30.7728 15.5457 30.7728Z" fill="#E5E2D1" stroke="#003556" stroke-width="0.75"/>
<path d="M27.6287 13.1196L24.0898 15.4203" stroke="#352A11" stroke-width="0.47" stroke-miterlimit="10" stroke-linecap="round"/>
<path d="M28.4545 14.6841L19.4336 16.785" stroke="#352A11" stroke-width="0.47" stroke-miterlimit="10" stroke-linecap="round"/>
<path d="M25.0623 13.1196L24.7773 18.172" stroke="#352A11" stroke-width="0.47" stroke-miterlimit="10" stroke-linecap="round"/>
<path d="M25.8566 13.6851L22.0898 18.6404" stroke="#352A11" stroke-width="0.47" stroke-miterlimit="10" stroke-linecap="round"/>
<path d="M26.5696 17.1672L22.9453 15.249" stroke="#352A11" stroke-width="0.47" stroke-miterlimit="10" stroke-linecap="round"/>
<path d="M23.6157 13.6851L21.3477 17.1675" stroke="#352A11" stroke-width="0.47" stroke-miterlimit="10" stroke-linecap="round"/>
<path d="M23.6143 21.2715L20.2578 18.6396" stroke="#352A11" stroke-width="0.47" stroke-miterlimit="10" stroke-linecap="round"/>
<path d="M24.7545 19.1705L20.5547 17.7832" stroke="#352A11" stroke-width="0.47" stroke-miterlimit="10" stroke-linecap="round"/>
<path d="M25.8544 18.1718L20.5547 17.167" stroke="#352A11" stroke-width="0.47" stroke-miterlimit="10" stroke-linecap="round"/>
<path d="M21.0235 15.6484L19.4336 20.501" stroke="#352A11" stroke-width="0.47" stroke-miterlimit="10" stroke-linecap="round"/>
<path d="M24.0878 19.9531L20.5547 20.9465" stroke="#352A11" stroke-width="0.47" stroke-miterlimit="10" stroke-linecap="round"/>
<path d="M24.9218 18.6396L21.9414 19.1706" stroke="#352A11" stroke-width="0.47" stroke-miterlimit="10" stroke-linecap="round"/>
<path d="M22.0882 17.167L20.2305 19.9529" stroke="#352A11" stroke-width="0.47" stroke-miterlimit="10" stroke-linecap="round"/>
<path d="M19.8794 20.501L18.375 18.0747" stroke="#352A11" stroke-width="0.47" stroke-miterlimit="10" stroke-linecap="round"/>
<path d="M25.854 17.6695L22.4805 16.7847" stroke="#352A11" stroke-width="0.47" stroke-miterlimit="10" stroke-linecap="round"/>
<path d="M21.941 14.2725L19.4336 16.1621" stroke="#352A11" stroke-width="0.47" stroke-miterlimit="10" stroke-linecap="round"/>
<path d="M19.4334 17.6699L17.6953 19.2855" stroke="#352A11" stroke-width="0.47" stroke-miterlimit="10" stroke-linecap="round"/>
<path d="M21.9439 21.8312L18.5703 20.9463" stroke="#352A11" stroke-width="0.47" stroke-miterlimit="10" stroke-linecap="round"/>
<path d="M19.4349 18.6396L18.375 19.9527" stroke="#352A11" stroke-width="0.47" stroke-miterlimit="10" stroke-linecap="round"/>
<path d="M9.09375 15.3804L12.9916 16.9789" stroke="#352A11" stroke-width="0.47" stroke-miterlimit="10" stroke-linecap="round"/>
<path d="M9.90234 13.8105L16.7634 20.039" stroke="#352A11" stroke-width="0.47" stroke-miterlimit="10" stroke-linecap="round"/>
<path d="M10.5508 17.4927L14.8532 14.8438" stroke="#352A11" stroke-width="0.47" stroke-miterlimit="10" stroke-linecap="round"/>
<path d="M10.5586 16.5166L16.7758 16.7963" stroke="#352A11" stroke-width="0.47" stroke-miterlimit="10" stroke-linecap="round"/>
<path d="M13.0117 13.9478L13.5018 18.0239" stroke="#352A11" stroke-width="0.47" stroke-miterlimit="10" stroke-linecap="round"/>
<path d="M11.8359 18.3601L15.9902 18.2402" stroke="#352A11" stroke-width="0.47" stroke-miterlimit="10" stroke-linecap="round"/>
<path d="M18.0597 14.0327L17.8203 18.2973" stroke="#352A11" stroke-width="0.47" stroke-miterlimit="10" stroke-linecap="round"/>
<path d="M15.6914 14.2959L16.9508 18.5433" stroke="#352A11" stroke-width="0.47" stroke-miterlimit="10" stroke-linecap="round"/>
<path d="M14.2383 13.959L16.4379 18.8972" stroke="#352A11" stroke-width="0.47" stroke-miterlimit="10" stroke-linecap="round"/>
<path d="M14.9258 19.377L19.8152 17.9155" stroke="#352A11" stroke-width="0.47" stroke-miterlimit="10" stroke-linecap="round"/>
<path d="M16.7148 14.3931L19.5413 16.7394" stroke="#352A11" stroke-width="0.47" stroke-miterlimit="10" stroke-linecap="round"/>
<path d="M15.1602 14.4609L17.2971 16.6132" stroke="#352A11" stroke-width="0.47" stroke-miterlimit="10" stroke-linecap="round"/>
<path d="M15.5664 17.6351L18.9115 17.5723" stroke="#352A11" stroke-width="0.47" stroke-miterlimit="10" stroke-linecap="round"/>
<path d="M19.5637 17.5498L18.4297 20.1759" stroke="#352A11" stroke-width="0.47" stroke-miterlimit="10" stroke-linecap="round"/>
<path d="M13.8281 14.2446L15.0248 17.5272" stroke="#352A11" stroke-width="0.47" stroke-miterlimit="10" stroke-linecap="round"/>
<path d="M13.2773 19.4048L16.2577 20.3924" stroke="#352A11" stroke-width="0.47" stroke-miterlimit="10" stroke-linecap="round"/>
<path d="M17.4922 19.5308L19.8115 20.0388" stroke="#352A11" stroke-width="0.47" stroke-miterlimit="10" stroke-linecap="round"/>
<path d="M19.4766 15.0947L20.6733 18.3773" stroke="#352A11" stroke-width="0.47" stroke-miterlimit="10" stroke-linecap="round"/>
<path d="M18.2891 18.9766L19.9701 19.1022" stroke="#352A11" stroke-width="0.47" stroke-miterlimit="10" stroke-linecap="round"/>
<path d="M21.7056 22.0243L17.5 21.6875" stroke="#352A11" stroke-width="0.47" stroke-miterlimit="10" stroke-linecap="round"/>
<path d="M21.6914 20.2554L12.7617 22.7045" stroke="#352A11" stroke-width="0.47" stroke-miterlimit="10" stroke-linecap="round"/>
<path d="M19.4527 23.2463L16.8086 18.936" stroke="#352A11" stroke-width="0.47" stroke-miterlimit="10" stroke-linecap="round"/>
<path d="M19.881 22.3732L14.2109 19.8042" stroke="#352A11" stroke-width="0.47" stroke-miterlimit="10" stroke-linecap="round"/>
<path d="M18.8537 18.9707L16.5742 22.3846" stroke="#352A11" stroke-width="0.47" stroke-miterlimit="10" stroke-linecap="round"/>
<path d="M17.9127 23.4408L14.2656 21.4541" stroke="#352A11" stroke-width="0.47" stroke-miterlimit="10" stroke-linecap="round"/>
<path d="M14.315 16.7612L12.6055 20.6718" stroke="#352A11" stroke-width="0.47" stroke-miterlimit="10" stroke-linecap="round"/>
<path d="M16.3069 18.0688L13.2695 21.2887" stroke="#352A11" stroke-width="0.47" stroke-miterlimit="10" stroke-linecap="round"/>
<path d="M17.751 18.4229L13.5625 21.8311" stroke="#352A11" stroke-width="0.47" stroke-miterlimit="10" stroke-linecap="round"/>
<path d="M14.6963 22.9444L10.9922 19.4277" stroke="#352A11" stroke-width="0.47" stroke-miterlimit="10" stroke-linecap="round"/>
<path d="M15.3539 17.6919L11.7695 18.5083" stroke="#352A11" stroke-width="0.47" stroke-miterlimit="10" stroke-linecap="round"/>
<path d="M16.7041 18.4575L13.832 19.4052" stroke="#352A11" stroke-width="0.47" stroke-miterlimit="10" stroke-linecap="round"/>
<path d="M14.9089 21.1002L11.957 19.5303" stroke="#352A11" stroke-width="0.47" stroke-miterlimit="10" stroke-linecap="round"/>
<path d="M11.3897 19.2217L11.2188 22.0704" stroke="#352A11" stroke-width="0.47" stroke-miterlimit="10" stroke-linecap="round"/>
<path d="M17.9926 18.8623L15.4453 21.2486" stroke="#352A11" stroke-width="0.47" stroke-miterlimit="10" stroke-linecap="round"/>
<path d="M16.1586 23.7199L13.0586 23.2461" stroke="#352A11" stroke-width="0.47" stroke-miterlimit="10" stroke-linecap="round"/>
<path d="M12.3356 21.9223L10.0391 21.3286" stroke="#352A11" stroke-width="0.47" stroke-miterlimit="10" stroke-linecap="round"/>
<path d="M12.5668 17.0693L10.0195 19.4557" stroke="#352A11" stroke-width="0.47" stroke-miterlimit="10" stroke-linecap="round"/>
<path d="M11.876 21.0654L10.3203 20.4146" stroke="#352A11" stroke-width="0.47" stroke-miterlimit="10" stroke-linecap="round"/>
<path d="M4.15625 12.4629L7.27338 15.3116" stroke="#352A11" stroke-width="0.47" stroke-miterlimit="10" stroke-linecap="round"/>
<path d="M3.08984 13.873L11.6491 17.4126" stroke="#352A11" stroke-width="0.47" stroke-miterlimit="10" stroke-linecap="round"/>
<path d="M6.6859 12.8853L6.14453 17.9091" stroke="#352A11" stroke-width="0.47" stroke-miterlimit="10" stroke-linecap="round"/>
<path d="M5.8125 13.3081L8.72448 18.8172" stroke="#352A11" stroke-width="0.47" stroke-miterlimit="10" stroke-linecap="round"/>
<path d="M4.54688 16.6301L8.43331 15.3228" stroke="#352A11" stroke-width="0.47" stroke-miterlimit="10" stroke-linecap="round"/>
<path d="M8.01953 13.6733L9.69492 17.4812" stroke="#352A11" stroke-width="0.47" stroke-miterlimit="10" stroke-linecap="round"/>
<path d="M6.78516 21.1576L10.5291 19.1138" stroke="#352A11" stroke-width="0.47" stroke-miterlimit="10" stroke-linecap="round"/>
<path d="M6.01172 18.9024L10.3768 18.2173" stroke="#352A11" stroke-width="0.47" stroke-miterlimit="10" stroke-linecap="round"/>
<path d="M5.08203 17.7382L10.4786 17.6069" stroke="#352A11" stroke-width="0.47" stroke-miterlimit="10" stroke-linecap="round"/>
<path d="M10.2578 16.0308L11.0442 21.0831" stroke="#352A11" stroke-width="0.47" stroke-miterlimit="10" stroke-linecap="round"/>
<path d="M6.53906 19.7871L9.86704 21.3342" stroke="#352A11" stroke-width="0.47" stroke-miterlimit="10" stroke-linecap="round"/>
<path d="M5.92969 18.355L8.79038 19.3655" stroke="#352A11" stroke-width="0.47" stroke-miterlimit="10" stroke-linecap="round"/>
<path d="M8.96094 17.3608L10.34 20.4151" stroke="#352A11" stroke-width="0.47" stroke-miterlimit="10" stroke-linecap="round"/>
<path d="M10.6055 21.0092L12.486 18.8569" stroke="#352A11" stroke-width="0.47" stroke-miterlimit="10" stroke-linecap="round"/>
<path d="M5.16406 17.2414L8.6402 16.916" stroke="#352A11" stroke-width="0.47" stroke-miterlimit="10" stroke-linecap="round"/>
<path d="M9.58203 14.5239L11.7475 16.8018" stroke="#352A11" stroke-width="0.47" stroke-miterlimit="10" stroke-linecap="round"/>
<path d="M11.5039 18.2861L12.957 20.1701" stroke="#352A11" stroke-width="0.47" stroke-miterlimit="10" stroke-linecap="round"/>
<path d="M8.35547 21.9856L11.8316 21.6602" stroke="#352A11" stroke-width="0.47" stroke-miterlimit="10" stroke-linecap="round"/>
<path d="M11.3477 19.2451L12.1796 20.718" stroke="#352A11" stroke-width="0.47" stroke-miterlimit="10" stroke-linecap="round"/>
<path d="M26.3254 15.8537C26.3254 14.4721 21.5614 13.3589 15.6861 13.3589C9.81089 13.3589 5.04688 14.4778 5.04688 15.8537C5.04688 17.2295 5.92446 25.7815 15.6861 25.7815C25.4478 25.7815 26.3254 17.2295 26.3254 15.8537Z" fill="#7F6B3E"/>
<path d="M15.6861 18.3485C21.562 18.3485 26.3254 17.2315 26.3254 15.8537C26.3254 14.4758 21.562 13.3589 15.6861 13.3589C9.81023 13.3589 5.04688 14.4758 5.04688 15.8537C5.04688 17.2315 9.81023 18.3485 15.6861 18.3485Z" fill="#352A11"/>
<path d="M26.3236 15.8537C26.3236 16.2933 25.8392 16.7043 24.9958 17.064H24.9901C23.8846 17.5321 22.1693 17.9089 20.0894 18.1315C18.9952 18.2457 17.8042 18.3199 16.5448 18.3428C16.2599 18.3542 15.975 18.3542 15.6843 18.3542C15.4108 18.3542 15.1373 18.3542 14.8638 18.3428C13.8437 18.3313 12.8635 18.2743 11.9461 18.1943C9.78631 18.0059 7.95706 17.652 6.73186 17.201C5.66623 16.8128 5.05078 16.3504 5.05078 15.8537C5.05078 15.3913 5.59215 14.9574 6.53241 14.5863C7.50687 14.1981 8.91442 13.8784 10.6012 13.6615C11.8492 13.5016 13.251 13.3989 14.7441 13.3703C15.0518 13.3646 15.3652 13.3589 15.6843 13.3589C15.8211 13.3589 15.9522 13.3589 16.0832 13.3646C18.0379 13.376 19.85 13.5187 21.3943 13.7471C23.0868 14.004 24.4545 14.3637 25.315 14.7975C25.9646 15.1172 26.3236 15.4769 26.3236 15.8537Z" fill="#352A11"/>
<path d="M15.6816 18.2108C15.408 18.2108 15.1402 18.2108 14.8667 18.1993C13.9492 18.1879 13.0146 18.1423 12.0117 18.0566C11.1626 17.029 10.6953 15.716 10.6953 14.3573C10.6953 14.1232 10.7067 13.8948 10.7352 13.6779C10.8207 12.8101 11.0543 11.8853 11.419 10.989C11.4817 10.8292 11.5444 10.6807 11.6128 10.5266L11.6698 10.498L11.6584 10.4295C11.7097 10.3154 11.7666 10.2126 11.8236 10.1041C12.9235 7.93474 14.4792 6.64453 15.9836 6.64453C17.2088 6.64453 18.4568 7.48374 19.5053 9.01372C20.457 10.4067 21.1066 12.1822 21.2434 13.7578C21.2605 13.9576 21.2719 14.1632 21.2719 14.3573C21.2719 15.6931 20.8217 16.9834 20.0068 17.9938C18.8956 18.108 17.7274 18.1765 16.5307 18.1993C16.2457 18.2108 15.9665 18.2108 15.6816 18.2108Z" fill="white"/>
<path d="M15.9893 6.78789C17.1633 6.78789 18.3714 7.60996 19.3971 9.09428C20.3203 10.4473 20.9756 12.2399 21.1067 13.7699C21.1238 13.9925 21.1352 14.1866 21.1352 14.3579C21.1352 15.6424 20.7135 16.8812 19.9385 17.8574C18.85 17.9659 17.7046 18.0344 16.5307 18.0573C16.2515 18.0687 15.9666 18.0687 15.6816 18.0687H15.6702C15.4024 18.0687 15.1403 18.0687 14.8667 18.0573C13.972 18.0458 13.066 18.0002 12.0915 17.9202C11.288 16.9269 10.8492 15.6652 10.8492 14.3579C10.8492 14.1295 10.8606 13.9069 10.8891 13.6899C10.9746 12.8393 11.2082 11.9259 11.5672 11.0467C11.6242 10.9097 11.6755 10.7727 11.7382 10.6357L11.8522 10.5786L11.8237 10.4473C11.8693 10.3559 11.9149 10.2646 11.9661 10.1676C13.0375 8.05526 14.5476 6.78789 15.995 6.78789M15.9893 6.50244C14.2456 6.50244 12.6956 8.0838 11.704 10.0362C11.6356 10.1618 11.5729 10.2874 11.5103 10.4187C11.5103 10.4187 11.5217 10.4187 11.5103 10.4245C11.4305 10.5957 11.3621 10.767 11.2937 10.9383C10.9233 11.846 10.684 12.7879 10.5985 13.6614C10.57 13.9012 10.5586 14.1352 10.5586 14.3579C10.5586 15.8308 11.0829 17.1724 11.9434 18.1943C12.8608 18.2742 13.841 18.3313 14.861 18.3427C15.1346 18.3541 15.4081 18.3541 15.6816 18.3541C15.9723 18.3541 16.2572 18.3541 16.5421 18.3427C17.8015 18.3199 18.9925 18.2457 20.0866 18.1315C20.9186 17.121 21.4201 15.8022 21.4201 14.3579C21.4201 14.1581 21.4087 13.9526 21.3916 13.747C21.2548 12.1771 20.5995 10.3559 19.6307 8.93443C18.662 7.52433 17.3912 6.50244 15.9893 6.50244Z" fill="#003556"/>
<path d="M19.1586 10.9457C19.4819 10.8308 19.5579 10.2125 19.3284 9.56472C19.099 8.91696 18.6509 8.48503 18.3276 8.59998C18.0043 8.71492 17.9282 9.33322 18.1577 9.98097C18.3872 10.6287 18.8353 11.0607 19.1586 10.9457Z" fill="#E5E2D1"/>
<path d="M17.714 8.54001C17.9595 8.54001 18.1585 8.34064 18.1585 8.09471C18.1585 7.84878 17.9595 7.64941 17.714 7.64941C17.4685 7.64941 17.2695 7.84878 17.2695 8.09471C17.2695 8.34064 17.4685 8.54001 17.714 8.54001Z" fill="#E5E2D1"/>
<path d="M16.6272 18.1997C15.9263 17.1264 15.6756 15.8248 15.9092 14.5345C15.9719 14.1806 16.0802 13.8038 16.2226 13.4156C16.6557 12.2338 17.4137 11.0407 18.2912 10.1501C18.6218 9.81899 18.9466 9.54496 19.2543 9.33944C19.4082 9.23097 19.5563 9.14533 19.7045 9.0597C20.2345 8.76855 20.7644 8.62012 21.2659 8.62012C21.4141 8.62012 21.5622 8.63153 21.699 8.66008C23.7619 9.03687 25.1068 12.1425 25.1694 14.8029C25.1865 15.2881 25.1523 15.7562 25.0726 16.1958C25.027 16.4641 24.9586 16.7153 24.8788 16.9551C23.7847 17.4061 22.0808 17.7772 20.0692 17.9884C18.9694 18.1026 17.8069 18.1711 16.6159 18.1997H16.6272Z" fill="white"/>
<path d="M21.2666 8.76298C21.4033 8.76298 21.5401 8.7744 21.6769 8.79724C23.6714 9.1569 24.9707 12.194 25.0333 14.8087C25.0504 15.2825 25.0162 15.745 24.9422 16.1731C24.9023 16.4072 24.8453 16.6356 24.7712 16.8525C23.6828 17.2921 22.0188 17.646 20.0642 17.8516C18.9871 17.9657 17.8588 18.0342 16.702 18.0571C16.0581 17.0238 15.8244 15.7906 16.0467 14.5632C16.1094 14.215 16.2119 13.8496 16.3544 13.4671C16.7818 12.3025 17.5283 11.1322 18.3888 10.253C18.7136 9.9276 19.027 9.66499 19.3348 9.45947C19.4601 9.37383 19.5912 9.2882 19.7678 9.19115C20.2807 8.91142 20.7822 8.76869 21.2609 8.76869M21.2666 8.47754C20.7195 8.47754 20.1667 8.64309 19.6368 8.93425C19.4829 9.01988 19.3291 9.11122 19.1752 9.21969C18.8333 9.44805 18.5028 9.7335 18.1893 10.0475C17.2776 10.9723 16.5197 12.1883 16.0866 13.3644C15.9441 13.7526 15.8358 14.1351 15.7674 14.5061C15.511 15.9048 15.8301 17.275 16.5481 18.3425C17.8075 18.3197 18.9985 18.2455 20.0927 18.1313C22.1727 17.9086 23.8879 17.5319 24.9935 17.0637H24.9992C25.096 16.7954 25.1701 16.51 25.2214 16.2188C25.3012 15.7792 25.3354 15.2997 25.3183 14.7973C25.2556 12.1369 23.9278 8.91712 21.7282 8.5175C21.5743 8.48896 21.4204 8.47754 21.2666 8.47754Z" fill="#003556"/>
<path d="M23.7959 12.8736C24.0971 12.8241 24.2617 12.2972 24.1634 11.6967C24.0652 11.0962 23.7413 10.6495 23.44 10.699C23.1388 10.7485 22.9742 11.2754 23.0725 11.8759C23.1707 12.4764 23.4946 12.9231 23.7959 12.8736Z" fill="#E5E2D1"/>
<path d="M22.9752 10.5671C23.1924 10.5671 23.3684 10.3908 23.3684 10.1732C23.3684 9.95566 23.1924 9.7793 22.9752 9.7793C22.7581 9.7793 22.582 9.95566 22.582 10.1732C22.582 10.3908 22.7581 10.5671 22.9752 10.5671Z" fill="#E5E2D1"/>
<path d="M14.7862 18.2002C13.8802 18.1888 12.957 18.1374 11.9654 18.0518C9.88545 17.8691 8.07329 17.5266 6.8538 17.087C6.831 17.0242 6.81391 16.9557 6.80251 16.8929C6.64865 16.2192 6.60876 15.4257 6.68854 14.5979C6.88229 12.5541 7.86815 10.1678 9.57773 9.77389C9.74868 9.73392 9.91964 9.7168 10.102 9.7168C10.5921 9.7168 11.1163 9.86523 11.6577 10.1621C12.786 10.7844 13.9257 12.0346 14.6381 13.4333C14.9002 13.9357 15.094 14.4552 15.2079 14.929C15.4701 16.0537 15.3219 17.2126 14.8033 18.1945L14.7862 18.2002Z" fill="white"/>
<path d="M10.094 9.85966C10.5613 9.85966 11.0628 10.0024 11.5813 10.2878C12.6869 10.893 13.8038 12.1261 14.5047 13.5019C14.7612 13.9929 14.9549 14.501 15.0632 14.9634C15.3082 16.0253 15.1829 17.1157 14.7099 18.0519C13.838 18.0405 12.9433 17.9891 11.9859 17.9092C9.95725 17.7322 8.18499 17.4011 6.97689 16.9787C6.96549 16.9387 6.95409 16.8987 6.9484 16.8645C6.79453 16.208 6.75465 15.4258 6.83443 14.6152C7.02248 12.6171 7.97414 10.2992 9.61533 9.91675C9.7749 9.8825 9.94015 9.85966 10.1054 9.85966M10.094 9.57422C9.90596 9.57422 9.72361 9.59705 9.54125 9.63702C7.79749 10.0423 6.75464 12.3716 6.5438 14.5866C6.46402 15.4201 6.50391 16.2365 6.66347 16.9273C6.68626 17.0186 6.70905 17.11 6.74325 17.2013C7.96844 17.6523 9.79769 18.0063 11.9575 18.1947C12.8749 18.2746 13.8551 18.3317 14.8751 18.3431C15.4279 17.3497 15.6216 16.128 15.3367 14.9006C15.2227 14.4097 15.0233 13.8844 14.7555 13.3706C14.0716 12.0233 12.9433 10.7103 11.7181 10.0366C11.1824 9.74548 10.6354 9.57422 10.094 9.57422Z" fill="#003556"/>
<path d="M12.8836 12.5868C13.1194 12.4353 13.0641 11.9274 12.76 11.4523C12.4559 10.9772 12.0182 10.7149 11.7824 10.8664C11.5466 11.0178 11.602 11.5258 11.9061 12.0008C12.2102 12.4759 12.6479 12.7383 12.8836 12.5868Z" fill="#E5E2D1"/>
<path d="M11.2046 10.9553C11.406 10.9553 11.5693 10.7918 11.5693 10.59C11.5693 10.3882 11.406 10.2246 11.2046 10.2246C11.0031 10.2246 10.8398 10.3882 10.8398 10.59C10.8398 10.7918 11.0031 10.9553 11.2046 10.9553Z" fill="#E5E2D1"/>
<path d="M25.315 14.7919C25.3207 14.8719 25.3207 14.9461 25.3207 15.0203C25.8449 15.2886 26.1242 15.5741 26.1242 15.8538C26.1242 16.1792 25.7537 16.5046 25.0699 16.8129C24.0727 17.2639 22.3973 17.6692 20.2546 17.909C19.1035 18.0403 17.8213 18.1259 16.4252 18.1488C16.1801 18.1545 15.9351 18.1545 15.6843 18.1545C15.4336 18.1545 15.2 18.1545 14.9663 18.1488C13.8266 18.1317 12.761 18.0746 11.7808 17.9775C9.56976 17.772 7.8032 17.4009 6.66348 16.9613H6.65778C5.75171 16.6188 5.25023 16.2306 5.25023 15.8538C5.25023 15.5056 5.70042 15.1345 6.51532 14.8034C6.52102 14.7291 6.52671 14.6606 6.53241 14.5864C5.59215 14.9575 5.05078 15.3914 5.05078 15.8538C5.05078 16.3505 5.66623 16.8129 6.73186 17.2011C6.84583 17.2411 6.9655 17.2867 7.09087 17.3267C7.13076 17.3381 7.17635 17.3552 7.21624 17.3667C7.43279 17.4352 7.65504 17.498 7.90008 17.5551C8.04824 17.595 8.1964 17.6293 8.35026 17.6635C8.55541 17.7092 8.76626 17.7549 8.9885 17.7948C9.21075 17.8405 9.43869 17.8805 9.67234 17.9147C9.90598 17.9547 10.1453 17.9889 10.3904 18.0232C10.8861 18.0917 11.4047 18.1488 11.9461 18.1945C12.2994 18.223 12.6584 18.2515 13.0288 18.2744C13.1998 18.2858 13.3707 18.2972 13.5417 18.3029C13.7297 18.3143 13.9178 18.3201 14.1058 18.3258C14.3566 18.3315 14.6073 18.3429 14.8638 18.3429C15.1373 18.3543 15.4108 18.3543 15.6843 18.3543C15.975 18.3543 16.2599 18.3543 16.5448 18.3429C17.1147 18.3315 17.6732 18.3143 18.2088 18.2801C18.4254 18.2687 18.6362 18.2573 18.8471 18.2401C19.018 18.2287 19.1776 18.2173 19.3428 18.2002C19.4169 18.1945 19.4853 18.1887 19.5537 18.183C19.7303 18.1659 19.9013 18.1488 20.0723 18.1317H20.0894C20.3743 18.1031 20.6535 18.0689 20.927 18.0289C21.098 18.0118 21.2633 17.9832 21.4285 17.9604C22.1921 17.8462 22.8874 17.7035 23.5028 17.5493C23.594 17.5265 23.6909 17.498 23.782 17.4751C23.9644 17.4237 24.1411 17.3724 24.3063 17.3153C24.3861 17.2924 24.4716 17.2639 24.5457 17.2354C24.7052 17.1783 24.8534 17.1212 24.9901 17.0641H24.9958C25.8392 16.7044 26.3236 16.2934 26.3236 15.8538C26.3236 15.477 25.9646 15.1174 25.315 14.7919Z" fill="#7F6B3E"/>
<path d="M2.15625 14.9409L6.15096 17.5385" stroke="#66552B" stroke-width="0.53" stroke-miterlimit="10" stroke-linecap="round"/>
<path d="M1.22656 16.7109L11.4156 19.0801" stroke="#66552B" stroke-width="0.53" stroke-miterlimit="10" stroke-linecap="round"/>
<path d="M5.05469 14.9409L5.36811 20.6498" stroke="#66552B" stroke-width="0.53" stroke-miterlimit="10" stroke-linecap="round"/>
<path d="M4.15625 15.5747L8.41879 21.1808" stroke="#66552B" stroke-width="0.53" stroke-miterlimit="10" stroke-linecap="round"/>
<path d="M3.35938 19.5136L7.45096 17.3442" stroke="#66552B" stroke-width="0.53" stroke-miterlimit="10" stroke-linecap="round"/>
<path d="M6.68359 15.5747L9.24796 19.5138" stroke="#66552B" stroke-width="0.53" stroke-miterlimit="10" stroke-linecap="round"/>
<path d="M6.68359 24.1493L10.4789 21.1807" stroke="#66552B" stroke-width="0.53" stroke-miterlimit="10" stroke-linecap="round"/>
<path d="M5.40234 21.7806L10.1493 20.2163" stroke="#66552B" stroke-width="0.53" stroke-miterlimit="10" stroke-linecap="round"/>
<path d="M4.15625 20.6497L10.1512 19.5137" stroke="#66552B" stroke-width="0.53" stroke-miterlimit="10" stroke-linecap="round"/>
<path d="M9.61328 17.7954L11.414 23.2817" stroke="#66552B" stroke-width="0.53" stroke-miterlimit="10" stroke-linecap="round"/>
<path d="M6.14844 22.665L10.1488 23.784" stroke="#66552B" stroke-width="0.53" stroke-miterlimit="10" stroke-linecap="round"/>
<path d="M5.21875 21.1807L8.58661 21.7801" stroke="#66552B" stroke-width="0.53" stroke-miterlimit="10" stroke-linecap="round"/>
<path d="M8.41797 19.5137L10.515 22.665" stroke="#66552B" stroke-width="0.53" stroke-miterlimit="10" stroke-linecap="round"/>
<path d="M10.9141 23.2813L12.6122 20.541" stroke="#66552B" stroke-width="0.53" stroke-miterlimit="10" stroke-linecap="round"/>
<path d="M4.15625 20.0791L7.96861 19.0801" stroke="#66552B" stroke-width="0.53" stroke-miterlimit="10" stroke-linecap="round"/>
<path d="M8.58203 16.2422L11.4142 18.3773" stroke="#66552B" stroke-width="0.53" stroke-miterlimit="10" stroke-linecap="round"/>
<path d="M11.418 20.0786L13.3783 21.9112" stroke="#66552B" stroke-width="0.53" stroke-miterlimit="10" stroke-linecap="round"/>
<path d="M8.58203 24.7832L12.3944 23.7842" stroke="#66552B" stroke-width="0.53" stroke-miterlimit="10" stroke-linecap="round"/>
<path d="M11.418 21.1807L12.6147 22.665" stroke="#66552B" stroke-width="0.53" stroke-miterlimit="10" stroke-linecap="round"/>
<path d="M23.0904 17.4985L18.6797 19.3026" stroke="#66552B" stroke-width="0.53" stroke-miterlimit="10" stroke-linecap="round"/>
<path d="M22.1698 15.7227L14.4141 22.756" stroke="#66552B" stroke-width="0.53" stroke-miterlimit="10" stroke-linecap="round"/>
<path d="M21.4351 19.8787L16.5742 16.8872" stroke="#66552B" stroke-width="0.53" stroke-miterlimit="10" stroke-linecap="round"/>
<path d="M21.4326 18.7773L14.4062 19.0913" stroke="#66552B" stroke-width="0.53" stroke-miterlimit="10" stroke-linecap="round"/>
<path d="M18.6561 15.877L18.0977 20.484" stroke="#66552B" stroke-width="0.53" stroke-miterlimit="10" stroke-linecap="round"/>
<path d="M19.9829 20.8608L15.293 20.7295" stroke="#66552B" stroke-width="0.53" stroke-miterlimit="10" stroke-linecap="round"/>
<path d="M12.957 15.9736L13.2249 20.7919" stroke="#66552B" stroke-width="0.53" stroke-miterlimit="10" stroke-linecap="round"/>
<path d="M15.6299 16.271L14.2109 21.0665" stroke="#66552B" stroke-width="0.53" stroke-miterlimit="10" stroke-linecap="round"/>
<path d="M17.2715 15.8882L14.7812 21.4658" stroke="#66552B" stroke-width="0.53" stroke-miterlimit="10" stroke-linecap="round"/>
<path d="M16.4964 22.0083L10.9688 20.3584" stroke="#66552B" stroke-width="0.53" stroke-miterlimit="10" stroke-linecap="round"/>
<path d="M14.4821 16.3794L11.2852 19.034" stroke="#66552B" stroke-width="0.53" stroke-miterlimit="10" stroke-linecap="round"/>
<path d="M16.2269 16.4531L13.8164 18.8851" stroke="#66552B" stroke-width="0.53" stroke-miterlimit="10" stroke-linecap="round"/>
<path d="M15.7721 20.0444L11.9883 19.9702" stroke="#66552B" stroke-width="0.53" stroke-miterlimit="10" stroke-linecap="round"/>
<path d="M11.2539 19.9478L12.5361 22.9107" stroke="#66552B" stroke-width="0.53" stroke-miterlimit="10" stroke-linecap="round"/>
<path d="M17.7295 16.2139L16.3789 19.9189" stroke="#66552B" stroke-width="0.53" stroke-miterlimit="10" stroke-linecap="round"/>
<path d="M18.3601 22.0425L14.9922 23.1557" stroke="#66552B" stroke-width="0.53" stroke-miterlimit="10" stroke-linecap="round"/>
<path d="M13.594 22.1851L10.9727 22.7617" stroke="#66552B" stroke-width="0.53" stroke-miterlimit="10" stroke-linecap="round"/>
<path d="M11.3506 17.1729L10 20.8836" stroke="#66552B" stroke-width="0.53" stroke-miterlimit="10" stroke-linecap="round"/>
<path d="M12.6924 21.5576L10.7891 21.7003" stroke="#66552B" stroke-width="0.53" stroke-miterlimit="10" stroke-linecap="round"/>
<path d="M8.83594 25.0056L13.5829 24.623" stroke="#66552B" stroke-width="0.53" stroke-miterlimit="10" stroke-linecap="round"/>
<path d="M8.85156 23.0015L18.9438 25.7703" stroke="#66552B" stroke-width="0.53" stroke-miterlimit="10" stroke-linecap="round"/>
<path d="M11.3906 26.3814L14.3767 21.5117" stroke="#66552B" stroke-width="0.53" stroke-miterlimit="10" stroke-linecap="round"/>
<path d="M10.8906 25.3995L17.3015 22.4937" stroke="#66552B" stroke-width="0.53" stroke-miterlimit="10" stroke-linecap="round"/>
<path d="M12.0625 21.5518L14.6383 25.411" stroke="#66552B" stroke-width="0.53" stroke-miterlimit="10" stroke-linecap="round"/>
<path d="M13.1172 26.6039L17.243 24.3604" stroke="#66552B" stroke-width="0.53" stroke-miterlimit="10" stroke-linecap="round"/>
<path d="M17.1875 19.0566L19.1193 23.4753" stroke="#66552B" stroke-width="0.53" stroke-miterlimit="10" stroke-linecap="round"/>
<path d="M14.9375 20.5298L18.368 24.1721" stroke="#66552B" stroke-width="0.53" stroke-miterlimit="10" stroke-linecap="round"/>
<path d="M13.3047 20.9351L18.0402 24.7886" stroke="#66552B" stroke-width="0.53" stroke-miterlimit="10" stroke-linecap="round"/>
<path d="M16.75 26.0442L20.9385 22.0708" stroke="#66552B" stroke-width="0.53" stroke-miterlimit="10" stroke-linecap="round"/>
<path d="M16.0156 20.1128L20.0616 21.0319" stroke="#66552B" stroke-width="0.53" stroke-miterlimit="10" stroke-linecap="round"/>
<path d="M14.4844 20.9692L17.7383 22.0482" stroke="#66552B" stroke-width="0.53" stroke-miterlimit="10" stroke-linecap="round"/>
<path d="M16.5117 23.9605L19.8568 22.1851" stroke="#66552B" stroke-width="0.53" stroke-miterlimit="10" stroke-linecap="round"/>
<path d="M20.5 21.8374L20.6937 25.0572" stroke="#66552B" stroke-width="0.53" stroke-miterlimit="10" stroke-linecap="round"/>
<path d="M13.0273 21.4316L15.9108 24.1319" stroke="#66552B" stroke-width="0.53" stroke-miterlimit="10" stroke-linecap="round"/>
<path d="M15.1094 26.9181L18.614 26.3872" stroke="#66552B" stroke-width="0.53" stroke-miterlimit="10" stroke-linecap="round"/>
<path d="M19.418 24.8908L22.0165 24.2114" stroke="#66552B" stroke-width="0.53" stroke-miterlimit="10" stroke-linecap="round"/>
<path d="M19.1641 19.4048L22.0419 22.0994" stroke="#66552B" stroke-width="0.53" stroke-miterlimit="10" stroke-linecap="round"/>
<path d="M19.9414 23.9205L21.7023 23.1841" stroke="#66552B" stroke-width="0.53" stroke-miterlimit="10" stroke-linecap="round"/>
<path d="M28.6741 14.2046L25.1523 17.413" stroke="#66552B" stroke-width="0.53" stroke-miterlimit="10" stroke-linecap="round"/>
<path d="M29.8814 15.7974L20.2109 19.7936" stroke="#66552B" stroke-width="0.53" stroke-miterlimit="10" stroke-linecap="round"/>
<path d="M25.8125 14.6724L26.4222 20.3527" stroke="#66552B" stroke-width="0.53" stroke-miterlimit="10" stroke-linecap="round"/>
<path d="M26.8034 15.1523L23.5039 21.3751" stroke="#66552B" stroke-width="0.53" stroke-miterlimit="10" stroke-linecap="round"/>
<path d="M28.2295 18.9089L23.8359 17.436" stroke="#66552B" stroke-width="0.53" stroke-miterlimit="10" stroke-linecap="round"/>
<path d="M24.306 15.563L22.4141 19.8675" stroke="#66552B" stroke-width="0.53" stroke-miterlimit="10" stroke-linecap="round"/>
<path d="M25.701 24.0235L21.4727 21.7114" stroke="#66552B" stroke-width="0.53" stroke-miterlimit="10" stroke-linecap="round"/>
<path d="M26.5756 21.4772L21.6406 20.7065" stroke="#66552B" stroke-width="0.53" stroke-miterlimit="10" stroke-linecap="round"/>
<path d="M27.6248 20.1587L21.5273 20.0103" stroke="#66552B" stroke-width="0.53" stroke-miterlimit="10" stroke-linecap="round"/>
<path d="M21.7739 18.2295L20.8906 23.9384" stroke="#66552B" stroke-width="0.53" stroke-miterlimit="10" stroke-linecap="round"/>
<path d="M25.9837 22.4712L22.2227 24.2238" stroke="#66552B" stroke-width="0.53" stroke-miterlimit="10" stroke-linecap="round"/>
<path d="M26.6707 20.855L23.4453 21.9968" stroke="#66552B" stroke-width="0.53" stroke-miterlimit="10" stroke-linecap="round"/>
<path d="M23.2372 19.731L21.6758 23.1848" stroke="#66552B" stroke-width="0.53" stroke-miterlimit="10" stroke-linecap="round"/>
<path d="M21.3855 23.8583L19.2656 21.4263" stroke="#66552B" stroke-width="0.53" stroke-miterlimit="10" stroke-linecap="round"/>
<path d="M27.5357 19.5991L23.6094 19.228" stroke="#66552B" stroke-width="0.53" stroke-miterlimit="10" stroke-linecap="round"/>
<path d="M22.5384 16.5278L20.0938 19.1025" stroke="#66552B" stroke-width="0.53" stroke-miterlimit="10" stroke-linecap="round"/>
<path d="M20.3717 20.7812L18.7305 22.905" stroke="#66552B" stroke-width="0.53" stroke-miterlimit="10" stroke-linecap="round"/>
<path d="M23.9284 24.9606L20.0078 24.5952" stroke="#66552B" stroke-width="0.53" stroke-miterlimit="10" stroke-linecap="round"/>
<path d="M20.5514 21.8657L19.6055 23.527" stroke="#66552B" stroke-width="0.53" stroke-miterlimit="10" stroke-linecap="round"/>
</svg>
