<svg width="68" height="19" viewBox="0 0 68 19" fill="none" xmlns="http://www.w3.org/2000/svg">
<g clip-path="url(#clip0_488_94681)">
<path d="M16.0997 6.68004L17.3797 8.00004V16.16L16.0997 17.48H2.92969V14.15H10.1497C10.2597 14.15 10.3497 14.11 10.4297 14.04C10.5097 13.97 10.5397 13.88 10.5397 13.78V13.74C10.5397 13.63 10.4997 13.53 10.4197 13.45C10.3397 13.37 10.2397 13.33 10.1297 13.33H4.20969L2.92969 12.01V3.86004L4.20969 2.54004H17.3797V5.87004H10.1797C10.0697 5.87004 9.96969 5.91004 9.88969 5.99004C9.80969 6.07004 9.76969 6.16004 9.76969 6.28004V6.32004C9.76969 6.42004 9.80969 6.51004 9.87969 6.58004C9.95969 6.65004 10.0497 6.69004 10.1597 6.69004H16.0997V6.68004Z" fill="#003556" stroke="#003556" stroke-width="1.13" stroke-miterlimit="10"/>
<path d="M27.0592 2.54004H33.8892V17.5H27.0592V13.76C27.0592 13.49 26.9292 13.35 26.6692 13.35C26.4092 13.35 26.2792 13.49 26.2792 13.76V17.5H19.4492V2.54004H26.2792V6.28004C26.2792 6.55004 26.4092 6.69004 26.6692 6.69004C26.9292 6.69004 27.0592 6.55004 27.0592 6.28004V2.54004Z" fill="#003556" stroke="#003556" stroke-width="1.13" stroke-miterlimit="10"/>
<path d="M42.8105 13.76C42.8105 13.87 42.8405 13.97 42.9105 14.05C42.9805 14.13 43.0605 14.17 43.1605 14.17H43.2005C43.3105 14.17 43.4005 14.13 43.4805 14.04C43.5605 13.95 43.5905 13.85 43.5905 13.74V6.30004C43.5905 6.19004 43.5505 6.09004 43.4805 6.00004C43.4105 5.91004 43.3105 5.87004 43.2005 5.87004H43.1605C43.0605 5.87004 42.9805 5.91004 42.9105 5.99004C42.8405 6.07004 42.8105 6.16004 42.8105 6.28004V13.76ZM37.2605 17.5L35.9805 16.18V3.86004L37.2605 2.54004H49.1505L50.4305 3.86004V16.17L49.1505 17.49H37.2605V17.5Z" fill="#003556" stroke="#003556" stroke-width="1.13" stroke-miterlimit="10"/>
<path d="M59.33 10.02C59.33 10.29 59.46 10.43 59.72 10.43C59.98 10.43 60.11 10.29 60.11 10.02V6.28004C60.11 6.01004 59.98 5.87004 59.72 5.87004C59.46 5.87004 59.33 6.01004 59.33 6.28004V10.02ZM59.72 13.35C59.46 13.35 59.33 13.49 59.33 13.76V17.5H52.5V2.54004H65.67L66.95 3.86004V12.02L65.67 13.34H59.73L59.72 13.35Z" fill="#003556" stroke="#003556" stroke-width="1.13" stroke-miterlimit="10"/>
<path d="M16.0294 6.61998L17.3094 7.93998V16.1L16.0294 17.42H2.85938V14.09H10.0794C10.1894 14.09 10.2794 14.05 10.3594 13.98C10.4394 13.91 10.4694 13.82 10.4694 13.72V13.68C10.4694 13.57 10.4294 13.47 10.3494 13.39C10.2694 13.31 10.1694 13.27 10.0594 13.27H4.13937L2.85938 11.95V3.79998L4.13937 2.47998H17.3094V5.80998H10.1094C9.99937 5.80998 9.89937 5.84998 9.81938 5.92998C9.73938 6.00998 9.69938 6.09998 9.69938 6.21998V6.25998C9.69938 6.35998 9.73938 6.44998 9.80938 6.51998C9.87938 6.58998 9.97938 6.62998 10.0894 6.62998H16.0294V6.61998Z" fill="#003556" stroke="#003556" stroke-width="1.13" stroke-miterlimit="10"/>
<path d="M26.9889 2.46997H33.8189V17.43H26.9889V13.69C26.9889 13.42 26.8589 13.28 26.5989 13.28C26.3389 13.28 26.2089 13.42 26.2089 13.69V17.43H19.3789V2.46997H26.2089V6.20997C26.2089 6.47997 26.3389 6.61997 26.5989 6.61997C26.8589 6.61997 26.9889 6.47997 26.9889 6.20997V2.46997Z" fill="#003556" stroke="#003556" stroke-width="1.13" stroke-miterlimit="10"/>
<path d="M42.7384 13.69C42.7384 13.8 42.7684 13.9 42.8384 13.98C42.9084 14.06 42.9884 14.1 43.0884 14.1H43.1284C43.2384 14.1 43.3284 14.06 43.4084 13.97C43.4884 13.88 43.5184 13.78 43.5184 13.67V6.22998C43.5184 6.11998 43.4784 6.01998 43.4084 5.92998C43.3384 5.83998 43.2384 5.79998 43.1284 5.79998H43.0884C42.9884 5.79998 42.9084 5.83998 42.8384 5.91998C42.7684 5.99998 42.7384 6.08998 42.7384 6.20998V13.69ZM37.1784 17.43L35.8984 16.11V3.79998L37.1784 2.47998H49.0684L50.3484 3.79998V16.11L49.0684 17.43H37.1784Z" fill="#003556" stroke="#003556" stroke-width="1.13" stroke-miterlimit="10"/>
<path d="M59.248 9.94997C59.248 10.22 59.378 10.36 59.638 10.36C59.898 10.36 60.028 10.22 60.028 9.94997V6.20997C60.028 5.93997 59.898 5.79997 59.638 5.79997C59.378 5.79997 59.248 5.93997 59.248 6.20997V9.94997ZM59.638 13.29C59.378 13.29 59.248 13.43 59.248 13.7V17.44H52.418V2.46997H65.588L66.868 3.78997V11.95L65.588 13.27H59.648L59.638 13.29Z" fill="#003556" stroke="#003556" stroke-width="1.13" stroke-miterlimit="10"/>
<path d="M15.9473 6.56017L17.2273 7.88017V16.0402L15.9473 17.3602H2.77734V14.0302H9.99734C10.1073 14.0302 10.1973 13.9902 10.2773 13.9202C10.3573 13.8502 10.3873 13.7602 10.3873 13.6602V13.6202C10.3873 13.5102 10.3473 13.4102 10.2673 13.3302C10.1873 13.2502 10.0873 13.2102 9.97734 13.2102H4.05734L2.77734 11.8902V3.74017L4.05734 2.42017H17.2273V5.75017H10.0273C9.91734 5.75017 9.81734 5.79017 9.73734 5.87017C9.65734 5.95017 9.61734 6.04017 9.61734 6.16017V6.20017C9.61734 6.30017 9.65734 6.39017 9.72734 6.46017C9.79734 6.53017 9.89734 6.57017 10.0073 6.57017H15.9473V6.56017Z" fill="#003556" stroke="#003556" stroke-width="1.13" stroke-miterlimit="10"/>
<path d="M26.9069 2.41016H33.7369V17.3702H26.9069V13.6302C26.9069 13.3602 26.7769 13.2202 26.5169 13.2202C26.2569 13.2202 26.1269 13.3602 26.1269 13.6302V17.3702H19.2969V2.41016H26.1269V6.15016C26.1269 6.42016 26.2569 6.56016 26.5169 6.56016C26.7769 6.56016 26.9069 6.42016 26.9069 6.15016V2.41016Z" fill="#003556" stroke="#003556" stroke-width="1.13" stroke-miterlimit="10"/>
<path d="M42.6581 13.6302C42.6581 13.7402 42.6881 13.8402 42.7581 13.9202C42.8281 14.0002 42.9081 14.0402 43.0081 14.0402H43.0481C43.1581 14.0402 43.2481 14.0002 43.3281 13.9102C43.4081 13.8202 43.4381 13.7202 43.4381 13.6102V6.17017C43.4381 6.06017 43.3981 5.96017 43.3281 5.87017C43.2581 5.78017 43.1581 5.74017 43.0481 5.74017H43.0081C42.9081 5.74017 42.8281 5.78017 42.7581 5.86017C42.6881 5.94017 42.6581 6.03017 42.6581 6.15017V13.6302ZM37.1081 17.3702L35.8281 16.0502V3.74017L37.1081 2.42017H48.9981L50.2781 3.74017V16.0502L48.9981 17.3702H37.1081Z" fill="#003556" stroke="#003556" stroke-width="1.13" stroke-miterlimit="10"/>
<path d="M59.1677 9.89016C59.1677 10.1602 59.2977 10.3002 59.5577 10.3002C59.8177 10.3002 59.9477 10.1602 59.9477 9.89016V6.15016C59.9477 5.88016 59.8177 5.74016 59.5577 5.74016C59.2977 5.74016 59.1677 5.88016 59.1677 6.15016V9.89016ZM59.5677 13.2202C59.3077 13.2202 59.1777 13.3602 59.1777 13.6302V17.3702H52.3477V2.41016H65.5177L66.7977 3.73016V11.8902L65.5177 13.2102H59.5777L59.5677 13.2202Z" fill="#003556" stroke="#003556" stroke-width="1.13" stroke-miterlimit="10"/>
<path d="M15.8692 6.4901L17.1492 7.8101V15.9701L15.8692 17.2901H2.69922V13.9601H9.91922C10.0292 13.9601 10.1192 13.9201 10.1992 13.8501C10.2792 13.7801 10.3092 13.6901 10.3092 13.5901V13.5501C10.3092 13.4401 10.2692 13.3401 10.1892 13.2601C10.1092 13.1801 10.0092 13.1401 9.89922 13.1401H3.97922L2.69922 11.8201V3.6701L3.97922 2.3501H17.1492V5.6801H9.94922C9.83922 5.6801 9.73922 5.7201 9.65922 5.8001C9.57922 5.8801 9.53922 5.9701 9.53922 6.0901V6.1301C9.53922 6.2301 9.57922 6.3201 9.64922 6.3901C9.71922 6.4601 9.81922 6.5001 9.92922 6.5001H15.8692V6.4901Z" fill="#003556" stroke="#003556" stroke-width="1.13" stroke-miterlimit="10"/>
<path d="M26.8288 2.3501H33.6588V17.3101H26.8288V13.5701C26.8288 13.3001 26.6988 13.1601 26.4388 13.1601C26.1788 13.1601 26.0487 13.3001 26.0487 13.5701V17.3101H19.2188V2.3501H26.0487V6.0901C26.0487 6.3601 26.1788 6.5001 26.4388 6.5001C26.6988 6.5001 26.8288 6.3601 26.8288 6.0901V2.3501Z" fill="#003556" stroke="#003556" stroke-width="1.13" stroke-miterlimit="10"/>
<path d="M42.58 13.5701C42.58 13.6801 42.61 13.7801 42.68 13.8601C42.75 13.9401 42.83 13.9801 42.93 13.9801H42.97C43.08 13.9801 43.17 13.9401 43.25 13.8501C43.33 13.7601 43.36 13.6601 43.36 13.5501V6.1101C43.36 6.0001 43.32 5.9001 43.25 5.8101C43.18 5.7201 43.08 5.6801 42.97 5.6801H42.93C42.83 5.6801 42.75 5.7201 42.68 5.8001C42.61 5.8801 42.58 5.9701 42.58 6.0901V13.5701ZM37.03 17.3101L35.75 15.9901V3.6701L37.03 2.3501H48.92L50.2 3.6701V15.9801L48.92 17.3001H37.03V17.3101Z" fill="#003556" stroke="#003556" stroke-width="1.13" stroke-miterlimit="10"/>
<path d="M59.0995 9.8301C59.0995 10.1001 59.2295 10.2401 59.4895 10.2401C59.7495 10.2401 59.8795 10.1001 59.8795 9.8301V6.0901C59.8795 5.8201 59.7495 5.6801 59.4895 5.6801C59.2295 5.6801 59.0995 5.8201 59.0995 6.0901V9.8301ZM59.4895 13.1601C59.2295 13.1601 59.0995 13.3001 59.0995 13.5701V17.3101H52.2695V2.3501H65.4395L66.7195 3.6701V11.8301L65.4395 13.1501H59.4995L59.4895 13.1601Z" fill="#003556" stroke="#003556" stroke-width="1.13" stroke-miterlimit="10"/>
<path d="M15.7989 6.43004L17.0789 7.75004V15.91L15.7989 17.23H2.62891V13.9H9.84891C9.95891 13.9 10.0489 13.86 10.1289 13.79C10.2089 13.72 10.2389 13.63 10.2389 13.53V13.49C10.2389 13.38 10.1989 13.28 10.1189 13.2C10.0389 13.12 9.93891 13.08 9.82891 13.08H3.90891L2.62891 11.76V3.61004L3.90891 2.29004H17.0789V5.62004H9.87891C9.76891 5.62004 9.66891 5.66004 9.58891 5.74004C9.50891 5.82004 9.46891 5.91004 9.46891 6.03004V6.07004C9.46891 6.17004 9.50891 6.26004 9.57891 6.33004C9.64891 6.40004 9.74891 6.44004 9.85891 6.44004H15.7989V6.43004Z" fill="#003556" stroke="#003556" stroke-width="1.13" stroke-miterlimit="10"/>
<path d="M26.7584 2.28003H33.5884V17.24H26.7584V13.5C26.7584 13.23 26.6284 13.09 26.3684 13.09C26.1084 13.09 25.9784 13.23 25.9784 13.5V17.24H19.1484V2.28003H25.9784V6.02003C25.9784 6.29003 26.1084 6.43003 26.3684 6.43003C26.6284 6.43003 26.7584 6.29003 26.7584 6.02003V2.28003Z" fill="#003556" stroke="#003556" stroke-width="1.13" stroke-miterlimit="10"/>
<path d="M42.508 13.5C42.508 13.61 42.538 13.71 42.608 13.79C42.678 13.87 42.758 13.91 42.858 13.91H42.898C43.008 13.91 43.098 13.87 43.178 13.78C43.258 13.69 43.288 13.59 43.288 13.48V6.04004C43.288 5.93004 43.248 5.83004 43.178 5.74004C43.108 5.65004 43.008 5.61004 42.898 5.61004H42.858C42.758 5.61004 42.678 5.65004 42.608 5.73004C42.538 5.81004 42.508 5.90004 42.508 6.02004V13.5ZM36.948 17.24L35.668 15.92V3.61004L36.948 2.29004H48.838L50.118 3.61004V15.92L48.838 17.24H36.948Z" fill="#003556" stroke="#003556" stroke-width="1.13" stroke-miterlimit="10"/>
<path d="M59.0175 9.76003C59.0175 10.03 59.1475 10.17 59.4075 10.17C59.6675 10.17 59.7975 10.03 59.7975 9.76003V6.02003C59.7975 5.75003 59.6675 5.61003 59.4075 5.61003C59.1475 5.61003 59.0175 5.75003 59.0175 6.02003V9.76003ZM59.4075 13.1C59.1475 13.1 59.0175 13.24 59.0175 13.51V17.25H52.1875V2.28003H65.3575L66.6375 3.60003V11.76L65.3575 13.08H59.4175L59.4075 13.1Z" fill="#003556" stroke="#003556" stroke-width="1.13" stroke-miterlimit="10"/>
<path d="M15.7169 6.36997L16.9969 7.68997V15.85L15.7169 17.17H2.54688V13.84H9.76688C9.87688 13.84 9.96688 13.8 10.0469 13.73C10.1269 13.66 10.1569 13.57 10.1569 13.47V13.43C10.1569 13.32 10.1169 13.22 10.0369 13.14C9.95687 13.06 9.85687 13.02 9.74687 13.02H3.82687L2.54688 11.7V3.53997L3.82687 2.21997H16.9969V5.54997H9.79688C9.68687 5.54997 9.58687 5.58997 9.50688 5.66997C9.42688 5.74997 9.38688 5.83997 9.38688 5.95997V5.99997C9.38688 6.09997 9.42687 6.18997 9.49687 6.25997C9.56687 6.32997 9.66687 6.36997 9.77687 6.36997H15.7169Z" fill="#003556" stroke="#003556" stroke-width="1.13" stroke-miterlimit="10"/>
<path d="M26.6764 2.21997H33.5064V17.18H26.6764V13.44C26.6764 13.17 26.5464 13.03 26.2864 13.03C26.0264 13.03 25.8964 13.17 25.8964 13.44V17.18H19.0664V2.21997H25.8964V5.95997C25.8964 6.22997 26.0264 6.36997 26.2864 6.36997C26.5464 6.36997 26.6764 6.22997 26.6764 5.95997V2.21997Z" fill="#003556" stroke="#003556" stroke-width="1.13" stroke-miterlimit="10"/>
<path d="M42.4277 13.44C42.4277 13.55 42.4577 13.65 42.5277 13.73C42.5977 13.81 42.6777 13.85 42.7777 13.85H42.8177C42.9277 13.85 43.0177 13.81 43.0977 13.72C43.1777 13.63 43.2077 13.53 43.2077 13.42V5.97997C43.2077 5.86997 43.1677 5.76997 43.0977 5.67997C43.0277 5.58997 42.9277 5.54997 42.8177 5.54997H42.7777C42.6777 5.54997 42.5977 5.58997 42.5277 5.66997C42.4577 5.74997 42.4277 5.83997 42.4277 5.95997V13.44ZM36.8777 17.18L35.5977 15.86V3.53997L36.8777 2.21997H48.7677L50.0477 3.53997V15.85L48.7677 17.17H36.8777V17.18Z" fill="#003556" stroke="#003556" stroke-width="1.13" stroke-miterlimit="10"/>
<path d="M58.9372 9.69997C58.9372 9.96997 59.0672 10.11 59.3272 10.11C59.5872 10.11 59.7172 9.96997 59.7172 9.69997V5.95997C59.7172 5.68997 59.5872 5.54997 59.3272 5.54997C59.0672 5.54997 58.9372 5.68997 58.9372 5.95997V9.69997ZM59.3372 13.03C59.0772 13.03 58.9472 13.17 58.9472 13.44V17.18H52.1172V2.21997H65.2872L66.5672 3.53997V11.7L65.2872 13.02H59.3472L59.3372 13.03Z" fill="#003556" stroke="#003556" stroke-width="1.13" stroke-miterlimit="10"/>
<path d="M15.6405 6.30016L16.9205 7.62016V15.7802L15.6405 17.1002H2.48047V13.7702H9.70047C9.81047 13.7702 9.90047 13.7302 9.98047 13.6602C10.0605 13.5902 10.0905 13.5002 10.0905 13.4002V13.3602C10.0905 13.2502 10.0505 13.1502 9.97047 13.0702C9.89047 12.9902 9.79047 12.9502 9.68047 12.9502H3.76047L2.48047 11.6302V3.48016L3.76047 2.16016H16.9305V5.49016H9.73047C9.62047 5.49016 9.52047 5.53016 9.44047 5.61016C9.36047 5.69016 9.32047 5.78016 9.32047 5.90016V5.94016C9.32047 6.04016 9.36047 6.13016 9.43047 6.20016C9.51047 6.27016 9.60047 6.31016 9.71047 6.31016H15.6505L15.6405 6.30016Z" fill="#003556" stroke="#003556" stroke-width="1.13" stroke-miterlimit="10"/>
<path d="M26.6022 2.16016H33.4322V17.1202H26.6022V13.3802C26.6022 13.1102 26.4722 12.9702 26.2122 12.9702C25.9522 12.9702 25.8222 13.1102 25.8222 13.3802V17.1202H18.9922V2.16016H25.8222V5.90016C25.8222 6.17016 25.9522 6.31016 26.2122 6.31016C26.4722 6.31016 26.6022 6.17016 26.6022 5.90016V2.16016Z" fill="#003556" stroke="#003556" stroke-width="1.13" stroke-miterlimit="10"/>
<path d="M42.3495 13.3802C42.3495 13.4902 42.3795 13.5902 42.4495 13.6702C42.5195 13.7502 42.5995 13.7902 42.6995 13.7902H42.7395C42.8495 13.7902 42.9395 13.7502 43.0195 13.6602C43.0995 13.5702 43.1295 13.4702 43.1295 13.3602V5.92016C43.1295 5.81016 43.0895 5.71016 43.0195 5.62016C42.9495 5.53016 42.8495 5.49016 42.7395 5.49016H42.6995C42.5995 5.49016 42.5195 5.53016 42.4495 5.61016C42.3795 5.69016 42.3495 5.78016 42.3495 5.90016V13.3802ZM36.7995 17.1202L35.5195 15.8002V3.48016L36.7995 2.16016H48.6895L49.9695 3.48016V15.7902L48.6895 17.1102H36.7995V17.1202Z" fill="#003556" stroke="#003556" stroke-width="1.13" stroke-miterlimit="10"/>
<path d="M58.8691 9.64016C58.8691 9.91016 58.9991 10.0502 59.2591 10.0502C59.5191 10.0502 59.6491 9.91016 59.6491 9.64016V5.90016C59.6491 5.63016 59.5191 5.49016 59.2591 5.49016C58.9991 5.49016 58.8691 5.63016 58.8691 5.90016V9.64016ZM59.2591 12.9702C58.9991 12.9702 58.8691 13.1102 58.8691 13.3802V17.1202H52.0391V2.16016H65.2091L66.4891 3.48016V11.6402L65.2091 12.9602H59.2691L59.2591 12.9702Z" fill="#003556" stroke="#003556" stroke-width="1.13" stroke-miterlimit="10"/>
<path d="M15.5684 6.2401L16.8484 7.5601V15.7201L15.5684 17.0401H2.39844V13.7101H9.61844C9.72844 13.7101 9.81844 13.6701 9.89844 13.6001C9.97844 13.5301 10.0084 13.4401 10.0084 13.3401V13.3001C10.0084 13.1901 9.96844 13.0901 9.88844 13.0101C9.80844 12.9301 9.70844 12.8901 9.59844 12.8901H3.67844L2.39844 11.5701V3.4201L3.67844 2.1001H16.8484V5.4301H9.64844C9.53844 5.4301 9.43844 5.4701 9.35844 5.5501C9.27844 5.6301 9.23844 5.7201 9.23844 5.8401V5.8801C9.23844 5.9801 9.27844 6.0701 9.34844 6.1401C9.42844 6.2101 9.51844 6.2501 9.62844 6.2501H15.5684V6.2401Z" fill="#003556" stroke="#003556" stroke-width="1.13" stroke-miterlimit="10"/>
<path d="M26.528 2.09009H33.358V17.0501H26.528V13.3101C26.528 13.0401 26.398 12.9001 26.138 12.9001C25.878 12.9001 25.748 13.0401 25.748 13.3101V17.0501H18.918V2.09009H25.748V5.83009C25.748 6.10009 25.878 6.24009 26.138 6.24009C26.398 6.24009 26.528 6.10009 26.528 5.83009V2.09009Z" fill="#003556" stroke="#003556" stroke-width="1.13" stroke-miterlimit="10"/>
<path d="M42.2792 13.3101C42.2792 13.4201 42.3092 13.5201 42.3792 13.6001C42.4492 13.6801 42.5292 13.7201 42.6292 13.7201H42.6692C42.7792 13.7201 42.8692 13.6801 42.9492 13.5901C43.0292 13.5001 43.0592 13.4001 43.0592 13.2901V5.8501C43.0592 5.7401 43.0192 5.6401 42.9492 5.5501C42.8792 5.4601 42.7792 5.4201 42.6692 5.4201H42.6292C42.5292 5.4201 42.4492 5.4601 42.3792 5.5401C42.3092 5.6201 42.2792 5.7101 42.2792 5.8301V13.3101ZM36.7292 17.0501L35.4492 15.7301V3.4201L36.7292 2.1001H48.6192L49.8992 3.4201V15.7301L48.6192 17.0501H36.7292Z" fill="#003556" stroke="#003556" stroke-width="1.13" stroke-miterlimit="10"/>
<path d="M58.787 9.57009C58.787 9.84009 58.917 9.98009 59.177 9.98009C59.437 9.98009 59.567 9.84009 59.567 9.57009V5.83009C59.567 5.56009 59.437 5.42009 59.177 5.42009C58.917 5.42009 58.787 5.56009 58.787 5.83009V9.57009ZM59.177 12.9101C58.917 12.9101 58.787 13.0501 58.787 13.3201V17.0601H51.957V2.09009H65.127L66.407 3.41009V11.5701L65.127 12.8901H59.187L59.177 12.9101Z" fill="#003556" stroke="#003556" stroke-width="1.13" stroke-miterlimit="10"/>
<path d="M15.4903 6.18003L16.7703 7.50003V15.66L15.4903 16.98H2.32031V13.65H9.54031C9.65031 13.65 9.74031 13.61 9.82031 13.54C9.90031 13.47 9.93031 13.38 9.93031 13.28V13.24C9.93031 13.13 9.89031 13.03 9.81031 12.95C9.73031 12.87 9.63031 12.83 9.52031 12.83H3.60031L2.32031 11.51V3.35003L3.60031 2.03003H16.7703V5.36003H9.57031C9.46031 5.36003 9.36031 5.40003 9.28031 5.48003C9.20031 5.56003 9.16031 5.65003 9.16031 5.77003V5.81003C9.16031 5.91003 9.20031 6.00003 9.27031 6.07003C9.35031 6.14003 9.44031 6.18003 9.55031 6.18003H15.4903Z" fill="#003556" stroke="#003556" stroke-width="1.13" stroke-miterlimit="10"/>
<path d="M26.4498 2.03003H33.2798V16.99H26.4498V13.25C26.4498 12.98 26.3198 12.84 26.0598 12.84C25.7998 12.84 25.6698 12.98 25.6698 13.25V16.99H18.8398V2.03003H25.6698V5.77003C25.6698 6.04003 25.7998 6.18003 26.0598 6.18003C26.3198 6.18003 26.4498 6.04003 26.4498 5.77003V2.03003Z" fill="#003556" stroke="#003556" stroke-width="1.13" stroke-miterlimit="10"/>
<path d="M42.2011 13.25C42.2011 13.36 42.2311 13.46 42.3011 13.54C42.3711 13.62 42.4511 13.66 42.5511 13.66H42.5911C42.7011 13.66 42.7911 13.62 42.8711 13.53C42.9511 13.44 42.9811 13.34 42.9811 13.23V5.79003C42.9811 5.68003 42.9411 5.58003 42.8711 5.49003C42.8011 5.40003 42.7011 5.36003 42.5911 5.36003H42.5511C42.4511 5.36003 42.3711 5.40003 42.3011 5.48003C42.2311 5.56003 42.2011 5.65003 42.2011 5.77003V13.25ZM36.6511 16.99L35.3711 15.67V3.35003L36.6511 2.03003H48.5411L49.8211 3.35003V15.66L48.5411 16.98H36.6511V16.99Z" fill="#003556" stroke="#003556" stroke-width="1.13" stroke-miterlimit="10"/>
<path d="M58.7206 9.51003C58.7206 9.78003 58.8506 9.92003 59.1106 9.92003C59.3706 9.92003 59.5006 9.78003 59.5006 9.51003V5.77003C59.5006 5.50003 59.3706 5.36003 59.1106 5.36003C58.8506 5.36003 58.7206 5.50003 58.7206 5.77003V9.51003ZM59.1106 12.84C58.8506 12.84 58.7206 12.98 58.7206 13.25V16.99H51.8906V2.03003H65.0606L66.3406 3.35003V11.51L65.0606 12.83H59.1206L59.1106 12.84Z" fill="#003556" stroke="#003556" stroke-width="1.13" stroke-miterlimit="10"/>
<path d="M15.42 6.10997L16.7 7.42997V15.59L15.42 16.91H2.25V13.58H9.47C9.58 13.58 9.67 13.54 9.75 13.47C9.83 13.4 9.86 13.31 9.86 13.21V13.17C9.86 13.06 9.82 12.96 9.74 12.88C9.66 12.8 9.56 12.76 9.45 12.76H3.53L2.25 11.44V3.28997L3.53 1.96997H16.7V5.29997H9.5C9.39 5.29997 9.29 5.33997 9.21 5.41997C9.13 5.49997 9.09 5.58997 9.09 5.70997V5.74997C9.09 5.84997 9.13 5.93997 9.2 6.00997C9.28 6.07997 9.37 6.11997 9.48 6.11997H15.42V6.10997Z" fill="#003556" stroke="#003556" stroke-width="1.13" stroke-miterlimit="10"/>
<path d="M26.3717 1.96997H33.2017V16.93H26.3717V13.19C26.3717 12.92 26.2417 12.78 25.9817 12.78C25.7217 12.78 25.5917 12.92 25.5917 13.19V16.93H18.7617V1.96997H25.5917V5.70997C25.5917 5.97997 25.7217 6.11997 25.9817 6.11997C26.2417 6.11997 26.3717 5.97997 26.3717 5.70997V1.96997Z" fill="#003556" stroke="#003556" stroke-width="1.13" stroke-miterlimit="10"/>
<path d="M42.1191 13.18C42.1191 13.29 42.1491 13.39 42.2191 13.47C42.2891 13.55 42.3691 13.59 42.4691 13.59H42.5091C42.6191 13.59 42.7091 13.55 42.7891 13.46C42.8691 13.37 42.8991 13.27 42.8991 13.16V5.71997C42.8991 5.60997 42.8591 5.50997 42.7891 5.41997C42.7191 5.32997 42.6191 5.28997 42.5091 5.28997H42.4691C42.3691 5.28997 42.2891 5.32997 42.2191 5.40997C42.1491 5.48997 42.1191 5.57997 42.1191 5.69997V13.18ZM36.5691 16.92L35.2891 15.6V3.28997L36.5691 1.96997H48.4591L49.7391 3.28997V15.6L48.4591 16.92H36.5691Z" fill="#003556" stroke="#003556" stroke-width="1.13" stroke-miterlimit="10"/>
<path d="M58.6386 9.43997C58.6386 9.70997 58.7686 9.84997 59.0286 9.84997C59.2886 9.84997 59.4186 9.70997 59.4186 9.43997V5.69997C59.4186 5.42997 59.2886 5.28997 59.0286 5.28997C58.7686 5.28997 58.6386 5.42997 58.6386 5.69997V9.43997ZM59.0286 12.78C58.7686 12.78 58.6386 12.92 58.6386 13.19V16.93H51.8086V1.96997H64.9786L66.2586 3.28997V11.45L64.9786 12.77H59.0386L59.0286 12.78Z" fill="#003556" stroke="#003556" stroke-width="1.13" stroke-miterlimit="10"/>
<path d="M15.338 6.05016L16.618 7.37016V15.5302L15.338 16.8502H2.16797V13.5202H9.38797C9.49797 13.5202 9.58797 13.4802 9.66797 13.4102C9.74797 13.3402 9.77797 13.2502 9.77797 13.1502V13.1102C9.77797 13.0002 9.73797 12.9002 9.65797 12.8202C9.57797 12.7402 9.47797 12.7002 9.36797 12.7002H3.44797L2.16797 11.3802V3.23016L3.44797 1.91016H16.618V5.24016H9.41797C9.30797 5.24016 9.20797 5.28016 9.12797 5.36016C9.04797 5.44016 9.00797 5.53016 9.00797 5.65016V5.69016C9.00797 5.79016 9.04797 5.88016 9.11797 5.95016C9.19797 6.02016 9.28797 6.06016 9.39797 6.06016H15.338V6.05016Z" fill="#003556" stroke="#003556" stroke-width="1.13" stroke-miterlimit="10"/>
<path d="M26.2975 1.90015H33.1275V16.8601H26.2975V13.1201C26.2975 12.8501 26.1675 12.7101 25.9075 12.7101C25.6475 12.7101 25.5175 12.8501 25.5175 13.1201V16.8601H18.6875V1.90015H25.5175V5.64015C25.5175 5.91015 25.6475 6.05015 25.9075 6.05015C26.1675 6.05015 26.2975 5.91015 26.2975 5.64015V1.90015Z" fill="#003556" stroke="#003556" stroke-width="1.13" stroke-miterlimit="10"/>
<path d="M42.0487 13.1202C42.0487 13.2302 42.0788 13.3302 42.1488 13.4102C42.2188 13.4902 42.2988 13.5302 42.3988 13.5302H42.4387C42.5487 13.5302 42.6388 13.4902 42.7188 13.4002C42.7987 13.3102 42.8288 13.2102 42.8288 13.1002V5.66016C42.8288 5.55016 42.7888 5.45016 42.7188 5.36016C42.6487 5.27016 42.5487 5.23016 42.4387 5.23016H42.3988C42.2988 5.23016 42.2188 5.27016 42.1488 5.35016C42.0788 5.43016 42.0487 5.52016 42.0487 5.64016V13.1202ZM36.4987 16.8602L35.2188 15.5402V3.23016L36.4987 1.91016H48.3887L49.6687 3.23016V15.5402L48.3887 16.8602H36.4987Z" fill="#003556" stroke="#003556" stroke-width="1.13" stroke-miterlimit="10"/>
<path d="M58.5566 9.38015C58.5566 9.65015 58.6866 9.79015 58.9466 9.79015C59.2066 9.79015 59.3366 9.65015 59.3366 9.38015V5.64015C59.3366 5.37015 59.2066 5.23015 58.9466 5.23015C58.6866 5.23015 58.5566 5.37015 58.5566 5.64015V9.38015ZM58.9466 12.7101C58.6866 12.7101 58.5566 12.8501 58.5566 13.1201V16.8601H51.7266V1.90015H64.8966L66.1766 3.22015V11.3801L64.8966 12.7001H58.9566L58.9466 12.7101Z" fill="#003556" stroke="#003556" stroke-width="1.13" stroke-miterlimit="10"/>
<path d="M15.2598 5.98009L16.5398 7.30009V15.4601L15.2598 16.7801H2.08984V13.4501H9.30984C9.41984 13.4501 9.50984 13.4101 9.58984 13.3401C9.66984 13.2701 9.69984 13.1801 9.69984 13.0801V13.0401C9.69984 12.9301 9.65984 12.8301 9.57984 12.7501C9.49984 12.6701 9.39984 12.6301 9.28984 12.6301H3.36984L2.08984 11.3101V3.16009L3.36984 1.84009H16.5398V5.17009H9.33984C9.22984 5.17009 9.12984 5.21009 9.04984 5.29009C8.96984 5.37009 8.92984 5.46009 8.92984 5.58009V5.62009C8.92984 5.72009 8.96984 5.81009 9.03984 5.88009C9.11984 5.95009 9.20984 5.99009 9.31984 5.99009H15.2598V5.98009Z" fill="#003556" stroke="#003556" stroke-width="1.13" stroke-miterlimit="10"/>
<path d="M26.2194 1.84009H33.0494V16.8001H26.2194V13.0601C26.2194 12.7901 26.0894 12.6501 25.8294 12.6501C25.5694 12.6501 25.4394 12.7901 25.4394 13.0601V16.8001H18.6094V1.84009H25.4394V5.58009C25.4394 5.85009 25.5694 5.99009 25.8294 5.99009C26.0894 5.99009 26.2194 5.85009 26.2194 5.58009V1.84009Z" fill="#003556" stroke="#003556" stroke-width="1.13" stroke-miterlimit="10"/>
<path d="M41.9706 13.0601C41.9706 13.1701 42.0006 13.2701 42.0706 13.3501C42.1406 13.4301 42.2206 13.4701 42.3206 13.4701H42.3606C42.4706 13.4701 42.5606 13.4301 42.6406 13.3401C42.7206 13.2501 42.7506 13.1501 42.7506 13.0401V5.60009C42.7506 5.49009 42.7106 5.39009 42.6406 5.30009C42.5706 5.21009 42.4706 5.17009 42.3606 5.17009H42.3206C42.2206 5.17009 42.1406 5.21009 42.0706 5.29009C42.0006 5.37009 41.9706 5.46009 41.9706 5.58009V13.0601ZM36.4206 16.8001L35.1406 15.4801V3.16009L36.4206 1.84009H48.3106L49.5906 3.16009V15.4701L48.3106 16.7901H36.4206V16.8001Z" fill="#003556" stroke="#003556" stroke-width="1.13" stroke-miterlimit="10"/>
<path d="M58.4902 9.32009C58.4902 9.59009 58.6202 9.73009 58.8802 9.73009C59.1402 9.73009 59.2702 9.59009 59.2702 9.32009V5.58009C59.2702 5.31009 59.1402 5.17009 58.8802 5.17009C58.6202 5.17009 58.4902 5.31009 58.4902 5.58009V9.32009ZM58.8802 12.6501C58.6202 12.6501 58.4902 12.7901 58.4902 13.0601V16.8001H51.6602V1.84009H64.8302L66.1102 3.16009V11.3201L64.8302 12.6401H58.8902L58.8802 12.6501Z" fill="#003556" stroke="#003556" stroke-width="1.13" stroke-miterlimit="10"/>
<path d="M15.1895 5.92003L16.4695 7.24003V15.4L15.1895 16.72H2.01953V13.39H9.23953C9.34953 13.39 9.43953 13.35 9.51953 13.28C9.59953 13.21 9.62953 13.12 9.62953 13.02V12.98C9.62953 12.87 9.58953 12.77 9.50953 12.69C9.42953 12.61 9.32953 12.57 9.21953 12.57H3.29953L2.01953 11.25V3.10003L3.29953 1.78003H16.4695V5.11003H9.26953C9.15953 5.11003 9.05953 5.15003 8.97953 5.23003C8.89953 5.31003 8.85953 5.40003 8.85953 5.52003V5.56003C8.85953 5.66003 8.89953 5.75003 8.96953 5.82003C9.04953 5.89003 9.13953 5.93003 9.24953 5.93003H15.1895V5.92003Z" fill="#003556" stroke="#003556" stroke-width="1.13" stroke-miterlimit="10"/>
<path d="M26.1491 1.77002H32.9791V16.73H26.1491V12.99C26.1491 12.72 26.0191 12.58 25.7591 12.58C25.4991 12.58 25.3691 12.72 25.3691 12.99V16.73H18.5391V1.77002H25.3691V5.51002C25.3691 5.78002 25.4991 5.92002 25.7591 5.92002C26.0191 5.92002 26.1491 5.78002 26.1491 5.51002V1.77002Z" fill="#003556" stroke="#003556" stroke-width="1.13" stroke-miterlimit="10"/>
<path d="M41.8986 12.99C41.8986 13.1 41.9286 13.2 41.9986 13.28C42.0686 13.36 42.1486 13.4 42.2486 13.4H42.2886C42.3986 13.4 42.4886 13.36 42.5686 13.27C42.6486 13.18 42.6786 13.08 42.6786 12.97V5.53003C42.6786 5.42003 42.6386 5.32003 42.5686 5.23003C42.4986 5.14003 42.3986 5.10003 42.2886 5.10003H42.2486C42.1486 5.10003 42.0686 5.14003 41.9986 5.22003C41.9286 5.30003 41.8986 5.39003 41.8986 5.51003V12.99ZM36.3386 16.73L35.0586 15.41V3.10003L36.3386 1.78003H48.2286L49.5086 3.10003V15.41L48.2286 16.73H36.3386Z" fill="#003556" stroke="#003556" stroke-width="1.13" stroke-miterlimit="10"/>
<path d="M58.4081 9.25002C58.4081 9.52002 58.5381 9.66002 58.7981 9.66002C59.0581 9.66002 59.1881 9.52002 59.1881 9.25002V5.51002C59.1881 5.24002 59.0581 5.10002 58.7981 5.10002C58.5381 5.10002 58.4081 5.24002 58.4081 5.51002V9.25002ZM58.7981 12.59C58.5381 12.59 58.4081 12.73 58.4081 13V16.74H51.5781V1.77002H64.7481L66.0281 3.09002V11.25L64.7481 12.57H58.8081L58.7981 12.59Z" fill="#003556" stroke="#003556" stroke-width="1.13" stroke-miterlimit="10"/>
<path d="M15.1075 5.85997L16.3875 7.17997V15.34L15.1075 16.66H1.9375V13.33H9.1575C9.2675 13.33 9.3575 13.29 9.4375 13.22C9.5175 13.15 9.5475 13.06 9.5475 12.96V12.92C9.5475 12.81 9.5075 12.71 9.4275 12.63C9.3475 12.55 9.2475 12.51 9.1375 12.51H3.2175L1.9375 11.19V3.03997L3.2175 1.71997H16.3875V5.04997H9.1875C9.0775 5.04997 8.9775 5.08997 8.8975 5.16997C8.8175 5.24997 8.7775 5.33997 8.7775 5.45997V5.49997C8.7775 5.59997 8.8175 5.68997 8.8875 5.75997C8.9675 5.82997 9.0575 5.86997 9.1675 5.86997H15.1075V5.85997Z" fill="#003556" stroke="#003556" stroke-width="1.13" stroke-miterlimit="10"/>
<path d="M26.067 1.70996H32.897V16.67H26.067V12.93C26.067 12.66 25.937 12.52 25.677 12.52C25.417 12.52 25.287 12.66 25.287 12.93V16.67H18.457V1.70996H25.287V5.44996C25.287 5.71996 25.417 5.85996 25.677 5.85996C25.937 5.85996 26.067 5.71996 26.067 5.44996V1.70996Z" fill="#003556" stroke="#003556" stroke-width="1.13" stroke-miterlimit="10"/>
<path d="M41.8183 12.93C41.8183 13.04 41.8483 13.14 41.9183 13.22C41.9883 13.3 42.0683 13.34 42.1683 13.34H42.2083C42.3183 13.34 42.4083 13.3 42.4883 13.21C42.5683 13.12 42.5983 13.02 42.5983 12.91V5.46997C42.5983 5.35997 42.5583 5.25997 42.4883 5.16997C42.4183 5.07997 42.3183 5.03997 42.2083 5.03997H42.1683C42.0683 5.03997 41.9883 5.07997 41.9183 5.15997C41.8483 5.23997 41.8183 5.32997 41.8183 5.44997V12.93ZM36.2683 16.67L34.9883 15.35V3.03997L36.2683 1.71997H48.1583L49.4383 3.03997V15.35L48.1583 16.67H36.2683Z" fill="#003556" stroke="#003556" stroke-width="1.13" stroke-miterlimit="10"/>
<path d="M58.3278 9.18996C58.3278 9.45996 58.4578 9.59996 58.7178 9.59996C58.9778 9.59996 59.1078 9.45996 59.1078 9.18996V5.44996C59.1078 5.17996 58.9778 5.03996 58.7178 5.03996C58.4578 5.03996 58.3278 5.17996 58.3278 5.44996V9.18996ZM58.7278 12.52C58.4678 12.52 58.3378 12.66 58.3378 12.93V16.67H51.5078V1.70996H64.6778L65.9578 3.02996V11.19L64.6778 12.51H58.7378L58.7278 12.52Z" fill="#003556" stroke="#003556" stroke-width="1.13" stroke-miterlimit="10"/>
<path d="M15.0294 5.79015L16.3094 7.11015V15.2701L15.0294 16.5901H1.85938V13.2601H9.07937C9.18937 13.2601 9.27937 13.2201 9.35937 13.1501C9.43937 13.0801 9.46938 12.9901 9.46938 12.8901V12.8501C9.46938 12.7401 9.42938 12.6401 9.34938 12.5601C9.26938 12.4801 9.16938 12.4401 9.05938 12.4401H3.13938L1.85938 11.1201V2.97015L3.13938 1.65015H16.3094V4.98015H9.10937C8.99937 4.98015 8.89937 5.02015 8.81937 5.10015C8.73937 5.18015 8.69937 5.27015 8.69937 5.39015V5.43015C8.69937 5.53015 8.73938 5.62015 8.80938 5.69015C8.88938 5.76015 8.97937 5.80015 9.08938 5.80015H15.0294V5.79015Z" fill="#003556" stroke="#003556" stroke-width="1.13" stroke-miterlimit="10"/>
<path d="M25.9889 1.65015H32.8189V16.6101H25.9889V12.8701C25.9889 12.6001 25.8589 12.4601 25.5989 12.4601C25.3389 12.4601 25.2089 12.6001 25.2089 12.8701V16.6101H18.3789V1.65015H25.2089V5.39015C25.2089 5.66015 25.3389 5.80015 25.5989 5.80015C25.8589 5.80015 25.9889 5.66015 25.9889 5.39015V1.65015Z" fill="#003556" stroke="#003556" stroke-width="1.13" stroke-miterlimit="10"/>
<path d="M41.7402 12.8701C41.7402 12.9801 41.7702 13.0801 41.8402 13.1601C41.9102 13.2401 41.9902 13.2801 42.0902 13.2801H42.1302C42.2402 13.2801 42.3302 13.2401 42.4102 13.1501C42.4902 13.0601 42.5202 12.9601 42.5202 12.8501V5.41015C42.5202 5.30015 42.4802 5.20015 42.4102 5.11015C42.3402 5.02015 42.2402 4.98015 42.1302 4.98015H42.0902C41.9902 4.98015 41.9102 5.02015 41.8402 5.10015C41.7702 5.18015 41.7402 5.27015 41.7402 5.39015V12.8701ZM36.1902 16.6101L34.9102 15.2901V2.97015L36.1902 1.65015H48.0802L49.3602 2.97015V15.2801L48.0802 16.6001H36.1902V16.6101Z" fill="#003556" stroke="#003556" stroke-width="1.13" stroke-miterlimit="10"/>
<path d="M58.2597 9.13015C58.2597 9.40015 58.3897 9.54015 58.6497 9.54015C58.9097 9.54015 59.0397 9.40015 59.0397 9.13015V5.39015C59.0397 5.12015 58.9097 4.98015 58.6497 4.98015C58.3897 4.98015 58.2597 5.12015 58.2597 5.39015V9.13015ZM58.6497 12.4601C58.3897 12.4601 58.2597 12.6001 58.2597 12.8701V16.6101H51.4297V1.65015H64.5997L65.8797 2.97015V11.1301L64.5997 12.4501H58.6597L58.6497 12.4601Z" fill="#003556" stroke="#003556" stroke-width="1.13" stroke-miterlimit="10"/>
<path d="M14.9591 5.73009L16.2391 7.05009V15.2101L14.9591 16.5301H1.78906V13.2001H9.00906C9.11906 13.2001 9.20906 13.1601 9.28906 13.0901C9.36906 13.0201 9.39906 12.9301 9.39906 12.8301V12.7901C9.39906 12.6801 9.35906 12.5801 9.27906 12.5001C9.19906 12.4201 9.09906 12.3801 8.98906 12.3801H3.06906L1.78906 11.0601V2.91009L3.06906 1.59009H16.2391V4.92009H9.03906C8.92906 4.92009 8.82906 4.96009 8.74906 5.04009C8.66906 5.12009 8.62906 5.21009 8.62906 5.33009V5.37009C8.62906 5.47009 8.66906 5.56009 8.73906 5.63009C8.81906 5.70009 8.90906 5.74009 9.01906 5.74009H14.9591V5.73009Z" fill="#003556" stroke="#003556" stroke-width="1.13" stroke-miterlimit="10"/>
<path d="M25.9186 1.58008H32.7486V16.5401H25.9186V12.8001C25.9186 12.5301 25.7886 12.3901 25.5286 12.3901C25.2686 12.3901 25.1386 12.5301 25.1386 12.8001V16.5401H18.3086V1.58008H25.1386V5.32008C25.1386 5.59008 25.2686 5.73008 25.5286 5.73008C25.7886 5.73008 25.9186 5.59008 25.9186 5.32008V1.58008Z" fill="#003556" stroke="#003556" stroke-width="1.13" stroke-miterlimit="10"/>
<path d="M41.6681 12.8001C41.6681 12.9101 41.6981 13.0101 41.7681 13.0901C41.8381 13.1701 41.9181 13.2101 42.0181 13.2101H42.0581C42.1681 13.2101 42.2581 13.1701 42.3381 13.0801C42.4181 12.9901 42.4481 12.8901 42.4481 12.7801V5.34009C42.4481 5.23009 42.4081 5.13009 42.3381 5.04009C42.2681 4.95009 42.1681 4.91009 42.0581 4.91009H42.0181C41.9181 4.91009 41.8381 4.95009 41.7681 5.03009C41.6981 5.11009 41.6681 5.20009 41.6681 5.32009V12.8001ZM36.1081 16.5401L34.8281 15.2201V2.91009L36.1081 1.59009H47.9981L49.2781 2.91009V15.2201L47.9981 16.5401H36.1081Z" fill="#003556" stroke="#003556" stroke-width="1.13" stroke-miterlimit="10"/>
<path d="M58.1777 9.06008C58.1777 9.33008 58.3077 9.47008 58.5677 9.47008C58.8277 9.47008 58.9577 9.33008 58.9577 9.06008V5.32008C58.9577 5.05008 58.8277 4.91008 58.5677 4.91008C58.3077 4.91008 58.1777 5.05008 58.1777 5.32008V9.06008ZM58.5677 12.4001C58.3077 12.4001 58.1777 12.5401 58.1777 12.8101V16.5501H51.3477V1.58008H64.5177L65.7977 2.90008V11.0601L64.5177 12.3801H58.5777L58.5677 12.4001Z" fill="#003556" stroke="#003556" stroke-width="1.13" stroke-miterlimit="10"/>
<path d="M14.877 5.67002L16.157 6.99002V15.15L14.877 16.47H1.70703V13.14H8.92703C9.03703 13.14 9.12703 13.1 9.20703 13.03C9.28703 12.96 9.31703 12.87 9.31703 12.77V12.73C9.31703 12.62 9.27703 12.52 9.19703 12.44C9.11703 12.36 9.01703 12.32 8.90703 12.32H2.98703L1.70703 11V2.84002L2.98703 1.52002H16.157V4.85002H8.95703C8.84703 4.85002 8.74703 4.89002 8.66703 4.97002C8.58703 5.05002 8.54703 5.14002 8.54703 5.26002V5.30002C8.54703 5.40002 8.58703 5.49002 8.65703 5.56002C8.73703 5.63002 8.82703 5.67002 8.93703 5.67002H14.877Z" fill="#003556" stroke="#003556" stroke-width="1.13" stroke-miterlimit="10"/>
<path d="M25.8366 1.52002H32.6666V16.48H25.8366V12.74C25.8366 12.47 25.7066 12.33 25.4466 12.33C25.1866 12.33 25.0566 12.47 25.0566 12.74V16.48H18.2266V1.52002H25.0566V5.26002C25.0566 5.53002 25.1866 5.67002 25.4466 5.67002C25.7066 5.67002 25.8366 5.53002 25.8366 5.26002V1.52002Z" fill="#003556" stroke="#003556" stroke-width="1.13" stroke-miterlimit="10"/>
<path d="M41.5878 12.74C41.5878 12.85 41.6178 12.95 41.6878 13.03C41.7578 13.11 41.8378 13.15 41.9378 13.15H41.9778C42.0878 13.15 42.1778 13.11 42.2578 13.02C42.3378 12.93 42.3678 12.83 42.3678 12.72V5.28002C42.3678 5.17002 42.3278 5.07002 42.2578 4.98002C42.1878 4.89002 42.0878 4.85002 41.9778 4.85002H41.9378C41.8378 4.85002 41.7578 4.89002 41.6878 4.97002C41.6178 5.05002 41.5878 5.14002 41.5878 5.26002V12.74ZM36.0378 16.48L34.7578 15.16V2.84002L36.0378 1.52002H47.9278L49.2078 2.84002V15.15L47.9278 16.47H36.0378V16.48Z" fill="#003556" stroke="#003556" stroke-width="1.13" stroke-miterlimit="10"/>
<path d="M58.0973 9.00002C58.0973 9.27002 58.2273 9.41002 58.4873 9.41002C58.7473 9.41002 58.8773 9.27002 58.8773 9.00002V5.26002C58.8773 4.99002 58.7473 4.85002 58.4873 4.85002C58.2273 4.85002 58.0973 4.99002 58.0973 5.26002V9.00002ZM58.4973 12.33C58.2373 12.33 58.1073 12.47 58.1073 12.74V16.48H51.2773V1.52002H64.4473L65.7273 2.84002V11L64.4473 12.32H58.5073L58.4973 12.33Z" fill="#003556" stroke="#003556" stroke-width="1.13" stroke-miterlimit="10"/>
<path d="M14.7989 5.59996L16.0789 6.91996V15.08L14.7989 16.4H1.62891V13.07H8.84891C8.95891 13.07 9.04891 13.03 9.12891 12.96C9.20891 12.89 9.23891 12.8 9.23891 12.7V12.66C9.23891 12.55 9.19891 12.45 9.11891 12.37C9.03891 12.29 8.93891 12.25 8.82891 12.25H2.90891L1.62891 10.93V2.77996L2.90891 1.45996H16.0789V4.78996H8.87891C8.76891 4.78996 8.66891 4.82996 8.58891 4.90996C8.50891 4.98996 8.46891 5.07996 8.46891 5.19996V5.23996C8.46891 5.33996 8.50891 5.42996 8.57891 5.49996C8.65891 5.56996 8.74891 5.60996 8.85891 5.60996H14.7989V5.59996Z" fill="#003556" stroke="#003556" stroke-width="1.13" stroke-miterlimit="10"/>
<path d="M25.7584 1.45996H32.5884V16.42H25.7584V12.68C25.7584 12.41 25.6284 12.27 25.3684 12.27C25.1084 12.27 24.9784 12.41 24.9784 12.68V16.42H18.1484V1.45996H24.9784V5.19996C24.9784 5.46996 25.1084 5.60996 25.3684 5.60996C25.6284 5.60996 25.7584 5.46996 25.7584 5.19996V1.45996Z" fill="#003556" stroke="#003556" stroke-width="1.13" stroke-miterlimit="10"/>
<path d="M41.5097 12.68C41.5097 12.79 41.5397 12.89 41.6097 12.97C41.6797 13.05 41.7597 13.09 41.8597 13.09H41.8997C42.0097 13.09 42.0997 13.05 42.1797 12.96C42.2597 12.87 42.2897 12.77 42.2897 12.66V5.21996C42.2897 5.10996 42.2497 5.00996 42.1797 4.91996C42.1097 4.82996 42.0097 4.78996 41.8997 4.78996H41.8597C41.7597 4.78996 41.6797 4.82996 41.6097 4.90996C41.5397 4.98996 41.5097 5.07996 41.5097 5.19996V12.68ZM35.9597 16.42L34.6797 15.1V2.77996L35.9597 1.45996H47.8497L49.1297 2.77996V15.09L47.8497 16.41H35.9597V16.42Z" fill="#003556" stroke="#003556" stroke-width="1.13" stroke-miterlimit="10"/>
<path d="M58.0292 8.93996C58.0292 9.20996 58.1592 9.34996 58.4192 9.34996C58.6792 9.34996 58.8092 9.20996 58.8092 8.93996V5.19996C58.8092 4.92996 58.6792 4.78996 58.4192 4.78996C58.1592 4.78996 58.0292 4.92996 58.0292 5.19996V8.93996ZM58.4192 12.27C58.1592 12.27 58.0292 12.41 58.0292 12.68V16.42H51.1992V1.45996H64.3692L65.6492 2.77996V10.94L64.3692 12.26H58.4292L58.4192 12.27Z" fill="#003556" stroke="#003556" stroke-width="1.13" stroke-miterlimit="10"/>
<path d="M14.7286 5.54015L16.0086 6.86015V15.0201L14.7286 16.3401H1.55859V13.0101H8.77859C8.88859 13.0101 8.97859 12.9701 9.05859 12.9001C9.13859 12.8301 9.16859 12.7401 9.16859 12.6401V12.6001C9.16859 12.4901 9.12859 12.3901 9.04859 12.3101C8.96859 12.2301 8.86859 12.1901 8.75859 12.1901H2.83859L1.55859 10.8701V2.72015L2.83859 1.40015H16.0086V4.73015H8.80859C8.69859 4.73015 8.59859 4.77015 8.51859 4.85015C8.43859 4.93015 8.39859 5.02015 8.39859 5.14015V5.18015C8.39859 5.28015 8.43859 5.37015 8.50859 5.44015C8.58859 5.51015 8.67859 5.55015 8.78859 5.55015H14.7286V5.54015Z" fill="#003556" stroke="#003556" stroke-width="1.13" stroke-miterlimit="10"/>
<path d="M25.6881 1.39014H32.5181V16.3501H25.6881V12.6101C25.6881 12.3401 25.5581 12.2001 25.2981 12.2001C25.0381 12.2001 24.9081 12.3401 24.9081 12.6101V16.3501H18.0781V1.39014H24.9081V5.13014C24.9081 5.40014 25.0381 5.54014 25.2981 5.54014C25.5581 5.54014 25.6881 5.40014 25.6881 5.13014V1.39014Z" fill="#003556" stroke="#003556" stroke-width="1.13" stroke-miterlimit="10"/>
<path d="M41.4377 12.6101C41.4377 12.7201 41.4677 12.8201 41.5377 12.9001C41.6077 12.9801 41.6877 13.0201 41.7877 13.0201H41.8277C41.9377 13.0201 42.0277 12.9801 42.1077 12.8901C42.1877 12.8001 42.2177 12.7001 42.2177 12.5901V5.15015C42.2177 5.04015 42.1777 4.94015 42.1077 4.85015C42.0377 4.76015 41.9377 4.72015 41.8277 4.72015H41.7877C41.6877 4.72015 41.6077 4.76015 41.5377 4.84015C41.4677 4.92015 41.4377 5.01015 41.4377 5.13015V12.6101ZM35.8777 16.3501L34.5977 15.0301V2.72015L35.8777 1.40015H47.7677L49.0477 2.72015V15.0301L47.7677 16.3501H35.8777Z" fill="#003556" stroke="#003556" stroke-width="1.13" stroke-miterlimit="10"/>
<path d="M57.9472 8.87014C57.9472 9.14014 58.0772 9.28014 58.3372 9.28014C58.5972 9.28014 58.7272 9.14014 58.7272 8.87014V5.13014C58.7272 4.86014 58.5972 4.72014 58.3372 4.72014C58.0772 4.72014 57.9472 4.86014 57.9472 5.13014V8.87014ZM58.3372 12.2101C58.0772 12.2101 57.9472 12.3501 57.9472 12.6201V16.3601H51.1172V1.39014H64.2872L65.5672 2.71014V10.8701L64.2872 12.1901H58.3472L58.3372 12.2101Z" fill="#003556" stroke="#003556" stroke-width="1.13" stroke-miterlimit="10"/>
<path d="M14.6505 5.47008L15.9305 6.79008V14.9501L14.6505 16.2701H1.48047V12.9401H8.70047C8.81047 12.9401 8.90047 12.9001 8.98047 12.8301C9.06047 12.7601 9.09047 12.6701 9.09047 12.5701V12.5301C9.09047 12.4201 9.05047 12.3201 8.97047 12.2401C8.89047 12.1601 8.79047 12.1201 8.68047 12.1201H2.76047L1.48047 10.8001V2.65008L2.76047 1.33008H15.9305V4.66008H8.73047C8.62047 4.66008 8.52047 4.70008 8.44047 4.78008C8.36047 4.86008 8.32047 4.95008 8.32047 5.07008V5.11008C8.32047 5.21008 8.36047 5.30008 8.43047 5.37008C8.51047 5.44008 8.60047 5.48008 8.71047 5.48008H14.6505V5.47008Z" fill="#003556" stroke="#003556" stroke-width="1.13" stroke-miterlimit="10"/>
<path d="M25.61 1.33008H32.44V16.2901H25.61V12.5501C25.61 12.2801 25.48 12.1401 25.22 12.1401C24.96 12.1401 24.83 12.2801 24.83 12.5501V16.2901H18V1.33008H24.83V5.07008C24.83 5.34008 24.96 5.48008 25.22 5.48008C25.48 5.48008 25.61 5.34008 25.61 5.07008V1.33008Z" fill="#003556" stroke="#003556" stroke-width="1.13" stroke-miterlimit="10"/>
<path d="M41.3613 12.5501C41.3613 12.6601 41.3913 12.7601 41.4613 12.8401C41.5313 12.9201 41.6113 12.9601 41.7113 12.9601H41.7513C41.8613 12.9601 41.9513 12.9201 42.0312 12.8301C42.1112 12.7401 42.1413 12.6401 42.1413 12.5301V5.09008C42.1413 4.98008 42.1013 4.88008 42.0312 4.79008C41.9612 4.70008 41.8613 4.66008 41.7513 4.66008H41.7113C41.6113 4.66008 41.5313 4.70008 41.4613 4.78008C41.3913 4.86008 41.3613 4.95008 41.3613 5.07008V12.5501ZM35.8113 16.2901L34.5312 14.9701V2.65008L35.8113 1.33008H47.7013L48.9813 2.65008V14.9601L47.7013 16.2801H35.8113V16.2901Z" fill="#003556" stroke="#003556" stroke-width="1.13" stroke-miterlimit="10"/>
<path d="M57.8708 8.81008C57.8708 9.08008 58.0008 9.22008 58.2608 9.22008C58.5208 9.22008 58.6508 9.08008 58.6508 8.81008V5.07008C58.6508 4.80008 58.5208 4.66008 58.2608 4.66008C58.0008 4.66008 57.8708 4.80008 57.8708 5.07008V8.81008ZM58.2708 12.1401C58.0108 12.1401 57.8808 12.2801 57.8808 12.5501V16.2901H51.0508V1.33008H64.2208L65.5008 2.65008V10.8101L64.2208 12.1301H58.2808L58.2708 12.1401Z" fill="#003556" stroke="#003556" stroke-width="1.13" stroke-miterlimit="10"/>
<path d="M14.5702 5.41002L15.8502 6.73002V14.89L14.5702 16.21H1.41016V12.88H8.63016C8.74016 12.88 8.83016 12.84 8.91016 12.77C8.99016 12.7 9.02016 12.61 9.02016 12.51V12.47C9.02016 12.36 8.98016 12.26 8.90016 12.18C8.82016 12.1 8.72016 12.06 8.61016 12.06H2.69016L1.41016 10.74V2.59002L2.69016 1.27002H15.8602V4.60002H8.66016C8.55016 4.60002 8.45016 4.64002 8.37016 4.72002C8.29016 4.80002 8.25016 4.89002 8.25016 5.01002V5.05002C8.25016 5.15002 8.29016 5.24002 8.36016 5.31002C8.44016 5.38002 8.53016 5.42002 8.64016 5.42002H14.5802L14.5702 5.41002Z" fill="#003556" stroke="#003556" stroke-width="1.13" stroke-miterlimit="10"/>
<path d="M25.5319 1.27002H32.3619V16.23H25.5319V12.49C25.5319 12.22 25.4019 12.08 25.1419 12.08C24.8819 12.08 24.7519 12.22 24.7519 12.49V16.23H17.9219V1.27002H24.7519V5.01002C24.7519 5.28002 24.8819 5.42002 25.1419 5.42002C25.4019 5.42002 25.5319 5.28002 25.5319 5.01002V1.27002Z" fill="#003556" stroke="#003556" stroke-width="1.13" stroke-miterlimit="10"/>
<path d="M41.2792 12.48C41.2792 12.59 41.3092 12.69 41.3792 12.77C41.4492 12.85 41.5292 12.89 41.6292 12.89H41.6692C41.7792 12.89 41.8692 12.85 41.9492 12.76C42.0292 12.67 42.0592 12.57 42.0592 12.46V5.02002C42.0592 4.91002 42.0192 4.81002 41.9492 4.72002C41.8792 4.63002 41.7792 4.59002 41.6692 4.59002H41.6292C41.5292 4.59002 41.4492 4.63002 41.3792 4.71002C41.3092 4.79002 41.2792 4.88002 41.2792 5.00002V12.48ZM35.7292 16.22L34.4492 14.9V2.59002L35.7292 1.27002H47.6192L48.8992 2.59002V14.9L47.6192 16.22H35.7292Z" fill="#003556" stroke="#003556" stroke-width="1.13" stroke-miterlimit="10"/>
<path d="M57.7987 8.74002C57.7987 9.01002 57.9287 9.15002 58.1887 9.15002C58.4487 9.15002 58.5788 9.01002 58.5788 8.74002V5.00002C58.5788 4.73002 58.4487 4.59002 58.1887 4.59002C57.9287 4.59002 57.7987 4.73002 57.7987 5.00002V8.74002ZM58.1887 12.08C57.9287 12.08 57.7987 12.22 57.7987 12.49V16.23H50.9688V1.27002H64.1387L65.4187 2.59002V10.75L64.1387 12.07H58.1987L58.1887 12.08Z" fill="#003556" stroke="#003556" stroke-width="1.13" stroke-miterlimit="10"/>
<path d="M14.4981 5.34996L15.7781 6.66996V14.83L14.4981 16.15H1.32812V12.82H8.54813C8.65813 12.82 8.74813 12.78 8.82812 12.71C8.90812 12.64 8.93812 12.55 8.93812 12.45V12.41C8.93812 12.3 8.89812 12.2 8.81812 12.12C8.73812 12.04 8.63812 12 8.52812 12H2.60812L1.32812 10.68V2.52996L2.60812 1.20996H15.7781V4.53996H8.57812C8.46812 4.53996 8.36812 4.57996 8.28813 4.65996C8.20813 4.73996 8.16813 4.82996 8.16813 4.94996V4.98996C8.16813 5.08996 8.20812 5.17996 8.27812 5.24996C8.35812 5.31996 8.44813 5.35996 8.55813 5.35996H14.4981V5.34996Z" fill="#003556" stroke="#003556" stroke-width="1.13" stroke-miterlimit="10"/>
<path d="M25.4577 1.19995H32.2877V16.16H25.4577V12.42C25.4577 12.15 25.3277 12.01 25.0677 12.01C24.8077 12.01 24.6777 12.15 24.6777 12.42V16.16H17.8477V1.19995H24.6777V4.93995C24.6777 5.20995 24.8077 5.34995 25.0677 5.34995C25.3277 5.34995 25.4577 5.20995 25.4577 4.93995V1.19995Z" fill="#003556" stroke="#003556" stroke-width="1.13" stroke-miterlimit="10"/>
<path d="M41.2089 12.42C41.2089 12.53 41.2389 12.63 41.3089 12.71C41.3789 12.79 41.4589 12.83 41.5589 12.83H41.5989C41.7089 12.83 41.7989 12.79 41.8789 12.7C41.9589 12.61 41.9889 12.51 41.9889 12.4V4.95996C41.9889 4.84996 41.9489 4.74996 41.8789 4.65996C41.8089 4.56996 41.7089 4.52996 41.5989 4.52996H41.5589C41.4589 4.52996 41.3789 4.56996 41.3089 4.64996C41.2389 4.72996 41.2089 4.81996 41.2089 4.93996V12.42ZM35.6589 16.16L34.3789 14.84V2.52996L35.6589 1.20996H47.5489L48.8289 2.52996V14.84L47.5489 16.16H35.6589Z" fill="#003556" stroke="#003556" stroke-width="1.13" stroke-miterlimit="10"/>
<path d="M57.7167 8.67995C57.7167 8.94995 57.8467 9.08995 58.1067 9.08995C58.3667 9.08995 58.4967 8.94995 58.4967 8.67995V4.93995C58.4967 4.66995 58.3667 4.52995 58.1067 4.52995C57.8467 4.52995 57.7167 4.66995 57.7167 4.93995V8.67995ZM58.1067 12.01C57.8467 12.01 57.7167 12.15 57.7167 12.42V16.16H50.8867V1.19995H64.0567L65.3367 2.51995V10.68L64.0567 12H58.1167L58.1067 12.01Z" fill="#003556" stroke="#003556" stroke-width="1.13" stroke-miterlimit="10"/>
<path d="M14.42 5.28014L15.7 6.60014V14.7601L14.42 16.0801H1.25V12.7501H8.47C8.58 12.7501 8.67 12.7101 8.75 12.6401C8.83 12.5701 8.86 12.4801 8.86 12.3801V12.3401C8.86 12.2301 8.82 12.1301 8.74 12.0501C8.66 11.9701 8.56 11.9301 8.45 11.9301H2.53L1.25 10.6101V2.46014L2.53 1.14014H15.7V4.47014H8.5C8.39 4.47014 8.29 4.51014 8.21 4.59014C8.13 4.67014 8.09 4.76014 8.09 4.88014V4.92014C8.09 5.02014 8.13 5.11014 8.2 5.18014C8.28 5.25014 8.37 5.29014 8.48 5.29014H14.42V5.28014Z" fill="#003556" stroke="#003556" stroke-width="1.13" stroke-miterlimit="10"/>
<path d="M25.3795 1.14014H32.2095V16.1001H25.3795V12.3601C25.3795 12.0901 25.2495 11.9501 24.9895 11.9501C24.7295 11.9501 24.5995 12.0901 24.5995 12.3601V16.1001H17.7695V1.14014H24.5995V4.88014C24.5995 5.15014 24.7295 5.29014 24.9895 5.29014C25.2495 5.29014 25.3795 5.15014 25.3795 4.88014V1.14014Z" fill="#003556" stroke="#003556" stroke-width="1.13" stroke-miterlimit="10"/>
<path d="M41.1308 12.3601C41.1308 12.4701 41.1608 12.5701 41.2308 12.6501C41.3008 12.7301 41.3808 12.7701 41.4808 12.7701H41.5208C41.6308 12.7701 41.7208 12.7301 41.8008 12.6401C41.8808 12.5501 41.9108 12.4501 41.9108 12.3401V4.90014C41.9108 4.79014 41.8708 4.69014 41.8008 4.60014C41.7308 4.51014 41.6308 4.47014 41.5208 4.47014H41.4808C41.3808 4.47014 41.3008 4.51014 41.2308 4.59014C41.1608 4.67014 41.1308 4.76014 41.1308 4.88014V12.3601ZM35.5808 16.1001L34.3008 14.7801V2.46014L35.5808 1.14014H47.4708L48.7508 2.46014V14.7701L47.4708 16.0901H35.5808V16.1001Z" fill="#003556" stroke="#003556" stroke-width="1.13" stroke-miterlimit="10"/>
<path d="M57.6503 8.62014C57.6503 8.89014 57.7803 9.03014 58.0403 9.03014C58.3003 9.03014 58.4303 8.89014 58.4303 8.62014V4.88014C58.4303 4.61014 58.3003 4.47014 58.0403 4.47014C57.7803 4.47014 57.6503 4.61014 57.6503 4.88014V8.62014ZM58.0403 11.9501C57.7803 11.9501 57.6503 12.0901 57.6503 12.3601V16.1001H50.8203V1.14014H63.9903L65.2703 2.46014V10.6201L63.9903 11.9401H58.0503L58.0403 11.9501Z" fill="#003556" stroke="#003556" stroke-width="1.13" stroke-miterlimit="10"/>
<path d="M14.3497 5.22008L15.6297 6.54008V14.7001L14.3497 16.0201H1.17969V12.6901H8.39969C8.50969 12.6901 8.59969 12.6501 8.67969 12.5801C8.75969 12.5101 8.78969 12.4201 8.78969 12.3201V12.2801C8.78969 12.1701 8.74969 12.0701 8.66969 11.9901C8.58969 11.9101 8.48969 11.8701 8.37969 11.8701H2.45969L1.17969 10.5501V2.40008L2.45969 1.08008H15.6297V4.41008H8.42969C8.31969 4.41008 8.21969 4.45008 8.13969 4.53008C8.05969 4.61008 8.01969 4.70008 8.01969 4.82008V4.86008C8.01969 4.96008 8.05969 5.05008 8.12969 5.12008C8.20969 5.19008 8.29969 5.23008 8.40969 5.23008H14.3497V5.22008Z" fill="#003556" stroke="#003556" stroke-width="1.13" stroke-miterlimit="10"/>
<path d="M25.3092 1.07007H32.1392V16.0301H25.3092V12.2901C25.3092 12.0201 25.1792 11.8801 24.9192 11.8801C24.6592 11.8801 24.5292 12.0201 24.5292 12.2901V16.0301H17.6992V1.07007H24.5292V4.81007C24.5292 5.08007 24.6592 5.22007 24.9192 5.22007C25.1792 5.22007 25.3092 5.08007 25.3092 4.81007V1.07007Z" fill="#003556" stroke="#003556" stroke-width="1.13" stroke-miterlimit="10"/>
<path d="M41.0588 12.2901C41.0588 12.4001 41.0887 12.5001 41.1587 12.5801C41.2287 12.6601 41.3087 12.7001 41.4087 12.7001H41.4487C41.5587 12.7001 41.6487 12.6601 41.7287 12.5701C41.8087 12.4801 41.8387 12.3801 41.8387 12.2701V4.83008C41.8387 4.72008 41.7987 4.62008 41.7287 4.53008C41.6587 4.44008 41.5587 4.40008 41.4487 4.40008H41.4087C41.3087 4.40008 41.2287 4.44008 41.1587 4.52008C41.0887 4.60008 41.0588 4.69008 41.0588 4.81008V12.2901ZM35.4987 16.0301L34.2188 14.7101V2.40008L35.4987 1.08008H47.3887L48.6687 2.40008V14.7101L47.3887 16.0301H35.4987Z" fill="#003556" stroke="#003556" stroke-width="1.13" stroke-miterlimit="10"/>
<path d="M57.5683 8.55007C57.5683 8.82007 57.6983 8.96007 57.9583 8.96007C58.2183 8.96007 58.3483 8.82007 58.3483 8.55007V4.81007C58.3483 4.54007 58.2183 4.40007 57.9583 4.40007C57.6983 4.40007 57.5683 4.54007 57.5683 4.81007V8.55007ZM57.9583 11.8901C57.6983 11.8901 57.5683 12.0301 57.5683 12.3001V16.0401H50.7383V1.07007H63.9083L65.1883 2.39007V10.5501L63.9083 11.8701H57.9683L57.9583 11.8901Z" fill="#003556" stroke="#003556" stroke-width="1.13" stroke-miterlimit="10"/>
<path d="M14.2677 5.16002L15.5477 6.48002V14.64L14.2677 15.96H1.09766V12.63H8.31766C8.42766 12.63 8.51766 12.59 8.59766 12.52C8.67766 12.45 8.70766 12.36 8.70766 12.26V12.22C8.70766 12.11 8.66766 12.01 8.58766 11.93C8.50766 11.85 8.40766 11.81 8.29766 11.81H2.37766L1.09766 10.49V2.34002L2.37766 1.02002H15.5477V4.35002H8.34766C8.23766 4.35002 8.13766 4.39002 8.05766 4.47002C7.97766 4.55002 7.93766 4.64002 7.93766 4.76002V4.80002C7.93766 4.90002 7.97766 4.99002 8.04766 5.06002C8.12766 5.13002 8.21766 5.17002 8.32766 5.17002H14.2677V5.16002Z" fill="#003556" stroke="#003556" stroke-width="1.13" stroke-miterlimit="10"/>
<path d="M25.2272 1.01001H32.0572V15.97H25.2272V12.23C25.2272 11.96 25.0972 11.82 24.8372 11.82C24.5772 11.82 24.4472 11.96 24.4472 12.23V15.97H17.6172V1.01001H24.4472V4.75001C24.4472 5.02001 24.5772 5.16001 24.8372 5.16001C25.0972 5.16001 25.2272 5.02001 25.2272 4.75001V1.01001Z" fill="#003556" stroke="#003556" stroke-width="1.13" stroke-miterlimit="10"/>
<path d="M40.9784 12.23C40.9784 12.34 41.0084 12.44 41.0784 12.52C41.1484 12.6 41.2284 12.64 41.3284 12.64H41.3684C41.4784 12.64 41.5684 12.6 41.6484 12.51C41.7284 12.42 41.7584 12.32 41.7584 12.21V4.77002C41.7584 4.66002 41.7184 4.56002 41.6484 4.47002C41.5784 4.38002 41.4784 4.34002 41.3684 4.34002H41.3284C41.2284 4.34002 41.1484 4.38002 41.0784 4.46002C41.0084 4.54002 40.9784 4.63002 40.9784 4.75002V12.23ZM35.4284 15.97L34.1484 14.65V2.34002L35.4284 1.02002H47.3184L48.5984 2.34002V14.65L47.3184 15.97H35.4284Z" fill="#003556" stroke="#003556" stroke-width="1.13" stroke-miterlimit="10"/>
<path d="M57.4863 8.49001C57.4863 8.76001 57.6163 8.90001 57.8763 8.90001C58.1363 8.90001 58.2663 8.76001 58.2663 8.49001V4.75001C58.2663 4.48001 58.1363 4.34001 57.8763 4.34001C57.6163 4.34001 57.4863 4.48001 57.4863 4.75001V8.49001ZM57.8763 11.82C57.6163 11.82 57.4863 11.96 57.4863 12.23V15.97H50.6562V1.01001H63.8263L65.1063 2.33001V10.49L63.8263 11.81H57.8862L57.8763 11.82Z" fill="#003556" stroke="#003556" stroke-width="1.13" stroke-miterlimit="10"/>
<path d="M14.1895 5.08995L15.4695 6.40995V14.57L14.1895 15.89H1.01953V12.56H8.23953C8.34953 12.56 8.43953 12.52 8.51953 12.45C8.59953 12.38 8.62953 12.29 8.62953 12.19V12.15C8.62953 12.04 8.58953 11.94 8.50953 11.86C8.42953 11.78 8.32953 11.74 8.21953 11.74H2.29953L1.01953 10.42V2.26995L2.29953 0.949951H15.4695V4.27995H8.26953C8.15953 4.27995 8.05953 4.31995 7.97953 4.39995C7.89953 4.47995 7.85953 4.56995 7.85953 4.68995V4.72995C7.85953 4.82995 7.89953 4.91995 7.96953 4.98995C8.04953 5.05995 8.13953 5.09995 8.24953 5.09995H14.1895V5.08995Z" fill="#003556" stroke="#003556" stroke-width="1.13" stroke-miterlimit="10"/>
<path d="M25.1491 0.949951H31.9791V15.91H25.1491V12.17C25.1491 11.9 25.0191 11.76 24.7591 11.76C24.4991 11.76 24.3691 11.9 24.3691 12.17V15.91H17.5391V0.949951H24.3691V4.68995C24.3691 4.95995 24.4991 5.09995 24.7591 5.09995C25.0191 5.09995 25.1491 4.95995 25.1491 4.68995V0.949951Z" fill="#003556" stroke="#003556" stroke-width="1.13" stroke-miterlimit="10"/>
<path d="M40.9003 12.17C40.9003 12.28 40.9303 12.38 41.0003 12.46C41.0703 12.54 41.1503 12.58 41.2503 12.58H41.2903C41.4003 12.58 41.4903 12.54 41.5703 12.45C41.6503 12.36 41.6803 12.26 41.6803 12.15V4.70995C41.6803 4.59995 41.6403 4.49995 41.5703 4.40995C41.5003 4.31995 41.4003 4.27995 41.2903 4.27995H41.2503C41.1503 4.27995 41.0703 4.31995 41.0003 4.39995C40.9303 4.47995 40.9003 4.56995 40.9003 4.68995V12.17ZM35.3503 15.91L34.0703 14.59V2.26995L35.3503 0.949951H47.2403L48.5203 2.26995V14.58L47.2403 15.9H35.3503V15.91Z" fill="#003556" stroke="#003556" stroke-width="1.13" stroke-miterlimit="10"/>
<path d="M57.4198 8.42995C57.4198 8.69995 57.5498 8.83995 57.8098 8.83995C58.0698 8.83995 58.1998 8.69995 58.1998 8.42995V4.68995C58.1998 4.41995 58.0698 4.27995 57.8098 4.27995C57.5498 4.27995 57.4198 4.41995 57.4198 4.68995V8.42995ZM57.8098 11.76C57.5498 11.76 57.4198 11.9 57.4198 12.17V15.91H50.5898V0.949951H63.7598L65.0398 2.26995V10.43L63.7598 11.75H57.8198L57.8098 11.76Z" fill="#003556" stroke="#003556" stroke-width="1.13" stroke-miterlimit="10"/>
<path d="M14.1192 5.03014L15.3992 6.35014V14.5101L14.1192 15.8301H0.949219V12.5001H8.16922C8.27922 12.5001 8.36922 12.4601 8.44922 12.3901C8.52922 12.3201 8.55922 12.2301 8.55922 12.1301V12.0901C8.55922 11.9801 8.51922 11.8801 8.43922 11.8001C8.35922 11.7201 8.25922 11.6801 8.14922 11.6801H2.22922L0.949219 10.3601V2.21014L2.22922 0.890137H15.3992V4.22014H8.19922C8.08922 4.22014 7.98922 4.26014 7.90922 4.34014C7.82922 4.42014 7.78922 4.51014 7.78922 4.63014V4.67014C7.78922 4.77014 7.82922 4.85014 7.89922 4.93014C7.96922 5.01014 8.06922 5.04014 8.17922 5.04014H14.1192V5.03014Z" fill="#003556" stroke="#003556" stroke-width="1.13" stroke-miterlimit="10"/>
<path d="M25.0788 0.880127H31.9088V15.8401H25.0788V12.1001C25.0788 11.8301 24.9488 11.6901 24.6888 11.6901C24.4288 11.6901 24.2987 11.8301 24.2987 12.1001V15.8401H17.4688V0.880127H24.2987V4.62013C24.2987 4.89013 24.4288 5.03013 24.6888 5.03013C24.9488 5.03013 25.0788 4.89013 25.0788 4.62013V0.880127Z" fill="#003556" stroke="#003556" stroke-width="1.13" stroke-miterlimit="10"/>
<path d="M40.8283 12.1001C40.8283 12.2101 40.8583 12.3101 40.9283 12.3901C40.9983 12.4701 41.0783 12.5101 41.1783 12.5101H41.2183C41.3283 12.5101 41.4183 12.4701 41.4983 12.3801C41.5783 12.2901 41.6083 12.1901 41.6083 12.0801V4.64014C41.6083 4.53014 41.5683 4.43014 41.4983 4.34014C41.4283 4.25014 41.3283 4.21014 41.2183 4.21014H41.1783C41.0783 4.21014 40.9983 4.25014 40.9283 4.33014C40.8583 4.41014 40.8283 4.50014 40.8283 4.62014V12.1001ZM35.2683 15.8401L33.9883 14.5201V2.21014L35.2683 0.890137H47.1583L48.4383 2.21014V14.5201L47.1583 15.8401H35.2683Z" fill="#003556" stroke="#003556" stroke-width="1.13" stroke-miterlimit="10"/>
<path d="M57.3378 8.36013C57.3378 8.63013 57.4678 8.77013 57.7278 8.77013C57.9878 8.77013 58.1178 8.63013 58.1178 8.36013V4.62013C58.1178 4.35013 57.9878 4.21013 57.7278 4.21013C57.4678 4.21013 57.3378 4.35013 57.3378 4.62013V8.36013ZM57.7278 11.7001C57.4678 11.7001 57.3378 11.8401 57.3378 12.1101V15.8501H50.5078V0.880127H63.6778L64.9578 2.20013V10.3601L63.6778 11.6801H57.7378L57.7278 11.7001Z" fill="#003556" stroke="#003556" stroke-width="1.13" stroke-miterlimit="10"/>
<path d="M14.0372 4.97007L15.3172 6.29007V14.4501L14.0372 15.7701H0.867188V12.4401H8.08719C8.19719 12.4401 8.28719 12.4001 8.36719 12.3301C8.44719 12.2601 8.47719 12.1701 8.47719 12.0701V12.0301C8.47719 11.9201 8.43719 11.8201 8.35719 11.7401C8.27719 11.6601 8.17719 11.6201 8.06719 11.6201H2.14719L0.867188 10.3001V2.14007L2.14719 0.820068H15.3172V4.15007H8.11719C8.00719 4.15007 7.90719 4.19007 7.82719 4.27007C7.74719 4.35007 7.70719 4.44007 7.70719 4.56007V4.60007C7.70719 4.70007 7.74719 4.78007 7.81719 4.86007C7.88719 4.94007 7.98719 4.97007 8.09719 4.97007H14.0372Z" fill="#003556" stroke="#003556" stroke-width="1.13" stroke-miterlimit="10"/>
<path d="M24.9967 0.820068H31.8267V15.7801H24.9967V12.0401C24.9967 11.7701 24.8667 11.6301 24.6067 11.6301C24.3467 11.6301 24.2167 11.7701 24.2167 12.0401V15.7801H17.3867V0.820068H24.2167V4.56007C24.2167 4.83007 24.3467 4.97007 24.6067 4.97007C24.8667 4.97007 24.9967 4.83007 24.9967 4.56007V0.820068Z" fill="#003556" stroke="#003556" stroke-width="1.13" stroke-miterlimit="10"/>
<path d="M40.748 12.0401C40.748 12.1501 40.778 12.2501 40.848 12.3301C40.918 12.4101 40.998 12.4501 41.098 12.4501H41.138C41.248 12.4501 41.338 12.4101 41.418 12.3201C41.498 12.2301 41.528 12.1301 41.528 12.0201V4.58007C41.528 4.47007 41.488 4.37007 41.418 4.28007C41.348 4.19007 41.248 4.15007 41.138 4.15007H41.098C40.998 4.15007 40.918 4.19007 40.848 4.27007C40.778 4.35007 40.748 4.44007 40.748 4.56007V12.0401ZM35.198 15.7801L33.918 14.4601V2.14007L35.198 0.820068H47.088L48.368 2.14007V14.4501L47.088 15.7701H35.198V15.7801Z" fill="#003556" stroke="#003556" stroke-width="1.13" stroke-miterlimit="10"/>
<path d="M57.2575 8.30007C57.2575 8.57007 57.3875 8.71007 57.6475 8.71007C57.9075 8.71007 58.0375 8.57007 58.0375 8.30007V4.56007C58.0375 4.29007 57.9075 4.15007 57.6475 4.15007C57.3875 4.15007 57.2575 4.29007 57.2575 4.56007V8.30007ZM57.6575 11.6301C57.3975 11.6301 57.2675 11.7701 57.2675 12.0401V15.7801H50.4375V0.820068H63.6075L64.8875 2.14007V10.3001L63.6075 11.6201H57.6675L57.6575 11.6301Z" fill="#003556" stroke="#003556" stroke-width="1.13" stroke-miterlimit="10"/>
<path d="M13.9591 4.90001L15.2391 6.22001V14.38L13.9591 15.7H0.789062V12.37H8.00906C8.11906 12.37 8.20906 12.33 8.28906 12.26C8.36906 12.19 8.39906 12.1 8.39906 12V11.96C8.39906 11.85 8.35906 11.75 8.27906 11.67C8.19906 11.59 8.09906 11.55 7.98906 11.55H2.06906L0.789062 10.23V2.08001L2.06906 0.76001H15.2391V4.09001H8.03906C7.92906 4.09001 7.82906 4.13001 7.74906 4.21001C7.66906 4.29001 7.62906 4.38001 7.62906 4.50001V4.54001C7.62906 4.64001 7.66906 4.72001 7.73906 4.80001C7.80906 4.88001 7.90906 4.91001 8.01906 4.91001H13.9591V4.90001Z" fill="#003556" stroke="#003556" stroke-width="1.13" stroke-miterlimit="10"/>
<path d="M24.9186 0.76001H31.7486V15.72H24.9186V11.98C24.9186 11.71 24.7886 11.57 24.5286 11.57C24.2686 11.57 24.1386 11.71 24.1386 11.98V15.72H17.3086V0.76001H24.1386V4.50001C24.1386 4.77001 24.2686 4.91001 24.5286 4.91001C24.7886 4.91001 24.9186 4.77001 24.9186 4.50001V0.76001Z" fill="#003556" stroke="#003556" stroke-width="1.13" stroke-miterlimit="10"/>
<path d="M40.6698 11.97C40.6698 12.08 40.6998 12.18 40.7698 12.26C40.8398 12.34 40.9198 12.38 41.0198 12.38H41.0598C41.1698 12.38 41.2598 12.34 41.3398 12.25C41.4198 12.16 41.4498 12.06 41.4498 11.95V4.51001C41.4498 4.40001 41.4098 4.30001 41.3398 4.21001C41.2698 4.12001 41.1698 4.08001 41.0598 4.08001H41.0198C40.9198 4.08001 40.8398 4.12001 40.7698 4.20001C40.6998 4.28001 40.6698 4.37001 40.6698 4.49001V11.97ZM35.1198 15.71L33.8398 14.39V2.08001L35.1198 0.76001H47.0098L48.2898 2.08001V14.39L47.0098 15.71H35.1198Z" fill="#003556" stroke="#003556" stroke-width="1.13" stroke-miterlimit="10"/>
<path d="M57.1894 8.24001C57.1894 8.51001 57.3194 8.65001 57.5794 8.65001C57.8394 8.65001 57.9694 8.51001 57.9694 8.24001V4.50001C57.9694 4.23001 57.8394 4.09001 57.5794 4.09001C57.3194 4.09001 57.1894 4.23001 57.1894 4.50001V8.24001ZM57.5794 11.57C57.3194 11.57 57.1894 11.71 57.1894 11.98V15.72H50.3594V0.76001H63.5294L64.8094 2.08001V10.24L63.5294 11.56H57.5894L57.5794 11.57Z" fill="#003556" stroke="#003556" stroke-width="1.13" stroke-miterlimit="10"/>
<path d="M13.8888 4.83994L15.1687 6.15994V14.3199L13.8888 15.6399H0.71875V12.3099H7.93875C8.04875 12.3099 8.13875 12.2699 8.21875 12.1999C8.29875 12.1299 8.32875 12.0399 8.32875 11.9399V11.8999C8.32875 11.7899 8.28875 11.6899 8.20875 11.6099C8.12875 11.5299 8.02875 11.4899 7.91875 11.4899H1.99875L0.71875 10.1699V2.01994L1.99875 0.689941H15.1687V4.01994H7.96875C7.85875 4.01994 7.75875 4.05994 7.67875 4.13994C7.59875 4.21994 7.55875 4.30994 7.55875 4.42994V4.46994C7.55875 4.56994 7.59875 4.64994 7.66875 4.72994C7.73875 4.80994 7.83875 4.83994 7.94875 4.83994H13.8888Z" fill="#003556" stroke="#003556" stroke-width="1.13" stroke-miterlimit="10"/>
<path d="M24.8483 0.689941H31.6783V15.6499H24.8483V11.9099C24.8483 11.6399 24.7183 11.4999 24.4583 11.4999C24.1983 11.4999 24.0683 11.6399 24.0683 11.9099V15.6499H17.2383V0.689941H24.0683V4.42994C24.0683 4.69994 24.1983 4.83994 24.4583 4.83994C24.7183 4.83994 24.8483 4.69994 24.8483 4.42994V0.689941Z" fill="#003556" stroke="#003556" stroke-width="1.13" stroke-miterlimit="10"/>
<path d="M40.5978 11.91C40.5978 12.02 40.6278 12.12 40.6978 12.2C40.7678 12.28 40.8478 12.32 40.9478 12.32H40.9878C41.0978 12.32 41.1878 12.28 41.2678 12.19C41.3478 12.1 41.3778 12 41.3778 11.89V4.44995C41.3778 4.33995 41.3378 4.23995 41.2678 4.14995C41.1978 4.05995 41.0978 4.01995 40.9878 4.01995H40.9478C40.8478 4.01995 40.7678 4.05995 40.6978 4.13995C40.6278 4.21995 40.5978 4.30995 40.5978 4.42995V11.91ZM35.0378 15.65L33.7578 14.33V2.01995L35.0378 0.699951H46.9278L48.2078 2.01995V14.33L46.9278 15.65H35.0378Z" fill="#003556" stroke="#003556" stroke-width="1.13" stroke-miterlimit="10"/>
<path d="M57.1073 8.16994C57.1073 8.43994 57.2373 8.57994 57.4973 8.57994C57.7573 8.57994 57.8873 8.43994 57.8873 8.16994V4.42994C57.8873 4.15994 57.7573 4.01994 57.4973 4.01994C57.2373 4.01994 57.1073 4.15994 57.1073 4.42994V8.16994ZM57.4973 11.5099C57.2373 11.5099 57.1073 11.6499 57.1073 11.9199V15.6599H50.2773V0.689941H63.4473L64.7273 2.00994V10.1699L63.4473 11.4899H57.5073L57.4973 11.5099Z" fill="#003556" stroke="#003556" stroke-width="1.13" stroke-miterlimit="10"/>
<path d="M13.8067 4.77013L15.0867 6.09013V14.2501L13.8067 15.5701H0.636719V12.2401H7.85672C7.96672 12.2401 8.05672 12.2001 8.13672 12.1301C8.21672 12.0601 8.24672 11.9701 8.24672 11.8701V11.8301C8.24672 11.7201 8.20672 11.6201 8.12672 11.5401C8.04672 11.4601 7.94672 11.4201 7.83672 11.4201H1.91672L0.636719 10.1001V1.95013L1.91672 0.630127H15.0867V3.96013H7.88672C7.77672 3.96013 7.67672 4.00013 7.59672 4.08013C7.51672 4.16013 7.47672 4.25013 7.47672 4.37013V4.41013C7.47672 4.51013 7.51672 4.59013 7.58672 4.67013C7.65672 4.75013 7.75672 4.78013 7.86672 4.78013H13.8067V4.77013Z" fill="#003556" stroke="#003556" stroke-width="1.13" stroke-miterlimit="10"/>
<path d="M24.7663 0.630127H31.5963V15.5901H24.7663V11.8501C24.7663 11.5801 24.6362 11.4401 24.3762 11.4401C24.1162 11.4401 23.9862 11.5801 23.9862 11.8501V15.5901H17.1562V0.630127H23.9862V4.37013C23.9862 4.64013 24.1162 4.78013 24.3762 4.78013C24.6362 4.78013 24.7663 4.64013 24.7663 4.37013V0.630127Z" fill="#003556" stroke="#003556" stroke-width="1.13" stroke-miterlimit="10"/>
<path d="M40.5175 11.8501C40.5175 11.9601 40.5475 12.0601 40.6175 12.1401C40.6875 12.2201 40.7675 12.2601 40.8675 12.2601H40.9075C41.0175 12.2601 41.1075 12.2201 41.1875 12.1301C41.2675 12.0401 41.2975 11.9401 41.2975 11.8301V4.39013C41.2975 4.28013 41.2575 4.18013 41.1875 4.09013C41.1175 4.00013 41.0175 3.96013 40.9075 3.96013H40.8675C40.7675 3.96013 40.6875 4.00013 40.6175 4.08013C40.5475 4.16013 40.5175 4.25013 40.5175 4.37013V11.8501ZM34.9675 15.5901L33.6875 14.2701V1.95013L34.9675 0.630127H46.8575L48.1375 1.95013V14.2601L46.8575 15.5801H34.9675V15.5901Z" fill="#003556" stroke="#003556" stroke-width="1.13" stroke-miterlimit="10"/>
<path d="M57.027 8.11013C57.027 8.38013 57.157 8.52013 57.417 8.52013C57.677 8.52013 57.807 8.38013 57.807 8.11013V4.37013C57.807 4.10013 57.677 3.96013 57.417 3.96013C57.157 3.96013 57.027 4.10013 57.027 4.37013V8.11013ZM57.427 11.4401C57.167 11.4401 57.037 11.5801 57.037 11.8501V15.5901H50.207V0.630127H63.377L64.657 1.95013V10.1101L63.377 11.4301H57.437L57.427 11.4401Z" fill="#003556" stroke="#003556" stroke-width="1.13" stroke-miterlimit="10"/>
<path d="M13.7286 4.71006L15.0086 6.03006V14.1901L13.7286 15.5101H0.558594V12.1801H7.77859C7.88859 12.1801 7.97859 12.1401 8.05859 12.0701C8.13859 12.0001 8.16859 11.9101 8.16859 11.8101V11.7701C8.16859 11.6601 8.12859 11.5601 8.04859 11.4801C7.96859 11.4001 7.86859 11.3601 7.75859 11.3601H1.84859L0.568594 10.0401V1.89006L1.84859 0.560059H15.0186V3.89006H7.81859C7.70859 3.89006 7.60859 3.93006 7.52859 4.01006C7.44859 4.09006 7.40859 4.18006 7.40859 4.30006V4.34006C7.40859 4.44006 7.44859 4.53006 7.51859 4.60006C7.59859 4.67006 7.68859 4.71006 7.79859 4.71006H13.7386H13.7286Z" fill="#003556" stroke="#003556" stroke-width="1.13" stroke-miterlimit="10"/>
<path d="M24.6881 0.560059H31.5181V15.5201H24.6881V11.7801C24.6881 11.5101 24.5581 11.3701 24.2981 11.3701C24.0381 11.3701 23.9081 11.5101 23.9081 11.7801V15.5201H17.0781V0.560059H23.9081V4.30006C23.9081 4.57006 24.0381 4.71006 24.2981 4.71006C24.5581 4.71006 24.6881 4.57006 24.6881 4.30006V0.560059Z" fill="#003556" stroke="#003556" stroke-width="1.13" stroke-miterlimit="10"/>
<path d="M40.4394 11.7801C40.4394 11.8901 40.4694 11.9901 40.5394 12.0701C40.6094 12.1501 40.6894 12.1901 40.7894 12.1901H40.8294C40.9394 12.1901 41.0294 12.1501 41.1094 12.0601C41.1894 11.9701 41.2194 11.8701 41.2194 11.7601V4.32007C41.2194 4.21007 41.1794 4.11007 41.1094 4.02007C41.0394 3.93007 40.9394 3.89007 40.8294 3.89007H40.7894C40.6894 3.89007 40.6094 3.93007 40.5394 4.01007C40.4694 4.09007 40.4394 4.18007 40.4394 4.30007V11.7801ZM34.8894 15.5201L33.6094 14.2001V1.89007L34.8894 0.570068H46.7794L48.0594 1.89007V14.2001L46.7794 15.5201H34.8894Z" fill="#003556" stroke="#003556" stroke-width="1.13" stroke-miterlimit="10"/>
<path d="M56.9589 8.04006C56.9589 8.31006 57.0889 8.45006 57.3489 8.45006C57.6089 8.45006 57.7389 8.31006 57.7389 8.04006V4.30006C57.7389 4.03006 57.6089 3.89006 57.3489 3.89006C57.0889 3.89006 56.9589 4.03006 56.9589 4.30006V8.04006ZM57.3489 11.3801C57.0889 11.3801 56.9589 11.5201 56.9589 11.7901V15.5301H50.1289V0.560059H63.2989L64.5789 1.88006V10.0401L63.2989 11.3601H57.3589L57.3489 11.3801Z" fill="#003556" stroke="#003556" stroke-width="1.13" stroke-miterlimit="10"/>
<path d="M13.7286 4.71006L15.0086 6.03006V14.1901L13.7286 15.5101H0.558594V12.1801H7.77859C7.88859 12.1801 7.97859 12.1401 8.05859 12.0701C8.13859 12.0001 8.16859 11.9101 8.16859 11.8101V11.7701C8.16859 11.6601 8.12859 11.5601 8.04859 11.4801C7.96859 11.4001 7.86859 11.3601 7.75859 11.3601H1.84859L0.568594 10.0401V1.89006L1.84859 0.560059H15.0186V3.89006H7.81859C7.70859 3.89006 7.60859 3.93006 7.52859 4.01006C7.44859 4.09006 7.40859 4.18006 7.40859 4.30006V4.34006C7.40859 4.44006 7.44859 4.53006 7.51859 4.60006C7.59859 4.67006 7.68859 4.71006 7.79859 4.71006H13.7386H13.7286Z" fill="white" stroke="#003556" stroke-width="1.13" stroke-miterlimit="10"/>
<path d="M24.6881 0.560059H31.5181V15.5201H24.6881V11.7801C24.6881 11.5101 24.5581 11.3701 24.2981 11.3701C24.0381 11.3701 23.9081 11.5101 23.9081 11.7801V15.5201H17.0781V0.560059H23.9081V4.30006C23.9081 4.57006 24.0381 4.71006 24.2981 4.71006C24.5581 4.71006 24.6881 4.57006 24.6881 4.30006V0.560059Z" fill="white" stroke="#003556" stroke-width="1.13" stroke-miterlimit="10"/>
<path d="M34.8894 15.5201L33.6094 14.2001V1.89007L34.8894 0.570068H46.7794L48.0594 1.89007V14.2001L46.7794 15.5201H34.8894ZM40.4394 11.7801C40.4394 11.8901 40.4694 11.9901 40.5394 12.0701C40.6094 12.1501 40.6894 12.1901 40.7894 12.1901H40.8294C40.9394 12.1901 41.0294 12.1501 41.1094 12.0601C41.1894 11.9701 41.2194 11.8701 41.2194 11.7601V4.32007C41.2194 4.21007 41.1794 4.11007 41.1094 4.02007C41.0394 3.93007 40.9394 3.89007 40.8294 3.89007H40.7894C40.6894 3.89007 40.6094 3.93007 40.5394 4.01007C40.4694 4.09007 40.4394 4.18007 40.4394 4.30007V11.7801Z" fill="white" stroke="#003556" stroke-width="1.13" stroke-miterlimit="10"/>
<path d="M57.3489 11.3801C57.0889 11.3801 56.9589 11.5201 56.9589 11.7901V15.5301H50.1289V0.560059H63.2989L64.5789 1.88006V10.0401L63.2989 11.3601H57.3589L57.3489 11.3801ZM56.9589 8.04006C56.9589 8.31006 57.0889 8.45006 57.3489 8.45006C57.6089 8.45006 57.7389 8.31006 57.7389 8.04006V4.30006C57.7389 4.03006 57.6089 3.89006 57.3489 3.89006C57.0889 3.89006 56.9589 4.03006 56.9589 4.30006V8.04006Z" fill="white" stroke="#003556" stroke-width="1.13" stroke-miterlimit="10"/>
</g>
<defs>
<clipPath id="clip0_488_94681">
<rect width="67.51" height="18.06" fill="white"/>
</clipPath>
</defs>
</svg>
