<svg width="265" height="82" viewBox="0 0 265 82" fill="none" xmlns="http://www.w3.org/2000/svg">
<path d="M36.8698 80.5997C17.1898 80.5997 1.17969 64.5897 1.17969 44.9097C1.17969 25.2297 17.1898 9.21973 36.8698 9.21973H222.02C241.7 9.21973 257.71 25.2297 257.71 44.9097C257.71 64.5897 241.7 80.5997 222.02 80.5997H36.8698Z" fill="#E5E2D1"/>
<path d="M222.02 10.4198C241.07 10.4198 256.52 25.8698 256.52 44.9198C256.52 63.9698 241.07 79.4198 222.02 79.4198H36.87C17.82 79.4198 2.37 63.9698 2.37 44.9198C2.37 25.8698 17.82 10.4198 36.87 10.4198H222.02ZM222.02 8.0498H36.87C16.54 8.0498 0 24.5898 0 44.9198C0 65.2498 16.54 81.7898 36.87 81.7898H222.02C242.35 81.7898 258.89 65.2498 258.89 44.9198C258.89 24.5898 242.35 8.0498 222.02 8.0498Z" fill="#003556"/>
<path d="M222.021 10.4199H36.8711C17.8173 10.4199 2.37109 25.8661 2.37109 44.9199C2.37109 63.9737 17.8173 79.4199 36.8711 79.4199H222.021C241.075 79.4199 256.521 63.9737 256.521 44.9199C256.521 25.8661 241.075 10.4199 222.021 10.4199Z" fill="#E5E2D1"/>
<path d="M222.24 10.1499H37.0898C18.036 10.1499 2.58984 25.5961 2.58984 44.6499C2.58984 63.7037 18.036 79.1499 37.0898 79.1499H222.24C241.294 79.1499 256.74 63.7037 256.74 44.6499C256.74 25.5961 241.294 10.1499 222.24 10.1499Z" fill="#E5E2D1"/>
<path d="M222.451 9.87988H37.3008C18.247 9.87988 2.80078 25.3261 2.80078 44.3799C2.80078 63.4337 18.247 78.8799 37.3008 78.8799H222.451C241.505 78.8799 256.951 63.4337 256.951 44.3799C256.951 25.3261 241.505 9.87988 222.451 9.87988Z" fill="#E5E2D1"/>
<path d="M222.662 9.6001H37.5117C18.4579 9.6001 3.01172 25.0463 3.01172 44.1001C3.01172 63.1539 18.4579 78.6001 37.5117 78.6001H222.662C241.715 78.6001 257.162 63.1539 257.162 44.1001C257.162 25.0463 241.715 9.6001 222.662 9.6001Z" fill="#E5E2D1"/>
<path d="M222.873 9.33008H37.7227C18.6688 9.33008 3.22266 24.7763 3.22266 43.8301C3.22266 62.8839 18.6688 78.3301 37.7227 78.3301H222.873C241.926 78.3301 257.373 62.8839 257.373 43.8301C257.373 24.7763 241.926 9.33008 222.873 9.33008Z" fill="#E5E2D1"/>
<path d="M223.08 9.06006H37.9297C18.8759 9.06006 3.42969 24.5062 3.42969 43.5601C3.42969 62.6139 18.8759 78.0601 37.9297 78.0601H223.08C242.134 78.0601 257.58 62.6139 257.58 43.5601C257.58 24.5062 242.134 9.06006 223.08 9.06006Z" fill="#E5E2D1"/>
<path d="M223.291 8.79004H38.1406C19.0868 8.79004 3.64062 24.2362 3.64062 43.29C3.64062 62.3439 19.0868 77.79 38.1406 77.79H223.291C242.344 77.79 257.791 62.3439 257.791 43.29C257.791 24.2362 242.344 8.79004 223.291 8.79004Z" fill="#E5E2D1"/>
<path d="M223.502 8.52002H38.3516C19.2977 8.52002 3.85156 23.9662 3.85156 43.02C3.85156 62.0738 19.2977 77.52 38.3516 77.52H223.502C242.555 77.52 258.002 62.0738 258.002 43.02C258.002 23.9662 242.555 8.52002 223.502 8.52002Z" fill="#E5E2D1"/>
<path d="M223.713 8.25H38.5625C19.5087 8.25 4.0625 23.6962 4.0625 42.75C4.0625 61.8038 19.5087 77.25 38.5625 77.25H223.713C242.766 77.25 258.213 61.8038 258.213 42.75C258.213 23.6962 242.766 8.25 223.713 8.25Z" fill="#E5E2D1"/>
<path d="M223.931 7.97998H38.7812C19.7274 7.97998 4.28125 23.4262 4.28125 42.48C4.28125 61.5338 19.7274 76.98 38.7812 76.98H223.931C242.985 76.98 258.431 61.5338 258.431 42.48C258.431 23.4262 242.985 7.97998 223.931 7.97998Z" fill="#E5E2D1"/>
<path d="M224.142 7.7002H38.9922C19.9384 7.7002 4.49219 23.1464 4.49219 42.2002C4.49219 61.254 19.9384 76.7002 38.9922 76.7002H224.142C243.196 76.7002 258.642 61.254 258.642 42.2002C258.642 23.1464 243.196 7.7002 224.142 7.7002Z" fill="#E5E2D1"/>
<path d="M224.349 7.43018H39.1992C20.1454 7.43018 4.69922 22.8764 4.69922 41.9302C4.69922 60.984 20.1454 76.4302 39.1992 76.4302H224.349C243.403 76.4302 258.849 60.984 258.849 41.9302C258.849 22.8764 243.403 7.43018 224.349 7.43018Z" fill="#E5E2D1"/>
<path d="M224.56 7.16016H39.4102C20.3563 7.16016 4.91016 22.6063 4.91016 41.6602C4.91016 60.714 20.3563 76.1602 39.4102 76.1602H224.56C243.614 76.1602 259.06 60.714 259.06 41.6602C259.06 22.6063 243.614 7.16016 224.56 7.16016Z" fill="#E5E2D1"/>
<path d="M224.771 6.89014H39.6211C20.5673 6.89014 5.12109 22.3363 5.12109 41.3901C5.12109 60.444 20.5673 75.8901 39.6211 75.8901H224.771C243.825 75.8901 259.271 60.444 259.271 41.3901C259.271 22.3363 243.825 6.89014 224.771 6.89014Z" fill="#E5E2D1"/>
<path d="M224.982 6.62012H39.832C20.7782 6.62012 5.33203 22.0663 5.33203 41.1201C5.33203 60.1739 20.7782 75.6201 39.832 75.6201H224.982C244.036 75.6201 259.482 60.1739 259.482 41.1201C259.482 22.0663 244.036 6.62012 224.982 6.62012Z" fill="#E5E2D1"/>
<path d="M225.189 6.3501H40.0391C20.9852 6.3501 5.53906 21.7963 5.53906 40.8501C5.53906 59.9039 20.9852 75.3501 40.0391 75.3501H225.189C244.243 75.3501 259.689 59.9039 259.689 40.8501C259.689 21.7963 244.243 6.3501 225.189 6.3501Z" fill="#E5E2D1"/>
<path d="M225.412 6.08008H40.2617C21.2079 6.08008 5.76172 21.5263 5.76172 40.5801C5.76172 59.6339 21.2079 75.0801 40.2617 75.0801H225.412C244.465 75.0801 259.912 59.6339 259.912 40.5801C259.912 21.5263 244.465 6.08008 225.412 6.08008Z" fill="#E5E2D1"/>
<path d="M225.623 5.7998H40.4727C21.4188 5.7998 5.97266 21.246 5.97266 40.2998C5.97266 59.3536 21.4188 74.7998 40.4727 74.7998H225.623C244.676 74.7998 260.123 59.3536 260.123 40.2998C260.123 21.246 244.676 5.7998 225.623 5.7998Z" fill="#E5E2D1"/>
<path d="M225.83 5.52979H40.6797C21.6259 5.52979 6.17969 20.976 6.17969 40.0298C6.17969 59.0836 21.6259 74.5298 40.6797 74.5298H225.83C244.884 74.5298 260.33 59.0836 260.33 40.0298C260.33 20.976 244.884 5.52979 225.83 5.52979Z" fill="#E5E2D1"/>
<path d="M226.041 5.25977H40.8906C21.8368 5.25977 6.39062 20.7059 6.39062 39.7598C6.39062 58.8136 21.8368 74.2598 40.8906 74.2598H226.041C245.094 74.2598 260.541 58.8136 260.541 39.7598C260.541 20.7059 245.094 5.25977 226.041 5.25977Z" fill="#E5E2D1"/>
<path d="M226.252 4.99023H41.1016C22.0477 4.99023 6.60156 20.4364 6.60156 39.4902C6.60156 58.5441 22.0477 73.9902 41.1016 73.9902H226.252C245.305 73.9902 260.752 58.5441 260.752 39.4902C260.752 20.4364 245.305 4.99023 226.252 4.99023Z" fill="#E5E2D1"/>
<path d="M226.463 4.71973H41.3125C22.2587 4.71973 6.8125 20.1659 6.8125 39.2197C6.8125 58.2736 22.2587 73.7197 41.3125 73.7197H226.463C245.516 73.7197 260.963 58.2736 260.963 39.2197C260.963 20.1659 245.516 4.71973 226.463 4.71973Z" fill="#E5E2D1"/>
<path d="M226.67 4.4502H41.5195C22.4657 4.4502 7.01953 19.8964 7.01953 38.9502C7.01953 58.004 22.4657 73.4502 41.5195 73.4502H226.67C245.723 73.4502 261.17 58.004 261.17 38.9502C261.17 19.8964 245.723 4.4502 226.67 4.4502Z" fill="#E5E2D1"/>
<path d="M226.88 4.16992H41.7305C22.6766 4.16992 7.23047 19.6161 7.23047 38.6699C7.23047 57.7237 22.6766 73.1699 41.7305 73.1699H226.88C245.934 73.1699 261.38 57.7237 261.38 38.6699C261.38 19.6161 245.934 4.16992 226.88 4.16992Z" fill="#E5E2D1"/>
<path d="M227.099 3.8999H41.9492C22.8954 3.8999 7.44922 19.3461 7.44922 38.3999C7.44922 57.4537 22.8954 72.8999 41.9492 72.8999H227.099C246.153 72.8999 261.599 57.4537 261.599 38.3999C261.599 19.3461 246.153 3.8999 227.099 3.8999Z" fill="#E5E2D1"/>
<path d="M227.31 3.62988H42.1602C23.1063 3.62988 7.66016 19.0761 7.66016 38.1299C7.66016 57.1837 23.1063 72.6299 42.1602 72.6299H227.31C246.364 72.6299 261.81 57.1837 261.81 38.1299C261.81 19.0761 246.364 3.62988 227.31 3.62988Z" fill="#E5E2D1"/>
<path d="M227.521 3.35986H42.3711C23.3173 3.35986 7.87109 18.806 7.87109 37.8599C7.87109 56.9137 23.3173 72.3599 42.3711 72.3599H227.521C246.575 72.3599 262.021 56.9137 262.021 37.8599C262.021 18.806 246.575 3.35986 227.521 3.35986Z" fill="#E5E2D1"/>
<path d="M227.732 3.08984H42.582C23.5282 3.08984 8.08203 18.536 8.08203 37.5898C8.08203 56.6437 23.5282 72.0898 42.582 72.0898H227.732C246.786 72.0898 262.232 56.6437 262.232 37.5898C262.232 18.536 246.786 3.08984 227.732 3.08984Z" fill="#E5E2D1"/>
<path d="M227.939 2.81982H42.7891C23.7352 2.81982 8.28906 18.266 8.28906 37.3198C8.28906 56.3736 23.7352 71.8198 42.7891 71.8198H227.939C246.993 71.8198 262.439 56.3736 262.439 37.3198C262.439 18.266 246.993 2.81982 227.939 2.81982Z" fill="#E5E2D1"/>
<path d="M228.15 2.5498H43C23.9462 2.5498 8.5 17.996 8.5 37.0498C8.5 56.1036 23.9462 71.5498 43 71.5498H228.15C247.204 71.5498 262.65 56.1036 262.65 37.0498C262.65 17.996 247.204 2.5498 228.15 2.5498Z" fill="#E5E2D1"/>
<path d="M228.361 2.27002H43.2109C24.1571 2.27002 8.71094 17.7162 8.71094 36.77C8.71094 55.8238 24.1571 71.27 43.2109 71.27H228.361C247.415 71.27 262.861 55.8238 262.861 36.77C262.861 17.7162 247.415 2.27002 228.361 2.27002Z" fill="#E5E2D1"/>
<path d="M228.572 2H43.4219C24.3681 2 8.92188 17.4462 8.92188 36.5C8.92188 55.5538 24.3681 71 43.4219 71H228.572C247.626 71 263.072 55.5538 263.072 36.5C263.072 17.4462 247.626 2 228.572 2Z" fill="#E5E2D1"/>
<path d="M228.572 2H43.4219C24.3681 2 8.92188 17.4462 8.92188 36.5C8.92188 55.5538 24.3681 71 43.4219 71H228.572C247.626 71 263.072 55.5538 263.072 36.5C263.072 17.4462 247.626 2 228.572 2Z" fill="#F83A31" stroke="#003556" stroke-width="2.37" stroke-miterlimit="10"/>
<path d="M85.5128 36.4566C85.1039 36.4566 84.8994 36.6611 84.8994 37.07V48.3696H74.8267V37.07C74.8267 36.6611 74.6222 36.4566 74.2132 36.4566H68.5634V25.7704H91.1626V36.4566H85.5128ZM94.4163 25.7704H105.716V48.3696H94.4163V25.7704ZM120.864 37.6834H131.55V46.368L129.548 48.3696H110.952L108.951 46.368V27.7721L110.952 25.7704H129.548L131.55 27.7721V36.4566H120.864V31.4202C120.864 31.2481 120.799 31.0974 120.67 30.9683C120.562 30.8391 120.422 30.7853 120.25 30.8068C120.078 30.8068 119.927 30.8714 119.798 31.0005C119.691 31.1297 119.637 31.2803 119.637 31.4525V37.07V42.6875C119.637 42.8597 119.68 43.0104 119.766 43.1395C119.852 43.2471 119.981 43.3117 120.153 43.3332C120.347 43.3763 120.509 43.3332 120.638 43.2041C120.788 43.075 120.864 42.9135 120.864 42.7198V37.6834ZM151.14 37.07C151.14 37.479 151.344 37.6834 151.753 37.6834H157.403V48.3696H146.717V42.7198C146.717 42.3109 146.512 42.1064 146.103 42.1064C145.694 42.1064 145.49 42.3109 145.49 42.7198V48.3696H134.804V25.7704H145.49V31.4202C145.49 31.8292 145.694 32.0336 146.103 32.0336C146.512 32.0336 146.717 31.8292 146.717 31.4202V25.7704H157.403V36.4566H151.753C151.344 36.4566 151.14 36.6611 151.14 37.07ZM183.224 37.6834V48.3696H160.625V25.7704H183.224V30.8068H171.924C171.516 30.8068 171.311 31.0113 171.311 31.4202C171.311 31.8292 171.516 32.0336 171.924 32.0336H183.224V36.4566H171.924C171.516 36.4566 171.311 36.6611 171.311 37.07C171.311 37.479 171.516 37.6834 171.924 37.6834H183.224ZM203.427 36.4566C203.018 36.4566 202.814 36.6611 202.814 37.07V48.3696H192.741V37.07C192.741 36.6611 192.536 36.4566 192.128 36.4566H186.478V25.7704H209.077V36.4566H203.427Z" fill="white"/>
<path d="M84.8994 48.3696V49.2216H85.7514V48.3696H84.8994ZM74.8267 48.3696H73.9747V49.2216H74.8267V48.3696ZM68.5634 36.4566H67.7115V37.3086H68.5634V36.4566ZM68.5634 25.7704V24.9185H67.7115V25.7704H68.5634ZM91.1626 25.7704H92.0146V24.9185H91.1626V25.7704ZM91.1626 36.4566V37.3086H92.0146V36.4566H91.1626ZM85.5128 35.6047C85.1771 35.6047 84.7687 35.6892 84.4504 36.0076C84.132 36.3259 84.0475 36.7342 84.0475 37.07H85.7514C85.7514 36.9969 85.7691 37.0985 85.6552 37.2124C85.5413 37.3263 85.4397 37.3086 85.5128 37.3086V35.6047ZM84.0475 37.07V48.3696H85.7514V37.07H84.0475ZM84.8994 47.5177H74.8267V49.2216H84.8994V47.5177ZM75.6786 48.3696V37.07H73.9747V48.3696H75.6786ZM75.6786 37.07C75.6786 36.7342 75.5941 36.3259 75.2757 36.0076C74.9574 35.6892 74.549 35.6047 74.2132 35.6047V37.3086C74.2864 37.3086 74.1848 37.3263 74.0709 37.2124C73.957 37.0985 73.9747 36.9969 73.9747 37.07H75.6786ZM74.2132 35.6047H68.5634V37.3086H74.2132V35.6047ZM69.4154 36.4566V25.7704H67.7115V36.4566H69.4154ZM68.5634 26.6224H91.1626V24.9185H68.5634V26.6224ZM90.3107 25.7704V36.4566H92.0146V25.7704H90.3107ZM91.1626 35.6047H85.5128V37.3086H91.1626V35.6047ZM94.4163 25.7704V24.9185H93.5644V25.7704H94.4163ZM105.716 25.7704H106.568V24.9185H105.716V25.7704ZM105.716 48.3696V49.2216H106.568V48.3696H105.716ZM94.4163 48.3696H93.5644V49.2216H94.4163V48.3696ZM94.4163 26.6224H105.716V24.9185H94.4163V26.6224ZM104.864 25.7704V48.3696H106.568V25.7704H104.864ZM105.716 47.5177H94.4163V49.2216H105.716V47.5177ZM95.2682 48.3696V25.7704H93.5644V48.3696H95.2682ZM120.864 37.6834V36.8315H120.012V37.6834H120.864ZM131.55 37.6834H132.402V36.8315H131.55V37.6834ZM131.55 46.368L132.152 46.9704L132.402 46.7209V46.368H131.55ZM129.548 48.3696V49.2216H129.901L130.151 48.972L129.548 48.3696ZM110.952 48.3696L110.35 48.972L110.599 49.2216H110.952V48.3696ZM108.951 46.368H108.099V46.7209L108.348 46.9704L108.951 46.368ZM108.951 27.7721L108.348 27.1697L108.099 27.4192V27.7721H108.951ZM110.952 25.7704V24.9185H110.599L110.35 25.168L110.952 25.7704ZM129.548 25.7704L130.151 25.168L129.901 24.9185H129.548V25.7704ZM131.55 27.7721H132.402V27.4192L132.152 27.1697L131.55 27.7721ZM131.55 36.4566V37.3086H132.402V36.4566H131.55ZM120.864 36.4566H120.012V37.3086H120.864V36.4566ZM120.67 30.9683L120.015 31.5136L120.04 31.5433L120.068 31.5707L120.67 30.9683ZM120.25 30.8068V31.6588H120.303L120.356 31.6522L120.25 30.8068ZM119.798 31.0005L119.196 30.3981L119.169 30.4255L119.144 30.4551L119.798 31.0005ZM119.766 43.1395L119.057 43.6121L119.078 43.6429L119.101 43.6717L119.766 43.1395ZM120.153 43.3332L120.338 42.5016L120.299 42.4929L120.259 42.4879L120.153 43.3332ZM120.638 43.2041L120.083 42.5573L120.058 42.5786L120.035 42.6017L120.638 43.2041ZM120.864 38.5354H131.55V36.8315H120.864V38.5354ZM130.698 37.6834V46.368H132.402V37.6834H130.698ZM130.947 45.7656L128.946 47.7672L130.151 48.972L132.152 46.9704L130.947 45.7656ZM129.548 47.5177H110.952V49.2216H129.548V47.5177ZM111.555 47.7672L109.553 45.7656L108.348 46.9704L110.35 48.972L111.555 47.7672ZM109.803 46.368V27.7721H108.099V46.368H109.803ZM109.553 28.3745L111.555 26.3728L110.35 25.168L108.348 27.1697L109.553 28.3745ZM110.952 26.6224H129.548V24.9185H110.952V26.6224ZM128.946 26.3728L130.947 28.3745L132.152 27.1697L130.151 25.168L128.946 26.3728ZM130.698 27.7721V36.4566H132.402V27.7721H130.698ZM131.55 35.6047H120.864V37.3086H131.55V35.6047ZM121.716 36.4566V31.4202H120.012V36.4566H121.716ZM121.716 31.4202C121.716 31.0073 121.551 30.644 121.272 30.3658L120.068 31.5707C120.064 31.5673 120.047 31.5487 120.032 31.5137C120.017 31.4777 120.012 31.4436 120.012 31.4202H121.716ZM121.324 30.4229C121.024 30.0622 120.593 29.9054 120.145 29.9615L120.356 31.6522C120.325 31.6561 120.259 31.6571 120.179 31.6262C120.097 31.5948 120.043 31.5469 120.015 31.5136L121.324 30.4229ZM120.25 29.9549C119.837 29.9549 119.474 30.12 119.196 30.3981L120.401 31.6029C120.397 31.6063 120.379 31.6233 120.344 31.6383C120.308 31.6537 120.274 31.6588 120.25 31.6588V29.9549ZM119.144 30.4551C118.905 30.7414 118.785 31.0863 118.785 31.4525H120.489C120.489 31.4566 120.488 31.4735 120.48 31.4969C120.471 31.5206 120.46 31.5375 120.453 31.5459L119.144 30.4551ZM118.785 31.4525V37.07H120.489V31.4525H118.785ZM118.785 37.07V42.6875H120.489V37.07H118.785ZM118.785 42.6875C118.785 43.0088 118.868 43.3279 119.057 43.6121L120.475 42.667C120.478 42.6712 120.48 42.6762 120.483 42.6816C120.486 42.6871 120.487 42.6919 120.488 42.6956C120.491 42.7035 120.489 42.7022 120.489 42.6875H118.785ZM119.101 43.6717C119.359 43.9946 119.715 44.137 120.048 44.1786L120.259 42.4879C120.25 42.4868 120.271 42.4881 120.308 42.5067C120.349 42.5268 120.394 42.5603 120.431 42.6073L119.101 43.6717ZM119.969 44.1649C120.417 44.2646 120.885 44.162 121.24 43.8065L120.035 42.6017C120.067 42.5704 120.123 42.5307 120.2 42.5101C120.274 42.4903 120.327 42.499 120.338 42.5016L119.969 44.1649ZM121.192 43.8509C121.526 43.5645 121.716 43.1691 121.716 42.7198H120.012C120.012 42.7032 120.016 42.6676 120.035 42.6259C120.054 42.5848 120.077 42.5626 120.083 42.5573L121.192 43.8509ZM121.716 42.7198V37.6834H120.012V42.7198H121.716ZM157.403 37.6834H158.255V36.8315H157.403V37.6834ZM157.403 48.3696V49.2216H158.255V48.3696H157.403ZM146.717 48.3696H145.865V49.2216H146.717V48.3696ZM145.49 48.3696V49.2216H146.342V48.3696H145.49ZM134.804 48.3696H133.952V49.2216H134.804V48.3696ZM134.804 25.7704V24.9185H133.952V25.7704H134.804ZM145.49 25.7704H146.342V24.9185H145.49V25.7704ZM146.717 25.7704V24.9185H145.865V25.7704H146.717ZM157.403 25.7704H158.255V24.9185H157.403V25.7704ZM157.403 36.4566V37.3086H158.255V36.4566H157.403ZM150.288 37.07C150.288 37.4058 150.372 37.8141 150.69 38.1325C151.009 38.4508 151.417 38.5354 151.753 38.5354V36.8315C151.68 36.8315 151.781 36.8138 151.895 36.9277C152.009 37.0416 151.991 37.1432 151.991 37.07H150.288ZM151.753 38.5354H157.403V36.8315H151.753V38.5354ZM156.551 37.6834V48.3696H158.255V37.6834H156.551ZM157.403 47.5177H146.717V49.2216H157.403V47.5177ZM147.568 48.3696V42.7198H145.865V48.3696H147.568ZM147.568 42.7198C147.568 42.384 147.484 41.9757 147.166 41.6574C146.847 41.339 146.439 41.2545 146.103 41.2545V42.9584C146.176 42.9584 146.075 42.9761 145.961 42.8622C145.847 42.7483 145.865 42.6467 145.865 42.7198H147.568ZM146.103 41.2545C145.767 41.2545 145.359 41.339 145.041 41.6574C144.722 41.9757 144.638 42.384 144.638 42.7198H146.342C146.342 42.6467 146.359 42.7483 146.245 42.8622C146.132 42.9761 146.03 42.9584 146.103 42.9584V41.2545ZM144.638 42.7198V48.3696H146.342V42.7198H144.638ZM145.49 47.5177H134.804V49.2216H145.49V47.5177ZM135.655 48.3696V25.7704H133.952V48.3696H135.655ZM134.804 26.6224H145.49V24.9185H134.804V26.6224ZM144.638 25.7704V31.4202H146.342V25.7704H144.638ZM144.638 31.4202C144.638 31.756 144.722 32.1643 145.041 32.4827C145.359 32.801 145.767 32.8856 146.103 32.8856V31.1817C146.03 31.1817 146.132 31.164 146.245 31.2779C146.359 31.3918 146.342 31.4934 146.342 31.4202H144.638ZM146.103 32.8856C146.439 32.8856 146.847 32.801 147.166 32.4827C147.484 32.1643 147.568 31.756 147.568 31.4202H145.865C145.865 31.4934 145.847 31.3918 145.961 31.2779C146.075 31.164 146.176 31.1817 146.103 31.1817V32.8856ZM147.568 31.4202V25.7704H145.865V31.4202H147.568ZM146.717 26.6224H157.403V24.9185H146.717V26.6224ZM156.551 25.7704V36.4566H158.255V25.7704H156.551ZM157.403 35.6047H151.753V37.3086H157.403V35.6047ZM151.753 35.6047C151.417 35.6047 151.009 35.6892 150.69 36.0076C150.372 36.3259 150.288 36.7342 150.288 37.07H151.991C151.991 36.9969 152.009 37.0985 151.895 37.2124C151.781 37.3263 151.68 37.3086 151.753 37.3086V35.6047ZM183.224 37.6834H184.076V36.8315H183.224V37.6834ZM183.224 48.3696V49.2216H184.076V48.3696H183.224ZM160.625 48.3696H159.773V49.2216H160.625V48.3696ZM160.625 25.7704V24.9185H159.773V25.7704H160.625ZM183.224 25.7704H184.076V24.9185H183.224V25.7704ZM183.224 30.8068V31.6588H184.076V30.8068H183.224ZM183.224 32.0336H184.076V31.1817H183.224V32.0336ZM183.224 36.4566V37.3086H184.076V36.4566H183.224ZM182.372 37.6834V48.3696H184.076V37.6834H182.372ZM183.224 47.5177H160.625V49.2216H183.224V47.5177ZM161.477 48.3696V25.7704H159.773V48.3696H161.477ZM160.625 26.6224H183.224V24.9185H160.625V26.6224ZM182.372 25.7704V30.8068H184.076V25.7704H182.372ZM183.224 29.9549H171.924V31.6588H183.224V29.9549ZM171.924 29.9549C171.589 29.9549 171.18 30.0394 170.862 30.3578C170.544 30.6761 170.459 31.0844 170.459 31.4202H172.163C172.163 31.3471 172.181 31.4487 172.067 31.5626C171.953 31.6765 171.851 31.6588 171.924 31.6588V29.9549ZM170.459 31.4202C170.459 31.756 170.544 32.1643 170.862 32.4827C171.18 32.801 171.589 32.8856 171.924 32.8856V31.1817C171.851 31.1817 171.953 31.164 172.067 31.2779C172.181 31.3918 172.163 31.4934 172.163 31.4202H170.459ZM171.924 32.8856H183.224V31.1817H171.924V32.8856ZM182.372 32.0336V36.4566H184.076V32.0336H182.372ZM183.224 35.6047H171.924V37.3086H183.224V35.6047ZM171.924 35.6047C171.589 35.6047 171.18 35.6892 170.862 36.0076C170.544 36.3259 170.459 36.7342 170.459 37.07H172.163C172.163 36.9969 172.181 37.0985 172.067 37.2124C171.953 37.3263 171.851 37.3086 171.924 37.3086V35.6047ZM170.459 37.07C170.459 37.4058 170.544 37.8141 170.862 38.1325C171.18 38.4508 171.589 38.5354 171.924 38.5354V36.8315C171.851 36.8315 171.953 36.8138 172.067 36.9277C172.181 37.0416 172.163 37.1432 172.163 37.07H170.459ZM171.924 38.5354H183.224V36.8315H171.924V38.5354ZM202.814 48.3696V49.2216H203.666V48.3696H202.814ZM192.741 48.3696H191.889V49.2216H192.741V48.3696ZM186.478 36.4566H185.626V37.3086H186.478V36.4566ZM186.478 25.7704V24.9185H185.626V25.7704H186.478ZM209.077 25.7704H209.929V24.9185H209.077V25.7704ZM209.077 36.4566V37.3086H209.929V36.4566H209.077ZM203.427 35.6047C203.091 35.6047 202.683 35.6892 202.365 36.0076C202.046 36.3259 201.962 36.7342 201.962 37.07H203.666C203.666 36.9969 203.683 37.0985 203.569 37.2124C203.456 37.3263 203.354 37.3086 203.427 37.3086V35.6047ZM201.962 37.07V48.3696H203.666V37.07H201.962ZM202.814 47.5177H192.741V49.2216H202.814V47.5177ZM193.593 48.3696V37.07H191.889V48.3696H193.593ZM193.593 37.07C193.593 36.7342 193.508 36.3259 193.19 36.0076C192.872 35.6892 192.463 35.6047 192.128 35.6047V37.3086C192.201 37.3086 192.099 37.3263 191.985 37.2124C191.871 37.0985 191.889 36.9969 191.889 37.07H193.593ZM192.128 35.6047H186.478V37.3086H192.128V35.6047ZM187.33 36.4566V25.7704H185.626V36.4566H187.33ZM186.478 26.6224H209.077V24.9185H186.478V26.6224ZM208.225 25.7704V36.4566H209.929V25.7704H208.225ZM209.077 35.6047H203.427V37.3086H209.077V35.6047Z" fill="#003556"/>
</svg>
