<svg width="264" height="81" viewBox="0 0 264 81" fill="none" xmlns="http://www.w3.org/2000/svg">
<path d="M221.65 10H36.5C17.4462 10 2 25.4462 2 44.5C2 63.5538 17.4462 79 36.5 79H221.65C240.704 79 256.15 63.5538 256.15 44.5C256.15 25.4462 240.704 10 221.65 10Z" fill="#EBC613" stroke="#003556" stroke-width="2.37" stroke-miterlimit="10"/>
<path d="M78.591 44.4566C78.182 44.4566 77.9776 44.6611 77.9776 45.07V56.3696H67.9048V45.07C67.9048 44.6611 67.7003 44.4566 67.2914 44.4566H61.6416V33.7704H84.2408V44.4566H78.591ZM87.4944 33.7704H98.794V56.3696H87.4944V33.7704ZM113.942 45.6834H124.628V54.368L122.626 56.3696H104.03L102.029 54.368V35.7721L104.03 33.7704H122.626L124.628 35.7721V44.4566H113.942V39.4202C113.942 39.2481 113.877 39.0974 113.748 38.9683C113.64 38.8391 113.501 38.7853 113.328 38.8068C113.156 38.8068 113.006 38.8714 112.876 39.0005C112.769 39.1297 112.715 39.2803 112.715 39.4525V45.07V50.6875C112.715 50.8597 112.758 51.0104 112.844 51.1395C112.93 51.2471 113.059 51.3117 113.232 51.3332C113.425 51.3763 113.587 51.3332 113.716 51.2041C113.866 51.075 113.942 50.9135 113.942 50.7198V45.6834ZM144.218 45.07C144.218 45.479 144.422 45.6834 144.831 45.6834H150.481V56.3696H139.795V50.7198C139.795 50.3109 139.59 50.1064 139.181 50.1064C138.772 50.1064 138.568 50.3109 138.568 50.7198V56.3696H127.882V33.7704H138.568V39.4202C138.568 39.8292 138.772 40.0336 139.181 40.0336C139.59 40.0336 139.795 39.8292 139.795 39.4202V33.7704H150.481V44.4566H144.831C144.422 44.4566 144.218 44.6611 144.218 45.07ZM176.302 45.6834V56.3696H153.703V33.7704H176.302V38.8068H165.003C164.594 38.8068 164.389 39.0113 164.389 39.4202C164.389 39.8292 164.594 40.0336 165.003 40.0336H176.302V44.4566H165.003C164.594 44.4566 164.389 44.6611 164.389 45.07C164.389 45.479 164.594 45.6834 165.003 45.6834H176.302ZM196.505 44.4566C196.096 44.4566 195.892 44.6611 195.892 45.07V56.3696H185.819V45.07C185.819 44.6611 185.615 44.4566 185.206 44.4566H179.556V33.7704H202.155V44.4566H196.505Z" fill="white"/>
<path d="M77.9776 56.3696V57.2216H78.8295V56.3696H77.9776ZM67.9048 56.3696H67.0529V57.2216H67.9048V56.3696ZM61.6416 44.4566H60.7896V45.3086H61.6416V44.4566ZM61.6416 33.7704V32.9185H60.7896V33.7704H61.6416ZM84.2408 33.7704H85.0927V32.9185H84.2408V33.7704ZM84.2408 44.4566V45.3086H85.0927V44.4566H84.2408ZM78.591 43.6047C78.2552 43.6047 77.8469 43.6892 77.5285 44.0076C77.2102 44.3259 77.1256 44.7342 77.1256 45.07H78.8295C78.8295 44.9969 78.8472 45.0985 78.7333 45.2124C78.6194 45.3263 78.5178 45.3086 78.591 45.3086V43.6047ZM77.1256 45.07V56.3696H78.8295V45.07H77.1256ZM77.9776 55.5177H67.9048V57.2216H77.9776V55.5177ZM68.7567 56.3696V45.07H67.0529V56.3696H68.7567ZM68.7567 45.07C68.7567 44.7342 68.6722 44.3259 68.3538 44.0076C68.0355 43.6892 67.6272 43.6047 67.2914 43.6047V45.3086C67.3645 45.3086 67.2629 45.3263 67.149 45.2124C67.0351 45.0985 67.0529 44.9969 67.0529 45.07H68.7567ZM67.2914 43.6047H61.6416V45.3086H67.2914V43.6047ZM62.4935 44.4566V33.7704H60.7896V44.4566H62.4935ZM61.6416 34.6224H84.2408V32.9185H61.6416V34.6224ZM83.3888 33.7704V44.4566H85.0927V33.7704H83.3888ZM84.2408 43.6047H78.591V45.3086H84.2408V43.6047ZM87.4944 33.7704V32.9185H86.6425V33.7704H87.4944ZM98.794 33.7704H99.646V32.9185H98.794V33.7704ZM98.794 56.3696V57.2216H99.646V56.3696H98.794ZM87.4944 56.3696H86.6425V57.2216H87.4944V56.3696ZM87.4944 34.6224H98.794V32.9185H87.4944V34.6224ZM97.9421 33.7704V56.3696H99.646V33.7704H97.9421ZM98.794 55.5177H87.4944V57.2216H98.794V55.5177ZM88.3464 56.3696V33.7704H86.6425V56.3696H88.3464ZM113.942 45.6834V44.8315H113.09V45.6834H113.942ZM124.628 45.6834H125.48V44.8315H124.628V45.6834ZM124.628 54.368L125.23 54.9704L125.48 54.7209V54.368H124.628ZM122.626 56.3696V57.2216H122.979L123.229 56.972L122.626 56.3696ZM104.03 56.3696L103.428 56.972L103.678 57.2216H104.03V56.3696ZM102.029 54.368H101.177V54.7209L101.426 54.9704L102.029 54.368ZM102.029 35.7721L101.426 35.1697L101.177 35.4192V35.7721H102.029ZM104.03 33.7704V32.9185H103.678L103.428 33.168L104.03 33.7704ZM122.626 33.7704L123.229 33.168L122.979 32.9185H122.626V33.7704ZM124.628 35.7721H125.48V35.4192L125.23 35.1697L124.628 35.7721ZM124.628 44.4566V45.3086H125.48V44.4566H124.628ZM113.942 44.4566H113.09V45.3086H113.942V44.4566ZM113.748 38.9683L113.094 39.5136L113.118 39.5433L113.146 39.5707L113.748 38.9683ZM113.328 38.8068V39.6588H113.381L113.434 39.6522L113.328 38.8068ZM112.876 39.0005L112.274 38.3981L112.247 38.4255L112.222 38.4551L112.876 39.0005ZM112.844 51.1395L112.135 51.6121L112.156 51.6429L112.179 51.6717L112.844 51.1395ZM113.232 51.3332L113.416 50.5016L113.377 50.4929L113.337 50.4879L113.232 51.3332ZM113.716 51.2041L113.161 50.5573L113.137 50.5786L113.113 50.6017L113.716 51.2041ZM113.942 46.5354H124.628V44.8315H113.942V46.5354ZM123.776 45.6834V54.368H125.48V45.6834H123.776ZM124.026 53.7656L122.024 55.7672L123.229 56.972L125.23 54.9704L124.026 53.7656ZM122.626 55.5177H104.03V57.2216H122.626V55.5177ZM104.633 55.7672L102.631 53.7656L101.426 54.9704L103.428 56.972L104.633 55.7672ZM102.881 54.368V35.7721H101.177V54.368H102.881ZM102.631 36.3745L104.633 34.3728L103.428 33.168L101.426 35.1697L102.631 36.3745ZM104.03 34.6224H122.626V32.9185H104.03V34.6224ZM122.024 34.3728L124.026 36.3745L125.23 35.1697L123.229 33.168L122.024 34.3728ZM123.776 35.7721V44.4566H125.48V35.7721H123.776ZM124.628 43.6047H113.942V45.3086H124.628V43.6047ZM114.794 44.4566V39.4202H113.09V44.4566H114.794ZM114.794 39.4202C114.794 39.0073 114.629 38.644 114.35 38.3658L113.146 39.5707C113.142 39.5673 113.125 39.5487 113.11 39.5137C113.095 39.4777 113.09 39.4436 113.09 39.4202H114.794ZM114.403 38.4229C114.102 38.0622 113.672 37.9054 113.223 37.9615L113.434 39.6522C113.403 39.6561 113.337 39.6571 113.257 39.6262C113.175 39.5948 113.121 39.5469 113.094 39.5136L114.403 38.4229ZM113.328 37.9549C112.915 37.9549 112.552 38.12 112.274 38.3981L113.479 39.6029C113.475 39.6063 113.457 39.6233 113.422 39.6383C113.386 39.6537 113.352 39.6588 113.328 39.6588V37.9549ZM112.222 38.4551C111.983 38.7414 111.863 39.0863 111.863 39.4525H113.567C113.567 39.4566 113.566 39.4735 113.558 39.4969C113.549 39.5206 113.538 39.5375 113.531 39.5459L112.222 38.4551ZM111.863 39.4525V45.07H113.567V39.4525H111.863ZM111.863 45.07V50.6875H113.567V45.07H111.863ZM111.863 50.6875C111.863 51.0088 111.946 51.3279 112.135 51.6121L113.553 50.667C113.556 50.6712 113.559 50.6762 113.561 50.6816C113.564 50.6871 113.565 50.6919 113.566 50.6956C113.569 50.7035 113.567 50.7022 113.567 50.6875H111.863ZM112.179 51.6717C112.437 51.9946 112.793 52.137 113.126 52.1786L113.337 50.4879C113.328 50.4868 113.349 50.4881 113.387 50.5067C113.427 50.5268 113.472 50.5603 113.509 50.6073L112.179 51.6717ZM113.047 52.1649C113.495 52.2646 113.963 52.162 114.318 51.8065L113.113 50.6017C113.145 50.5704 113.201 50.5307 113.278 50.5101C113.352 50.4903 113.405 50.499 113.416 50.5016L113.047 52.1649ZM114.27 51.8509C114.604 51.5645 114.794 51.1691 114.794 50.7198H113.09C113.09 50.7032 113.094 50.6676 113.113 50.6259C113.132 50.5848 113.155 50.5626 113.161 50.5573L114.27 51.8509ZM114.794 50.7198V45.6834H113.09V50.7198H114.794ZM150.481 45.6834H151.333V44.8315H150.481V45.6834ZM150.481 56.3696V57.2216H151.333V56.3696H150.481ZM139.795 56.3696H138.943V57.2216H139.795V56.3696ZM138.568 56.3696V57.2216H139.42V56.3696H138.568ZM127.882 56.3696H127.03V57.2216H127.882V56.3696ZM127.882 33.7704V32.9185H127.03V33.7704H127.882ZM138.568 33.7704H139.42V32.9185H138.568V33.7704ZM139.795 33.7704V32.9185H138.943V33.7704H139.795ZM150.481 33.7704H151.333V32.9185H150.481V33.7704ZM150.481 44.4566V45.3086H151.333V44.4566H150.481ZM143.366 45.07C143.366 45.4058 143.45 45.8141 143.769 46.1325C144.087 46.4508 144.495 46.5354 144.831 46.5354V44.8315C144.758 44.8315 144.86 44.8138 144.973 44.9277C145.087 45.0416 145.07 45.1432 145.07 45.07H143.366ZM144.831 46.5354H150.481V44.8315H144.831V46.5354ZM149.629 45.6834V56.3696H151.333V45.6834H149.629ZM150.481 55.5177H139.795V57.2216H150.481V55.5177ZM140.647 56.3696V50.7198H138.943V56.3696H140.647ZM140.647 50.7198C140.647 50.384 140.562 49.9757 140.244 49.6574C139.925 49.339 139.517 49.2545 139.181 49.2545V50.9584C139.254 50.9584 139.153 50.9761 139.039 50.8622C138.925 50.7483 138.943 50.6467 138.943 50.7198H140.647ZM139.181 49.2545C138.845 49.2545 138.437 49.339 138.119 49.6574C137.8 49.9757 137.716 50.384 137.716 50.7198H139.42C139.42 50.6467 139.437 50.7483 139.324 50.8622C139.21 50.9761 139.108 50.9584 139.181 50.9584V49.2545ZM137.716 50.7198V56.3696H139.42V50.7198H137.716ZM138.568 55.5177H127.882V57.2216H138.568V55.5177ZM128.734 56.3696V33.7704H127.03V56.3696H128.734ZM127.882 34.6224H138.568V32.9185H127.882V34.6224ZM137.716 33.7704V39.4202H139.42V33.7704H137.716ZM137.716 39.4202C137.716 39.756 137.8 40.1643 138.119 40.4827C138.437 40.801 138.845 40.8856 139.181 40.8856V39.1817C139.108 39.1817 139.21 39.164 139.324 39.2779C139.437 39.3918 139.42 39.4934 139.42 39.4202H137.716ZM139.181 40.8856C139.517 40.8856 139.925 40.801 140.244 40.4827C140.562 40.1643 140.647 39.756 140.647 39.4202H138.943C138.943 39.4934 138.925 39.3918 139.039 39.2779C139.153 39.164 139.254 39.1817 139.181 39.1817V40.8856ZM140.647 39.4202V33.7704H138.943V39.4202H140.647ZM139.795 34.6224H150.481V32.9185H139.795V34.6224ZM149.629 33.7704V44.4566H151.333V33.7704H149.629ZM150.481 43.6047H144.831V45.3086H150.481V43.6047ZM144.831 43.6047C144.495 43.6047 144.087 43.6892 143.769 44.0076C143.45 44.3259 143.366 44.7342 143.366 45.07H145.07C145.07 44.9969 145.087 45.0985 144.973 45.2124C144.86 45.3263 144.758 45.3086 144.831 45.3086V43.6047ZM176.302 45.6834H177.154V44.8315H176.302V45.6834ZM176.302 56.3696V57.2216H177.154V56.3696H176.302ZM153.703 56.3696H152.851V57.2216H153.703V56.3696ZM153.703 33.7704V32.9185H152.851V33.7704H153.703ZM176.302 33.7704H177.154V32.9185H176.302V33.7704ZM176.302 38.8068V39.6588H177.154V38.8068H176.302ZM176.302 40.0336H177.154V39.1817H176.302V40.0336ZM176.302 44.4566V45.3086H177.154V44.4566H176.302ZM175.45 45.6834V56.3696H177.154V45.6834H175.45ZM176.302 55.5177H153.703V57.2216H176.302V55.5177ZM154.555 56.3696V33.7704H152.851V56.3696H154.555ZM153.703 34.6224H176.302V32.9185H153.703V34.6224ZM175.45 33.7704V38.8068H177.154V33.7704H175.45ZM176.302 37.9549H165.003V39.6588H176.302V37.9549ZM165.003 37.9549C164.667 37.9549 164.258 38.0394 163.94 38.3578C163.622 38.6761 163.537 39.0844 163.537 39.4202H165.241C165.241 39.3471 165.259 39.4487 165.145 39.5626C165.031 39.6765 164.929 39.6588 165.003 39.6588V37.9549ZM163.537 39.4202C163.537 39.756 163.622 40.1643 163.94 40.4827C164.258 40.801 164.667 40.8856 165.003 40.8856V39.1817C164.929 39.1817 165.031 39.164 165.145 39.2779C165.259 39.3918 165.241 39.4934 165.241 39.4202H163.537ZM165.003 40.8856H176.302V39.1817H165.003V40.8856ZM175.45 40.0336V44.4566H177.154V40.0336H175.45ZM176.302 43.6047H165.003V45.3086H176.302V43.6047ZM165.003 43.6047C164.667 43.6047 164.258 43.6892 163.94 44.0076C163.622 44.3259 163.537 44.7342 163.537 45.07H165.241C165.241 44.9969 165.259 45.0985 165.145 45.2124C165.031 45.3263 164.929 45.3086 165.003 45.3086V43.6047ZM163.537 45.07C163.537 45.4058 163.622 45.8141 163.94 46.1325C164.258 46.4508 164.667 46.5354 165.003 46.5354V44.8315C164.929 44.8315 165.031 44.8138 165.145 44.9277C165.259 45.0416 165.241 45.1432 165.241 45.07H163.537ZM165.003 46.5354H176.302V44.8315H165.003V46.5354ZM195.892 56.3696V57.2216H196.744V56.3696H195.892ZM185.819 56.3696H184.967V57.2216H185.819V56.3696ZM179.556 44.4566H178.704V45.3086H179.556V44.4566ZM179.556 33.7704V32.9185H178.704V33.7704H179.556ZM202.155 33.7704H203.007V32.9185H202.155V33.7704ZM202.155 44.4566V45.3086H203.007V44.4566H202.155ZM196.505 43.6047C196.169 43.6047 195.761 43.6892 195.443 44.0076C195.124 44.3259 195.04 44.7342 195.04 45.07H196.744C196.744 44.9969 196.762 45.0985 196.648 45.2124C196.534 45.3263 196.432 45.3086 196.505 45.3086V43.6047ZM195.04 45.07V56.3696H196.744V45.07H195.04ZM195.892 55.5177H185.819V57.2216H195.892V55.5177ZM186.671 56.3696V45.07H184.967V56.3696H186.671ZM186.671 45.07C186.671 44.7342 186.586 44.3259 186.268 44.0076C185.95 43.6892 185.541 43.6047 185.206 43.6047V45.3086C185.279 45.3086 185.177 45.3263 185.063 45.2124C184.949 45.0985 184.967 44.9969 184.967 45.07H186.671ZM185.206 43.6047H179.556V45.3086H185.206V43.6047ZM180.408 44.4566V33.7704H178.704V44.4566H180.408ZM179.556 34.6224H202.155V32.9185H179.556V34.6224ZM201.303 33.7704V44.4566H203.007V33.7704H201.303ZM202.155 43.6047H196.505V45.3086H202.155V43.6047Z" fill="#003556"/>
</svg>
